<?xml version="1.0" encoding="UTF-8"?>
<svg width="1019px" height="459px" viewBox="0 0 1019 459" version="1.1" xmlns="http://www.w3.org/2000/svg" xmlns:xlink="http://www.w3.org/1999/xlink">
    <!-- Generator: Sketch 61.2 (89653) - https://sketch.com -->
    <title>fig1_0827</title>
    <desc>Created with Sketch.</desc>
    <defs>
        <linearGradient x1="-2.22044605e-14%" y1="50%" x2="100%" y2="50%" id="linearGradient-1">
            <stop stop-color="#E96B2A" offset="0%"></stop>
            <stop stop-color="#E04219" offset="100%"></stop>
        </linearGradient>
        <linearGradient x1="-2.22044605e-14%" y1="50%" x2="100%" y2="50%" id="linearGradient-2">
            <stop stop-color="#96ACBF" offset="0%"></stop>
            <stop stop-color="#768FA5" offset="100%"></stop>
        </linearGradient>
        <linearGradient x1="-2.22044605e-14%" y1="50%" x2="100%" y2="50%" id="linearGradient-3">
            <stop stop-color="#E96B2A" offset="0%"></stop>
            <stop stop-color="#E04219" offset="100%"></stop>
        </linearGradient>
        <linearGradient x1="-2.22044605e-14%" y1="50%" x2="100%" y2="50%" id="linearGradient-4">
            <stop stop-color="#E96B2A" offset="0%"></stop>
            <stop stop-color="#E04219" offset="100%"></stop>
        </linearGradient>
        <linearGradient x1="-2.22044605e-14%" y1="50%" x2="100%" y2="50%" id="linearGradient-5">
            <stop stop-color="#E96B2A" offset="0%"></stop>
            <stop stop-color="#E04219" offset="100%"></stop>
        </linearGradient>
        <linearGradient x1="-2.22044605e-14%" y1="50%" x2="100%" y2="50%" id="linearGradient-6">
            <stop stop-color="#E96B2A" offset="0%"></stop>
            <stop stop-color="#E04219" offset="100%"></stop>
        </linearGradient>
        <path d="M340.7848,442.7716 C343.4056,442.7716 345.0184,441.142 345.0184,438.9244 L345.0184,438.8908 C345.0184,436.7068 343.456,435.8668 341.86,435.598 L344.8336,432.7588 L344.8336,430.81 L336.8872,430.81 L336.8872,433.0276 L341.5072,433.0276 L338.7016,435.85 L339.1048,437.4964 L340.18,437.4964 C341.6248,437.4964 342.4816,438.034 342.4816,438.9916 L342.4816,439.0252 C342.4816,439.8988 341.7928,440.4532 340.8184,440.4532 C339.6256,440.4532 338.7856,439.9492 337.9792,439.042 L336.1984,440.7388 C337.2064,441.9316 338.668,442.7716 340.7848,442.7716 Z M350.9824,442.7716 C354.3256,442.7716 356.1232,440.1676 356.1232,436.354 L356.1232,436.3204 C356.1232,434.002 355.5688,432.7252 354.7288,431.8852 C353.8384,430.9948 352.9144,430.6084 351.3352,430.6084 C348.6808,430.6084 346.8496,432.3556 346.8496,434.7244 L346.8496,434.758 C346.8496,437.1436 348.496,438.5548 351.0496,438.5548 C352.0744,438.5548 352.864,438.2356 353.4352,437.7484 C353.2672,439.3276 352.4944,440.4196 351.0496,440.4196 C350.0584,440.4196 349.336,440.1004 348.4792,439.4116 L347.1184,441.3772 C348.1096,442.2004 349.2688,442.7716 350.9824,442.7716 Z M351.4696,436.4044 C350.1928,436.4044 349.42,435.682 349.42,434.6404 L349.42,434.6068 C349.42,433.5652 350.1424,432.826 351.4192,432.826 C352.7128,432.826 353.4856,433.582 353.4856,434.6236 L353.4856,434.6572 C353.4856,435.6652 352.7464,436.4044 351.4696,436.4044 Z M362.3224,442.738 C364.9264,442.738 366.8584,441.4612 366.8584,439.2772 L366.8584,439.2436 C366.8584,437.8492 366.1528,437.0932 364.96,436.4716 C365.8672,435.9172 366.4552,435.1612 366.4552,433.9012 L366.4552,433.8676 C366.4552,432.0532 364.8088,430.642 362.3224,430.642 C359.836,430.642 358.1896,432.07 358.1896,433.8676 L358.1896,433.9012 C358.1896,435.1612 358.7776,435.9172 359.6848,436.4716 C358.4416,437.0428 357.7864,437.8828 357.7864,439.3108 L357.7864,439.3444 C357.7864,441.394 359.7184,442.738 362.3224,442.738 Z M362.3224,435.6148 C361.2976,435.6148 360.6424,434.9932 360.6424,434.17 L360.6424,434.1364 C360.6424,433.414 361.264,432.7756 362.3224,432.7756 C363.3808,432.7756 364.0024,433.4308 364.0024,434.1532 L364.0024,434.1868 C364.0024,435.01 363.3472,435.6148 362.3224,435.6148 Z M362.3224,440.6044 C361.0456,440.6044 360.2896,439.9492 360.2896,439.1428 L360.2896,439.1092 C360.2896,438.202 361.1464,437.6644 362.3224,437.6644 C363.4984,437.6644 364.3552,438.202 364.3552,439.1092 L364.3552,439.1428 C364.3552,439.966 363.5992,440.6044 362.3224,440.6044 Z" id="path-7"></path>
        <path d="M261.1356,372.42 L261.1356,370.1856 L256.0116,370.1856 L257.9268,368.7072 C260.01,367.0944 261.018,366.12 261.018,364.1544 L261.018,364.1208 C261.018,361.92 259.4052,360.492 256.9692,360.492 C254.8692,360.492 253.7436,361.3488 252.5844,362.928 L254.3988,364.3896 C255.2724,363.3144 255.894,362.8104 256.8012,362.8104 C257.7252,362.8104 258.3804,363.348 258.3804,364.3392 C258.3804,365.3136 257.8092,365.952 256.3476,367.1616 L252.4332,370.3704 L252.4332,372.42 L261.1356,372.42 Z M270.9804,372.42 L270.9804,369.8832 L272.5596,369.8832 L272.5596,367.7832 L270.9804,367.7832 L270.9804,360.576 L268.7964,360.576 L262.3452,368.052 L262.7652,369.8832 L268.5108,369.8832 L268.5108,372.42 L270.9804,372.42 Z M268.5108,367.7832 L265.386,367.7832 L268.5108,364.1208 L268.5108,367.7832 Z M278.6916,372.588 C281.2956,372.588 283.2276,371.3112 283.2276,369.1272 L283.2276,369.0936 C283.2276,367.6992 282.522,366.9432 281.3292,366.3216 C282.2364,365.7672 282.8244,365.0112 282.8244,363.7512 L282.8244,363.7176 C282.8244,361.9032 281.178,360.492 278.6916,360.492 C276.2052,360.492 274.5588,361.92 274.5588,363.7176 L274.5588,363.7512 C274.5588,365.0112 275.1468,365.7672 276.054,366.3216 C274.8108,366.8928 274.1556,367.7328 274.1556,369.1608 L274.1556,369.1944 C274.1556,371.244 276.0876,372.588 278.6916,372.588 Z M278.6916,365.4648 C277.6668,365.4648 277.0116,364.8432 277.0116,364.02 L277.0116,363.9864 C277.0116,363.264 277.6332,362.6256 278.6916,362.6256 C279.75,362.6256 280.3716,363.2808 280.3716,364.0032 L280.3716,364.0368 C280.3716,364.86 279.7164,365.4648 278.6916,365.4648 Z M278.6916,370.4544 C277.4148,370.4544 276.6588,369.7992 276.6588,368.9928 L276.6588,368.9592 C276.6588,368.052 277.5156,367.5144 278.6916,367.5144 C279.8676,367.5144 280.7244,368.052 280.7244,368.9592 L280.7244,368.9928 C280.7244,369.816 279.9684,370.4544 278.6916,370.4544 Z" id="path-8"></path>
        <path d="M310.6848,302.4716 C313.3056,302.4716 314.9184,300.842 314.9184,298.6244 L314.9184,298.5908 C314.9184,296.4068 313.356,295.5668 311.76,295.298 L314.7336,292.4588 L314.7336,290.51 L306.7872,290.51 L306.7872,292.7276 L311.4072,292.7276 L308.6016,295.55 L309.0048,297.1964 L310.08,297.1964 C311.5248,297.1964 312.3816,297.734 312.3816,298.6916 L312.3816,298.7252 C312.3816,299.5988 311.6928,300.1532 310.7184,300.1532 C309.5256,300.1532 308.6856,299.6492 307.8792,298.742 L306.0984,300.4388 C307.1064,301.6316 308.568,302.4716 310.6848,302.4716 Z M325.0488,302.27 L325.0488,299.7332 L326.628,299.7332 L326.628,297.6332 L325.0488,297.6332 L325.0488,290.426 L322.8648,290.426 L316.4136,297.902 L316.8336,299.7332 L322.5792,299.7332 L322.5792,302.27 L325.0488,302.27 Z M322.5792,297.6332 L319.4544,297.6332 L322.5792,293.9708 L322.5792,297.6332 Z M333.1632,302.4716 C335.7168,302.4716 337.6488,300.8084 337.6488,298.406 L337.6488,298.3724 C337.6488,295.9196 335.8512,294.626 333.516,294.626 C332.3568,294.626 331.668,294.9956 331.08,295.382 C331.248,293.8364 331.9872,292.6604 333.4488,292.6604 C334.4568,292.6604 335.0784,293.0132 335.8512,293.6012 L337.212,291.602 C336.1704,290.7788 335.1288,290.3084 333.5328,290.3084 C330.0216,290.3084 328.3752,293.0972 328.3752,296.726 L328.3752,296.7596 C328.3752,299.0948 328.9128,300.3548 329.7696,301.2116 C330.5928,302.0348 331.6344,302.4716 333.1632,302.4716 Z M333.0624,300.254 C331.7856,300.254 331.0128,299.498 331.0128,298.5068 L331.0128,298.4732 C331.0128,297.482 331.752,296.7764 333.0288,296.7764 C334.3056,296.7764 335.0784,297.4988 335.0784,298.49 L335.0784,298.5236 C335.0784,299.5316 334.3392,300.254 333.0624,300.254 Z" id="path-9"></path>
        <path d="M267.2856,232.11 L267.2856,229.8756 L262.1616,229.8756 L264.0768,228.3972 C266.16,226.7844 267.168,225.81 267.168,223.8444 L267.168,223.8108 C267.168,221.61 265.5552,220.182 263.1192,220.182 C261.0192,220.182 259.8936,221.0388 258.7344,222.618 L260.5488,224.0796 C261.4224,223.0044 262.044,222.5004 262.9512,222.5004 C263.8752,222.5004 264.5304,223.038 264.5304,224.0292 C264.5304,225.0036 263.9592,225.642 262.4976,226.8516 L258.5832,230.0604 L258.5832,232.11 L267.2856,232.11 Z M273.3504,232.3116 C276.0552,232.3116 277.8192,230.7324 277.8192,228.246 L277.8192,228.2124 C277.8192,225.558 275.988,224.4492 273.7032,224.4492 C273.048,224.4492 272.628,224.5332 272.1576,224.6508 L272.292,222.618 L277.2984,222.618 L277.2984,220.35 L270.0744,220.35 L269.7384,226.146 L271.2336,227.1372 C271.788,226.902 272.46,226.7004 273.1992,226.7004 C274.4256,226.7004 275.2824,227.2884 275.2824,228.2964 L275.2824,228.33 C275.2824,229.3716 274.5264,229.9596 273.3168,229.9596 C272.2752,229.9596 271.4016,229.4892 270.5112,228.6828 L268.9488,230.5476 C270.0912,231.6396 271.4688,232.3116 273.3504,232.3116 Z M283.8,232.3116 C287.1432,232.3116 288.9408,229.7076 288.9408,225.894 L288.9408,225.8604 C288.9408,223.542 288.3864,222.2652 287.5464,221.4252 C286.656,220.5348 285.732,220.1484 284.1528,220.1484 C281.4984,220.1484 279.6672,221.8956 279.6672,224.2644 L279.6672,224.298 C279.6672,226.6836 281.3136,228.0948 283.8672,228.0948 C284.892,228.0948 285.6816,227.7756 286.2528,227.2884 C286.0848,228.8676 285.312,229.9596 283.8672,229.9596 C282.876,229.9596 282.1536,229.6404 281.2968,228.9516 L279.936,230.9172 C280.9272,231.7404 282.0864,232.3116 283.8,232.3116 Z M284.2872,225.9444 C283.0104,225.9444 282.2376,225.222 282.2376,224.1804 L282.2376,224.1468 C282.2376,223.1052 282.96,222.366 284.2368,222.366 C285.5304,222.366 286.3032,223.122 286.3032,224.1636 L286.3032,224.1972 C286.3032,225.2052 285.564,225.9444 284.2872,225.9444 Z" id="path-10"></path>
        <path d="M388.566,161.96 L388.566,159.4232 L390.1452,159.4232 L390.1452,157.3232 L388.566,157.3232 L388.566,150.116 L386.382,150.116 L379.9308,157.592 L380.3508,159.4232 L386.0964,159.4232 L386.0964,161.96 L388.566,161.96 Z M386.0964,157.3232 L382.9716,157.3232 L386.0964,153.6608 L386.0964,157.3232 Z M394.8156,161.96 L400.0908,152.1488 L400.0908,150.2 L391.6236,150.2 L391.6236,152.4344 L397.1508,152.4344 L391.8924,161.96 L394.8156,161.96 Z M406.5924,161.96 L406.5924,150.116 L404.8284,150.116 L401.4516,151.124 L401.9892,153.2408 L404.0388,152.7368 L404.0388,161.96 L406.5924,161.96 Z" id="path-11"></path>
        <path d="M186.514,91.81 L186.514,79.966 L184.75,79.966 L181.3732,80.974 L181.9108,83.0908 L183.9604,82.5868 L183.9604,91.81 L186.514,91.81 Z M197.5852,91.81 L197.5852,89.5756 L192.4612,89.5756 L194.3764,88.0972 C196.4596,86.4844 197.4676,85.51 197.4676,83.5444 L197.4676,83.5108 C197.4676,81.31 195.8548,79.882 193.4188,79.882 C191.3188,79.882 190.1932,80.7388 189.034,82.318 L190.8484,83.7796 C191.722,82.7044 192.3436,82.2004 193.2508,82.2004 C194.1748,82.2004 194.83,82.738 194.83,83.7292 C194.83,84.7036 194.2588,85.342 192.7972,86.5516 L188.8828,89.7604 L188.8828,91.81 L197.5852,91.81 Z M204.6412,92.0116 C207.7828,92.0116 209.8828,89.3404 209.8828,85.93 L209.8828,85.8964 C209.8828,82.486 207.7828,79.8484 204.6748,79.8484 C201.55,79.8484 199.4332,82.5196 199.4332,85.93 L199.4332,85.9636 C199.4332,89.374 201.4996,92.0116 204.6412,92.0116 Z M204.6748,89.6764 C203.1124,89.6764 202.0876,88.0804 202.0876,85.93 L202.0876,85.8964 C202.0876,83.746 203.0956,82.1836 204.6412,82.1836 C206.1868,82.1836 207.2284,83.7964 207.2284,85.93 L207.2284,85.9636 C207.2284,88.0972 206.2372,89.6764 204.6748,89.6764 Z" id="path-12"></path>
        <linearGradient x1="-2.22044605e-14%" y1="50%" x2="100%" y2="50%" id="linearGradient-13">
            <stop stop-color="#96ACBF" offset="0%"></stop>
            <stop stop-color="#768FA5" offset="100%"></stop>
        </linearGradient>
        <linearGradient x1="-2.22044605e-14%" y1="50%" x2="100%" y2="50%" id="linearGradient-14">
            <stop stop-color="#E96B2A" offset="0%"></stop>
            <stop stop-color="#E04219" offset="100%"></stop>
        </linearGradient>
        <linearGradient x1="-2.22044605e-14%" y1="50%" x2="100%" y2="50%" id="linearGradient-15">
            <stop stop-color="#E96B2A" offset="0%"></stop>
            <stop stop-color="#E04219" offset="100%"></stop>
        </linearGradient>
        <linearGradient x1="-2.22044605e-14%" y1="50%" x2="100%" y2="50%" id="linearGradient-16">
            <stop stop-color="#E96B2A" offset="0%"></stop>
            <stop stop-color="#E04219" offset="100%"></stop>
        </linearGradient>
        <linearGradient x1="-2.22044605e-14%" y1="50%" x2="100%" y2="50%" id="linearGradient-17">
            <stop stop-color="#E96B2A" offset="0%"></stop>
            <stop stop-color="#E04219" offset="100%"></stop>
        </linearGradient>
        <path d="M552.744,442.57 L552.744,430.726 L550.98,430.726 L547.6032,431.734 L548.1408,433.8508 L550.1904,433.3468 L550.1904,442.57 L552.744,442.57 Z M560.4048,442.7716 C563.5464,442.7716 565.6464,440.1004 565.6464,436.69 L565.6464,436.6564 C565.6464,433.246 563.5464,430.6084 560.4384,430.6084 C557.3136,430.6084 555.1968,433.2796 555.1968,436.69 L555.1968,436.7236 C555.1968,440.134 557.2632,442.7716 560.4048,442.7716 Z M560.4384,440.4364 C558.876,440.4364 557.8512,438.8404 557.8512,436.69 L557.8512,436.6564 C557.8512,434.506 558.8592,432.9436 560.4048,432.9436 C561.9504,432.9436 562.992,434.5564 562.992,436.69 L562.992,436.7236 C562.992,438.8572 562.0008,440.4364 560.4384,440.4364 Z M571.6104,442.7716 C574.2312,442.7716 575.844,441.142 575.844,438.9244 L575.844,438.8908 C575.844,436.7068 574.2816,435.8668 572.6856,435.598 L575.6592,432.7588 L575.6592,430.81 L567.7128,430.81 L567.7128,433.0276 L572.3328,433.0276 L569.5272,435.85 L569.9304,437.4964 L571.0056,437.4964 C572.4504,437.4964 573.3072,438.034 573.3072,438.9916 L573.3072,439.0252 C573.3072,439.8988 572.6184,440.4532 571.644,440.4532 C570.4512,440.4532 569.6112,439.9492 568.8048,439.042 L567.024,440.7388 C568.032,441.9316 569.4936,442.7716 571.6104,442.7716 Z M585.9744,442.57 L585.9744,440.0332 L587.5536,440.0332 L587.5536,437.9332 L585.9744,437.9332 L585.9744,430.726 L583.7904,430.726 L577.3392,438.202 L577.7592,440.0332 L583.5048,440.0332 L583.5048,442.57 L585.9744,442.57 Z M583.5048,437.9332 L580.38,437.9332 L583.5048,434.2708 L583.5048,437.9332 Z" id="path-18"></path>
        <path d="M577.274,372.42 L577.274,360.576 L575.51,360.576 L572.1332,361.584 L572.6708,363.7008 L574.7204,363.1968 L574.7204,372.42 L577.274,372.42 Z M588.3452,372.42 L588.3452,370.1856 L583.2212,370.1856 L585.1364,368.7072 C587.2196,367.0944 588.2276,366.12 588.2276,364.1544 L588.2276,364.1208 C588.2276,361.92 586.6148,360.492 584.1788,360.492 C582.0788,360.492 580.9532,361.3488 579.794,362.928 L581.6084,364.3896 C582.482,363.3144 583.1036,362.8104 584.0108,362.8104 C584.9348,362.8104 585.59,363.348 585.59,364.3392 C585.59,365.3136 585.0188,365.952 583.5572,367.1616 L579.6428,370.3704 L579.6428,372.42 L588.3452,372.42 Z M595.4012,372.6216 C598.5428,372.6216 600.6428,369.9504 600.6428,366.54 L600.6428,366.5064 C600.6428,363.096 598.5428,360.4584 595.4348,360.4584 C592.31,360.4584 590.1932,363.1296 590.1932,366.54 L590.1932,366.5736 C590.1932,369.984 592.2596,372.6216 595.4012,372.6216 Z M595.4348,370.2864 C593.8724,370.2864 592.8476,368.6904 592.8476,366.54 L592.8476,366.5064 C592.8476,364.356 593.8556,362.7936 595.4012,362.7936 C596.9468,362.7936 597.9884,364.4064 597.9884,366.54 L597.9884,366.5736 C597.9884,368.7072 596.9972,370.2864 595.4348,370.2864 Z M605.4644,372.42 L610.7396,362.6088 L610.7396,360.66 L602.2724,360.66 L602.2724,362.8944 L607.7996,362.8944 L602.5412,372.42 L605.4644,372.42 Z" id="path-19"></path>
        <path d="M669.724,302.27 L669.724,290.426 L667.96,290.426 L664.5832,291.434 L665.1208,293.5508 L667.1704,293.0468 L667.1704,302.27 L669.724,302.27 Z M676.5616,302.438 C679.1656,302.438 681.0976,301.1612 681.0976,298.9772 L681.0976,298.9436 C681.0976,297.5492 680.392,296.7932 679.1992,296.1716 C680.1064,295.6172 680.6944,294.8612 680.6944,293.6012 L680.6944,293.5676 C680.6944,291.7532 679.048,290.342 676.5616,290.342 C674.0752,290.342 672.4288,291.77 672.4288,293.5676 L672.4288,293.6012 C672.4288,294.8612 673.0168,295.6172 673.924,296.1716 C672.6808,296.7428 672.0256,297.5828 672.0256,299.0108 L672.0256,299.0444 C672.0256,301.094 673.9576,302.438 676.5616,302.438 Z M676.5616,295.3148 C675.5368,295.3148 674.8816,294.6932 674.8816,293.87 L674.8816,293.8364 C674.8816,293.114 675.5032,292.4756 676.5616,292.4756 C677.62,292.4756 678.2416,293.1308 678.2416,293.8532 L678.2416,293.8868 C678.2416,294.71 677.5864,295.3148 676.5616,295.3148 Z M676.5616,300.3044 C675.2848,300.3044 674.5288,299.6492 674.5288,298.8428 L674.5288,298.8092 C674.5288,297.902 675.3856,297.3644 676.5616,297.3644 C677.7376,297.3644 678.5944,297.902 678.5944,298.8092 L678.5944,298.8428 C678.5944,299.666 677.8384,300.3044 676.5616,300.3044 Z M686.9776,302.4716 C689.6824,302.4716 691.4464,300.8924 691.4464,298.406 L691.4464,298.3724 C691.4464,295.718 689.6152,294.6092 687.3304,294.6092 C686.6752,294.6092 686.2552,294.6932 685.7848,294.8108 L685.9192,292.778 L690.9256,292.778 L690.9256,290.51 L683.7016,290.51 L683.3656,296.306 L684.8608,297.2972 C685.4152,297.062 686.0872,296.8604 686.8264,296.8604 C688.0528,296.8604 688.9096,297.4484 688.9096,298.4564 L688.9096,298.49 C688.9096,299.5316 688.1536,300.1196 686.944,300.1196 C685.9024,300.1196 685.0288,299.6492 684.1384,298.8428 L682.576,300.7076 C683.7184,301.7996 685.096,302.4716 686.9776,302.4716 Z M697.4272,302.4716 C700.7704,302.4716 702.568,299.8676 702.568,296.054 L702.568,296.0204 C702.568,293.702 702.0136,292.4252 701.1736,291.5852 C700.2832,290.6948 699.3592,290.3084 697.78,290.3084 C695.1256,290.3084 693.2944,292.0556 693.2944,294.4244 L693.2944,294.458 C693.2944,296.8436 694.9408,298.2548 697.4944,298.2548 C698.5192,298.2548 699.3088,297.9356 699.88,297.4484 C699.712,299.0276 698.9392,300.1196 697.4944,300.1196 C696.5032,300.1196 695.7808,299.8004 694.924,299.1116 L693.5632,301.0772 C694.5544,301.9004 695.7136,302.4716 697.4272,302.4716 Z M697.9144,296.1044 C696.6376,296.1044 695.8648,295.382 695.8648,294.3404 L695.8648,294.3068 C695.8648,293.2652 696.5872,292.526 697.864,292.526 C699.1576,292.526 699.9304,293.282 699.9304,294.3236 L699.9304,294.3572 C699.9304,295.3652 699.1912,296.1044 697.9144,296.1044 Z" id="path-20"></path>
        <path d="M584.644,232.11 L584.644,220.266 L582.88,220.266 L579.5032,221.274 L580.0408,223.3908 L582.0904,222.8868 L582.0904,232.11 L584.644,232.11 Z M595.7152,232.11 L595.7152,229.8756 L590.5912,229.8756 L592.5064,228.3972 C594.5896,226.7844 595.5976,225.81 595.5976,223.8444 L595.5976,223.8108 C595.5976,221.61 593.9848,220.182 591.5488,220.182 C589.4488,220.182 588.3232,221.0388 587.164,222.618 L588.9784,224.0796 C589.852,223.0044 590.4736,222.5004 591.3808,222.5004 C592.3048,222.5004 592.96,223.038 592.96,224.0292 C592.96,225.0036 592.3888,225.642 590.9272,226.8516 L587.0128,230.0604 L587.0128,232.11 L595.7152,232.11 Z M601.78,232.3116 C604.4848,232.3116 606.2488,230.7324 606.2488,228.246 L606.2488,228.2124 C606.2488,225.558 604.4176,224.4492 602.1328,224.4492 C601.4776,224.4492 601.0576,224.5332 600.5872,224.6508 L600.7216,222.618 L605.728,222.618 L605.728,220.35 L598.504,220.35 L598.168,226.146 L599.6632,227.1372 C600.2176,226.902 600.8896,226.7004 601.6288,226.7004 C602.8552,226.7004 603.712,227.2884 603.712,228.2964 L603.712,228.33 C603.712,229.3716 602.956,229.9596 601.7464,229.9596 C600.7048,229.9596 599.8312,229.4892 598.9408,228.6828 L597.3784,230.5476 C598.5208,231.6396 599.8984,232.3116 601.78,232.3116 Z M612.2296,232.3116 C615.5728,232.3116 617.3704,229.7076 617.3704,225.894 L617.3704,225.8604 C617.3704,223.542 616.816,222.2652 615.976,221.4252 C615.0856,220.5348 614.1616,220.1484 612.5824,220.1484 C609.928,220.1484 608.0968,221.8956 608.0968,224.2644 L608.0968,224.298 C608.0968,226.6836 609.7432,228.0948 612.2968,228.0948 C613.3216,228.0948 614.1112,227.7756 614.6824,227.2884 C614.5144,228.8676 613.7416,229.9596 612.2968,229.9596 C611.3056,229.9596 610.5832,229.6404 609.7264,228.9516 L608.3656,230.9172 C609.3568,231.7404 610.516,232.3116 612.2296,232.3116 Z M612.7168,225.9444 C611.44,225.9444 610.6672,225.222 610.6672,224.1804 L610.6672,224.1468 C610.6672,223.1052 611.3896,222.366 612.6664,222.366 C613.96,222.366 614.7328,223.122 614.7328,224.1636 L614.7328,224.1972 C614.7328,225.2052 613.9936,225.9444 612.7168,225.9444 Z" id="path-21"></path>
        <path d="M631.154,161.96 L631.154,150.116 L629.39,150.116 L626.0132,151.124 L626.5508,153.2408 L628.6004,152.7368 L628.6004,161.96 L631.154,161.96 Z M637.8236,162.1616 C640.5284,162.1616 642.2924,160.5824 642.2924,158.096 L642.2924,158.0624 C642.2924,155.408 640.4612,154.2992 638.1764,154.2992 C637.5212,154.2992 637.1012,154.3832 636.6308,154.5008 L636.7652,152.468 L641.7716,152.468 L641.7716,150.2 L634.5476,150.2 L634.2116,155.996 L635.7068,156.9872 C636.2612,156.752 636.9332,156.5504 637.6724,156.5504 C638.8988,156.5504 639.7556,157.1384 639.7556,158.1464 L639.7556,158.18 C639.7556,159.2216 638.9996,159.8096 637.79,159.8096 C636.7484,159.8096 635.8748,159.3392 634.9844,158.5328 L633.422,160.3976 C634.5644,161.4896 635.942,162.1616 637.8236,162.1616 Z M648.5756,162.128 C651.1796,162.128 653.1116,160.8512 653.1116,158.6672 L653.1116,158.6336 C653.1116,157.2392 652.406,156.4832 651.2132,155.8616 C652.1204,155.3072 652.7084,154.5512 652.7084,153.2912 L652.7084,153.2576 C652.7084,151.4432 651.062,150.032 648.5756,150.032 C646.0892,150.032 644.4428,151.46 644.4428,153.2576 L644.4428,153.2912 C644.4428,154.5512 645.0308,155.3072 645.938,155.8616 C644.6948,156.4328 644.0396,157.2728 644.0396,158.7008 L644.0396,158.7344 C644.0396,160.784 645.9716,162.128 648.5756,162.128 Z M648.5756,155.0048 C647.5508,155.0048 646.8956,154.3832 646.8956,153.56 L646.8956,153.5264 C646.8956,152.804 647.5172,152.1656 648.5756,152.1656 C649.634,152.1656 650.2556,152.8208 650.2556,153.5432 L650.2556,153.5768 C650.2556,154.4 649.6004,155.0048 648.5756,155.0048 Z M648.5756,159.9944 C647.2988,159.9944 646.5428,159.3392 646.5428,158.5328 L646.5428,158.4992 C646.5428,157.592 647.3996,157.0544 648.5756,157.0544 C649.7516,157.0544 650.6084,157.592 650.6084,158.4992 L650.6084,158.5328 C650.6084,159.356 649.8524,159.9944 648.5756,159.9944 Z M658.034,161.96 L663.3092,152.1488 L663.3092,150.2 L654.842,150.2 L654.842,152.4344 L660.3692,152.4344 L655.1108,161.96 L658.034,161.96 Z" id="path-22"></path>
        <path d="M501.7352,92.0116 C504.2888,92.0116 506.2208,90.3484 506.2208,87.946 L506.2208,87.9124 C506.2208,85.4596 504.4232,84.166 502.088,84.166 C500.9288,84.166 500.24,84.5356 499.652,84.922 C499.82,83.3764 500.5592,82.2004 502.0208,82.2004 C503.0288,82.2004 503.6504,82.5532 504.4232,83.1412 L505.784,81.142 C504.7424,80.3188 503.7008,79.8484 502.1048,79.8484 C498.5936,79.8484 496.9472,82.6372 496.9472,86.266 L496.9472,86.2996 C496.9472,88.6348 497.4848,89.8948 498.3416,90.7516 C499.1648,91.5748 500.2064,92.0116 501.7352,92.0116 Z M501.6344,89.794 C500.3576,89.794 499.5848,89.038 499.5848,88.0468 L499.5848,88.0132 C499.5848,87.022 500.324,86.3164 501.6008,86.3164 C502.8776,86.3164 503.6504,87.0388 503.6504,88.03 L503.6504,88.0636 C503.6504,89.0716 502.9112,89.794 501.6344,89.794 Z M512.5376,91.81 L512.5376,79.966 L510.7736,79.966 L507.3968,80.974 L507.9344,83.0908 L509.984,82.5868 L509.984,91.81 L512.5376,91.81 Z M523.6088,91.81 L523.6088,89.5756 L518.4848,89.5756 L520.4,88.0972 C522.4832,86.4844 523.4912,85.51 523.4912,83.5444 L523.4912,83.5108 C523.4912,81.31 521.8784,79.882 519.4424,79.882 C517.3424,79.882 516.2168,80.7388 515.0576,82.318 L516.872,83.7796 C517.7456,82.7044 518.3672,82.2004 519.2744,82.2004 C520.1984,82.2004 520.8536,82.738 520.8536,83.7292 C520.8536,84.7036 520.2824,85.342 518.8208,86.5516 L514.9064,89.7604 L514.9064,91.81 L523.6088,91.81 Z" id="path-23"></path>
        <linearGradient x1="-2.22044605e-14%" y1="50%" x2="100%" y2="50%" id="linearGradient-24">
            <stop stop-color="#E96B2A" offset="0%"></stop>
            <stop stop-color="#E04219" offset="100%"></stop>
        </linearGradient>
        <linearGradient x1="-2.22044605e-14%" y1="50%" x2="100%" y2="50%" id="linearGradient-25">
            <stop stop-color="#E96B2A" offset="0%"></stop>
            <stop stop-color="#E04219" offset="100%"></stop>
        </linearGradient>
        <linearGradient x1="-2.22044605e-14%" y1="50%" x2="100%" y2="50%" id="linearGradient-26">
            <stop stop-color="#E96B2A" offset="0%"></stop>
            <stop stop-color="#E04219" offset="100%"></stop>
        </linearGradient>
        <linearGradient x1="-2.22044605e-14%" y1="50%" x2="100%" y2="50%" id="linearGradient-27">
            <stop stop-color="#E96B2A" offset="0%"></stop>
            <stop stop-color="#E04219" offset="100%"></stop>
        </linearGradient>
        <path d="M885.1648,372.6216 C887.7856,372.6216 889.3984,370.992 889.3984,368.7744 L889.3984,368.7408 C889.3984,366.5568 887.836,365.7168 886.24,365.448 L889.2136,362.6088 L889.2136,360.66 L881.2672,360.66 L881.2672,362.8776 L885.8872,362.8776 L883.0816,365.7 L883.4848,367.3464 L884.56,367.3464 C886.0048,367.3464 886.8616,367.884 886.8616,368.8416 L886.8616,368.8752 C886.8616,369.7488 886.1728,370.3032 885.1984,370.3032 C884.0056,370.3032 883.1656,369.7992 882.3592,368.892 L880.5784,370.5888 C881.5864,371.7816 883.048,372.6216 885.1648,372.6216 Z M895.3624,372.6216 C898.7056,372.6216 900.5032,370.0176 900.5032,366.204 L900.5032,366.1704 C900.5032,363.852 899.9488,362.5752 899.1088,361.7352 C898.2184,360.8448 897.2944,360.4584 895.7152,360.4584 C893.0608,360.4584 891.2296,362.2056 891.2296,364.5744 L891.2296,364.608 C891.2296,366.9936 892.876,368.4048 895.4296,368.4048 C896.4544,368.4048 897.244,368.0856 897.8152,367.5984 C897.6472,369.1776 896.8744,370.2696 895.4296,370.2696 C894.4384,370.2696 893.716,369.9504 892.8592,369.2616 L891.4984,371.2272 C892.4896,372.0504 893.6488,372.6216 895.3624,372.6216 Z M895.8496,366.2544 C894.5728,366.2544 893.8,365.532 893.8,364.4904 L893.8,364.4568 C893.8,363.4152 894.5224,362.676 895.7992,362.676 C897.0928,362.676 897.8656,363.432 897.8656,364.4736 L897.8656,364.5072 C897.8656,365.5152 897.1264,366.2544 895.8496,366.2544 Z M910.5664,372.42 L910.5664,369.8832 L912.1456,369.8832 L912.1456,367.7832 L910.5664,367.7832 L910.5664,360.576 L908.3824,360.576 L901.9312,368.052 L902.3512,369.8832 L908.0968,369.8832 L908.0968,372.42 L910.5664,372.42 Z M908.0968,367.7832 L904.972,367.7832 L908.0968,364.1208 L908.0968,367.7832 Z" id="path-28"></path>
        <path d="M971.434,302.4716 C974.1388,302.4716 975.9028,300.8924 975.9028,298.406 L975.9028,298.3724 C975.9028,295.718 974.0716,294.6092 971.7868,294.6092 C971.1316,294.6092 970.7116,294.6932 970.2412,294.8108 L970.3756,292.778 L975.382,292.778 L975.382,290.51 L968.158,290.51 L967.822,296.306 L969.3172,297.2972 C969.8716,297.062 970.5436,296.8604 971.2828,296.8604 C972.5092,296.8604 973.366,297.4484 973.366,298.4564 L973.366,298.49 C973.366,299.5316 972.61,300.1196 971.4004,300.1196 C970.3588,300.1196 969.4852,299.6492 968.5948,298.8428 L967.0324,300.7076 C968.1748,301.7996 969.5524,302.4716 971.434,302.4716 Z M982.186,302.438 C984.79,302.438 986.722,301.1612 986.722,298.9772 L986.722,298.9436 C986.722,297.5492 986.0164,296.7932 984.8236,296.1716 C985.7308,295.6172 986.3188,294.8612 986.3188,293.6012 L986.3188,293.5676 C986.3188,291.7532 984.6724,290.342 982.186,290.342 C979.6996,290.342 978.0532,291.77 978.0532,293.5676 L978.0532,293.6012 C978.0532,294.8612 978.6412,295.6172 979.5484,296.1716 C978.3052,296.7428 977.65,297.5828 977.65,299.0108 L977.65,299.0444 C977.65,301.094 979.582,302.438 982.186,302.438 Z M982.186,295.3148 C981.1612,295.3148 980.506,294.6932 980.506,293.87 L980.506,293.8364 C980.506,293.114 981.1276,292.4756 982.186,292.4756 C983.2444,292.4756 983.866,293.1308 983.866,293.8532 L983.866,293.8868 C983.866,294.71 983.2108,295.3148 982.186,295.3148 Z M982.186,300.3044 C980.9092,300.3044 980.1532,299.6492 980.1532,298.8428 L980.1532,298.8092 C980.1532,297.902 981.01,297.3644 982.186,297.3644 C983.362,297.3644 984.2188,297.902 984.2188,298.8092 L984.2188,298.8428 C984.2188,299.666 983.4628,300.3044 982.186,300.3044 Z M993.1732,302.4716 C995.7268,302.4716 997.6588,300.8084 997.6588,298.406 L997.6588,298.3724 C997.6588,295.9196 995.8612,294.626 993.526,294.626 C992.3668,294.626 991.678,294.9956 991.09,295.382 C991.258,293.8364 991.9972,292.6604 993.4588,292.6604 C994.4668,292.6604 995.0884,293.0132 995.8612,293.6012 L997.222,291.602 C996.1804,290.7788 995.1388,290.3084 993.5428,290.3084 C990.0316,290.3084 988.3852,293.0972 988.3852,296.726 L988.3852,296.7596 C988.3852,299.0948 988.9228,300.3548 989.7796,301.2116 C990.6028,302.0348 991.6444,302.4716 993.1732,302.4716 Z M993.0724,300.254 C991.7956,300.254 991.0228,299.498 991.0228,298.5068 L991.0228,298.4732 C991.0228,297.482 991.762,296.7764 993.0388,296.7764 C994.3156,296.7764 995.0884,297.4988 995.0884,298.49 L995.0884,298.5236 C995.0884,299.5316 994.3492,300.254 993.0724,300.254 Z" id="path-29"></path>
        <path d="M843.7748,232.3116 C846.3956,232.3116 848.0084,230.682 848.0084,228.4644 L848.0084,228.4308 C848.0084,226.2468 846.446,225.4068 844.85,225.138 L847.8236,222.2988 L847.8236,220.35 L839.8772,220.35 L839.8772,222.5676 L844.4972,222.5676 L841.6916,225.39 L842.0948,227.0364 L843.17,227.0364 C844.6148,227.0364 845.4716,227.574 845.4716,228.5316 L845.4716,228.5652 C845.4716,229.4388 844.7828,229.9932 843.8084,229.9932 C842.6156,229.9932 841.7756,229.4892 840.9692,228.582 L839.1884,230.2788 C840.1964,231.4716 841.658,232.3116 843.7748,232.3116 Z M855.098,232.3116 C858.2396,232.3116 860.3396,229.6404 860.3396,226.23 L860.3396,226.1964 C860.3396,222.786 858.2396,220.1484 855.1316,220.1484 C852.0068,220.1484 849.89,222.8196 849.89,226.23 L849.89,226.2636 C849.89,229.674 851.9564,232.3116 855.098,232.3116 Z M855.1316,229.9764 C853.5692,229.9764 852.5444,228.3804 852.5444,226.23 L852.5444,226.1964 C852.5444,224.046 853.5524,222.4836 855.098,222.4836 C856.6436,222.4836 857.6852,224.0964 857.6852,226.23 L857.6852,226.2636 C857.6852,228.3972 856.694,229.9764 855.1316,229.9764 Z M870.6044,232.11 L870.6044,229.8756 L865.4804,229.8756 L867.3956,228.3972 C869.4788,226.7844 870.4868,225.81 870.4868,223.8444 L870.4868,223.8108 C870.4868,221.61 868.874,220.182 866.438,220.182 C864.338,220.182 863.2124,221.0388 862.0532,222.618 L863.8676,224.0796 C864.7412,223.0044 865.3628,222.5004 866.27,222.5004 C867.194,222.5004 867.8492,223.038 867.8492,224.0292 C867.8492,225.0036 867.278,225.642 865.8164,226.8516 L861.902,230.0604 L861.902,232.11 L870.6044,232.11 Z" id="path-30"></path>
        <path d="M779.314,161.96 L779.314,150.116 L777.55,150.116 L774.1732,151.124 L774.7108,153.2408 L776.7604,152.7368 L776.7604,161.96 L779.314,161.96 Z M785.9836,162.1616 C788.6884,162.1616 790.4524,160.5824 790.4524,158.096 L790.4524,158.0624 C790.4524,155.408 788.6212,154.2992 786.3364,154.2992 C785.6812,154.2992 785.2612,154.3832 784.7908,154.5008 L784.9252,152.468 L789.9316,152.468 L789.9316,150.2 L782.7076,150.2 L782.3716,155.996 L783.8668,156.9872 C784.4212,156.752 785.0932,156.5504 785.8324,156.5504 C787.0588,156.5504 787.9156,157.1384 787.9156,158.1464 L787.9156,158.18 C787.9156,159.2216 787.1596,159.8096 785.95,159.8096 C784.9084,159.8096 784.0348,159.3392 783.1444,158.5328 L781.582,160.3976 C782.7244,161.4896 784.102,162.1616 785.9836,162.1616 Z M796.7356,162.128 C799.3396,162.128 801.2716,160.8512 801.2716,158.6672 L801.2716,158.6336 C801.2716,157.2392 800.566,156.4832 799.3732,155.8616 C800.2804,155.3072 800.8684,154.5512 800.8684,153.2912 L800.8684,153.2576 C800.8684,151.4432 799.222,150.032 796.7356,150.032 C794.2492,150.032 792.6028,151.46 792.6028,153.2576 L792.6028,153.2912 C792.6028,154.5512 793.1908,155.3072 794.098,155.8616 C792.8548,156.4328 792.1996,157.2728 792.1996,158.7008 L792.1996,158.7344 C792.1996,160.784 794.1316,162.128 796.7356,162.128 Z M796.7356,155.0048 C795.7108,155.0048 795.0556,154.3832 795.0556,153.56 L795.0556,153.5264 C795.0556,152.804 795.6772,152.1656 796.7356,152.1656 C797.794,152.1656 798.4156,152.8208 798.4156,153.5432 L798.4156,153.5768 C798.4156,154.4 797.7604,155.0048 796.7356,155.0048 Z M796.7356,159.9944 C795.4588,159.9944 794.7028,159.3392 794.7028,158.5328 L794.7028,158.4992 C794.7028,157.592 795.5596,157.0544 796.7356,157.0544 C797.9116,157.0544 798.7684,157.592 798.7684,158.4992 L798.7684,158.5328 C798.7684,159.356 798.0124,159.9944 796.7356,159.9944 Z" id="path-31"></path>
        <path d="M851.4248,92.0116 C854.0456,92.0116 855.6584,90.382 855.6584,88.1644 L855.6584,88.1308 C855.6584,85.9468 854.096,85.1068 852.5,84.838 L855.4736,81.9988 L855.4736,80.05 L847.5272,80.05 L847.5272,82.2676 L852.1472,82.2676 L849.3416,85.09 L849.7448,86.7364 L850.82,86.7364 C852.2648,86.7364 853.1216,87.274 853.1216,88.2316 L853.1216,88.2652 C853.1216,89.1388 852.4328,89.6932 851.4584,89.6932 C850.2656,89.6932 849.4256,89.1892 848.6192,88.282 L846.8384,89.9788 C847.8464,91.1716 849.308,92.0116 851.4248,92.0116 Z M862.1768,91.81 L862.1768,79.966 L860.4128,79.966 L857.036,80.974 L857.5736,83.0908 L859.6232,82.5868 L859.6232,91.81 L862.1768,91.81 Z M868.796,92.0116 C872.1392,92.0116 873.9368,89.4076 873.9368,85.594 L873.9368,85.5604 C873.9368,83.242 873.3824,81.9652 872.5424,81.1252 C871.652,80.2348 870.728,79.8484 869.1488,79.8484 C866.4944,79.8484 864.6632,81.5956 864.6632,83.9644 L864.6632,83.998 C864.6632,86.3836 866.3096,87.7948 868.8632,87.7948 C869.888,87.7948 870.6776,87.4756 871.2488,86.9884 C871.0808,88.5676 870.308,89.6596 868.8632,89.6596 C867.872,89.6596 867.1496,89.3404 866.2928,88.6516 L864.932,90.6172 C865.9232,91.4404 867.0824,92.0116 868.796,92.0116 Z M869.2832,85.6444 C868.0064,85.6444 867.2336,84.922 867.2336,83.8804 L867.2336,83.8468 C867.2336,82.8052 867.956,82.066 869.2328,82.066 C870.5264,82.066 871.2992,82.822 871.2992,83.8636 L871.2992,83.8972 C871.2992,84.9052 870.56,85.6444 869.2832,85.6444 Z" id="path-32"></path>
        <path d="M79.146,442.99 L79.146,434.286 L82.257,442.82 L83.872,442.82 L87,434.388 L87,442.99 L89.125,442.99 L89.125,430.937 L86.32,430.937 L83.141,439.522 L79.979,430.937 L77.021,430.937 L77.021,442.99 L79.146,442.99 Z M94.106,432.926 L94.106,430.733 L91.828,430.733 L91.828,432.926 L94.106,432.926 Z M94.055,442.99 L94.055,434.15 L91.896,434.15 L91.896,442.99 L94.055,442.99 Z M99.801,443.211 C101.008,443.211 102.113,442.905 102.827,442.191 C103.286,441.732 103.592,441.103 103.592,440.253 C103.592,438.859 102.572,437.975 101.178,437.754 C100.311,437.618 100.09,437.601 99.291,437.499 C98.815,437.431 98.271,437.244 98.271,436.615 C98.271,436.156 98.577,435.833 98.951,435.68 C99.274,435.544 99.563,435.544 99.869,435.544 C100.311,435.544 100.77,435.697 101.025,435.952 C101.229,436.173 101.382,436.445 101.382,436.785 L103.405,436.785 C103.405,436.139 103.099,435.476 102.623,434.966 C101.977,434.269 100.906,433.929 99.852,433.929 C98.747,433.929 97.812,434.252 97.166,434.813 C96.639,435.272 96.265,435.901 96.265,436.802 C96.265,437.924 97.081,438.91 98.288,439.165 C99.07,439.335 99.954,439.386 100.736,439.505 C101.28,439.59 101.62,439.93 101.62,440.44 C101.62,441.409 100.532,441.562 99.818,441.562 C99.206,441.562 98.815,441.443 98.475,441.171 C98.203,440.95 97.999,440.525 97.999,440.134 L96.01,440.134 C96.01,440.967 96.435,441.698 96.945,442.191 C97.676,442.888 98.679,443.211 99.801,443.211 Z M108.658,443.211 C109.865,443.211 110.97,442.905 111.684,442.191 C112.143,441.732 112.449,441.103 112.449,440.253 C112.449,438.859 111.429,437.975 110.035,437.754 C109.168,437.618 108.947,437.601 108.148,437.499 C107.672,437.431 107.128,437.244 107.128,436.615 C107.128,436.156 107.434,435.833 107.808,435.68 C108.131,435.544 108.42,435.544 108.726,435.544 C109.168,435.544 109.627,435.697 109.882,435.952 C110.086,436.173 110.239,436.445 110.239,436.785 L112.262,436.785 C112.262,436.139 111.956,435.476 111.48,434.966 C110.834,434.269 109.763,433.929 108.709,433.929 C107.604,433.929 106.669,434.252 106.023,434.813 C105.496,435.272 105.122,435.901 105.122,436.802 C105.122,437.924 105.938,438.91 107.145,439.165 C107.927,439.335 108.811,439.386 109.593,439.505 C110.137,439.59 110.477,439.93 110.477,440.44 C110.477,441.409 109.389,441.562 108.675,441.562 C108.063,441.562 107.672,441.443 107.332,441.171 C107.06,440.95 106.856,440.525 106.856,440.134 L104.867,440.134 C104.867,440.967 105.292,441.698 105.802,442.191 C106.533,442.888 107.536,443.211 108.658,443.211 Z M116.682,432.926 L116.682,430.733 L114.404,430.733 L114.404,432.926 L116.682,432.926 Z M116.631,442.99 L116.631,434.15 L114.472,434.15 L114.472,442.99 L116.631,442.99 Z M121.425,442.99 L121.425,439.386 C121.425,438.638 121.408,437.72 121.714,437.023 C122.003,436.377 122.496,435.901 123.244,435.901 C124.366,435.901 124.706,436.53 124.706,437.567 L124.706,442.99 L126.831,442.99 L126.831,437.091 C126.831,435.255 125.726,433.929 123.839,433.929 C122.819,433.929 121.765,434.354 121.238,435.289 L121.085,434.15 L119.3,434.15 L119.3,442.99 L121.425,442.99 Z M132.866,447.121 C134.838,447.121 137.133,446.492 137.133,444.163 C137.133,443.313 136.827,442.565 136.062,442.038 C135.229,441.46 134.073,441.443 133.189,441.443 L131.727,441.443 C131.285,441.443 130.758,441.324 130.758,440.797 C130.758,440.508 130.996,440.287 131.2,440.168 C131.642,440.321 132.135,440.406 132.628,440.406 C134.532,440.406 136.232,439.216 136.232,437.193 C136.232,436.598 136.062,436.071 135.773,435.595 C135.909,435.17 136.351,435.034 136.844,435.034 C136.895,435.034 136.963,435.051 137.014,435.051 L137.014,433.402 C136.878,433.368 136.572,433.368 136.436,433.368 C135.688,433.368 135.008,433.708 134.634,434.473 C134.056,434.133 133.359,433.929 132.628,433.929 C130.639,433.929 129.007,435.068 129.007,437.176 C129.007,438.077 129.347,438.808 129.891,439.352 C129.177,439.794 128.837,440.389 128.837,441.137 C128.837,441.715 129.16,442.344 129.721,442.65 C129.041,442.99 128.667,443.687 128.667,444.452 C128.667,445.285 129.058,445.914 129.738,446.39 C130.656,447.036 131.795,447.121 132.866,447.121 Z M132.628,438.808 C131.659,438.808 131.064,438.128 131.064,437.176 C131.064,436.224 131.659,435.527 132.628,435.527 C133.597,435.527 134.192,436.224 134.192,437.176 C134.192,438.128 133.597,438.808 132.628,438.808 Z M132.781,445.438 C131.948,445.438 130.554,445.336 130.554,444.214 C130.554,443.653 130.894,443.262 131.353,443.126 L133.019,443.126 C133.818,443.126 135.127,443.126 135.127,444.214 C135.127,445.387 133.631,445.438 132.781,445.438 Z" id="path-33"></path>
        <path d="M4.446,372.83 L4.446,364.126 L7.557,372.66 L9.172,372.66 L12.3,364.228 L12.3,372.83 L14.425,372.83 L14.425,360.777 L11.62,360.777 L8.441,369.362 L5.279,360.777 L2.321,360.777 L2.321,372.83 L4.446,372.83 Z M20.681,373.051 C22.024,373.051 23.163,372.422 23.775,371.674 C24.438,370.841 24.812,369.906 24.812,368.41 C24.812,366.914 24.438,365.979 23.775,365.146 C23.163,364.398 22.024,363.769 20.681,363.769 C19.338,363.769 18.199,364.398 17.587,365.146 C16.924,365.979 16.55,366.914 16.55,368.41 C16.55,369.906 16.924,370.841 17.587,371.674 C18.199,372.422 19.338,373.051 20.681,373.051 Z M20.681,371.198 C20.103,371.198 19.627,370.943 19.338,370.637 C18.828,370.076 18.709,369.243 18.709,368.41 C18.709,367.577 18.828,366.744 19.338,366.183 C19.627,365.877 20.103,365.622 20.681,365.622 C21.259,365.622 21.735,365.877 22.024,366.183 C22.534,366.744 22.653,367.577 22.653,368.41 C22.653,369.243 22.534,370.076 22.024,370.637 C21.735,370.943 21.259,371.198 20.681,371.198 Z M28.994,372.83 L28.994,368.376 C28.994,366.948 29.776,365.877 31.272,365.877 C31.51,365.877 31.765,365.911 32.003,365.962 L32.003,363.922 C31.782,363.888 31.561,363.871 31.34,363.871 C30.303,363.871 29.249,364.296 28.841,365.316 L28.654,363.99 L26.852,363.99 L26.852,372.83 L28.994,372.83 Z M36.933,373.051 C38.055,373.051 39.16,372.694 39.908,371.81 C40.248,371.402 40.605,370.705 40.656,370.178 L38.616,370.178 C38.531,370.501 38.378,370.739 38.191,370.926 C37.885,371.232 37.511,371.351 36.899,371.351 C36.321,371.351 35.896,371.096 35.59,370.807 C35.165,370.399 34.927,369.753 34.944,369.073 L40.86,369.073 C40.86,368.886 40.877,368.478 40.877,368.478 C40.911,367.373 40.758,366.37 40.112,365.401 C39.381,364.296 38.191,363.769 36.882,363.769 C35.675,363.769 34.723,364.211 34.06,364.891 C33.21,365.758 32.785,367.016 32.785,368.427 C32.785,369.872 33.261,371.113 34.145,371.963 C34.842,372.626 35.726,373.051 36.933,373.051 Z M38.752,367.526 L34.927,367.526 C34.944,366.948 35.08,366.54 35.386,366.149 C35.692,365.741 36.219,365.469 36.865,365.469 C37.477,365.469 37.919,365.673 38.208,365.979 C38.548,366.353 38.735,366.863 38.752,367.526 Z M49.598,372.949 C50.227,372.949 50.822,372.864 51.417,372.711 L51.417,370.926 C50.839,370.994 50.482,371.011 50.04,371.011 C49.36,371.011 49.054,370.722 49.054,370.042 L49.054,365.741 L51.281,365.741 L51.281,363.99 L49.054,363.99 L49.054,361.219 L46.929,361.746 L46.929,363.99 L45.314,363.99 L45.314,365.741 L46.929,365.741 L46.929,370.229 C46.929,371.929 47.813,372.949 49.598,372.949 Z M55.344,372.83 L55.344,368.172 C55.344,367.084 55.888,365.724 57.163,365.724 C58.285,365.724 58.625,366.353 58.625,367.373 L58.625,372.83 L60.75,372.83 L60.75,366.931 C60.75,365.112 59.645,363.769 57.758,363.769 C56.84,363.769 55.854,364.177 55.344,364.925 L55.344,360.556 L53.219,360.556 L53.219,372.83 L55.344,372.83 Z M65.731,373.051 C66.989,373.051 68.009,372.439 68.417,371.725 C68.485,372.388 68.995,372.966 69.913,372.966 C70.423,372.966 70.61,372.881 70.967,372.728 L70.967,371.164 C70.967,371.164 70.831,371.198 70.695,371.198 C70.338,371.198 70.202,371.045 70.202,370.637 L70.202,367.356 C70.202,366.761 70.168,366.132 69.947,365.571 C69.437,364.245 68.145,363.769 66.632,363.769 C64.66,363.769 63.079,364.653 62.96,366.642 L65.017,366.642 C65.068,365.826 65.646,365.384 66.632,365.384 C67.839,365.384 68.128,365.945 68.128,366.778 L68.128,367.322 L65.527,367.509 C63.844,367.628 62.535,368.597 62.535,370.28 C62.535,371.725 63.623,373.051 65.731,373.051 Z M65.867,371.334 C65.204,371.334 64.609,370.909 64.609,370.229 C64.609,369.515 65.238,369.124 65.884,369.073 L68.128,368.903 L68.128,369.311 C68.128,370.62 67.193,371.334 65.867,371.334 Z M74.945,372.83 L74.945,369.226 C74.945,368.478 74.928,367.56 75.234,366.863 C75.523,366.217 76.016,365.741 76.764,365.741 C77.886,365.741 78.226,366.37 78.226,367.407 L78.226,372.83 L80.351,372.83 L80.351,366.931 C80.351,365.095 79.246,363.769 77.359,363.769 C76.339,363.769 75.285,364.194 74.758,365.129 L74.605,363.99 L72.82,363.99 L72.82,372.83 L74.945,372.83 Z M90.755,374.309 L90.755,372.762 C91.86,372.643 92.829,372.235 93.526,371.521 C94.087,370.943 94.495,370.212 94.495,369.141 C94.495,367.22 93.067,366.132 91.333,365.86 C91.146,365.826 90.942,365.809 90.755,365.775 L90.755,362.664 C91.146,362.766 91.503,362.936 91.741,363.191 C92.013,363.48 92.251,363.939 92.268,364.347 L94.359,364.347 C94.325,363.412 93.866,362.545 93.186,361.916 C92.557,361.338 91.707,360.981 90.755,360.862 L90.755,359.247 L89.514,359.247 L89.514,360.828 C88.375,360.93 87.423,361.389 86.76,362.052 C86.148,362.647 85.723,363.395 85.723,364.296 C85.723,366.03 86.845,367.203 88.681,367.492 C88.953,367.543 89.242,367.577 89.514,367.611 L89.514,370.977 C89.004,370.926 88.528,370.756 88.137,370.382 C87.78,370.042 87.525,369.532 87.508,368.954 L85.417,368.954 C85.434,370.025 85.944,370.96 86.624,371.572 C87.457,372.337 88.443,372.694 89.514,372.779 L89.514,374.309 L90.755,374.309 Z M89.514,365.605 C89.344,365.588 89.174,365.554 89.004,365.52 C88.29,365.401 87.797,365.027 87.797,364.245 C87.797,363.803 87.984,363.429 88.256,363.174 C88.596,362.851 89.055,362.681 89.514,362.613 L89.514,365.605 Z M90.755,370.96 L90.755,367.798 L91.044,367.849 C91.775,367.985 92.438,368.359 92.438,369.226 C92.438,369.787 92.234,370.127 91.962,370.399 C91.656,370.705 91.248,370.875 90.755,370.96 Z M100.122,373.051 C102.349,373.051 104.151,371.81 104.151,369.447 C104.151,368.223 103.437,367.016 102.213,366.676 C103.284,366.302 103.913,365.214 103.913,364.143 C103.913,362.103 102.281,360.777 100.139,360.777 C97.98,360.777 96.212,362.018 96.178,364.245 L98.32,364.245 C98.337,363.174 99.085,362.647 100.139,362.647 C101.074,362.647 101.754,363.344 101.754,364.194 C101.754,365.299 101.091,365.775 99.935,365.775 L99.051,365.775 L99.051,367.628 L99.935,367.628 C101.04,367.628 102.009,368.189 102.009,369.413 C102.009,370.535 101.193,371.181 100.139,371.181 C99.102,371.181 98.32,370.569 98.235,369.413 L96.11,369.413 C96.178,371.623 97.946,373.051 100.122,373.051 Z M106.956,375.72 C108.452,375.091 108.843,374.105 108.843,372.626 L108.843,370.178 L106.259,370.178 L106.259,372.83 L107.534,372.83 C107.534,373.748 107.347,374.275 106.361,374.734 L106.956,375.72 Z M114.878,373.051 C116.153,373.051 117.02,372.592 117.632,371.997 C118.856,370.824 119.043,368.852 119.043,366.914 C119.043,364.976 118.856,363.004 117.632,361.831 C117.02,361.236 116.153,360.777 114.878,360.777 C113.603,360.777 112.736,361.236 112.124,361.831 C110.9,363.004 110.713,364.976 110.713,366.914 C110.713,368.852 110.9,370.824 112.124,371.997 C112.736,372.592 113.603,373.051 114.878,373.051 Z M114.878,371.079 C112.7495,371.079 112.863059,368.596721 112.87158,367.051772 L112.872,366.914 C112.872,365.384 112.685,362.749 114.878,362.749 C117.071,362.749 116.884,365.384 116.884,366.914 C116.884,368.444 117.071,371.079 114.878,371.079 Z M124.568,373.051 C125.843,373.051 126.71,372.592 127.322,371.997 C128.546,370.824 128.733,368.852 128.733,366.914 C128.733,364.976 128.546,363.004 127.322,361.831 C126.71,361.236 125.843,360.777 124.568,360.777 C123.293,360.777 122.426,361.236 121.814,361.831 C120.59,363.004 120.403,364.976 120.403,366.914 C120.403,368.852 120.59,370.824 121.814,371.997 C122.426,372.592 123.293,373.051 124.568,373.051 Z M124.568,371.079 C122.4395,371.079 122.553059,368.596721 122.56158,367.051772 L122.562,366.914 C122.562,365.384 122.375,362.749 124.568,362.749 C126.761,362.749 126.574,365.384 126.574,366.914 C126.574,368.444 126.761,371.079 124.568,371.079 Z M134.258,373.051 C135.533,373.051 136.4,372.592 137.012,371.997 C138.236,370.824 138.423,368.852 138.423,366.914 C138.423,364.976 138.236,363.004 137.012,361.831 C136.4,361.236 135.533,360.777 134.258,360.777 C132.983,360.777 132.116,361.236 131.504,361.831 C130.28,363.004 130.093,364.976 130.093,366.914 C130.093,368.852 130.28,370.824 131.504,371.997 C132.116,372.592 132.983,373.051 134.258,373.051 Z M134.258,371.079 C132.1295,371.079 132.243059,368.596721 132.25158,367.051772 L132.252,366.914 C132.252,365.384 132.065,362.749 134.258,362.749 C136.451,362.749 136.264,365.384 136.264,366.914 C136.264,368.444 136.451,371.079 134.258,371.079 Z" id="path-34"></path>
        <path d="M14.731,304.159 L14.731,302.612 C15.836,302.493 16.805,302.085 17.502,301.371 C18.063,300.793 18.471,300.062 18.471,298.991 C18.471,297.07 17.043,295.982 15.309,295.71 C15.122,295.676 14.918,295.659 14.731,295.625 L14.731,292.514 C15.122,292.616 15.479,292.786 15.717,293.041 C15.989,293.33 16.227,293.789 16.244,294.197 L18.335,294.197 C18.301,293.262 17.842,292.395 17.162,291.766 C16.533,291.188 15.683,290.831 14.731,290.712 L14.731,289.097 L13.49,289.097 L13.49,290.678 C12.351,290.78 11.399,291.239 10.736,291.902 C10.124,292.497 9.699,293.245 9.699,294.146 C9.699,295.88 10.821,297.053 12.657,297.342 C12.929,297.393 13.218,297.427 13.49,297.461 L13.49,300.827 C12.98,300.776 12.504,300.606 12.113,300.232 C11.756,299.892 11.501,299.382 11.484,298.804 L9.393,298.804 C9.41,299.875 9.92,300.81 10.6,301.422 C11.433,302.187 12.419,302.544 13.49,302.629 L13.49,304.159 L14.731,304.159 Z M13.49,295.455 C13.32,295.438 13.15,295.404 12.98,295.37 C12.266,295.251 11.773,294.877 11.773,294.095 C11.773,293.653 11.96,293.279 12.232,293.024 C12.572,292.701 13.031,292.531 13.49,292.463 L13.49,295.455 Z M14.731,300.81 L14.731,297.648 L15.02,297.699 C15.751,297.835 16.414,298.209 16.414,299.076 C16.414,299.637 16.21,299.977 15.938,300.249 C15.632,300.555 15.224,300.725 14.731,300.81 Z M25.458,302.68 L25.458,290.865 L23.639,290.865 L20.732,292.956 L20.732,295.268 L23.333,293.381 L23.333,302.68 L25.458,302.68 Z M29.062,305.57 C30.558,304.941 30.949,303.955 30.949,302.476 L30.949,300.028 L28.365,300.028 L28.365,302.68 L29.64,302.68 C29.64,303.598 29.453,304.125 28.467,304.584 L29.062,305.57 Z M37.086,302.918 C39.721,302.918 41.2,301.167 41.2,298.668 C41.2,296.424 39.925,294.707 37.545,294.707 C36.491,294.707 35.743,294.962 35.199,295.472 L35.335,292.769 L40.673,292.769 L40.673,290.865 L33.499,290.865 L33.244,297.529 L35.335,297.529 C35.709,296.934 36.406,296.577 37.103,296.577 C38.463,296.577 39.041,297.478 39.041,298.719 C39.041,299.994 38.531,301.031 37.103,301.031 C35.981,301.031 35.165,300.402 35.114,299.229 L32.989,299.229 C33.108,301.456 34.74,302.918 37.086,302.918 Z M46.674,302.901 C47.949,302.901 48.816,302.442 49.428,301.847 C50.652,300.674 50.839,298.702 50.839,296.764 C50.839,294.826 50.652,292.854 49.428,291.681 C48.816,291.086 47.949,290.627 46.674,290.627 C45.399,290.627 44.532,291.086 43.92,291.681 C42.696,292.854 42.509,294.826 42.509,296.764 C42.509,298.702 42.696,300.674 43.92,301.847 C44.532,302.442 45.399,302.901 46.674,302.901 Z M46.674,300.929 C44.481,300.929 44.668,298.294 44.668,296.764 C44.668,295.234 44.481,292.599 46.674,292.599 C48.8025,292.599 48.6889412,295.081279 48.68042,296.626228 L48.68,296.764 C48.68,298.294 48.867,300.929 46.674,300.929 Z M58.217,302.68 L58.217,290.865 L56.398,290.865 L53.491,292.956 L53.491,295.268 L56.092,293.381 L56.092,302.68 L58.217,302.68 Z M69.267,302.799 C69.896,302.799 70.491,302.714 71.086,302.561 L71.086,300.776 C70.508,300.844 70.151,300.861 69.709,300.861 C69.029,300.861 68.723,300.572 68.723,299.892 L68.723,295.591 L70.95,295.591 L70.95,293.84 L68.723,293.84 L68.723,291.069 L66.598,291.596 L66.598,293.84 L64.983,293.84 L64.983,295.591 L66.598,295.591 L66.598,300.079 C66.598,301.779 67.482,302.799 69.267,302.799 Z M76.237,302.901 C77.58,302.901 78.719,302.272 79.331,301.524 C79.994,300.691 80.368,299.756 80.368,298.26 C80.368,296.764 79.994,295.829 79.331,294.996 C78.719,294.248 77.58,293.619 76.237,293.619 C74.894,293.619 73.755,294.248 73.143,294.996 C72.48,295.829 72.106,296.764 72.106,298.26 C72.106,299.756 72.48,300.691 73.143,301.524 C73.755,302.272 74.894,302.901 76.237,302.901 Z M76.237,301.048 C75.659,301.048 75.183,300.793 74.894,300.487 C74.384,299.926 74.265,299.093 74.265,298.26 C74.265,297.427 74.384,296.594 74.894,296.033 C75.183,295.727 75.659,295.472 76.237,295.472 C76.815,295.472 77.291,295.727 77.58,296.033 C78.09,296.594 78.209,297.427 78.209,298.26 C78.209,299.093 78.09,299.926 77.58,300.487 C77.291,300.793 76.815,301.048 76.237,301.048 Z M90.296,304.159 L90.296,302.612 C91.401,302.493 92.37,302.085 93.067,301.371 C93.628,300.793 94.036,300.062 94.036,298.991 C94.036,297.07 92.608,295.982 90.874,295.71 C90.687,295.676 90.483,295.659 90.296,295.625 L90.296,292.514 C90.687,292.616 91.044,292.786 91.282,293.041 C91.554,293.33 91.792,293.789 91.809,294.197 L93.9,294.197 C93.866,293.262 93.407,292.395 92.727,291.766 C92.098,291.188 91.248,290.831 90.296,290.712 L90.296,289.097 L89.055,289.097 L89.055,290.678 C87.916,290.78 86.964,291.239 86.301,291.902 C85.689,292.497 85.264,293.245 85.264,294.146 C85.264,295.88 86.386,297.053 88.222,297.342 C88.494,297.393 88.783,297.427 89.055,297.461 L89.055,300.827 C88.545,300.776 88.069,300.606 87.678,300.232 C87.321,299.892 87.066,299.382 87.049,298.804 L84.958,298.804 C84.975,299.875 85.485,300.81 86.165,301.422 C86.998,302.187 87.984,302.544 89.055,302.629 L89.055,304.159 L90.296,304.159 Z M89.055,295.455 C88.885,295.438 88.715,295.404 88.545,295.37 C87.831,295.251 87.338,294.877 87.338,294.095 C87.338,293.653 87.525,293.279 87.797,293.024 C88.137,292.701 88.596,292.531 89.055,292.463 L89.055,295.455 Z M90.296,300.81 L90.296,297.648 L90.585,297.699 C91.316,297.835 91.979,298.209 91.979,299.076 C91.979,299.637 91.775,299.977 91.503,300.249 C91.197,300.555 90.789,300.725 90.296,300.81 Z M99.663,302.901 C101.89,302.901 103.692,301.66 103.692,299.297 C103.692,298.073 102.978,296.866 101.754,296.526 C102.825,296.152 103.454,295.064 103.454,293.993 C103.454,291.953 101.822,290.627 99.68,290.627 C97.521,290.627 95.753,291.868 95.719,294.095 L97.861,294.095 C97.878,293.024 98.626,292.497 99.68,292.497 C100.615,292.497 101.295,293.194 101.295,294.044 C101.295,295.149 100.632,295.625 99.476,295.625 L98.592,295.625 L98.592,297.478 L99.476,297.478 C100.581,297.478 101.55,298.039 101.55,299.263 C101.55,300.385 100.734,301.031 99.68,301.031 C98.643,301.031 97.861,300.419 97.776,299.263 L95.651,299.263 C95.719,301.473 97.487,302.901 99.663,302.901 Z M106.497,305.57 C107.993,304.941 108.384,303.955 108.384,302.476 L108.384,300.028 L105.8,300.028 L105.8,302.68 L107.075,302.68 C107.075,303.598 106.888,304.125 105.902,304.584 L106.497,305.57 Z M114.419,302.901 C115.694,302.901 116.561,302.442 117.173,301.847 C118.397,300.674 118.584,298.702 118.584,296.764 C118.584,294.826 118.397,292.854 117.173,291.681 C116.561,291.086 115.694,290.627 114.419,290.627 C113.144,290.627 112.277,291.086 111.665,291.681 C110.441,292.854 110.254,294.826 110.254,296.764 C110.254,298.702 110.441,300.674 111.665,301.847 C112.277,302.442 113.144,302.901 114.419,302.901 Z M114.419,300.929 C112.2905,300.929 112.404059,298.446721 112.41258,296.901772 L112.413,296.764 C112.413,295.234 112.226,292.599 114.419,292.599 C116.612,292.599 116.425,295.234 116.425,296.764 C116.425,298.294 116.612,300.929 114.419,300.929 Z M124.109,302.901 C125.384,302.901 126.251,302.442 126.863,301.847 C128.087,300.674 128.274,298.702 128.274,296.764 C128.274,294.826 128.087,292.854 126.863,291.681 C126.251,291.086 125.384,290.627 124.109,290.627 C122.834,290.627 121.967,291.086 121.355,291.681 C120.131,292.854 119.944,294.826 119.944,296.764 C119.944,298.702 120.131,300.674 121.355,301.847 C121.967,302.442 122.834,302.901 124.109,302.901 Z M124.109,300.929 C121.9805,300.929 122.094059,298.446721 122.10258,296.901772 L122.103,296.764 C122.103,295.234 121.916,292.599 124.109,292.599 C126.302,292.599 126.115,295.234 126.115,296.764 C126.115,298.294 126.302,300.929 124.109,300.929 Z M133.799,302.901 C135.074,302.901 135.941,302.442 136.553,301.847 C137.777,300.674 137.964,298.702 137.964,296.764 C137.964,294.826 137.777,292.854 136.553,291.681 C135.941,291.086 135.074,290.627 133.799,290.627 C132.524,290.627 131.657,291.086 131.045,291.681 C129.821,292.854 129.634,294.826 129.634,296.764 C129.634,298.702 129.821,300.674 131.045,301.847 C131.657,302.442 132.524,302.901 133.799,302.901 Z M133.799,300.929 C131.6705,300.929 131.784059,298.446721 131.79258,296.901772 L131.793,296.764 C131.793,295.234 131.606,292.599 133.799,292.599 C135.992,292.599 135.805,295.234 135.805,296.764 C135.805,298.294 135.992,300.929 133.799,300.929 Z" id="path-35"></path>
        <path d="M14.731,234.009 L14.731,232.462 C15.836,232.343 16.805,231.935 17.502,231.221 C18.063,230.643 18.471,229.912 18.471,228.841 C18.471,226.92 17.043,225.832 15.309,225.56 C15.122,225.526 14.918,225.509 14.731,225.475 L14.731,222.364 C15.122,222.466 15.479,222.636 15.717,222.891 C15.989,223.18 16.227,223.639 16.244,224.047 L18.335,224.047 C18.301,223.112 17.842,222.245 17.162,221.616 C16.533,221.038 15.683,220.681 14.731,220.562 L14.731,218.947 L13.49,218.947 L13.49,220.528 C12.351,220.63 11.399,221.089 10.736,221.752 C10.124,222.347 9.699,223.095 9.699,223.996 C9.699,225.73 10.821,226.903 12.657,227.192 C12.929,227.243 13.218,227.277 13.49,227.311 L13.49,230.677 C12.98,230.626 12.504,230.456 12.113,230.082 C11.756,229.742 11.501,229.232 11.484,228.654 L9.393,228.654 C9.41,229.725 9.92,230.66 10.6,231.272 C11.433,232.037 12.419,232.394 13.49,232.479 L13.49,234.009 L14.731,234.009 Z M13.49,225.305 C13.32,225.288 13.15,225.254 12.98,225.22 C12.266,225.101 11.773,224.727 11.773,223.945 C11.773,223.503 11.96,223.129 12.232,222.874 C12.572,222.551 13.031,222.381 13.49,222.313 L13.49,225.305 Z M14.731,230.66 L14.731,227.498 L15.02,227.549 C15.751,227.685 16.414,228.059 16.414,228.926 C16.414,229.487 16.21,229.827 15.938,230.099 C15.632,230.405 15.224,230.575 14.731,230.66 Z M25.458,232.53 L25.458,220.715 L23.639,220.715 L20.732,222.806 L20.732,225.118 L23.333,223.231 L23.333,232.53 L25.458,232.53 Z M29.062,235.42 C30.558,234.791 30.949,233.805 30.949,232.326 L30.949,229.878 L28.365,229.878 L28.365,232.53 L29.64,232.53 C29.64,233.448 29.453,233.975 28.467,234.434 L29.062,235.42 Z M36.984,232.751 C38.259,232.751 39.126,232.292 39.738,231.697 C40.962,230.524 41.149,228.552 41.149,226.614 C41.149,224.676 40.962,222.704 39.738,221.531 C39.126,220.936 38.259,220.477 36.984,220.477 C35.709,220.477 34.842,220.936 34.23,221.531 C33.006,222.704 32.819,224.676 32.819,226.614 C32.819,228.552 33.006,230.524 34.23,231.697 C34.842,232.292 35.709,232.751 36.984,232.751 Z M36.984,230.779 C34.791,230.779 34.978,228.144 34.978,226.614 C34.978,225.084 34.791,222.449 36.984,222.449 C39.1125,222.449 38.9989412,224.931279 38.99042,226.476228 L38.99,226.614 C38.99,228.144 39.177,230.779 36.984,230.779 Z M46.674,232.751 C47.949,232.751 48.816,232.292 49.428,231.697 C50.652,230.524 50.839,228.552 50.839,226.614 C50.839,224.676 50.652,222.704 49.428,221.531 C48.816,220.936 47.949,220.477 46.674,220.477 C45.399,220.477 44.532,220.936 43.92,221.531 C42.696,222.704 42.509,224.676 42.509,226.614 C42.509,228.552 42.696,230.524 43.92,231.697 C44.532,232.292 45.399,232.751 46.674,232.751 Z M46.674,230.779 C44.481,230.779 44.668,228.144 44.668,226.614 C44.668,225.084 44.481,222.449 46.674,222.449 C48.8025,222.449 48.6889412,224.931279 48.68042,226.476228 L48.68,226.614 C48.68,228.144 48.867,230.779 46.674,230.779 Z M58.217,232.53 L58.217,220.715 L56.398,220.715 L53.491,222.806 L53.491,225.118 L56.092,223.231 L56.092,232.53 L58.217,232.53 Z M69.267,232.649 C69.896,232.649 70.491,232.564 71.086,232.411 L71.086,230.626 C70.508,230.694 70.151,230.711 69.709,230.711 C69.029,230.711 68.723,230.422 68.723,229.742 L68.723,225.441 L70.95,225.441 L70.95,223.69 L68.723,223.69 L68.723,220.919 L66.598,221.446 L66.598,223.69 L64.983,223.69 L64.983,225.441 L66.598,225.441 L66.598,229.929 C66.598,231.629 67.482,232.649 69.267,232.649 Z M76.237,232.751 C77.58,232.751 78.719,232.122 79.331,231.374 C79.994,230.541 80.368,229.606 80.368,228.11 C80.368,226.614 79.994,225.679 79.331,224.846 C78.719,224.098 77.58,223.469 76.237,223.469 C74.894,223.469 73.755,224.098 73.143,224.846 C72.48,225.679 72.106,226.614 72.106,228.11 C72.106,229.606 72.48,230.541 73.143,231.374 C73.755,232.122 74.894,232.751 76.237,232.751 Z M76.237,230.898 C75.659,230.898 75.183,230.643 74.894,230.337 C74.384,229.776 74.265,228.943 74.265,228.11 C74.265,227.277 74.384,226.444 74.894,225.883 C75.183,225.577 75.659,225.322 76.237,225.322 C76.815,225.322 77.291,225.577 77.58,225.883 C78.09,226.444 78.209,227.277 78.209,228.11 C78.209,228.943 78.09,229.776 77.58,230.337 C77.291,230.643 76.815,230.898 76.237,230.898 Z M90.296,234.009 L90.296,232.462 C91.401,232.343 92.37,231.935 93.067,231.221 C93.628,230.643 94.036,229.912 94.036,228.841 C94.036,226.92 92.608,225.832 90.874,225.56 C90.687,225.526 90.483,225.509 90.296,225.475 L90.296,222.364 C90.687,222.466 91.044,222.636 91.282,222.891 C91.554,223.18 91.792,223.639 91.809,224.047 L93.9,224.047 C93.866,223.112 93.407,222.245 92.727,221.616 C92.098,221.038 91.248,220.681 90.296,220.562 L90.296,218.947 L89.055,218.947 L89.055,220.528 C87.916,220.63 86.964,221.089 86.301,221.752 C85.689,222.347 85.264,223.095 85.264,223.996 C85.264,225.73 86.386,226.903 88.222,227.192 C88.494,227.243 88.783,227.277 89.055,227.311 L89.055,230.677 C88.545,230.626 88.069,230.456 87.678,230.082 C87.321,229.742 87.066,229.232 87.049,228.654 L84.958,228.654 C84.975,229.725 85.485,230.66 86.165,231.272 C86.998,232.037 87.984,232.394 89.055,232.479 L89.055,234.009 L90.296,234.009 Z M89.055,225.305 C88.885,225.288 88.715,225.254 88.545,225.22 C87.831,225.101 87.338,224.727 87.338,223.945 C87.338,223.503 87.525,223.129 87.797,222.874 C88.137,222.551 88.596,222.381 89.055,222.313 L89.055,225.305 Z M90.296,230.66 L90.296,227.498 L90.585,227.549 C91.316,227.685 91.979,228.059 91.979,228.926 C91.979,229.487 91.775,229.827 91.503,230.099 C91.197,230.405 90.789,230.575 90.296,230.66 Z M101.023,232.53 L101.023,220.715 L99.204,220.715 L96.297,222.806 L96.297,225.118 L98.898,223.231 L98.898,232.53 L101.023,232.53 Z M104.627,235.42 C106.123,234.791 106.514,233.805 106.514,232.326 L106.514,229.878 L103.93,229.878 L103.93,232.53 L105.205,232.53 C105.205,233.448 105.018,233.975 104.032,234.434 L104.627,235.42 Z M112.651,232.768 C115.286,232.768 116.765,231.017 116.765,228.518 C116.765,226.274 115.49,224.557 113.11,224.557 C112.056,224.557 111.308,224.812 110.764,225.322 L110.9,222.619 L116.238,222.619 L116.238,220.715 L109.064,220.715 L108.809,227.379 L110.9,227.379 C111.274,226.784 111.971,226.427 112.668,226.427 C114.028,226.427 114.606,227.328 114.606,228.569 C114.606,229.844 114.096,230.881 112.668,230.881 C111.546,230.881 110.73,230.252 110.679,229.079 L108.554,229.079 C108.673,231.306 110.305,232.768 112.651,232.768 Z M122.239,232.751 C123.514,232.751 124.381,232.292 124.993,231.697 C126.217,230.524 126.404,228.552 126.404,226.614 C126.404,224.676 126.217,222.704 124.993,221.531 C124.381,220.936 123.514,220.477 122.239,220.477 C120.964,220.477 120.097,220.936 119.485,221.531 C118.261,222.704 118.074,224.676 118.074,226.614 C118.074,228.552 118.261,230.524 119.485,231.697 C120.097,232.292 120.964,232.751 122.239,232.751 Z M122.239,230.779 C120.046,230.779 120.233,228.144 120.233,226.614 C120.233,225.084 120.046,222.449 122.239,222.449 C124.3675,222.449 124.253941,224.931279 124.24542,226.476228 L124.245,226.614 C124.245,228.144 124.432,230.779 122.239,230.779 Z M131.929,232.751 C133.204,232.751 134.071,232.292 134.683,231.697 C135.907,230.524 136.094,228.552 136.094,226.614 C136.094,224.676 135.907,222.704 134.683,221.531 C134.071,220.936 133.204,220.477 131.929,220.477 C130.654,220.477 129.787,220.936 129.175,221.531 C127.951,222.704 127.764,224.676 127.764,226.614 C127.764,228.552 127.951,230.524 129.175,231.697 C129.787,232.292 130.654,232.751 131.929,232.751 Z M131.929,230.779 C129.736,230.779 129.923,228.144 129.923,226.614 C129.923,225.084 129.736,222.449 131.929,222.449 C134.0575,222.449 133.943941,224.931279 133.93542,226.476228 L133.935,226.614 C133.935,228.144 134.122,230.779 131.929,230.779 Z" id="path-36"></path>
        <path d="M25.231,163.859 L25.231,162.312 C26.336,162.193 27.305,161.785 28.002,161.071 C28.563,160.493 28.971,159.762 28.971,158.691 C28.971,156.77 27.543,155.682 25.809,155.41 C25.622,155.376 25.418,155.359 25.231,155.325 L25.231,152.214 C25.622,152.316 25.979,152.486 26.217,152.741 C26.489,153.03 26.727,153.489 26.744,153.897 L28.835,153.897 C28.801,152.962 28.342,152.095 27.662,151.466 C27.033,150.888 26.183,150.531 25.231,150.412 L25.231,148.797 L23.99,148.797 L23.99,150.378 C22.851,150.48 21.899,150.939 21.236,151.602 C20.624,152.197 20.199,152.945 20.199,153.846 C20.199,155.58 21.321,156.753 23.157,157.042 C23.429,157.093 23.718,157.127 23.99,157.161 L23.99,160.527 C23.48,160.476 23.004,160.306 22.613,159.932 C22.256,159.592 22.001,159.082 21.984,158.504 L19.893,158.504 C19.91,159.575 20.42,160.51 21.1,161.122 C21.933,161.887 22.919,162.244 23.99,162.329 L23.99,163.859 L25.231,163.859 Z M23.99,155.155 C23.82,155.138 23.65,155.104 23.48,155.07 C22.766,154.951 22.273,154.577 22.273,153.795 C22.273,153.353 22.46,152.979 22.732,152.724 C23.072,152.401 23.531,152.231 23.99,152.163 L23.99,155.155 Z M25.231,160.51 L25.231,157.348 L25.52,157.399 C26.251,157.535 26.914,157.909 26.914,158.776 C26.914,159.337 26.71,159.677 26.438,159.949 C26.132,160.255 25.724,160.425 25.231,160.51 Z M34.802,162.618 C37.437,162.618 38.916,160.867 38.916,158.368 C38.916,156.124 37.641,154.407 35.261,154.407 C34.207,154.407 33.459,154.662 32.915,155.172 L33.051,152.469 L38.389,152.469 L38.389,150.565 L31.215,150.565 L30.96,157.229 L33.051,157.229 C33.425,156.634 34.122,156.277 34.819,156.277 C36.179,156.277 36.757,157.178 36.757,158.419 C36.757,159.694 36.247,160.731 34.819,160.731 C33.697,160.731 32.881,160.102 32.83,158.929 L30.705,158.929 C30.824,161.156 32.456,162.618 34.802,162.618 Z M44.39,162.601 C45.665,162.601 46.532,162.142 47.144,161.547 C48.368,160.374 48.555,158.402 48.555,156.464 C48.555,154.526 48.368,152.554 47.144,151.381 C46.532,150.786 45.665,150.327 44.39,150.327 C43.115,150.327 42.248,150.786 41.636,151.381 C40.412,152.554 40.225,154.526 40.225,156.464 C40.225,158.402 40.412,160.374 41.636,161.547 C42.248,162.142 43.115,162.601 44.39,162.601 Z M44.39,160.629 C42.197,160.629 42.384,157.994 42.384,156.464 C42.384,154.934 42.197,152.299 44.39,152.299 C46.5185,152.299 46.4049412,154.781279 46.39642,156.326228 L46.396,156.464 C46.396,157.994 46.583,160.629 44.39,160.629 Z M55.933,162.38 L55.933,150.565 L54.114,150.565 L51.207,152.656 L51.207,154.968 L53.808,153.081 L53.808,162.38 L55.933,162.38 Z M66.983,162.499 C67.612,162.499 68.207,162.414 68.802,162.261 L68.802,160.476 C68.224,160.544 67.867,160.561 67.425,160.561 C66.745,160.561 66.439,160.272 66.439,159.592 L66.439,155.291 L68.666,155.291 L68.666,153.54 L66.439,153.54 L66.439,150.769 L64.314,151.296 L64.314,153.54 L62.699,153.54 L62.699,155.291 L64.314,155.291 L64.314,159.779 C64.314,161.479 65.198,162.499 66.983,162.499 Z M73.953,162.601 C75.296,162.601 76.435,161.972 77.047,161.224 C77.71,160.391 78.084,159.456 78.084,157.96 C78.084,156.464 77.71,155.529 77.047,154.696 C76.435,153.948 75.296,153.319 73.953,153.319 C72.61,153.319 71.471,153.948 70.859,154.696 C70.196,155.529 69.822,156.464 69.822,157.96 C69.822,159.456 70.196,160.391 70.859,161.224 C71.471,161.972 72.61,162.601 73.953,162.601 Z M73.953,160.748 C73.375,160.748 72.899,160.493 72.61,160.187 C72.1,159.626 71.981,158.793 71.981,157.96 C71.981,157.127 72.1,156.294 72.61,155.733 C72.899,155.427 73.375,155.172 73.953,155.172 C74.531,155.172 75.007,155.427 75.296,155.733 C75.806,156.294 75.925,157.127 75.925,157.96 C75.925,158.793 75.806,159.626 75.296,160.187 C75.007,160.493 74.531,160.748 73.953,160.748 Z M88.012,163.859 L88.012,162.312 C89.117,162.193 90.086,161.785 90.783,161.071 C91.344,160.493 91.752,159.762 91.752,158.691 C91.752,156.77 90.324,155.682 88.59,155.41 C88.403,155.376 88.199,155.359 88.012,155.325 L88.012,152.214 C88.403,152.316 88.76,152.486 88.998,152.741 C89.27,153.03 89.508,153.489 89.525,153.897 L91.616,153.897 C91.582,152.962 91.123,152.095 90.443,151.466 C89.814,150.888 88.964,150.531 88.012,150.412 L88.012,148.797 L86.771,148.797 L86.771,150.378 C85.632,150.48 84.68,150.939 84.017,151.602 C83.405,152.197 82.98,152.945 82.98,153.846 C82.98,155.58 84.102,156.753 85.938,157.042 C86.21,157.093 86.499,157.127 86.771,157.161 L86.771,160.527 C86.261,160.476 85.785,160.306 85.394,159.932 C85.037,159.592 84.782,159.082 84.765,158.504 L82.674,158.504 C82.691,159.575 83.201,160.51 83.881,161.122 C84.714,161.887 85.7,162.244 86.771,162.329 L86.771,163.859 L88.012,163.859 Z M86.771,155.155 C86.601,155.138 86.431,155.104 86.261,155.07 C85.547,154.951 85.054,154.577 85.054,153.795 C85.054,153.353 85.241,152.979 85.513,152.724 C85.853,152.401 86.312,152.231 86.771,152.163 L86.771,155.155 Z M88.012,160.51 L88.012,157.348 L88.301,157.399 C89.032,157.535 89.695,157.909 89.695,158.776 C89.695,159.337 89.491,159.677 89.219,159.949 C88.913,160.255 88.505,160.425 88.012,160.51 Z M98.739,162.38 L98.739,150.565 L96.92,150.565 L94.013,152.656 L94.013,154.968 L96.614,153.081 L96.614,162.38 L98.739,162.38 Z M102.343,165.27 C103.839,164.641 104.23,163.655 104.23,162.176 L104.23,159.728 L101.646,159.728 L101.646,162.38 L102.921,162.38 C102.921,163.298 102.734,163.825 101.748,164.284 L102.343,165.27 Z M110.265,162.601 C111.54,162.601 112.407,162.142 113.019,161.547 C114.243,160.374 114.43,158.402 114.43,156.464 C114.43,154.526 114.243,152.554 113.019,151.381 C112.407,150.786 111.54,150.327 110.265,150.327 C108.99,150.327 108.123,150.786 107.511,151.381 C106.287,152.554 106.1,154.526 106.1,156.464 C106.1,158.402 106.287,160.374 107.511,161.547 C108.123,162.142 108.99,162.601 110.265,162.601 Z M110.265,160.629 C108.072,160.629 108.259,157.994 108.259,156.464 C108.259,154.934 108.072,152.299 110.265,152.299 C112.3935,152.299 112.279941,154.781279 112.27142,156.326228 L112.271,156.464 C112.271,157.994 112.458,160.629 110.265,160.629 Z M119.955,162.601 C121.23,162.601 122.097,162.142 122.709,161.547 C123.933,160.374 124.12,158.402 124.12,156.464 C124.12,154.526 123.933,152.554 122.709,151.381 C122.097,150.786 121.23,150.327 119.955,150.327 C118.68,150.327 117.813,150.786 117.201,151.381 C115.977,152.554 115.79,154.526 115.79,156.464 C115.79,158.402 115.977,160.374 117.201,161.547 C117.813,162.142 118.68,162.601 119.955,162.601 Z M119.955,160.629 C117.762,160.629 117.949,157.994 117.949,156.464 C117.949,154.934 117.762,152.299 119.955,152.299 C122.0835,152.299 121.969941,154.781279 121.96142,156.326228 L121.961,156.464 C121.961,157.994 122.148,160.629 119.955,160.629 Z M129.645,162.601 C130.92,162.601 131.787,162.142 132.399,161.547 C133.623,160.374 133.81,158.402 133.81,156.464 C133.81,154.526 133.623,152.554 132.399,151.381 C131.787,150.786 130.92,150.327 129.645,150.327 C128.37,150.327 127.503,150.786 126.891,151.381 C125.667,152.554 125.48,154.526 125.48,156.464 C125.48,158.402 125.667,160.374 126.891,161.547 C127.503,162.142 128.37,162.601 129.645,162.601 Z M129.645,160.629 C127.452,160.629 127.639,157.994 127.639,156.464 C127.639,154.934 127.452,152.299 129.645,152.299 C131.7735,152.299 131.659941,154.781279 131.65142,156.326228 L131.651,156.464 C131.651,157.994 131.838,160.629 129.645,160.629 Z" id="path-37"></path>
        <path d="M45.181,93.699 L45.181,92.152 C46.286,92.033 47.255,91.625 47.952,90.911 C48.513,90.333 48.921,89.602 48.921,88.531 C48.921,86.61 47.493,85.522 45.759,85.25 C45.572,85.216 45.368,85.199 45.181,85.165 L45.181,82.054 C45.572,82.156 45.929,82.326 46.167,82.581 C46.439,82.87 46.677,83.329 46.694,83.737 L48.785,83.737 C48.751,82.802 48.292,81.935 47.612,81.306 C46.983,80.728 46.133,80.371 45.181,80.252 L45.181,78.637 L43.94,78.637 L43.94,80.218 C42.801,80.32 41.849,80.779 41.186,81.442 C40.574,82.037 40.149,82.785 40.149,83.686 C40.149,85.42 41.271,86.593 43.107,86.882 C43.379,86.933 43.668,86.967 43.94,87.001 L43.94,90.367 C43.43,90.316 42.954,90.146 42.563,89.772 C42.206,89.432 41.951,88.922 41.934,88.344 L39.843,88.344 C39.86,89.415 40.37,90.35 41.05,90.962 C41.883,91.727 42.869,92.084 43.94,92.169 L43.94,93.699 L45.181,93.699 Z M43.94,84.995 C43.77,84.978 43.6,84.944 43.43,84.91 C42.716,84.791 42.223,84.417 42.223,83.635 C42.223,83.193 42.41,82.819 42.682,82.564 C43.022,82.241 43.481,82.071 43.94,82.003 L43.94,84.995 Z M45.181,90.35 L45.181,87.188 L45.47,87.239 C46.201,87.375 46.864,87.749 46.864,88.616 C46.864,89.177 46.66,89.517 46.388,89.789 C46.082,90.095 45.674,90.265 45.181,90.35 Z M54.752,92.458 C57.387,92.458 58.866,90.707 58.866,88.208 C58.866,85.964 57.591,84.247 55.211,84.247 C54.157,84.247 53.409,84.502 52.865,85.012 L53.001,82.309 L58.339,82.309 L58.339,80.405 L51.165,80.405 L50.91,87.069 L53.001,87.069 C53.375,86.474 54.072,86.117 54.769,86.117 C56.129,86.117 56.707,87.018 56.707,88.259 C56.707,89.534 56.197,90.571 54.769,90.571 C53.647,90.571 52.831,89.942 52.78,88.769 L50.655,88.769 C50.774,90.996 52.406,92.458 54.752,92.458 Z M64.34,92.441 C65.615,92.441 66.482,91.982 67.094,91.387 C68.318,90.214 68.505,88.242 68.505,86.304 C68.505,84.366 68.318,82.394 67.094,81.221 C66.482,80.626 65.615,80.167 64.34,80.167 C63.065,80.167 62.198,80.626 61.586,81.221 C60.362,82.394 60.175,84.366 60.175,86.304 C60.175,88.242 60.362,90.214 61.586,91.387 C62.198,91.982 63.065,92.441 64.34,92.441 Z M64.34,90.469 C62.147,90.469 62.334,87.834 62.334,86.304 C62.334,84.774 62.147,82.139 64.34,82.139 C66.4685,82.139 66.3549412,84.6212794 66.34642,86.1662275 L66.346,86.304 C66.346,87.834 66.533,90.469 64.34,90.469 Z M74.03,92.441 C75.305,92.441 76.172,91.982 76.784,91.387 C78.008,90.214 78.195,88.242 78.195,86.304 C78.195,84.366 78.008,82.394 76.784,81.221 C76.172,80.626 75.305,80.167 74.03,80.167 C72.755,80.167 71.888,80.626 71.276,81.221 C70.052,82.394 69.865,84.366 69.865,86.304 C69.865,88.242 70.052,90.214 71.276,91.387 C71.888,91.982 72.755,92.441 74.03,92.441 Z M74.03,90.469 C71.837,90.469 72.024,87.834 72.024,86.304 C72.024,84.774 71.837,82.139 74.03,82.139 C76.1585,82.139 76.0449412,84.6212794 76.03642,86.1662275 L76.036,86.304 C76.036,87.834 76.223,90.469 74.03,90.469 Z M87.273,92.441 C88.616,92.441 89.755,91.812 90.367,91.064 C91.03,90.231 91.404,89.296 91.404,87.8 C91.404,86.304 91.03,85.369 90.367,84.536 C89.755,83.788 88.616,83.159 87.273,83.159 C85.93,83.159 84.791,83.788 84.179,84.536 C83.516,85.369 83.142,86.304 83.142,87.8 C83.142,89.296 83.516,90.231 84.179,91.064 C84.791,91.812 85.93,92.441 87.273,92.441 Z M87.273,90.588 C86.695,90.588 86.219,90.333 85.93,90.027 C85.42,89.466 85.301,88.633 85.301,87.8 C85.301,86.967 85.42,86.134 85.93,85.573 C86.219,85.267 86.695,85.012 87.273,85.012 C87.851,85.012 88.327,85.267 88.616,85.573 C89.126,86.134 89.245,86.967 89.245,87.8 C89.245,88.633 89.126,89.466 88.616,90.027 C88.327,90.333 87.851,90.588 87.273,90.588 Z M95.586,92.22 L95.586,87.766 C95.586,86.338 96.368,85.267 97.864,85.267 C98.102,85.267 98.357,85.301 98.595,85.352 L98.595,83.312 C98.374,83.278 98.153,83.261 97.932,83.261 C96.895,83.261 95.841,83.686 95.433,84.706 L95.246,83.38 L93.444,83.38 L93.444,92.22 L95.586,92.22 Z M106.075,92.322 C106.5,92.322 106.585,92.288 107.01,92.203 L107.01,90.418 C106.891,90.418 106.84,90.435 106.653,90.435 C105.922,90.435 105.803,90.095 105.803,89.585 L105.803,79.929 L103.661,79.929 L103.661,89.942 C103.661,91.625 104.63,92.322 106.075,92.322 Z M112.297,92.441 C113.419,92.441 114.524,92.084 115.272,91.2 C115.612,90.792 115.969,90.095 116.02,89.568 L113.98,89.568 C113.895,89.891 113.742,90.129 113.555,90.316 C113.249,90.622 112.875,90.741 112.263,90.741 C111.685,90.741 111.26,90.486 110.954,90.197 C110.529,89.789 110.291,89.143 110.308,88.463 L116.224,88.463 C116.224,88.276 116.241,87.868 116.241,87.868 C116.275,86.763 116.122,85.76 115.476,84.791 C114.745,83.686 113.555,83.159 112.246,83.159 C111.039,83.159 110.087,83.601 109.424,84.281 C108.574,85.148 108.149,86.406 108.149,87.817 C108.149,89.262 108.625,90.503 109.509,91.353 C110.206,92.016 111.09,92.441 112.297,92.441 Z M114.116,86.916 L110.291,86.916 C110.308,86.338 110.444,85.93 110.75,85.539 C111.056,85.131 111.583,84.859 112.229,84.859 C112.841,84.859 113.283,85.063 113.572,85.369 C113.912,85.743 114.099,86.253 114.116,86.916 Z M121.307,92.441 C122.514,92.441 123.619,92.135 124.333,91.421 C124.792,90.962 125.098,90.333 125.098,89.483 C125.098,88.089 124.078,87.205 122.684,86.984 C121.817,86.848 121.596,86.831 120.797,86.729 C120.321,86.661 119.777,86.474 119.777,85.845 C119.777,85.386 120.083,85.063 120.457,84.91 C120.78,84.774 121.069,84.774 121.375,84.774 C121.817,84.774 122.276,84.927 122.531,85.182 C122.735,85.403 122.888,85.675 122.888,86.015 L124.911,86.015 C124.911,85.369 124.605,84.706 124.129,84.196 C123.483,83.499 122.412,83.159 121.358,83.159 C120.253,83.159 119.318,83.482 118.672,84.043 C118.145,84.502 117.771,85.131 117.771,86.032 C117.771,87.154 118.587,88.14 119.794,88.395 C120.576,88.565 121.46,88.616 122.242,88.735 C122.786,88.82 123.126,89.16 123.126,89.67 C123.126,90.639 122.038,90.792 121.324,90.792 C120.712,90.792 120.321,90.673 119.981,90.401 C119.709,90.18 119.505,89.755 119.505,89.364 L117.516,89.364 C117.516,90.197 117.941,90.928 118.451,91.421 C119.182,92.118 120.185,92.441 121.307,92.441 Z M130.164,92.441 C131.371,92.441 132.476,92.135 133.19,91.421 C133.649,90.962 133.955,90.333 133.955,89.483 C133.955,88.089 132.935,87.205 131.541,86.984 C130.674,86.848 130.453,86.831 129.654,86.729 C129.178,86.661 128.634,86.474 128.634,85.845 C128.634,85.386 128.94,85.063 129.314,84.91 C129.637,84.774 129.926,84.774 130.232,84.774 C130.674,84.774 131.133,84.927 131.388,85.182 C131.592,85.403 131.745,85.675 131.745,86.015 L133.768,86.015 C133.768,85.369 133.462,84.706 132.986,84.196 C132.34,83.499 131.269,83.159 130.215,83.159 C129.11,83.159 128.175,83.482 127.529,84.043 C127.002,84.502 126.628,85.131 126.628,86.032 C126.628,87.154 127.444,88.14 128.651,88.395 C129.433,88.565 130.317,88.616 131.099,88.735 C131.643,88.82 131.983,89.16 131.983,89.67 C131.983,90.639 130.895,90.792 130.181,90.792 C129.569,90.792 129.178,90.673 128.838,90.401 C128.566,90.18 128.362,89.755 128.362,89.364 L126.373,89.364 C126.373,90.197 126.798,90.928 127.308,91.421 C128.039,92.118 129.042,92.441 130.164,92.441 Z" id="path-38"></path>
    </defs>
    <g id="Page-1" stroke="none" stroke-width="1" fill="none" fill-rule="evenodd">
        <g id="fig1_0827" transform="translate(-2.000000, -4.000000)">
            <line x1="139.66" y1="438.25" x2="429.63" y2="438.25" id="Path" stroke="#E0E0E0" stroke-width="1.07" stroke-linejoin="round"></line>
            <line x1="139.66" y1="368.1" x2="429.63" y2="368.1" id="Path" stroke="#E0E0E0" stroke-width="1.07" stroke-linejoin="round"></line>
            <line x1="139.66" y1="297.95" x2="429.63" y2="297.95" id="Path" stroke="#E0E0E0" stroke-width="1.07" stroke-linejoin="round"></line>
            <line x1="139.66" y1="227.79" x2="429.63" y2="227.79" id="Path" stroke="#E0E0E0" stroke-width="1.07" stroke-linejoin="round"></line>
            <line x1="139.66" y1="157.64" x2="429.63" y2="157.64" id="Path" stroke="#E0E0E0" stroke-width="1.07" stroke-linejoin="round"></line>
            <line x1="139.66" y1="87.49" x2="429.63" y2="87.49" id="Path" stroke="#E0E0E0" stroke-width="1.07" stroke-linejoin="round"></line>
            <rect id="Rectangle" fill="url(#linearGradient-1)" fill-rule="nonzero" x="152.84" y="343.55" width="138.8" height="49.11"></rect>
            <rect id="Rectangle" fill="url(#linearGradient-2)" fill-rule="nonzero" x="152.84" y="413.7" width="222.75" height="49.11"></rect>
            <rect id="Rectangle" fill="url(#linearGradient-3)" fill-rule="nonzero" x="152.84" y="273.39" width="193.65" height="49.11"></rect>
            <rect id="Rectangle" fill="url(#linearGradient-4)" fill-rule="nonzero" x="152.84" y="203.24" width="144.96" height="49.11"></rect>
            <rect id="Rectangle" fill="url(#linearGradient-5)" fill-rule="nonzero" x="152.84" y="133.09" width="263.61" height="49.11"></rect>
            <rect id="Rectangle" fill="url(#linearGradient-6)" fill-rule="nonzero" x="152.84" y="62.93" width="67.16" height="49.11"></rect>
            <g id="398" fill-rule="nonzero">
                <use fill="#000000" xlink:href="#path-7"></use>
                <use fill="#FFFFFF" xlink:href="#path-7"></use>
            </g>
            <g id="248" fill-rule="nonzero">
                <use fill="#000000" xlink:href="#path-8"></use>
                <use fill="#FFFFFF" xlink:href="#path-8"></use>
            </g>
            <g id="346" fill-rule="nonzero">
                <use fill="#000000" xlink:href="#path-9"></use>
                <use fill="#FFFFFF" xlink:href="#path-9"></use>
            </g>
            <g id="259" fill-rule="nonzero">
                <use fill="#000000" xlink:href="#path-10"></use>
                <use fill="#FFFFFF" xlink:href="#path-10"></use>
            </g>
            <g id="471" fill-rule="nonzero">
                <use fill="#000000" xlink:href="#path-11"></use>
                <use fill="#FFFFFF" xlink:href="#path-11"></use>
            </g>
            <g id="120" fill-rule="nonzero">
                <use fill="#000000" xlink:href="#path-12"></use>
                <use fill="#FFFFFF" xlink:href="#path-12"></use>
            </g>
            <line x1="435.11" y1="438.25" x2="725.07" y2="438.25" id="Path" stroke="#E0E0E0" stroke-width="1.07" stroke-linejoin="round"></line>
            <line x1="435.11" y1="368.1" x2="725.07" y2="368.1" id="Path" stroke="#E0E0E0" stroke-width="1.07" stroke-linejoin="round"></line>
            <line x1="435.11" y1="297.95" x2="725.07" y2="297.95" id="Path" stroke="#E0E0E0" stroke-width="1.07" stroke-linejoin="round"></line>
            <line x1="435.11" y1="227.79" x2="725.07" y2="227.79" id="Path" stroke="#E0E0E0" stroke-width="1.07" stroke-linejoin="round"></line>
            <line x1="435.11" y1="157.64" x2="725.07" y2="157.64" id="Path" stroke="#E0E0E0" stroke-width="1.07" stroke-linejoin="round"></line>
            <line x1="435.11" y1="87.49" x2="725.07" y2="87.49" id="Path" stroke="#E0E0E0" stroke-width="1.07" stroke-linejoin="round"></line>
            <rect id="Rectangle" fill="url(#linearGradient-13)" fill-rule="nonzero" x="448.29" y="413.7" width="146.62" height="49.11"></rect>
            <rect id="Rectangle" fill="url(#linearGradient-5)" fill-rule="nonzero" x="448.29" y="273.39" width="263.61" height="49.11"></rect>
            <rect id="Rectangle" fill="url(#linearGradient-14)" fill-rule="nonzero" x="448.29" y="343.55" width="171.15" height="49.11"></rect>
            <rect id="Rectangle" fill="url(#linearGradient-15)" fill-rule="nonzero" x="448.29" y="203.24" width="178.53" height="49.11"></rect>
            <rect id="Rectangle" fill="url(#linearGradient-16)" fill-rule="nonzero" x="448.29" y="133.09" width="225.04" height="49.11"></rect>
            <rect id="Rectangle" fill="url(#linearGradient-17)" fill-rule="nonzero" x="448.29" y="62.93" width="86.78" height="49.11"></rect>
            <g id="1034" fill-rule="nonzero">
                <use fill="#000000" xlink:href="#path-18"></use>
                <use fill="#FFFFFF" xlink:href="#path-18"></use>
            </g>
            <g id="1207" fill-rule="nonzero">
                <use fill="#000000" xlink:href="#path-19"></use>
                <use fill="#FFFFFF" xlink:href="#path-19"></use>
            </g>
            <g id="1859" fill-rule="nonzero">
                <use fill="#000000" xlink:href="#path-20"></use>
                <use fill="#FFFFFF" xlink:href="#path-20"></use>
            </g>
            <g id="1259" fill-rule="nonzero">
                <use fill="#000000" xlink:href="#path-21"></use>
                <use fill="#FFFFFF" xlink:href="#path-21"></use>
            </g>
            <g id="1587" fill-rule="nonzero">
                <use fill="#000000" xlink:href="#path-22"></use>
                <use fill="#FFFFFF" xlink:href="#path-22"></use>
            </g>
            <g id="612" fill-rule="nonzero">
                <use fill="#000000" xlink:href="#path-23"></use>
                <use fill="#FFFFFF" xlink:href="#path-23"></use>
            </g>
            <line x1="730.55" y1="438.25" x2="1020.52" y2="438.25" id="Path" stroke="#E0E0E0" stroke-width="1.07" stroke-linejoin="round"></line>
            <line x1="730.55" y1="368.1" x2="1020.52" y2="368.1" id="Path" stroke="#E0E0E0" stroke-width="1.07" stroke-linejoin="round"></line>
            <line x1="730.55" y1="297.95" x2="1020.52" y2="297.95" id="Path" stroke="#E0E0E0" stroke-width="1.07" stroke-linejoin="round"></line>
            <line x1="730.55" y1="227.79" x2="1020.52" y2="227.79" id="Path" stroke="#E0E0E0" stroke-width="1.07" stroke-linejoin="round"></line>
            <line x1="730.55" y1="157.64" x2="1020.52" y2="157.64" id="Path" stroke="#E0E0E0" stroke-width="1.07" stroke-linejoin="round"></line>
            <line x1="730.55" y1="87.49" x2="1020.52" y2="87.49" id="Path" stroke="#E0E0E0" stroke-width="1.07" stroke-linejoin="round"></line>
            <rect id="Rectangle" fill="url(#linearGradient-24)" fill-rule="nonzero" x="743.73" y="343.55" width="177.24" height="49.11"></rect>
            <rect id="Rectangle" fill="url(#linearGradient-5)" fill-rule="nonzero" x="743.73" y="273.39" width="263.61" height="49.11"></rect>
            <rect id="Rectangle" fill="url(#linearGradient-25)" fill-rule="nonzero" x="743.73" y="203.24" width="135.85" height="49.11"></rect>
            <rect id="Rectangle" fill="url(#linearGradient-26)" fill-rule="nonzero" x="743.73" y="133.09" width="71.07" height="49.11"></rect>
            <rect id="Rectangle" fill="url(#linearGradient-27)" fill-rule="nonzero" x="743.73" y="62.93" width="143.5" height="49.11"></rect>
            <g id="headers" transform="translate(155.190000, 0.350000)" fill="#7D7D7D" fill-rule="nonzero">
                <path d="M10.125,23.375 C12.4583333,23.375 14.55,22.725 16.4,21.425 L16.4,21.425 L14.3,18.025 C12.95,18.925 11.5583333,19.375 10.125,19.375 C9.10833333,19.375 8.19583333,19.1666667 7.3875,18.75 C6.57916667,18.3333333 5.94583333,17.7375 5.4875,16.9625 C5.02916667,16.1875 4.8,15.2833333 4.8,14.25 C4.8,13.2166667 5.02916667,12.3125 5.4875,11.5375 C5.94583333,10.7625 6.57916667,10.1666667 7.3875,9.75 C8.19583333,9.33333333 9.10833333,9.125 10.125,9.125 C11.5583333,9.125 12.95,9.575 14.3,10.475 L14.3,10.475 L16.4,7.075 C14.55,5.775 12.4583333,5.125 10.125,5.125 C8.29166667,5.125 6.64583333,5.5 5.1875,6.25 C3.72916667,7 2.5875,8.06666667 1.7625,9.45 C0.9375,10.8333333 0.525,12.4333333 0.525,14.25 C0.525,16.0666667 0.9375,17.6666667 1.7625,19.05 C2.5875,20.4333333 3.72916667,21.5 5.1875,22.25 C6.64583333,23 8.29166667,23.375 10.125,23.375 Z M22.075,23 L22.075,5.5 L18.2,5.5 L18.2,23 L22.075,23 Z M29,23 L29,12.225 L29.025,12.225 L37.375,23 L40.675,23 L40.675,5.5 L36.8,5.5 L36.8,16.325 L36.775,16.325 L28.4,5.5 L25.125,5.5 L25.125,23 L29,23 Z M52.325,23.375 C54.6583333,23.375 56.75,22.725 58.6,21.425 L58.6,21.425 L56.5,18.025 C55.15,18.925 53.7583333,19.375 52.325,19.375 C51.3083333,19.375 50.3958333,19.1666667 49.5875,18.75 C48.7791667,18.3333333 48.1458333,17.7375 47.6875,16.9625 C47.2291667,16.1875 47,15.2833333 47,14.25 C47,13.2166667 47.2291667,12.3125 47.6875,11.5375 C48.1458333,10.7625 48.7791667,10.1666667 49.5875,9.75 C50.3958333,9.33333333 51.3083333,9.125 52.325,9.125 C53.7583333,9.125 55.15,9.575 56.5,10.475 L56.5,10.475 L58.6,7.075 C56.75,5.775 54.6583333,5.125 52.325,5.125 C50.4916667,5.125 48.8458333,5.5 47.3875,6.25 C45.9291667,7 44.7875,8.06666667 43.9625,9.45 C43.1375,10.8333333 42.725,12.4333333 42.725,14.25 C42.725,16.0666667 43.1375,17.6666667 43.9625,19.05 C44.7875,20.4333333 45.9291667,21.5 47.3875,22.25 C48.8458333,23 50.4916667,23.375 52.325,23.375 Z M64.275,23 L64.275,5.5 L60.4,5.5 L60.4,23 L64.275,23 Z M71.2,23 L71.2,12.225 L71.225,12.225 L79.575,23 L82.875,23 L82.875,5.5 L79,5.5 L79,16.325 L78.975,16.325 L70.6,5.5 L67.325,5.5 L67.325,23 L71.2,23 Z M89.8,23 L89.8,12.225 L89.825,12.225 L98.175,23 L101.475,23 L101.475,5.5 L97.6,5.5 L97.6,16.325 L97.575,16.325 L89.2,5.5 L85.925,5.5 L85.925,23 L89.8,23 Z M107.125,23 L108.375,19.45 L115.1,19.45 L116.35,23 L120.675,23 L113.775,5.5 L109.675,5.5 L102.775,23 L107.125,23 Z M113.9,16 L109.575,16 L111.725,9.8 L113.9,16 Z M127.25,23 L127.25,9.125 L131.85,9.125 L131.85,5.5 L118.75,5.5 L118.75,9.125 L123.375,9.125 L123.375,23 L127.25,23 Z M137.375,23 L137.375,5.5 L133.5,5.5 L133.5,23 L137.375,23 Z M141.65,27.1 L143.925,23 L143.925,18.975 L139.925,18.975 L139.925,23 L141.475,23 L140.05,27.1 L141.65,27.1 Z M161.3,23.375 C163.033333,23.375 164.6,22.9916667 166,22.225 C167.4,21.4583333 168.504167,20.3833333 169.3125,19 C170.120833,17.6166667 170.525,16.0333333 170.525,14.25 C170.525,12.4666667 170.120833,10.8833333 169.3125,9.5 C168.504167,8.11666667 167.4,7.04166667 166,6.275 C164.6,5.50833333 163.033333,5.125 161.3,5.125 C159.566667,5.125 158,5.50833333 156.6,6.275 C155.2,7.04166667 154.095833,8.11666667 153.2875,9.5 C152.479167,10.8833333 152.075,12.4666667 152.075,14.25 C152.075,16.0333333 152.479167,17.6166667 153.2875,19 C154.095833,20.3833333 155.2,21.4583333 156.6,22.225 C158,22.9916667 159.566667,23.375 161.3,23.375 Z M161.3,19.375 C160.366667,19.375 159.525,19.1666667 158.775,18.75 C158.025,18.3333333 157.433333,17.7375 157,16.9625 C156.566667,16.1875 156.35,15.2833333 156.35,14.25 C156.35,13.2166667 156.566667,12.3125 157,11.5375 C157.433333,10.7625 158.025,10.1666667 158.775,9.75 C159.525,9.33333333 160.366667,9.125 161.3,9.125 C162.233333,9.125 163.075,9.33333333 163.825,9.75 C164.575,10.1666667 165.166667,10.7625 165.6,11.5375 C166.033333,12.3125 166.25,13.2166667 166.25,14.25 C166.25,15.2833333 166.033333,16.1875 165.6,16.9625 C165.166667,17.7375 164.575,18.3333333 163.825,18.75 C163.075,19.1666667 162.233333,19.375 161.3,19.375 Z M176.45,23 L176.45,15.65 L183.725,15.65 L183.725,23 L187.6,23 L187.6,5.5 L183.725,5.5 L183.725,12 L176.45,12 L176.45,5.5 L172.575,5.5 L172.575,23 L176.45,23 Z" id="CINCINNATI,OH"></path>
                <path d="M297.29,23 L297.29,15.65 L304.565,15.65 L304.565,23 L308.44,23 L308.44,5.5 L304.565,5.5 L304.565,12 L297.29,12 L297.29,5.5 L293.415,5.5 L293.415,23 L297.29,23 Z M319.715,23.375 C321.448333,23.375 323.015,22.9916667 324.415,22.225 C325.815,21.4583333 326.919167,20.3833333 327.7275,19 C328.535833,17.6166667 328.94,16.0333333 328.94,14.25 C328.94,12.4666667 328.535833,10.8833333 327.7275,9.5 C326.919167,8.11666667 325.815,7.04166667 324.415,6.275 C323.015,5.50833333 321.448333,5.125 319.715,5.125 C317.981667,5.125 316.415,5.50833333 315.015,6.275 C313.615,7.04166667 312.510833,8.11666667 311.7025,9.5 C310.894167,10.8833333 310.49,12.4666667 310.49,14.25 C310.49,16.0333333 310.894167,17.6166667 311.7025,19 C312.510833,20.3833333 313.615,21.4583333 315.015,22.225 C316.415,22.9916667 317.981667,23.375 319.715,23.375 Z M319.715,19.375 C318.781667,19.375 317.94,19.1666667 317.19,18.75 C316.44,18.3333333 315.848333,17.7375 315.415,16.9625 C314.981667,16.1875 314.765,15.2833333 314.765,14.25 C314.765,13.2166667 314.981667,12.3125 315.415,11.5375 C315.848333,10.7625 316.44,10.1666667 317.19,9.75 C317.94,9.33333333 318.781667,9.125 319.715,9.125 C320.648333,9.125 321.49,9.33333333 322.24,9.75 C322.99,10.1666667 323.581667,10.7625 324.015,11.5375 C324.448333,12.3125 324.665,13.2166667 324.665,14.25 C324.665,15.2833333 324.448333,16.1875 324.015,16.9625 C323.581667,17.7375 322.99,18.3333333 322.24,18.75 C321.49,19.1666667 320.648333,19.375 319.715,19.375 Z M338.24,23.325 C340.656667,23.325 342.498333,22.6708333 343.765,21.3625 C345.031667,20.0541667 345.665,18.2416667 345.665,15.925 L345.665,15.925 L345.665,5.5 L341.565,5.5 L341.565,15.575 C341.565,16.7083333 341.2775,17.6166667 340.7025,18.3 C340.1275,18.9833333 339.306667,19.325 338.24,19.325 C337.173333,19.325 336.3525,18.9833333 335.7775,18.3 C335.2025,17.6166667 334.915,16.7083333 334.915,15.575 L334.915,15.575 L334.915,5.5 L330.79,5.5 L330.79,15.925 C330.79,18.2416667 331.423333,20.0541667 332.69,21.3625 C333.956667,22.6708333 335.806667,23.325 338.24,23.325 Z M353.065,23.375 C355.115,23.375 356.69,22.9291667 357.79,22.0375 C358.89,21.1458333 359.44,19.8583333 359.44,18.175 C359.44,17.0083333 359.165,16.0333333 358.615,15.25 C358.065,14.4666667 357.231667,13.7333333 356.115,13.05 L356.115,13.05 L353.215,11.225 C352.715,10.925 352.369167,10.6708333 352.1775,10.4625 C351.985833,10.2541667 351.89,10.0166667 351.89,9.75 C351.89,9.06666667 352.423333,8.725 353.49,8.725 C354.056667,8.725 354.6525,8.8125 355.2775,8.9875 C355.9025,9.1625 356.623333,9.44166667 357.44,9.825 L357.44,9.825 L359.065,6.4 C357.098333,5.55 355.206667,5.125 353.39,5.125 C351.573333,5.125 350.19,5.54166667 349.24,6.375 C348.29,7.20833333 347.815,8.35 347.815,9.8 C347.815,11.85 348.89,13.5166667 351.04,14.8 L351.04,14.8 L353.715,16.475 C354.281667,16.825 354.698333,17.1333333 354.965,17.4 C355.231667,17.6666667 355.365,17.9833333 355.365,18.35 C355.365,18.8166667 355.181667,19.1666667 354.815,19.4 C354.448333,19.6333333 353.915,19.75 353.215,19.75 C351.681667,19.75 350.04,19.2166667 348.29,18.15 L348.29,18.15 L346.54,21.625 C348.54,22.7916667 350.715,23.375 353.065,23.375 Z M368.115,23 L368.115,9.125 L372.715,9.125 L372.715,5.5 L359.615,5.5 L359.615,9.125 L364.24,9.125 L364.24,23 L368.115,23 Z M381.665,23.375 C383.398333,23.375 384.965,22.9916667 386.365,22.225 C387.765,21.4583333 388.869167,20.3833333 389.6775,19 C390.485833,17.6166667 390.89,16.0333333 390.89,14.25 C390.89,12.4666667 390.485833,10.8833333 389.6775,9.5 C388.869167,8.11666667 387.765,7.04166667 386.365,6.275 C384.965,5.50833333 383.398333,5.125 381.665,5.125 C379.931667,5.125 378.365,5.50833333 376.965,6.275 C375.565,7.04166667 374.460833,8.11666667 373.6525,9.5 C372.844167,10.8833333 372.44,12.4666667 372.44,14.25 C372.44,16.0333333 372.844167,17.6166667 373.6525,19 C374.460833,20.3833333 375.565,21.4583333 376.965,22.225 C378.365,22.9916667 379.931667,23.375 381.665,23.375 Z M381.665,19.375 C380.731667,19.375 379.89,19.1666667 379.14,18.75 C378.39,18.3333333 377.798333,17.7375 377.365,16.9625 C376.931667,16.1875 376.715,15.2833333 376.715,14.25 C376.715,13.2166667 376.931667,12.3125 377.365,11.5375 C377.798333,10.7625 378.39,10.1666667 379.14,9.75 C379.89,9.33333333 380.731667,9.125 381.665,9.125 C382.598333,9.125 383.44,9.33333333 384.19,9.75 C384.94,10.1666667 385.531667,10.7625 385.965,11.5375 C386.398333,12.3125 386.615,13.2166667 386.615,14.25 C386.615,15.2833333 386.398333,16.1875 385.965,16.9625 C385.531667,17.7375 384.94,18.3333333 384.19,18.75 C383.44,19.1666667 382.598333,19.375 381.665,19.375 Z M396.815,23 L396.815,12.225 L396.84,12.225 L405.19,23 L408.49,23 L408.49,5.5 L404.615,5.5 L404.615,16.325 L404.59,16.325 L396.215,5.5 L392.94,5.5 L392.94,23 L396.815,23 Z M412.765,27.1 L415.04,23 L415.04,18.975 L411.04,18.975 L411.04,23 L412.59,23 L411.165,27.1 L412.765,27.1 Z M430.54,23 L430.54,9.125 L435.14,9.125 L435.14,5.5 L422.04,5.5 L422.04,9.125 L426.665,9.125 L426.665,23 L430.54,23 Z M440.19,23 L444.24,16.9 L448.29,23 L453.24,23 L446.715,13.775 L452.64,5.5 L447.715,5.5 L444.24,10.675 L440.765,5.5 L435.84,5.5 L441.765,13.775 L435.24,23 L440.19,23 Z" id="HOUSTON,TX"></path>
                <path d="M592.08,22 L592.08,16 L594.455,16 C596.588333,16 598.196667,15.4625 599.28,14.3875 C600.363333,13.3125 600.905,11.8833333 600.905,10.1 C600.905,8.43333333 600.359167,7.08333333 599.2675,6.05 C598.175833,5.01666667 596.571667,4.5 594.455,4.5 L594.455,4.5 L588.205,4.5 L588.205,22 L592.08,22 Z M594.13,12.5 L592.08,12.5 L592.08,8.025 L594.13,8.025 C594.963333,8.025 595.613333,8.2 596.08,8.55 C596.546667,8.9 596.78,9.44166667 596.78,10.175 C596.78,10.925 596.5425,11.5 596.0675,11.9 C595.5925,12.3 594.946667,12.5 594.13,12.5 L594.13,12.5 Z M606.455,22 L606.455,14.65 L613.73,14.65 L613.73,22 L617.605,22 L617.605,4.5 L613.73,4.5 L613.73,11 L606.455,11 L606.455,4.5 L602.58,4.5 L602.58,22 L606.455,22 Z M628.88,22.375 C630.613333,22.375 632.18,21.9916667 633.58,21.225 C634.98,20.4583333 636.084167,19.3833333 636.8925,18 C637.700833,16.6166667 638.105,15.0333333 638.105,13.25 C638.105,11.4666667 637.700833,9.88333333 636.8925,8.5 C636.084167,7.11666667 634.98,6.04166667 633.58,5.275 C632.18,4.50833333 630.613333,4.125 628.88,4.125 C627.146667,4.125 625.58,4.50833333 624.18,5.275 C622.78,6.04166667 621.675833,7.11666667 620.8675,8.5 C620.059167,9.88333333 619.655,11.4666667 619.655,13.25 C619.655,15.0333333 620.059167,16.6166667 620.8675,18 C621.675833,19.3833333 622.78,20.4583333 624.18,21.225 C625.58,21.9916667 627.146667,22.375 628.88,22.375 Z M628.88,18.375 C627.946667,18.375 627.105,18.1666667 626.355,17.75 C625.605,17.3333333 625.013333,16.7375 624.58,15.9625 C624.146667,15.1875 623.93,14.2833333 623.93,13.25 C623.93,12.2166667 624.146667,11.3125 624.58,10.5375 C625.013333,9.7625 625.605,9.16666667 626.355,8.75 C627.105,8.33333333 627.946667,8.125 628.88,8.125 C629.813333,8.125 630.655,8.33333333 631.405,8.75 C632.155,9.16666667 632.746667,9.7625 633.18,10.5375 C633.613333,11.3125 633.83,12.2166667 633.83,13.25 C633.83,14.2833333 633.613333,15.1875 633.18,15.9625 C632.746667,16.7375 632.155,17.3333333 631.405,17.75 C630.655,18.1666667 629.813333,18.375 628.88,18.375 Z M651.105,22 L651.105,18.375 L644.03,18.375 L644.03,14.4 L650.28,14.4 L650.28,10.875 L644.03,10.875 L644.03,8.125 L650.98,8.125 L650.98,4.5 L640.155,4.5 L640.155,22 L651.105,22 Z M657.28,22 L657.28,11.225 L657.305,11.225 L665.655,22 L668.955,22 L668.955,4.5 L665.08,4.5 L665.08,15.325 L665.055,15.325 L656.68,4.5 L653.405,4.5 L653.405,22 L657.28,22 Z M675.88,22 L675.88,4.5 L672.005,4.5 L672.005,22 L675.88,22 Z M681.905,22 L685.955,15.9 L690.005,22 L694.955,22 L688.43,12.775 L694.355,4.5 L689.43,4.5 L685.955,9.675 L682.48,4.5 L677.555,4.5 L683.48,12.775 L676.955,22 L681.905,22 Z M697.73,26.1 L700.005,22 L700.005,17.975 L696.005,17.975 L696.005,22 L697.555,22 L696.13,26.1 L697.73,26.1 Z M711.255,22 L712.505,18.45 L719.23,18.45 L720.48,22 L724.805,22 L717.905,4.5 L713.805,4.5 L706.905,22 L711.255,22 Z M718.03,15 L713.705,15 L715.855,8.8 L718.03,15 Z M738.73,22 L738.73,18.375 L730.33,18.375 L738.48,8.125 L738.48,4.5 L726.18,4.5 L726.18,8.125 L733.755,8.125 L725.53,18.375 L725.53,22 L738.73,22 Z" id="PHOENIX,AZ"></path>
            </g>
            <g id="394" fill-rule="nonzero">
                <use fill="#000000" xlink:href="#path-28"></use>
                <use fill="#FFFFFF" xlink:href="#path-28"></use>
            </g>
            <g id="586" fill-rule="nonzero">
                <use fill="#000000" xlink:href="#path-29"></use>
                <use fill="#FFFFFF" xlink:href="#path-29"></use>
            </g>
            <g id="302" fill-rule="nonzero">
                <use fill="#000000" xlink:href="#path-30"></use>
                <use fill="#FFFFFF" xlink:href="#path-30"></use>
            </g>
            <g id="158" fill-rule="nonzero">
                <use fill="#000000" xlink:href="#path-31"></use>
                <use fill="#FFFFFF" xlink:href="#path-31"></use>
            </g>
            <g id="319" fill-rule="nonzero">
                <use fill="#000000" xlink:href="#path-32"></use>
                <use fill="#FFFFFF" xlink:href="#path-32"></use>
            </g>
            <g id="Missing" fill-rule="nonzero">
                <use fill="#505050" xlink:href="#path-33"></use>
                <use fill="#4D4D4D" xlink:href="#path-33"></use>
            </g>
            <g id="Morethan$3,000" fill-rule="nonzero">
                <use fill="#000000" xlink:href="#path-34"></use>
                <use fill="#4D4D4D" xlink:href="#path-34"></use>
            </g>
            <g id="$1,501to$3,000" fill-rule="nonzero">
                <use fill="#000000" xlink:href="#path-35"></use>
                <use fill="#4D4D4D" xlink:href="#path-35"></use>
            </g>
            <g id="$1,001to$1,500" fill-rule="nonzero">
                <use fill="#000000" xlink:href="#path-36"></use>
                <use fill="#4D4D4D" xlink:href="#path-36"></use>
            </g>
            <g id="$501to$1,000" fill-rule="nonzero">
                <use fill="#000000" xlink:href="#path-37"></use>
                <use fill="#4D4D4D" xlink:href="#path-37"></use>
            </g>
            <g id="$500orless" fill-rule="nonzero">
                <use fill="#000000" xlink:href="#path-38"></use>
                <use fill="#4D4D4D" xlink:href="#path-38"></use>
            </g>
        </g>
    </g>
</svg>