<?xml version="1.0" encoding="UTF-8"?>
<svg width="1128px" height="586px" viewBox="0 0 1128 586" version="1.1" xmlns="http://www.w3.org/2000/svg" xmlns:xlink="http://www.w3.org/1999/xlink">
    <!-- Generator: Sketch 61.2 (89653) - https://sketch.com -->
    <title>fig1_0827</title>
    <desc>Created with Sketch.</desc>
    <defs>
        <linearGradient x1="-2.22044605e-14%" y1="50%" x2="100%" y2="50%" id="linearGradient-1">
            <stop stop-color="#E96B2A" offset="0%"></stop>
            <stop stop-color="#E04219" offset="100%"></stop>
        </linearGradient>
        <linearGradient x1="-2.22044605e-14%" y1="50%" x2="100%" y2="50%" id="linearGradient-2">
            <stop stop-color="#96ACBF" offset="0%"></stop>
            <stop stop-color="#768FA5" offset="100%"></stop>
        </linearGradient>
        <linearGradient x1="-2.22044605e-14%" y1="50%" x2="100%" y2="50%" id="linearGradient-3">
            <stop stop-color="#E96B2A" offset="0%"></stop>
            <stop stop-color="#E04219" offset="100%"></stop>
        </linearGradient>
        <linearGradient x1="-2.22044605e-14%" y1="50%" x2="100%" y2="50%" id="linearGradient-4">
            <stop stop-color="#E96B2A" offset="0%"></stop>
            <stop stop-color="#E04219" offset="100%"></stop>
        </linearGradient>
        <linearGradient x1="-2.22044605e-14%" y1="50%" x2="100%" y2="50%" id="linearGradient-5">
            <stop stop-color="#E96B2A" offset="0%"></stop>
            <stop stop-color="#E04219" offset="100%"></stop>
        </linearGradient>
        <linearGradient x1="-2.22044605e-14%" y1="50%" x2="100%" y2="50%" id="linearGradient-6">
            <stop stop-color="#E96B2A" offset="0%"></stop>
            <stop stop-color="#E04219" offset="100%"></stop>
        </linearGradient>
        <linearGradient x1="-2.22044605e-14%" y1="50%" x2="100%" y2="50%" id="linearGradient-7">
            <stop stop-color="#96ACBF" offset="0%"></stop>
            <stop stop-color="#768FA5" offset="100%"></stop>
        </linearGradient>
        <linearGradient x1="-2.22044605e-14%" y1="50%" x2="100%" y2="50%" id="linearGradient-8">
            <stop stop-color="#E96B2A" offset="0%"></stop>
            <stop stop-color="#E04219" offset="100%"></stop>
        </linearGradient>
        <linearGradient x1="-2.22044605e-14%" y1="50%" x2="100%" y2="50%" id="linearGradient-9">
            <stop stop-color="#E96B2A" offset="0%"></stop>
            <stop stop-color="#E04219" offset="100%"></stop>
        </linearGradient>
        <linearGradient x1="-2.22044605e-14%" y1="50%" x2="100%" y2="50%" id="linearGradient-10">
            <stop stop-color="#E96B2A" offset="0%"></stop>
            <stop stop-color="#E04219" offset="100%"></stop>
        </linearGradient>
        <linearGradient x1="-2.22044605e-14%" y1="50%" x2="100%" y2="50%" id="linearGradient-11">
            <stop stop-color="#E96B2A" offset="0%"></stop>
            <stop stop-color="#E04219" offset="100%"></stop>
        </linearGradient>
        <linearGradient x1="-2.22044605e-14%" y1="50%" x2="100%" y2="50%" id="linearGradient-12">
            <stop stop-color="#E96B2A" offset="0%"></stop>
            <stop stop-color="#E04219" offset="100%"></stop>
        </linearGradient>
        <linearGradient x1="-2.22044605e-14%" y1="50%" x2="100%" y2="50%" id="linearGradient-13">
            <stop stop-color="#E96B2A" offset="0%"></stop>
            <stop stop-color="#E04219" offset="100%"></stop>
        </linearGradient>
        <linearGradient x1="-2.22044605e-14%" y1="50%" x2="100%" y2="50%" id="linearGradient-14">
            <stop stop-color="#E96B2A" offset="0%"></stop>
            <stop stop-color="#E04219" offset="100%"></stop>
        </linearGradient>
        <linearGradient x1="-2.22044605e-14%" y1="50%" x2="100%" y2="50%" id="linearGradient-15">
            <stop stop-color="#E96B2A" offset="0%"></stop>
            <stop stop-color="#E04219" offset="100%"></stop>
        </linearGradient>
        <path d="M160.499,365.988 C163.463,365.988 165.287,364.145 165.287,361.637 L165.287,361.599 C165.287,359.129 163.52,358.179 161.715,357.875 L165.078,354.664 L165.078,352.46 L156.091,352.46 L156.091,354.968 L161.316,354.968 L158.143,358.16 L158.599,360.022 L159.815,360.022 C161.449,360.022 162.418,360.63 162.418,361.713 L162.418,361.751 C162.418,362.739 161.639,363.366 160.537,363.366 C159.188,363.366 158.238,362.796 157.326,361.77 L155.312,363.689 C156.452,365.038 158.105,365.988 160.499,365.988 Z M172.032,365.988 C175.813,365.988 177.846,363.043 177.846,358.73 L177.846,358.692 C177.846,356.07 177.219,354.626 176.269,353.676 C175.262,352.669 174.217,352.232 172.431,352.232 C169.429,352.232 167.358,354.208 167.358,356.887 L167.358,356.925 C167.358,359.623 169.22,361.219 172.108,361.219 C173.267,361.219 174.16,360.858 174.806,360.307 C174.616,362.093 173.742,363.328 172.108,363.328 C170.987,363.328 170.17,362.967 169.201,362.188 L167.662,364.411 C168.783,365.342 170.094,365.988 172.032,365.988 Z M172.583,358.787 C171.139,358.787 170.265,357.97 170.265,356.792 L170.265,356.754 C170.265,355.576 171.082,354.74 172.526,354.74 C173.989,354.74 174.863,355.595 174.863,356.773 L174.863,356.811 C174.863,357.951 174.027,358.787 172.583,358.787 Z M184.857,365.95 C187.802,365.95 189.987,364.506 189.987,362.036 L189.987,361.998 C189.987,360.421 189.189,359.566 187.84,358.863 C188.866,358.236 189.531,357.381 189.531,355.956 L189.531,355.918 C189.531,353.866 187.669,352.27 184.857,352.27 C182.045,352.27 180.183,353.885 180.183,355.918 L180.183,355.956 C180.183,357.381 180.848,358.236 181.874,358.863 C180.468,359.509 179.727,360.459 179.727,362.074 L179.727,362.112 C179.727,364.43 181.912,365.95 184.857,365.95 Z M184.857,357.894 C183.698,357.894 182.957,357.191 182.957,356.26 L182.957,356.222 C182.957,355.405 183.66,354.683 184.857,354.683 C186.054,354.683 186.757,355.424 186.757,356.241 L186.757,356.279 C186.757,357.21 186.016,357.894 184.857,357.894 Z M184.857,363.537 C183.413,363.537 182.558,362.796 182.558,361.884 L182.558,361.846 C182.558,360.82 183.527,360.212 184.857,360.212 C186.187,360.212 187.156,360.82 187.156,361.846 L187.156,361.884 C187.156,362.815 186.301,363.537 184.857,363.537 Z" id="path-16"></path>
        <path d="M81.413,295.61 L81.413,293.083 L75.618,293.083 L77.784,291.411 C80.14,289.587 81.28,288.485 81.28,286.262 L81.28,286.224 C81.28,283.735 79.456,282.12 76.701,282.12 C74.326,282.12 73.053,283.089 71.742,284.875 L73.794,286.528 C74.782,285.312 75.485,284.742 76.511,284.742 C77.556,284.742 78.297,285.35 78.297,286.471 C78.297,287.573 77.651,288.295 75.998,289.663 L71.571,293.292 L71.571,295.61 L81.413,295.61 Z M92.547,295.61 L92.547,292.741 L94.333,292.741 L94.333,290.366 L92.547,290.366 L92.547,282.215 L90.077,282.215 L82.781,290.67 L83.256,292.741 L89.754,292.741 L89.754,295.61 L92.547,295.61 Z M89.754,290.366 L86.22,290.366 L89.754,286.224 L89.754,290.366 Z M101.268,295.8 C104.213,295.8 106.398,294.356 106.398,291.886 L106.398,291.848 C106.398,290.271 105.6,289.416 104.251,288.713 C105.277,288.086 105.942,287.231 105.942,285.806 L105.942,285.768 C105.942,283.716 104.08,282.12 101.268,282.12 C98.456,282.12 96.594,283.735 96.594,285.768 L96.594,285.806 C96.594,287.231 97.259,288.086 98.285,288.713 C96.879,289.359 96.138,290.309 96.138,291.924 L96.138,291.962 C96.138,294.28 98.323,295.8 101.268,295.8 Z M101.268,287.744 C100.109,287.744 99.368,287.041 99.368,286.11 L99.368,286.072 C99.368,285.255 100.071,284.533 101.268,284.533 C102.465,284.533 103.168,285.274 103.168,286.091 L103.168,286.129 C103.168,287.06 102.427,287.744 101.268,287.744 Z M101.268,293.387 C99.824,293.387 98.969,292.646 98.969,291.734 L98.969,291.696 C98.969,290.67 99.938,290.062 101.268,290.062 C102.598,290.062 103.567,290.67 103.567,291.696 L103.567,291.734 C103.567,292.665 102.712,293.387 101.268,293.387 Z" id="path-17"></path>
        <path d="M130.399,225.688 C133.363,225.688 135.187,223.845 135.187,221.337 L135.187,221.299 C135.187,218.829 133.42,217.879 131.615,217.575 L134.978,214.364 L134.978,212.16 L125.991,212.16 L125.991,214.668 L131.216,214.668 L128.043,217.86 L128.499,219.722 L129.715,219.722 C131.349,219.722 132.318,220.33 132.318,221.413 L132.318,221.451 C132.318,222.439 131.539,223.066 130.437,223.066 C129.088,223.066 128.138,222.496 127.226,221.47 L125.212,223.389 C126.352,224.738 128.005,225.688 130.399,225.688 Z M146.644,225.46 L146.644,222.591 L148.43,222.591 L148.43,220.216 L146.644,220.216 L146.644,212.065 L144.174,212.065 L136.878,220.52 L137.353,222.591 L143.851,222.591 L143.851,225.46 L146.644,225.46 Z M143.851,220.216 L140.317,220.216 L143.851,216.074 L143.851,220.216 Z M155.821,225.688 C158.709,225.688 160.894,223.807 160.894,221.09 L160.894,221.052 C160.894,218.278 158.861,216.815 156.22,216.815 C154.909,216.815 154.13,217.233 153.465,217.67 C153.655,215.922 154.491,214.592 156.144,214.592 C157.284,214.592 157.987,214.991 158.861,215.656 L160.4,213.395 C159.222,212.464 158.044,211.932 156.239,211.932 C152.268,211.932 150.406,215.086 150.406,219.19 L150.406,219.228 C150.406,221.869 151.014,223.294 151.983,224.263 C152.914,225.194 154.092,225.688 155.821,225.688 Z M155.707,223.18 C154.263,223.18 153.389,222.325 153.389,221.204 L153.389,221.166 C153.389,220.045 154.225,219.247 155.669,219.247 C157.113,219.247 157.987,220.064 157.987,221.185 L157.987,221.223 C157.987,222.363 157.151,223.18 155.707,223.18 Z" id="path-18"></path>
        <path d="M87.563,155.3 L87.563,152.773 L81.768,152.773 L83.934,151.101 C86.29,149.277 87.43,148.175 87.43,145.952 L87.43,145.914 C87.43,143.425 85.606,141.81 82.851,141.81 C80.476,141.81 79.203,142.779 77.892,144.565 L79.944,146.218 C80.932,145.002 81.635,144.432 82.661,144.432 C83.706,144.432 84.447,145.04 84.447,146.161 C84.447,147.263 83.801,147.985 82.148,149.353 L77.721,152.982 L77.721,155.3 L87.563,155.3 Z M94.422,155.528 C97.481,155.528 99.476,153.742 99.476,150.93 L99.476,150.892 C99.476,147.89 97.405,146.636 94.821,146.636 C94.08,146.636 93.605,146.731 93.073,146.864 L93.225,144.565 L98.887,144.565 L98.887,142 L90.717,142 L90.337,148.555 L92.028,149.676 C92.655,149.41 93.415,149.182 94.251,149.182 C95.638,149.182 96.607,149.847 96.607,150.987 L96.607,151.025 C96.607,152.203 95.752,152.868 94.384,152.868 C93.206,152.868 92.218,152.336 91.211,151.424 L89.444,153.533 C90.736,154.768 92.294,155.528 94.422,155.528 Z M106.24,155.528 C110.021,155.528 112.054,152.583 112.054,148.27 L112.054,148.232 C112.054,145.61 111.427,144.166 110.477,143.216 C109.47,142.209 108.425,141.772 106.639,141.772 C103.637,141.772 101.566,143.748 101.566,146.427 L101.566,146.465 C101.566,149.163 103.428,150.759 106.316,150.759 C107.475,150.759 108.368,150.398 109.014,149.847 C108.824,151.633 107.95,152.868 106.316,152.868 C105.195,152.868 104.378,152.507 103.409,151.728 L101.87,153.951 C102.991,154.882 104.302,155.528 106.24,155.528 Z M106.791,148.327 C105.347,148.327 104.473,147.51 104.473,146.332 L104.473,146.294 C104.473,145.116 105.29,144.28 106.734,144.28 C108.197,144.28 109.071,145.135 109.071,146.313 L109.071,146.351 C109.071,147.491 108.235,148.327 106.791,148.327 Z" id="path-19"></path>
        <path d="M208.795,85.15 L208.795,82.281 L210.581,82.281 L210.581,79.906 L208.795,79.906 L208.795,71.755 L206.325,71.755 L199.029,80.21 L199.504,82.281 L206.002,82.281 L206.002,85.15 L208.795,85.15 Z M206.002,79.906 L202.468,79.906 L206.002,75.764 L206.002,79.906 Z M215.863,85.15 L221.829,74.054 L221.829,71.85 L212.253,71.85 L212.253,74.377 L218.504,74.377 L212.557,85.15 L215.863,85.15 Z M229.182,85.15 L229.182,71.755 L227.187,71.755 L223.368,72.895 L223.976,75.289 L226.294,74.719 L226.294,85.15 L229.182,85.15 Z" id="path-20"></path>
        <path d="M6.27,15 L6.27,1.605 L4.275,1.605 L0.456,2.745 L1.064,5.139 L3.382,4.569 L3.382,15 L6.27,15 Z M18.791,15 L18.791,12.473 L12.996,12.473 L15.162,10.801 C17.518,8.977 18.658,7.875 18.658,5.652 L18.658,5.614 C18.658,3.125 16.834,1.51 14.079,1.51 C11.704,1.51 10.431,2.479 9.12,4.265 L11.172,5.918 C12.16,4.702 12.863,4.132 13.889,4.132 C14.934,4.132 15.675,4.74 15.675,5.861 C15.675,6.963 15.029,7.685 13.376,9.053 L8.949,12.682 L8.949,15 L18.791,15 Z M26.771,15.228 C30.324,15.228 32.699,12.207 32.699,8.35 L32.699,8.312 C32.699,4.455 30.324,1.472 26.809,1.472 C23.275,1.472 20.881,4.493 20.881,8.35 L20.881,8.388 C20.881,12.245 23.218,15.228 26.771,15.228 Z M26.809,12.587 C25.042,12.587 23.883,10.782 23.883,8.35 L23.883,8.312 C23.883,5.88 25.023,4.113 26.771,4.113 C28.519,4.113 29.697,5.937 29.697,8.35 L29.697,8.388 C29.697,10.801 28.576,12.587 26.809,12.587 Z" id="path-21"></path>
        <path d="M369.5,365.76 L369.5,352.365 L367.505,352.365 L363.686,353.505 L364.294,355.899 L366.612,355.329 L366.612,365.76 L369.5,365.76 Z M378.164,365.988 C381.717,365.988 384.092,362.967 384.092,359.11 L384.092,359.072 C384.092,355.215 381.717,352.232 378.202,352.232 C374.668,352.232 372.274,355.253 372.274,359.11 L372.274,359.148 C372.274,363.005 374.611,365.988 378.164,365.988 Z M378.202,363.347 C376.435,363.347 375.276,361.542 375.276,359.11 L375.276,359.072 C375.276,356.64 376.416,354.873 378.164,354.873 C379.912,354.873 381.09,356.697 381.09,359.11 L381.09,359.148 C381.09,361.561 379.969,363.347 378.202,363.347 Z M390.837,365.988 C393.801,365.988 395.625,364.145 395.625,361.637 L395.625,361.599 C395.625,359.129 393.858,358.179 392.053,357.875 L395.416,354.664 L395.416,352.46 L386.429,352.46 L386.429,354.968 L391.654,354.968 L388.481,358.16 L388.937,360.022 L390.153,360.022 C391.787,360.022 392.756,360.63 392.756,361.713 L392.756,361.751 C392.756,362.739 391.977,363.366 390.875,363.366 C389.526,363.366 388.576,362.796 387.664,361.77 L385.65,363.689 C386.79,365.038 388.443,365.988 390.837,365.988 Z M407.082,365.76 L407.082,362.891 L408.868,362.891 L408.868,360.516 L407.082,360.516 L407.082,352.365 L404.612,352.365 L397.316,360.82 L397.791,362.891 L404.289,362.891 L404.289,365.76 L407.082,365.76 Z M404.289,360.516 L400.755,360.516 L404.289,356.374 L404.289,360.516 Z" id="path-22"></path>
        <path d="M397.03,295.61 L397.03,282.215 L395.035,282.215 L391.216,283.355 L391.824,285.749 L394.142,285.179 L394.142,295.61 L397.03,295.61 Z M409.551,295.61 L409.551,293.083 L403.756,293.083 L405.922,291.411 C408.278,289.587 409.418,288.485 409.418,286.262 L409.418,286.224 C409.418,283.735 407.594,282.12 404.839,282.12 C402.464,282.12 401.191,283.089 399.88,284.875 L401.932,286.528 C402.92,285.312 403.623,284.742 404.649,284.742 C405.694,284.742 406.435,285.35 406.435,286.471 C406.435,287.573 405.789,288.295 404.136,289.663 L399.709,293.292 L399.709,295.61 L409.551,295.61 Z M417.531,295.838 C421.084,295.838 423.459,292.817 423.459,288.96 L423.459,288.922 C423.459,285.065 421.084,282.082 417.569,282.082 C414.035,282.082 411.641,285.103 411.641,288.96 L411.641,288.998 C411.641,292.855 413.978,295.838 417.531,295.838 Z M417.569,293.197 C415.802,293.197 414.643,291.392 414.643,288.96 L414.643,288.922 C414.643,286.49 415.783,284.723 417.531,284.723 C419.279,284.723 420.457,286.547 420.457,288.96 L420.457,288.998 C420.457,291.411 419.336,293.197 417.569,293.197 Z M428.912,295.61 L434.878,284.514 L434.878,282.31 L425.302,282.31 L425.302,284.837 L431.553,284.837 L425.606,295.61 L428.912,295.61 Z" id="path-23"></path>
        <path d="M489.48,225.46 L489.48,212.065 L487.485,212.065 L483.666,213.205 L484.274,215.599 L486.592,215.029 L486.592,225.46 L489.48,225.46 Z M497.213,225.65 C500.158,225.65 502.343,224.206 502.343,221.736 L502.343,221.698 C502.343,220.121 501.545,219.266 500.196,218.563 C501.222,217.936 501.887,217.081 501.887,215.656 L501.887,215.618 C501.887,213.566 500.025,211.97 497.213,211.97 C494.401,211.97 492.539,213.585 492.539,215.618 L492.539,215.656 C492.539,217.081 493.204,217.936 494.23,218.563 C492.824,219.209 492.083,220.159 492.083,221.774 L492.083,221.812 C492.083,224.13 494.268,225.65 497.213,225.65 Z M497.213,217.594 C496.054,217.594 495.313,216.891 495.313,215.96 L495.313,215.922 C495.313,215.105 496.016,214.383 497.213,214.383 C498.41,214.383 499.113,215.124 499.113,215.941 L499.113,215.979 C499.113,216.91 498.372,217.594 497.213,217.594 Z M497.213,223.237 C495.769,223.237 494.914,222.496 494.914,221.584 L494.914,221.546 C494.914,220.52 495.883,219.912 497.213,219.912 C498.543,219.912 499.512,220.52 499.512,221.546 L499.512,221.584 C499.512,222.515 498.657,223.237 497.213,223.237 Z M508.993,225.688 C512.052,225.688 514.047,223.902 514.047,221.09 L514.047,221.052 C514.047,218.05 511.976,216.796 509.392,216.796 C508.651,216.796 508.176,216.891 507.644,217.024 L507.796,214.725 L513.458,214.725 L513.458,212.16 L505.288,212.16 L504.908,218.715 L506.599,219.836 C507.226,219.57 507.986,219.342 508.822,219.342 C510.209,219.342 511.178,220.007 511.178,221.147 L511.178,221.185 C511.178,222.363 510.323,223.028 508.955,223.028 C507.777,223.028 506.789,222.496 505.782,221.584 L504.015,223.693 C505.307,224.928 506.865,225.688 508.993,225.688 Z M520.811,225.688 C524.592,225.688 526.625,222.743 526.625,218.43 L526.625,218.392 C526.625,215.77 525.998,214.326 525.048,213.376 C524.041,212.369 522.996,211.932 521.21,211.932 C518.208,211.932 516.137,213.908 516.137,216.587 L516.137,216.625 C516.137,219.323 517.999,220.919 520.887,220.919 C522.046,220.919 522.939,220.558 523.585,220.007 C523.395,221.793 522.521,223.028 520.887,223.028 C519.766,223.028 518.949,222.667 517.98,221.888 L516.441,224.111 C517.562,225.042 518.873,225.688 520.811,225.688 Z M521.362,218.487 C519.918,218.487 519.044,217.67 519.044,216.492 L519.044,216.454 C519.044,215.276 519.861,214.44 521.305,214.44 C522.768,214.44 523.642,215.295 523.642,216.473 L523.642,216.511 C523.642,217.651 522.806,218.487 521.362,218.487 Z" id="path-24"></path>
        <path d="M404.4,155.3 L404.4,141.905 L402.405,141.905 L398.586,143.045 L399.194,145.439 L401.512,144.869 L401.512,155.3 L404.4,155.3 Z M416.921,155.3 L416.921,152.773 L411.126,152.773 L413.292,151.101 C415.648,149.277 416.788,148.175 416.788,145.952 L416.788,145.914 C416.788,143.425 414.964,141.81 412.209,141.81 C409.834,141.81 408.561,142.779 407.25,144.565 L409.302,146.218 C410.29,145.002 410.993,144.432 412.019,144.432 C413.064,144.432 413.805,145.04 413.805,146.161 C413.805,147.263 413.159,147.985 411.506,149.353 L407.079,152.982 L407.079,155.3 L416.921,155.3 Z M423.78,155.528 C426.839,155.528 428.834,153.742 428.834,150.93 L428.834,150.892 C428.834,147.89 426.763,146.636 424.179,146.636 C423.438,146.636 422.963,146.731 422.431,146.864 L422.583,144.565 L428.245,144.565 L428.245,142 L420.075,142 L419.695,148.555 L421.386,149.676 C422.013,149.41 422.773,149.182 423.609,149.182 C424.996,149.182 425.965,149.847 425.965,150.987 L425.965,151.025 C425.965,152.203 425.11,152.868 423.742,152.868 C422.564,152.868 421.576,152.336 420.569,151.424 L418.802,153.533 C420.094,154.768 421.652,155.528 423.78,155.528 Z M435.598,155.528 C439.379,155.528 441.412,152.583 441.412,148.27 L441.412,148.232 C441.412,145.61 440.785,144.166 439.835,143.216 C438.828,142.209 437.783,141.772 435.997,141.772 C432.995,141.772 430.924,143.748 430.924,146.427 L430.924,146.465 C430.924,149.163 432.786,150.759 435.674,150.759 C436.833,150.759 437.726,150.398 438.372,149.847 C438.182,151.633 437.308,152.868 435.674,152.868 C434.553,152.868 433.736,152.507 432.767,151.728 L431.228,153.951 C432.349,154.882 433.66,155.528 435.598,155.528 Z M436.149,148.327 C434.705,148.327 433.831,147.51 433.831,146.332 L433.831,146.294 C433.831,145.116 434.648,144.28 436.092,144.28 C437.555,144.28 438.429,145.135 438.429,146.313 L438.429,146.351 C438.429,147.491 437.593,148.327 436.149,148.327 Z" id="path-25"></path>
        <path d="M450.91,85.15 L450.91,71.755 L448.915,71.755 L445.096,72.895 L445.704,75.289 L448.022,74.719 L448.022,85.15 L450.91,85.15 Z M458.453,85.378 C461.512,85.378 463.507,83.592 463.507,80.78 L463.507,80.742 C463.507,77.74 461.436,76.486 458.852,76.486 C458.111,76.486 457.636,76.581 457.104,76.714 L457.256,74.415 L462.918,74.415 L462.918,71.85 L454.748,71.85 L454.368,78.405 L456.059,79.526 C456.686,79.26 457.446,79.032 458.282,79.032 C459.669,79.032 460.638,79.697 460.638,80.837 L460.638,80.875 C460.638,82.053 459.783,82.718 458.415,82.718 C457.237,82.718 456.249,82.186 455.242,81.274 L453.475,83.383 C454.767,84.618 456.325,85.378 458.453,85.378 Z M470.613,85.34 C473.558,85.34 475.743,83.896 475.743,81.426 L475.743,81.388 C475.743,79.811 474.945,78.956 473.596,78.253 C474.622,77.626 475.287,76.771 475.287,75.346 L475.287,75.308 C475.287,73.256 473.425,71.66 470.613,71.66 C467.801,71.66 465.939,73.275 465.939,75.308 L465.939,75.346 C465.939,76.771 466.604,77.626 467.63,78.253 C466.224,78.899 465.483,79.849 465.483,81.464 L465.483,81.502 C465.483,83.82 467.668,85.34 470.613,85.34 Z M470.613,77.284 C469.454,77.284 468.713,76.581 468.713,75.65 L468.713,75.612 C468.713,74.795 469.416,74.073 470.613,74.073 C471.81,74.073 472.513,74.814 472.513,75.631 L472.513,75.669 C472.513,76.6 471.772,77.284 470.613,77.284 Z M470.613,82.927 C469.169,82.927 468.314,82.186 468.314,81.274 L468.314,81.236 C468.314,80.21 469.283,79.602 470.613,79.602 C471.943,79.602 472.912,80.21 472.912,81.236 L472.912,81.274 C472.912,82.205 472.057,82.927 470.613,82.927 Z M481.31,85.15 L487.276,74.054 L487.276,71.85 L477.7,71.85 L477.7,74.377 L483.951,74.377 L478.004,85.15 L481.31,85.15 Z" id="path-26"></path>
        <path d="M321.511,15.228 C324.399,15.228 326.584,13.347 326.584,10.63 L326.584,10.592 C326.584,7.818 324.551,6.355 321.91,6.355 C320.599,6.355 319.82,6.773 319.155,7.21 C319.345,5.462 320.181,4.132 321.834,4.132 C322.974,4.132 323.677,4.531 324.551,5.196 L326.09,2.935 C324.912,2.004 323.734,1.472 321.929,1.472 C317.958,1.472 316.096,4.626 316.096,8.73 L316.096,8.768 C316.096,11.409 316.704,12.834 317.673,13.803 C318.604,14.734 319.782,15.228 321.511,15.228 Z M321.397,12.72 C319.953,12.72 319.079,11.865 319.079,10.744 L319.079,10.706 C319.079,9.585 319.915,8.787 321.359,8.787 C322.803,8.787 323.677,9.604 323.677,10.725 L323.677,10.763 C323.677,11.903 322.841,12.72 321.397,12.72 Z M333.728,15 L333.728,1.605 L331.733,1.605 L327.914,2.745 L328.522,5.139 L330.84,4.569 L330.84,15 L333.728,15 Z M346.249,15 L346.249,12.473 L340.454,12.473 L342.62,10.801 C344.976,8.977 346.116,7.875 346.116,5.652 L346.116,5.614 C346.116,3.125 344.292,1.51 341.537,1.51 C339.162,1.51 337.889,2.479 336.578,4.265 L338.63,5.918 C339.618,4.702 340.321,4.132 341.347,4.132 C342.392,4.132 343.133,4.74 343.133,5.861 C343.133,6.963 342.487,7.685 340.834,9.053 L336.407,12.682 L336.407,15 L346.249,15 Z" id="path-27"></path>
        <path d="M704.879,295.838 C707.843,295.838 709.667,293.995 709.667,291.487 L709.667,291.449 C709.667,288.979 707.9,288.029 706.095,287.725 L709.458,284.514 L709.458,282.31 L700.471,282.31 L700.471,284.818 L705.696,284.818 L702.523,288.01 L702.979,289.872 L704.195,289.872 C705.829,289.872 706.798,290.48 706.798,291.563 L706.798,291.601 C706.798,292.589 706.019,293.216 704.917,293.216 C703.568,293.216 702.618,292.646 701.706,291.62 L699.692,293.539 C700.832,294.888 702.485,295.838 704.879,295.838 Z M716.412,295.838 C720.193,295.838 722.226,292.893 722.226,288.58 L722.226,288.542 C722.226,285.92 721.599,284.476 720.649,283.526 C719.642,282.519 718.597,282.082 716.811,282.082 C713.809,282.082 711.738,284.058 711.738,286.737 L711.738,286.775 C711.738,289.473 713.6,291.069 716.488,291.069 C717.647,291.069 718.54,290.708 719.186,290.157 C718.996,291.943 718.122,293.178 716.488,293.178 C715.367,293.178 714.55,292.817 713.581,292.038 L712.042,294.261 C713.163,295.192 714.474,295.838 716.412,295.838 Z M716.963,288.637 C715.519,288.637 714.645,287.82 714.645,286.642 L714.645,286.604 C714.645,285.426 715.462,284.59 716.906,284.59 C718.369,284.59 719.243,285.445 719.243,286.623 L719.243,286.661 C719.243,287.801 718.407,288.637 716.963,288.637 Z M733.607,295.61 L733.607,292.741 L735.393,292.741 L735.393,290.366 L733.607,290.366 L733.607,282.215 L731.137,282.215 L723.841,290.67 L724.316,292.741 L730.814,292.741 L730.814,295.61 L733.607,295.61 Z M730.814,290.366 L727.28,290.366 L730.814,286.224 L730.814,290.366 Z" id="path-28"></path>
        <path d="M791.135,225.688 C794.194,225.688 796.189,223.902 796.189,221.09 L796.189,221.052 C796.189,218.05 794.118,216.796 791.534,216.796 C790.793,216.796 790.318,216.891 789.786,217.024 L789.938,214.725 L795.6,214.725 L795.6,212.16 L787.43,212.16 L787.05,218.715 L788.741,219.836 C789.368,219.57 790.128,219.342 790.964,219.342 C792.351,219.342 793.32,220.007 793.32,221.147 L793.32,221.185 C793.32,222.363 792.465,223.028 791.097,223.028 C789.919,223.028 788.931,222.496 787.924,221.584 L786.157,223.693 C787.449,224.928 789.007,225.688 791.135,225.688 Z M803.295,225.65 C806.24,225.65 808.425,224.206 808.425,221.736 L808.425,221.698 C808.425,220.121 807.627,219.266 806.278,218.563 C807.304,217.936 807.969,217.081 807.969,215.656 L807.969,215.618 C807.969,213.566 806.107,211.97 803.295,211.97 C800.483,211.97 798.621,213.585 798.621,215.618 L798.621,215.656 C798.621,217.081 799.286,217.936 800.312,218.563 C798.906,219.209 798.165,220.159 798.165,221.774 L798.165,221.812 C798.165,224.13 800.35,225.65 803.295,225.65 Z M803.295,217.594 C802.136,217.594 801.395,216.891 801.395,215.96 L801.395,215.922 C801.395,215.105 802.098,214.383 803.295,214.383 C804.492,214.383 805.195,215.124 805.195,215.941 L805.195,215.979 C805.195,216.91 804.454,217.594 803.295,217.594 Z M803.295,223.237 C801.851,223.237 800.996,222.496 800.996,221.584 L800.996,221.546 C800.996,220.52 801.965,219.912 803.295,219.912 C804.625,219.912 805.594,220.52 805.594,221.546 L805.594,221.584 C805.594,222.515 804.739,223.237 803.295,223.237 Z M815.721,225.688 C818.609,225.688 820.794,223.807 820.794,221.09 L820.794,221.052 C820.794,218.278 818.761,216.815 816.12,216.815 C814.809,216.815 814.03,217.233 813.365,217.67 C813.555,215.922 814.391,214.592 816.044,214.592 C817.184,214.592 817.887,214.991 818.761,215.656 L820.3,213.395 C819.122,212.464 817.944,211.932 816.139,211.932 C812.168,211.932 810.306,215.086 810.306,219.19 L810.306,219.228 C810.306,221.869 810.914,223.294 811.883,224.263 C812.814,225.194 813.992,225.688 815.721,225.688 Z M815.607,223.18 C814.163,223.18 813.289,222.325 813.289,221.204 L813.289,221.166 C813.289,220.045 814.125,219.247 815.569,219.247 C817.013,219.247 817.887,220.064 817.887,221.185 L817.887,221.223 C817.887,222.363 817.051,223.18 815.607,223.18 Z" id="path-29"></path>
        <path d="M663.489,155.528 C666.453,155.528 668.277,153.685 668.277,151.177 L668.277,151.139 C668.277,148.669 666.51,147.719 664.705,147.415 L668.068,144.204 L668.068,142 L659.081,142 L659.081,144.508 L664.306,144.508 L661.133,147.7 L661.589,149.562 L662.805,149.562 C664.439,149.562 665.408,150.17 665.408,151.253 L665.408,151.291 C665.408,152.279 664.629,152.906 663.527,152.906 C662.178,152.906 661.228,152.336 660.316,151.31 L658.302,153.229 C659.442,154.578 661.095,155.528 663.489,155.528 Z M676.295,155.528 C679.848,155.528 682.223,152.507 682.223,148.65 L682.223,148.612 C682.223,144.755 679.848,141.772 676.333,141.772 C672.799,141.772 670.405,144.793 670.405,148.65 L670.405,148.688 C670.405,152.545 672.742,155.528 676.295,155.528 Z M676.333,152.887 C674.566,152.887 673.407,151.082 673.407,148.65 L673.407,148.612 C673.407,146.18 674.547,144.413 676.295,144.413 C678.043,144.413 679.221,146.237 679.221,148.65 L679.221,148.688 C679.221,151.101 678.1,152.887 676.333,152.887 Z M693.832,155.3 L693.832,152.773 L688.037,152.773 L690.203,151.101 C692.559,149.277 693.699,148.175 693.699,145.952 L693.699,145.914 C693.699,143.425 691.875,141.81 689.12,141.81 C686.745,141.81 685.472,142.779 684.161,144.565 L686.213,146.218 C687.201,145.002 687.904,144.432 688.93,144.432 C689.975,144.432 690.716,145.04 690.716,146.161 C690.716,147.263 690.07,147.985 688.417,149.353 L683.99,152.982 L683.99,155.3 L693.832,155.3 Z" id="path-30"></path>
        <path d="M602.07,85.15 L602.07,71.755 L600.075,71.755 L596.256,72.895 L596.864,75.289 L599.182,74.719 L599.182,85.15 L602.07,85.15 Z M609.613,85.378 C612.672,85.378 614.667,83.592 614.667,80.78 L614.667,80.742 C614.667,77.74 612.596,76.486 610.012,76.486 C609.271,76.486 608.796,76.581 608.264,76.714 L608.416,74.415 L614.078,74.415 L614.078,71.85 L605.908,71.85 L605.528,78.405 L607.219,79.526 C607.846,79.26 608.606,79.032 609.442,79.032 C610.829,79.032 611.798,79.697 611.798,80.837 L611.798,80.875 C611.798,82.053 610.943,82.718 609.575,82.718 C608.397,82.718 607.409,82.186 606.402,81.274 L604.635,83.383 C605.927,84.618 607.485,85.378 609.613,85.378 Z M621.773,85.34 C624.718,85.34 626.903,83.896 626.903,81.426 L626.903,81.388 C626.903,79.811 626.105,78.956 624.756,78.253 C625.782,77.626 626.447,76.771 626.447,75.346 L626.447,75.308 C626.447,73.256 624.585,71.66 621.773,71.66 C618.961,71.66 617.099,73.275 617.099,75.308 L617.099,75.346 C617.099,76.771 617.764,77.626 618.79,78.253 C617.384,78.899 616.643,79.849 616.643,81.464 L616.643,81.502 C616.643,83.82 618.828,85.34 621.773,85.34 Z M621.773,77.284 C620.614,77.284 619.873,76.581 619.873,75.65 L619.873,75.612 C619.873,74.795 620.576,74.073 621.773,74.073 C622.97,74.073 623.673,74.814 623.673,75.631 L623.673,75.669 C623.673,76.6 622.932,77.284 621.773,77.284 Z M621.773,82.927 C620.329,82.927 619.474,82.186 619.474,81.274 L619.474,81.236 C619.474,80.21 620.443,79.602 621.773,79.602 C623.103,79.602 624.072,80.21 624.072,81.236 L624.072,81.274 C624.072,82.205 623.217,82.927 621.773,82.927 Z" id="path-31"></path>
        <path d="M674.139,15.228 C677.103,15.228 678.927,13.385 678.927,10.877 L678.927,10.839 C678.927,8.369 677.16,7.419 675.355,7.115 L678.718,3.904 L678.718,1.7 L669.731,1.7 L669.731,4.208 L674.956,4.208 L671.783,7.4 L672.239,9.262 L673.455,9.262 C675.089,9.262 676.058,9.87 676.058,10.953 L676.058,10.991 C676.058,11.979 675.279,12.606 674.177,12.606 C672.828,12.606 671.878,12.036 670.966,11.01 L668.952,12.929 C670.092,14.278 671.745,15.228 674.139,15.228 Z M686.299,15 L686.299,1.605 L684.304,1.605 L680.485,2.745 L681.093,5.139 L683.411,4.569 L683.411,15 L686.299,15 Z M693.785,15.228 C697.566,15.228 699.599,12.283 699.599,7.97 L699.599,7.932 C699.599,5.31 698.972,3.866 698.022,2.916 C697.015,1.909 695.97,1.472 694.184,1.472 C691.182,1.472 689.111,3.448 689.111,6.127 L689.111,6.165 C689.111,8.863 690.973,10.459 693.861,10.459 C695.02,10.459 695.913,10.098 696.559,9.547 C696.369,11.333 695.495,12.568 693.861,12.568 C692.74,12.568 691.923,12.207 690.954,11.428 L689.415,13.651 C690.536,14.582 691.847,15.228 693.785,15.228 Z M694.336,8.027 C692.892,8.027 692.018,7.21 692.018,6.032 L692.018,5.994 C692.018,4.816 692.835,3.98 694.279,3.98 C695.742,3.98 696.616,4.835 696.616,6.013 L696.616,6.051 C696.616,7.191 695.78,8.027 694.336,8.027 Z" id="path-32"></path>
        <path d="M87.652,364.77 L87.652,355.042 L91.129,364.58 L92.934,364.58 L96.43,355.156 L96.43,364.77 L98.805,364.77 L98.805,351.299 L95.67,351.299 L92.117,360.894 L88.583,351.299 L85.277,351.299 L85.277,364.77 L87.652,364.77 Z M104.372,353.522 L104.372,351.071 L101.826,351.071 L101.826,353.522 L104.372,353.522 Z M104.315,364.77 L104.315,354.89 L101.902,354.89 L101.902,364.77 L104.315,364.77 Z M110.737,365.017 C112.086,365.017 113.321,364.675 114.119,363.877 C114.632,363.364 114.974,362.661 114.974,361.711 C114.974,360.153 113.834,359.165 112.276,358.918 C111.307,358.766 111.06,358.747 110.167,358.633 C109.635,358.557 109.027,358.348 109.027,357.645 C109.027,357.132 109.369,356.771 109.787,356.6 C110.148,356.448 110.471,356.448 110.813,356.448 C111.307,356.448 111.82,356.619 112.105,356.904 C112.333,357.151 112.504,357.455 112.504,357.835 L114.765,357.835 C114.765,357.113 114.423,356.372 113.891,355.802 C113.169,355.023 111.972,354.643 110.794,354.643 C109.559,354.643 108.514,355.004 107.792,355.631 C107.203,356.144 106.785,356.847 106.785,357.854 C106.785,359.108 107.697,360.21 109.046,360.495 C109.92,360.685 110.908,360.742 111.782,360.875 C112.39,360.97 112.77,361.35 112.77,361.92 C112.77,363.003 111.554,363.174 110.756,363.174 C110.072,363.174 109.635,363.041 109.255,362.737 C108.951,362.49 108.723,362.015 108.723,361.578 L106.5,361.578 C106.5,362.509 106.975,363.326 107.545,363.877 C108.362,364.656 109.483,365.017 110.737,365.017 Z M120.636,365.017 C121.985,365.017 123.22,364.675 124.018,363.877 C124.531,363.364 124.873,362.661 124.873,361.711 C124.873,360.153 123.733,359.165 122.175,358.918 C121.206,358.766 120.959,358.747 120.066,358.633 C119.534,358.557 118.926,358.348 118.926,357.645 C118.926,357.132 119.268,356.771 119.686,356.6 C120.047,356.448 120.37,356.448 120.712,356.448 C121.206,356.448 121.719,356.619 122.004,356.904 C122.232,357.151 122.403,357.455 122.403,357.835 L124.664,357.835 C124.664,357.113 124.322,356.372 123.79,355.802 C123.068,355.023 121.871,354.643 120.693,354.643 C119.458,354.643 118.413,355.004 117.691,355.631 C117.102,356.144 116.684,356.847 116.684,357.854 C116.684,359.108 117.596,360.21 118.945,360.495 C119.819,360.685 120.807,360.742 121.681,360.875 C122.289,360.97 122.669,361.35 122.669,361.92 C122.669,363.003 121.453,363.174 120.655,363.174 C119.971,363.174 119.534,363.041 119.154,362.737 C118.85,362.49 118.622,362.015 118.622,361.578 L116.399,361.578 C116.399,362.509 116.874,363.326 117.444,363.877 C118.261,364.656 119.382,365.017 120.636,365.017 Z M129.604,353.522 L129.604,351.071 L127.058,351.071 L127.058,353.522 L129.604,353.522 Z M129.547,364.77 L129.547,354.89 L127.134,354.89 L127.134,364.77 L129.547,364.77 Z M134.905,364.77 L134.905,360.742 C134.905,359.906 134.886,358.88 135.228,358.101 C135.551,357.379 136.102,356.847 136.938,356.847 C138.192,356.847 138.572,357.55 138.572,358.709 L138.572,364.77 L140.947,364.77 L140.947,358.177 C140.947,356.125 139.712,354.643 137.603,354.643 C136.463,354.643 135.285,355.118 134.696,356.163 L134.525,354.89 L132.53,354.89 L132.53,364.77 L134.905,364.77 Z M147.692,369.387 C149.896,369.387 152.461,368.684 152.461,366.081 C152.461,365.131 152.119,364.295 151.264,363.706 C150.333,363.06 149.041,363.041 148.053,363.041 L146.419,363.041 C145.925,363.041 145.336,362.908 145.336,362.319 C145.336,361.996 145.602,361.749 145.83,361.616 C146.324,361.787 146.875,361.882 147.426,361.882 C149.554,361.882 151.454,360.552 151.454,358.291 C151.454,357.626 151.264,357.037 150.941,356.505 C151.093,356.03 151.587,355.878 152.138,355.878 C152.195,355.878 152.271,355.897 152.328,355.897 L152.328,354.054 C152.176,354.016 151.834,354.016 151.682,354.016 C150.846,354.016 150.086,354.396 149.668,355.251 C149.022,354.871 148.243,354.643 147.426,354.643 C145.203,354.643 143.379,355.916 143.379,358.272 C143.379,359.279 143.759,360.096 144.367,360.704 C143.569,361.198 143.189,361.863 143.189,362.699 C143.189,363.345 143.55,364.048 144.177,364.39 C143.417,364.77 142.999,365.549 142.999,366.404 C142.999,367.335 143.436,368.038 144.196,368.57 C145.222,369.292 146.495,369.387 147.692,369.387 Z M147.426,360.096 C146.343,360.096 145.678,359.336 145.678,358.272 C145.678,357.208 146.343,356.429 147.426,356.429 C148.509,356.429 149.174,357.208 149.174,358.272 C149.174,359.336 148.509,360.096 147.426,360.096 Z M147.709683,367.505679 L147.597,367.506 C146.666,367.506 145.108,367.392 145.108,366.138 C145.108,365.511 145.488,365.074 146.001,364.922 L147.863,364.922 C148.756,364.922 150.219,364.922 150.219,366.138 C150.219,367.398577 148.673142,367.49976 147.709683,367.505679 Z" id="path-33"></path>
        <path d="M3.952,294.61 L3.952,284.882 L7.429,294.42 L9.234,294.42 L12.73,284.996 L12.73,294.61 L15.105,294.61 L15.105,281.139 L11.97,281.139 L8.417,290.734 L4.883,281.139 L1.577,281.139 L1.577,294.61 L3.952,294.61 Z M22.097,294.857 C23.598,294.857 24.871,294.154 25.555,293.318 C26.296,292.387 26.714,291.342 26.714,289.67 C26.714,287.998 26.296,286.953 25.555,286.022 C24.871,285.186 23.598,284.483 22.097,284.483 C20.596,284.483 19.323,285.186 18.639,286.022 C17.898,286.953 17.48,287.998 17.48,289.67 C17.48,291.342 17.898,292.387 18.639,293.318 C19.323,294.154 20.596,294.857 22.097,294.857 Z M22.097,292.786 C21.451,292.786 20.919,292.501 20.596,292.159 C20.026,291.532 19.893,290.601 19.893,289.67 C19.893,288.739 20.026,287.808 20.596,287.181 C20.919,286.839 21.451,286.554 22.097,286.554 C22.743,286.554 23.275,286.839 23.598,287.181 C24.168,287.808 24.301,288.739 24.301,289.67 C24.301,290.601 24.168,291.532 23.598,292.159 C23.275,292.501 22.743,292.786 22.097,292.786 Z M31.388,294.61 L31.388,289.632 C31.388,288.036 32.262,286.839 33.934,286.839 C34.2,286.839 34.485,286.877 34.751,286.934 L34.751,284.654 C34.504,284.616 34.257,284.597 34.01,284.597 C32.851,284.597 31.673,285.072 31.217,286.212 L31.008,284.73 L28.994,284.73 L28.994,294.61 L31.388,294.61 Z M40.261,294.857 C41.515,294.857 42.75,294.458 43.586,293.47 C43.966,293.014 44.365,292.235 44.422,291.646 L42.142,291.646 C42.047,292.007 41.876,292.273 41.667,292.482 C41.325,292.824 40.907,292.957 40.223,292.957 C39.577,292.957 39.102,292.672 38.76,292.349 C38.285,291.893 38.019,291.171 38.038,290.411 L44.65,290.411 C44.65,290.202 44.669,289.746 44.669,289.746 C44.707,288.511 44.536,287.39 43.814,286.307 C42.997,285.072 41.667,284.483 40.204,284.483 C38.855,284.483 37.791,284.977 37.05,285.737 C36.1,286.706 35.625,288.112 35.625,289.689 C35.625,291.304 36.157,292.691 37.145,293.641 C37.924,294.382 38.912,294.857 40.261,294.857 Z M42.294,288.682 L38.019,288.682 C38.038,288.036 38.19,287.58 38.532,287.143 C38.874,286.687 39.463,286.383 40.185,286.383 C40.869,286.383 41.363,286.611 41.686,286.953 C42.066,287.371 42.275,287.941 42.294,288.682 Z M54.416,294.743 C55.119,294.743 55.784,294.648 56.449,294.477 L56.449,292.482 C55.803,292.558 55.404,292.577 54.91,292.577 C54.15,292.577 53.808,292.254 53.808,291.494 L53.808,286.687 L56.297,286.687 L56.297,284.73 L53.808,284.73 L53.808,281.633 L51.433,282.222 L51.433,284.73 L49.628,284.73 L49.628,286.687 L51.433,286.687 L51.433,291.703 C51.433,293.603 52.421,294.743 54.416,294.743 Z M60.838,294.61 L60.838,289.404 C60.838,288.188 61.446,286.668 62.871,286.668 C64.125,286.668 64.505,287.371 64.505,288.511 L64.505,294.61 L66.88,294.61 L66.88,288.017 C66.88,285.984 65.645,284.483 63.536,284.483 C62.51,284.483 61.408,284.939 60.838,285.775 L60.838,280.892 L58.463,280.892 L58.463,294.61 L60.838,294.61 Z M72.447,294.857 C73.853,294.857 74.993,294.173 75.449,293.375 C75.525,294.116 76.095,294.762 77.121,294.762 C77.691,294.762 77.9,294.667 78.299,294.496 L78.299,292.748 C78.299,292.748 78.147,292.786 77.995,292.786 C77.596,292.786 77.444,292.615 77.444,292.159 L77.444,288.492 C77.444,287.827 77.406,287.124 77.159,286.497 C76.589,285.015 75.145,284.483 73.454,284.483 C71.25,284.483 69.483,285.471 69.35,287.694 L71.649,287.694 C71.706,286.782 72.352,286.288 73.454,286.288 C74.803,286.288 75.126,286.915 75.126,287.846 L75.126,288.454 L72.219,288.663 C70.338,288.796 68.875,289.879 68.875,291.76 C68.875,293.375 70.091,294.857 72.447,294.857 Z M72.599,292.938 C71.858,292.938 71.193,292.463 71.193,291.703 C71.193,290.905 71.896,290.468 72.618,290.411 L75.126,290.221 L75.126,290.677 C75.126,292.14 74.081,292.938 72.599,292.938 Z M82.745,294.61 L82.745,290.582 C82.745,289.746 82.726,288.72 83.068,287.941 C83.391,287.219 83.942,286.687 84.778,286.687 C86.032,286.687 86.412,287.39 86.412,288.549 L86.412,294.61 L88.787,294.61 L88.787,288.017 C88.787,285.965 87.552,284.483 85.443,284.483 C84.303,284.483 83.125,284.958 82.536,286.003 L82.365,284.73 L80.37,284.73 L80.37,294.61 L82.745,294.61 Z M100.415,296.263 L100.415,294.534 C101.65,294.401 102.733,293.945 103.512,293.147 C104.139,292.501 104.595,291.684 104.595,290.487 C104.595,288.34 102.999,287.124 101.061,286.82 C100.852,286.782 100.624,286.763 100.415,286.725 L100.415,283.248 C100.852,283.362 101.251,283.552 101.517,283.837 C101.821,284.16 102.087,284.673 102.106,285.129 L104.443,285.129 C104.405,284.084 103.892,283.115 103.132,282.412 C102.429,281.766 101.479,281.367 100.415,281.234 L100.415,279.429 L99.028,279.429 L99.028,281.196 C97.755,281.31 96.691,281.823 95.95,282.564 C95.266,283.229 94.791,284.065 94.791,285.072 C94.791,287.01 96.045,288.321 98.097,288.644 C98.401,288.701 98.724,288.739 99.028,288.777 L99.028,292.539 C98.458,292.482 97.926,292.292 97.489,291.874 C97.09,291.494 96.805,290.924 96.786,290.278 L94.449,290.278 C94.468,291.475 95.038,292.52 95.798,293.204 C96.729,294.059 97.831,294.458 99.028,294.553 L99.028,296.263 L100.415,296.263 Z M99.028,286.535 C98.838,286.516 98.648,286.478 98.458,286.44 C97.66,286.307 97.109,285.889 97.109,285.015 C97.109,284.521 97.318,284.103 97.622,283.818 C98.002,283.457 98.515,283.267 99.028,283.191 L99.028,286.535 Z M100.415,292.52 L100.415,288.986 L100.738,289.043 C101.555,289.195 102.296,289.613 102.296,290.582 C102.296,291.209 102.068,291.589 101.764,291.893 C101.422,292.235 100.966,292.425 100.415,292.52 Z M110.884,294.857 C113.373,294.857 115.387,293.47 115.387,290.829 C115.387,289.461 114.589,288.112 113.221,287.732 C114.418,287.314 115.121,286.098 115.121,284.901 C115.121,282.621 113.297,281.139 110.903,281.139 C108.49,281.139 106.514,282.526 106.476,285.015 L108.87,285.015 C108.889,283.818 109.725,283.229 110.903,283.229 C111.948,283.229 112.708,284.008 112.708,284.958 C112.708,286.193 111.967,286.725 110.675,286.725 L109.687,286.725 L109.687,288.796 L110.675,288.796 C111.91,288.796 112.993,289.423 112.993,290.791 C112.993,292.045 112.081,292.767 110.903,292.767 C109.744,292.767 108.87,292.083 108.775,290.791 L106.4,290.791 C106.476,293.261 108.452,294.857 110.884,294.857 Z M118.522,297.84 C120.194,297.137 120.631,296.035 120.631,294.382 L120.631,291.646 L117.743,291.646 L117.743,294.61 L119.168,294.61 C119.168,295.636 118.959,296.225 117.857,296.738 L118.522,297.84 Z M127.376,294.857 C128.801,294.857 129.77,294.344 130.454,293.679 C131.822,292.368 132.031,290.164 132.031,287.998 C132.031,285.832 131.822,283.628 130.454,282.317 C129.77,281.652 128.801,281.139 127.376,281.139 C125.951,281.139 124.982,281.652 124.298,282.317 C122.93,283.628 122.721,285.832 122.721,287.998 C122.721,290.164 122.93,292.368 124.298,293.679 C124.982,294.344 125.951,294.857 127.376,294.857 Z M127.376,292.653 C124.925,292.653 125.134,289.708 125.134,287.998 C125.134,286.288 124.925,283.343 127.376,283.343 C129.760757,283.343 129.627354,286.130962 129.618401,287.856728 L129.618,287.998 C129.618,289.708 129.827,292.653 127.376,292.653 Z M138.206,294.857 C139.631,294.857 140.6,294.344 141.284,293.679 C142.652,292.368 142.861,290.164 142.861,287.998 C142.861,285.832 142.652,283.628 141.284,282.317 C140.6,281.652 139.631,281.139 138.206,281.139 C136.781,281.139 135.812,281.652 135.128,282.317 C133.76,283.628 133.551,285.832 133.551,287.998 C133.551,290.164 133.76,292.368 135.128,293.679 C135.812,294.344 136.781,294.857 138.206,294.857 Z M138.206,292.653 C135.755,292.653 135.964,289.708 135.964,287.998 C135.964,286.288 135.755,283.343 138.206,283.343 C140.590757,283.343 140.457354,286.130962 140.448401,287.856728 L140.448,287.998 C140.448,289.708 140.657,292.653 138.206,292.653 Z M149.036,294.857 C150.461,294.857 151.43,294.344 152.114,293.679 C153.482,292.368 153.691,290.164 153.691,287.998 C153.691,285.832 153.482,283.628 152.114,282.317 C151.43,281.652 150.461,281.139 149.036,281.139 C147.611,281.139 146.642,281.652 145.958,282.317 C144.59,283.628 144.381,285.832 144.381,287.998 C144.381,290.164 144.59,292.368 145.958,293.679 C146.642,294.344 147.611,294.857 149.036,294.857 Z M149.036,292.653 C146.585,292.653 146.794,289.708 146.794,287.998 C146.794,286.288 146.585,283.343 149.036,283.343 C151.420757,283.343 151.287354,286.130962 151.278401,287.856728 L151.278,287.998 C151.278,289.708 151.487,292.653 149.036,292.653 Z" id="path-34"></path>
        <path d="M14.487,227.113 L14.487,225.384 C15.722,225.251 16.805,224.795 17.584,223.997 C18.211,223.351 18.667,222.534 18.667,221.337 C18.667,219.19 17.071,217.974 15.133,217.67 C14.924,217.632 14.696,217.613 14.487,217.575 L14.487,214.098 C14.924,214.212 15.323,214.402 15.589,214.687 C15.893,215.01 16.159,215.523 16.178,215.979 L18.515,215.979 C18.477,214.934 17.964,213.965 17.204,213.262 C16.501,212.616 15.551,212.217 14.487,212.084 L14.487,210.279 L13.1,210.279 L13.1,212.046 C11.827,212.16 10.763,212.673 10.022,213.414 C9.338,214.079 8.863,214.915 8.863,215.922 C8.863,217.86 10.117,219.171 12.169,219.494 C12.473,219.551 12.796,219.589 13.1,219.627 L13.1,223.389 C12.53,223.332 11.998,223.142 11.561,222.724 C11.162,222.344 10.877,221.774 10.858,221.128 L8.521,221.128 C8.54,222.325 9.11,223.37 9.87,224.054 C10.801,224.909 11.903,225.308 13.1,225.403 L13.1,227.113 L14.487,227.113 Z M13.1,217.385 C12.91,217.366 12.72,217.328 12.53,217.29 C11.732,217.157 11.181,216.739 11.181,215.865 C11.181,215.371 11.39,214.953 11.694,214.668 C12.074,214.307 12.587,214.117 13.1,214.041 L13.1,217.385 Z M14.487,223.37 L14.487,219.836 L14.81,219.893 C15.627,220.045 16.368,220.463 16.368,221.432 C16.368,222.059 16.14,222.439 15.836,222.743 C15.494,223.085 15.038,223.275 14.487,223.37 Z M26.476,225.46 L26.476,212.255 L24.443,212.255 L21.194,214.592 L21.194,217.176 L24.101,215.067 L24.101,225.46 L26.476,225.46 Z M30.504,228.69 C32.176,227.987 32.613,226.885 32.613,225.232 L32.613,222.496 L29.725,222.496 L29.725,225.46 L31.15,225.46 C31.15,226.486 30.941,227.075 29.839,227.588 L30.504,228.69 Z M39.472,225.726 C42.417,225.726 44.07,223.769 44.07,220.976 C44.07,218.468 42.645,216.549 39.985,216.549 C38.807,216.549 37.971,216.834 37.363,217.404 L37.515,214.383 L43.481,214.383 L43.481,212.255 L35.463,212.255 L35.178,219.703 L37.515,219.703 C37.933,219.038 38.712,218.639 39.491,218.639 C41.011,218.639 41.657,219.646 41.657,221.033 C41.657,222.458 41.087,223.617 39.491,223.617 C38.237,223.617 37.325,222.914 37.268,221.603 L34.893,221.603 C35.026,224.092 36.85,225.726 39.472,225.726 Z M50.188,225.707 C51.613,225.707 52.582,225.194 53.266,224.529 C54.634,223.218 54.843,221.014 54.843,218.848 C54.843,216.682 54.634,214.478 53.266,213.167 C52.582,212.502 51.613,211.989 50.188,211.989 C48.763,211.989 47.794,212.502 47.11,213.167 C45.742,214.478 45.533,216.682 45.533,218.848 C45.533,221.014 45.742,223.218 47.11,224.529 C47.794,225.194 48.763,225.707 50.188,225.707 Z M50.188,223.503 C47.737,223.503 47.946,220.558 47.946,218.848 C47.946,217.138 47.737,214.193 50.188,214.193 C52.639,214.193 52.43,217.138 52.43,218.848 C52.43,220.558 52.639,223.503 50.188,223.503 Z M63.089,225.46 L63.089,212.255 L61.056,212.255 L57.807,214.592 L57.807,217.176 L60.714,215.067 L60.714,225.46 L63.089,225.46 Z M75.439,225.593 C76.142,225.593 76.807,225.498 77.472,225.327 L77.472,223.332 C76.826,223.408 76.427,223.427 75.933,223.427 C75.173,223.427 74.831,223.104 74.831,222.344 L74.831,217.537 L77.32,217.537 L77.32,215.58 L74.831,215.58 L74.831,212.483 L72.456,213.072 L72.456,215.58 L70.651,215.58 L70.651,217.537 L72.456,217.537 L72.456,222.553 C72.456,224.453 73.444,225.593 75.439,225.593 Z M83.229,225.707 C84.73,225.707 86.003,225.004 86.687,224.168 C87.428,223.237 87.846,222.192 87.846,220.52 C87.846,218.848 87.428,217.803 86.687,216.872 C86.003,216.036 84.73,215.333 83.229,215.333 C81.728,215.333 80.455,216.036 79.771,216.872 C79.03,217.803 78.612,218.848 78.612,220.52 C78.612,222.192 79.03,223.237 79.771,224.168 C80.455,225.004 81.728,225.707 83.229,225.707 Z M83.229,223.636 C82.583,223.636 82.051,223.351 81.728,223.009 C81.158,222.382 81.025,221.451 81.025,220.52 C81.025,219.589 81.158,218.658 81.728,218.031 C82.051,217.689 82.583,217.404 83.229,217.404 C83.875,217.404 84.407,217.689 84.73,218.031 C85.3,218.658 85.433,219.589 85.433,220.52 C85.433,221.451 85.3,222.382 84.73,223.009 C84.407,223.351 83.875,223.636 83.229,223.636 Z M98.942,227.113 L98.942,225.384 C100.177,225.251 101.26,224.795 102.039,223.997 C102.666,223.351 103.122,222.534 103.122,221.337 C103.122,219.19 101.526,217.974 99.588,217.67 C99.379,217.632 99.151,217.613 98.942,217.575 L98.942,214.098 C99.379,214.212 99.778,214.402 100.044,214.687 C100.348,215.01 100.614,215.523 100.633,215.979 L102.97,215.979 C102.932,214.934 102.419,213.965 101.659,213.262 C100.956,212.616 100.006,212.217 98.942,212.084 L98.942,210.279 L97.555,210.279 L97.555,212.046 C96.282,212.16 95.218,212.673 94.477,213.414 C93.793,214.079 93.318,214.915 93.318,215.922 C93.318,217.86 94.572,219.171 96.624,219.494 C96.928,219.551 97.251,219.589 97.555,219.627 L97.555,223.389 C96.985,223.332 96.453,223.142 96.016,222.724 C95.617,222.344 95.332,221.774 95.313,221.128 L92.976,221.128 C92.995,222.325 93.565,223.37 94.325,224.054 C95.256,224.909 96.358,225.308 97.555,225.403 L97.555,227.113 L98.942,227.113 Z M97.555,217.385 C97.365,217.366 97.175,217.328 96.985,217.29 C96.187,217.157 95.636,216.739 95.636,215.865 C95.636,215.371 95.845,214.953 96.149,214.668 C96.529,214.307 97.042,214.117 97.555,214.041 L97.555,217.385 Z M98.942,223.37 L98.942,219.836 L99.265,219.893 C100.082,220.045 100.823,220.463 100.823,221.432 C100.823,222.059 100.595,222.439 100.291,222.743 C99.949,223.085 99.493,223.275 98.942,223.37 Z M109.411,225.707 C111.9,225.707 113.914,224.32 113.914,221.679 C113.914,220.311 113.116,218.962 111.748,218.582 C112.945,218.164 113.648,216.948 113.648,215.751 C113.648,213.471 111.824,211.989 109.43,211.989 C107.017,211.989 105.041,213.376 105.003,215.865 L107.397,215.865 C107.416,214.668 108.252,214.079 109.43,214.079 C110.475,214.079 111.235,214.858 111.235,215.808 C111.235,217.043 110.494,217.575 109.202,217.575 L108.214,217.575 L108.214,219.646 L109.202,219.646 C110.437,219.646 111.52,220.273 111.52,221.641 C111.52,222.895 110.608,223.617 109.43,223.617 C108.271,223.617 107.397,222.933 107.302,221.641 L104.927,221.641 C105.003,224.111 106.979,225.707 109.411,225.707 Z M117.049,228.69 C118.721,227.987 119.158,226.885 119.158,225.232 L119.158,222.496 L116.27,222.496 L116.27,225.46 L117.695,225.46 C117.695,226.486 117.486,227.075 116.384,227.588 L117.049,228.69 Z M125.903,225.707 C127.328,225.707 128.297,225.194 128.981,224.529 C130.349,223.218 130.558,221.014 130.558,218.848 C130.558,216.682 130.349,214.478 128.981,213.167 C128.297,212.502 127.328,211.989 125.903,211.989 C124.478,211.989 123.509,212.502 122.825,213.167 C121.457,214.478 121.248,216.682 121.248,218.848 C121.248,221.014 121.457,223.218 122.825,224.529 C123.509,225.194 124.478,225.707 125.903,225.707 Z M125.903,223.503 C123.452,223.503 123.661,220.558 123.661,218.848 C123.661,217.138 123.452,214.193 125.903,214.193 C128.287757,214.193 128.154354,216.980962 128.145401,218.706728 L128.145,218.848 C128.145,220.558 128.354,223.503 125.903,223.503 Z M136.733,225.707 C138.158,225.707 139.127,225.194 139.811,224.529 C141.179,223.218 141.388,221.014 141.388,218.848 C141.388,216.682 141.179,214.478 139.811,213.167 C139.127,212.502 138.158,211.989 136.733,211.989 C135.308,211.989 134.339,212.502 133.655,213.167 C132.287,214.478 132.078,216.682 132.078,218.848 C132.078,221.014 132.287,223.218 133.655,224.529 C134.339,225.194 135.308,225.707 136.733,225.707 Z M136.733,223.503 C134.282,223.503 134.491,220.558 134.491,218.848 C134.491,217.138 134.282,214.193 136.733,214.193 C139.117757,214.193 138.984354,216.980962 138.975401,218.706728 L138.975,218.848 C138.975,220.558 139.184,223.503 136.733,223.503 Z M147.563,225.707 C148.988,225.707 149.957,225.194 150.641,224.529 C152.009,223.218 152.218,221.014 152.218,218.848 C152.218,216.682 152.009,214.478 150.641,213.167 C149.957,212.502 148.988,211.989 147.563,211.989 C146.138,211.989 145.169,212.502 144.485,213.167 C143.117,214.478 142.908,216.682 142.908,218.848 C142.908,221.014 143.117,223.218 144.485,224.529 C145.169,225.194 146.138,225.707 147.563,225.707 Z M147.563,223.503 C145.112,223.503 145.321,220.558 145.321,218.848 C145.321,217.138 145.112,214.193 147.563,214.193 C149.947757,214.193 149.814354,216.980962 149.805401,218.706728 L149.805,218.848 C149.805,220.558 150.014,223.503 147.563,223.503 Z" id="path-35"></path>
        <path d="M14.487,156.963 L14.487,155.234 C15.722,155.101 16.805,154.645 17.584,153.847 C18.211,153.201 18.667,152.384 18.667,151.187 C18.667,149.04 17.071,147.824 15.133,147.52 C14.924,147.482 14.696,147.463 14.487,147.425 L14.487,143.948 C14.924,144.062 15.323,144.252 15.589,144.537 C15.893,144.86 16.159,145.373 16.178,145.829 L18.515,145.829 C18.477,144.784 17.964,143.815 17.204,143.112 C16.501,142.466 15.551,142.067 14.487,141.934 L14.487,140.129 L13.1,140.129 L13.1,141.896 C11.827,142.01 10.763,142.523 10.022,143.264 C9.338,143.929 8.863,144.765 8.863,145.772 C8.863,147.71 10.117,149.021 12.169,149.344 C12.473,149.401 12.796,149.439 13.1,149.477 L13.1,153.239 C12.53,153.182 11.998,152.992 11.561,152.574 C11.162,152.194 10.877,151.624 10.858,150.978 L8.521,150.978 C8.54,152.175 9.11,153.22 9.87,153.904 C10.801,154.759 11.903,155.158 13.1,155.253 L13.1,156.963 L14.487,156.963 Z M13.1,147.235 C12.91,147.216 12.72,147.178 12.53,147.14 C11.732,147.007 11.181,146.589 11.181,145.715 C11.181,145.221 11.39,144.803 11.694,144.518 C12.074,144.157 12.587,143.967 13.1,143.891 L13.1,147.235 Z M14.487,153.22 L14.487,149.686 L14.81,149.743 C15.627,149.895 16.368,150.313 16.368,151.282 C16.368,151.909 16.14,152.289 15.836,152.593 C15.494,152.935 15.038,153.125 14.487,153.22 Z M26.476,155.31 L26.476,142.105 L24.443,142.105 L21.194,144.442 L21.194,147.026 L24.101,144.917 L24.101,155.31 L26.476,155.31 Z M30.504,158.54 C32.176,157.837 32.613,156.735 32.613,155.082 L32.613,152.346 L29.725,152.346 L29.725,155.31 L31.15,155.31 C31.15,156.336 30.941,156.925 29.839,157.438 L30.504,158.54 Z M39.358,155.557 C40.783,155.557 41.752,155.044 42.436,154.379 C43.804,153.068 44.013,150.864 44.013,148.698 C44.013,146.532 43.804,144.328 42.436,143.017 C41.752,142.352 40.783,141.839 39.358,141.839 C37.933,141.839 36.964,142.352 36.28,143.017 C34.912,144.328 34.703,146.532 34.703,148.698 C34.703,150.864 34.912,153.068 36.28,154.379 C36.964,155.044 37.933,155.557 39.358,155.557 Z M39.358,153.353 C36.907,153.353 37.116,150.408 37.116,148.698 C37.116,146.988 36.907,144.043 39.358,144.043 C41.7427568,144.043 41.6093543,146.830962 41.6004014,148.556728 L41.6,148.698 C41.6,150.408 41.809,153.353 39.358,153.353 Z M50.188,155.557 C51.613,155.557 52.582,155.044 53.266,154.379 C54.634,153.068 54.843,150.864 54.843,148.698 C54.843,146.532 54.634,144.328 53.266,143.017 C52.582,142.352 51.613,141.839 50.188,141.839 C48.763,141.839 47.794,142.352 47.11,143.017 C45.742,144.328 45.533,146.532 45.533,148.698 C45.533,150.864 45.742,153.068 47.11,154.379 C47.794,155.044 48.763,155.557 50.188,155.557 Z M50.188,153.353 C47.737,153.353 47.946,150.408 47.946,148.698 C47.946,146.988 47.737,144.043 50.188,144.043 C52.639,144.043 52.43,146.988 52.43,148.698 C52.43,150.408 52.639,153.353 50.188,153.353 Z M63.089,155.31 L63.089,142.105 L61.056,142.105 L57.807,144.442 L57.807,147.026 L60.714,144.917 L60.714,155.31 L63.089,155.31 Z M75.439,155.443 C76.142,155.443 76.807,155.348 77.472,155.177 L77.472,153.182 C76.826,153.258 76.427,153.277 75.933,153.277 C75.173,153.277 74.831,152.954 74.831,152.194 L74.831,147.387 L77.32,147.387 L77.32,145.43 L74.831,145.43 L74.831,142.333 L72.456,142.922 L72.456,145.43 L70.651,145.43 L70.651,147.387 L72.456,147.387 L72.456,152.403 C72.456,154.303 73.444,155.443 75.439,155.443 Z M83.229,155.557 C84.73,155.557 86.003,154.854 86.687,154.018 C87.428,153.087 87.846,152.042 87.846,150.37 C87.846,148.698 87.428,147.653 86.687,146.722 C86.003,145.886 84.73,145.183 83.229,145.183 C81.728,145.183 80.455,145.886 79.771,146.722 C79.03,147.653 78.612,148.698 78.612,150.37 C78.612,152.042 79.03,153.087 79.771,154.018 C80.455,154.854 81.728,155.557 83.229,155.557 Z M83.229,153.486 C82.583,153.486 82.051,153.201 81.728,152.859 C81.158,152.232 81.025,151.301 81.025,150.37 C81.025,149.439 81.158,148.508 81.728,147.881 C82.051,147.539 82.583,147.254 83.229,147.254 C83.875,147.254 84.407,147.539 84.73,147.881 C85.3,148.508 85.433,149.439 85.433,150.37 C85.433,151.301 85.3,152.232 84.73,152.859 C84.407,153.201 83.875,153.486 83.229,153.486 Z M98.942,156.963 L98.942,155.234 C100.177,155.101 101.26,154.645 102.039,153.847 C102.666,153.201 103.122,152.384 103.122,151.187 C103.122,149.04 101.526,147.824 99.588,147.52 C99.379,147.482 99.151,147.463 98.942,147.425 L98.942,143.948 C99.379,144.062 99.778,144.252 100.044,144.537 C100.348,144.86 100.614,145.373 100.633,145.829 L102.97,145.829 C102.932,144.784 102.419,143.815 101.659,143.112 C100.956,142.466 100.006,142.067 98.942,141.934 L98.942,140.129 L97.555,140.129 L97.555,141.896 C96.282,142.01 95.218,142.523 94.477,143.264 C93.793,143.929 93.318,144.765 93.318,145.772 C93.318,147.71 94.572,149.021 96.624,149.344 C96.928,149.401 97.251,149.439 97.555,149.477 L97.555,153.239 C96.985,153.182 96.453,152.992 96.016,152.574 C95.617,152.194 95.332,151.624 95.313,150.978 L92.976,150.978 C92.995,152.175 93.565,153.22 94.325,153.904 C95.256,154.759 96.358,155.158 97.555,155.253 L97.555,156.963 L98.942,156.963 Z M97.555,147.235 C97.365,147.216 97.175,147.178 96.985,147.14 C96.187,147.007 95.636,146.589 95.636,145.715 C95.636,145.221 95.845,144.803 96.149,144.518 C96.529,144.157 97.042,143.967 97.555,143.891 L97.555,147.235 Z M98.942,153.22 L98.942,149.686 L99.265,149.743 C100.082,149.895 100.823,150.313 100.823,151.282 C100.823,151.909 100.595,152.289 100.291,152.593 C99.949,152.935 99.493,153.125 98.942,153.22 Z M110.931,155.31 L110.931,142.105 L108.898,142.105 L105.649,144.442 L105.649,147.026 L108.556,144.917 L108.556,155.31 L110.931,155.31 Z M114.959,158.54 C116.631,157.837 117.068,156.735 117.068,155.082 L117.068,152.346 L114.18,152.346 L114.18,155.31 L115.605,155.31 C115.605,156.336 115.396,156.925 114.294,157.438 L114.959,158.54 Z M123.927,155.576 C126.872,155.576 128.525,153.619 128.525,150.826 C128.525,148.318 127.1,146.399 124.44,146.399 C123.262,146.399 122.426,146.684 121.818,147.254 L121.97,144.233 L127.936,144.233 L127.936,142.105 L119.918,142.105 L119.633,149.553 L121.97,149.553 C122.388,148.888 123.167,148.489 123.946,148.489 C125.466,148.489 126.112,149.496 126.112,150.883 C126.112,152.308 125.542,153.467 123.946,153.467 C122.692,153.467 121.78,152.764 121.723,151.453 L119.348,151.453 C119.481,153.942 121.305,155.576 123.927,155.576 Z M134.643,155.557 C136.068,155.557 137.037,155.044 137.721,154.379 C139.089,153.068 139.298,150.864 139.298,148.698 C139.298,146.532 139.089,144.328 137.721,143.017 C137.037,142.352 136.068,141.839 134.643,141.839 C133.218,141.839 132.249,142.352 131.565,143.017 C130.197,144.328 129.988,146.532 129.988,148.698 C129.988,150.864 130.197,153.068 131.565,154.379 C132.249,155.044 133.218,155.557 134.643,155.557 Z M134.643,153.353 C132.192,153.353 132.401,150.408 132.401,148.698 C132.401,146.988 132.192,144.043 134.643,144.043 C137.027757,144.043 136.894354,146.830962 136.885401,148.556728 L136.885,148.698 C136.885,150.408 137.094,153.353 134.643,153.353 Z M145.473,155.557 C146.898,155.557 147.867,155.044 148.551,154.379 C149.919,153.068 150.128,150.864 150.128,148.698 C150.128,146.532 149.919,144.328 148.551,143.017 C147.867,142.352 146.898,141.839 145.473,141.839 C144.048,141.839 143.079,142.352 142.395,143.017 C141.027,144.328 140.818,146.532 140.818,148.698 C140.818,150.864 141.027,153.068 142.395,154.379 C143.079,155.044 144.048,155.557 145.473,155.557 Z M145.473,153.353 C143.022,153.353 143.231,150.408 143.231,148.698 C143.231,146.988 143.022,144.043 145.473,144.043 C147.857757,144.043 147.724354,146.830962 147.715401,148.556728 L147.715,148.698 C147.715,150.408 147.924,153.353 145.473,153.353 Z" id="path-36"></path>
        <path d="M28.987,86.813 L28.987,85.084 C30.222,84.951 31.305,84.495 32.084,83.697 C32.711,83.051 33.167,82.234 33.167,81.037 C33.167,78.89 31.571,77.674 29.633,77.37 C29.424,77.332 29.196,77.313 28.987,77.275 L28.987,73.798 C29.424,73.912 29.823,74.102 30.089,74.387 C30.393,74.71 30.659,75.223 30.678,75.679 L33.015,75.679 C32.977,74.634 32.464,73.665 31.704,72.962 C31.001,72.316 30.051,71.917 28.987,71.784 L28.987,69.979 L27.6,69.979 L27.6,71.746 C26.327,71.86 25.263,72.373 24.522,73.114 C23.838,73.779 23.363,74.615 23.363,75.622 C23.363,77.56 24.617,78.871 26.669,79.194 C26.973,79.251 27.296,79.289 27.6,79.327 L27.6,83.089 C27.03,83.032 26.498,82.842 26.061,82.424 C25.662,82.044 25.377,81.474 25.358,80.828 L23.021,80.828 C23.04,82.025 23.61,83.07 24.37,83.754 C25.301,84.609 26.403,85.008 27.6,85.103 L27.6,86.813 L28.987,86.813 Z M27.6,77.085 C27.41,77.066 27.22,77.028 27.03,76.99 C26.232,76.857 25.681,76.439 25.681,75.565 C25.681,75.071 25.89,74.653 26.194,74.368 C26.574,74.007 27.087,73.817 27.6,73.741 L27.6,77.085 Z M28.987,83.07 L28.987,79.536 L29.31,79.593 C30.127,79.745 30.868,80.163 30.868,81.132 C30.868,81.759 30.64,82.139 30.336,82.443 C29.994,82.785 29.538,82.975 28.987,83.07 Z M39.684,85.426 C42.629,85.426 44.282,83.469 44.282,80.676 C44.282,78.168 42.857,76.249 40.197,76.249 C39.019,76.249 38.183,76.534 37.575,77.104 L37.727,74.083 L43.693,74.083 L43.693,71.955 L35.675,71.955 L35.39,79.403 L37.727,79.403 C38.145,78.738 38.924,78.339 39.703,78.339 C41.223,78.339 41.869,79.346 41.869,80.733 C41.869,82.158 41.299,83.317 39.703,83.317 C38.449,83.317 37.537,82.614 37.48,81.303 L35.105,81.303 C35.238,83.792 37.062,85.426 39.684,85.426 Z M50.4,85.407 C51.825,85.407 52.794,84.894 53.478,84.229 C54.846,82.918 55.055,80.714 55.055,78.548 C55.055,76.382 54.846,74.178 53.478,72.867 C52.794,72.202 51.825,71.689 50.4,71.689 C48.975,71.689 48.006,72.202 47.322,72.867 C45.954,74.178 45.745,76.382 45.745,78.548 C45.745,80.714 45.954,82.918 47.322,84.229 C48.006,84.894 48.975,85.407 50.4,85.407 Z M50.4,83.203 C47.949,83.203 48.158,80.258 48.158,78.548 C48.158,76.838 47.949,73.893 50.4,73.893 C52.7847568,73.893 52.6513543,76.680962 52.6424014,78.4067275 L52.642,78.548 C52.642,80.258 52.851,83.203 50.4,83.203 Z M63.301,85.16 L63.301,71.955 L61.268,71.955 L58.019,74.292 L58.019,76.876 L60.926,74.767 L60.926,85.16 L63.301,85.16 Z M75.651,85.293 C76.354,85.293 77.019,85.198 77.684,85.027 L77.684,83.032 C77.038,83.108 76.639,83.127 76.145,83.127 C75.385,83.127 75.043,82.804 75.043,82.044 L75.043,77.237 L77.532,77.237 L77.532,75.28 L75.043,75.28 L75.043,72.183 L72.668,72.772 L72.668,75.28 L70.863,75.28 L70.863,77.237 L72.668,77.237 L72.668,82.253 C72.668,84.153 73.656,85.293 75.651,85.293 Z M83.441,85.407 C84.942,85.407 86.215,84.704 86.899,83.868 C87.64,82.937 88.058,81.892 88.058,80.22 C88.058,78.548 87.64,77.503 86.899,76.572 C86.215,75.736 84.942,75.033 83.441,75.033 C81.94,75.033 80.667,75.736 79.983,76.572 C79.242,77.503 78.824,78.548 78.824,80.22 C78.824,81.892 79.242,82.937 79.983,83.868 C80.667,84.704 81.94,85.407 83.441,85.407 Z M83.441,83.336 C82.795,83.336 82.263,83.051 81.94,82.709 C81.37,82.082 81.237,81.151 81.237,80.22 C81.237,79.289 81.37,78.358 81.94,77.731 C82.263,77.389 82.795,77.104 83.441,77.104 C84.087,77.104 84.619,77.389 84.942,77.731 C85.512,78.358 85.645,79.289 85.645,80.22 C85.645,81.151 85.512,82.082 84.942,82.709 C84.619,83.051 84.087,83.336 83.441,83.336 Z M99.154,86.813 L99.154,85.084 C100.389,84.951 101.472,84.495 102.251,83.697 C102.878,83.051 103.334,82.234 103.334,81.037 C103.334,78.89 101.738,77.674 99.8,77.37 C99.591,77.332 99.363,77.313 99.154,77.275 L99.154,73.798 C99.591,73.912 99.99,74.102 100.256,74.387 C100.56,74.71 100.826,75.223 100.845,75.679 L103.182,75.679 C103.144,74.634 102.631,73.665 101.871,72.962 C101.168,72.316 100.218,71.917 99.154,71.784 L99.154,69.979 L97.767,69.979 L97.767,71.746 C96.494,71.86 95.43,72.373 94.689,73.114 C94.005,73.779 93.53,74.615 93.53,75.622 C93.53,77.56 94.784,78.871 96.836,79.194 C97.14,79.251 97.463,79.289 97.767,79.327 L97.767,83.089 C97.197,83.032 96.665,82.842 96.228,82.424 C95.829,82.044 95.544,81.474 95.525,80.828 L93.188,80.828 C93.207,82.025 93.777,83.07 94.537,83.754 C95.468,84.609 96.57,85.008 97.767,85.103 L97.767,86.813 L99.154,86.813 Z M97.767,77.085 C97.577,77.066 97.387,77.028 97.197,76.99 C96.399,76.857 95.848,76.439 95.848,75.565 C95.848,75.071 96.057,74.653 96.361,74.368 C96.741,74.007 97.254,73.817 97.767,73.741 L97.767,77.085 Z M99.154,83.07 L99.154,79.536 L99.477,79.593 C100.294,79.745 101.035,80.163 101.035,81.132 C101.035,81.759 100.807,82.139 100.503,82.443 C100.161,82.785 99.705,82.975 99.154,83.07 Z M111.143,85.16 L111.143,71.955 L109.11,71.955 L105.861,74.292 L105.861,76.876 L108.768,74.767 L108.768,85.16 L111.143,85.16 Z M115.171,88.39 C116.843,87.687 117.28,86.585 117.28,84.932 L117.28,82.196 L114.392,82.196 L114.392,85.16 L115.817,85.16 C115.817,86.186 115.608,86.775 114.506,87.288 L115.171,88.39 Z M124.025,85.407 C125.45,85.407 126.419,84.894 127.103,84.229 C128.471,82.918 128.68,80.714 128.68,78.548 C128.68,76.382 128.471,74.178 127.103,72.867 C126.419,72.202 125.45,71.689 124.025,71.689 C122.6,71.689 121.631,72.202 120.947,72.867 C119.579,74.178 119.37,76.382 119.37,78.548 C119.37,80.714 119.579,82.918 120.947,84.229 C121.631,84.894 122.6,85.407 124.025,85.407 Z M124.025,83.203 C121.574,83.203 121.783,80.258 121.783,78.548 C121.783,76.838 121.574,73.893 124.025,73.893 C126.409757,73.893 126.276354,76.680962 126.267401,78.4067275 L126.267,78.548 C126.267,80.258 126.476,83.203 124.025,83.203 Z M134.855,85.407 C136.28,85.407 137.249,84.894 137.933,84.229 C139.301,82.918 139.51,80.714 139.51,78.548 C139.51,76.382 139.301,74.178 137.933,72.867 C137.249,72.202 136.28,71.689 134.855,71.689 C133.43,71.689 132.461,72.202 131.777,72.867 C130.409,74.178 130.2,76.382 130.2,78.548 C130.2,80.714 130.409,82.918 131.777,84.229 C132.461,84.894 133.43,85.407 134.855,85.407 Z M134.855,83.203 C132.404,83.203 132.613,80.258 132.613,78.548 C132.613,76.838 132.404,73.893 134.855,73.893 C137.239757,73.893 137.106354,76.680962 137.097401,78.4067275 L137.097,78.548 C137.097,80.258 137.306,83.203 134.855,83.203 Z M145.685,85.407 C147.11,85.407 148.079,84.894 148.763,84.229 C150.131,82.918 150.34,80.714 150.34,78.548 C150.34,76.382 150.131,74.178 148.763,72.867 C148.079,72.202 147.11,71.689 145.685,71.689 C144.26,71.689 143.291,72.202 142.607,72.867 C141.239,74.178 141.03,76.382 141.03,78.548 C141.03,80.714 141.239,82.918 142.607,84.229 C143.291,84.894 144.26,85.407 145.685,85.407 Z M145.685,83.203 C143.234,83.203 143.443,80.258 143.443,78.548 C143.443,76.838 143.234,73.893 145.685,73.893 C148.069757,73.893 147.936354,76.680962 147.927401,78.4067275 L147.927,78.548 C147.927,80.258 148.136,83.203 145.685,83.203 Z" id="path-37"></path>
        <path d="M50.937,15.653 L50.937,13.924 C52.172,13.791 53.255,13.335 54.034,12.537 C54.661,11.891 55.117,11.074 55.117,9.877 C55.117,7.73 53.521,6.514 51.583,6.21 C51.374,6.172 51.146,6.153 50.937,6.115 L50.937,2.638 C51.374,2.752 51.773,2.942 52.039,3.227 C52.343,3.55 52.609,4.063 52.628,4.519 L54.965,4.519 C54.927,3.474 54.414,2.505 53.654,1.802 C52.951,1.156 52.001,0.757 50.937,0.624 L50.937,-1.181 L49.55,-1.181 L49.55,0.586 C48.277,0.7 47.213,1.213 46.472,1.954 C45.788,2.619 45.313,3.455 45.313,4.462 C45.313,6.4 46.567,7.711 48.619,8.034 C48.923,8.091 49.246,8.129 49.55,8.167 L49.55,11.929 C48.98,11.872 48.448,11.682 48.011,11.264 C47.612,10.884 47.327,10.314 47.308,9.668 L44.971,9.668 C44.99,10.865 45.56,11.91 46.32,12.594 C47.251,13.449 48.353,13.848 49.55,13.943 L49.55,15.653 L50.937,15.653 Z M49.55,5.925 C49.36,5.906 49.17,5.868 48.98,5.83 C48.182,5.697 47.631,5.279 47.631,4.405 C47.631,3.911 47.84,3.493 48.144,3.208 C48.524,2.847 49.037,2.657 49.55,2.581 L49.55,5.925 Z M50.937,11.91 L50.937,8.376 L51.26,8.433 C52.077,8.585 52.818,9.003 52.818,9.972 C52.818,10.599 52.59,10.979 52.286,11.283 C51.944,11.625 51.488,11.815 50.937,11.91 Z M61.634,14.266 C64.579,14.266 66.232,12.309 66.232,9.516 C66.232,7.008 64.807,5.089 62.147,5.089 C60.969,5.089 60.133,5.374 59.525,5.944 L59.677,2.923 L65.643,2.923 L65.643,0.795 L57.625,0.795 L57.34,8.243 L59.677,8.243 C60.095,7.578 60.874,7.179 61.653,7.179 C63.173,7.179 63.819,8.186 63.819,9.573 C63.819,10.998 63.249,12.157 61.653,12.157 C60.399,12.157 59.487,11.454 59.43,10.143 L57.055,10.143 C57.188,12.632 59.012,14.266 61.634,14.266 Z M72.35,14.247 C73.775,14.247 74.744,13.734 75.428,13.069 C76.796,11.758 77.005,9.554 77.005,7.388 C77.005,5.222 76.796,3.018 75.428,1.707 C74.744,1.042 73.775,0.529 72.35,0.529 C70.925,0.529 69.956,1.042 69.272,1.707 C67.904,3.018 67.695,5.222 67.695,7.388 C67.695,9.554 67.904,11.758 69.272,13.069 C69.956,13.734 70.925,14.247 72.35,14.247 Z M72.35,12.043 C69.899,12.043 70.108,9.098 70.108,7.388 C70.108,5.678 69.899,2.733 72.35,2.733 C74.7347568,2.733 74.6013543,5.52096202 74.5924014,7.24672752 L74.592,7.388 C74.592,9.098 74.801,12.043 72.35,12.043 Z M83.18,14.247 C84.605,14.247 85.574,13.734 86.258,13.069 C87.626,11.758 87.835,9.554 87.835,7.388 C87.835,5.222 87.626,3.018 86.258,1.707 C85.574,1.042 84.605,0.529 83.18,0.529 C81.755,0.529 80.786,1.042 80.102,1.707 C78.734,3.018 78.525,5.222 78.525,7.388 C78.525,9.554 78.734,11.758 80.102,13.069 C80.786,13.734 81.755,14.247 83.18,14.247 Z M83.18,12.043 C80.729,12.043 80.938,9.098 80.938,7.388 C80.938,5.678 80.729,2.733 83.18,2.733 C85.5647568,2.733 85.4313543,5.52096202 85.4224014,7.24672752 L85.422,7.388 C85.422,9.098 85.631,12.043 83.18,12.043 Z M97.981,14.247 C99.482,14.247 100.755,13.544 101.439,12.708 C102.18,11.777 102.598,10.732 102.598,9.06 C102.598,7.388 102.18,6.343 101.439,5.412 C100.755,4.576 99.482,3.873 97.981,3.873 C96.48,3.873 95.207,4.576 94.523,5.412 C93.782,6.343 93.364,7.388 93.364,9.06 C93.364,10.732 93.782,11.777 94.523,12.708 C95.207,13.544 96.48,14.247 97.981,14.247 Z M97.981,12.176 C97.335,12.176 96.803,11.891 96.48,11.549 C95.91,10.922 95.777,9.991 95.777,9.06 C95.777,8.129 95.91,7.198 96.48,6.571 C96.803,6.229 97.335,5.944 97.981,5.944 C98.627,5.944 99.159,6.229 99.482,6.571 C100.052,7.198 100.185,8.129 100.185,9.06 C100.185,9.991 100.052,10.922 99.482,11.549 C99.159,11.891 98.627,12.176 97.981,12.176 Z M107.272,14 L107.272,9.022 C107.272,7.426 108.146,6.229 109.818,6.229 C110.084,6.229 110.369,6.267 110.635,6.324 L110.635,4.044 C110.388,4.006 110.141,3.987 109.894,3.987 C108.735,3.987 107.557,4.462 107.101,5.602 L106.892,4.12 L104.878,4.12 L104.878,14 L107.272,14 Z M118.995,14.114 C119.47,14.114 119.565,14.076 120.04,13.981 L120.04,11.986 C119.907,11.986 119.85,12.005 119.641,12.005 C118.824,12.005 118.691,11.625 118.691,11.055 L118.691,0.263 L116.297,0.263 L116.297,11.454 C116.297,13.335 117.38,14.114 118.995,14.114 Z M125.949,14.247 C127.203,14.247 128.438,13.848 129.274,12.86 C129.654,12.404 130.053,11.625 130.11,11.036 L127.83,11.036 C127.735,11.397 127.564,11.663 127.355,11.872 C127.013,12.214 126.595,12.347 125.911,12.347 C125.265,12.347 124.79,12.062 124.448,11.739 C123.973,11.283 123.707,10.561 123.726,9.801 L130.338,9.801 C130.338,9.592 130.357,9.136 130.357,9.136 C130.395,7.901 130.224,6.78 129.502,5.697 C128.685,4.462 127.355,3.873 125.892,3.873 C124.543,3.873 123.479,4.367 122.738,5.127 C121.788,6.096 121.313,7.502 121.313,9.079 C121.313,10.694 121.845,12.081 122.833,13.031 C123.612,13.772 124.6,14.247 125.949,14.247 Z M127.982,8.072 L123.707,8.072 C123.726,7.426 123.878,6.97 124.22,6.533 C124.562,6.077 125.151,5.773 125.873,5.773 C126.557,5.773 127.051,6.001 127.374,6.343 C127.754,6.761 127.963,7.331 127.982,8.072 Z M136.019,14.247 C137.368,14.247 138.603,13.905 139.401,13.107 C139.914,12.594 140.256,11.891 140.256,10.941 C140.256,9.383 139.116,8.395 137.558,8.148 C136.589,7.996 136.342,7.977 135.449,7.863 C134.917,7.787 134.309,7.578 134.309,6.875 C134.309,6.362 134.651,6.001 135.069,5.83 C135.43,5.678 135.753,5.678 136.095,5.678 C136.589,5.678 137.102,5.849 137.387,6.134 C137.615,6.381 137.786,6.685 137.786,7.065 L140.047,7.065 C140.047,6.343 139.705,5.602 139.173,5.032 C138.451,4.253 137.254,3.873 136.076,3.873 C134.841,3.873 133.796,4.234 133.074,4.861 C132.485,5.374 132.067,6.077 132.067,7.084 C132.067,8.338 132.979,9.44 134.328,9.725 C135.202,9.915 136.19,9.972 137.064,10.105 C137.672,10.2 138.052,10.58 138.052,11.15 C138.052,12.233 136.836,12.404 136.038,12.404 C135.354,12.404 134.917,12.271 134.537,11.967 C134.233,11.72 134.005,11.245 134.005,10.808 L131.782,10.808 C131.782,11.739 132.257,12.556 132.827,13.107 C133.644,13.886 134.765,14.247 136.019,14.247 Z M145.918,14.247 C147.267,14.247 148.502,13.905 149.3,13.107 C149.813,12.594 150.155,11.891 150.155,10.941 C150.155,9.383 149.015,8.395 147.457,8.148 C146.488,7.996 146.241,7.977 145.348,7.863 C144.816,7.787 144.208,7.578 144.208,6.875 C144.208,6.362 144.55,6.001 144.968,5.83 C145.329,5.678 145.652,5.678 145.994,5.678 C146.488,5.678 147.001,5.849 147.286,6.134 C147.514,6.381 147.685,6.685 147.685,7.065 L149.946,7.065 C149.946,6.343 149.604,5.602 149.072,5.032 C148.35,4.253 147.153,3.873 145.975,3.873 C144.74,3.873 143.695,4.234 142.973,4.861 C142.384,5.374 141.966,6.077 141.966,7.084 C141.966,8.338 142.878,9.44 144.227,9.725 C145.101,9.915 146.089,9.972 146.963,10.105 C147.571,10.2 147.951,10.58 147.951,11.15 C147.951,12.233 146.735,12.404 145.937,12.404 C145.253,12.404 144.816,12.271 144.436,11.967 C144.132,11.72 143.904,11.245 143.904,10.808 L141.681,10.808 C141.681,11.739 142.156,12.556 142.726,13.107 C143.543,13.886 144.664,14.247 145.918,14.247 Z" id="path-38"></path>
    </defs>
    <g id="Page-1" stroke="none" stroke-width="1" fill="none" fill-rule="evenodd">
        <g id="fig1_0827">
            <rect id="Rectangle" fill="#FFFFFF" x="0" y="0" width="1128" height="586"></rect>
            <line x1="208.66" y1="490.25" x2="498.63" y2="490.25" id="Path" stroke="#E0E0E0" stroke-width="1.07" stroke-linejoin="round"></line>
            <line x1="208.66" y1="420.1" x2="498.63" y2="420.1" id="Path" stroke="#E0E0E0" stroke-width="1.07" stroke-linejoin="round"></line>
            <line x1="208.66" y1="349.95" x2="498.63" y2="349.95" id="Path" stroke="#E0E0E0" stroke-width="1.07" stroke-linejoin="round"></line>
            <line x1="208.66" y1="279.79" x2="498.63" y2="279.79" id="Path" stroke="#E0E0E0" stroke-width="1.07" stroke-linejoin="round"></line>
            <line x1="208.66" y1="209.64" x2="498.63" y2="209.64" id="Path" stroke="#E0E0E0" stroke-width="1.07" stroke-linejoin="round"></line>
            <line x1="208.66" y1="139.49" x2="498.63" y2="139.49" id="Path" stroke="#E0E0E0" stroke-width="1.07" stroke-linejoin="round"></line>
            <rect id="Rectangle" fill="url(#linearGradient-1)" fill-rule="nonzero" x="221.84" y="395.55" width="138.8" height="49.11"></rect>
            <rect id="Rectangle" fill="url(#linearGradient-2)" fill-rule="nonzero" x="221.84" y="465.7" width="222.75" height="49.11"></rect>
            <rect id="Rectangle" fill="url(#linearGradient-3)" fill-rule="nonzero" x="221.84" y="325.39" width="193.65" height="49.11"></rect>
            <rect id="Rectangle" fill="url(#linearGradient-4)" fill-rule="nonzero" x="221.84" y="255.24" width="144.96" height="49.11"></rect>
            <rect id="Rectangle" fill="url(#linearGradient-5)" fill-rule="nonzero" x="221.84" y="185.09" width="263.61" height="49.11"></rect>
            <rect id="Rectangle" fill="url(#linearGradient-6)" fill-rule="nonzero" x="221.84" y="114.93" width="67.16" height="49.11"></rect>
            <line x1="504.11" y1="490.25" x2="794.07" y2="490.25" id="Path" stroke="#E0E0E0" stroke-width="1.07" stroke-linejoin="round"></line>
            <line x1="504.11" y1="420.1" x2="794.07" y2="420.1" id="Path" stroke="#E0E0E0" stroke-width="1.07" stroke-linejoin="round"></line>
            <line x1="504.11" y1="349.95" x2="794.07" y2="349.95" id="Path" stroke="#E0E0E0" stroke-width="1.07" stroke-linejoin="round"></line>
            <line x1="504.11" y1="279.79" x2="794.07" y2="279.79" id="Path" stroke="#E0E0E0" stroke-width="1.07" stroke-linejoin="round"></line>
            <line x1="504.11" y1="209.64" x2="794.07" y2="209.64" id="Path" stroke="#E0E0E0" stroke-width="1.07" stroke-linejoin="round"></line>
            <line x1="504.11" y1="139.49" x2="794.07" y2="139.49" id="Path" stroke="#E0E0E0" stroke-width="1.07" stroke-linejoin="round"></line>
            <rect id="Rectangle" fill="url(#linearGradient-7)" fill-rule="nonzero" x="517.29" y="465.7" width="146.62" height="49.11"></rect>
            <rect id="Rectangle" fill="url(#linearGradient-5)" fill-rule="nonzero" x="517.29" y="325.39" width="263.61" height="49.11"></rect>
            <rect id="Rectangle" fill="url(#linearGradient-8)" fill-rule="nonzero" x="517.29" y="395.55" width="171.15" height="49.11"></rect>
            <rect id="Rectangle" fill="url(#linearGradient-9)" fill-rule="nonzero" x="517.29" y="255.24" width="178.53" height="49.11"></rect>
            <rect id="Rectangle" fill="url(#linearGradient-10)" fill-rule="nonzero" x="517.29" y="185.09" width="225.04" height="49.11"></rect>
            <rect id="Rectangle" fill="url(#linearGradient-11)" fill-rule="nonzero" x="517.29" y="114.93" width="86.78" height="49.11"></rect>
            <line x1="799.55" y1="490.25" x2="1089.52" y2="490.25" id="Path" stroke="#E0E0E0" stroke-width="1.07" stroke-linejoin="round"></line>
            <line x1="799.55" y1="420.1" x2="1089.52" y2="420.1" id="Path" stroke="#E0E0E0" stroke-width="1.07" stroke-linejoin="round"></line>
            <line x1="799.55" y1="349.95" x2="1089.52" y2="349.95" id="Path" stroke="#E0E0E0" stroke-width="1.07" stroke-linejoin="round"></line>
            <line x1="799.55" y1="279.79" x2="1089.52" y2="279.79" id="Path" stroke="#E0E0E0" stroke-width="1.07" stroke-linejoin="round"></line>
            <line x1="799.55" y1="209.64" x2="1089.52" y2="209.64" id="Path" stroke="#E0E0E0" stroke-width="1.07" stroke-linejoin="round"></line>
            <line x1="799.55" y1="139.49" x2="1089.52" y2="139.49" id="Path" stroke="#E0E0E0" stroke-width="1.07" stroke-linejoin="round"></line>
            <rect id="Rectangle" fill="url(#linearGradient-12)" fill-rule="nonzero" x="812.73" y="395.55" width="177.24" height="49.11"></rect>
            <rect id="Rectangle" fill="url(#linearGradient-5)" fill-rule="nonzero" x="812.73" y="325.39" width="263.61" height="49.11"></rect>
            <rect id="Rectangle" fill="url(#linearGradient-13)" fill-rule="nonzero" x="812.73" y="255.24" width="135.85" height="49.11"></rect>
            <rect id="Rectangle" fill="url(#linearGradient-14)" fill-rule="nonzero" x="812.73" y="185.09" width="71.07" height="49.11"></rect>
            <rect id="Rectangle" fill="url(#linearGradient-15)" fill-rule="nonzero" x="812.73" y="114.93" width="143.5" height="49.11"></rect>
            <g id="headers" transform="translate(224.190000, 52.350000)" fill="#7D7D7D" fill-rule="nonzero">
                <path d="M10.125,23.375 C12.4583333,23.375 14.55,22.725 16.4,21.425 L16.4,21.425 L14.3,18.025 C12.95,18.925 11.5583333,19.375 10.125,19.375 C9.10833333,19.375 8.19583333,19.1666667 7.3875,18.75 C6.57916667,18.3333333 5.94583333,17.7375 5.4875,16.9625 C5.02916667,16.1875 4.8,15.2833333 4.8,14.25 C4.8,13.2166667 5.02916667,12.3125 5.4875,11.5375 C5.94583333,10.7625 6.57916667,10.1666667 7.3875,9.75 C8.19583333,9.33333333 9.10833333,9.125 10.125,9.125 C11.5583333,9.125 12.95,9.575 14.3,10.475 L14.3,10.475 L16.4,7.075 C14.55,5.775 12.4583333,5.125 10.125,5.125 C8.29166667,5.125 6.64583333,5.5 5.1875,6.25 C3.72916667,7 2.5875,8.06666667 1.7625,9.45 C0.9375,10.8333333 0.525,12.4333333 0.525,14.25 C0.525,16.0666667 0.9375,17.6666667 1.7625,19.05 C2.5875,20.4333333 3.72916667,21.5 5.1875,22.25 C6.64583333,23 8.29166667,23.375 10.125,23.375 Z M22.075,23 L22.075,5.5 L18.2,5.5 L18.2,23 L22.075,23 Z M29,23 L29,12.225 L29.025,12.225 L37.375,23 L40.675,23 L40.675,5.5 L36.8,5.5 L36.8,16.325 L36.775,16.325 L28.4,5.5 L25.125,5.5 L25.125,23 L29,23 Z M52.325,23.375 C54.6583333,23.375 56.75,22.725 58.6,21.425 L58.6,21.425 L56.5,18.025 C55.15,18.925 53.7583333,19.375 52.325,19.375 C51.3083333,19.375 50.3958333,19.1666667 49.5875,18.75 C48.7791667,18.3333333 48.1458333,17.7375 47.6875,16.9625 C47.2291667,16.1875 47,15.2833333 47,14.25 C47,13.2166667 47.2291667,12.3125 47.6875,11.5375 C48.1458333,10.7625 48.7791667,10.1666667 49.5875,9.75 C50.3958333,9.33333333 51.3083333,9.125 52.325,9.125 C53.7583333,9.125 55.15,9.575 56.5,10.475 L56.5,10.475 L58.6,7.075 C56.75,5.775 54.6583333,5.125 52.325,5.125 C50.4916667,5.125 48.8458333,5.5 47.3875,6.25 C45.9291667,7 44.7875,8.06666667 43.9625,9.45 C43.1375,10.8333333 42.725,12.4333333 42.725,14.25 C42.725,16.0666667 43.1375,17.6666667 43.9625,19.05 C44.7875,20.4333333 45.9291667,21.5 47.3875,22.25 C48.8458333,23 50.4916667,23.375 52.325,23.375 Z M64.275,23 L64.275,5.5 L60.4,5.5 L60.4,23 L64.275,23 Z M71.2,23 L71.2,12.225 L71.225,12.225 L79.575,23 L82.875,23 L82.875,5.5 L79,5.5 L79,16.325 L78.975,16.325 L70.6,5.5 L67.325,5.5 L67.325,23 L71.2,23 Z M89.8,23 L89.8,12.225 L89.825,12.225 L98.175,23 L101.475,23 L101.475,5.5 L97.6,5.5 L97.6,16.325 L97.575,16.325 L89.2,5.5 L85.925,5.5 L85.925,23 L89.8,23 Z M107.125,23 L108.375,19.45 L115.1,19.45 L116.35,23 L120.675,23 L113.775,5.5 L109.675,5.5 L102.775,23 L107.125,23 Z M113.9,16 L109.575,16 L111.725,9.8 L113.9,16 Z M127.25,23 L127.25,9.125 L131.85,9.125 L131.85,5.5 L118.75,5.5 L118.75,9.125 L123.375,9.125 L123.375,23 L127.25,23 Z M137.375,23 L137.375,5.5 L133.5,5.5 L133.5,23 L137.375,23 Z M141.65,27.1 L143.925,23 L143.925,18.975 L139.925,18.975 L139.925,23 L141.475,23 L140.05,27.1 L141.65,27.1 Z M161.3,23.375 C163.033333,23.375 164.6,22.9916667 166,22.225 C167.4,21.4583333 168.504167,20.3833333 169.3125,19 C170.120833,17.6166667 170.525,16.0333333 170.525,14.25 C170.525,12.4666667 170.120833,10.8833333 169.3125,9.5 C168.504167,8.11666667 167.4,7.04166667 166,6.275 C164.6,5.50833333 163.033333,5.125 161.3,5.125 C159.566667,5.125 158,5.50833333 156.6,6.275 C155.2,7.04166667 154.095833,8.11666667 153.2875,9.5 C152.479167,10.8833333 152.075,12.4666667 152.075,14.25 C152.075,16.0333333 152.479167,17.6166667 153.2875,19 C154.095833,20.3833333 155.2,21.4583333 156.6,22.225 C158,22.9916667 159.566667,23.375 161.3,23.375 Z M161.3,19.375 C160.366667,19.375 159.525,19.1666667 158.775,18.75 C158.025,18.3333333 157.433333,17.7375 157,16.9625 C156.566667,16.1875 156.35,15.2833333 156.35,14.25 C156.35,13.2166667 156.566667,12.3125 157,11.5375 C157.433333,10.7625 158.025,10.1666667 158.775,9.75 C159.525,9.33333333 160.366667,9.125 161.3,9.125 C162.233333,9.125 163.075,9.33333333 163.825,9.75 C164.575,10.1666667 165.166667,10.7625 165.6,11.5375 C166.033333,12.3125 166.25,13.2166667 166.25,14.25 C166.25,15.2833333 166.033333,16.1875 165.6,16.9625 C165.166667,17.7375 164.575,18.3333333 163.825,18.75 C163.075,19.1666667 162.233333,19.375 161.3,19.375 Z M176.45,23 L176.45,15.65 L183.725,15.65 L183.725,23 L187.6,23 L187.6,5.5 L183.725,5.5 L183.725,12 L176.45,12 L176.45,5.5 L172.575,5.5 L172.575,23 L176.45,23 Z" id="CINCINNATI,OH"></path>
                <path d="M297.29,23 L297.29,15.65 L304.565,15.65 L304.565,23 L308.44,23 L308.44,5.5 L304.565,5.5 L304.565,12 L297.29,12 L297.29,5.5 L293.415,5.5 L293.415,23 L297.29,23 Z M319.715,23.375 C321.448333,23.375 323.015,22.9916667 324.415,22.225 C325.815,21.4583333 326.919167,20.3833333 327.7275,19 C328.535833,17.6166667 328.94,16.0333333 328.94,14.25 C328.94,12.4666667 328.535833,10.8833333 327.7275,9.5 C326.919167,8.11666667 325.815,7.04166667 324.415,6.275 C323.015,5.50833333 321.448333,5.125 319.715,5.125 C317.981667,5.125 316.415,5.50833333 315.015,6.275 C313.615,7.04166667 312.510833,8.11666667 311.7025,9.5 C310.894167,10.8833333 310.49,12.4666667 310.49,14.25 C310.49,16.0333333 310.894167,17.6166667 311.7025,19 C312.510833,20.3833333 313.615,21.4583333 315.015,22.225 C316.415,22.9916667 317.981667,23.375 319.715,23.375 Z M319.715,19.375 C318.781667,19.375 317.94,19.1666667 317.19,18.75 C316.44,18.3333333 315.848333,17.7375 315.415,16.9625 C314.981667,16.1875 314.765,15.2833333 314.765,14.25 C314.765,13.2166667 314.981667,12.3125 315.415,11.5375 C315.848333,10.7625 316.44,10.1666667 317.19,9.75 C317.94,9.33333333 318.781667,9.125 319.715,9.125 C320.648333,9.125 321.49,9.33333333 322.24,9.75 C322.99,10.1666667 323.581667,10.7625 324.015,11.5375 C324.448333,12.3125 324.665,13.2166667 324.665,14.25 C324.665,15.2833333 324.448333,16.1875 324.015,16.9625 C323.581667,17.7375 322.99,18.3333333 322.24,18.75 C321.49,19.1666667 320.648333,19.375 319.715,19.375 Z M338.24,23.325 C340.656667,23.325 342.498333,22.6708333 343.765,21.3625 C345.031667,20.0541667 345.665,18.2416667 345.665,15.925 L345.665,15.925 L345.665,5.5 L341.565,5.5 L341.565,15.575 C341.565,16.7083333 341.2775,17.6166667 340.7025,18.3 C340.1275,18.9833333 339.306667,19.325 338.24,19.325 C337.173333,19.325 336.3525,18.9833333 335.7775,18.3 C335.2025,17.6166667 334.915,16.7083333 334.915,15.575 L334.915,15.575 L334.915,5.5 L330.79,5.5 L330.79,15.925 C330.79,18.2416667 331.423333,20.0541667 332.69,21.3625 C333.956667,22.6708333 335.806667,23.325 338.24,23.325 Z M353.065,23.375 C355.115,23.375 356.69,22.9291667 357.79,22.0375 C358.89,21.1458333 359.44,19.8583333 359.44,18.175 C359.44,17.0083333 359.165,16.0333333 358.615,15.25 C358.065,14.4666667 357.231667,13.7333333 356.115,13.05 L356.115,13.05 L353.215,11.225 C352.715,10.925 352.369167,10.6708333 352.1775,10.4625 C351.985833,10.2541667 351.89,10.0166667 351.89,9.75 C351.89,9.06666667 352.423333,8.725 353.49,8.725 C354.056667,8.725 354.6525,8.8125 355.2775,8.9875 C355.9025,9.1625 356.623333,9.44166667 357.44,9.825 L357.44,9.825 L359.065,6.4 C357.098333,5.55 355.206667,5.125 353.39,5.125 C351.573333,5.125 350.19,5.54166667 349.24,6.375 C348.29,7.20833333 347.815,8.35 347.815,9.8 C347.815,11.85 348.89,13.5166667 351.04,14.8 L351.04,14.8 L353.715,16.475 C354.281667,16.825 354.698333,17.1333333 354.965,17.4 C355.231667,17.6666667 355.365,17.9833333 355.365,18.35 C355.365,18.8166667 355.181667,19.1666667 354.815,19.4 C354.448333,19.6333333 353.915,19.75 353.215,19.75 C351.681667,19.75 350.04,19.2166667 348.29,18.15 L348.29,18.15 L346.54,21.625 C348.54,22.7916667 350.715,23.375 353.065,23.375 Z M368.115,23 L368.115,9.125 L372.715,9.125 L372.715,5.5 L359.615,5.5 L359.615,9.125 L364.24,9.125 L364.24,23 L368.115,23 Z M381.665,23.375 C383.398333,23.375 384.965,22.9916667 386.365,22.225 C387.765,21.4583333 388.869167,20.3833333 389.6775,19 C390.485833,17.6166667 390.89,16.0333333 390.89,14.25 C390.89,12.4666667 390.485833,10.8833333 389.6775,9.5 C388.869167,8.11666667 387.765,7.04166667 386.365,6.275 C384.965,5.50833333 383.398333,5.125 381.665,5.125 C379.931667,5.125 378.365,5.50833333 376.965,6.275 C375.565,7.04166667 374.460833,8.11666667 373.6525,9.5 C372.844167,10.8833333 372.44,12.4666667 372.44,14.25 C372.44,16.0333333 372.844167,17.6166667 373.6525,19 C374.460833,20.3833333 375.565,21.4583333 376.965,22.225 C378.365,22.9916667 379.931667,23.375 381.665,23.375 Z M381.665,19.375 C380.731667,19.375 379.89,19.1666667 379.14,18.75 C378.39,18.3333333 377.798333,17.7375 377.365,16.9625 C376.931667,16.1875 376.715,15.2833333 376.715,14.25 C376.715,13.2166667 376.931667,12.3125 377.365,11.5375 C377.798333,10.7625 378.39,10.1666667 379.14,9.75 C379.89,9.33333333 380.731667,9.125 381.665,9.125 C382.598333,9.125 383.44,9.33333333 384.19,9.75 C384.94,10.1666667 385.531667,10.7625 385.965,11.5375 C386.398333,12.3125 386.615,13.2166667 386.615,14.25 C386.615,15.2833333 386.398333,16.1875 385.965,16.9625 C385.531667,17.7375 384.94,18.3333333 384.19,18.75 C383.44,19.1666667 382.598333,19.375 381.665,19.375 Z M396.815,23 L396.815,12.225 L396.84,12.225 L405.19,23 L408.49,23 L408.49,5.5 L404.615,5.5 L404.615,16.325 L404.59,16.325 L396.215,5.5 L392.94,5.5 L392.94,23 L396.815,23 Z M412.765,27.1 L415.04,23 L415.04,18.975 L411.04,18.975 L411.04,23 L412.59,23 L411.165,27.1 L412.765,27.1 Z M430.54,23 L430.54,9.125 L435.14,9.125 L435.14,5.5 L422.04,5.5 L422.04,9.125 L426.665,9.125 L426.665,23 L430.54,23 Z M440.19,23 L444.24,16.9 L448.29,23 L453.24,23 L446.715,13.775 L452.64,5.5 L447.715,5.5 L444.24,10.675 L440.765,5.5 L435.84,5.5 L441.765,13.775 L435.24,23 L440.19,23 Z" id="HOUSTON,TX"></path>
                <path d="M592.08,22 L592.08,16 L594.455,16 C596.588333,16 598.196667,15.4625 599.28,14.3875 C600.363333,13.3125 600.905,11.8833333 600.905,10.1 C600.905,8.43333333 600.359167,7.08333333 599.2675,6.05 C598.175833,5.01666667 596.571667,4.5 594.455,4.5 L594.455,4.5 L588.205,4.5 L588.205,22 L592.08,22 Z M594.13,12.5 L592.08,12.5 L592.08,8.025 L594.13,8.025 C594.963333,8.025 595.613333,8.2 596.08,8.55 C596.546667,8.9 596.78,9.44166667 596.78,10.175 C596.78,10.925 596.5425,11.5 596.0675,11.9 C595.5925,12.3 594.946667,12.5 594.13,12.5 L594.13,12.5 Z M606.455,22 L606.455,14.65 L613.73,14.65 L613.73,22 L617.605,22 L617.605,4.5 L613.73,4.5 L613.73,11 L606.455,11 L606.455,4.5 L602.58,4.5 L602.58,22 L606.455,22 Z M628.88,22.375 C630.613333,22.375 632.18,21.9916667 633.58,21.225 C634.98,20.4583333 636.084167,19.3833333 636.8925,18 C637.700833,16.6166667 638.105,15.0333333 638.105,13.25 C638.105,11.4666667 637.700833,9.88333333 636.8925,8.5 C636.084167,7.11666667 634.98,6.04166667 633.58,5.275 C632.18,4.50833333 630.613333,4.125 628.88,4.125 C627.146667,4.125 625.58,4.50833333 624.18,5.275 C622.78,6.04166667 621.675833,7.11666667 620.8675,8.5 C620.059167,9.88333333 619.655,11.4666667 619.655,13.25 C619.655,15.0333333 620.059167,16.6166667 620.8675,18 C621.675833,19.3833333 622.78,20.4583333 624.18,21.225 C625.58,21.9916667 627.146667,22.375 628.88,22.375 Z M628.88,18.375 C627.946667,18.375 627.105,18.1666667 626.355,17.75 C625.605,17.3333333 625.013333,16.7375 624.58,15.9625 C624.146667,15.1875 623.93,14.2833333 623.93,13.25 C623.93,12.2166667 624.146667,11.3125 624.58,10.5375 C625.013333,9.7625 625.605,9.16666667 626.355,8.75 C627.105,8.33333333 627.946667,8.125 628.88,8.125 C629.813333,8.125 630.655,8.33333333 631.405,8.75 C632.155,9.16666667 632.746667,9.7625 633.18,10.5375 C633.613333,11.3125 633.83,12.2166667 633.83,13.25 C633.83,14.2833333 633.613333,15.1875 633.18,15.9625 C632.746667,16.7375 632.155,17.3333333 631.405,17.75 C630.655,18.1666667 629.813333,18.375 628.88,18.375 Z M651.105,22 L651.105,18.375 L644.03,18.375 L644.03,14.4 L650.28,14.4 L650.28,10.875 L644.03,10.875 L644.03,8.125 L650.98,8.125 L650.98,4.5 L640.155,4.5 L640.155,22 L651.105,22 Z M657.28,22 L657.28,11.225 L657.305,11.225 L665.655,22 L668.955,22 L668.955,4.5 L665.08,4.5 L665.08,15.325 L665.055,15.325 L656.68,4.5 L653.405,4.5 L653.405,22 L657.28,22 Z M675.88,22 L675.88,4.5 L672.005,4.5 L672.005,22 L675.88,22 Z M681.905,22 L685.955,15.9 L690.005,22 L694.955,22 L688.43,12.775 L694.355,4.5 L689.43,4.5 L685.955,9.675 L682.48,4.5 L677.555,4.5 L683.48,12.775 L676.955,22 L681.905,22 Z M697.73,26.1 L700.005,22 L700.005,17.975 L696.005,17.975 L696.005,22 L697.555,22 L696.13,26.1 L697.73,26.1 Z M711.255,22 L712.505,18.45 L719.23,18.45 L720.48,22 L724.805,22 L717.905,4.5 L713.805,4.5 L706.905,22 L711.255,22 Z M718.03,15 L713.705,15 L715.855,8.8 L718.03,15 Z M738.73,22 L738.73,18.375 L730.33,18.375 L738.48,8.125 L738.48,4.5 L726.18,4.5 L726.18,8.125 L733.755,8.125 L725.53,18.375 L725.53,22 L738.73,22 Z" id="PHOENIX,AZ"></path>
            </g>
            <g id="amounts" transform="translate(245.970000, 130.810000)" fill-rule="nonzero">
                <g id="398">
                    <use fill="#000000" xlink:href="#path-16"></use>
                    <use fill="#FFFFFF" xlink:href="#path-16"></use>
                </g>
                <g id="248">
                    <use fill="#000000" xlink:href="#path-17"></use>
                    <use fill="#FFFFFF" xlink:href="#path-17"></use>
                </g>
                <g id="346">
                    <use fill="#000000" xlink:href="#path-18"></use>
                    <use fill="#FFFFFF" xlink:href="#path-18"></use>
                </g>
                <g id="259">
                    <use fill="#000000" xlink:href="#path-19"></use>
                    <use fill="#FFFFFF" xlink:href="#path-19"></use>
                </g>
                <g id="471">
                    <use fill="#000000" xlink:href="#path-20"></use>
                    <use fill="#FFFFFF" xlink:href="#path-20"></use>
                </g>
                <g id="120">
                    <use fill="#000000" xlink:href="#path-21"></use>
                    <use fill="#FFFFFF" xlink:href="#path-21"></use>
                </g>
                <g id="1034">
                    <use fill="#000000" xlink:href="#path-22"></use>
                    <use fill="#FFFFFF" xlink:href="#path-22"></use>
                </g>
                <g id="1207">
                    <use fill="#000000" xlink:href="#path-23"></use>
                    <use fill="#FFFFFF" xlink:href="#path-23"></use>
                </g>
                <g id="1859">
                    <use fill="#000000" xlink:href="#path-24"></use>
                    <use fill="#FFFFFF" xlink:href="#path-24"></use>
                </g>
                <g id="1259">
                    <use fill="#000000" xlink:href="#path-25"></use>
                    <use fill="#FFFFFF" xlink:href="#path-25"></use>
                </g>
                <g id="1587">
                    <use fill="#000000" xlink:href="#path-26"></use>
                    <use fill="#FFFFFF" xlink:href="#path-26"></use>
                </g>
                <g id="612">
                    <use fill="#000000" xlink:href="#path-27"></use>
                    <use fill="#FFFFFF" xlink:href="#path-27"></use>
                </g>
                <g id="394">
                    <use fill="#000000" xlink:href="#path-28"></use>
                    <use fill="#FFFFFF" xlink:href="#path-28"></use>
                </g>
                <g id="586">
                    <use fill="#000000" xlink:href="#path-29"></use>
                    <use fill="#FFFFFF" xlink:href="#path-29"></use>
                </g>
                <g id="302">
                    <use fill="#000000" xlink:href="#path-30"></use>
                    <use fill="#FFFFFF" xlink:href="#path-30"></use>
                </g>
                <g id="158">
                    <use fill="#000000" xlink:href="#path-31"></use>
                    <use fill="#FFFFFF" xlink:href="#path-31"></use>
                </g>
                <g id="319">
                    <use fill="#000000" xlink:href="#path-32"></use>
                    <use fill="#FFFFFF" xlink:href="#path-32"></use>
                </g>
            </g>
            <g id="amount-ranges" transform="translate(48.910000, 130.220000)" fill-rule="nonzero">
                <g id="Missing">
                    <use fill="#505050" xlink:href="#path-33"></use>
                    <use fill="#4D4D4D" xlink:href="#path-33"></use>
                </g>
                <g id="Morethan$3,000">
                    <use fill="#000000" xlink:href="#path-34"></use>
                    <use fill="#4D4D4D" xlink:href="#path-34"></use>
                </g>
                <g id="$1,501to$3,000">
                    <use fill="#000000" xlink:href="#path-35"></use>
                    <use fill="#4D4D4D" xlink:href="#path-35"></use>
                </g>
                <g id="$1,001to$1,500">
                    <use fill="#000000" xlink:href="#path-36"></use>
                    <use fill="#4D4D4D" xlink:href="#path-36"></use>
                </g>
                <g id="$501to$1,000">
                    <use fill="#000000" xlink:href="#path-37"></use>
                    <use fill="#4D4D4D" xlink:href="#path-37"></use>
                </g>
                <g id="$500orless">
                    <use fill="#000000" xlink:href="#path-38"></use>
                    <use fill="#4D4D4D" xlink:href="#path-38"></use>
                </g>
            </g>
        </g>
    </g>
</svg>