<?xml version="1.0" encoding="UTF-8"?>
<svg width="1200px" height="" viewBox="0 0 738 561" version="1.1" xmlns="http://www.w3.org/2000/svg" xmlns:xlink="http://www.w3.org/1999/xlink">
    <!-- Generator: Sketch 61.2 (89653) - https://sketch.com -->
    <title>Group 6</title>
    <desc>Created with Sketch.</desc>
    <defs>
        <path d="M25.836,414.684 L25.836,413.397 C27.487,413.254 28.605,412.305 28.605,410.888 L28.605,410.862 C28.605,409.471 27.76,408.678 25.784,408.184 L25.784,405.714 C26.395,405.844 26.98,406.117 27.552,406.546 L28.28,405.324 C27.565,404.791 26.785,404.453 25.836,404.336 L25.836,403.556 L24.705,403.556 L24.705,404.31 C23.08,404.44 21.975,405.389 21.975,406.793 L21.975,406.819 C21.975,408.275 22.859,408.99 24.757,409.484 L24.757,412.032 C23.912,411.902 23.21,411.512 22.469,410.914 L21.637,412.097 C22.521,412.799 23.574,413.254 24.705,413.384 L24.705,414.684 L25.836,414.684 Z M24.757,407.911 C23.756,407.612 23.509,407.261 23.509,406.728 L23.509,406.702 C23.509,406.13 23.938,405.688 24.757,405.623 L24.757,407.911 Z M25.784,412.084 L25.784,409.731 C26.798,410.03 27.071,410.381 27.071,410.953 L27.071,410.979 C27.071,411.603 26.603,412.019 25.784,412.084 Z M34.039,413.566 C36.431,413.566 38.017,411.46 38.017,408.86 L38.017,408.834 C38.017,406.234 36.444,404.154 34.065,404.154 C31.673,404.154 30.087,406.26 30.087,408.86 L30.087,408.886 C30.087,411.486 31.647,413.566 34.039,413.566 Z M34.065,412.123 C32.648,412.123 31.738,410.654 31.738,408.86 L31.738,408.834 C31.738,407.027 32.635,405.597 34.039,405.597 C35.443,405.597 36.366,407.066 36.366,408.86 L36.366,408.886 C36.366,410.68 35.482,412.123 34.065,412.123 Z" id="path-1"></path>
        <path d="M13.836,313.834 L13.836,312.547 C15.487,312.404 16.605,311.455 16.605,310.038 L16.605,310.012 C16.605,308.621 15.76,307.828 13.784,307.334 L13.784,304.864 C14.395,304.994 14.98,305.267 15.552,305.696 L16.28,304.474 C15.565,303.941 14.785,303.603 13.836,303.486 L13.836,302.706 L12.705,302.706 L12.705,303.46 C11.08,303.59 9.975,304.539 9.975,305.943 L9.975,305.969 C9.975,307.425 10.859,308.14 12.757,308.634 L12.757,311.182 C11.912,311.052 11.21,310.662 10.469,310.064 L9.637,311.247 C10.521,311.949 11.574,312.404 12.705,312.534 L12.705,313.834 L13.836,313.834 Z M12.757,307.061 C11.756,306.762 11.509,306.411 11.509,305.878 L11.509,305.852 C11.509,305.28 11.938,304.838 12.757,304.773 L12.757,307.061 Z M13.784,311.234 L13.784,308.881 C14.798,309.18 15.071,309.531 15.071,310.103 L15.071,310.129 C15.071,310.753 14.603,311.169 13.784,311.234 Z M21.298,312.716 C23.313,312.716 24.665,311.494 24.665,309.635 L24.665,309.609 C24.665,307.685 23.274,306.749 21.506,306.749 C20.895,306.749 20.492,306.853 20.063,307.009 L20.206,304.877 L24.262,304.877 L24.262,303.46 L18.828,303.46 L18.568,307.919 L19.53,308.556 C19.998,308.335 20.557,308.153 21.207,308.153 C22.312,308.153 23.092,308.738 23.092,309.661 L23.092,309.687 C23.092,310.636 22.377,311.26 21.285,311.26 C20.44,311.26 19.673,310.844 18.945,310.168 L17.957,311.325 C18.815,312.157 19.907,312.716 21.298,312.716 Z M30.125,312.716 C32.517,312.716 34.103,310.61 34.103,308.01 L34.103,307.984 C34.103,305.384 32.53,303.304 30.151,303.304 C27.759,303.304 26.173,305.41 26.173,308.01 L26.173,308.036 C26.173,310.636 27.733,312.716 30.125,312.716 Z M30.151,311.273 C28.734,311.273 27.824,309.804 27.824,308.01 L27.824,307.984 C27.824,306.177 28.721,304.747 30.125,304.747 C31.529,304.747 32.452,306.216 32.452,308.01 L32.452,308.036 C32.452,309.83 31.568,311.273 30.151,311.273 Z M39.537,312.716 C41.929,312.716 43.515,310.61 43.515,308.01 L43.515,307.984 C43.515,305.384 41.942,303.304 39.563,303.304 C37.171,303.304 35.585,305.41 35.585,308.01 L35.585,308.036 C35.585,310.636 37.145,312.716 39.537,312.716 Z M39.563,311.273 C38.146,311.273 37.236,309.804 37.236,308.01 L37.236,307.984 C37.236,306.177 38.133,304.747 39.537,304.747 C40.941,304.747 41.864,306.216 41.864,308.01 L41.864,308.036 C41.864,309.83 40.98,311.273 39.563,311.273 Z" id="path-2"></path>
        <path d="M4.836,212.984 L4.836,211.697 C6.487,211.554 7.605,210.605 7.605,209.188 L7.605,209.162 C7.605,207.771 6.76,206.978 4.784,206.484 L4.784,204.014 C5.395,204.144 5.98,204.417 6.552,204.846 L7.28,203.624 C6.565,203.091 5.785,202.753 4.836,202.636 L4.836,201.856 L3.705,201.856 L3.705,202.61 C2.08,202.74 0.975,203.689 0.975,205.093 L0.975,205.119 C0.975,206.575 1.859,207.29 3.757,207.784 L3.757,210.332 C2.912,210.202 2.21,209.812 1.469,209.214 L0.637,210.397 C1.521,211.099 2.574,211.554 3.705,211.684 L3.705,212.984 L4.836,212.984 Z M3.757,206.211 C2.756,205.912 2.509,205.561 2.509,205.028 L2.509,205.002 C2.509,204.43 2.938,203.988 3.757,203.923 L3.757,206.211 Z M4.784,210.384 L4.784,208.031 C5.798,208.33 6.071,208.681 6.071,209.253 L6.071,209.279 C6.071,209.903 5.603,210.319 4.784,210.384 Z M12.246,211.71 L12.246,202.545 L11.128,202.545 L8.684,203.325 L9.022,204.625 L10.66,204.17 L10.66,211.71 L12.246,211.71 Z M14.105,213.595 C15.418,213.491 16.107,212.88 16.107,211.437 L16.107,209.929 L14.378,209.929 L14.378,211.71 L15.041,211.71 C15.106,212.373 14.729,212.776 13.936,212.932 L14.105,213.595 Z M21.424,211.866 C23.816,211.866 25.402,209.76 25.402,207.16 L25.402,207.134 C25.402,204.534 23.829,202.454 21.45,202.454 C19.058,202.454 17.472,204.56 17.472,207.16 L17.472,207.186 C17.472,209.786 19.032,211.866 21.424,211.866 Z M21.45,210.423 C20.033,210.423 19.123,208.954 19.123,207.16 L19.123,207.134 C19.123,205.327 20.02,203.897 21.424,203.897 C22.828,203.897 23.751,205.366 23.751,207.16 L23.751,207.186 C23.751,208.98 22.867,210.423 21.45,210.423 Z M30.836,211.866 C33.228,211.866 34.814,209.76 34.814,207.16 L34.814,207.134 C34.814,204.534 33.241,202.454 30.862,202.454 C28.47,202.454 26.884,204.56 26.884,207.16 L26.884,207.186 C26.884,209.786 28.444,211.866 30.836,211.866 Z M30.862,210.423 C29.445,210.423 28.535,208.954 28.535,207.16 L28.535,207.134 C28.535,205.327 29.432,203.897 30.836,203.897 C32.24,203.897 33.163,205.366 33.163,207.16 L33.163,207.186 C33.163,208.98 32.279,210.423 30.862,210.423 Z M40.248,211.866 C42.64,211.866 44.226,209.76 44.226,207.16 L44.226,207.134 C44.226,204.534 42.653,202.454 40.274,202.454 C37.882,202.454 36.296,204.56 36.296,207.16 L36.296,207.186 C36.296,209.786 37.856,211.866 40.248,211.866 Z M40.274,210.423 C38.857,210.423 37.947,208.954 37.947,207.16 L37.947,207.134 C37.947,205.327 38.844,203.897 40.248,203.897 C41.652,203.897 42.575,205.366 42.575,207.16 L42.575,207.186 C42.575,208.98 41.691,210.423 40.274,210.423 Z" id="path-3"></path>
        <path d="M4.836,112.134 L4.836,110.847 C6.487,110.704 7.605,109.755 7.605,108.338 L7.605,108.312 C7.605,106.921 6.76,106.128 4.784,105.634 L4.784,103.164 C5.395,103.294 5.98,103.567 6.552,103.996 L7.28,102.774 C6.565,102.241 5.785,101.903 4.836,101.786 L4.836,101.006 L3.705,101.006 L3.705,101.76 C2.08,101.89 0.975,102.839 0.975,104.243 L0.975,104.269 C0.975,105.725 1.859,106.44 3.757,106.934 L3.757,109.482 C2.912,109.352 2.21,108.962 1.469,108.364 L0.637,109.547 C1.521,110.249 2.574,110.704 3.705,110.834 L3.705,112.134 L4.836,112.134 Z M3.757,105.361 C2.756,105.062 2.509,104.711 2.509,104.178 L2.509,104.152 C2.509,103.58 2.938,103.138 3.757,103.073 L3.757,105.361 Z M4.784,109.534 L4.784,107.181 C5.798,107.48 6.071,107.831 6.071,108.403 L6.071,108.429 C6.071,109.053 5.603,109.469 4.784,109.534 Z M12.246,110.86 L12.246,101.695 L11.128,101.695 L8.684,102.475 L9.022,103.775 L10.66,103.32 L10.66,110.86 L12.246,110.86 Z M14.105,112.745 C15.418,112.641 16.107,112.03 16.107,110.587 L16.107,109.079 L14.378,109.079 L14.378,110.86 L15.041,110.86 C15.106,111.523 14.729,111.926 13.936,112.082 L14.105,112.745 Z M20.943,111.016 C22.958,111.016 24.31,109.794 24.31,107.935 L24.31,107.909 C24.31,105.985 22.919,105.049 21.151,105.049 C20.54,105.049 20.137,105.153 19.708,105.309 L19.851,103.177 L23.907,103.177 L23.907,101.76 L18.473,101.76 L18.213,106.219 L19.175,106.856 C19.643,106.635 20.202,106.453 20.852,106.453 C21.957,106.453 22.737,107.038 22.737,107.961 L22.737,107.987 C22.737,108.936 22.022,109.56 20.93,109.56 C20.085,109.56 19.318,109.144 18.59,108.468 L17.602,109.625 C18.46,110.457 19.552,111.016 20.943,111.016 Z M29.77,111.016 C32.162,111.016 33.748,108.91 33.748,106.31 L33.748,106.284 C33.748,103.684 32.175,101.604 29.796,101.604 C27.404,101.604 25.818,103.71 25.818,106.31 L25.818,106.336 C25.818,108.936 27.378,111.016 29.77,111.016 Z M29.796,109.573 C28.379,109.573 27.469,108.104 27.469,106.31 L27.469,106.284 C27.469,104.477 28.366,103.047 29.77,103.047 C31.174,103.047 32.097,104.516 32.097,106.31 L32.097,106.336 C32.097,108.13 31.213,109.573 29.796,109.573 Z M39.182,111.016 C41.574,111.016 43.16,108.91 43.16,106.31 L43.16,106.284 C43.16,103.684 41.587,101.604 39.208,101.604 C36.816,101.604 35.23,103.71 35.23,106.31 L35.23,106.336 C35.23,108.936 36.79,111.016 39.182,111.016 Z M39.208,109.573 C37.791,109.573 36.881,108.104 36.881,106.31 L36.881,106.284 C36.881,104.477 37.778,103.047 39.182,103.047 C40.586,103.047 41.509,104.516 41.509,106.31 L41.509,106.336 C41.509,108.13 40.625,109.573 39.208,109.573 Z" id="path-4"></path>
        <path d="M4.836,11.274 L4.836,9.987 C6.487,9.844 7.605,8.895 7.605,7.478 L7.605,7.452 C7.605,6.061 6.76,5.268 4.784,4.774 L4.784,2.304 C5.395,2.434 5.98,2.707 6.552,3.136 L7.28,1.914 C6.565,1.381 5.785,1.043 4.836,0.926 L4.836,0.146 L3.705,0.146 L3.705,0.9 C2.08,1.03 0.975,1.979 0.975,3.383 L0.975,3.409 C0.975,4.865 1.859,5.58 3.757,6.074 L3.757,8.622 C2.912,8.492 2.21,8.102 1.469,7.504 L0.637,8.687 C1.521,9.389 2.574,9.844 3.705,9.974 L3.705,11.274 L4.836,11.274 Z M3.757,4.501 C2.756,4.202 2.509,3.851 2.509,3.318 L2.509,3.292 C2.509,2.72 2.938,2.278 3.757,2.213 L3.757,4.501 Z M4.784,8.674 L4.784,6.321 C5.798,6.62 6.071,6.971 6.071,7.543 L6.071,7.569 C6.071,8.193 5.603,8.609 4.784,8.674 Z M15.561,10 L15.561,8.596 L11.232,8.596 L13.104,7.036 C14.716,5.723 15.47,4.943 15.47,3.513 L15.47,3.487 C15.47,1.862 14.248,0.77 12.467,0.77 C10.842,0.77 9.984,1.459 9.113,2.681 L10.244,3.565 C10.946,2.655 11.518,2.2 12.35,2.2 C13.182,2.2 13.819,2.72 13.819,3.617 C13.819,4.436 13.364,5.021 12.116,6.074 L8.983,8.739 L8.983,10 L15.561,10 Z M16.926,11.885 C18.239,11.781 18.928,11.17 18.928,9.727 L18.928,8.219 L17.199,8.219 L17.199,10 L17.862,10 C17.927,10.663 17.55,11.066 16.757,11.222 L16.926,11.885 Z M24.245,10.156 C26.637,10.156 28.223,8.05 28.223,5.45 L28.223,5.424 C28.223,2.824 26.65,0.744 24.271,0.744 C21.879,0.744 20.293,2.85 20.293,5.45 L20.293,5.476 C20.293,8.076 21.853,10.156 24.245,10.156 Z M24.271,8.713 C22.854,8.713 21.944,7.244 21.944,5.45 L21.944,5.424 C21.944,3.617 22.841,2.187 24.245,2.187 C25.649,2.187 26.572,3.656 26.572,5.45 L26.572,5.476 C26.572,7.27 25.688,8.713 24.271,8.713 Z M33.657,10.156 C36.049,10.156 37.635,8.05 37.635,5.45 L37.635,5.424 C37.635,2.824 36.062,0.744 33.683,0.744 C31.291,0.744 29.705,2.85 29.705,5.45 L29.705,5.476 C29.705,8.076 31.265,10.156 33.657,10.156 Z M33.683,8.713 C32.266,8.713 31.356,7.244 31.356,5.45 L31.356,5.424 C31.356,3.617 32.253,2.187 33.657,2.187 C35.061,2.187 35.984,3.656 35.984,5.45 L35.984,5.476 C35.984,7.27 35.1,8.713 33.683,8.713 Z M43.069,10.156 C45.461,10.156 47.047,8.05 47.047,5.45 L47.047,5.424 C47.047,2.824 45.474,0.744 43.095,0.744 C40.703,0.744 39.117,2.85 39.117,5.45 L39.117,5.476 C39.117,8.076 40.677,10.156 43.069,10.156 Z M43.095,8.713 C41.678,8.713 40.768,7.244 40.768,5.45 L40.768,5.424 C40.768,3.617 41.665,2.187 43.069,2.187 C44.473,2.187 45.396,3.656 45.396,5.45 L45.396,5.476 C45.396,7.27 44.512,8.713 43.095,8.713 Z" id="path-5"></path>
        <path d="M1.95,11 L2.64,8.96 L6.87,8.96 L7.56,11 L9.585,11 L5.85,0.365 L3.735,0.365 L0,11 L1.95,11 Z M6.27,7.22 L3.24,7.22 L4.755,2.735 L6.27,7.22 Z M12.63,13.985 L12.63,10.43 C12.99,10.865 13.74,11.195 14.67,11.195 C15.465,11.195 16.095,10.955 16.575,10.565 C17.505,9.8 17.97,8.615 17.97,7.085 C17.97,5.615 17.505,4.445 16.575,3.68 C16.095,3.29 15.465,3.02 14.685,3.02 C13.83,3.02 12.96,3.335 12.495,4.055 L12.375,3.2 L10.755,3.2 L10.755,13.985 L12.63,13.985 Z M14.31,9.62 C12.84,9.62 12.54,8.24 12.54,7.115 C12.54,5.99 12.84,4.595 14.31,4.595 C14.895,4.595 15.3,4.865 15.57,5.21 C15.96,5.72 16.065,6.44 16.065,7.115 C16.065,7.79 15.96,8.495 15.57,9.005 C15.3,9.35 14.895,9.62 14.31,9.62 Z M21.66,11 L21.66,7.07 C21.66,5.81 22.35,4.865 23.67,4.865 C23.88,4.865 24.105,4.895 24.315,4.94 L24.315,3.14 C24.12,3.11 23.925,3.095 23.73,3.095 C22.815,3.095 21.885,3.47 21.525,4.37 L21.36,3.2 L19.77,3.2 L19.77,11 L21.66,11 Z" id="path-6"></path>
        <path d="M123.86,11 L123.86,3.32 L126.605,10.85 L128.03,10.85 L130.79,3.41 L130.79,11 L132.665,11 L132.665,0.365 L130.19,0.365 L127.385,7.94 L124.595,0.365 L121.985,0.365 L121.985,11 L123.86,11 Z M137.255,11.195 C138.365,11.195 139.265,10.655 139.625,10.025 C139.685,10.61 140.135,11.12 140.945,11.12 C141.395,11.12 141.56,11.045 141.875,10.91 L141.875,9.53 C141.875,9.53 141.755,9.56 141.635,9.56 C141.32,9.56 141.2,9.425 141.2,9.065 L141.2,6.17 C141.2,5.645 141.17,5.09 140.975,4.595 C140.525,3.425 139.385,3.005 138.05,3.005 C136.31,3.005 134.915,3.785 134.81,5.54 L136.625,5.54 C136.67,4.82 137.18,4.43 138.05,4.43 C139.115,4.43 139.37,4.925 139.37,5.66 L139.37,6.14 L137.075,6.305 C135.59,6.41 134.435,7.265 134.435,8.75 C134.435,10.025 135.395,11.195 137.255,11.195 Z M137.375,9.68 C136.79,9.68 136.265,9.305 136.265,8.705 C136.265,8.075 136.82,7.73 137.39,7.685 L139.37,7.535 L139.37,7.895 C139.37,9.05 138.545,9.68 137.375,9.68 Z M144.305,14.285 C145.67,14.285 146.315,13.355 146.705,12.335 L150.14,3.2 L148.235,3.2 L146.285,8.84 L144.245,3.2 L142.19,3.2 L145.265,10.985 L144.815,12.08 C144.62,12.545 144.26,12.665 143.915,12.665 C143.495,12.665 143.36,12.62 142.865,12.53 L142.865,14.09 C143.27,14.195 143.69,14.285 144.305,14.285 Z" id="path-7"></path>
        <path d="M247.325,11.21 C249.365,11.21 250.55,9.905 250.55,7.895 L250.55,0.365 L248.615,0.365 L248.615,8.045 C248.615,8.915 248.195,9.485 247.325,9.485 C246.935,9.485 246.605,9.32 246.395,9.095 C246.065,8.735 246.005,8.195 246.005,7.67 L244.13,7.67 C244.13,8.825 244.43,9.695 245.06,10.34 C245.585,10.88 246.32,11.21 247.325,11.21 Z M255.245,11.195 C256.235,11.195 257.105,10.745 257.48,9.98 L257.615,11 L259.175,11 L259.175,3.2 L257.3,3.2 L257.3,7.325 C257.3,7.955 257.18,8.66 256.73,9.08 C256.505,9.305 256.205,9.47 255.77,9.47 C254.78,9.47 254.42,8.9 254.42,7.985 L254.42,3.2 L252.545,3.2 L252.545,8.405 C252.545,10.07 253.58,11.195 255.245,11.195 Z M263.39,11 L263.39,7.82 C263.39,7.16 263.375,6.35 263.645,5.735 C263.9,5.165 264.335,4.745 264.995,4.745 C265.985,4.745 266.285,5.3 266.285,6.215 L266.285,11 L268.16,11 L268.16,5.795 C268.16,4.175 267.185,3.005 265.52,3.005 C264.62,3.005 263.69,3.38 263.225,4.205 L263.09,3.2 L261.515,3.2 L261.515,11 L263.39,11 Z M273.5,11.195 C274.49,11.195 275.465,10.88 276.125,10.1 C276.425,9.74 276.74,9.125 276.785,8.66 L274.985,8.66 C274.91,8.945 274.775,9.155 274.61,9.32 C274.34,9.59 274.01,9.695 273.47,9.695 C272.96,9.695 272.585,9.47 272.315,9.215 C271.94,8.855 271.73,8.285 271.745,7.685 L276.965,7.685 C276.965,7.52 276.98,7.16 276.98,7.16 C277.01,6.185 276.875,5.3 276.305,4.445 C275.66,3.47 274.61,3.005 273.455,3.005 C272.39,3.005 271.55,3.395 270.965,3.995 C270.215,4.76 269.84,5.87 269.84,7.115 C269.84,8.39 270.26,9.485 271.04,10.235 C271.655,10.82 272.435,11.195 273.5,11.195 Z M275.105,6.32 L271.73,6.32 C271.745,5.81 271.865,5.45 272.135,5.105 C272.405,4.745 272.87,4.505 273.44,4.505 C273.98,4.505 274.37,4.685 274.625,4.955 C274.925,5.285 275.09,5.735 275.105,6.32 Z" id="path-8"></path>
        <path d="M376.725,11.21 C378.765,11.21 379.95,9.905 379.95,7.895 L379.95,0.365 L378.015,0.365 L378.015,8.045 C378.015,8.915 377.595,9.485 376.725,9.485 C376.335,9.485 376.005,9.32 375.795,9.095 C375.465,8.735 375.405,8.195 375.405,7.67 L373.53,7.67 C373.53,8.825 373.83,9.695 374.46,10.34 C374.985,10.88 375.72,11.21 376.725,11.21 Z M384.645,11.195 C385.635,11.195 386.505,10.745 386.88,9.98 L387.015,11 L388.575,11 L388.575,3.2 L386.7,3.2 L386.7,7.325 C386.7,7.955 386.58,8.66 386.13,9.08 C385.905,9.305 385.605,9.47 385.17,9.47 C384.18,9.47 383.82,8.9 383.82,7.985 L383.82,3.2 L381.945,3.2 L381.945,8.405 C381.945,10.07 382.98,11.195 384.645,11.195 Z M393,11.09 C393.375,11.09 393.45,11.06 393.825,10.985 L393.825,9.41 C393.72,9.41 393.675,9.425 393.51,9.425 C392.865,9.425 392.76,9.125 392.76,8.675 L392.76,0.155 L390.87,0.155 L390.87,8.99 C390.87,10.475 391.725,11.09 393,11.09 Z M396.24,14.285 C397.605,14.285 398.25,13.355 398.64,12.335 L402.075,3.2 L400.17,3.2 L398.22,8.84 L396.18,3.2 L394.125,3.2 L397.2,10.985 L396.75,12.08 C396.555,12.545 396.195,12.665 395.85,12.665 C395.43,12.665 395.295,12.62 394.8,12.53 L394.8,14.09 C395.205,14.195 395.625,14.285 396.24,14.285 Z" id="path-9"></path>
        <path d="M501.88,11 L502.57,8.96 L506.8,8.96 L507.49,11 L509.515,11 L505.78,0.365 L503.665,0.365 L499.93,11 L501.88,11 Z M506.2,7.22 L503.17,7.22 L504.685,2.735 L506.2,7.22 Z M513.115,11.195 C514.105,11.195 514.975,10.745 515.35,9.98 L515.485,11 L517.045,11 L517.045,3.2 L515.17,3.2 L515.17,7.325 C515.17,7.955 515.05,8.66 514.6,9.08 C514.375,9.305 514.075,9.47 513.64,9.47 C512.65,9.47 512.29,8.9 512.29,7.985 L512.29,3.2 L510.415,3.2 L510.415,8.405 C510.415,10.07 511.45,11.195 513.115,11.195 Z M522.49,14.645 C524.23,14.645 526.255,14.09 526.255,12.035 C526.255,11.285 525.985,10.625 525.31,10.16 C524.575,9.65 523.555,9.635 522.775,9.635 L521.485,9.635 C521.095,9.635 520.63,9.53 520.63,9.065 C520.63,8.81 520.84,8.615 521.02,8.51 C521.41,8.645 521.845,8.72 522.28,8.72 C523.96,8.72 525.46,7.67 525.46,5.885 C525.46,5.36 525.31,4.895 525.055,4.475 C525.175,4.1 525.565,3.98 526,3.98 L526.15,3.995 L526.15,3.995 L526.15,2.54 C526.03,2.51 525.76,2.51 525.64,2.51 C524.98,2.51 524.38,2.81 524.05,3.485 C523.54,3.185 522.925,3.005 522.28,3.005 C520.525,3.005 519.085,4.01 519.085,5.87 C519.085,6.665 519.385,7.31 519.865,7.79 C519.235,8.18 518.935,8.705 518.935,9.365 C518.935,9.875 519.22,10.43 519.715,10.7 C519.115,11 518.785,11.615 518.785,12.29 C518.785,13.025 519.13,13.58 519.73,14 C520.54,14.57 521.545,14.645 522.49,14.645 Z M522.28,7.31 C521.425,7.31 520.9,6.71 520.9,5.87 C520.9,5.03 521.425,4.415 522.28,4.415 C523.135,4.415 523.66,5.03 523.66,5.87 C523.66,6.71 523.135,7.31 522.28,7.31 Z M522.520628,13.1596323 L522.415,13.16 C521.68,13.16 520.45,13.07 520.45,12.08 C520.45,11.585 520.75,11.24 521.155,11.12 L522.625,11.12 C523.33,11.12 524.485,11.12 524.485,12.08 C524.485,13.0679545 523.282273,13.1538636 522.520628,13.1596323 Z" id="path-10"></path>
    </defs>
    <g id="Page-1" stroke="none" stroke-width="1" fill="none" fill-rule="evenodd">
        <g id="Group-6">
            <rect id="Rectangle" fill="#FFFFFF" x="0" y="0" width="738" height="561"></rect>
            <g id="Fig-1" transform="translate(28.000000, 24.000000)">
                <g id="fig2_0827">
                    <g id="Group-2" transform="translate(90.320000, 0.480000)" stroke="#E0E0E0" stroke-linejoin="round">
                        <line x1="-5.68434189e-14" y1="373.15" x2="554.69" y2="373.15" id="Path" stroke-width="0.53"></line>
                        <line x1="-5.68434189e-14" y1="272.3" x2="554.69" y2="272.3" id="Path" stroke-width="0.53"></line>
                        <line x1="-5.68434189e-14" y1="171.45" x2="554.69" y2="171.45" id="Path" stroke-width="0.53"></line>
                        <line x1="-5.68434189e-14" y1="70.6" x2="554.69" y2="70.6" id="Path" stroke-width="0.53"></line>
                        <line x1="88.25" y1="443.75" x2="88.25" y2="0" id="Path" stroke-width="0.53"></line>
                        <line x1="214.32" y1="443.75" x2="214.32" y2="0" id="Path" stroke-width="0.53"></line>
                        <line x1="340.38" y1="443.75" x2="340.38" y2="0" id="Path" stroke-width="0.53"></line>
                        <line x1="466.45" y1="443.75" x2="466.45" y2="0" id="Path" stroke-width="0.53"></line>
                        <line x1="-5.68434189e-14" y1="423.58" x2="554.69" y2="423.58" id="Path" stroke-width="1.07"></line>
                        <line x1="-5.68434189e-14" y1="322.73" x2="554.69" y2="322.73" id="Path" stroke-width="1.07"></line>
                        <line x1="-5.68434189e-14" y1="221.87" x2="554.69" y2="221.87" id="Path" stroke-width="1.07"></line>
                        <line x1="-5.68434189e-14" y1="121.02" x2="554.69" y2="121.02" id="Path" stroke-width="1.07"></line>
                        <line x1="-5.68434189e-14" y1="20.17" x2="554.69" y2="20.17" id="Path" stroke-width="1.07"></line>
                    </g>
                    <polyline id="Path" stroke="#434878" stroke-width="3.07" stroke-linejoin="round" points="115.54 219.33 241.6 182.01 367.67 123.52 493.73 187.68 619.8 138.65"></polyline>
                    <polyline id="Path" stroke="#E24000" stroke-width="3.07" stroke-linejoin="round" points="115.54 242.72 241.6 131.59 367.67 101.33 493.73 112.63 619.8 152.36"></polyline>
                    <g id="y-axis" transform="translate(39.390000, 14.700000)" fill-rule="nonzero">
                        <g id="$0">
                            <use fill="#000000" xlink:href="#path-1"></use>
                            <use fill="#4D4D4D" xlink:href="#path-1"></use>
                        </g>
                        <g id="$500">
                            <use fill="#000000" xlink:href="#path-2"></use>
                            <use fill="#4D4D4D" xlink:href="#path-2"></use>
                        </g>
                        <g id="$1,000">
                            <use fill="#000000" xlink:href="#path-3"></use>
                            <use fill="#4D4D4D" xlink:href="#path-3"></use>
                        </g>
                        <g id="$1,500">
                            <use fill="#000000" xlink:href="#path-4"></use>
                            <use fill="#4D4D4D" xlink:href="#path-4"></use>
                        </g>
                        <g id="$2,000">
                            <use fill="#000000" xlink:href="#path-5"></use>
                            <use fill="#4D4D4D" xlink:href="#path-5"></use>
                        </g>
                    </g>
                    <g id="Months" transform="translate(107.200000, 446.270000)" fill-rule="nonzero">
                        <g id="Apr">
                            <use fill="#000000" xlink:href="#path-6"></use>
                            <use fill="#4D4D4D" xlink:href="#path-6"></use>
                        </g>
                        <g id="May">
                            <use fill="#000000" xlink:href="#path-7"></use>
                            <use fill="#4D4D4D" xlink:href="#path-7"></use>
                        </g>
                        <g id="June">
                            <use fill="#000000" xlink:href="#path-8"></use>
                            <use fill="#4D4D4D" xlink:href="#path-8"></use>
                        </g>
                        <g id="July">
                            <use fill="#000000" xlink:href="#path-9"></use>
                            <use fill="#4D4D4D" xlink:href="#path-9"></use>
                        </g>
                        <g id="Aug">
                            <use fill="#000000" xlink:href="#path-10"></use>
                            <use fill="#4D4D4D" xlink:href="#path-10"></use>
                        </g>
                    </g>
                    <path d="M-94.246,232 L-92.631,225.149 L-92.597,225.149 L-90.404,230.3 L-88.517,230.3 L-86.307,225.149 L-86.273,225.149 L-84.658,232 L-81.921,232 L-84.947,220.1 L-86.936,220.1 L-89.435,226.254 L-89.469,226.254 L-91.968,220.1 L-93.957,220.1 L-97,232 L-94.246,232 Z M-73.438,232 L-73.438,229.535 L-78.249,229.535 L-78.249,226.832 L-73.999,226.832 L-73.999,224.435 L-78.249,224.435 L-78.249,222.565 L-73.523,222.565 L-73.523,220.1 L-80.884,220.1 L-80.884,232 L-73.438,232 Z M-68.083,232 C-66.8363333,232 -65.7256667,231.759167 -64.751,231.2775 C-63.7763333,230.795833 -63.017,230.107333 -62.473,229.212 C-61.929,228.316667 -61.657,227.262667 -61.657,226.05 C-61.657,224.837333 -61.929,223.783333 -62.473,222.888 C-63.017,221.992667 -63.7763333,221.304167 -64.751,220.8225 C-65.7256667,220.340833 -66.8363333,220.1 -68.083,220.1 L-68.083,220.1 L-71.874,220.1 L-71.874,232 L-68.083,232 Z M-67.862,229.603 L-69.239,229.603 L-69.239,222.497 L-67.862,222.497 C-66.8646667,222.497 -66.0543333,222.808667 -65.431,223.432 C-64.8076667,224.055333 -64.496,224.928 -64.496,226.05 C-64.496,227.160667 -64.8076667,228.0305 -65.431,228.6595 C-66.0543333,229.2885 -66.8646667,229.603 -67.862,229.603 L-67.862,229.603 Z M-57.628,232 L-57.628,220.1 L-60.263,220.1 L-60.263,232 L-57.628,232 Z M-53.786,232 L-52.936,229.586 L-48.363,229.586 L-47.513,232 L-44.572,232 L-49.264,220.1 L-52.052,220.1 L-56.744,232 L-53.786,232 Z M-49.179,227.24 L-52.12,227.24 L-50.658,223.024 L-49.179,227.24 Z M-41.053,232 L-41.053,224.673 L-41.036,224.673 L-35.358,232 L-33.114,232 L-33.114,220.1 L-35.749,220.1 L-35.749,227.461 L-35.766,227.461 L-41.461,220.1 L-43.688,220.1 L-43.688,232 L-41.053,232 Z M-16.25,232.255 C-14.6633333,232.255 -13.241,231.813 -11.983,230.929 L-11.983,230.929 L-13.411,228.617 C-14.329,229.229 -15.2753333,229.535 -16.25,229.535 C-16.9413333,229.535 -17.5618333,229.393333 -18.1115,229.11 C-18.6611667,228.826667 -19.0918333,228.4215 -19.4035,227.8945 C-19.7151667,227.3675 -19.871,226.752667 -19.871,226.05 C-19.871,225.347333 -19.7151667,224.7325 -19.4035,224.2055 C-19.0918333,223.6785 -18.6611667,223.273333 -18.1115,222.99 C-17.5618333,222.706667 -16.9413333,222.565 -16.25,222.565 C-15.2753333,222.565 -14.329,222.871 -13.411,223.483 L-13.411,223.483 L-11.983,221.171 C-13.241,220.287 -14.6633333,219.845 -16.25,219.845 C-17.4966667,219.845 -18.6158333,220.1 -19.6075,220.61 C-20.5991667,221.12 -21.3755,221.845333 -21.9365,222.786 C-22.4975,223.726667 -22.778,224.814667 -22.778,226.05 C-22.778,227.285333 -22.4975,228.373333 -21.9365,229.314 C-21.3755,230.254667 -20.5991667,230.98 -19.6075,231.49 C-18.6158333,232 -17.4966667,232.255 -16.25,232.255 Z M-3.381,232 L-3.381,229.518 L-8.124,229.518 L-8.124,220.1 L-10.759,220.1 L-10.759,232 L-3.381,232 Z M-0.151,232 L0.699,229.586 L5.272,229.586 L6.122,232 L9.063,232 L4.371,220.1 L1.583,220.1 L-3.109,232 L-0.151,232 Z M4.456,227.24 L1.515,227.24 L2.977,223.024 L4.456,227.24 Z M12.582,232 L12.582,220.1 L9.947,220.1 L9.947,232 L12.582,232 Z M16.373,232 L17.988,225.149 L18.022,225.149 L20.215,230.3 L22.102,230.3 L24.312,225.149 L24.346,225.149 L25.961,232 L28.698,232 L25.672,220.1 L23.683,220.1 L21.184,226.254 L21.15,226.254 L18.651,220.1 L16.662,220.1 L13.619,232 L16.373,232 Z M39.935,232 L40.785,229.586 L45.358,229.586 L46.208,232 L49.149,232 L44.457,220.1 L41.669,220.1 L36.977,232 L39.935,232 Z M44.542,227.24 L41.601,227.24 L43.063,223.024 L44.542,227.24 Z M52.158,232 L53.773,225.149 L53.807,225.149 L56,230.3 L57.887,230.3 L60.097,225.149 L60.131,225.149 L61.746,232 L64.483,232 L61.457,220.1 L59.468,220.1 L56.969,226.254 L56.935,226.254 L54.436,220.1 L52.447,220.1 L49.404,232 L52.158,232 Z M70.943,232.255 C72.1216667,232.255 73.187,231.994333 74.139,231.473 C75.091,230.951667 75.8418333,230.220667 76.3915,229.28 C76.9411667,228.339333 77.216,227.262667 77.216,226.05 C77.216,224.837333 76.9411667,223.760667 76.3915,222.82 C75.8418333,221.879333 75.091,221.148333 74.139,220.627 C73.187,220.105667 72.1216667,219.845 70.943,219.845 C69.7643333,219.845 68.699,220.105667 67.747,220.627 C66.795,221.148333 66.0441667,221.879333 65.4945,222.82 C64.9448333,223.760667 64.67,224.837333 64.67,226.05 C64.67,227.262667 64.9448333,228.339333 65.4945,229.28 C66.0441667,230.220667 66.795,230.951667 67.747,231.473 C68.699,231.994333 69.7643333,232.255 70.943,232.255 Z M70.943,229.535 C70.3083333,229.535 69.736,229.393333 69.226,229.11 C68.716,228.826667 68.3136667,228.4215 68.019,227.8945 C67.7243333,227.3675 67.577,226.752667 67.577,226.05 C67.577,225.347333 67.7243333,224.7325 68.019,224.2055 C68.3136667,223.6785 68.716,223.273333 69.226,222.99 C69.736,222.706667 70.3083333,222.565 70.943,222.565 C71.5776667,222.565 72.15,222.706667 72.66,222.99 C73.17,223.273333 73.5723333,223.6785 73.867,224.2055 C74.1616667,224.7325 74.309,225.347333 74.309,226.05 C74.309,226.752667 74.1616667,227.3675 73.867,227.8945 C73.5723333,228.4215 73.17,228.826667 72.66,229.11 C72.15,229.393333 71.5776667,229.535 70.943,229.535 Z M83.54,232.221 C85.1833333,232.221 86.4356667,231.776167 87.297,230.8865 C88.1583333,229.996833 88.589,228.764333 88.589,227.189 L88.589,227.189 L88.589,220.1 L85.801,220.1 L85.801,226.951 C85.801,227.721667 85.6055,228.339333 85.2145,228.804 C84.8235,229.268667 84.2653333,229.501 83.54,229.501 C82.8146667,229.501 82.2565,229.268667 81.8655,228.804 C81.4745,228.339333 81.279,227.721667 81.279,226.951 L81.279,226.951 L81.279,220.1 L78.474,220.1 L78.474,227.189 C78.474,228.764333 78.9046667,229.996833 79.766,230.8865 C80.6273333,231.776167 81.8853333,232.221 83.54,232.221 Z M93.213,232 L93.213,224.673 L93.23,224.673 L98.908,232 L101.152,232 L101.152,220.1 L98.517,220.1 L98.517,227.461 L98.5,227.461 L92.805,220.1 L90.578,220.1 L90.578,232 L93.213,232 Z M108.054,232 L108.054,222.565 L111.182,222.565 L111.182,220.1 L102.274,220.1 L102.274,222.565 L105.419,222.565 L105.419,232 L108.054,232 Z" id="MEDIANCLAIMAMOUNT" fill="#7D7D7D" fill-rule="nonzero" transform="translate(7.091000, 226.050000) rotate(-90.000000) translate(-7.091000, -226.050000) "></path>
                    <circle id="Oval-Copy-5" fill="#434878" cx="116" cy="219" r="5"></circle>
                    <circle id="Oval-Copy-6" fill="#434878" cx="241" cy="182" r="5"></circle>
                    <circle id="Oval-Copy-7" fill="#434878" cx="367" cy="125" r="5"></circle>
                    <circle id="Oval-Copy-8" fill="#434878" cx="493" cy="186" r="5"></circle>
                    <circle id="Oval-Copy-9" fill="#434878" cx="618" cy="139" r="5"></circle>
                    <g id="red-dots" transform="translate(111.000000, 96.000000)" fill="#E24000">
                        <circle id="Oval" cx="5" cy="147" r="5"></circle>
                        <circle id="Oval-Copy" cx="129" cy="37" r="5"></circle>
                        <circle id="Oval-Copy-2" cx="257" cy="5" r="5"></circle>
                        <circle id="Oval-Copy-3" cx="381" cy="16" r="5"></circle>
                        <circle id="Oval-Copy-4" cx="507" cy="56" r="5"></circle>
                    </g>
                </g>
                <g id="Group-5" transform="translate(383.500000, 488.000000)">
                    <polyline id="Line-Copy" stroke="#434878" stroke-width="3" stroke-linecap="square" points="2.56739074e-16 9.5 23.5547903 9.5 37 9.5"></polyline>
                    <circle id="Oval-Copy-11" fill="#434878" cx="18.5" cy="10" r="5"></circle>
                    <path d="M51.852,15.7 L51.852,10.702 L56.799,10.702 L56.799,15.7 L59.434,15.7 L59.434,3.8 L56.799,3.8 L56.799,8.22 L51.852,8.22 L51.852,3.8 L49.217,3.8 L49.217,15.7 L51.852,15.7 Z M67.101,15.955 C68.2796667,15.955 69.345,15.6943333 70.297,15.173 C71.249,14.6516667 71.9998333,13.9206667 72.5495,12.98 C73.0991667,12.0393333 73.374,10.9626667 73.374,9.75 C73.374,8.53733333 73.0991667,7.46066667 72.5495,6.52 C71.9998333,5.57933333 71.249,4.84833333 70.297,4.327 C69.345,3.80566667 68.2796667,3.545 67.101,3.545 C65.9223333,3.545 64.857,3.80566667 63.905,4.327 C62.953,4.84833333 62.2021667,5.57933333 61.6525,6.52 C61.1028333,7.46066667 60.828,8.53733333 60.828,9.75 C60.828,10.9626667 61.1028333,12.0393333 61.6525,12.98 C62.2021667,13.9206667 62.953,14.6516667 63.905,15.173 C64.857,15.6943333 65.9223333,15.955 67.101,15.955 Z M67.101,13.235 C66.4663333,13.235 65.894,13.0933333 65.384,12.81 C64.874,12.5266667 64.4716667,12.1215 64.177,11.5945 C63.8823333,11.0675 63.735,10.4526667 63.735,9.75 C63.735,9.04733333 63.8823333,8.4325 64.177,7.9055 C64.4716667,7.3785 64.874,6.97333333 65.384,6.69 C65.894,6.40666667 66.4663333,6.265 67.101,6.265 C67.7356667,6.265 68.308,6.40666667 68.818,6.69 C69.328,6.97333333 69.7303333,7.3785 70.025,7.9055 C70.3196667,8.4325 70.467,9.04733333 70.467,9.75 C70.467,10.4526667 70.3196667,11.0675 70.025,11.5945 C69.7303333,12.1215 69.328,12.5266667 68.818,12.81 C68.308,13.0933333 67.7356667,13.235 67.101,13.235 Z M79.698,15.921 C81.3413333,15.921 82.5936667,15.4761667 83.455,14.5865 C84.3163333,13.6968333 84.747,12.4643333 84.747,10.889 L84.747,10.889 L84.747,3.8 L81.959,3.8 L81.959,10.651 C81.959,11.4216667 81.7635,12.0393333 81.3725,12.504 C80.9815,12.9686667 80.4233333,13.201 79.698,13.201 C78.9726667,13.201 78.4145,12.9686667 78.0235,12.504 C77.6325,12.0393333 77.437,11.4216667 77.437,10.651 L77.437,10.651 L77.437,3.8 L74.632,3.8 L74.632,10.889 C74.632,12.4643333 75.0626667,13.6968333 75.924,14.5865 C76.7853333,15.4761667 78.0433333,15.921 79.698,15.921 Z M89.779,15.955 C91.173,15.955 92.244,15.6518333 92.992,15.0455 C93.74,14.4391667 94.114,13.5636667 94.114,12.419 C94.114,11.6256667 93.927,10.9626667 93.553,10.43 C93.179,9.89733333 92.6123333,9.39866667 91.853,8.934 L91.853,8.934 L89.881,7.693 C89.541,7.489 89.3058333,7.31616667 89.1755,7.1745 C89.0451667,7.03283333 88.98,6.87133333 88.98,6.69 C88.98,6.22533333 89.3426667,5.993 90.068,5.993 C90.4533333,5.993 90.8585,6.0525 91.2835,6.1715 C91.7085,6.2905 92.1986667,6.48033333 92.754,6.741 L92.754,6.741 L93.859,4.412 C92.5216667,3.834 91.2353333,3.545 90,3.545 C88.7646667,3.545 87.824,3.82833333 87.178,4.395 C86.532,4.96166667 86.209,5.738 86.209,6.724 C86.209,8.118 86.94,9.25133333 88.402,10.124 L88.402,10.124 L90.221,11.263 C90.6063333,11.501 90.8896667,11.7106667 91.071,11.892 C91.2523333,12.0733333 91.343,12.2886667 91.343,12.538 C91.343,12.8553333 91.2183333,13.0933333 90.969,13.252 C90.7196667,13.4106667 90.357,13.49 89.881,13.49 C88.8383333,13.49 87.722,13.1273333 86.532,12.402 L86.532,12.402 L85.342,14.765 C86.702,15.5583333 88.181,15.955 89.779,15.955 Z M100.013,15.7 L100.013,6.265 L103.141,6.265 L103.141,3.8 L94.233,3.8 L94.233,6.265 L97.378,6.265 L97.378,15.7 L100.013,15.7 Z M109.227,15.955 C110.405667,15.955 111.471,15.6943333 112.423,15.173 C113.375,14.6516667 114.125833,13.9206667 114.6755,12.98 C115.225167,12.0393333 115.5,10.9626667 115.5,9.75 C115.5,8.53733333 115.225167,7.46066667 114.6755,6.52 C114.125833,5.57933333 113.375,4.84833333 112.423,4.327 C111.471,3.80566667 110.405667,3.545 109.227,3.545 C108.048333,3.545 106.983,3.80566667 106.031,4.327 C105.079,4.84833333 104.328167,5.57933333 103.7785,6.52 C103.228833,7.46066667 102.954,8.53733333 102.954,9.75 C102.954,10.9626667 103.228833,12.0393333 103.7785,12.98 C104.328167,13.9206667 105.079,14.6516667 106.031,15.173 C106.983,15.6943333 108.048333,15.955 109.227,15.955 Z M109.227,13.235 C108.592333,13.235 108.02,13.0933333 107.51,12.81 C107,12.5266667 106.597667,12.1215 106.303,11.5945 C106.008333,11.0675 105.861,10.4526667 105.861,9.75 C105.861,9.04733333 106.008333,8.4325 106.303,7.9055 C106.597667,7.3785 107,6.97333333 107.51,6.69 C108.02,6.40666667 108.592333,6.265 109.227,6.265 C109.861667,6.265 110.434,6.40666667 110.944,6.69 C111.454,6.97333333 111.856333,7.3785 112.151,7.9055 C112.445667,8.4325 112.593,9.04733333 112.593,9.75 C112.593,10.4526667 112.445667,11.0675 112.151,11.5945 C111.856333,12.1215 111.454,12.5266667 110.944,12.81 C110.434,13.0933333 109.861667,13.235 109.227,13.235 Z M119.529,15.7 L119.529,8.373 L119.546,8.373 L125.224,15.7 L127.468,15.7 L127.468,3.8 L124.833,3.8 L124.833,11.161 L124.816,11.161 L119.121,3.8 L116.894,3.8 L116.894,15.7 L119.529,15.7 Z M130.375,18.488 L131.922,15.7 L131.922,12.963 L129.202,12.963 L129.202,15.7 L130.256,15.7 L129.287,18.488 L130.375,18.488 Z M142.462,15.7 L142.462,6.265 L145.59,6.265 L145.59,3.8 L136.682,3.8 L136.682,6.265 L139.827,6.265 L139.827,15.7 L142.462,15.7 Z M149.024,15.7 L151.778,11.552 L154.532,15.7 L157.898,15.7 L153.461,9.427 L157.49,3.8 L154.141,3.8 L151.778,7.319 L149.415,3.8 L146.066,3.8 L150.095,9.427 L145.658,15.7 L149.024,15.7 Z" id="HOUSTON,TX" fill="#7D7D7D" fill-rule="nonzero"></path>
                </g>
                <g id="Group-4" transform="translate(181.500000, 488.000000)">
                    <line x1="2.56739074e-16" y1="9.5" x2="37" y2="9.5" id="Line" stroke="#E24000" stroke-width="3" stroke-linecap="square"></line>
                    <circle id="Oval-Copy-10" fill="#E24000" cx="18.5" cy="10" r="5"></circle>
                    <path d="M57.395,15.955 C58.9816667,15.955 60.404,15.513 61.662,14.629 L61.662,14.629 L60.234,12.317 C59.316,12.929 58.3696667,13.235 57.395,13.235 C56.7036667,13.235 56.0831667,13.0933333 55.5335,12.81 C54.9838333,12.5266667 54.5531667,12.1215 54.2415,11.5945 C53.9298333,11.0675 53.774,10.4526667 53.774,9.75 C53.774,9.04733333 53.9298333,8.4325 54.2415,7.9055 C54.5531667,7.3785 54.9838333,6.97333333 55.5335,6.69 C56.0831667,6.40666667 56.7036667,6.265 57.395,6.265 C58.3696667,6.265 59.316,6.571 60.234,7.183 L60.234,7.183 L61.662,4.871 C60.404,3.987 58.9816667,3.545 57.395,3.545 C56.1483333,3.545 55.0291667,3.8 54.0375,4.31 C53.0458333,4.82 52.2695,5.54533333 51.7085,6.486 C51.1475,7.42666667 50.867,8.51466667 50.867,9.75 C50.867,10.9853333 51.1475,12.0733333 51.7085,13.014 C52.2695,13.9546667 53.0458333,14.68 54.0375,15.19 C55.0291667,15.7 56.1483333,15.955 57.395,15.955 Z M65.521,15.7 L65.521,3.8 L62.886,3.8 L62.886,15.7 L65.521,15.7 Z M70.23,15.7 L70.23,8.373 L70.247,8.373 L75.925,15.7 L78.169,15.7 L78.169,3.8 L75.534,3.8 L75.534,11.161 L75.517,11.161 L69.822,3.8 L67.595,3.8 L67.595,15.7 L70.23,15.7 Z M86.091,15.955 C87.6776667,15.955 89.1,15.513 90.358,14.629 L90.358,14.629 L88.93,12.317 C88.012,12.929 87.0656667,13.235 86.091,13.235 C85.3996667,13.235 84.7791667,13.0933333 84.2295,12.81 C83.6798333,12.5266667 83.2491667,12.1215 82.9375,11.5945 C82.6258333,11.0675 82.47,10.4526667 82.47,9.75 C82.47,9.04733333 82.6258333,8.4325 82.9375,7.9055 C83.2491667,7.3785 83.6798333,6.97333333 84.2295,6.69 C84.7791667,6.40666667 85.3996667,6.265 86.091,6.265 C87.0656667,6.265 88.012,6.571 88.93,7.183 L88.93,7.183 L90.358,4.871 C89.1,3.987 87.6776667,3.545 86.091,3.545 C84.8443333,3.545 83.7251667,3.8 82.7335,4.31 C81.7418333,4.82 80.9655,5.54533333 80.4045,6.486 C79.8435,7.42666667 79.563,8.51466667 79.563,9.75 C79.563,10.9853333 79.8435,12.0733333 80.4045,13.014 C80.9655,13.9546667 81.7418333,14.68 82.7335,15.19 C83.7251667,15.7 84.8443333,15.955 86.091,15.955 Z M94.217,15.7 L94.217,3.8 L91.582,3.8 L91.582,15.7 L94.217,15.7 Z M98.926,15.7 L98.926,8.373 L98.943,8.373 L104.621,15.7 L106.865,15.7 L106.865,3.8 L104.23,3.8 L104.23,11.161 L104.213,11.161 L98.518,3.8 L96.291,3.8 L96.291,15.7 L98.926,15.7 Z M111.574,15.7 L111.574,8.373 L111.591,8.373 L117.269,15.7 L119.513,15.7 L119.513,3.8 L116.878,3.8 L116.878,11.161 L116.861,11.161 L111.166,3.8 L108.939,3.8 L108.939,15.7 L111.574,15.7 Z M123.355,15.7 L124.205,13.286 L128.778,13.286 L129.628,15.7 L132.569,15.7 L127.877,3.8 L125.089,3.8 L120.397,15.7 L123.355,15.7 Z M127.962,10.94 L125.021,10.94 L126.483,6.724 L127.962,10.94 Z M137.04,15.7 L137.04,6.265 L140.168,6.265 L140.168,3.8 L131.26,3.8 L131.26,6.265 L134.405,6.265 L134.405,15.7 L137.04,15.7 Z M143.925,15.7 L143.925,3.8 L141.29,3.8 L141.29,15.7 L143.925,15.7 Z M146.832,18.488 L148.379,15.7 L148.379,12.963 L145.659,12.963 L145.659,15.7 L146.713,15.7 L145.744,18.488 L146.832,18.488 Z M160.194,15.955 C161.372667,15.955 162.438,15.6943333 163.39,15.173 C164.342,14.6516667 165.092833,13.9206667 165.6425,12.98 C166.192167,12.0393333 166.467,10.9626667 166.467,9.75 C166.467,8.53733333 166.192167,7.46066667 165.6425,6.52 C165.092833,5.57933333 164.342,4.84833333 163.39,4.327 C162.438,3.80566667 161.372667,3.545 160.194,3.545 C159.015333,3.545 157.95,3.80566667 156.998,4.327 C156.046,4.84833333 155.295167,5.57933333 154.7455,6.52 C154.195833,7.46066667 153.921,8.53733333 153.921,9.75 C153.921,10.9626667 154.195833,12.0393333 154.7455,12.98 C155.295167,13.9206667 156.046,14.6516667 156.998,15.173 C157.95,15.6943333 159.015333,15.955 160.194,15.955 Z M160.194,13.235 C159.559333,13.235 158.987,13.0933333 158.477,12.81 C157.967,12.5266667 157.564667,12.1215 157.27,11.5945 C156.975333,11.0675 156.828,10.4526667 156.828,9.75 C156.828,9.04733333 156.975333,8.4325 157.27,7.9055 C157.564667,7.3785 157.967,6.97333333 158.477,6.69 C158.987,6.40666667 159.559333,6.265 160.194,6.265 C160.828667,6.265 161.401,6.40666667 161.911,6.69 C162.421,6.97333333 162.823333,7.3785 163.118,7.9055 C163.412667,8.4325 163.56,9.04733333 163.56,9.75 C163.56,10.4526667 163.412667,11.0675 163.118,11.5945 C162.823333,12.1215 162.421,12.5266667 161.911,12.81 C161.401,13.0933333 160.828667,13.235 160.194,13.235 Z M170.496,15.7 L170.496,10.702 L175.443,10.702 L175.443,15.7 L178.078,15.7 L178.078,3.8 L175.443,3.8 L175.443,8.22 L170.496,8.22 L170.496,3.8 L167.861,3.8 L167.861,15.7 L170.496,15.7 Z" id="CINCINNATI,OH" fill="#7D7D7D" fill-rule="nonzero"></path>
                </g>
            </g>
        </g>
    </g>
</svg>