<svg fill="none" height="542" viewBox="0 0 420 542" width="420" xmlns="http://www.w3.org/2000/svg" xmlns:xlink="http://www.w3.org/1999/xlink"><filter id="a" color-interpolation-filters="sRGB" filterUnits="userSpaceOnUse" height="23" width="23" x="42" y="249"><feFlood flood-opacity="0" result="BackgroundImageFix"/><feColorMatrix in="SourceAlpha" type="matrix" values="0 0 0 0 0 0 0 0 0 0 0 0 0 0 0 0 0 0 127 0"/><feOffset dy="4"/><feGaussianBlur stdDeviation="2"/><feColorMatrix type="matrix" values="0 0 0 0 0 0 0 0 0 0 0 0 0 0 0 0 0 0 0.25 0"/><feBlend in2="BackgroundImageFix" mode="normal" result="effect1_dropShadow"/><feBlend in="SourceGraphic" in2="effect1_dropShadow" mode="normal" result="shape"/></filter><filter id="b" color-interpolation-filters="sRGB" filterUnits="userSpaceOnUse" height="23" width="23" x="193" y="249"><feFlood flood-opacity="0" result="BackgroundImageFix"/><feColorMatrix in="SourceAlpha" type="matrix" values="0 0 0 0 0 0 0 0 0 0 0 0 0 0 0 0 0 0 127 0"/><feOffset dy="4"/><feGaussianBlur stdDeviation="2"/><feColorMatrix type="matrix" values="0 0 0 0 0 0 0 0 0 0 0 0 0 0 0 0 0 0 0.25 0"/><feBlend in2="BackgroundImageFix" mode="normal" result="effect1_dropShadow"/><feBlend in="SourceGraphic" in2="effect1_dropShadow" mode="normal" result="shape"/></filter><filter id="c" color-interpolation-filters="sRGB" filterUnits="userSpaceOnUse" height="23" width="23" x="232" y="249"><feFlood flood-opacity="0" result="BackgroundImageFix"/><feColorMatrix in="SourceAlpha" type="matrix" values="0 0 0 0 0 0 0 0 0 0 0 0 0 0 0 0 0 0 127 0"/><feOffset dy="4"/><feGaussianBlur stdDeviation="2"/><feColorMatrix type="matrix" values="0 0 0 0 0 0 0 0 0 0 0 0 0 0 0 0 0 0 0.25 0"/><feBlend in2="BackgroundImageFix" mode="normal" result="effect1_dropShadow"/><feBlend in="SourceGraphic" in2="effect1_dropShadow" mode="normal" result="shape"/></filter><linearGradient id="d" gradientUnits="userSpaceOnUse" x1="306" x2="605" y1="198" y2="198"><stop offset="0" stop-color="#fff"/><stop offset="1" stop-color="#25284e" stop-opacity=".18"/></linearGradient><linearGradient id="e" gradientUnits="userSpaceOnUse" x1="-42" x2="363.694" y1="254" y2="254"><stop offset="0" stop-color="#25284e"/><stop offset="1" stop-color="#e24000"/></linearGradient><clipPath id="f"><path d="m0 0h542v420h-542z" transform="matrix(0 1 -1 0 420 0)"/></clipPath><mask id="g" height="299" maskUnits="userSpaceOnUse" width="196" x="110" y="100"><path d="m306 100h299v196h-299z" fill="url(#d)" transform="matrix(0 1 -1 0 406 -206)"/></mask><g clip-path="url(#f)"><path d="m0 0h542v420h-542z" fill="#25284e" transform="matrix(0 1 -1 0 420 0)"/><g mask="url(#g)" opacity=".5"><g opacity=".2" stroke="#fff"><path d="m-1560.46 650.753 1748.507-1748.503"/><path d="m-681.745 1529.47 1748.505-1748.507"/><path d="m-1121.1 1090.11 1748.504-1748.504"/><path d="m-242.387 1968.83 1748.507-1748.509"/><path d="m-1340.78 870.434 1748.505-1748.507"/><path d="m-462.066 1749.15 1748.506-1748.507544"/><path d="m-901.424 1309.79 1748.507-1748.505"/><path d="m-1450.62 760.594 1748.506-1748.507"/><path d="m-571.905 1639.31 1748.505-1748.506"/><path d="m-1011.26 1199.95 1748.503-1748.505"/><path d="m-132.548 2078.67 1748.508-1748.509"/><path d="m-1230.94 980.273 1748.504-1748.507"/><path d="m-352.226 1858.99 1748.506-1748.508"/><path d="m-791.585 1419.63 1748.507-1748.505"/><path d="m-1505.54 705.674 1748.506-1748.504"/><path d="m-626.825 1584.39 1748.505-1748.506"/><path d="m-1066.18 1145.03 1748.503-1748.504"/><path d="m-187.467 2023.75 1748.507-1748.509"/><path d="m-1285.86 925.353 1748.505-1748.507"/><path d="m-407.146 1804.07 1748.506-1748.5073"/><path d="m-846.504 1364.71 1748.507-1748.505"/><path d="m-1395.7 815.514 1748.505-1748.507"/><path d="m-516.986 1694.23 1748.506-1748.5076"/><path d="m-956.343 1254.87 1748.506-1748.505"/><path d="m-77.6279 2133.59 1748.5079-1748.509"/><path d="m-1176.02 1035.19 1748.504-1748.504"/><path d="m-297.307 1913.91 1748.507-1748.508"/><path d="m-736.665 1474.55 1748.505-1748.506"/><path d="m-1533 678.215 1748.505-1748.505"/><path d="m-654.285 1556.93 1748.505-1748.507"/><path d="m-1093.64 1117.57 1748.503-1748.504"/><path d="m-214.928 1996.29 1748.508-1748.509"/><path d="m-1313.32 897.894 1748.505-1748.507"/><path d="m-434.606 1776.61 1748.506-1748.5078"/><path d="m-873.964 1337.25 1748.506-1748.505"/><path d="m-1423.16 788.054 1748.505-1748.507"/><path d="m-544.446 1666.77 1748.506-1748.5066"/><path d="m-983.803 1227.41 1748.506-1748.505"/><path d="m-105.088 2106.13 1748.508-1748.509"/><path d="m-1203.48 1007.73 1748.505-1748.504"/><path d="m-324.766 1886.45 1748.506-1748.507"/><path d="m-764.125 1447.09 1748.507-1748.506"/><path d="m-1478.08 733.134 1748.506-1748.504"/><path d="m-599.366 1611.85 1748.506-1748.507"/><path d="m-1038.72 1172.49 1748.503-1748.504"/><path d="m-160.008 2051.21 1748.508-1748.508"/><path d="m-1258.4 952.814 1748.505-1748.507"/><path d="m-379.686 1831.53 1748.506-1748.5075"/><path d="m-819.044 1392.17 1748.506-1748.506"/><path d="m-1368.24 842.974 1748.505-1748.507"/><path d="m-489.526 1721.69 1748.506-1748.5073"/><path d="m-928.884 1282.33 1748.507-1748.505"/><path d="m-1148.56 1062.65 1748.504-1748.504"/><path d="m-269.847 1941.37 1748.507-1748.508"/><path d="m-709.205 1502.01 1748.505-1748.506"/><path d="m-1546.73 664.485 1748.506-1748.505"/><path d="m-668.015 1543.2 1748.505-1748.506"/><path d="m-1107.37 1103.84 1748.504-1748.504"/><path d="m-228.657 1982.56 1748.507-1748.509"/><path d="m-1327.05 884.164 1748.505-1748.507"/><path d="m-448.336 1762.88 1748.506-1748.5073"/><path d="m-887.694 1323.52 1748.506-1748.505"/><path d="m-1436.89 774.324 1748.505-1748.507"/><path d="m-558.176 1653.04 1748.506-1748.5068"/><path d="m-997.533 1213.68 1748.507-1748.504"/><path d="m-118.818 2092.4 1748.508-1748.509"/><path d="m-1217.21 994.004 1748.504-1748.507"/><path d="m-338.497 1872.72 1748.507-1748.508"/><path d="m-777.854 1433.36 1748.506-1748.506"/><path d="m-1491.81 719.405 1748.505-1748.505"/><path d="m-613.095 1598.12 1748.505-1748.507"/><path d="m-1052.45 1158.76 1748.503-1748.504"/><path d="m-173.737 2037.48 1748.507-1748.509"/><path d="m-1272.13 939.084 1748.505-1748.507"/><path d="m-393.416 1817.8 1748.506-1748.5074"/><path d="m-832.774 1378.44 1748.506-1748.505"/><path d="m-1381.97 829.244 1748.505-1748.507"/><path d="m-503.256 1707.96 1748.506-1748.5074"/><path d="m-942.613 1268.6 1748.507-1748.505"/><path d="m-63.8977 2147.32 1748.5077-1748.509"/><path d="m-1162.29 1048.92 1748.504-1748.504"/><path d="m-283.577 1927.64 1748.507-1748.508"/><path d="m-722.935 1488.28 1748.505-1748.506"/><path d="m-1519.27 691.945 1748.506-1748.505"/><path d="m-640.555 1570.66 1748.505-1748.506"/><path d="m-1079.91 1131.3 1748.504-1748.504"/><path d="m-201.197 2010.02 1748.507-1748.508"/><path d="m-1299.59 911.624 1748.504-1748.507"/><path d="m-420.876 1790.34 1748.506-1748.5074"/><path d="m-860.234 1350.98 1748.507-1748.505"/><path d="m-1409.43 801.784 1748.506-1748.507"/><path d="m-530.716 1680.5 1748.506-1748.5071"/><path d="m-970.074 1241.14 1748.507-1748.505"/><path d="m-91.3581 2119.86 1748.5081-1748.509"/><path d="m-1189.75 1021.46 1748.504-1748.504"/><path d="m-311.037 1900.18 1748.507-1748.508"/><path d="m-750.394 1460.82 1748.506-1748.506"/><path d="m-1464.35 746.864 1748.506-1748.504"/><path d="m-585.636 1625.58 1748.506-1748.507"/><path d="m-1024.99 1186.22 1748.503-1748.505"/><path d="m-146.277 2064.94 1748.507-1748.508"/><path d="m-1244.67 966.543 1748.505-1748.507"/><path d="m-365.957 1845.26 1748.507-1748.5074"/><path d="m-805.315 1405.9 1748.507-1748.506"/><path d="m-1354.51 856.704 1748.505-1748.507"/><path d="m-475.795 1735.42 1748.505-1748.507"/><path d="m-915.154 1296.06 1748.507-1748.505"/><path d="m-1134.83 1076.38 1748.504-1748.504"/><path d="m-256.117 1955.1 1748.507-1748.508"/><path d="m-695.475 1515.74 1748.505-1748.506"/><path d="m-1553.6 657.62 1748.511-1748.51"/><path d="m-674.88 1536.34 1748.51-1748.511"/><path d="m-1114.24 1096.98 1748.509-1748.509"/><path d="m-235.522 1975.69 1748.502-1748.503"/><path d="m-1333.92 877.299 1748.51-1748.507"/><path d="m-455.201 1756.01 1748.511-1748.50219"/><path d="m-894.559 1316.66 1748.507-1748.51"/><path d="m-1443.76 767.459 1748.51-1748.507"/><path d="m-565.04 1646.18 1748.51-1748.512"/><path d="m-1004.4 1206.82 1748.508-1748.509"/><path d="m-125.682 2085.53 1748.502-1748.504"/><path d="m-1224.08 987.139 1748.509-1748.508"/><path d="m-345.362 1865.85 1748.502-1748.503"/><path d="m-784.72 1426.5 1748.507-1748.51"/><path d="m-1498.68 712.539 1748.511-1748.509"/><path d="m-619.96 1591.26 1748.51-1748.512"/><path d="m-1059.32 1151.9 1748.509-1748.509"/><path d="m-180.602 2030.61 1748.502-1748.503"/><path d="m-1279 932.219 1748.51-1748.508"/><path d="m-400.281 1810.93 1748.511-1748.5021"/><path d="m-839.639 1371.58 1748.506-1748.51"/><path d="m-1388.84 822.379 1748.51-1748.507"/><path d="m-510.121 1701.1 1748.511-1748.5119"/><path d="m-949.479 1261.74 1748.507-1748.51"/><path d="m-70.7625 2140.45 1748.5025-1748.504"/><path d="m-1169.16 1042.06 1748.509-1748.509"/><path d="m-290.442 1920.77 1748.512-1748.503"/><path d="m-729.8 1481.42 1748.51-1748.512"/><path d="m-1526.14 685.08 1748.511-1748.51"/><path d="m-647.42 1563.8 1748.51-1748.511"/><path d="m-1086.78 1124.44 1748.508-1748.509"/><path d="m-208.063 2003.15 1748.503-1748.504"/><path d="m-1306.46 904.759 1748.509-1748.507"/><path d="m-427.741 1783.47 1748.511-1748.5027"/><path d="m-867.099 1344.12 1748.507-1748.51"/><path d="m-1416.3 794.919 1748.51-1748.507"/><path d="m-537.58 1673.63 1748.51-1748.5022"/><path d="m-976.939 1234.28 1748.507-1748.51"/><path d="m-98.2226 2112.99 1748.5026-1748.504"/><path d="m-1196.62 1014.6 1748.51-1748.509"/><path d="m-317.902 1893.31 1748.512-1748.503"/><path d="m-757.26 1453.96 1748.507-1748.511"/><path d="m-1471.22 740 1748.511-1748.51"/><path d="m-592.501 1618.72 1748.511-1748.512"/><path d="m-1031.86 1179.36 1748.508-1748.51"/><path d="m-153.143 2058.07 1748.503-1748.504"/><path d="m-1251.54 959.679 1748.51-1748.507"/><path d="m-372.822 1838.39 1748.512-1748.5025"/><path d="m-812.18 1399.04 1748.507-1748.511"/><path d="m-1361.38 849.839 1748.51-1748.507"/><path d="m-482.661 1728.55 1748.511-1748.5021"/><path d="m-922.019 1289.2 1748.507-1748.51"/><path d="m-1141.7 1069.52 1748.509-1748.509"/><path d="m-262.982 1948.23 1748.502-1748.503"/><path d="m-702.34 1508.88 1748.51-1748.511"/><path d="m-1539.87 671.35 1748.511-1748.51"/><path d="m-661.15 1550.07 1748.51-1748.511"/><path d="m-1100.51 1110.71 1748.508-1748.509"/><path d="m-221.792 1989.42 1748.502-1748.503"/><path d="m-1320.19 891.029 1748.51-1748.507"/><path d="m-441.471 1769.75 1748.511-1748.512"/><path d="m-880.829 1330.39 1748.506-1748.51"/><path d="m-1430.03 781.189 1748.51-1748.507"/><path d="m-551.311 1659.91 1748.511-1748.5117"/><path d="m-990.668 1220.55 1748.507-1748.51"/><path d="m-111.953 2099.26 1748.503-1748.504"/><path d="m-1210.35 1000.87 1748.51-1748.508"/><path d="m-331.632 1879.58 1748.512-1748.503"/><path d="m-770.989 1440.23 1748.506-1748.511"/><path d="m-1484.95 726.27 1748.511-1748.51"/><path d="m-606.23 1604.99 1748.51-1748.512"/><path d="m-1045.59 1165.63 1748.508-1748.509"/><path d="m-166.873 2044.34 1748.503-1748.503"/><path d="m-1265.27 945.949 1748.51-1748.507"/><path d="m-386.551 1824.66 1748.511-1748.5025"/><path d="m-825.909 1385.31 1748.506-1748.511"/><path d="m-1375.11 836.109 1748.51-1748.507"/><path d="m-496.391 1714.82 1748.511-1748.5024"/><path d="m-935.749 1275.47 1748.507-1748.51"/><path d="m-1155.43 1055.79 1748.51-1748.509"/><path d="m-276.711 1934.5 1748.511-1748.503"/><path d="m-716.07 1495.15 1748.51-1748.511"/><path d="m-1512.41 698.81 1748.511-1748.51"/><path d="m-633.69 1577.53 1748.51-1748.511"/><path d="m-1073.05 1138.17 1748.509-1748.509"/><path d="m-194.332 2016.88 1748.502-1748.504"/><path d="m-1292.73 918.489 1748.51-1748.507"/><path d="m-414.011 1797.2 1748.511-1748.5022"/><path d="m-853.369 1357.85 1748.507-1748.511"/><path d="m-1402.57 808.649 1748.51-1748.507"/><path d="m-523.851 1687.37 1748.511-1748.512"/><path d="m-963.209 1248.01 1748.507-1748.51"/><path d="m-84.4927 2126.72 1748.5027-1748.504"/><path d="m-1182.89 1028.33 1748.509-1748.509"/><path d="m-304.171 1907.04 1748.511-1748.503"/><path d="m-743.529 1467.69 1748.509-1748.511"/><path d="m-1457.49 753.73 1748.511-1748.507"/><path d="m-578.771 1632.45 1748.511-1748.511"/><path d="m-1018.13 1193.09 1748.508-1748.51"/><path d="m-139.412 2071.8 1748.502-1748.504"/><path d="m-1237.81 973.408 1748.51-1748.507"/><path d="m-359.091 1852.12 1748.511-1748.503"/><path d="m-798.45 1412.77 1748.507-1748.51"/><path d="m-1347.65 863.569 1748.51-1748.507"/><path d="m-468.931 1742.28 1748.511-1748.50205"/><path d="m-908.288 1302.93 1748.506-1748.51"/><path d="m-1127.97 1083.25 1748.509-1748.509"/><path d="m-249.252 1961.96 1748.512-1748.503"/><path d="m-688.609 1522.61 1748.509-1748.511"/><path d="m-1557.03 654.187 1748.509-1748.507"/><path d="m-678.312 1532.9 1748.502-1748.504"/><path d="m-1117.67 1093.55 1748.506-1748.512"/><path d="m-238.955 1972.26 1748.505-1748.505"/><path d="m-1337.35 873.866 1748.508-1748.507"/><path d="m-458.634 1752.58 1748.504-1748.50456"/><path d="m-897.992 1313.22 1748.507-1748.503"/><path d="m-1447.19 764.027 1748.508-1748.507"/><path d="m-568.473 1642.74 1748.503-1748.504"/><path d="m-1007.83 1203.38 1748.506-1748.502"/><path d="m-129.115 2082.1 1748.505-1748.506"/><path d="m-1227.51 983.706 1748.507-1748.507"/><path d="m-348.793 1862.42 1748.503-1748.505"/><path d="m-788.152 1423.06 1748.507-1748.503"/><path d="m-1502.11 709.107 1748.508-1748.507"/><path d="m-623.393 1587.82 1748.503-1748.504"/><path d="m-1062.75 1148.47 1748.506-1748.512"/><path d="m-184.035 2027.18 1748.505-1748.506"/><path d="m-1282.43 928.786 1748.507-1748.507"/><path d="m-403.713 1807.5 1748.503-1748.5045"/><path d="m-843.072 1368.14 1748.507-1748.503"/><path d="m-1392.27 818.947 1748.508-1748.507"/><path d="m-513.553 1697.66 1748.503-1748.5046"/><path d="m-952.911 1258.3 1748.507-1748.503"/><path d="m-74.1949 2137.02 1748.5049-1748.506"/><path d="m-1172.59 1038.63 1748.506-1748.511"/><path d="m-293.874 1917.34 1748.504-1748.505"/><path d="m-733.232 1477.98 1748.502-1748.503"/><path d="m-1529.57 681.647 1748.508-1748.507"/><path d="m-650.853 1560.36 1748.503-1748.504"/><path d="m-1090.21 1121 1748.506-1748.502"/><path d="m-211.494 1999.72 1748.504-1748.506"/><path d="m-1309.89 901.326 1748.507-1748.507"/><path d="m-431.173 1780.04 1748.503-1748.5048"/><path d="m-870.531 1340.68 1748.506-1748.503"/><path d="m-1419.73 791.487 1748.508-1748.507"/><path d="m-541.013 1670.2 1748.503-1748.5046"/><path d="m-980.371 1230.85 1748.507-1748.512"/><path d="m-101.655 2109.56 1748.505-1748.506"/><path d="m-1200.05 1011.17 1748.507-1748.511"/><path d="m-321.334 1889.88 1748.504-1748.505"/><path d="m-760.692 1450.52 1748.506-1748.503"/><path d="m-1474.65 736.567 1748.508-1748.507"/><path d="m-595.933 1615.28 1748.503-1748.504"/><path d="m-1035.29 1175.93 1748.506-1748.512"/><path d="m-156.575 2054.64 1748.505-1748.506"/><path d="m-1254.97 956.246 1748.507-1748.507"/><path d="m-376.254 1834.96 1748.504-1748.5054"/><path d="m-815.612 1395.6 1748.507-1748.503"/><path d="m-1364.81 846.407 1748.507-1748.507"/><path d="m-486.093 1725.12 1748.503-1748.5043"/><path d="m-925.452 1285.76 1748.507-1748.502"/><path d="m-1145.13 1066.09 1748.507-1748.512"/><path d="m-266.414 1944.8 1748.504-1748.505"/><path d="m-705.772 1505.44 1748.502-1748.503"/><path d="m-1543.3 667.917 1748.508-1748.507"/><path d="m-664.583 1546.63 1748.503-1748.504"/><path d="m-1103.94 1107.28 1748.506-1748.512"/><path d="m-225.224 1985.99 1748.504-1748.506"/><path d="m-1323.62 887.596 1748.508-1748.507"/><path d="m-444.904 1766.31 1748.504-1748.5045"/><path d="m-884.261 1326.95 1748.506-1748.503"/><path d="m-1433.46 777.757 1748.508-1748.507"/><path d="m-554.743 1656.47 1748.503-1748.5047"/><path d="m-994.101 1217.12 1748.507-1748.512"/><path d="m-115.385 2095.83 1748.505-1748.506"/><path d="m-1213.78 997.436 1748.507-1748.507"/><path d="m-335.064 1876.15 1748.504-1748.505"/><path d="m-774.422 1436.79 1748.507-1748.503"/><path d="m-1488.38 722.837 1748.508-1748.507"/><path d="m-609.663 1601.55 1748.503-1748.504"/><path d="m-1049.02 1162.2 1748.506-1748.512"/><path d="m-170.305 2040.91 1748.505-1748.506"/><path d="m-1268.7 942.516 1748.507-1748.507"/><path d="m-389.983 1821.23 1748.503-1748.505"/><path d="m-829.341 1381.87 1748.506-1748.503"/><path d="m-1378.54 832.677 1748.508-1748.507"/><path d="m-499.823 1711.39 1748.503-1748.5044"/><path d="m-939.181 1272.03 1748.507-1748.503"/><path d="m-1158.86 1052.36 1748.507-1748.512"/><path d="m-280.144 1931.07 1748.504-1748.505"/><path d="m-719.502 1491.71 1748.502-1748.503"/><path d="m-1515.84 695.377 1748.508-1748.507"/><path d="m-637.123 1574.09 1748.503-1748.504"/><path d="m-1076.48 1134.74 1748.506-1748.512"/><path d="m-197.765 2013.45 1748.505-1748.506"/><path d="m-1296.16 915.056 1748.507-1748.507"/><path d="m-417.444 1793.77 1748.504-1748.5047"/><path d="m-856.801 1354.41 1748.507-1748.503"/><path d="m-1406 805.217 1748.508-1748.507"/><path d="m-527.283 1683.93 1748.503-1748.5041"/><path d="m-966.641 1244.57 1748.507-1748.502"/><path d="m-87.925 2123.29 1748.505-1748.507"/><path d="m-1186.32 1024.9 1748.507-1748.511"/><path d="m-307.604 1903.61 1748.504-1748.506"/><path d="m-746.962 1464.25 1748.502-1748.503"/><path d="m-1460.92 750.297 1748.508-1748.507"/><path d="m-582.203 1629.01 1748.503-1748.504"/><path d="m-1021.56 1189.66 1748.506-1748.512"/><path d="m-142.845 2068.37 1748.505-1748.506"/><path d="m-1241.24 969.976 1748.507-1748.507"/><path d="m-362.524 1848.69 1748.504-1748.505"/><path d="m-801.882 1409.33 1748.507-1748.503"/><path d="m-1351.08 860.137 1748.507-1748.507"/><path d="m-472.363 1738.85 1748.503-1748.50405"/><path d="m-911.721 1299.49 1748.506-1748.502"/><path d="m-1131.4 1079.82 1748.507-1748.511"/><path d="m-252.684 1958.53 1748.504-1748.505"/><path d="m-692.042 1519.17 1748.502-1748.503"/><path d="m-1550.16 661.052 1748.504-1748.502"/><path d="m-671.447 1539.77 1748.507-1748.509"/><path d="m-1110.81 1100.41 1748.512-1748.507"/><path d="m-232.09 1979.13 1748.51-1748.511"/><path d="m-1330.48 880.732 1748.503-1748.508"/><path d="m-451.769 1759.45 1748.509-1748.5101"/><path d="m-891.126 1320.09 1748.507-1748.508"/><path d="m-1440.32 770.892 1748.503-1748.507"/><path d="m-561.608 1649.61 1748.508-1748.5095"/><path d="m-1000.97 1210.25 1748.511-1748.507"/><path d="m-122.25 2088.97 1748.51-1748.512"/><path d="m-1220.64 990.571 1748.502-1748.507"/><path d="m-341.929 1869.29 1748.509-1748.51"/><path d="m-781.287 1429.93 1748.507-1748.508"/><path d="m-1495.24 715.972 1748.503-1748.502"/><path d="m-616.528 1594.69 1748.508-1748.509"/><path d="m-1055.89 1155.33 1748.511-1748.507"/><path d="m-177.17 2034.05 1748.51-1748.511"/><path d="m-1275.56 935.651 1748.502-1748.507"/><path d="m-396.849 1814.37 1748.509-1748.5101"/><path d="m-836.207 1375.01 1748.507-1748.508"/><path d="m-1385.4 825.812 1748.503-1748.507"/><path d="m-506.688 1704.53 1748.508-1748.5092"/><path d="m-946.046 1265.17 1748.507-1748.507"/><path d="m-67.3305 2143.89 1748.5105-1748.512"/><path d="m-1165.73 1045.49 1748.511-1748.507"/><path d="m-287.009 1924.21 1748.509-1748.511"/><path d="m-726.367 1484.85 1748.507-1748.509"/><path d="m-1522.7 688.512 1748.503-1748.502"/><path d="m-643.987 1567.23 1748.507-1748.509"/><path d="m-1083.35 1127.87 1748.511-1748.507"/><path d="m-204.63 2006.59 1748.51-1748.511"/><path d="m-1303.02 908.191 1748.502-1748.507"/><path d="m-424.308 1786.91 1748.508-1748.5097"/><path d="m-863.667 1347.55 1748.507-1748.508"/><path d="m-1412.86 798.352 1748.503-1748.507"/><path d="m-534.148 1677.07 1748.508-1748.5095"/><path d="m-973.506 1237.71 1748.507-1748.507"/><path d="m-94.7901 2116.43 1748.5101-1748.511"/><path d="m-1193.18 1018.03 1748.502-1748.506"/><path d="m-314.469 1896.75 1748.509-1748.51"/><path d="m-753.827 1457.39 1748.507-1748.508"/><path d="m-1467.78 743.432 1748.503-1748.502"/><path d="m-589.068 1622.15 1748.508-1748.509"/><path d="m-1028.43 1182.79 1748.511-1748.507"/><path d="m-149.71 2061.51 1748.51-1748.511"/><path d="m-1248.1 963.111 1748.502-1748.507"/><path d="m-369.389 1841.83 1748.509-1748.5104"/><path d="m-808.747 1402.47 1748.507-1748.508"/><path d="m-1357.94 853.272 1748.503-1748.508"/><path d="m-479.228 1731.99 1748.508-1748.5092"/><path d="m-918.586 1292.63 1748.507-1748.507"/><path d="m-1138.27 1072.95 1748.511-1748.506"/><path d="m-259.549 1951.67 1748.509-1748.51"/><path d="m-698.907 1512.31 1748.507-1748.508"/><path d="m-1536.43 674.782 1748.504-1748.502"/><path d="m-657.717 1553.5 1748.507-1748.509"/><path d="m-1097.08 1114.14 1748.511-1748.507"/><path d="m-218.36 1992.86 1748.51-1748.511"/><path d="m-1316.75 894.461 1748.502-1748.507"/><path d="m-438.038 1773.18 1748.508-1748.51"/><path d="m-877.397 1333.82 1748.507-1748.508"/><path d="m-1426.59 784.622 1748.502-1748.507"/><path d="m-547.878 1663.34 1748.508-1748.5096"/><path d="m-987.236 1223.98 1748.507-1748.507"/><path d="m-108.52 2102.7 1748.51-1748.511"/><path d="m-1206.92 1004.3 1748.512-1748.507"/><path d="m-328.199 1883.02 1748.509-1748.511"/><path d="m-767.557 1443.66 1748.507-1748.508"/><path d="m-1481.51 729.702 1748.503-1748.502"/><path d="m-602.798 1608.42 1748.508-1748.509"/><path d="m-1042.16 1169.06 1748.511-1748.507"/><path d="m-163.44 2047.78 1748.51-1748.511"/><path d="m-1261.83 949.381 1748.502-1748.507"/><path d="m-383.119 1828.1 1748.509-1748.5099"/><path d="m-822.477 1388.74 1748.507-1748.508"/><path d="m-1371.67 839.541 1748.503-1748.507"/><path d="m-492.958 1718.26 1748.508-1748.5093"/><path d="m-932.316 1278.9 1748.507-1748.507"/><path d="m-1152 1059.22 1748.512-1748.507"/><path d="m-273.279 1937.94 1748.509-1748.51"/><path d="m-712.637 1498.58 1748.507-1748.508"/><path d="m-1508.97 702.242 1748.503-1748.502"/><path d="m-630.258 1580.96 1748.508-1748.509"/><path d="m-1069.62 1141.6 1748.511-1748.507"/><path d="m-190.9 2020.32 1748.51-1748.511"/><path d="m-1289.29 921.921 1748.502-1748.507"/><path d="m-410.579 1800.64 1748.509-1748.5102"/><path d="m-849.937 1361.28 1748.507-1748.508"/><path d="m-1399.13 812.082 1748.503-1748.507"/><path d="m-520.418 1690.8 1748.508-1748.509"/><path d="m-959.776 1251.44 1748.506-1748.507"/><path d="m-81.0601 2130.16 1748.5101-1748.512"/><path d="m-1179.45 1031.76 1748.502-1748.506"/><path d="m-300.739 1910.48 1748.509-1748.51"/><path d="m-740.097 1471.12 1748.507-1748.508"/><path d="m-1454.05 757.162 1748.503-1748.507"/><path d="m-575.338 1635.88 1748.508-1748.509"/><path d="m-1014.7 1196.52 1748.511-1748.507"/><path d="m-135.98 2075.24 1748.51-1748.511"/><path d="m-1234.37 976.841 1748.502-1748.507"/><path d="m-355.659 1855.56 1748.509-1748.51"/><path d="m-795.017 1416.2 1748.507-1748.508"/><path d="m-1344.21 867.002 1748.503-1748.507"/><path d="m-465.498 1745.72 1748.508-1748.50906"/><path d="m-904.856 1306.36 1748.506-1748.507"/><path d="m-1124.53 1086.68 1748.502-1748.506"/><path d="m-245.819 1965.4 1748.509-1748.51"/><path d="m-685.177 1526.04 1748.507-1748.508"/></g></g><path d="m355 256.5h-392" stroke="url(#e)" stroke-width="5"/><path d="m204.5 257v182" stroke="#fff" stroke-opacity=".8"/><path d="m243.5 257v96" stroke="#fff" stroke-opacity=".8"/><path d="m54.5 254v235" stroke="#fff" stroke-opacity=".8"/><g filter="url(#a)"><circle cx="53.5" cy="256.5" fill="#e24000" r="7.5" transform="matrix(0 -1 1 0 -203 310)"/><circle cx="53.5" cy="256.5" r="6.5" stroke="#fff" stroke-width="2" transform="matrix(0 -1 1 0 -203 310)"/></g><g filter="url(#b)"><circle cx="204.5" cy="256.5" fill="#e24000" r="7.5" transform="matrix(0 -1 1 0 -52 461)"/><circle cx="204.5" cy="256.5" r="6.5" stroke="#fff" stroke-width="2" transform="matrix(0 -1 1 0 -52 461)"/></g><g filter="url(#c)"><circle cx="243.5" cy="256.5" fill="#e24000" r="7.5" transform="matrix(0 -1 1 0 -13 500)"/><circle cx="243.5" cy="256.5" r="6.5" stroke="#fff" stroke-width="2" transform="matrix(0 -1 1 0 -13 500)"/></g><path d="m374 256.5-20.25 11.691v-23.382z" fill="#e24000"/><path d="m133.528 37.6c1.672 0 2.956.4473 3.85 1.342.895.88 1.342 2.0313 1.342 3.454 0 1.4667-.447 2.6547-1.342 3.564-.894.8947-2.178 1.342-3.85 1.342h-2.552v5.698h-2.816v-15.4zm-.308 7.106c.778 0 1.386-.1907 1.826-.572.44-.396.66-.968.66-1.716 0-.7333-.22-1.2833-.66-1.65-.44-.3813-1.048-.572-1.826-.572h-2.244v4.51z" fill="#fff"/><path d="m150.526 50.36v2.64h-9.24v-15.4h9.13v2.64h-6.314v3.08h5.764v2.596h-5.764v4.444z" fill="#fff"/><path d="m157.575 46.862h-1.034v6.138h-2.816v-15.4h5.676c1.012 0 1.892.198 2.64.594.748.3813 1.32.924 1.716 1.628.411.704.616 1.518.616 2.442 0 1.144-.323 2.1193-.968 2.926-.631.792-1.511 1.3053-2.64 1.54l4.554 6.27h-3.542zm-1.034-2.486h2.42c.792 0 1.386-.176 1.782-.528.411-.3667.616-.88.616-1.54 0-.6453-.205-1.1587-.616-1.54-.396-.3813-.99-.572-1.782-.572h-2.42z" fill="#fff"/><path d="m170.591 53h-2.838v-15.4h2.838z" fill="#fff"/><path d="m181.608 37.27c1.51 0 2.882.3373 4.114 1.012s2.2 1.628 2.904 2.86c.704 1.2173 1.056 2.6033 1.056 4.158s-.352 2.948-1.056 4.18c-.704 1.2173-1.672 2.1633-2.904 2.838s-2.604 1.012-4.114 1.012c-1.511 0-2.882-.3373-4.114-1.012-1.218-.6747-2.178-1.6207-2.882-2.838-.704-1.232-1.056-2.6253-1.056-4.18s.352-2.9407 1.056-4.158c.704-1.232 1.664-2.1853 2.882-2.86 1.232-.6747 2.603-1.012 4.114-1.012zm0 2.882c-.954 0-1.812.22-2.574.66-.748.4253-1.335 1.034-1.76 1.826-.426.7773-.638 1.6647-.638 2.662s.212 1.892.638 2.684c.425.7773 1.012 1.386 1.76 1.826.762.4253 1.62.638 2.574.638.953 0 1.804-.2127 2.552-.638.762-.44 1.356-1.0487 1.782-1.826.425-.7773.638-1.672.638-2.684s-.213-1.9067-.638-2.684c-.426-.7773-1.02-1.3787-1.782-1.804-.748-.44-1.599-.66-2.552-.66z" fill="#fff"/><path d="m197.58 37.6c1.555 0 2.933.3153 4.136.946 1.217.616 2.163 1.5033 2.838 2.662.689 1.1587 1.034 2.5227 1.034 4.092s-.345 2.9333-1.034 4.092c-.675 1.1587-1.621 2.0533-2.838 2.684-1.203.616-2.581.924-4.136.924h-4.928v-15.4zm-2.112 2.596v10.208h2.244c.939 0 1.767-.198 2.486-.594.733-.396 1.305-.9753 1.716-1.738.425-.7627.638-1.6867.638-2.772s-.213-2.0093-.638-2.772c-.411-.7627-.983-1.342-1.716-1.738-.719-.396-1.547-.594-2.486-.594z" fill="#fff"/><path d="m228.049 46.928c0 1.2907-.249 2.42-.748 3.388-.498.9533-1.224 1.694-2.178 2.222-.953.5133-2.09.77-3.41.77-2.009 0-3.571-.572-4.686-1.716-1.114-1.144-1.672-2.6987-1.672-4.664v-9.328h2.97v9.152c0 1.1147.308 2.002.924 2.662s1.438.99 2.464.99c1.027 0 1.841-.33 2.442-.99.616-.66.924-1.5473.924-2.662v-9.152h2.97z" fill="#fff"/><path d="m244.601 53h-2.618l-7.48-10.56h-.022v10.56h-2.816v-15.4h2.618l7.48 10.582h.022v-10.582h2.816z" fill="#fff"/><path d="m253.307 37.6c1.555 0 2.933.3153 4.136.946 1.217.616 2.163 1.5033 2.838 2.662.689 1.1587 1.034 2.5227 1.034 4.092s-.345 2.9333-1.034 4.092c-.675 1.1587-1.621 2.0533-2.838 2.684-1.203.616-2.581.924-4.136.924h-4.928v-15.4zm-2.112 2.596v10.208h2.244c.939 0 1.767-.198 2.486-.594.733-.396 1.305-.9753 1.716-1.738.425-.7627.638-1.6867.638-2.772s-.213-2.0093-.638-2.772c-.411-.7627-.983-1.342-1.716-1.738-.719-.396-1.547-.594-2.486-.594z" fill="#fff"/><path d="m273.517 50.36v2.64h-9.24v-15.4h9.13v2.64h-6.314v3.08h5.764v2.596h-5.764v4.444z" fill="#fff"/><path d="m280.565 46.862h-1.034v6.138h-2.816v-15.4h5.676c1.012 0 1.892.198 2.64.594.748.3813 1.32.924 1.716 1.628.411.704.616 1.518.616 2.442 0 1.144-.322 2.1193-.968 2.926-.63.792-1.51 1.3053-2.64 1.54l4.554 6.27h-3.542zm-1.034-2.486h2.42c.792 0 1.386-.176 1.782-.528.411-.3667.616-.88.616-1.54 0-.6453-.205-1.1587-.616-1.54-.396-.3813-.99-.572-1.782-.572h-2.42z" fill="#fff"/><path d="m167.823 75.502h-6.336l-1.298 3.498h-3.124l6.182-15.4h2.816l6.182 15.4h-3.124zm-.924-2.552-2.244-6.05-2.244 6.05z" fill="#fff"/><path d="m187.5 79h-2.618l-7.48-10.56h-.022v10.56h-2.816v-15.4h2.618l7.48 10.582h.022v-10.582h2.816z" fill="#fff"/><path d="m200.564 75.502h-6.336l-1.298 3.498h-3.124l6.182-15.4h2.816l6.182 15.4h-3.124zm-.924-2.552-2.244-6.05-2.244 6.05z" fill="#fff"/><path d="m210.12 76.338h6.424v2.662h-9.24v-15.4h2.816z" fill="#fff"/><path d="m223.613 73.082v5.918h-2.838v-5.874l-5.148-9.526h3.322l3.212 6.622h.066l3.212-6.622h3.322z" fill="#fff"/><path d="m234.477 63.27c1.452 0 2.956.3593 4.51 1.078l-1.21 2.574c-1.232-.6307-2.324-.946-3.278-.946-1.07 0-1.606.374-1.606 1.122 0 .2933.088.5573.264.792.176.22.484.484.924.792l2.662 1.87c.895.616 1.555 1.2613 1.98 1.936.44.66.66 1.4593.66 2.398 0 1.4373-.469 2.5373-1.408 3.3-.924.7627-2.207 1.144-3.85 1.144-.968 0-1.914-.132-2.838-.396-.909-.264-1.738-.6307-2.486-1.1l1.254-2.574c1.526.8947 2.912 1.342 4.158 1.342.704 0 1.24-.1393 1.606-.418.382-.2933.572-.6747.572-1.144 0-.3667-.124-.6967-.374-.99-.249-.2933-.645-.638-1.188-1.034l-2.486-1.782c-.821-.572-1.437-1.1807-1.848-1.826-.396-.66-.594-1.4007-.594-2.222 0-1.2173.396-2.1707 1.188-2.86.807-.704 1.936-1.056 3.388-1.056z" fill="#fff"/><path d="m245.202 79h-2.838v-15.4h2.838z" fill="#fff"/><path d="m253.446 63.27c1.452 0 2.956.3593 4.51 1.078l-1.21 2.574c-1.232-.6307-2.324-.946-3.278-.946-1.07 0-1.606.374-1.606 1.122 0 .2933.088.5573.264.792.176.22.484.484.924.792l2.662 1.87c.895.616 1.555 1.2613 1.98 1.936.44.66.66 1.4593.66 2.398 0 1.4373-.469 2.5373-1.408 3.3-.924.7627-2.207 1.144-3.85 1.144-.968 0-1.914-.132-2.838-.396-.909-.264-1.738-.6307-2.486-1.1l1.254-2.574c1.526.8947 2.912 1.342 4.158 1.342.704 0 1.24-.1393 1.606-.418.382-.2933.572-.6747.572-1.144 0-.3667-.124-.6967-.374-.99-.249-.2933-.645-.638-1.188-1.034l-2.486-1.782c-.821-.572-1.437-1.1807-1.848-1.826-.396-.66-.594-1.4007-.594-2.222 0-1.2173.396-2.1707 1.188-2.86.807-.704 1.936-1.056 3.388-1.056z" fill="#fff"/><path d="m306 130.5v-29.5h-196v29.5" stroke="#fff" stroke-width="2"/><g fill="#fff"><path d="m307 244h25v2h-25z" transform="matrix(0 1 -1 0 551 -63)"/><path d="m111 244h25v2h-25z" transform="matrix(0 1 -1 0 355 133)"/><path d="m64.3605 241.816c.5714.572.8683 1.185.891 1.842.0226.656-.2574 1.275-.8401 1.858-.2885.288-.5798.495-.8739.619-.2999.119-.5997.176-.8995.17-.7071-.006-1.3859-.334-2.0365-.984l1.0607-1.061c.1471.147.3055.283.4752.407.1697.114.3535.173.5515.179.1245 0 .2518-.02.3819-.06.1301-.051.2517-.133.3648-.246.2489-.249.3592-.506.331-.772-.0283-.266-.1669-.523-.4158-.772l-4.3445-4.345 1.0946-1.094z"/><path d="m69.5977 235.476c.3564.356.6336.735.8316 1.137.198.39.3055.792.3224 1.205.0113.407-.0707.817-.246 1.23-.1754.413-.4582.815-.8486 1.205-.3903.391-.7919.673-1.2049.849-.4129.175-.8231.257-1.2303.246-.413-.017-.8175-.122-1.2134-.314-.396-.204-.7722-.484-1.1286-.84l-3.7081-3.708 1.0946-1.095 3.6911 3.691c.43.43.8797.676 1.3492.739.4695.062.9221-.125 1.3576-.561.4356-.435.6223-.888.5601-1.357-.0622-.47-.3083-.919-.7382-1.349l-3.6911-3.691 1.0946-1.095z"/><path d="m73.1415 236.548-6.016-6.016 1.0946-1.094 4.9808 4.98 2.7917-2.791 1.0352 1.035z"/><path d="m77.264 227.81 2.308 2.308-1.103 1.103-2.308-2.308-5.7955-1.621 1.188-1.188 4.0814 1.112-1.1116-4.082 1.137-1.137z"/><path d="m83.7605 225.929-.8485-.848-.4412-5.041c-.017-.22-.0651-.421-.1443-.602-.0848-.187-.1867-.339-.3055-.458-.2093-.209-.4497-.32-.7212-.331-.2659-.017-.5204.096-.7637.339-.2545.255-.3677.532-.3394.832s.1612.568.3988.806l-1.0861 1.086c-.2602-.26-.4554-.54-.5855-.84-.1357-.305-.2036-.617-.2036-.933 0-.317.0735-.634.2206-.951.1414-.322.3649-.636.6703-.942.2546-.254.5318-.452.8316-.594.2941-.147.5968-.229.9079-.246.3055-.022.6053.023.8994.136.2999.108.5799.291.8401.552.1301.13.2404.28.3309.449.0962.164.1754.34.2376.527.0622.175.1103.359.1443.551.0395.187.0678.373.0848.56l.3224 3.581 2.359-2.359.9588.959z"/><path d="m90.5938 215.091c.3112.311.5516.642.7213.993.1697.35.2602.707.2715 1.069s-.0566.724-.2036 1.086c-.1528.356-.3932.699-.7213 1.027-.2941.294-.6053.52-.9334.678-.3337.153-.6703.241-1.0097.264-.3394.011-.676-.043-1.0098-.162-.3281-.124-.6392-.316-.9333-.577l1.0606-1.06c.3055.282.6251.41.9588.381.3395-.033.6506-.192.9334-.475.1754-.175.297-.353.3649-.534.0622-.187.0792-.368.0509-.543-.0283-.187-.0962-.368-.2036-.543-.1075-.176-.2405-.343-.3988-.501-.3112-.311-.6421-.489-.9928-.535-.3564-.05-.7043.094-1.0437.433-.1754.176-.2998.385-.3734.628-.0735.243-.0848.487-.0339.73l-1.0437 1.044-3.1989-3.454 3.5807-3.581.9504.951-2.6644 2.664 1.2813 1.417c.0056-.266.0707-.523.1952-.772.1301-.255.3281-.515.5939-.781.2942-.294.6053-.503.9334-.628.3338-.13.6647-.184.9928-.161s.6533.116.9758.28c.3224.164.6222.385.8994.662z"/><path d="m90.8426 208.852 4.9978 4.997-1.0946 1.095-4.9978-4.998-1.782 1.782-1.0182-1.018 4.6584-4.659 1.0183 1.019z"/><path d="m101.937 207.752-2.6215-2.622-2.4692 2.47 2.6219 2.622-1.0946 1.094-6.016-6.016 1.0946-1.095 2.3504 2.351 2.4692-2.469-2.3504-2.351 1.0946-1.094 6.016 6.016z"/><path d="m61.0753 112-.552-1.632h-3.384l-.552 1.632h-1.56l2.988-8.508h1.692l2.988 8.508zm-2.244-6.612-1.212 3.588h2.424z"/><path d="m69.9436 108.736c0 .504-.072.968-.216 1.392-.136.416-.344.776-.624 1.08-.28.296-.628.528-1.044.696s-.9.252-1.452.252-1.036-.084-1.452-.252-.764-.4-1.044-.696c-.28-.304-.492-.664-.636-1.08-.136-.424-.204-.888-.204-1.392v-5.244h1.548v5.22c0 .608.144 1.1.432 1.476s.74.564 1.356.564 1.068-.188 1.356-.564.432-.868.432-1.476v-5.22h1.548z"/><path d="m77.1513 112-.18-.936c-.064.12-.16.248-.288.384-.128.128-.288.244-.48.348-.184.104-.392.188-.624.252-.232.072-.48.108-.744.108-.496 0-.96-.068-1.392-.204-.424-.136-.804-.384-1.14-.744-.224-.232-.408-.476-.552-.732-.136-.256-.248-.528-.336-.816-.08-.288-.136-.588-.168-.9-.032-.32-.048-.656-.048-1.008 0-.344.012-.672.036-.984.032-.32.088-.62.168-.9s.192-.548.336-.804.332-.5.564-.732c.328-.328.716-.576 1.164-.744.456-.168.912-.252 1.368-.252.528 0 1.008.088 1.44.264s.792.412 1.08.708c.208.216.384.464.528.744.144.272.228.596.252.972h-1.584c-.016-.168-.06-.312-.132-.432s-.152-.236-.24-.348c-.296-.344-.748-.516-1.356-.516-.248 0-.5.052-.756.156-.256.096-.468.236-.636.42-.144.152-.26.328-.348.528s-.156.412-.204.636c-.048.216-.08.436-.096.66-.008.224-.012.432-.012.624s.008.404.024.636c.016.224.048.448.096.672s.116.44.204.648c.088.2.204.376.348.528.168.184.376.32.624.408.256.088.508.132.756.132.28 0 .524-.044.732-.132.216-.088.396-.208.54-.36.232-.24.38-.492.444-.756.072-.272.108-.572.108-.9h-2.028v-1.284h3.528v4.656z"/><path d="m86.3264 108.736c0 .504-.072.968-.216 1.392-.136.416-.344.776-.624 1.08-.28.296-.628.528-1.044.696s-.9.252-1.452.252-1.036-.084-1.452-.252-.764-.4-1.044-.696c-.28-.304-.492-.664-.636-1.08-.136-.424-.204-.888-.204-1.392v-5.244h1.548v5.22c0 .608.144 1.1.432 1.476s.74.564 1.356.564 1.068-.188 1.356-.564.432-.868.432-1.476v-5.22h1.548z"/><path d="m94.2661 109.468c0 .4-.068.744-.204 1.032-.128.288-.296.536-.504.744-.328.328-.728.564-1.2.708-.464.136-.96.204-1.488.204-.456 0-.908-.064-1.356-.192-.44-.136-.836-.364-1.188-.684-.256-.232-.468-.516-.636-.852-.168-.344-.252-.72-.252-1.128h1.584c0 .208.04.404.12.588.088.176.196.328.324.456.184.184.404.308.66.372.264.056.52.084.768.084.296 0 .576-.032.84-.096.264-.072.476-.192.636-.36.096-.104.176-.212.24-.324.064-.12.096-.284.096-.492 0-.312-.104-.544-.312-.696-.2-.16-.432-.264-.696-.312-.288-.056-.604-.096-.948-.12s-.656-.06-.936-.108c-.296-.048-.576-.132-.84-.252-.256-.12-.484-.276-.684-.468-.192-.2-.348-.436-.468-.708-.112-.28-.168-.596-.168-.948 0-.336.068-.644.204-.924s.316-.532.54-.756c.28-.28.64-.5 1.08-.66s.912-.24 1.416-.24c.456 0 .892.072 1.308.216.424.136.78.34 1.068.612.256.24.46.512.612.816.16.304.244.636.252.996h-1.584c-.008-.152-.048-.3-.12-.444-.064-.152-.148-.284-.252-.396-.136-.144-.328-.256-.576-.336s-.488-.12-.72-.12c-.24 0-.488.032-.744.096-.248.064-.46.188-.636.372-.088.096-.16.2-.216.312-.048.112-.072.248-.072.408 0 .28.08.496.24.648.16.144.368.236.624.276.272.04.576.076.912.108.344.032.656.068.936.108.32.048.62.136.9.264.288.12.536.284.744.492.216.2.384.444.504.732.128.288.192.612.192.972z"/><path d="m98.5658 104.932v7.068h-1.548v-7.068h-2.52v-1.44h6.5882v1.44z"/><path d="m84.8109 122.68c0 .304-.008.624-.024.96-.016.328-.056.652-.12.972s-.156.628-.276.924-.288.556-.504.78c-.232.24-.504.44-.816.6s-.72.24-1.224.24c-.432 0-.804-.06-1.116-.18-.312-.128-.576-.296-.792-.504-.232-.224-.408-.472-.528-.744-.12-.28-.18-.544-.18-.792h1.512c.024.256.12.468.288.636.192.2.488.3.888.3.2 0 .36-.032.48-.096.128-.064.244-.144.348-.24.224-.208.376-.484.456-.828.08-.352.12-.712.12-1.08-.096.112-.208.208-.336.288-.128.072-.264.132-.408.18s-.288.084-.432.108-.28.036-.408.036c-.448 0-.844-.068-1.188-.204s-.632-.328-.864-.576c-.232-.256-.408-.556-.528-.9-.112-.352-.168-.74-.168-1.164 0-.408.06-.788.18-1.14s.3-.66.54-.924.54-.468.9-.612c.36-.152.776-.228 1.248-.228.392 0 .748.068 1.068.204.32.128.6.312.84.552.24.232.436.508.588.828s.26.668.324 1.044c.048.272.08.536.096.792.024.248.036.504.036.768zm-1.632-1.224c0-.456-.108-.84-.324-1.152s-.548-.468-.996-.468c-.456 0-.796.148-1.02.444-.216.296-.324.688-.324 1.176 0 .432.112.8.336 1.104s.568.456 1.032.456c.408 0 .724-.148.948-.444.232-.304.348-.676.348-1.116z"/><path d="m89.8353 119.932v7.068h-1.548v-7.068h-2.52v-1.44h6.588v1.44z"/><path d="m98.4579 127v-3.708h-3.492v3.708h-1.548v-8.508h1.548v3.324h3.492v-3.324h1.5481v8.508z"/><path d="m208.762 239.363-1.544-.764-2.393 2.393.763 1.544-1.103 1.104-3.903-8.129 1.196-1.197 8.129 3.903zm-6.262-3.089 1.68 3.394 1.714-1.714z"/><path d="m212.725 230.784c.356.357.633.736.831 1.137.198.391.306.792.323 1.205.011.407-.071.818-.246 1.23-.176.413-.459.815-.849 1.205-.39.391-.792.674-1.205.849s-.823.257-1.23.246c-.413-.017-.818-.122-1.214-.314-.396-.204-.772-.484-1.128-.84l-3.708-3.708 1.094-1.095 3.692 3.691c.429.43.879.676 1.349.739.469.062.922-.125 1.357-.56.436-.436.623-.889.56-1.358-.062-.47-.308-.919-.738-1.349l-3.691-3.691 1.095-1.095z"/><path d="m220.129 227.996-.789-.535c.04.13.062.289.068.475 0 .181-.031.376-.093.586-.057.203-.145.41-.263.619-.113.215-.263.416-.45.603-.351.35-.727.63-1.129.84-.396.203-.84.297-1.332.28-.322-.006-.625-.048-.908-.128-.277-.085-.548-.198-.814-.339-.261-.147-.512-.32-.755-.518-.249-.203-.498-.43-.747-.679-.243-.243-.467-.483-.671-.721-.203-.249-.376-.5-.517-.755-.142-.255-.252-.523-.331-.806s-.119-.588-.119-.916c0-.464.099-.914.297-1.35.204-.441.467-.823.789-1.145.374-.373.775-.651 1.205-.832s.852-.268 1.264-.263c.3.006.6.057.9.153.294.091.583.26.865.509l-1.12 1.12c-.13-.107-.263-.178-.398-.212-.136-.034-.275-.059-.416-.076-.453-.034-.894.164-1.324.594-.175.175-.317.39-.424.645-.113.248-.164.497-.153.746.006.21.048.416.127.62.08.203.181.401.306.594.119.186.252.364.399.534.152.164.297.314.432.45.136.136.292.28.467.433.17.147.351.283.543.407s.393.229.603.314c.203.079.41.122.619.127.249.012.492-.039.73-.153.243-.118.452-.265.628-.441.198-.198.339-.401.424-.611.09-.215.133-.427.127-.636-.005-.334-.079-.617-.22-.849-.142-.243-.329-.48-.56-.712l-1.434 1.434-.908-.908 2.494-2.495 3.293 3.292z"/><path d="m224.309 219.2c.356.356.634.735.832 1.137.198.39.305.792.322 1.205.011.407-.071.817-.246 1.23s-.458.815-.849 1.205c-.39.39-.791.673-1.204.849-.413.175-.823.257-1.231.246-.413-.017-.817-.122-1.213-.314-.396-.204-.772-.484-1.129-.84l-3.708-3.708 1.095-1.095 3.691 3.691c.43.43.88.676 1.349.738.47.062.922-.124 1.358-.56.435-.435.622-.888.56-1.357-.062-.47-.309-.92-.738-1.35l-3.692-3.691 1.095-1.094z"/><path d="m230.441 214.103c.283.283.478.574.585.874.114.294.17.588.17.883 0 .463-.116.913-.348 1.349-.232.424-.534.823-.908 1.196-.322.323-.687.597-1.094.823-.408.215-.849.334-1.324.357-.345.017-.696-.034-1.052-.153-.362-.125-.688-.331-.976-.619l1.12-1.121c.147.148.314.258.501.331.186.063.37.094.551.094.26 0 .504-.068.73-.204.226-.147.427-.308.602-.484.21-.209.385-.43.526-.661.136-.238.201-.473.196-.705-.006-.141-.026-.274-.06-.399-.039-.13-.133-.268-.28-.415-.22-.221-.458-.311-.713-.272-.254.028-.492.119-.712.272-.244.164-.495.359-.755.585-.261.226-.507.422-.739.586-.243.175-.5.314-.772.415-.266.097-.537.148-.814.153-.278-.005-.555-.062-.832-.17-.277-.118-.54-.302-.789-.551-.238-.238-.407-.504-.509-.798s-.153-.599-.153-.916c0-.396.099-.806.297-1.23.198-.425.475-.815.832-1.171.322-.323.681-.58 1.077-.773.396-.203.792-.311 1.188-.322.351-.011.687.037 1.01.144.328.102.622.277.882.526l-1.12 1.12c-.113-.101-.246-.178-.399-.229-.152-.062-.305-.096-.458-.102-.198-.005-.413.051-.645.17s-.43.26-.594.424c-.169.17-.322.368-.458.594-.13.221-.192.459-.186.713.005.13.028.255.067.373.046.114.125.227.238.34.198.198.407.294.628.288.215-.011.427-.093.636-.246.221-.164.461-.353.722-.568.265-.221.512-.416.738-.586.26-.192.534-.342.823-.449.288-.119.58-.179.874-.179.294-.011.585.043.874.162.294.113.568.297.823.551z"/><path d="m230.274 207.855 4.998 4.998-1.095 1.095-4.998-4.998-1.782 1.782-1.018-1.018 4.658-4.659 1.019 1.019z"/><path d="m240.958 207.167-.849-.848-.441-5.041c-.017-.22-.065-.421-.144-.602-.085-.187-.187-.34-.306-.458-.209-.21-.449-.32-.721-.331-.266-.017-.52.096-.764.339-.254.255-.367.532-.339.832.028.299.161.568.399.806l-1.086 1.086c-.261-.26-.456-.54-.586-.84-.136-.306-.203-.617-.203-.934 0-.316.073-.633.22-.95.142-.322.365-.636.671-.942.254-.254.531-.452.831-.594.294-.147.597-.229.908-.246.305-.022.605.023.899.136.3.107.58.291.84.552.131.13.241.28.331.449.097.164.176.34.238.526.062.176.11.36.144.552.04.187.068.373.085.56l.323 3.581 2.358-2.359.959.959z"/><path d="m248.003 197.746 1.188 1.188-1.06 1.06-1.188-1.188-2.631 2.631-1.001-1.001-1.544-5.872 1.154-1.154 1.552 5.948 1.511-1.51-1.383-1.384 1.06-1.06 1.383 1.383.747-.747.959.959z"/><path d="m248.04 190.089 4.998 4.998-1.095 1.095-4.998-4.998-1.782 1.782-1.018-1.018 4.659-4.659 1.018 1.018z"/><path d="m259.135 188.99-2.622-2.622-2.469 2.469 2.622 2.622-1.095 1.095-6.016-6.016 1.094-1.095 2.351 2.351 2.469-2.47-2.35-2.35 1.094-1.095 6.016 6.017z"/><path d="m255.778 238.494c.282.283.478.574.585.874.113.294.17.589.17.883 0 .464-.116.913-.348 1.349-.232.424-.535.823-.908 1.196-.322.323-.687.597-1.095.823-.407.215-.848.334-1.323.357-.345.017-.696-.034-1.053-.153-.362-.124-.687-.331-.975-.619l1.12-1.12c.147.147.314.257.5.33.187.063.371.094.552.094.26 0 .503-.068.73-.204.226-.147.427-.308.602-.483.209-.21.385-.43.526-.662.136-.238.201-.473.195-.705-.005-.141-.025-.274-.059-.398-.04-.131-.133-.269-.28-.416-.221-.221-.458-.311-.713-.272-.254.029-.492.119-.713.272-.243.164-.495.359-.755.585-.26.227-.506.422-.738.586-.243.175-.501.314-.772.416-.266.096-.538.147-.815.152-.277-.005-.554-.062-.831-.169-.278-.119-.541-.303-.789-.552-.238-.238-.408-.503-.51-.798-.101-.294-.152-.599-.152-.916 0-.396.099-.806.297-1.23.198-.425.475-.815.831-1.171.323-.323.682-.58 1.078-.772.396-.204.792-.312 1.188-.323.351-.011.687.037 1.01.144.328.102.622.278.882.526l-1.12 1.12c-.113-.101-.246-.178-.399-.229-.153-.062-.305-.096-.458-.101-.198-.006-.413.05-.645.169s-.43.26-.594.425c-.17.169-.322.367-.458.593-.13.221-.192.459-.187.713.006.13.029.255.068.374.045.113.125.226.238.339.198.198.407.294.628.289.215-.012.427-.094.636-.247.221-.164.461-.353.721-.568.266-.221.512-.416.738-.586.261-.192.535-.342.824-.449.288-.119.579-.178.874-.178.294-.012.585.042.874.161.294.113.568.297.823.551z"/><path d="m258.551 239.302-6.016-6.016 4.285-4.285.993.992-3.191 3.191 1.4 1.4 2.809-2.809.984.985-2.808 2.808 1.646 1.646 3.19-3.19.993.993z"/><path d="m264.269 225.403c.289.289.507.597.654.925s.215.668.203 1.019c-.005.345-.093.698-.263 1.06-.175.357-.435.707-.78 1.052l-1.273 1.273 2.155 2.156-1.086 1.086-6.016-6.016 2.359-2.359c.345-.345.698-.603 1.061-.773.356-.175.707-.265 1.052-.271.345-.017.681.048 1.009.195.329.147.637.365.925.653zm-1.094 1.112c-.289-.288-.608-.438-.959-.45-.351-.011-.71.167-1.078.535l-1.23 1.23 1.943 1.943 1.23-1.23c.368-.368.549-.724.543-1.069-.011-.351-.161-.67-.449-.959z"/><path d="m266.399 221.458 4.998 4.997-1.094 1.095-4.998-4.998-1.782 1.782-1.018-1.018 4.658-4.659 1.018 1.019z"/><path d="m273.93 223.922-6.016-6.016 4.285-4.285.993.993-3.19 3.19 1.4 1.4 2.808-2.808.985.984-2.809 2.809 1.646 1.646 3.191-3.191.993.993z"/><path d="m284.239 213.613-4.293-4.293 2.647 5.77-.806.806-5.812-2.707 4.344 4.344-1.06 1.061-6.016-6.016 1.476-1.476 5.863 2.706-2.698-5.871 1.4-1.401 6.016 6.017z"/><path d="m289.568 204.789c.271.272.475.571.611.9.135.328.178.681.127 1.06-.057.419-.198.786-.424 1.103-.227.317-.484.62-.773.908l-2.392 2.393-6.025-6.024 2.393-2.393c.243-.244.506-.461.789-.654.289-.198.6-.333.933-.407.368-.074.727-.054 1.078.059.356.108.665.292.925.552.124.124.235.263.331.416.096.152.172.319.229.5.051.176.076.36.076.552 0 .181-.034.362-.102.543.419-.158.824-.184 1.214-.076.39.096.727.285 1.01.568zm-3.802-1.324c-.141-.141-.285-.234-.433-.28-.152-.051-.299-.062-.441-.034-.147.023-.288.08-.424.17-.141.085-.274.19-.399.314l-1.349 1.349 1.51 1.511 1.375-1.375c.124-.124.229-.252.314-.382.085-.141.139-.28.161-.416.028-.141.017-.282-.034-.424-.045-.147-.138-.291-.28-.433zm2.665 2.41c-.323-.322-.648-.45-.976-.382s-.637.246-.925.535l-1.383 1.383 1.671 1.672 1.35-1.35c.124-.124.237-.26.339-.407.102-.158.173-.319.212-.483.04-.165.04-.329 0-.493-.039-.164-.136-.322-.288-.475z"/><path d="m292.343 205.51-6.016-6.016 4.285-4.285.993.992-3.191 3.191 1.4 1.4 2.809-2.809.984.985-2.808 2.808 1.646 1.646 3.19-3.19.993.993z"/><path d="m301.108 196.745-3.276-1.273-1.332 1.333 2.274 2.274-1.103 1.103-6.016-6.016 2.537-2.538c.356-.356.718-.61 1.086-.763.368-.164.724-.243 1.069-.238.345-.005.671.065.976.212.306.136.58.326.823.569.407.407.659.863.755 1.366.097.492.04.967-.169 1.426l3.563 1.357zm-4.056-4.243c-.119-.118-.255-.209-.408-.271-.158-.068-.322-.102-.492-.102s-.339.04-.509.119c-.175.073-.339.187-.492.339l-1.443 1.443 1.799 1.799 1.46-1.46c.311-.311.475-.628.492-.95.017-.323-.119-.628-.407-.917z"/><path d="m308.839 186.638 1.188 1.188-1.061 1.06-1.188-1.187-2.63 2.63-1.001-1.001-1.545-5.872 1.154-1.154 1.553 5.948 1.51-1.51-1.383-1.383 1.061-1.061 1.383 1.383.747-.747.959.959z"/><path d="m308.875 178.982 4.998 4.997-1.094 1.095-4.998-4.998-1.782 1.782-1.018-1.018 4.658-4.659 1.018 1.019z"/><path d="m319.97 177.882-2.622-2.622-2.469 2.47 2.622 2.621-1.094 1.095-6.016-6.016 1.094-1.095 2.351 2.351 2.469-2.469-2.351-2.351 1.095-1.094 6.016 6.016z"/><path d="m321.188 109.468c0 .4-.068.744-.204 1.032-.128.288-.296.536-.504.744-.328.328-.728.564-1.2.708-.464.136-.96.204-1.488.204-.456 0-.908-.064-1.356-.192-.44-.136-.836-.364-1.188-.684-.256-.232-.468-.516-.636-.852-.168-.344-.252-.72-.252-1.128h1.584c0 .208.04.404.12.588.088.176.196.328.324.456.184.184.404.308.66.372.264.056.52.084.768.084.296 0 .576-.032.84-.096.264-.072.476-.192.636-.36.096-.104.176-.212.24-.324.064-.12.096-.284.096-.492 0-.312-.104-.544-.312-.696-.2-.16-.432-.264-.696-.312-.288-.056-.604-.096-.948-.12s-.656-.06-.936-.108c-.296-.048-.576-.132-.84-.252-.256-.12-.484-.276-.684-.468-.192-.2-.348-.436-.468-.708-.112-.28-.168-.596-.168-.948 0-.336.068-.644.204-.924s.316-.532.54-.756c.28-.28.64-.5 1.08-.66s.912-.24 1.416-.24c.456 0 .892.072 1.308.216.424.136.78.34 1.068.612.256.24.46.512.612.816.16.304.244.636.252.996h-1.584c-.008-.152-.048-.3-.12-.444-.064-.152-.148-.284-.252-.396-.136-.144-.328-.256-.576-.336s-.488-.12-.72-.12c-.24 0-.488.032-.744.096-.248.064-.46.188-.636.372-.088.096-.16.2-.216.312-.048.112-.072.248-.072.408 0 .28.08.496.24.648.16.144.368.236.624.276.272.04.576.076.912.108.344.032.656.068.936.108.32.048.62.136.9.264.288.12.536.284.744.492.216.2.384.444.504.732.128.288.192.612.192.972z"/><path d="m322.578 112v-8.508h6.06v1.404h-4.512v1.98h3.972v1.392h-3.972v2.328h4.512v1.404z"/><path d="m336.449 106.216c0 .408-.064.78-.192 1.116s-.32.624-.576.864c-.248.24-.56.428-.936.564-.376.128-.808.192-1.296.192h-1.8v3.048h-1.536v-8.508h3.336c.488 0 .92.068 1.296.204.376.128.688.312.936.552.256.232.448.516.576.852s.192.708.192 1.116zm-1.56.012c0-.408-.12-.74-.36-.996s-.62-.384-1.14-.384h-1.74v2.748h1.74c.52 0 .9-.124 1.14-.372.24-.256.36-.588.36-.996z"/><path d="m340.745 104.932v7.068h-1.548v-7.068h-2.52v-1.44h6.588v1.44z"/><path d="m344.328 112v-8.508h6.06v1.404h-4.512v1.98h3.972v1.392h-3.972v2.328h4.512v1.404z"/><path d="m358.907 112v-6.072l-2.208 5.952h-1.14l-2.196-6.024v6.144h-1.5v-8.508h2.088l2.232 6.06 2.244-6.06h1.98v8.508z"/><path d="m368.914 109.528c0 .384-.068.74-.204 1.068s-.356.608-.66.84c-.336.256-.696.416-1.08.48s-.78.096-1.188.096h-3.384v-8.52h3.384c.344 0 .684.032 1.02.096.344.064.66.188.948.372.312.208.552.476.72.804.176.328.264.676.264 1.044 0 .176-.02.352-.06.528s-.104.348-.192.516c-.088.16-.2.308-.336.444-.128.128-.28.232-.456.312.408.184.712.452.912.804.208.344.312.716.312 1.116zm-1.752-3.624c0-.2-.036-.368-.108-.504-.072-.144-.168-.256-.288-.336-.12-.088-.26-.148-.42-.18-.16-.04-.328-.06-.504-.06h-1.908v2.136h1.944c.176 0 .34-.016.492-.048.16-.04.296-.1.408-.18.12-.08.212-.188.276-.324.072-.136.108-.304.108-.504zm.18 3.588c0-.456-.14-.776-.42-.96s-.624-.276-1.032-.276h-1.956v2.364h1.908c.176 0 .352-.016.528-.048.184-.04.348-.104.492-.192s.26-.204.348-.348.132-.324.132-.54z"/><path d="m370.367 112v-8.508h6.06v1.404h-4.512v1.98h3.972v1.392h-3.972v2.328h4.512v1.404z"/><path d="m382.762 112-1.416-3.216h-1.884v3.216h-1.56v-8.508h3.588c.504 0 .94.076 1.308.228.376.144.684.34.924.588.248.24.428.52.54.84.12.312.18.64.18.984 0 .576-.144 1.076-.432 1.5-.28.416-.656.712-1.128.888l1.56 3.48zm.132-5.868c0-.168-.032-.328-.096-.48-.064-.16-.156-.3-.276-.42s-.268-.212-.444-.276c-.176-.072-.372-.108-.588-.108h-2.04v2.544h2.064c.44 0 .78-.108 1.02-.324s.36-.528.36-.936z"/><path d="m317.228 127v-6.564l-1.836 1.332v-1.632l2.052-1.476h1.284v8.34z"/><path d="m327.108 122.68c0 .304-.008.624-.024.96-.016.328-.056.652-.12.972s-.156.628-.276.924-.288.556-.504.78c-.232.24-.504.44-.816.6s-.72.24-1.224.24c-.432 0-.804-.06-1.116-.18-.312-.128-.576-.296-.792-.504-.232-.224-.408-.472-.528-.744-.12-.28-.18-.544-.18-.792h1.512c.024.256.12.468.288.636.192.2.488.3.888.3.2 0 .36-.032.48-.096.128-.064.244-.144.348-.24.224-.208.376-.484.456-.828.08-.352.12-.712.12-1.08-.096.112-.208.208-.336.288-.128.072-.264.132-.408.18s-.288.084-.432.108-.28.036-.408.036c-.448 0-.844-.068-1.188-.204s-.632-.328-.864-.576c-.232-.256-.408-.556-.528-.9-.112-.352-.168-.74-.168-1.164 0-.408.06-.788.18-1.14s.3-.66.54-.924.54-.468.9-.612c.36-.152.776-.228 1.248-.228.392 0 .748.068 1.068.204.32.128.6.312.84.552.24.232.436.508.588.828s.26.668.324 1.044c.048.272.08.536.096.792.024.248.036.504.036.768zm-1.632-1.224c0-.456-.108-.84-.324-1.152s-.548-.468-.996-.468c-.456 0-.796.148-1.02.444-.216.296-.324.688-.324 1.176 0 .432.112.8.336 1.104s.568.456 1.032.456c.408 0 .724-.148.948-.444.232-.304.348-.676.348-1.116z"/><path d="m332.132 119.932v7.068h-1.548v-7.068h-2.52v-1.44h6.588v1.44z"/><path d="m340.755 127v-3.708h-3.492v3.708h-1.548v-8.508h1.548v3.324h3.492v-3.324h1.548v8.508z"/><path d="m66.733 471.285c-1.3933 0-2.6347-.285-3.724-.855-1.0893-.583-1.938-1.393-2.546-2.432-.608-1.051-.912-2.267-.912-3.648s.304-2.59.912-3.629c.608-1.051 1.4567-1.862 2.546-2.432 1.0893-.583 2.3307-.874 3.724-.874 1.7733 0 3.3567.488 4.75 1.463l-1.406 2.128c-1.0513-.735-2.1723-1.102-3.363-1.102-.8613 0-1.634.184-2.318.551s-1.2223.887-1.615 1.558c-.38.671-.57 1.45-.57 2.337s.19 1.666.57 2.337c.3927.671.931 1.191 1.615 1.558s1.4567.551 2.318.551c1.1907 0 2.3117-.367 3.363-1.102l1.406 2.128c-1.3933.975-2.9767 1.463-4.75 1.463z"/><path d="m81.5493 467.979h-5.472l-1.121 3.021h-2.698l5.339-13.3h2.432l5.339 13.3h-2.698zm-.798-2.204-1.938-5.225-1.938 5.225z"/><path d="m90.3156 465.699h-.893v5.301h-2.432v-13.3h4.902c.874 0 1.634.171 2.28.513.646.329 1.14.798 1.482 1.406.3546.608.532 1.311.532 2.109 0 .988-.2787 1.83-.836 2.527-.5447.684-1.3047 1.127-2.28 1.33l3.933 5.415h-3.059zm-.893-2.147h2.09c.684 0 1.197-.152 1.539-.456.3546-.317.532-.76.532-1.33 0-.557-.1774-1.001-.532-1.33-.342-.329-.855-.494-1.539-.494h-2.09z"/><path d="m106.706 468.72v2.28h-7.98v-13.3h7.885v2.28h-5.453v2.66h4.978v2.242h-4.978v3.838z"/><path d="m112.945 457.415c1.254 0 2.553.31 3.895.931l-1.045 2.223c-1.064-.545-2.007-.817-2.831-.817-.924 0-1.387.323-1.387.969 0 .253.076.481.228.684.152.19.418.418.798.684l2.299 1.615c.773.532 1.343 1.089 1.71 1.672.38.57.57 1.26.57 2.071 0 1.241-.405 2.191-1.216 2.85-.798.659-1.906.988-3.325.988-.836 0-1.653-.114-2.451-.342-.785-.228-1.501-.545-2.147-.95l1.083-2.223c1.318.773 2.515 1.159 3.591 1.159.608 0 1.071-.12 1.387-.361.33-.253.494-.583.494-.988 0-.317-.107-.602-.323-.855-.215-.253-.557-.551-1.026-.893l-2.147-1.539c-.709-.494-1.241-1.02-1.596-1.577-.342-.57-.513-1.21-.513-1.919 0-1.051.342-1.875 1.026-2.47.697-.608 1.672-.912 2.926-.912z"/><path d="m132.656 467.979h-5.472l-1.121 3.021h-2.698l5.339-13.3h2.432l5.339 13.3h-2.698zm-.798-2.204-1.938-5.225-1.938 5.225z"/><path d="m142.071 471.285c-.937 0-1.773-.19-2.508-.57-.734-.393-1.311-.944-1.729-1.653-.405-.709-.608-1.526-.608-2.451s.203-1.742.608-2.451c.418-.709.995-1.254 1.729-1.634.735-.393 1.571-.589 2.508-.589 1.115 0 2.141.291 3.078.874l-1.007 1.919c-.646-.405-1.323-.608-2.033-.608-.722 0-1.317.234-1.786.703-.468.456-.703 1.051-.703 1.786s.235 1.336.703 1.805c.469.456 1.064.684 1.786.684.71 0 1.387-.203 2.033-.608l1.007 1.919c-.937.583-1.963.874-3.078.874z"/><path d="m149.995 464.179v3.686c0 .355.07.608.209.76s.38.228.722.228h.399v2.166h-1.026c-.849 0-1.501-.215-1.957-.646-.456-.443-.684-1.096-.684-1.957v-4.237h-1.615v-1.957h1.615v-3.515h2.337v3.515h1.805v1.957z"/><path d="m64.054 479.937c1.3427 0 2.3877.412 3.135 1.235.7473.811 1.121 1.963 1.121 3.458v.456h-6.555c.0633.671.3167 1.197.76 1.577.456.367 1.026.551 1.71.551.95 0 1.824-.399 2.622-1.197l1.178 1.691c-.494.456-1.045.836-1.653 1.14-.608.291-1.3237.437-2.147.437-.95 0-1.7797-.19-2.489-.57-.7093-.393-1.2603-.937-1.653-1.634-.3927-.709-.589-1.526-.589-2.451s.19-1.742.57-2.451.912-1.26 1.596-1.653 1.482-.589 2.394-.589zm-.114 1.881c-.5827 0-1.064.146-1.444.437-.3673.291-.5953.735-.684 1.33h4.142c-.038-.557-.2407-.988-.608-1.292-.3547-.317-.8233-.475-1.406-.475z"/><path d="m73.4317 486.036-2.09 2.964h-2.812l3.496-4.617-3.078-4.161h2.831l1.653 2.546 1.672-2.546h2.831l-3.078 4.161 3.496 4.617h-2.831z"/><path d="m79.8602 480.222h2.318v1.235h.038c.2914-.481.6777-.855 1.159-1.121.494-.266 1.083-.399 1.767-.399.7727 0 1.482.184 2.128.551s1.1527.906 1.52 1.615c.38.697.57 1.533.57 2.508s-.19 1.818-.57 2.527c-.3673.697-.874 1.229-1.52 1.596s-1.3553.551-2.128.551c-.684 0-1.273-.133-1.767-.399-.4813-.266-.8676-.64-1.159-1.121h-.038v5.035h-2.318zm4.693 6.859c.7094 0 1.2794-.228 1.71-.684.4434-.456.665-1.051.665-1.786s-.2216-1.33-.665-1.786c-.4306-.456-1.0006-.684-1.71-.684-.7093 0-1.2856.228-1.729.684-.4306.456-.646 1.051-.646 1.786s.2154 1.33.646 1.786c.4434.456 1.0197.684 1.729.684z"/><path d="m91.2997 480.222h2.337v8.778h-2.337zm1.178-4.655c.456 0 .8297.152 1.121.456.304.291.456.665.456 1.121 0 .443-.152.817-.456 1.121-.2913.291-.665.437-1.121.437-.4433 0-.817-.146-1.121-.437-.2913-.304-.437-.678-.437-1.121 0-.456.1457-.83.437-1.121.304-.304.6777-.456 1.121-.456z"/><path d="m101.471 482.464h-.266c-.95 0-1.6467.228-2.09.684-.4434.456-.665 1.21-.665 2.261v3.591h-2.318v-8.778h2.299v1.862h.038c.228-.684.589-1.21 1.083-1.577s1.102-.551 1.824-.551h.095z"/><path d="m106.644 479.937c1.343 0 2.388.412 3.135 1.235.748.811 1.121 1.963 1.121 3.458v.456h-6.555c.064.671.317 1.197.76 1.577.456.367 1.026.551 1.71.551.95 0 1.824-.399 2.622-1.197l1.178 1.691c-.494.456-1.045.836-1.653 1.14-.608.291-1.323.437-2.147.437-.95 0-1.779-.19-2.489-.57-.709-.393-1.26-.937-1.653-1.634-.392-.709-.589-1.526-.589-2.451s.19-1.742.57-2.451.912-1.26 1.596-1.653 1.482-.589 2.394-.589zm-.114 1.881c-.582 0-1.064.146-1.444.437-.367.291-.595.735-.684 1.33h4.142c-.038-.557-.24-.988-.608-1.292-.354-.317-.823-.475-1.406-.475z"/><path d="m116.442 489.285c-.772 0-1.482-.184-2.128-.551s-1.159-.899-1.539-1.596c-.367-.709-.551-1.552-.551-2.527s.184-1.811.551-2.508c.38-.709.893-1.248 1.539-1.615s1.356-.551 2.128-.551c.684 0 1.267.133 1.748.399.494.266.887.64 1.178 1.121h.038v-5.757h2.318v13.3h-2.318v-1.235h-.038c-.291.481-.684.855-1.178 1.121-.481.266-1.064.399-1.748.399zm.589-2.204c.71 0 1.28-.228 1.71-.684.444-.456.665-1.051.665-1.786s-.221-1.33-.665-1.786c-.43-.456-1-.684-1.71-.684-.709 0-1.285.228-1.729.684-.43.456-.646 1.051-.646 1.786s.216 1.33.646 1.786c.444.456 1.02.684 1.729.684z"/><path d="m256.695 335.285c-2.128 0-3.876-.633-5.244-1.9s-2.052-2.945-2.052-5.035.684-3.768 2.052-5.035 3.116-1.9 5.244-1.9c1.773 0 3.363.494 4.769 1.482l-1.596 2.584c-1.026-.684-2.084-1.026-3.173-1.026-1.178 0-2.147.355-2.907 1.064-.76.697-1.14 1.64-1.14 2.831s.38 2.141 1.14 2.85c.76.697 1.729 1.045 2.907 1.045 1.089 0 2.147-.342 3.173-1.026l1.596 2.584c-1.406.988-2.996 1.482-4.769 1.482z"/><path d="m267.449 321.7c2.128 0 3.857.602 5.187 1.805 1.33 1.191 1.995 2.806 1.995 4.845s-.665 3.661-1.995 4.864c-1.33 1.191-3.059 1.786-5.187 1.786h-4.237v-13.3zm.247 2.679h-1.539v7.942h1.539c1.102 0 2.001-.348 2.698-1.045.709-.709 1.064-1.685 1.064-2.926s-.355-2.21-1.064-2.907c-.697-.709-1.596-1.064-2.698-1.064z"/><path d="m283.098 335.285c-2.128 0-3.876-.633-5.244-1.9s-2.052-2.945-2.052-5.035.684-3.768 2.052-5.035 3.116-1.9 5.244-1.9c1.773 0 3.363.494 4.769 1.482l-1.596 2.584c-1.026-.684-2.084-1.026-3.173-1.026-1.178 0-2.147.355-2.907 1.064-.76.697-1.14 1.64-1.14 2.831s.38 2.141 1.14 2.85c.76.697 1.729 1.045 2.907 1.045 1.089 0 2.147-.342 3.173-1.026l1.596 2.584c-1.406.988-2.996 1.482-4.769 1.482z"/><path d="m299.147 325.937c1.444 0 2.628.431 3.553 1.292.924.861 1.387 1.989 1.387 3.382s-.463 2.521-1.387 3.382c-.925.861-2.109 1.292-3.553 1.292-1.432 0-2.61-.431-3.534-1.292-.925-.861-1.387-1.989-1.387-3.382s.462-2.521 1.387-3.382c.924-.861 2.102-1.292 3.534-1.292zm0 2.622c-.583 0-1.071.19-1.463.57-.393.38-.589.874-.589 1.482s.196 1.102.589 1.482c.392.38.88.57 1.463.57.595 0 1.083-.184 1.463-.551.392-.38.589-.88.589-1.501s-.197-1.115-.589-1.482c-.38-.38-.868-.57-1.463-.57z"/><path d="m311.545 325.956v2.869h-.247c-.975 0-1.672.215-2.09.646-.405.431-.608 1.197-.608 2.299v3.23h-2.869v-8.778h2.812v1.786h.038c.481-1.368 1.45-2.052 2.907-2.052z"/><path d="m316.31 335.285c-1.204 0-2.198-.405-2.983-1.216-.786-.823-1.178-1.976-1.178-3.458s.392-2.628 1.178-3.439c.785-.823 1.779-1.235 2.983-1.235 1.304 0 2.261.494 2.869 1.482h.038v-5.719h2.869v13.3h-2.869v-1.197h-.038c-.608.988-1.565 1.482-2.869 1.482zm.798-2.622c.595 0 1.083-.184 1.463-.551.38-.38.57-.88.57-1.501s-.19-1.115-.57-1.482c-.38-.38-.868-.57-1.463-.57-.583 0-1.064.19-1.444.57-.38.367-.57.861-.57 1.482s.19 1.121.57 1.501c.38.367.861.551 1.444.551z"/><path d="m328.39 325.956c1.356 0 2.42.399 3.192 1.197.773.785 1.159 1.951 1.159 3.496v.646h-6.289c.178 1.064.925 1.596 2.242 1.596.887 0 1.736-.266 2.546-.798l1.045 2.166c-1.114.684-2.324 1.026-3.629 1.026-1.469 0-2.653-.424-3.553-1.273-.899-.849-1.349-1.97-1.349-3.363 0-1.457.425-2.603 1.273-3.439.862-.836 1.983-1.254 3.363-1.254zm-.095 2.033c-1.089 0-1.697.538-1.824 1.615h3.496c-.012-.507-.177-.899-.494-1.178-.304-.291-.696-.437-1.178-.437z"/><path d="m340.127 325.956v2.869h-.247c-.975 0-1.672.215-2.09.646-.405.431-.608 1.197-.608 2.299v3.23h-2.869v-8.778h2.812v1.786h.038c.482-1.368 1.451-2.052 2.907-2.052z"/><path d="m252.857 339.719v2.888h-3.078v-2.888zm-2.964 13.281v-8.778h2.869v8.778z"/><path d="m260.612 343.937c1.013 0 1.817.304 2.413.912.595.608.893 1.514.893 2.717v5.434h-2.85v-4.636c0-1.267-.539-1.9-1.615-1.9-1.128 0-1.691.709-1.691 2.128v4.408h-2.869v-8.778h2.812v1.33h.038c.633-1.077 1.589-1.615 2.869-1.615z"/><path d="m269.266 353.285c-1.432 0-2.755-.304-3.971-.912l1.083-2.356c1.152.671 2.191 1.007 3.116 1.007.532 0 .798-.133.798-.399 0-.063-.013-.12-.038-.171-.013-.051-.051-.089-.114-.114-.051-.038-.095-.063-.133-.076-.026-.025-.083-.051-.171-.076-.076-.038-.127-.063-.152-.076l-1.539-.608c-1.432-.545-2.147-1.45-2.147-2.717 0-.912.316-1.615.95-2.109.633-.494 1.57-.741 2.812-.741 1.013 0 2.071.177 3.173.532l-.798 2.318c-1.052-.431-1.919-.646-2.603-.646-.469 0-.703.127-.703.38 0 .127.05.228.152.304.101.063.272.146.513.247l1.52.57c.709.266 1.241.602 1.596 1.007.354.405.532.963.532 1.672 0 1.013-.342 1.761-1.026 2.242s-1.634.722-2.85.722z"/><path d="m280.297 346.616h-1.805v2.641c0 .418.063.703.19.855.139.152.393.228.76.228h.323v2.66h-1.197c-1.963 0-2.945-.988-2.945-2.964v-3.42h-1.71v-2.394h1.71v-3.515h2.869v3.515h1.805z"/><path d="m284.844 339.719v2.888h-3.078v-2.888zm-2.964 13.281v-8.778h2.869v8.778z"/><path d="m292.579 346.616h-1.805v2.641c0 .418.064.703.19.855.14.152.393.228.76.228h.323v2.66h-1.197c-1.963 0-2.945-.988-2.945-2.964v-3.42h-1.71v-2.394h1.71v-3.515h2.869v3.515h1.805z"/><path d="m297.373 353.285c-.988 0-1.792-.304-2.413-.912-.608-.621-.912-1.533-.912-2.736v-5.415h2.964v4.788c0 1.178.482 1.767 1.444 1.767 1.102 0 1.653-.773 1.653-2.318v-4.237h2.869v8.778h-2.812v-1.368h-.038c-.684 1.102-1.602 1.653-2.755 1.653z"/><path d="m310.799 346.616h-1.805v2.641c0 .418.064.703.19.855.14.152.393.228.76.228h.323v2.66h-1.197c-1.963 0-2.945-.988-2.945-2.964v-3.42h-1.71v-2.394h1.71v-3.515h2.869v3.515h1.805z"/><path d="m316.227 343.956c1.356 0 2.42.399 3.192 1.197.773.785 1.159 1.951 1.159 3.496v.646h-6.289c.178 1.064.925 1.596 2.242 1.596.887 0 1.736-.266 2.546-.798l1.045 2.166c-1.114.684-2.324 1.026-3.629 1.026-1.469 0-2.653-.424-3.553-1.273-.899-.849-1.349-1.97-1.349-3.363 0-1.457.425-2.603 1.273-3.439.862-.836 1.983-1.254 3.363-1.254zm-.095 2.033c-1.089 0-1.697.538-1.824 1.615h3.496c-.012-.507-.177-.899-.494-1.178-.304-.291-.696-.437-1.178-.437z"/><path d="m325.836 353.285c-1.203 0-2.197-.405-2.983-1.216-.785-.823-1.178-1.976-1.178-3.458s.393-2.628 1.178-3.439c.786-.823 1.78-1.235 2.983-1.235 1.305 0 2.261.494 2.869 1.482h.038v-5.719h2.869v13.3h-2.869v-1.197h-.038c-.608.988-1.564 1.482-2.869 1.482zm.798-2.622c.596 0 1.083-.184 1.463-.551.38-.38.57-.88.57-1.501s-.19-1.115-.57-1.482c-.38-.38-.867-.57-1.463-.57-.582 0-1.064.19-1.444.57-.38.367-.57.861-.57 1.482s.19 1.121.57 1.501c.38.367.862.551 1.444.551z"/><path d="m215.016 389.89c1.419 0 2.508.291 3.268.874.773.583 1.159 1.419 1.159 2.508 0 .747-.203 1.374-.608 1.881-.393.494-.95.823-1.672.988v.038c.861.139 1.52.481 1.976 1.026.469.532.703 1.241.703 2.128 0 1.241-.418 2.21-1.254 2.907s-2.001 1.045-3.496 1.045c-1.571 0-2.774-.361-3.61-1.083s-1.254-1.761-1.254-3.116h3.002c.076 1.039.703 1.558 1.881 1.558 1.165 0 1.748-.538 1.748-1.615 0-.57-.196-.969-.589-1.197-.38-.228-1.039-.342-1.976-.342h-.437v-2.166h.437c.709 0 1.222-.12 1.539-.361.329-.241.494-.621.494-1.14 0-.861-.475-1.292-1.425-1.292-.469 0-.836.114-1.102.342s-.405.538-.418.931h-2.945c.013-1.241.412-2.204 1.197-2.888.798-.684 1.925-1.026 3.382-1.026z"/><path d="m222.653 391.638c.925-1.165 2.236-1.748 3.933-1.748 1.698 0 3.002.583 3.914 1.748.925 1.153 1.387 2.799 1.387 4.94s-.462 3.794-1.387 4.959c-.924 1.165-2.229 1.748-3.914 1.748-1.684 0-2.989-.583-3.914-1.748-.924-1.165-1.387-2.818-1.387-4.959s.456-3.787 1.368-4.94zm3.933.969c-.734 0-1.304.348-1.71 1.045-.405.684-.608 1.659-.608 2.926s.203 2.248.608 2.945c.406.697.976 1.045 1.71 1.045.735 0 1.305-.348 1.71-1.045.418-.697.627-1.678.627-2.945s-.202-2.242-.608-2.926c-.405-.697-.981-1.045-1.729-1.045z"/><path d="m239.071 396.673v2.565h-5.434v-2.565z"/><path d="m244.775 403.285c-1.203 0-2.197-.405-2.983-1.216-.785-.823-1.178-1.976-1.178-3.458s.393-2.628 1.178-3.439c.786-.823 1.78-1.235 2.983-1.235 1.305 0 2.261.494 2.869 1.482h.038v-5.719h2.869v13.3h-2.869v-1.197h-.038c-.608.988-1.564 1.482-2.869 1.482zm.798-2.622c.596 0 1.083-.184 1.463-.551.38-.38.57-.88.57-1.501s-.19-1.115-.57-1.482c-.38-.38-.867-.57-1.463-.57-.582 0-1.064.19-1.444.57-.38.367-.57.861-.57 1.482s.19 1.121.57 1.501c.38.367.862.551 1.444.551z"/><path d="m256.381 403.285c-1.204 0-2.198-.405-2.983-1.216-.786-.823-1.178-1.976-1.178-3.458s.392-2.628 1.178-3.439c.785-.823 1.779-1.235 2.983-1.235 1.304 0 2.261.494 2.869 1.482h.038v-1.197h2.869v8.778h-2.869v-1.197h-.038c-.608.988-1.565 1.482-2.869 1.482zm.798-2.622c.595 0 1.083-.184 1.463-.551.38-.38.57-.88.57-1.501s-.19-1.115-.57-1.482c-.38-.38-.868-.57-1.463-.57-.583 0-1.064.19-1.444.57-.38.367-.57.861-.57 1.482s.19 1.121.57 1.501c.38.367.861.551 1.444.551z"/><path d="m270.953 394.222h2.907l-5.833 12.578h-2.888l2.204-4.636-3.933-7.942h3.306l2.052 4.845z"/><path d="m285.734 393.937c1.014 0 1.818.304 2.413.912.596.608.893 1.514.893 2.717v5.434h-2.85v-4.636c0-1.267-.538-1.9-1.615-1.9-1.127 0-1.691.709-1.691 2.128v4.408h-2.869v-8.778h2.812v1.33h.038c.634-1.077 1.59-1.615 2.869-1.615z"/><path d="m295.548 393.937c1.444 0 2.628.431 3.553 1.292.924.861 1.387 1.989 1.387 3.382s-.463 2.521-1.387 3.382c-.925.861-2.109 1.292-3.553 1.292-1.432 0-2.61-.431-3.534-1.292-.925-.861-1.387-1.989-1.387-3.382s.462-2.521 1.387-3.382c.924-.861 2.102-1.292 3.534-1.292zm0 2.622c-.583 0-1.071.19-1.463.57-.393.38-.59.874-.59 1.482s.197 1.102.59 1.482c.392.38.88.57 1.463.57.595 0 1.082-.184 1.462-.551.393-.38.59-.88.59-1.501s-.197-1.115-.59-1.482c-.38-.38-.867-.57-1.462-.57z"/><path d="m307.461 396.616h-1.805v2.641c0 .418.063.703.19.855.139.152.392.228.76.228h.323v2.66h-1.197c-1.964 0-2.945-.988-2.945-2.964v-3.42h-1.71v-2.394h1.71v-3.515h2.869v3.515h1.805z"/><path d="m312.008 389.719v2.888h-3.078v-2.888zm-2.964 13.281v-8.778h2.869v8.778z"/><path d="m318.451 403.285c-1.418 0-2.59-.431-3.515-1.292-.912-.861-1.368-1.989-1.368-3.382s.456-2.521 1.368-3.382c.925-.861 2.097-1.292 3.515-1.292 1.128 0 2.185.285 3.173.855l-1.178 2.299c-.557-.355-1.178-.532-1.862-.532-.595 0-1.102.184-1.52.551s-.627.868-.627 1.501.209 1.134.627 1.501.925.551 1.52.551c.684 0 1.305-.177 1.862-.532l1.178 2.299c-.988.57-2.045.855-3.173.855z"/><path d="m326.748 393.956c1.356 0 2.42.399 3.192 1.197.773.785 1.159 1.951 1.159 3.496v.646h-6.289c.178 1.064.925 1.596 2.242 1.596.887 0 1.736-.266 2.546-.798l1.045 2.166c-1.114.684-2.324 1.026-3.629 1.026-1.469 0-2.653-.424-3.553-1.273-.899-.849-1.349-1.97-1.349-3.363 0-1.457.425-2.603 1.273-3.439.862-.836 1.983-1.254 3.363-1.254zm-.095 2.033c-1.089 0-1.697.538-1.824 1.615h3.496c-.012-.507-.177-.899-.494-1.178-.304-.291-.696-.437-1.178-.437z"/><path d="m215.32 411.937c1.444 0 2.628.431 3.553 1.292s1.387 1.989 1.387 3.382-.462 2.521-1.387 3.382-2.109 1.292-3.553 1.292c-1.431 0-2.609-.431-3.534-1.292s-1.387-1.989-1.387-3.382.462-2.521 1.387-3.382 2.103-1.292 3.534-1.292zm0 2.622c-.583 0-1.07.19-1.463.57s-.589.874-.589 1.482.196 1.102.589 1.482.88.57 1.463.57c.595 0 1.083-.184 1.463-.551.393-.38.589-.88.589-1.501s-.196-1.115-.589-1.482c-.38-.38-.868-.57-1.463-.57z"/><path d="m227.134 410.17c-.633 0-1.076.114-1.33.342-.24.228-.361.659-.361 1.292v.418h1.862v2.394h-1.862v6.384h-2.869v-6.384h-1.539v-2.394h1.539v-.513c0-1.444.342-2.502 1.026-3.173.697-.684 1.761-1.026 3.192-1.026h.589v2.66z"/><path d="m237.188 407.719v2.888h-3.078v-2.888zm-2.964 13.281v-8.778h2.869v8.778z"/><path d="m244.943 411.937c1.013 0 1.818.304 2.413.912s.893 1.514.893 2.717v5.434h-2.85v-4.636c0-1.267-.538-1.9-1.615-1.9-1.127 0-1.691.709-1.691 2.128v4.408h-2.869v-8.778h2.812v1.33h.038c.633-1.077 1.59-1.615 2.869-1.615z"/><path d="m255.639 414.616h-1.805v2.641c0 .418.063.703.19.855.139.152.393.228.76.228h.323v2.66h-1.197c-1.963 0-2.945-.988-2.945-2.964v-3.42h-1.71v-2.394h1.71v-3.515h2.869v3.515h1.805z"/><path d="m261.067 411.956c1.355 0 2.419.399 3.192 1.197.773.785 1.159 1.951 1.159 3.496v.646h-6.289c.177 1.064.925 1.596 2.242 1.596.887 0 1.735-.266 2.546-.798l1.045 2.166c-1.115.684-2.324 1.026-3.629 1.026-1.469 0-2.654-.424-3.553-1.273s-1.349-1.97-1.349-3.363c0-1.457.424-2.603 1.273-3.439.861-.836 1.982-1.254 3.363-1.254zm-.095 2.033c-1.089 0-1.697.538-1.824 1.615h3.496c-.013-.507-.177-.899-.494-1.178-.304-.291-.697-.437-1.178-.437z"/><path d="m272.709 411.937c1.013 0 1.818.304 2.413.912s.893 1.514.893 2.717v5.434h-2.85v-4.636c0-1.267-.538-1.9-1.615-1.9-1.127 0-1.691.709-1.691 2.128v4.408h-2.869v-8.778h2.812v1.33h.038c.633-1.077 1.59-1.615 2.869-1.615z"/><path d="m283.405 414.616h-1.805v2.641c0 .418.063.703.19.855.139.152.393.228.76.228h.323v2.66h-1.197c-1.963 0-2.945-.988-2.945-2.964v-3.42h-1.71v-2.394h1.71v-3.515h2.869v3.515h1.805z"/><path d="m287.952 407.719v2.888h-3.078v-2.888zm-2.964 13.281v-8.778h2.869v8.778z"/><path d="m294.433 411.937c1.444 0 2.629.431 3.553 1.292.925.861 1.387 1.989 1.387 3.382s-.462 2.521-1.387 3.382c-.924.861-2.109 1.292-3.553 1.292-1.431 0-2.609-.431-3.534-1.292-.924-.861-1.387-1.989-1.387-3.382s.463-2.521 1.387-3.382c.925-.861 2.103-1.292 3.534-1.292zm0 2.622c-.582 0-1.07.19-1.463.57-.392.38-.589.874-.589 1.482s.197 1.102.589 1.482c.393.38.881.57 1.463.57.596 0 1.083-.184 1.463-.551.393-.38.589-.88.589-1.501s-.196-1.115-.589-1.482c-.38-.38-.867-.57-1.463-.57z"/><path d="m306.737 411.937c1.013 0 1.818.304 2.413.912s.893 1.514.893 2.717v5.434h-2.85v-4.636c0-1.267-.538-1.9-1.615-1.9-1.127 0-1.691.709-1.691 2.128v4.408h-2.869v-8.778h2.812v1.33h.038c.633-1.077 1.59-1.615 2.869-1.615z"/><path d="m323.175 414.616h-1.805v2.641c0 .418.063.703.19.855.139.152.393.228.76.228h.323v2.66h-1.197c-1.963 0-2.945-.988-2.945-2.964v-3.42h-1.71v-2.394h1.71v-3.515h2.869v3.515h1.805z"/><path d="m328.888 411.937c1.444 0 2.628.431 3.553 1.292s1.387 1.989 1.387 3.382-.462 2.521-1.387 3.382-2.109 1.292-3.553 1.292c-1.431 0-2.609-.431-3.534-1.292s-1.387-1.989-1.387-3.382.462-2.521 1.387-3.382 2.103-1.292 3.534-1.292zm0 2.622c-.583 0-1.07.19-1.463.57s-.589.874-.589 1.482.196 1.102.589 1.482.88.57 1.463.57c.595 0 1.083-.184 1.463-.551.393-.38.589-.88.589-1.501s-.196-1.115-.589-1.482c-.38-.38-.868-.57-1.463-.57z"/><path d="m215.035 429.956c1.355 0 2.419.399 3.192 1.197.773.785 1.159 1.951 1.159 3.496v.646h-6.289c.177 1.064.925 1.596 2.242 1.596.887 0 1.735-.266 2.546-.798l1.045 2.166c-1.115.684-2.324 1.026-3.629 1.026-1.469 0-2.654-.424-3.553-1.273s-1.349-1.97-1.349-3.363c0-1.457.424-2.603 1.273-3.439.861-.836 1.982-1.254 3.363-1.254zm-.095 2.033c-1.089 0-1.697.538-1.824 1.615h3.496c-.013-.507-.177-.899-.494-1.178-.304-.291-.697-.437-1.178-.437z"/><path d="m226.522 430.222h3.173l-3.648 8.778h-2.869l-3.648-8.778h3.173l1.9 5.548z"/><path d="m234.025 425.719v2.888h-3.078v-2.888zm-2.964 13.281v-8.778h2.869v8.778z"/><path d="m240.469 439.285c-1.419 0-2.59-.431-3.515-1.292-.912-.861-1.368-1.989-1.368-3.382s.456-2.521 1.368-3.382c.925-.861 2.096-1.292 3.515-1.292 1.127 0 2.185.285 3.173.855l-1.178 2.299c-.557-.355-1.178-.532-1.862-.532-.595 0-1.102.184-1.52.551s-.627.868-.627 1.501.209 1.134.627 1.501.925.551 1.52.551c.684 0 1.305-.177 1.862-.532l1.178 2.299c-.988.57-2.046.855-3.173.855z"/><path d="m250.713 432.616h-1.805v2.641c0 .418.063.703.19.855.139.152.393.228.76.228h.323v2.66h-1.197c-1.963 0-2.945-.988-2.945-2.964v-3.42h-1.71v-2.394h1.71v-3.515h2.869v3.515h1.805z"/><path d="m261.809 429.956c1.355 0 2.419.399 3.192 1.197.773.785 1.159 1.951 1.159 3.496v.646h-6.289c.177 1.064.925 1.596 2.242 1.596.887 0 1.735-.266 2.546-.798l1.045 2.166c-1.115.684-2.324 1.026-3.629 1.026-1.469 0-2.654-.424-3.553-1.273s-1.349-1.97-1.349-3.363c0-1.457.424-2.603 1.273-3.439.861-.836 1.982-1.254 3.363-1.254zm-.095 2.033c-1.089 0-1.697.538-1.824 1.615h3.496c-.013-.507-.177-.899-.494-1.178-.304-.291-.697-.437-1.178-.437z"/><path d="m273.451 429.937c1.014 0 1.818.304 2.413.912.596.608.893 1.514.893 2.717v5.434h-2.85v-4.636c0-1.267-.538-1.9-1.615-1.9-1.127 0-1.691.709-1.691 2.128v4.408h-2.869v-8.778h2.812v1.33h.038c.634-1.077 1.59-1.615 2.869-1.615z"/><path d="m282.504 439.285c-1.203 0-2.197-.405-2.983-1.216-.785-.823-1.178-1.976-1.178-3.458s.393-2.628 1.178-3.439c.786-.823 1.78-1.235 2.983-1.235 1.305 0 2.261.494 2.869 1.482h.038v-5.719h2.869v13.3h-2.869v-1.197h-.038c-.608.988-1.564 1.482-2.869 1.482zm.798-2.622c.596 0 1.083-.184 1.463-.551.38-.38.57-.88.57-1.501s-.19-1.115-.57-1.482c-.38-.38-.867-.57-1.463-.57-.582 0-1.064.19-1.444.57-.38.367-.57.861-.57 1.482s.19 1.121.57 1.501c.38.367.862.551 1.444.551z"/><path d="m294.585 429.956c1.355 0 2.419.399 3.192 1.197.773.785 1.159 1.951 1.159 3.496v.646h-6.289c.177 1.064.925 1.596 2.242 1.596.887 0 1.735-.266 2.546-.798l1.045 2.166c-1.115.684-2.324 1.026-3.629 1.026-1.469 0-2.654-.424-3.553-1.273s-1.349-1.97-1.349-3.363c0-1.457.424-2.603 1.273-3.439.861-.836 1.982-1.254 3.363-1.254zm-.095 2.033c-1.089 0-1.697.538-1.824 1.615h3.496c-.013-.507-.177-.899-.494-1.178-.304-.291-.697-.437-1.178-.437z"/><path d="m304.194 439.285c-1.203 0-2.198-.405-2.983-1.216-.785-.823-1.178-1.976-1.178-3.458s.393-2.628 1.178-3.439c.785-.823 1.78-1.235 2.983-1.235 1.305 0 2.261.494 2.869 1.482h.038v-5.719h2.869v13.3h-2.869v-1.197h-.038c-.608.988-1.564 1.482-2.869 1.482zm.798-2.622c.595 0 1.083-.184 1.463-.551.38-.38.57-.88.57-1.501s-.19-1.115-.57-1.482c-.38-.38-.868-.57-1.463-.57-.583 0-1.064.19-1.444.57-.38.367-.57.861-.57 1.482s.19 1.121.57 1.501c.38.367.861.551 1.444.551z"/></g></g></svg>