<svg fill="none" height="413" viewBox="0 0 1000 413" width="1000" xmlns="http://www.w3.org/2000/svg" xmlns:xlink="http://www.w3.org/1999/xlink"><filter id="a" color-interpolation-filters="sRGB" filterUnits="userSpaceOnUse" height="23" width="23" x="275" y="90"><feFlood flood-opacity="0" result="BackgroundImageFix"/><feColorMatrix in="SourceAlpha" type="matrix" values="0 0 0 0 0 0 0 0 0 0 0 0 0 0 0 0 0 0 127 0"/><feOffset dy="4"/><feGaussianBlur stdDeviation="2"/><feColorMatrix type="matrix" values="0 0 0 0 0 0 0 0 0 0 0 0 0 0 0 0 0 0 0.25 0"/><feBlend in2="BackgroundImageFix" mode="normal" result="effect1_dropShadow"/><feBlend in="SourceGraphic" in2="effect1_dropShadow" mode="normal" result="shape"/></filter><filter id="b" color-interpolation-filters="sRGB" filterUnits="userSpaceOnUse" height="23" width="23" x="275" y="221"><feFlood flood-opacity="0" result="BackgroundImageFix"/><feColorMatrix in="SourceAlpha" type="matrix" values="0 0 0 0 0 0 0 0 0 0 0 0 0 0 0 0 0 0 127 0"/><feOffset dy="4"/><feGaussianBlur stdDeviation="2"/><feColorMatrix type="matrix" values="0 0 0 0 0 0 0 0 0 0 0 0 0 0 0 0 0 0 0.25 0"/><feBlend in2="BackgroundImageFix" mode="normal" result="effect1_dropShadow"/><feBlend in="SourceGraphic" in2="effect1_dropShadow" mode="normal" result="shape"/></filter><filter id="c" color-interpolation-filters="sRGB" filterUnits="userSpaceOnUse" height="23" width="23" x="275" y="270"><feFlood flood-opacity="0" result="BackgroundImageFix"/><feColorMatrix in="SourceAlpha" type="matrix" values="0 0 0 0 0 0 0 0 0 0 0 0 0 0 0 0 0 0 127 0"/><feOffset dy="4"/><feGaussianBlur stdDeviation="2"/><feColorMatrix type="matrix" values="0 0 0 0 0 0 0 0 0 0 0 0 0 0 0 0 0 0 0.25 0"/><feBlend in2="BackgroundImageFix" mode="normal" result="effect1_dropShadow"/><feBlend in="SourceGraphic" in2="effect1_dropShadow" mode="normal" result="shape"/></filter><linearGradient id="d" gradientUnits="userSpaceOnUse" x1="289" x2="289" y1="-28" y2="377.694"><stop offset="0" stop-color="#25284e"/><stop offset="1" stop-color="#e24000"/></linearGradient><linearGradient id="e" gradientUnits="userSpaceOnUse" x1="131" x2="284.885" y1="242.478" y2="242.478"><stop offset="0" stop-color="#fff"/><stop offset="1" stop-color="#31897f" stop-opacity="0"/></linearGradient><clipPath id="f"><path d="m0 0h1000v413h-1000z"/></clipPath><g clip-path="url(#f)"><path d="m0 0h1000v413h-1000z" fill="#25284e"/><path d="m286.5 369v-392" stroke="url(#d)" stroke-width="5"/><g filter="url(#a)"><circle cx="286.5" cy="97.5" fill="#e24000" r="7.5"/><circle cx="286.5" cy="97.5" r="6.5" stroke="#fff" stroke-width="2"/></g><g filter="url(#b)"><circle cx="286.5" cy="228.5" fill="#e24000" r="7.5"/><circle cx="286.5" cy="228.5" r="6.5" stroke="#fff" stroke-width="2"/></g><g filter="url(#c)"><circle cx="286.5" cy="277.5" fill="#e24000" r="7.5"/><circle cx="286.5" cy="277.5" r="6.5" stroke="#fff" stroke-width="2"/></g><g fill="#fff"><path d="m318.96 109.48c-3.584 0-6.528-1.067-8.832-3.2s-3.456-4.96-3.456-8.48 1.152-6.3467 3.456-8.48 5.248-3.2 8.832-3.2c2.987 0 5.664.832 8.032 2.496l-2.688 4.352c-1.728-1.152-3.509-1.728-5.344-1.728-1.984 0-3.616.5973-4.896 1.792-1.28 1.1733-1.92 2.7627-1.92 4.768s.64 3.605 1.92 4.8c1.28 1.173 2.912 1.76 4.896 1.76 1.835 0 3.616-.576 5.344-1.728l2.688 4.352c-2.368 1.664-5.045 2.496-8.032 2.496z"/><path d="m345.36 109-1.6-4.544h-8.608l-1.6 4.544h-5.568l8.832-22.4h5.248l8.832 22.4zm-8.672-8.96h5.536l-2.784-7.936z"/><path d="m364.753 109-5.632-8.48h-.96v8.48h-4.96v-22.4h8.96c2.432 0 4.309.6613 5.632 1.984 1.322 1.3013 1.984 2.976 1.984 5.024 0 1.6853-.448 3.1253-1.344 4.32-.896 1.1733-2.187 1.952-3.872 2.336l6.4 8.736zm-6.592-17.888v5.248h3.264c2.069 0 3.104-.8747 3.104-2.624 0-.832-.278-1.472-.832-1.92-.534-.4693-1.291-.704-2.272-.704z"/><path d="m378.551 104.36h9.056v4.64h-14.016v-22.4h13.856v4.64h-8.896v3.52h8v4.512h-8z"/><path d="m392.895 87.72c1.216-1.0667 2.987-1.6 5.312-1.6 2.326 0 4.747.544 7.264 1.632l-2.08 4.384c-2.005-.9387-3.69-1.408-5.056-1.408-1.365 0-2.048.4373-2.048 1.312 0 .3413.118.6507.352.928.256.256.704.576 1.344.96l3.712 2.336c1.43.8747 2.496 1.8133 3.2 2.816.704 1.003 1.056 2.251 1.056 3.744 0 2.155-.704 3.808-2.112 4.96-1.408 1.131-3.424 1.696-6.048 1.696-3.008 0-5.792-.747-8.352-2.24l2.24-4.448c2.24 1.365 4.342 2.048 6.304 2.048 1.835 0 2.752-.597 2.752-1.792 0-.469-.17-.875-.512-1.216-.341-.341-.874-.736-1.6-1.184l-3.424-2.144c-2.752-1.6427-4.128-3.776-4.128-6.4 0-1.856.608-3.3173 1.824-4.384z"/><path d="m432.778 109-1.6-4.544h-8.608l-1.6 4.544h-5.568l8.832-22.4h5.248l8.832 22.4zm-8.672-8.96h5.536l-2.784-7.936z"/><path d="m447.532 109.48c-2.389 0-4.362-.725-5.92-2.176-1.536-1.451-2.304-3.349-2.304-5.696 0-2.3467.768-4.2453 2.304-5.696 1.558-1.4507 3.531-2.176 5.92-2.176 1.899 0 3.68.48 5.344 1.44l-1.984 3.872c-.938-.5973-1.984-.896-3.136-.896-1.002 0-1.856.3093-2.56.928s-1.056 1.461-1.056 2.528.352 1.909 1.056 2.528 1.558.928 2.56.928c1.152 0 2.198-.299 3.136-.896l1.984 3.872c-1.664.96-3.445 1.44-5.344 1.44z"/><path d="m464.786 98.248h-3.04v4.448c0 .704.106 1.184.32 1.44.234.256.661.384 1.28.384h.544v4.48h-2.016c-3.307 0-4.96-1.664-4.96-4.992v-5.76h-2.88v-4.032h2.88v-5.92h4.832v5.92h3.04z"/><path d="m483.474 93.768c2.282 0 4.074.672 5.376 2.016 1.301 1.3227 1.952 3.2853 1.952 5.888v1.088h-10.592c.298 1.792 1.557 2.688 3.776 2.688 1.493 0 2.922-.448 4.288-1.344l1.76 3.648c-1.878 1.152-3.915 1.728-6.112 1.728-2.475 0-4.47-.715-5.984-2.144-1.515-1.429-2.272-3.317-2.272-5.664 0-2.4533.714-4.384 2.144-5.792 1.45-1.408 3.338-2.112 5.664-2.112zm-.16 3.424c-1.835 0-2.859.9067-3.072 2.72h5.888c-.022-.8533-.299-1.5147-.832-1.984-.512-.4907-1.174-.736-1.984-.736z"/><path d="m503.015 109-3.264-4.608-3.296 4.608h-5.568l5.92-7.744-5.376-7.04h5.6l2.72 3.904 2.688-3.904h5.6l-5.376 7.04 5.92 7.744z"/><path d="m510.871 115.4v-21.184h4.832v2.016h.064c1.024-1.664 2.634-2.496 4.832-2.496 2.026 0 3.701.6933 5.024 2.08 1.322 1.3653 1.984 3.296 1.984 5.792s-.662 4.437-1.984 5.824c-1.323 1.365-2.998 2.048-5.024 2.048-2.198 0-3.808-.832-4.832-2.496h-.064v8.416zm8.384-10.336c.981 0 1.792-.309 2.432-.928.64-.64.96-1.483.96-2.528s-.32-1.8773-.96-2.496c-.64-.64-1.451-.96-2.432-.96-1.003 0-1.824.32-2.464.96-.64.6187-.96 1.451-.96 2.496s.32 1.888.96 2.528c.64.619 1.461.928 2.464.928z"/><path d="m535.41 86.632v4.864h-5.184v-4.864zm-4.992 22.368v-14.784h4.832v14.784z"/><path d="m548.63 93.768v4.832h-.416c-1.642 0-2.816.3627-3.52 1.088-.682.725-1.024 2.016-1.024 3.872v5.44h-4.832v-14.784h4.736v3.008h.064c.811-2.304 2.443-3.456 4.896-3.456z"/><path d="m557.455 93.768c2.283 0 4.075.672 5.376 2.016 1.301 1.3227 1.952 3.2853 1.952 5.888v1.088h-10.592c.299 1.792 1.557 2.688 3.776 2.688 1.493 0 2.923-.448 4.288-1.344l1.76 3.648c-1.877 1.152-3.915 1.728-6.112 1.728-2.475 0-4.469-.715-5.984-2.144s-2.272-3.317-2.272-5.664c0-2.4533.715-4.384 2.144-5.792 1.451-1.408 3.339-2.112 5.664-2.112zm-.16 3.424c-1.835 0-2.859.9067-3.072 2.72h5.888c-.021-.8533-.299-1.5147-.832-1.984-.512-.4907-1.173-.736-1.984-.736z"/><path d="m573.639 109.48c-2.027 0-3.702-.683-5.024-2.048-1.323-1.387-1.984-3.328-1.984-5.824s.661-4.4267 1.984-5.792c1.322-1.3867 2.997-2.08 5.024-2.08 2.197 0 3.808.832 4.832 2.496h.064v-9.632h4.832v22.4h-4.832v-2.016h-.064c-1.024 1.664-2.635 2.496-4.832 2.496zm1.344-4.416c1.002 0 1.824-.309 2.464-.928.64-.64.96-1.483.96-2.528s-.32-1.8773-.96-2.496c-.64-.64-1.462-.96-2.464-.96-.982 0-1.792.32-2.432.96-.64.6187-.96 1.451-.96 2.496s.32 1.888.96 2.528c.64.619 1.45.928 2.432.928z"/><path d="m314.448 216.92c2.389 0 4.224.491 5.504 1.472 1.301.981 1.952 2.389 1.952 4.224 0 1.259-.341 2.315-1.024 3.168-.661.832-1.6 1.387-2.816 1.664v.064c1.451.235 2.56.811 3.328 1.728.789.896 1.184 2.091 1.184 3.584 0 2.091-.704 3.723-2.112 4.896s-3.371 1.76-5.888 1.76c-2.645 0-4.672-.608-6.08-1.824s-2.112-2.965-2.112-5.248h5.056c.128 1.749 1.184 2.624 3.168 2.624 1.963 0 2.944-.907 2.944-2.72 0-.96-.331-1.632-.992-2.016-.64-.384-1.749-.576-3.328-.576h-.736v-3.648h.736c1.195 0 2.059-.203 2.592-.608.555-.405.832-1.045.832-1.92 0-1.451-.8-2.176-2.4-2.176-.789 0-1.408.192-1.856.576s-.683.907-.704 1.568h-4.96c.021-2.091.693-3.712 2.016-4.864 1.344-1.152 3.243-1.728 5.696-1.728z"/><path d="m327.311 219.864c1.557-1.963 3.765-2.944 6.624-2.944s5.056.981 6.592 2.944c1.557 1.941 2.336 4.715 2.336 8.32s-.779 6.389-2.336 8.352-3.755 2.944-6.592 2.944-5.035-.981-6.592-2.944-2.336-4.747-2.336-8.352.768-6.379 2.304-8.32zm6.624 1.632c-1.237 0-2.197.587-2.88 1.76-.683 1.152-1.024 2.795-1.024 4.928s.341 3.787 1.024 4.96 1.643 1.76 2.88 1.76 2.197-.587 2.88-1.76c.704-1.173 1.056-2.827 1.056-4.96s-.341-3.776-1.024-4.928c-.683-1.173-1.653-1.76-2.912-1.76z"/><path d="m354.962 228.344v4.32h-9.152v-4.32z"/><path d="m364.569 239.48c-2.027 0-3.702-.683-5.024-2.048-1.323-1.387-1.984-3.328-1.984-5.824s.661-4.427 1.984-5.792c1.322-1.387 2.997-2.08 5.024-2.08 2.197 0 3.808.832 4.832 2.496h.064v-9.632h4.832v22.4h-4.832v-2.016h-.064c-1.024 1.664-2.635 2.496-4.832 2.496zm1.344-4.416c1.002 0 1.824-.309 2.464-.928.64-.64.96-1.483.96-2.528s-.32-1.877-.96-2.496c-.64-.64-1.462-.96-2.464-.96-.982 0-1.792.32-2.432.96-.64.619-.96 1.451-.96 2.496s.32 1.888.96 2.528c.64.619 1.45.928 2.432.928z"/><path d="m384.115 239.48c-2.027 0-3.701-.683-5.024-2.048-1.323-1.387-1.984-3.328-1.984-5.824s.661-4.427 1.984-5.792c1.323-1.387 2.997-2.08 5.024-2.08 2.197 0 3.808.832 4.832 2.496h.064v-2.016h4.832v14.784h-4.832v-2.016h-.064c-1.024 1.664-2.635 2.496-4.832 2.496zm1.344-4.416c1.003 0 1.824-.309 2.464-.928.64-.64.96-1.483.96-2.528s-.32-1.877-.96-2.496c-.64-.64-1.461-.96-2.464-.96-.981 0-1.792.32-2.432.96-.64.619-.96 1.451-.96 2.496s.32 1.888.96 2.528c.64.619 1.451.928 2.432.928z"/><path d="m408.658 224.216h4.896l-9.824 21.184h-4.864l3.712-7.808-6.624-13.376h5.568l3.456 8.16z"/><path d="m433.553 223.736c1.706 0 3.061.512 4.064 1.536 1.002 1.024 1.504 2.549 1.504 4.576v9.152h-4.8v-7.808c0-2.133-.907-3.2-2.72-3.2-1.899 0-2.848 1.195-2.848 3.584v7.424h-4.832v-14.784h4.736v2.24h.064c1.066-1.813 2.677-2.72 4.832-2.72z"/><path d="m450.08 223.736c2.432 0 4.427.725 5.984 2.176s2.336 3.349 2.336 5.696-.779 4.245-2.336 5.696-3.552 2.176-5.984 2.176c-2.411 0-4.395-.725-5.952-2.176s-2.336-3.349-2.336-5.696.779-4.245 2.336-5.696 3.541-2.176 5.952-2.176zm0 4.416c-.981 0-1.803.32-2.464.96s-.992 1.472-.992 2.496.331 1.856.992 2.496 1.483.96 2.464.96c1.003 0 1.824-.309 2.464-.928.661-.64.992-1.483.992-2.528s-.331-1.877-.992-2.496c-.64-.64-1.461-.96-2.464-.96z"/><path d="m470.144 228.248h-3.04v4.448c0 .704.107 1.184.32 1.44.235.256.662.384 1.28.384h.544v4.48h-2.016c-3.306 0-4.96-1.664-4.96-4.992v-5.76h-2.88v-4.032h2.88v-5.92h4.832v5.92h3.04z"/><path d="m477.802 216.632v4.864h-5.184v-4.864zm-4.992 22.368v-14.784h4.832v14.784z"/><path d="m488.655 239.48c-2.39 0-4.363-.725-5.92-2.176-1.536-1.451-2.304-3.349-2.304-5.696s.768-4.245 2.304-5.696c1.557-1.451 3.53-2.176 5.92-2.176 1.898 0 3.68.48 5.344 1.44l-1.984 3.872c-.939-.597-1.984-.896-3.136-.896-1.003 0-1.856.309-2.56.928s-1.056 1.461-1.056 2.528.352 1.909 1.056 2.528 1.557.928 2.56.928c1.152 0 2.197-.299 3.136-.896l1.984 3.872c-1.664.96-3.446 1.44-5.344 1.44z"/><path d="m502.629 223.768c2.282 0 4.074.672 5.376 2.016 1.301 1.323 1.952 3.285 1.952 5.888v1.088h-10.592c.298 1.792 1.557 2.688 3.776 2.688 1.493 0 2.922-.448 4.288-1.344l1.76 3.648c-1.878 1.152-3.915 1.728-6.112 1.728-2.475 0-4.47-.715-5.984-2.144-1.515-1.429-2.272-3.317-2.272-5.664 0-2.453.714-4.384 2.144-5.792 1.45-1.408 3.338-2.112 5.664-2.112zm-.16 3.424c-1.835 0-2.859.907-3.072 2.72h5.888c-.022-.853-.299-1.515-.832-1.984-.512-.491-1.174-.736-1.984-.736z"/><path d="m529.139 223.736c2.432 0 4.426.725 5.984 2.176 1.557 1.451 2.336 3.349 2.336 5.696s-.779 4.245-2.336 5.696c-1.558 1.451-3.552 2.176-5.984 2.176-2.411 0-4.395-.725-5.952-2.176-1.558-1.451-2.336-3.349-2.336-5.696s.778-4.245 2.336-5.696c1.557-1.451 3.541-2.176 5.952-2.176zm0 4.416c-.982 0-1.803.32-2.464.96-.662.64-.992 1.472-.992 2.496s.33 1.856.992 2.496c.661.64 1.482.96 2.464.96 1.002 0 1.824-.309 2.464-.928.661-.64.992-1.483.992-2.528s-.331-1.877-.992-2.496c-.64-.64-1.462-.96-2.464-.96z"/><path d="m549.036 220.76c-1.066 0-1.813.192-2.24.576-.405.384-.607 1.109-.607 2.176v.704h3.135v4.032h-3.135v10.752h-4.832v-10.752h-2.593v-4.032h2.593v-.864c0-2.432.576-4.213 1.728-5.344 1.173-1.152 2.965-1.728 5.375-1.728h.992v4.48z"/><path d="m565.97 216.632v4.864h-5.184v-4.864zm-4.992 22.368v-14.784h4.832v14.784z"/><path d="m579.03 223.736c1.707 0 3.062.512 4.064 1.536 1.003 1.024 1.504 2.549 1.504 4.576v9.152h-4.8v-7.808c0-2.133-.906-3.2-2.72-3.2-1.898 0-2.848 1.195-2.848 3.584v7.424h-4.832v-14.784h4.736v2.24h.064c1.067-1.813 2.678-2.72 4.832-2.72z"/><path d="m597.044 228.248h-3.04v4.448c0 .704.107 1.184.32 1.44.235.256.662.384 1.28.384h.544v4.48h-2.016c-3.306 0-4.96-1.664-4.96-4.992v-5.76h-2.88v-4.032h2.88v-5.92h4.832v5.92h3.04z"/><path d="m606.186 223.768c2.283 0 4.075.672 5.376 2.016 1.302 1.323 1.952 3.285 1.952 5.888v1.088h-10.592c.299 1.792 1.558 2.688 3.776 2.688 1.494 0 2.923-.448 4.288-1.344l1.76 3.648c-1.877 1.152-3.914 1.728-6.112 1.728-2.474 0-4.469-.715-5.984-2.144-1.514-1.429-2.272-3.317-2.272-5.664 0-2.453.715-4.384 2.144-5.792 1.451-1.408 3.339-2.112 5.664-2.112zm-.16 3.424c-1.834 0-2.858.907-3.072 2.72h5.888c-.021-.853-.298-1.515-.832-1.984-.512-.491-1.173-.736-1.984-.736z"/><path d="m625.794 223.736c1.707 0 3.061.512 4.064 1.536s1.504 2.549 1.504 4.576v9.152h-4.8v-7.808c0-2.133-.907-3.2-2.72-3.2-1.899 0-2.848 1.195-2.848 3.584v7.424h-4.832v-14.784h4.736v2.24h.064c1.067-1.813 2.677-2.72 4.832-2.72z"/><path d="m643.808 228.248h-3.04v4.448c0 .704.107 1.184.32 1.44.235.256.662.384 1.28.384h.544v4.48h-2.016c-3.306 0-4.96-1.664-4.96-4.992v-5.76h-2.88v-4.032h2.88v-5.92h4.832v5.92h3.04z"/><path d="m651.466 216.632v4.864h-5.184v-4.864zm-4.992 22.368v-14.784h4.832v14.784z"/><path d="m662.382 223.736c2.432 0 4.427.725 5.984 2.176 1.558 1.451 2.336 3.349 2.336 5.696s-.778 4.245-2.336 5.696c-1.557 1.451-3.552 2.176-5.984 2.176-2.41 0-4.394-.725-5.952-2.176-1.557-1.451-2.336-3.349-2.336-5.696s.779-4.245 2.336-5.696c1.558-1.451 3.542-2.176 5.952-2.176zm0 4.416c-.981 0-1.802.32-2.464.96-.661.64-.992 1.472-.992 2.496s.331 1.856.992 2.496c.662.64 1.483.96 2.464.96 1.003 0 1.824-.309 2.464-.928.662-.64.992-1.483.992-2.528s-.33-1.877-.992-2.496c-.64-.64-1.461-.96-2.464-.96z"/><path d="m683.104 223.736c1.707 0 3.061.512 4.064 1.536s1.504 2.549 1.504 4.576v9.152h-4.8v-7.808c0-2.133-.907-3.2-2.72-3.2-1.899 0-2.848 1.195-2.848 3.584v7.424h-4.832v-14.784h4.736v2.24h.064c1.067-1.813 2.677-2.72 4.832-2.72z"/><path d="m710.789 228.248h-3.039v4.448c0 .704.106 1.184.319 1.44.235.256.662.384 1.28.384h.544v4.48h-2.015c-3.307 0-4.961-1.664-4.961-4.992v-5.76h-2.88v-4.032h2.88v-5.92h4.833v5.92h3.039z"/><path d="m720.411 223.736c2.432 0 4.427.725 5.984 2.176 1.558 1.451 2.336 3.349 2.336 5.696s-.778 4.245-2.336 5.696c-1.557 1.451-3.552 2.176-5.984 2.176-2.41 0-4.394-.725-5.952-2.176-1.557-1.451-2.336-3.349-2.336-5.696s.779-4.245 2.336-5.696c1.558-1.451 3.542-2.176 5.952-2.176zm0 4.416c-.981 0-1.802.32-2.464.96-.661.64-.992 1.472-.992 2.496s.331 1.856.992 2.496c.662.64 1.483.96 2.464.96 1.003 0 1.824-.309 2.464-.928.662-.64.992-1.483.992-2.528s-.33-1.877-.992-2.496c-.64-.64-1.461-.96-2.464-.96z"/><path d="m747.555 223.768c2.283 0 4.075.672 5.376 2.016 1.301 1.323 1.952 3.285 1.952 5.888v1.088h-10.592c.299 1.792 1.557 2.688 3.776 2.688 1.493 0 2.923-.448 4.288-1.344l1.76 3.648c-1.877 1.152-3.915 1.728-6.112 1.728-2.475 0-4.469-.715-5.984-2.144s-2.272-3.317-2.272-5.664c0-2.453.715-4.384 2.144-5.792 1.451-1.408 3.339-2.112 5.664-2.112zm-.16 3.424c-1.835 0-2.859.907-3.072 2.72h5.888c-.021-.853-.299-1.515-.832-1.984-.512-.491-1.173-.736-1.984-.736z"/><path d="m766.901 224.216h5.344l-6.144 14.784h-4.832l-6.144-14.784h5.344l3.2 9.344z"/><path d="m779.539 216.632v4.864h-5.185v-4.864zm-4.992 22.368v-14.784h4.831v14.784z"/><path d="m790.391 239.48c-2.389 0-4.363-.725-5.92-2.176-1.536-1.451-2.304-3.349-2.304-5.696s.768-4.245 2.304-5.696c1.557-1.451 3.531-2.176 5.92-2.176 1.899 0 3.68.48 5.344 1.44l-1.984 3.872c-.939-.597-1.984-.896-3.136-.896-1.003 0-1.856.309-2.56.928s-1.056 1.461-1.056 2.528.352 1.909 1.056 2.528 1.557.928 2.56.928c1.152 0 2.197-.299 3.136-.896l1.984 3.872c-1.664.96-3.445 1.44-5.344 1.44z"/><path d="m807.644 228.248h-3.04v4.448c0 .704.107 1.184.32 1.44.235.256.662.384 1.28.384h.544v4.48h-2.016c-3.306 0-4.959-1.664-4.959-4.992v-5.76h-2.88v-4.032h2.88v-5.92h4.831v5.92h3.04z"/><path d="m826.333 223.768c2.282 0 4.074.672 5.375 2.016 1.302 1.323 1.953 3.285 1.953 5.888v1.088h-10.593c.299 1.792 1.558 2.688 3.776 2.688 1.494 0 2.923-.448 4.289-1.344l1.76 3.648c-1.878 1.152-3.915 1.728-6.112 1.728-2.475 0-4.47-.715-5.984-2.144-1.515-1.429-2.273-3.317-2.273-5.664 0-2.453.715-4.384 2.145-5.792 1.45-1.408 3.338-2.112 5.664-2.112zm-.161 3.424c-1.834 0-2.858.907-3.072 2.72h5.888c-.021-.853-.298-1.515-.832-1.984-.512-.491-1.173-.736-1.984-.736z"/><path d="m845.94 223.736c1.707 0 3.062.512 4.064 1.536 1.003 1.024 1.504 2.549 1.504 4.576v9.152h-4.8v-7.808c0-2.133-.906-3.2-2.72-3.2-1.898 0-2.848 1.195-2.848 3.584v7.424h-4.832v-14.784h4.736v2.24h.064c1.067-1.813 2.678-2.72 4.832-2.72z"/><path d="m861.188 239.48c-2.027 0-3.702-.683-5.024-2.048-1.323-1.387-1.984-3.328-1.984-5.824s.661-4.427 1.984-5.792c1.322-1.387 2.997-2.08 5.024-2.08 2.197 0 3.807.832 4.831 2.496h.064v-9.632h4.832v22.4h-4.832v-2.016h-.064c-1.024 1.664-2.634 2.496-4.831 2.496zm1.343-4.416c1.003 0 1.824-.309 2.464-.928.64-.64.961-1.483.961-2.528s-.321-1.877-.961-2.496c-.64-.64-1.461-.96-2.464-.96-.981 0-1.792.32-2.432.96-.64.619-.96 1.451-.96 2.496s.32 1.888.96 2.528c.64.619 1.451.928 2.432.928z"/><path d="m881.534 223.768c2.282 0 4.074.672 5.376 2.016 1.301 1.323 1.952 3.285 1.952 5.888v1.088h-10.592c.298 1.792 1.557 2.688 3.776 2.688 1.493 0 2.922-.448 4.288-1.344l1.76 3.648c-1.878 1.152-3.915 1.728-6.112 1.728-2.475 0-4.47-.715-5.984-2.144-1.515-1.429-2.272-3.317-2.272-5.664 0-2.453.714-4.384 2.144-5.792 1.45-1.408 3.338-2.112 5.664-2.112zm-.16 3.424c-1.835 0-2.859.907-3.072 2.72h5.888c-.022-.853-.299-1.515-.832-1.984-.512-.491-1.174-.736-1.984-.736z"/><path d="m897.717 239.48c-2.026 0-3.701-.683-5.024-2.048-1.322-1.387-1.984-3.328-1.984-5.824s.662-4.427 1.984-5.792c1.323-1.387 2.998-2.08 5.024-2.08 2.198 0 3.808.832 4.832 2.496h.064v-9.632h4.832v22.4h-4.832v-2.016h-.064c-1.024 1.664-2.634 2.496-4.832 2.496zm1.344-4.416c1.003 0 1.824-.309 2.464-.928.64-.64.96-1.483.96-2.528s-.32-1.877-.96-2.496c-.64-.64-1.461-.96-2.464-.96-.981 0-1.792.32-2.432.96-.64.619-.96 1.451-.96 2.496s.32 1.888.96 2.528c.64.619 1.451.928 2.432.928z"/><path d="m318.96 288.48c-3.584 0-6.528-1.067-8.832-3.2s-3.456-4.96-3.456-8.48 1.152-6.347 3.456-8.48 5.248-3.2 8.832-3.2c2.987 0 5.664.832 8.032 2.496l-2.688 4.352c-1.728-1.152-3.509-1.728-5.344-1.728-1.984 0-3.616.597-4.896 1.792-1.28 1.173-1.92 2.763-1.92 4.768s.64 3.605 1.92 4.8c1.28 1.173 2.912 1.76 4.896 1.76 1.835 0 3.616-.576 5.344-1.728l2.688 4.352c-2.368 1.664-5.045 2.496-8.032 2.496z"/><path d="m337.072 265.6c3.584 0 6.496 1.013 8.736 3.04 2.24 2.005 3.36 4.725 3.36 8.16s-1.12 6.165-3.36 8.192c-2.24 2.005-5.152 3.008-8.736 3.008h-7.136v-22.4zm.416 4.512h-2.592v13.376h2.592c1.856 0 3.37-.587 4.544-1.76 1.194-1.195 1.792-2.837 1.792-4.928s-.598-3.723-1.792-4.896c-1.174-1.195-2.688-1.792-4.544-1.792z"/><path d="m363.427 288.48c-3.584 0-6.528-1.067-8.832-3.2s-3.456-4.96-3.456-8.48 1.152-6.347 3.456-8.48 5.248-3.2 8.832-3.2c2.987 0 5.664.832 8.032 2.496l-2.688 4.352c-1.728-1.152-3.509-1.728-5.344-1.728-1.984 0-3.616.597-4.896 1.792-1.28 1.173-1.92 2.763-1.92 4.768s.64 3.605 1.92 4.8c1.28 1.173 2.912 1.76 4.896 1.76 1.835 0 3.616-.576 5.344-1.728l2.688 4.352c-2.368 1.664-5.045 2.496-8.032 2.496z"/><path d="m382.969 288v-14.784h4.736v2.176h.064c.896-1.771 2.432-2.656 4.608-2.656 2.262 0 3.808.96 4.64 2.88h.064c1.088-1.92 2.742-2.88 4.96-2.88 1.579 0 2.848.501 3.808 1.504.982 1.003 1.472 2.379 1.472 4.128v9.632h-4.832v-8.032c0-1.984-.8-2.976-2.4-2.976-1.749 0-2.624 1.227-2.624 3.68v7.328h-4.64v-8.032c0-1.984-.8-2.976-2.4-2.976-1.749 0-2.624 1.227-2.624 3.68v7.328z"/><path d="m418.222 272.736c2.432 0 4.427.725 5.984 2.176 1.558 1.451 2.336 3.349 2.336 5.696s-.778 4.245-2.336 5.696c-1.557 1.451-3.552 2.176-5.984 2.176-2.41 0-4.394-.725-5.952-2.176-1.557-1.451-2.336-3.349-2.336-5.696s.779-4.245 2.336-5.696c1.558-1.451 3.542-2.176 5.952-2.176zm0 4.416c-.981 0-1.802.32-2.464.96-.661.64-.992 1.472-.992 2.496s.331 1.856.992 2.496c.662.64 1.483.96 2.464.96 1.003 0 1.824-.309 2.464-.928.662-.64.992-1.483.992-2.528s-.33-1.877-.992-2.496c-.64-.64-1.461-.96-2.464-.96z"/><path d="m439.104 272.768v4.832h-.416c-1.643 0-2.816.363-3.52 1.088-.683.725-1.024 2.016-1.024 3.872v5.44h-4.832v-14.784h4.736v3.008h.064c.811-2.304 2.443-3.456 4.896-3.456z"/><path d="m447.129 288.48c-2.027 0-3.702-.683-5.024-2.048-1.323-1.387-1.984-3.328-1.984-5.824s.661-4.427 1.984-5.792c1.322-1.387 2.997-2.08 5.024-2.08 2.197 0 3.808.832 4.832 2.496h.064v-2.016h4.832v14.784h-4.832v-2.016h-.064c-1.024 1.664-2.635 2.496-4.832 2.496zm1.344-4.416c1.002 0 1.824-.309 2.464-.928.64-.64.96-1.483.96-2.528s-.32-1.877-.96-2.496c-.64-.64-1.462-.96-2.464-.96-.982 0-1.792.32-2.432.96-.64.619-.96 1.451-.96 2.496s.32 1.888.96 2.528c.64.619 1.45.928 2.432.928z"/><path d="m469.911 277.248h-3.04v4.448c0 .704.106 1.184.32 1.44.234.256.661.384 1.28.384h.544v4.48h-2.016c-3.307 0-4.96-1.664-4.96-4.992v-5.76h-2.88v-4.032h2.88v-5.92h4.832v5.92h3.04z"/><path d="m479.532 272.736c2.432 0 4.427.725 5.984 2.176 1.558 1.451 2.336 3.349 2.336 5.696s-.778 4.245-2.336 5.696c-1.557 1.451-3.552 2.176-5.984 2.176-2.41 0-4.394-.725-5.952-2.176-1.557-1.451-2.336-3.349-2.336-5.696s.779-4.245 2.336-5.696c1.558-1.451 3.542-2.176 5.952-2.176zm0 4.416c-.981 0-1.802.32-2.464.96-.661.64-.992 1.472-.992 2.496s.331 1.856.992 2.496c.662.64 1.483.96 2.464.96 1.003 0 1.824-.309 2.464-.928.662-.64.992-1.483.992-2.528s-.33-1.877-.992-2.496c-.64-.64-1.461-.96-2.464-.96z"/><path d="m500.414 272.768v4.832h-.416c-1.643 0-2.816.363-3.52 1.088-.683.725-1.024 2.016-1.024 3.872v5.44h-4.832v-14.784h4.736v3.008h.064c.811-2.304 2.443-3.456 4.896-3.456z"/><path d="m507.88 265.632v4.864h-5.184v-4.864zm-4.992 22.368v-14.784h4.832v14.784z"/><path d="m516.748 288.48c-1.664 0-3.018-.512-4.064-1.536-1.024-1.045-1.536-2.581-1.536-4.608v-9.12h4.992v8.064c0 1.984.811 2.976 2.432 2.976 1.856 0 2.784-1.301 2.784-3.904v-7.136h4.832v14.784h-4.736v-2.304h-.064c-1.152 1.856-2.698 2.784-4.64 2.784z"/><path d="m529.761 288v-14.784h4.736v2.176h.064c.896-1.771 2.432-2.656 4.608-2.656 2.261 0 3.808.96 4.64 2.88h.064c1.088-1.92 2.741-2.88 4.96-2.88 1.578 0 2.848.501 3.808 1.504.981 1.003 1.472 2.379 1.472 4.128v9.632h-4.832v-8.032c0-1.984-.8-2.976-2.4-2.976-1.75 0-2.624 1.227-2.624 3.68v7.328h-4.64v-8.032c0-1.984-.8-2.976-2.4-2.976-1.75 0-2.624 1.227-2.624 3.68v7.328z"/><path d="m571.596 265.632v4.864h-5.184v-4.864zm-4.992 22.368v-14.784h4.832v14.784z"/><path d="m584.656 272.736c1.707 0 3.062.512 4.064 1.536 1.003 1.024 1.504 2.549 1.504 4.576v9.152h-4.8v-7.808c0-2.133-.906-3.2-2.72-3.2-1.898 0-2.848 1.195-2.848 3.584v7.424h-4.832v-14.784h4.736v2.24h.064c1.067-1.813 2.678-2.72 4.832-2.72z"/><path d="m599.232 288.48c-2.411 0-4.64-.512-6.688-1.536l1.824-3.968c1.941 1.131 3.69 1.696 5.248 1.696.896 0 1.344-.224 1.344-.672 0-.107-.022-.203-.064-.288-.022-.085-.086-.149-.192-.192-.086-.064-.16-.107-.224-.128-.043-.043-.139-.085-.288-.128-.128-.064-.214-.107-.256-.128l-2.592-1.024c-2.411-.917-3.616-2.443-3.616-4.576 0-1.536.533-2.72 1.6-3.552 1.066-.832 2.645-1.248 4.736-1.248 1.706 0 3.488.299 5.344.896l-1.344 3.904c-1.771-.725-3.232-1.088-4.384-1.088-.79 0-1.184.213-1.184.64 0 .213.085.384.256.512.17.107.458.245.864.416l2.56.96c1.194.448 2.09 1.013 2.688 1.696.597.683.896 1.621.896 2.816 0 1.707-.576 2.965-1.728 3.776s-2.752 1.216-4.8 1.216z"/><path d="m617.811 277.248h-3.04v4.448c0 .704.106 1.184.32 1.44.234.256.661.384 1.28.384h.544v4.48h-2.016c-3.307 0-4.96-1.664-4.96-4.992v-5.76h-2.88v-4.032h2.88v-5.92h4.832v5.92h3.04z"/><path d="m625.468 265.632v4.864h-5.184v-4.864zm-4.991 22.368v-14.784h4.832v14.784z"/><path d="m638.497 277.248h-3.04v4.448c0 .704.107 1.184.32 1.44.235.256.661.384 1.28.384h.544v4.48h-2.016c-3.307 0-4.96-1.664-4.96-4.992v-5.76h-2.88v-4.032h2.88v-5.92h4.832v5.92h3.04z"/><path d="m646.571 288.48c-1.664 0-3.019-.512-4.064-1.536-1.024-1.045-1.536-2.581-1.536-4.608v-9.12h4.992v8.064c0 1.984.81 2.976 2.432 2.976 1.856 0 2.784-1.301 2.784-3.904v-7.136h4.832v14.784h-4.736v-2.304h-.064c-1.152 1.856-2.699 2.784-4.64 2.784z"/><path d="m669.183 277.248h-3.04v4.448c0 .704.107 1.184.32 1.44.235.256.662.384 1.28.384h.544v4.48h-2.016c-3.306 0-4.96-1.664-4.96-4.992v-5.76h-2.88v-4.032h2.88v-5.92h4.832v5.92h3.04z"/><path d="m678.325 272.768c2.283 0 4.075.672 5.376 2.016 1.301 1.323 1.952 3.285 1.952 5.888v1.088h-10.592c.299 1.792 1.557 2.688 3.776 2.688 1.493 0 2.923-.448 4.288-1.344l1.76 3.648c-1.877 1.152-3.915 1.728-6.112 1.728-2.475 0-4.469-.715-5.984-2.144s-2.272-3.317-2.272-5.664c0-2.453.715-4.384 2.144-5.792 1.451-1.408 3.339-2.112 5.664-2.112zm-.16 3.424c-1.835 0-2.859.907-3.072 2.72h5.888c-.021-.853-.299-1.515-.832-1.984-.512-.491-1.173-.736-1.984-.736z"/><path d="m694.509 288.48c-2.027 0-3.702-.683-5.024-2.048-1.323-1.387-1.984-3.328-1.984-5.824s.661-4.427 1.984-5.792c1.322-1.387 2.997-2.08 5.024-2.08 2.197 0 3.808.832 4.832 2.496h.064v-9.632h4.832v22.4h-4.832v-2.016h-.064c-1.024 1.664-2.635 2.496-4.832 2.496zm1.344-4.416c1.002 0 1.824-.309 2.464-.928.64-.64.96-1.483.96-2.528s-.32-1.877-.96-2.496c-.64-.64-1.462-.96-2.464-.96-.982 0-1.792.32-2.432.96-.64.619-.96 1.451-.96 2.496s.32 1.888.96 2.528c.64.619 1.45.928 2.432.928z"/><path d="m214.136 98.516v-6.024h-1.548v6.144c0 .696-.336 1.152-1.032 1.152-.312 0-.576-.132-.744-.312-.264-.288-.312-.72-.312-1.14h-1.5c0 .924.24 1.62.744 2.136.42.432 1.008.696 1.812.696 1.632 0 2.58-1.044 2.58-2.652z"/><path d="m222.323 97.736v-5.244h-1.548v5.22c0 1.212-.552 2.04-1.788 2.04s-1.788-.828-1.788-2.04v-5.22h-1.548v5.244c0 2.028 1.14 3.42 3.336 3.42s3.336-1.392 3.336-3.42z"/><path d="m229.566 101v-1.464h-3.948v-7.044h-1.548v8.508z"/><path d="m236.14 92.492h-1.608l-2.1 3.672-2.1-3.672h-1.68l2.952 5.244v3.264h1.56v-3.264z"/><path d="m244.416 101v-1.356h-3.336l2.304-2.76c.468-.564.912-1.296.912-2.04 0-1.464-1.14-2.352-2.568-2.352-1.716 0-2.652 1.056-2.664 2.52h1.536c0-.66.408-1.2 1.116-1.2.684 0 1.056.456 1.056 1.044 0 .336-.144.732-.432 1.068l-3.252 3.876v1.2z"/><path d="m251.583 98.168c0-1.584-.9-2.796-2.58-2.796-.744 0-1.272.18-1.656.54l.096-1.908h3.768v-1.344h-5.064l-.18 4.704h1.476c.264-.42.756-.672 1.248-.672.96 0 1.368.636 1.368 1.512 0 .9-.36 1.632-1.368 1.632-.792 0-1.368-.444-1.404-1.272h-1.5c.084 1.572 1.236 2.604 2.892 2.604 1.86 0 2.904-1.236 2.904-3z"/><path d="m258.691 93.932v-1.44h-6.588v1.44h2.52v7.068h1.548v-7.068z"/><path d="m266.342 101v-8.508h-1.548v3.324h-3.492v-3.324h-1.548v8.508h1.548v-3.708h3.492v3.708z"/><path d="m200.176 232-2.988-8.508h-1.692l-2.988 8.508h1.56l.552-1.632h3.384l.552 1.632zm-2.652-3.024h-2.424l1.212-3.588z"/><path d="m207.424 228.736v-5.244h-1.548v5.22c0 1.212-.552 2.04-1.788 2.04s-1.788-.828-1.788-2.04v-5.22h-1.548v5.244c0 2.028 1.14 3.42 3.336 3.42s3.336-1.392 3.336-3.42z"/><path d="m215.628 232v-4.656h-3.528v1.284h2.028c0 .648-.096 1.176-.552 1.656-.288.3-.72.492-1.272.492-.492 0-1.044-.18-1.38-.54-.588-.612-.672-1.704-.672-2.484s.072-1.836.66-2.448c.336-.36.9-.576 1.392-.576.588 0 1.056.168 1.356.516.18.216.348.444.372.78h1.584c-.048-.744-.36-1.284-.78-1.716-.576-.588-1.476-.972-2.52-.972-.912 0-1.884.348-2.532.996-.924.924-1.104 2.028-1.104 3.42s.216 2.532 1.104 3.456c.672.708 1.548.96 2.532.948 1.068-.012 1.884-.6 2.136-1.092l.18.936z"/><path d="m223.807 228.736v-5.244h-1.548v5.22c0 1.212-.552 2.04-1.788 2.04s-1.788-.828-1.788-2.04v-5.22h-1.548v5.244c0 2.028 1.14 3.42 3.336 3.42s3.336-1.392 3.336-3.42z"/><path d="m231.747 229.468c0-1.452-1.068-2.28-2.34-2.46-.552-.072-1.308-.132-1.848-.216-.504-.084-.864-.372-.864-.924 0-.312.108-.528.288-.72.348-.36.9-.468 1.38-.468.456 0 1.02.168 1.296.456.204.216.36.54.372.84h1.584c-.012-.708-.36-1.332-.864-1.812-.576-.54-1.464-.828-2.376-.828-.996 0-1.932.348-2.496.9-.444.444-.744 1.008-.744 1.68 0 1.416.984 2.184 2.16 2.376.564.096 1.308.12 1.884.228.528.096 1.008.384 1.008 1.008 0 .408-.144.612-.336.816-.324.336-.888.456-1.476.456-.492 0-1.068-.096-1.428-.456-.252-.252-.444-.624-.444-1.044h-1.584c0 .804.384 1.524.888 1.98.696.636 1.644.876 2.544.876 1.044 0 2.04-.264 2.688-.912.42-.42.708-.984.708-1.776z"/><path d="m238.566 224.932v-1.44h-6.588v1.44h2.52v7.068h1.548v-7.068z"/><path d="m246.908 232v-1.356h-3.336l2.304-2.76c.468-.564.912-1.296.912-2.04 0-1.464-1.14-2.352-2.568-2.352-1.716 0-2.652 1.056-2.664 2.52h1.536c0-.66.408-1.2 1.116-1.2.684 0 1.056.456 1.056 1.044 0 .336-.144.732-.432 1.068l-3.252 3.876v1.2z"/><path d="m254.28 230.32v-1.356h-1.056v-1.956h-1.5v1.956h-2.136l3.108-5.304h-1.632l-3.06 5.244v1.416h3.72v1.68h1.5v-1.68z"/><path d="m261.183 224.932v-1.44h-6.588v1.44h2.52v7.068h1.548v-7.068z"/><path d="m268.834 232v-8.508h-1.548v3.324h-3.492v-3.324h-1.548v8.508h1.548v-3.708h3.492v3.708z"/><path d="m179.188 278.468c0-1.452-1.068-2.28-2.34-2.46-.552-.072-1.308-.132-1.848-.216-.504-.084-.864-.372-.864-.924 0-.312.108-.528.288-.72.348-.36.9-.468 1.38-.468.456 0 1.02.168 1.296.456.204.216.36.54.372.84h1.584c-.012-.708-.36-1.332-.864-1.812-.576-.54-1.464-.828-2.376-.828-.996 0-1.932.348-2.496.9-.444.444-.744 1.008-.744 1.68 0 1.416.984 2.184 2.16 2.376.564.096 1.308.12 1.884.228.528.096 1.008.384 1.008 1.008 0 .408-.144.612-.336.816-.324.336-.888.456-1.476.456-.492 0-1.068-.096-1.428-.456-.252-.252-.444-.624-.444-1.044h-1.584c0 .804.384 1.524.888 1.98.696.636 1.644.876 2.544.876 1.044 0 2.04-.264 2.688-.912.42-.42.708-.984.708-1.776z"/><path d="m186.638 281v-1.404h-4.512v-2.328h3.972v-1.392h-3.972v-1.98h4.512v-1.404h-6.06v8.508z"/><path d="m194.449 275.216c0-1.632-1.044-2.724-3-2.724h-3.336v8.508h1.536v-3.048h1.8c1.956 0 3-1.104 3-2.736zm-1.56.012c0 .816-.468 1.368-1.5 1.368h-1.74v-2.748h1.74c1.032 0 1.5.564 1.5 1.38z"/><path d="m201.265 273.932v-1.44h-6.588v1.44h2.52v7.068h1.548v-7.068z"/><path d="m208.388 281v-1.404h-4.512v-2.328h3.972v-1.392h-3.972v-1.98h4.512v-1.404h-6.06v8.508z"/><path d="m218.407 281v-8.508h-1.98l-2.244 6.06-2.232-6.06h-2.088v8.508h1.5v-6.144l2.196 6.024h1.14l2.208-5.952v6.072z"/><path d="m226.914 278.528c0-.792-.42-1.548-1.224-1.92.72-.324 1.044-1.104 1.044-1.8 0-.732-.36-1.44-.984-1.848-.576-.372-1.284-.468-1.968-.468h-3.384v8.52h3.384c.816 0 1.608-.072 2.268-.576.612-.468.864-1.152.864-1.908zm-1.752-3.624c0 .804-.588 1.056-1.284 1.056h-1.944v-2.136h1.908c.696 0 1.32.264 1.32 1.08zm.18 3.588c0 .864-.78 1.128-1.5 1.128h-1.908v-2.364h1.956c.816 0 1.452.324 1.452 1.236z"/><path d="m234.427 281v-1.404h-4.512v-2.328h3.972v-1.392h-3.972v-1.98h4.512v-1.404h-6.06v8.508z"/><path d="m242.442 281-1.56-3.48c.936-.348 1.56-1.248 1.56-2.388 0-1.368-.924-2.64-2.952-2.64h-3.588v8.508h1.56v-3.216h1.884l1.416 3.216zm-1.548-5.868c0 .804-.504 1.26-1.38 1.26h-2.064v-2.544h2.04c.876 0 1.404.6 1.404 1.284z"/><path d="m251.924 279.32v-1.356h-1.056v-1.956h-1.5v1.956h-2.136l3.108-5.304h-1.632l-3.06 5.244v1.416h3.72v1.68h1.5v-1.68z"/><path d="m258.828 273.932v-1.44h-6.588v1.44h2.52v7.068h1.548v-7.068z"/><path d="m266.479 281v-8.508h-1.548v3.324h-3.492v-3.324h-1.548v8.508h1.548v-3.708h3.492v3.708z"/><path d="m173.188 340.468c0-1.452-1.068-2.28-2.34-2.46-.552-.072-1.308-.132-1.848-.216-.504-.084-.864-.372-.864-.924 0-.312.108-.528.288-.72.348-.36.9-.468 1.38-.468.456 0 1.02.168 1.296.456.204.216.36.54.372.84h1.584c-.012-.708-.36-1.332-.864-1.812-.576-.54-1.464-.828-2.376-.828-.996 0-1.932.348-2.496.9-.444.444-.744 1.008-.744 1.68 0 1.416.984 2.184 2.16 2.376.564.096 1.308.12 1.884.228.528.096 1.008.384 1.008 1.008 0 .408-.144.612-.336.816-.324.336-.888.456-1.476.456-.492 0-1.068-.096-1.428-.456-.252-.252-.444-.624-.444-1.044h-1.584c0 .804.384 1.524.888 1.98.696.636 1.644.876 2.544.876 1.044 0 2.04-.264 2.688-.912.42-.42.708-.984.708-1.776z"/><path d="m180.638 343v-1.404h-4.512v-2.328h3.972v-1.392h-3.972v-1.98h4.512v-1.404h-6.06v8.508z"/><path d="m188.449 337.216c0-1.632-1.044-2.724-3-2.724h-3.336v8.508h1.536v-3.048h1.8c1.956 0 3-1.104 3-2.736zm-1.56.012c0 .816-.468 1.368-1.5 1.368h-1.74v-2.748h1.74c1.032 0 1.5.564 1.5 1.38z"/><path d="m195.265 335.932v-1.44h-6.588v1.44h2.52v7.068h1.548v-7.068z"/><path d="m202.388 343v-1.404h-4.512v-2.328h3.972v-1.392h-3.972v-1.98h4.512v-1.404h-6.06v8.508z"/><path d="m212.407 343v-8.508h-1.98l-2.244 6.06-2.232-6.06h-2.088v8.508h1.5v-6.144l2.196 6.024h1.14l2.208-5.952v6.072z"/><path d="m220.914 340.528c0-.792-.42-1.548-1.224-1.92.72-.324 1.044-1.104 1.044-1.8 0-.732-.36-1.44-.984-1.848-.576-.372-1.284-.468-1.968-.468h-3.384v8.52h3.384c.816 0 1.608-.072 2.268-.576.612-.468.864-1.152.864-1.908zm-1.752-3.624c0 .804-.588 1.056-1.284 1.056h-1.944v-2.136h1.908c.696 0 1.32.264 1.32 1.08zm.18 3.588c0 .864-.78 1.128-1.5 1.128h-1.908v-2.364h1.956c.816 0 1.452.324 1.452 1.236z"/><path d="m228.427 343v-1.404h-4.512v-2.328h3.972v-1.392h-3.972v-1.98h4.512v-1.404h-6.06v8.508z"/><path d="m236.442 343-1.56-3.48c.936-.348 1.56-1.248 1.56-2.388 0-1.368-.924-2.64-2.952-2.64h-3.588v8.508h1.56v-3.216h1.884l1.416 3.216zm-1.548-5.868c0 .804-.504 1.26-1.38 1.26h-2.064v-2.544h2.04c.876 0 1.404.6 1.404 1.284z"/><path d="m244.052 343v-8.34h-1.284l-2.052 1.476v1.632l1.836-1.332v6.564z"/><path d="m252.432 338.68c0-.528-.036-1.02-.132-1.56-.252-1.5-1.236-2.628-2.82-2.628-1.896 0-2.868 1.272-2.868 2.904 0 1.692.948 2.844 2.748 2.844.504 0 1.212-.168 1.584-.612 0 .732-.12 1.488-.576 1.908-.204.192-.432.336-.828.336-.408 0-.696-.096-.888-.3-.156-.156-.264-.384-.288-.636h-1.512c0 .492.24 1.092.708 1.536.432.408 1.056.684 1.908.684.996 0 1.584-.36 2.04-.84.852-.912.924-2.412.924-3.636zm-1.632-1.224c0 .876-.492 1.56-1.296 1.56-.924 0-1.368-.696-1.368-1.56 0-.972.444-1.62 1.344-1.62.888 0 1.32.708 1.32 1.62z"/><path d="m259.976 335.932v-1.44h-6.588v1.44h2.52v7.068h1.548v-7.068z"/><path d="m267.627 343v-8.508h-1.548v3.324h-3.492v-3.324h-1.548v8.508h1.548v-3.708h3.492v3.708z"/><path d="m204.668 147-2.988-8.508h-1.692l-2.988 8.508h1.56l.552-1.632h3.384l.552 1.632zm-2.652-3.024h-2.424l1.212-3.588z"/><path d="m211.916 143.736v-5.244h-1.548v5.22c0 1.212-.552 2.04-1.788 2.04s-1.788-.828-1.788-2.04v-5.22h-1.548v5.244c0 2.028 1.14 3.42 3.336 3.42s3.336-1.392 3.336-3.42z"/><path d="m220.12 147v-4.656h-3.528v1.284h2.028c0 .648-.096 1.176-.552 1.656-.288.3-.72.492-1.272.492-.492 0-1.044-.18-1.38-.54-.588-.612-.672-1.704-.672-2.484s.072-1.836.66-2.448c.336-.36.9-.576 1.392-.576.588 0 1.056.168 1.356.516.18.216.348.444.372.78h1.584c-.048-.744-.36-1.284-.78-1.716-.576-.588-1.476-.972-2.52-.972-.912 0-1.884.348-2.532.996-.924.924-1.104 2.028-1.104 3.42s.216 2.532 1.104 3.456c.672.708 1.548.96 2.532.948 1.068-.012 1.884-.6 2.136-1.092l.18.936z"/><path d="m228.299 143.736v-5.244h-1.548v5.22c0 1.212-.552 2.04-1.788 2.04s-1.788-.828-1.788-2.04v-5.22h-1.548v5.244c0 2.028 1.14 3.42 3.336 3.42s3.336-1.392 3.336-3.42z"/><path d="m236.239 144.468c0-1.452-1.068-2.28-2.34-2.46-.552-.072-1.308-.132-1.848-.216-.504-.084-.864-.372-.864-.924 0-.312.108-.528.288-.72.348-.36.9-.468 1.38-.468.456 0 1.02.168 1.296.456.204.216.36.54.372.84h1.584c-.012-.708-.36-1.332-.864-1.812-.576-.54-1.464-.828-2.376-.828-.996 0-1.932.348-2.496.9-.444.444-.744 1.008-.744 1.68 0 1.416.984 2.184 2.16 2.376.564.096 1.308.12 1.884.228.528.096 1.008.384 1.008 1.008 0 .408-.144.612-.336.816-.324.336-.888.456-1.476.456-.492 0-1.068-.096-1.428-.456-.252-.252-.444-.624-.444-1.044h-1.584c0 .804.384 1.524.888 1.98.696.636 1.644.876 2.544.876 1.044 0 2.04-.264 2.688-.912.42-.42.708-.984.708-1.776z"/><path d="m243.058 139.932v-1.44h-6.588v1.44h2.52v7.068h1.548v-7.068z"/><path d="m251.592 142.68c0-.528-.036-1.02-.132-1.56-.252-1.5-1.236-2.628-2.82-2.628-1.896 0-2.868 1.272-2.868 2.904 0 1.692.948 2.844 2.748 2.844.504 0 1.212-.168 1.584-.612 0 .732-.12 1.488-.576 1.908-.204.192-.432.336-.828.336-.408 0-.696-.096-.888-.3-.156-.156-.264-.384-.288-.636h-1.512c0 .492.24 1.092.708 1.536.432.408 1.056.684 1.908.684.996 0 1.584-.36 2.04-.84.852-.912.924-2.412.924-3.636zm-1.632-1.224c0 .876-.492 1.56-1.296 1.56-.924 0-1.368-.696-1.368-1.56 0-.972.444-1.62 1.344-1.62.888 0 1.32.708 1.32 1.62z"/><path d="m259.137 139.932v-1.44h-6.588v1.44h2.52v7.068h1.548v-7.068z"/><path d="m266.787 147v-8.508h-1.548v3.324h-3.492v-3.324h-1.548v8.508h1.548v-3.708h3.492v3.708z"/></g><path d="m286.5 388-11.691-20.25h23.382z" fill="#e24000"/><path d="m58.8069 214.4c1.368 0 2.418.366 3.15 1.098.732.72 1.098 1.662 1.098 2.826 0 1.2-.366 2.172-1.098 2.916-.732.732-1.782 1.098-3.15 1.098h-2.088v4.662h-2.304v-12.6zm-.252 5.814c.636 0 1.134-.156 1.494-.468.36-.324.54-.792.54-1.404 0-.6-.18-1.05-.54-1.35-.36-.312-.858-.468-1.494-.468h-1.836v3.69z" fill="#fff"/><path d="m72.7144 224.84v2.16h-7.56v-12.6h7.47v2.16h-5.166v2.52h4.716v2.124h-4.716v3.636z" fill="#fff"/><path d="m78.4814 221.978h-.846v5.022h-2.304v-12.6h4.644c.828 0 1.548.162 2.16.486.612.312 1.08.756 1.404 1.332.336.576.504 1.242.504 1.998 0 .936-.264 1.734-.792 2.394-.516.648-1.2359 1.068-2.16 1.26l3.7261 5.13h-2.8981zm-.846-2.034h1.98c.648 0 1.134-.144 1.458-.432.336-.3.504-.72.504-1.26 0-.528-.168-.948-.504-1.26-.324-.312-.81-.468-1.458-.468h-1.98z" fill="#fff"/><path d="m89.1313 227h-2.322v-12.6h2.322z" fill="#fff"/><path d="m98.1446 214.13c1.236 0 2.3584.276 3.3664.828s1.8 1.332 2.376 2.34c.576.996.864 2.13.864 3.402s-.288 2.412-.864 3.42c-.576.996-1.368 1.77-2.376 2.322s-2.1304.828-3.3664.828-2.358-.276-3.366-.828c-.996-.552-1.782-1.326-2.358-2.322-.576-1.008-.864-2.148-.864-3.42s.288-2.406.864-3.402c.576-1.008 1.362-1.788 2.358-2.34 1.008-.552 2.13-.828 3.366-.828zm0 2.358c-.78 0-1.482.18-2.106.54-.612.348-1.092.846-1.44 1.494-.348.636-.522 1.362-.522 2.178s.174 1.548.522 2.196c.348.636.828 1.134 1.44 1.494.624.348 1.326.522 2.106.522s1.476-.174 2.0884-.522c.624-.36 1.11-.858 1.458-1.494s.522-1.368.522-2.196-.174-1.56-.522-2.196-.834-1.128-1.458-1.476c-.6124-.36-1.3084-.54-2.0884-.54z" fill="#fff"/><path d="m111.213 214.4c1.272 0 2.4.258 3.384.774.996.504 1.77 1.23 2.322 2.178.564.948.846 2.064.846 3.348s-.282 2.4-.846 3.348c-.552.948-1.326 1.68-2.322 2.196-.984.504-2.112.756-3.384.756h-4.032v-12.6zm-1.728 2.124v8.352h1.836c.768 0 1.446-.162 2.034-.486.6-.324 1.068-.798 1.404-1.422.348-.624.522-1.38.522-2.268s-.174-1.644-.522-2.268c-.336-.624-.804-1.098-1.404-1.422-.588-.324-1.266-.486-2.034-.486z" fill="#fff"/><path d="m68.8925 243.032c0 1.056-.204 1.98-.612 2.772-.408.78-1.002 1.386-1.782 1.818-.78.42-1.71.63-2.79.63-1.644 0-2.922-.468-3.834-1.404s-1.368-2.208-1.368-3.816v-7.632h2.43v7.488c0 .912.252 1.638.756 2.178s1.176.81 2.016.81 1.506-.27 1.998-.81c.504-.54.756-1.266.756-2.178v-7.488h2.43z" fill="#fff"/><path d="m82.435 248h-2.142l-6.12-8.64h-.018v8.64h-2.304v-12.6h2.142l6.12 8.658h.018v-8.658h2.304z" fill="#fff"/><path d="m89.5581 235.4c1.272 0 2.4.258 3.384.774.996.504 1.77 1.23 2.322 2.178.564.948.846 2.064.846 3.348s-.282 2.4-.846 3.348c-.552.948-1.326 1.68-2.322 2.196-.984.504-2.112.756-3.384.756h-4.032v-12.6zm-1.728 2.124v8.352h1.836c.768 0 1.446-.162 2.034-.486.6-.324 1.068-.798 1.404-1.422.348-.624.522-1.38.522-2.268s-.174-1.644-.522-2.268c-.336-.624-.804-1.098-1.404-1.422-.588-.324-1.266-.486-2.034-.486z" fill="#fff"/><path d="m106.093 245.84v2.16h-7.5598v-12.6h7.4698v2.16h-5.166v2.52h4.716v2.124h-4.716v3.636z" fill="#fff"/><path d="m111.86 242.978h-.846v5.022h-2.304v-12.6h4.644c.828 0 1.548.162 2.16.486.612.312 1.08.756 1.404 1.332.336.576.504 1.242.504 1.998 0 .936-.264 1.734-.792 2.394-.516.648-1.236 1.068-2.16 1.26l3.726 5.13h-2.898zm-.846-2.034h1.98c.648 0 1.134-.144 1.458-.432.336-.3.504-.72.504-1.26 0-.528-.168-.948-.504-1.26-.324-.312-.81-.468-1.458-.468h-1.98z" fill="#fff"/><path d="m44.4 266.138h-5.184l-1.062 2.862h-2.556l5.058-12.6h2.304l5.058 12.6h-2.556zm-.756-2.088-1.836-4.95-1.836 4.95z" fill="#fff"/><path d="m60.4989 269h-2.142l-6.12-8.64h-.018v8.64h-2.304v-12.6h2.142l6.12 8.658h.018v-8.658h2.304z" fill="#fff"/><path d="m71.1877 266.138h-5.184l-1.062 2.862h-2.556l5.058-12.6h2.304l5.058 12.6h-2.5561zm-.756-2.088-1.8361-4.95-1.8359 4.95z" fill="#fff"/><path d="m79.0065 266.822h5.256v2.178h-7.56v-12.6h2.304z" fill="#fff"/><path d="m90.0459 264.158v4.842h-2.322v-4.806l-4.212-7.794h2.718l2.628 5.418h.054l2.628-5.418h2.718z" fill="#fff"/><path d="m98.9352 256.13c1.1878 0 2.4178.294 3.6898.882l-.99 2.106c-1.008-.516-1.9018-.774-2.6818-.774-.876 0-1.314.306-1.314.918 0 .24.072.456.216.648.144.18.396.396.756.648l2.1778 1.53c.732.504 1.272 1.032 1.62 1.584.36.54.54 1.194.54 1.962 0 1.176-.384 2.076-1.152 2.7-.756.624-1.8058.936-3.1498.936-.792 0-1.566-.108-2.322-.324-.744-.216-1.422-.516-2.034-.9l1.026-2.106c1.248.732 2.382 1.098 3.402 1.098.576 0 1.014-.114 1.3138-.342.312-.24.468-.552.468-.936 0-.3-.102-.57-.306-.81-.2038-.24-.5278-.522-.9718-.846l-2.034-1.458c-.672-.468-1.176-.966-1.512-1.494-.324-.54-.486-1.146-.486-1.818 0-.996.324-1.776.972-2.34.66-.576 1.584-.864 2.772-.864z" fill="#fff"/><path d="m107.71 269h-2.322v-12.6h2.322z" fill="#fff"/><path d="m114.455 256.13c1.188 0 2.418.294 3.69.882l-.99 2.106c-1.008-.516-1.902-.774-2.682-.774-.876 0-1.314.306-1.314.918 0 .24.072.456.216.648.144.18.396.396.756.648l2.178 1.53c.732.504 1.272 1.032 1.62 1.584.36.54.54 1.194.54 1.962 0 1.176-.384 2.076-1.152 2.7-.756.624-1.806.936-3.15.936-.792 0-1.566-.108-2.322-.324-.744-.216-1.422-.516-2.034-.9l1.026-2.106c1.248.732 2.382 1.098 3.402 1.098.576 0 1.014-.114 1.314-.342.312-.24.468-.552.468-.936 0-.3-.102-.57-.306-.81s-.528-.522-.972-.846l-2.034-1.458c-.672-.468-1.176-.966-1.512-1.494-.324-.54-.486-1.146-.486-1.818 0-.996.324-1.776.972-2.34.66-.576 1.584-.864 2.772-.864z" fill="#fff"/><path d="m131 144h158v196h-158z" fill="url(#e)" fill-opacity=".1"/><path d="m189.5 144h-58.5v196h29.5" stroke="#fff" stroke-width="2"/><path d="m274 143h25v2h-25z" fill="#fff"/><path d="m274 339h25v2h-25z" fill="#fff"/></g></svg>