<svg width="2928" height="1661" viewBox="0 0 2928 1661" fill="none" xmlns="http://www.w3.org/2000/svg">
<rect width="2928" height="1661" fill="#F4F7F9"/>
<path d="M2719.75 1236.21H264.866V166.251H2719.75" stroke="white" stroke-width="8"/>
<path d="M262.793 1236.21H2719.75" stroke="white" stroke-width="4"/>
<path d="M262.793 970.793H2719.75" stroke="white" stroke-width="6"/>
<path d="M262.793 701.23H2719.75" stroke="white" stroke-width="6"/>
<path d="M262.793 435.814H2719.75" stroke="white" stroke-width="6"/>
<path d="M262.793 166.251H2719.75" stroke="white" stroke-width="4"/>
<path d="M264.866 1234.14V1236.21H2721.82V1234.14" stroke="white" stroke-width="8"/>
<path d="M264.866 1504.14V1506.21H2721.82V1504.14" stroke="white" stroke-width="8"/>
<line x1="2721" y1="162" x2="2721" y2="1506" stroke="white" stroke-width="8"/>
<path d="M673.392 1109.72H378.922V1502H673.392V1109.72Z" fill="#E04119"/>
<path d="M1009.34 1162.03H714.866V1502H1009.34V1162.03Z" fill="#444977"/>
<path d="M1465.56 827.717H1171.09V1504H1465.56V827.717Z" fill="#E04119"/>
<path d="M1801.5 910.527H1507.03V1504H1801.5V910.527Z" fill="#444977"/>
<path d="M2257.72 213.943H1963.25V1502H2257.72V213.943Z" fill="#E04119"/>
<path d="M2593.67 611.879H2299.2V1502H2593.67V611.879Z" fill="#444977"/>
<path d="M489.893 1585.61C496.574 1585.61 500.654 1583.16 504.377 1579.29L500.348 1575.21C497.288 1578.06 494.483 1579.85 490.097 1579.85C483.263 1579.85 478.316 1574.14 478.316 1567.15V1567.05C478.316 1560.06 483.263 1554.45 490.097 1554.45C494.177 1554.45 497.237 1556.24 500.093 1558.89L504.122 1554.25C500.705 1550.98 496.727 1548.69 490.148 1548.69C479.336 1548.69 471.737 1557 471.737 1567.15V1567.25C471.737 1577.5 479.489 1585.61 489.893 1585.61ZM510.358 1553.94H516.988V1548.08H510.358V1553.94ZM510.613 1585H516.784V1558.07H510.613V1585ZM533.876 1585.46C536.171 1585.46 537.905 1584.95 539.435 1584.08V1579.03C538.211 1579.64 536.987 1579.95 535.61 1579.95C533.519 1579.95 532.295 1578.98 532.295 1576.58V1563.38H539.537V1558.07H532.295V1550.68H526.124V1558.07H522.707V1563.38H526.124V1577.55C526.124 1583.47 529.337 1585.46 533.876 1585.46ZM551.275 1593.31C555.61 1593.31 558.007 1591.27 560.149 1585.77L570.859 1558.07H564.433L557.446 1578.06L549.796 1558.07H543.217L554.437 1585C553.417 1587.35 552.346 1588.11 550.612 1588.11C549.337 1588.11 548.113 1587.7 546.991 1587.09L544.9 1591.68C546.787 1592.7 548.674 1593.31 551.275 1593.31ZM455.314 1653.19L458.017 1649.06C450.775 1644.27 447.358 1638.96 447.358 1631.36C447.358 1623.76 450.775 1618.46 458.017 1613.67L455.314 1609.53C446.032 1614.63 441.187 1621.72 441.187 1631.36C441.187 1641 446.032 1648.09 455.314 1653.19ZM469.514 1646H475.736V1610.04H471.35L461.762 1613.1L463.088 1618.2L469.514 1616.42V1646ZM496.16 1646.61C504.065 1646.61 509.369 1641.82 509.369 1634.52V1634.42C509.369 1626.87 503.912 1623.2 496.976 1623.2C494.579 1623.2 492.998 1623.61 491.315 1624.22L491.876 1615.86H507.788V1610.3H486.47L485.45 1627.79L489.224 1630.29C491.06 1629.42 493.253 1628.71 495.803 1628.71C500.138 1628.71 503.198 1631.01 503.198 1634.63V1634.73C503.198 1638.45 500.393 1640.9 496.109 1640.9C492.794 1640.9 489.785 1639.27 486.929 1636.62L483.053 1641.15C486.419 1644.42 490.703 1646.61 496.16 1646.61ZM527.994 1646.61C535.389 1646.61 540.489 1641.92 540.489 1635.34V1635.24C540.489 1628.61 535.389 1625.91 529.983 1625.19L539.928 1614.99V1610.3H516.315V1615.76H531.768L522.129 1626.01L523.149 1629.93H526.056C531.054 1629.93 534.267 1631.92 534.267 1635.44V1635.54C534.267 1638.81 531.615 1640.95 528.096 1640.95C524.118 1640.95 521.262 1639.27 518.712 1636.26L514.326 1640.34C517.335 1644.01 521.772 1646.61 527.994 1646.61ZM562.07 1646.61C571.454 1646.61 577.676 1638.35 577.676 1628.15V1628.05C577.676 1617.85 571.505 1609.69 562.172 1609.69C552.788 1609.69 546.566 1617.95 546.566 1628.15V1628.25C546.566 1638.45 552.686 1646.61 562.07 1646.61ZM562.172 1640.95C556.613 1640.95 553.043 1635.19 553.043 1628.15V1628.05C553.043 1620.96 556.562 1615.35 562.07 1615.35C567.578 1615.35 571.199 1621.11 571.199 1628.15V1628.25C571.199 1635.29 567.731 1640.95 562.172 1640.95ZM585.715 1653.19C594.946 1648.09 599.842 1641 599.842 1631.36C599.842 1621.72 594.946 1614.63 585.715 1609.53L583.012 1613.67C590.254 1618.46 593.671 1623.76 593.671 1631.36C593.671 1638.96 590.254 1644.27 583.012 1649.06L585.715 1653.19Z" fill="#7D7D7D"/>
<path d="M173.818 1528.61C183.202 1528.61 189.424 1520.35 189.424 1510.15V1510.05C189.424 1499.85 183.253 1491.69 173.92 1491.69C164.536 1491.69 158.314 1499.95 158.314 1510.15V1510.25C158.314 1520.45 164.434 1528.61 173.818 1528.61ZM173.92 1522.95C168.361 1522.95 164.791 1517.19 164.791 1510.15V1510.05C164.791 1502.96 168.31 1497.35 173.818 1497.35C179.326 1497.35 182.947 1503.11 182.947 1510.15V1510.25C182.947 1517.29 179.479 1522.95 173.92 1522.95ZM203.125 1510.15C208.174 1510.15 211.591 1505.97 211.591 1501.02V1500.92C211.591 1496.02 208.225 1491.89 203.227 1491.89C198.178 1491.89 194.761 1496.07 194.761 1501.02V1501.12C194.761 1506.02 198.127 1510.15 203.125 1510.15ZM198.382 1528H203.431L229.543 1492.3H224.494L198.382 1528ZM224.698 1528.41C229.747 1528.41 233.164 1524.23 233.164 1519.28V1519.18C233.164 1514.28 229.798 1510.15 224.8 1510.15C219.751 1510.15 216.334 1514.33 216.334 1519.28V1519.38C216.334 1524.28 219.7 1528.41 224.698 1528.41ZM203.227 1506.22C200.932 1506.22 199.3 1503.93 199.3 1501.02V1500.92C199.3 1498.16 200.728 1495.82 203.125 1495.82C205.419 1495.82 207.052 1498.16 207.052 1501.02V1501.12C207.052 1503.88 205.624 1506.22 203.227 1506.22ZM224.8 1524.48C222.505 1524.48 220.873 1522.19 220.873 1519.28V1519.18C220.873 1516.42 222.3 1514.08 224.698 1514.08C226.993 1514.08 228.625 1516.42 228.625 1519.28V1519.38C228.625 1522.13 227.197 1524.48 224.8 1524.48Z" fill="#7D7D7D"/>
<path d="M172.828 1257H179.05V1221.04H174.664L165.076 1224.1L166.402 1229.2L172.828 1227.42V1257ZM194.782 1239.15C199.831 1239.15 203.248 1234.97 203.248 1230.02V1229.92C203.248 1225.02 199.882 1220.89 194.884 1220.89C189.835 1220.89 186.418 1225.07 186.418 1230.02V1230.12C186.418 1235.02 189.784 1239.15 194.782 1239.15ZM190.039 1257H195.088L221.2 1221.3H216.151L190.039 1257ZM216.355 1257.41C221.404 1257.41 224.821 1253.23 224.821 1248.28V1248.18C224.821 1243.28 221.455 1239.15 216.457 1239.15C211.408 1239.15 207.991 1243.33 207.991 1248.28V1248.38C207.991 1253.28 211.357 1257.41 216.355 1257.41ZM194.884 1235.22C192.589 1235.22 190.957 1232.93 190.957 1230.02V1229.92C190.957 1227.16 192.385 1224.82 194.782 1224.82C197.077 1224.82 198.709 1227.16 198.709 1230.02V1230.12C198.709 1232.88 197.281 1235.22 194.884 1235.22ZM216.457 1253.48C214.162 1253.48 212.53 1251.19 212.53 1248.28V1248.18C212.53 1245.42 213.958 1243.08 216.355 1243.08C218.65 1243.08 220.282 1245.42 220.282 1248.28V1248.38C220.282 1251.13 218.854 1253.48 216.457 1253.48Z" fill="#7D7D7D"/>
<path d="M160.72 988H186.526V982.492H169.543L176.887 976.372C183.211 971.221 186.169 968.161 186.169 962.551V962.449C186.169 956.074 181.375 951.79 174.388 951.79C168.013 951.79 164.647 954.493 161.23 959.287L165.667 962.755C168.421 959.185 170.665 957.4 173.929 957.4C177.193 957.4 179.692 959.44 179.692 962.959C179.692 966.172 177.907 968.467 173.011 972.598L160.72 983.053V988ZM200.311 970.15C205.36 970.15 208.777 965.968 208.777 961.021V960.919C208.777 956.023 205.411 951.892 200.413 951.892C195.364 951.892 191.947 956.074 191.947 961.021V961.123C191.947 966.019 195.313 970.15 200.311 970.15ZM195.568 988H200.617L226.729 952.3H221.68L195.568 988ZM221.884 988.408C226.933 988.408 230.35 984.226 230.35 979.279V979.177C230.35 974.281 226.984 970.15 221.986 970.15C216.937 970.15 213.52 974.332 213.52 979.279V979.381C213.52 984.277 216.886 988.408 221.884 988.408ZM200.413 966.223C198.118 966.223 196.486 963.928 196.486 961.021V960.919C196.486 958.165 197.914 955.819 200.311 955.819C202.606 955.819 204.238 958.165 204.238 961.021V961.123C204.238 963.877 202.81 966.223 200.413 966.223ZM221.986 984.481C219.691 984.481 218.059 982.186 218.059 979.279V979.177C218.059 976.423 219.487 974.077 221.884 974.077C224.179 974.077 225.811 976.423 225.811 979.279V979.381C225.811 982.135 224.383 984.481 221.986 984.481Z" fill="#7D7D7D"/>
<path d="M173.958 718.612C181.353 718.612 186.453 713.92 186.453 707.341V707.239C186.453 700.609 181.353 697.906 175.947 697.192L185.892 686.992V682.3H162.279V687.757H177.732L168.093 698.008L169.113 701.935H172.02C177.018 701.935 180.231 703.924 180.231 707.443V707.545C180.231 710.809 177.579 712.951 174.06 712.951C170.082 712.951 167.226 711.268 164.676 708.259L160.29 712.339C163.299 716.011 167.736 718.612 173.958 718.612ZM200.435 700.15C205.484 700.15 208.901 695.968 208.901 691.021V690.919C208.901 686.023 205.535 681.892 200.537 681.892C195.488 681.892 192.071 686.074 192.071 691.021V691.123C192.071 696.019 195.437 700.15 200.435 700.15ZM195.692 718H200.741L226.853 682.3H221.804L195.692 718ZM222.008 718.408C227.057 718.408 230.474 714.226 230.474 709.279V709.177C230.474 704.281 227.108 700.15 222.11 700.15C217.061 700.15 213.644 704.332 213.644 709.279V709.381C213.644 714.277 217.01 718.408 222.008 718.408ZM200.537 696.223C198.242 696.223 196.61 693.928 196.61 691.021V690.919C196.61 688.165 198.038 685.819 200.435 685.819C202.73 685.819 204.362 688.165 204.362 691.021V691.123C204.362 693.877 202.934 696.223 200.537 696.223ZM222.11 714.481C219.815 714.481 218.183 712.186 218.183 709.279V709.177C218.183 706.423 219.611 704.077 222.008 704.077C224.303 704.077 225.935 706.423 225.935 709.279V709.381C225.935 712.135 224.507 714.481 222.11 714.481Z" fill="#7D7D7D"/>
<path d="M177.515 455H183.533V446.993H188.633V441.842H183.533V419.045H178.178L158.339 442.505L159.512 446.993H177.515V455ZM165.785 441.842L177.515 427.715V441.842H165.785ZM202.029 437.15C207.078 437.15 210.495 432.968 210.495 428.021V427.919C210.495 423.023 207.129 418.892 202.131 418.892C197.082 418.892 193.665 423.074 193.665 428.021V428.123C193.665 433.019 197.031 437.15 202.029 437.15ZM197.286 455H202.335L228.447 419.3H223.398L197.286 455ZM223.602 455.408C228.651 455.408 232.068 451.226 232.068 446.279V446.177C232.068 441.281 228.702 437.15 223.704 437.15C218.655 437.15 215.238 441.332 215.238 446.279V446.381C215.238 451.277 218.604 455.408 223.602 455.408ZM202.131 433.223C199.836 433.223 198.204 430.928 198.204 428.021V427.919C198.204 425.165 199.632 422.819 202.029 422.819C204.324 422.819 205.956 425.165 205.956 428.021V428.123C205.956 430.877 204.528 433.223 202.131 433.223ZM223.704 451.481C221.409 451.481 219.777 449.186 219.777 446.279V446.177C219.777 443.423 221.205 441.077 223.602 441.077C225.897 441.077 227.529 443.423 227.529 446.279V446.381C227.529 449.135 226.101 451.481 223.704 451.481Z" fill="#7D7D7D"/>
<path d="M173.501 185.612C181.406 185.612 186.71 180.818 186.71 173.525V173.423C186.71 165.875 181.253 162.203 174.317 162.203C171.92 162.203 170.339 162.611 168.656 163.223L169.217 154.859H185.129V149.3H163.811L162.791 166.793L166.565 169.292C168.401 168.425 170.594 167.711 173.144 167.711C177.479 167.711 180.539 170.006 180.539 173.627V173.729C180.539 177.452 177.734 179.9 173.45 179.9C170.135 179.9 167.126 178.268 164.27 175.616L160.394 180.155C163.76 183.419 168.044 185.612 173.501 185.612ZM200.535 167.15C205.584 167.15 209.001 162.968 209.001 158.021V157.919C209.001 153.023 205.635 148.892 200.637 148.892C195.588 148.892 192.171 153.074 192.171 158.021V158.123C192.171 163.019 195.537 167.15 200.535 167.15ZM195.792 185H200.841L226.953 149.3H221.904L195.792 185ZM222.108 185.408C227.157 185.408 230.574 181.226 230.574 176.279V176.177C230.574 171.281 227.208 167.15 222.21 167.15C217.161 167.15 213.744 171.332 213.744 176.279V176.381C213.744 181.277 217.11 185.408 222.108 185.408ZM200.637 163.223C198.342 163.223 196.71 160.928 196.71 158.021V157.919C196.71 155.165 198.138 152.819 200.535 152.819C202.83 152.819 204.462 155.165 204.462 158.021V158.123C204.462 160.877 203.034 163.223 200.637 163.223ZM222.21 181.481C219.915 181.481 218.283 179.186 218.283 176.279V176.177C218.283 173.423 219.711 171.077 222.108 171.077C224.403 171.077 226.035 173.423 226.035 176.279V176.381C226.035 179.135 224.607 181.481 222.21 181.481Z" fill="#7D7D7D"/>
<path d="M785.948 1585.51C793.445 1585.51 798.698 1581.53 798.698 1574.85V1574.75C798.698 1568.83 794.771 1566.13 787.223 1564.29C780.389 1562.66 778.757 1561.44 778.757 1558.68V1558.58C778.757 1556.24 780.899 1554.35 784.571 1554.35C787.835 1554.35 791.048 1555.62 794.261 1558.02L797.627 1553.28C794.006 1550.37 789.875 1548.79 784.673 1548.79C777.584 1548.79 772.484 1553.02 772.484 1559.14V1559.25C772.484 1565.82 776.768 1568.07 784.367 1569.9C790.997 1571.43 792.425 1572.81 792.425 1575.36V1575.46C792.425 1578.17 789.977 1579.95 786.101 1579.95C781.664 1579.95 778.247 1578.27 774.83 1575.31L771.056 1579.8C775.34 1583.62 780.491 1585.51 785.948 1585.51ZM814.643 1585.56C818.825 1585.56 821.324 1583.37 823.058 1580.82V1585H829.229V1558.07H823.058V1573.27C823.058 1577.45 820.559 1579.95 816.989 1579.95C813.317 1579.95 811.226 1577.55 811.226 1573.37V1558.07H805.055V1575.21C805.055 1581.48 808.574 1585.56 814.643 1585.56ZM852.287 1585.56C858.713 1585.56 864.833 1580.51 864.833 1571.59V1571.48C864.833 1562.56 858.662 1557.51 852.287 1557.51C847.952 1557.51 845.147 1559.75 843.158 1562.56V1547.77H836.987V1585H843.158V1580.82C845.045 1583.32 847.85 1585.56 852.287 1585.56ZM850.859 1580.21C846.677 1580.21 843.005 1576.79 843.005 1571.59V1571.48C843.005 1566.33 846.677 1562.87 850.859 1562.87C855.041 1562.87 858.56 1566.28 858.56 1571.48V1571.59C858.56 1576.89 855.092 1580.21 850.859 1580.21ZM880.435 1585.56C884.617 1585.56 887.116 1583.37 888.85 1580.82V1585H895.021V1558.07H888.85V1573.27C888.85 1577.45 886.351 1579.95 882.781 1579.95C879.109 1579.95 877.018 1577.55 877.018 1573.37V1558.07H870.847V1575.21C870.847 1581.48 874.366 1585.56 880.435 1585.56ZM902.779 1585H908.95V1574.75C908.95 1567.61 912.724 1564.09 918.13 1564.09H918.487V1557.56C913.744 1557.36 910.633 1560.11 908.95 1564.14V1558.07H902.779V1585ZM939.147 1585.56C945.573 1585.56 951.693 1580.51 951.693 1571.59V1571.48C951.693 1562.56 945.522 1557.51 939.147 1557.51C934.812 1557.51 932.007 1559.75 930.018 1562.56V1547.77H923.847V1585H930.018V1580.82C931.905 1583.32 934.71 1585.56 939.147 1585.56ZM937.719 1580.21C933.537 1580.21 929.865 1576.79 929.865 1571.59V1571.48C929.865 1566.33 933.537 1562.87 937.719 1562.87C941.901 1562.87 945.42 1566.28 945.42 1571.48V1571.59C945.42 1576.89 941.952 1580.21 937.719 1580.21ZM790.91 1653.19L793.613 1649.06C786.371 1644.27 782.954 1638.96 782.954 1631.36C782.954 1623.76 786.371 1618.46 793.613 1613.67L790.91 1609.53C781.628 1614.63 776.783 1621.72 776.783 1631.36C776.783 1641 781.628 1648.09 790.91 1653.19ZM817.044 1646H823.062V1637.99H828.162V1632.84H823.062V1610.04H817.707L797.868 1633.5L799.041 1637.99H817.044V1646ZM805.314 1632.84L817.044 1618.71V1632.84H805.314ZM846.811 1646.51C854.614 1646.51 860.428 1642.53 860.428 1636.16V1636.05C860.428 1631.82 857.878 1629.27 854.002 1627.49C857.011 1625.91 859.204 1623.51 859.204 1619.53V1619.43C859.204 1613.92 853.951 1609.79 846.811 1609.79C839.671 1609.79 834.418 1613.97 834.418 1619.43V1619.53C834.418 1623.51 836.611 1625.91 839.62 1627.49C835.591 1629.17 833.194 1631.87 833.194 1636.21V1636.31C833.194 1642.43 839.008 1646.51 846.811 1646.51ZM846.811 1625.4C843.139 1625.4 840.436 1623.2 840.436 1620.09V1619.99C840.436 1617.29 842.986 1615.04 846.811 1615.04C850.636 1615.04 853.186 1617.29 853.186 1620.04V1620.14C853.186 1623.2 850.483 1625.4 846.811 1625.4ZM846.811 1641.26C842.119 1641.26 839.314 1638.81 839.314 1635.9V1635.8C839.314 1632.54 842.578 1630.39 846.811 1630.39C851.044 1630.39 854.308 1632.54 854.308 1635.8V1635.9C854.308 1638.86 851.503 1641.26 846.811 1641.26ZM883.882 1646H889.9V1637.99H895V1632.84H889.9V1610.04H884.545L864.706 1633.5L865.879 1637.99H883.882V1646ZM872.152 1632.84L883.882 1618.71V1632.84H872.152ZM901.296 1646H908.334L924.45 1615.04V1610.3H899.358V1615.81H917.31L901.296 1646ZM932.119 1653.19C941.35 1648.09 946.246 1641 946.246 1631.36C946.246 1621.72 941.35 1614.63 932.119 1609.53L929.416 1613.67C936.658 1618.46 940.075 1623.76 940.075 1631.36C940.075 1638.96 936.658 1644.27 929.416 1649.06L932.119 1653.19Z" fill="#7D7D7D"/>
<path d="M1292.89 1585.61C1299.57 1585.61 1303.65 1583.16 1307.38 1579.29L1303.35 1575.21C1300.29 1578.06 1297.48 1579.85 1293.1 1579.85C1286.26 1579.85 1281.32 1574.14 1281.32 1567.15V1567.05C1281.32 1560.06 1286.26 1554.45 1293.1 1554.45C1297.18 1554.45 1300.24 1556.24 1303.09 1558.89L1307.12 1554.25C1303.71 1550.98 1299.73 1548.69 1293.15 1548.69C1282.34 1548.69 1274.74 1557 1274.74 1567.15V1567.25C1274.74 1577.5 1282.49 1585.61 1292.89 1585.61ZM1313.36 1553.94H1319.99V1548.08H1313.36V1553.94ZM1313.61 1585H1319.78V1558.07H1313.61V1585ZM1336.88 1585.46C1339.17 1585.46 1340.91 1584.95 1342.44 1584.08V1579.03C1341.21 1579.64 1339.99 1579.95 1338.61 1579.95C1336.52 1579.95 1335.3 1578.98 1335.3 1576.58V1563.38H1342.54V1558.07H1335.3V1550.68H1329.12V1558.07H1325.71V1563.38H1329.12V1577.55C1329.12 1583.47 1332.34 1585.46 1336.88 1585.46ZM1354.28 1593.31C1358.61 1593.31 1361.01 1591.27 1363.15 1585.77L1373.86 1558.07H1367.43L1360.45 1578.06L1352.8 1558.07H1346.22L1357.44 1585C1356.42 1587.35 1355.35 1588.11 1353.61 1588.11C1352.34 1588.11 1351.11 1587.7 1349.99 1587.09L1347.9 1591.68C1349.79 1592.7 1351.67 1593.31 1354.28 1593.31ZM1259.83 1653.19L1262.54 1649.06C1255.29 1644.27 1251.88 1638.96 1251.88 1631.36C1251.88 1623.76 1255.29 1618.46 1262.54 1613.67L1259.83 1609.53C1250.55 1614.63 1245.71 1621.72 1245.71 1631.36C1245.71 1641 1250.55 1648.09 1259.83 1653.19ZM1274.03 1646H1280.25V1610.04H1275.87L1266.28 1613.1L1267.61 1618.2L1274.03 1616.42V1646ZM1302.36 1646.61C1309.86 1646.61 1315.62 1641.56 1315.62 1634.47V1634.37C1315.62 1627.23 1310.06 1623.15 1303.13 1623.15C1298.95 1623.15 1296.5 1624.89 1294.61 1626.72C1294.92 1620.19 1297.87 1615.4 1303.18 1615.4C1306.29 1615.4 1308.43 1616.57 1310.93 1618.51L1314.3 1613.67C1311.19 1611.17 1308.02 1609.69 1303.38 1609.69C1293.28 1609.69 1288.08 1618.2 1288.08 1629.12V1629.22C1288.08 1636.41 1289.71 1640.13 1292.42 1642.89C1294.81 1645.23 1297.98 1646.61 1302.36 1646.61ZM1302.21 1641.21C1297.72 1641.21 1294.81 1638.4 1294.81 1634.78V1634.68C1294.81 1631.26 1297.62 1628.4 1302.06 1628.4C1306.49 1628.4 1309.35 1631.06 1309.35 1634.63V1634.73C1309.35 1638.4 1306.65 1641.21 1302.21 1641.21ZM1334.71 1646.51C1342.51 1646.51 1348.33 1642.53 1348.33 1636.16V1636.05C1348.33 1631.82 1345.78 1629.27 1341.9 1627.49C1344.91 1625.91 1347.1 1623.51 1347.1 1619.53V1619.43C1347.1 1613.92 1341.85 1609.79 1334.71 1609.79C1327.57 1609.79 1322.32 1613.97 1322.32 1619.43V1619.53C1322.32 1623.51 1324.51 1625.91 1327.52 1627.49C1323.49 1629.17 1321.09 1631.87 1321.09 1636.21V1636.31C1321.09 1642.43 1326.91 1646.51 1334.71 1646.51ZM1334.71 1625.4C1331.04 1625.4 1328.33 1623.2 1328.33 1620.09V1619.99C1328.33 1617.29 1330.88 1615.04 1334.71 1615.04C1338.53 1615.04 1341.08 1617.29 1341.08 1620.04V1620.14C1341.08 1623.2 1338.38 1625.4 1334.71 1625.4ZM1334.71 1641.26C1330.02 1641.26 1327.21 1638.81 1327.21 1635.9V1635.8C1327.21 1632.54 1330.48 1630.39 1334.71 1630.39C1338.94 1630.39 1342.21 1632.54 1342.21 1635.8V1635.9C1342.21 1638.86 1339.4 1641.26 1334.71 1641.26ZM1353.27 1646H1379.07V1640.49H1362.09L1369.43 1634.37C1375.76 1629.22 1378.72 1626.16 1378.72 1620.55V1620.45C1378.72 1614.07 1373.92 1609.79 1366.94 1609.79C1360.56 1609.79 1357.19 1612.49 1353.78 1617.29L1358.21 1620.75C1360.97 1617.19 1363.21 1615.4 1366.48 1615.4C1369.74 1615.4 1372.24 1617.44 1372.24 1620.96C1372.24 1624.17 1370.45 1626.47 1365.56 1630.6L1353.27 1641.05V1646ZM1387.2 1653.19C1396.43 1648.09 1401.32 1641 1401.32 1631.36C1401.32 1621.72 1396.43 1614.63 1387.2 1609.53L1384.49 1613.67C1391.74 1618.46 1395.15 1623.76 1395.15 1631.36C1395.15 1638.96 1391.74 1644.27 1384.49 1649.06L1387.2 1653.19Z" fill="#7D7D7D"/>
<path d="M1590.95 1585.51C1598.45 1585.51 1603.7 1581.53 1603.7 1574.85V1574.75C1603.7 1568.83 1599.77 1566.13 1592.22 1564.29C1585.39 1562.66 1583.76 1561.44 1583.76 1558.68V1558.58C1583.76 1556.24 1585.9 1554.35 1589.57 1554.35C1592.84 1554.35 1596.05 1555.62 1599.26 1558.02L1602.63 1553.28C1599.01 1550.37 1594.88 1548.79 1589.67 1548.79C1582.58 1548.79 1577.48 1553.02 1577.48 1559.14V1559.25C1577.48 1565.82 1581.77 1568.07 1589.37 1569.9C1596 1571.43 1597.43 1572.81 1597.43 1575.36V1575.46C1597.43 1578.17 1594.98 1579.95 1591.1 1579.95C1586.66 1579.95 1583.25 1578.27 1579.83 1575.31L1576.06 1579.8C1580.34 1583.62 1585.49 1585.51 1590.95 1585.51ZM1619.64 1585.56C1623.83 1585.56 1626.32 1583.37 1628.06 1580.82V1585H1634.23V1558.07H1628.06V1573.27C1628.06 1577.45 1625.56 1579.95 1621.99 1579.95C1618.32 1579.95 1616.23 1577.55 1616.23 1573.37V1558.07H1610.06V1575.21C1610.06 1581.48 1613.57 1585.56 1619.64 1585.56ZM1657.29 1585.56C1663.71 1585.56 1669.83 1580.51 1669.83 1571.59V1571.48C1669.83 1562.56 1663.66 1557.51 1657.29 1557.51C1652.95 1557.51 1650.15 1559.75 1648.16 1562.56V1547.77H1641.99V1585H1648.16V1580.82C1650.05 1583.32 1652.85 1585.56 1657.29 1585.56ZM1655.86 1580.21C1651.68 1580.21 1648.01 1576.79 1648.01 1571.59V1571.48C1648.01 1566.33 1651.68 1562.87 1655.86 1562.87C1660.04 1562.87 1663.56 1566.28 1663.56 1571.48V1571.59C1663.56 1576.89 1660.09 1580.21 1655.86 1580.21ZM1685.44 1585.56C1689.62 1585.56 1692.12 1583.37 1693.85 1580.82V1585H1700.02V1558.07H1693.85V1573.27C1693.85 1577.45 1691.35 1579.95 1687.78 1579.95C1684.11 1579.95 1682.02 1577.55 1682.02 1573.37V1558.07H1675.85V1575.21C1675.85 1581.48 1679.37 1585.56 1685.44 1585.56ZM1707.78 1585H1713.95V1574.75C1713.95 1567.61 1717.72 1564.09 1723.13 1564.09H1723.49V1557.56C1718.74 1557.36 1715.63 1560.11 1713.95 1564.14V1558.07H1707.78V1585ZM1744.15 1585.56C1750.57 1585.56 1756.69 1580.51 1756.69 1571.59V1571.48C1756.69 1562.56 1750.52 1557.51 1744.15 1557.51C1739.81 1557.51 1737.01 1559.75 1735.02 1562.56V1547.77H1728.85V1585H1735.02V1580.82C1736.9 1583.32 1739.71 1585.56 1744.15 1585.56ZM1742.72 1580.21C1738.54 1580.21 1734.86 1576.79 1734.86 1571.59V1571.48C1734.86 1566.33 1738.54 1562.87 1742.72 1562.87C1746.9 1562.87 1750.42 1566.28 1750.42 1571.48V1571.59C1750.42 1576.89 1746.95 1580.21 1742.72 1580.21ZM1601.54 1653.19L1604.24 1649.06C1597 1644.27 1593.58 1638.96 1593.58 1631.36C1593.58 1623.76 1597 1618.46 1604.24 1613.67L1601.54 1609.53C1592.26 1614.63 1587.41 1621.72 1587.41 1631.36C1587.41 1641 1592.26 1648.09 1601.54 1653.19ZM1622.52 1646.61C1629.92 1646.61 1635.02 1641.92 1635.02 1635.34V1635.24C1635.02 1628.61 1629.92 1625.91 1624.51 1625.19L1634.45 1614.99V1610.3H1610.84V1615.76H1626.29L1616.66 1626.01L1617.68 1629.93H1620.58C1625.58 1629.93 1628.79 1631.92 1628.79 1635.44V1635.54C1628.79 1638.81 1626.14 1640.95 1622.62 1640.95C1618.64 1640.95 1615.79 1639.27 1613.24 1636.26L1608.85 1640.34C1611.86 1644.01 1616.3 1646.61 1622.52 1646.61ZM1647.26 1646H1653.49V1610.04H1649.1L1639.51 1613.1L1640.84 1618.2L1647.26 1616.42V1646ZM1676.82 1646.61C1686.2 1646.61 1692.42 1638.35 1692.42 1628.15V1628.05C1692.42 1617.85 1686.25 1609.69 1676.92 1609.69C1667.54 1609.69 1661.31 1617.95 1661.31 1628.15V1628.25C1661.31 1638.45 1667.43 1646.61 1676.82 1646.61ZM1676.92 1640.95C1671.36 1640.95 1667.79 1635.19 1667.79 1628.15V1628.05C1667.79 1620.96 1671.31 1615.35 1676.82 1615.35C1682.33 1615.35 1685.95 1621.11 1685.95 1628.15V1628.25C1685.95 1635.29 1682.48 1640.95 1676.92 1640.95ZM1710.67 1646.61C1718.07 1646.61 1723.17 1641.92 1723.17 1635.34V1635.24C1723.17 1628.61 1718.07 1625.91 1712.66 1625.19L1722.61 1614.99V1610.3H1699V1615.76H1714.45L1704.81 1626.01L1705.83 1629.93H1708.74C1713.73 1629.93 1716.95 1631.92 1716.95 1635.44V1635.54C1716.95 1638.81 1714.3 1640.95 1710.78 1640.95C1706.8 1640.95 1703.94 1639.27 1701.39 1636.26L1697.01 1640.34C1700.02 1644.01 1704.45 1646.61 1710.67 1646.61ZM1731.49 1653.19C1740.72 1648.09 1745.62 1641 1745.62 1631.36C1745.62 1621.72 1740.72 1614.63 1731.49 1609.53L1728.79 1613.67C1736.03 1618.46 1739.45 1623.76 1739.45 1631.36C1739.45 1638.96 1736.03 1644.27 1728.79 1649.06L1731.49 1653.19Z" fill="#7D7D7D"/>
<path d="M2084.39 1585.61C2091.07 1585.61 2095.15 1583.16 2098.88 1579.29L2094.85 1575.21C2091.79 1578.06 2088.98 1579.85 2084.6 1579.85C2077.76 1579.85 2072.82 1574.14 2072.82 1567.15V1567.05C2072.82 1560.06 2077.76 1554.45 2084.6 1554.45C2088.68 1554.45 2091.74 1556.24 2094.59 1558.89L2098.62 1554.25C2095.21 1550.98 2091.23 1548.69 2084.65 1548.69C2073.84 1548.69 2066.24 1557 2066.24 1567.15V1567.25C2066.24 1577.5 2073.99 1585.61 2084.39 1585.61ZM2104.86 1553.94H2111.49V1548.08H2104.86V1553.94ZM2105.11 1585H2111.28V1558.07H2105.11V1585ZM2128.38 1585.46C2130.67 1585.46 2132.41 1584.95 2133.94 1584.08V1579.03C2132.71 1579.64 2131.49 1579.95 2130.11 1579.95C2128.02 1579.95 2126.8 1578.98 2126.8 1576.58V1563.38H2134.04V1558.07H2126.8V1550.68H2120.62V1558.07H2117.21V1563.38H2120.62V1577.55C2120.62 1583.47 2123.84 1585.46 2128.38 1585.46ZM2145.78 1593.31C2150.11 1593.31 2152.51 1591.27 2154.65 1585.77L2165.36 1558.07H2158.93L2151.95 1578.06L2144.3 1558.07H2137.72L2148.94 1585C2147.92 1587.35 2146.85 1588.11 2145.11 1588.11C2143.84 1588.11 2142.61 1587.7 2141.49 1587.09L2139.4 1591.68C2141.29 1592.7 2143.17 1593.31 2145.78 1593.31ZM2051.53 1653.19L2054.23 1649.06C2046.99 1644.27 2043.58 1638.96 2043.58 1631.36C2043.58 1623.76 2046.99 1618.46 2054.23 1613.67L2051.53 1609.53C2042.25 1614.63 2037.4 1621.72 2037.4 1631.36C2037.4 1641 2042.25 1648.09 2051.53 1653.19ZM2072.51 1646.61C2079.91 1646.61 2085.01 1641.92 2085.01 1635.34V1635.24C2085.01 1628.61 2079.91 1625.91 2074.5 1625.19L2084.45 1614.99V1610.3H2060.84V1615.76H2076.29L2066.65 1626.01L2067.67 1629.93H2070.58C2075.57 1629.93 2078.79 1631.92 2078.79 1635.44V1635.54C2078.79 1638.81 2076.14 1640.95 2072.62 1640.95C2068.64 1640.95 2065.78 1639.27 2063.23 1636.26L2058.85 1640.34C2061.86 1644.01 2066.29 1646.61 2072.51 1646.61ZM2097.26 1646H2103.48V1610.04H2099.09L2089.51 1613.1L2090.83 1618.2L2097.26 1616.42V1646ZM2123.9 1646.61C2131.81 1646.61 2137.11 1641.82 2137.11 1634.52V1634.42C2137.11 1626.87 2131.66 1623.2 2124.72 1623.2C2122.32 1623.2 2120.74 1623.61 2119.06 1624.22L2119.62 1615.86H2135.53V1610.3H2114.21L2113.19 1627.79L2116.97 1630.29C2118.8 1629.42 2121 1628.71 2123.55 1628.71C2127.88 1628.71 2130.94 1631.01 2130.94 1634.63V1634.73C2130.94 1638.45 2128.14 1640.9 2123.85 1640.9C2120.54 1640.9 2117.53 1639.27 2114.67 1636.62L2110.8 1641.15C2114.16 1644.42 2118.45 1646.61 2123.9 1646.61ZM2155.13 1646.61C2164.71 1646.61 2170.43 1638.66 2170.43 1627.18V1627.08C2170.43 1620.04 2168.74 1616.11 2166.09 1613.46C2163.59 1610.96 2160.69 1609.69 2156.2 1609.69C2148.29 1609.69 2142.89 1615.04 2142.89 1622.03V1622.13C2142.89 1629.02 2147.94 1633.45 2155.53 1633.45C2159.36 1633.45 2162.11 1631.82 2163.9 1629.68C2163.69 1636.26 2160.53 1640.9 2155.28 1640.9C2152.22 1640.9 2149.82 1639.83 2147.12 1637.53L2143.7 1642.33C2146.71 1644.83 2150.18 1646.61 2155.13 1646.61ZM2156.45 1628.2C2152.02 1628.2 2149.16 1625.55 2149.16 1621.83V1621.72C2149.16 1618.05 2151.81 1615.09 2156.25 1615.09C2160.79 1615.09 2163.69 1617.95 2163.69 1621.67V1621.77C2163.69 1625.24 2160.99 1628.2 2156.45 1628.2ZM2178.5 1653.19C2187.73 1648.09 2192.62 1641 2192.62 1631.36C2192.62 1621.72 2187.73 1614.63 2178.5 1609.53L2175.79 1613.67C2183.04 1618.46 2186.45 1623.76 2186.45 1631.36C2186.45 1638.96 2183.04 1644.27 2175.79 1649.06L2178.5 1653.19Z" fill="#7D7D7D"/>
<path d="M2380.45 1585.51C2387.95 1585.51 2393.2 1581.53 2393.2 1574.85V1574.75C2393.2 1568.83 2389.27 1566.13 2381.72 1564.29C2374.89 1562.66 2373.26 1561.44 2373.26 1558.68V1558.58C2373.26 1556.24 2375.4 1554.35 2379.07 1554.35C2382.34 1554.35 2385.55 1555.62 2388.76 1558.02L2392.13 1553.28C2388.51 1550.37 2384.38 1548.79 2379.17 1548.79C2372.08 1548.79 2366.98 1553.02 2366.98 1559.14V1559.25C2366.98 1565.82 2371.27 1568.07 2378.87 1569.9C2385.5 1571.43 2386.93 1572.81 2386.93 1575.36V1575.46C2386.93 1578.17 2384.48 1579.95 2380.6 1579.95C2376.16 1579.95 2372.75 1578.27 2369.33 1575.31L2365.56 1579.8C2369.84 1583.62 2374.99 1585.51 2380.45 1585.51ZM2409.14 1585.56C2413.33 1585.56 2415.82 1583.37 2417.56 1580.82V1585H2423.73V1558.07H2417.56V1573.27C2417.56 1577.45 2415.06 1579.95 2411.49 1579.95C2407.82 1579.95 2405.73 1577.55 2405.73 1573.37V1558.07H2399.56V1575.21C2399.56 1581.48 2403.07 1585.56 2409.14 1585.56ZM2446.79 1585.56C2453.21 1585.56 2459.33 1580.51 2459.33 1571.59V1571.48C2459.33 1562.56 2453.16 1557.51 2446.79 1557.51C2442.45 1557.51 2439.65 1559.75 2437.66 1562.56V1547.77H2431.49V1585H2437.66V1580.82C2439.55 1583.32 2442.35 1585.56 2446.79 1585.56ZM2445.36 1580.21C2441.18 1580.21 2437.51 1576.79 2437.51 1571.59V1571.48C2437.51 1566.33 2441.18 1562.87 2445.36 1562.87C2449.54 1562.87 2453.06 1566.28 2453.06 1571.48V1571.59C2453.06 1576.89 2449.59 1580.21 2445.36 1580.21ZM2474.94 1585.56C2479.12 1585.56 2481.62 1583.37 2483.35 1580.82V1585H2489.52V1558.07H2483.35V1573.27C2483.35 1577.45 2480.85 1579.95 2477.28 1579.95C2473.61 1579.95 2471.52 1577.55 2471.52 1573.37V1558.07H2465.35V1575.21C2465.35 1581.48 2468.87 1585.56 2474.94 1585.56ZM2497.28 1585H2503.45V1574.75C2503.45 1567.61 2507.22 1564.09 2512.63 1564.09H2512.99V1557.56C2508.24 1557.36 2505.13 1560.11 2503.45 1564.14V1558.07H2497.28V1585ZM2533.65 1585.56C2540.07 1585.56 2546.19 1580.51 2546.19 1571.59V1571.48C2546.19 1562.56 2540.02 1557.51 2533.65 1557.51C2529.31 1557.51 2526.51 1559.75 2524.52 1562.56V1547.77H2518.35V1585H2524.52V1580.82C2526.4 1583.32 2529.21 1585.56 2533.65 1585.56ZM2532.22 1580.21C2528.04 1580.21 2524.36 1576.79 2524.36 1571.59V1571.48C2524.36 1566.33 2528.04 1562.87 2532.22 1562.87C2536.4 1562.87 2539.92 1566.28 2539.92 1571.48V1571.59C2539.92 1576.89 2536.45 1580.21 2532.22 1580.21ZM2398.38 1653.19L2401.09 1649.06C2393.84 1644.27 2390.43 1638.96 2390.43 1631.36C2390.43 1623.76 2393.84 1618.46 2401.09 1613.67L2398.38 1609.53C2389.1 1614.63 2384.26 1621.72 2384.26 1631.36C2384.26 1641 2389.1 1648.09 2398.38 1653.19ZM2412.58 1646H2418.81V1610.04H2414.42L2404.83 1613.1L2406.16 1618.2L2412.58 1616.42V1646ZM2438.98 1646.61C2448.56 1646.61 2454.28 1638.66 2454.28 1627.18V1627.08C2454.28 1620.04 2452.59 1616.11 2449.94 1613.46C2447.44 1610.96 2444.53 1609.69 2440.05 1609.69C2432.14 1609.69 2426.74 1615.04 2426.74 1622.03V1622.13C2426.74 1629.02 2431.78 1633.45 2439.38 1633.45C2443.21 1633.45 2445.96 1631.82 2447.75 1629.68C2447.54 1636.26 2444.38 1640.9 2439.13 1640.9C2436.07 1640.9 2433.67 1639.83 2430.97 1637.53L2427.55 1642.33C2430.56 1644.83 2434.03 1646.61 2438.98 1646.61ZM2440.3 1628.2C2435.86 1628.2 2433.01 1625.55 2433.01 1621.83V1621.72C2433.01 1618.05 2435.66 1615.09 2440.1 1615.09C2444.64 1615.09 2447.54 1617.95 2447.54 1621.67V1621.77C2447.54 1625.24 2444.84 1628.2 2440.3 1628.2ZM2466.27 1646H2472.5V1610.04H2468.11L2458.52 1613.1L2459.85 1618.2L2466.27 1616.42V1646ZM2482.82 1646H2489.86L2505.98 1615.04V1610.3H2480.88V1615.81H2498.84L2482.82 1646ZM2513.65 1653.19C2522.88 1648.09 2527.77 1641 2527.77 1631.36C2527.77 1621.72 2522.88 1614.63 2513.65 1609.53L2510.94 1613.67C2518.18 1618.46 2521.6 1623.76 2521.6 1631.36C2521.6 1638.96 2518.18 1644.27 2510.94 1649.06L2513.65 1653.19Z" fill="#7D7D7D"/>
<line x1="264.5" y1="1502.02" x2="264.5" y2="1237.98" stroke="white" stroke-width="8"/>
<rect x="379" width="630.824" height="109" fill="white"/>
<rect x="1171.09" width="630.824" height="109" fill="white"/>
<rect x="1963.18" width="630.824" height="109" fill="white"/>
<path d="M554.59 70H579.631V64.288H560.863V34.3H554.59V70ZM597.755 70.612C606.068 70.612 612.188 64.237 612.188 56.587V56.485C612.188 48.784 606.119 42.511 597.857 42.511C589.595 42.511 583.475 48.886 583.475 56.587V56.689C583.475 64.339 589.544 70.612 597.755 70.612ZM597.857 65.257C593.063 65.257 589.646 61.279 589.646 56.587V56.485C589.646 51.793 592.808 47.917 597.755 47.917C602.6 47.917 606.017 51.844 606.017 56.587V56.689C606.017 61.33 602.855 65.257 597.857 65.257ZM623.655 70.204H629.163L635.232 51.793L641.25 70.204H646.758L655.581 43.072H649.41L643.902 61.534L637.884 42.97H632.631L626.664 61.534L621.258 43.072H614.934L623.655 70.204ZM660.952 50.059H667.735V43.072H660.952V50.059ZM660.952 70H667.735V63.013H660.952V70ZM714.559 66.073V60.157L696.301 51.997L714.559 43.888V38.023L690.181 49.294V54.802L714.559 66.073ZM743.455 70H749.677V34.045H745.291L735.703 37.105L737.029 42.205L743.455 40.42V70ZM773.009 70.612C782.393 70.612 788.615 62.35 788.615 52.15V52.048C788.615 41.848 782.444 33.688 773.111 33.688C763.727 33.688 757.505 41.95 757.505 52.15V52.252C757.505 62.452 763.625 70.612 773.009 70.612ZM773.111 64.951C767.552 64.951 763.982 59.188 763.982 52.15V52.048C763.982 44.959 767.501 39.349 773.009 39.349C778.517 39.349 782.138 45.112 782.138 52.15V52.252C782.138 59.29 778.67 64.951 773.111 64.951ZM802.315 52.15C807.364 52.15 810.781 47.968 810.781 43.021V42.919C810.781 38.023 807.415 33.892 802.417 33.892C797.368 33.892 793.951 38.074 793.951 43.021V43.123C793.951 48.019 797.317 52.15 802.315 52.15ZM797.572 70H802.621L828.733 34.3H823.684L797.572 70ZM823.888 70.408C828.937 70.408 832.354 66.226 832.354 61.279V61.177C832.354 56.281 828.988 52.15 823.99 52.15C818.941 52.15 815.524 56.332 815.524 61.279V61.381C815.524 66.277 818.89 70.408 823.888 70.408ZM802.417 48.223C800.122 48.223 798.49 45.928 798.49 43.021V42.919C798.49 40.165 799.918 37.819 802.315 37.819C804.61 37.819 806.242 40.165 806.242 43.021V43.123C806.242 45.877 804.814 48.223 802.417 48.223ZM823.99 66.481C821.695 66.481 820.063 64.186 820.063 61.279V61.177C820.063 58.423 821.491 56.077 823.888 56.077C826.183 56.077 827.815 58.423 827.815 61.279V61.381C827.815 64.135 826.387 66.481 823.99 66.481Z" fill="#7D7D7D"/>
<path d="M1243.59 70H1249.76V44.5L1260.93 61.228H1261.13L1272.41 44.398V70H1278.68V34.3H1272L1261.13 51.181L1250.27 34.3H1243.59V70ZM1299.49 70.612C1304.44 70.612 1307.96 68.623 1310.51 65.563L1306.89 62.35C1304.75 64.441 1302.61 65.563 1299.6 65.563C1295.62 65.563 1292.51 63.115 1291.84 58.729H1311.63C1311.68 58.117 1311.73 57.556 1311.73 56.995C1311.73 49.243 1307.4 42.511 1298.83 42.511C1291.13 42.511 1285.67 48.835 1285.67 56.536V56.638C1285.67 64.951 1291.69 70.612 1299.49 70.612ZM1291.79 54.649C1292.35 50.467 1295.01 47.56 1298.78 47.56C1302.86 47.56 1305.21 50.671 1305.61 54.649H1291.79ZM1329.05 70.561C1333.44 70.561 1336.24 68.317 1338.23 65.512V70H1344.4V32.77H1338.23V47.254C1336.29 44.755 1333.49 42.511 1329.05 42.511C1322.62 42.511 1316.55 47.56 1316.55 56.485V56.587C1316.55 65.512 1322.73 70.561 1329.05 70.561ZM1330.53 65.206C1326.35 65.206 1322.78 61.789 1322.78 56.587V56.485C1322.78 51.13 1326.3 47.866 1330.53 47.866C1334.66 47.866 1338.33 51.283 1338.33 56.485V56.587C1338.33 61.738 1334.66 65.206 1330.53 65.206ZM1352.2 38.941H1358.83V33.076H1352.2V38.941ZM1352.45 70H1358.63V43.072H1352.45V70ZM1375.97 70.561C1380.15 70.561 1382.65 68.368 1384.39 65.818V70H1390.56V43.072H1384.39V58.27C1384.39 62.452 1381.89 64.951 1378.32 64.951C1374.65 64.951 1372.56 62.554 1372.56 58.372V43.072H1366.38V60.208C1366.38 66.481 1369.9 70.561 1375.97 70.561ZM1398.32 70H1404.49V54.853C1404.49 50.671 1406.83 48.121 1410.25 48.121C1413.67 48.121 1415.71 50.467 1415.71 54.649V70H1421.88V54.802C1421.88 50.467 1424.28 48.121 1427.64 48.121C1431.11 48.121 1433.1 50.416 1433.1 54.7V70H1439.27V52.813C1439.27 46.234 1435.7 42.511 1429.83 42.511C1425.75 42.511 1422.9 44.398 1420.71 47.254C1419.28 44.398 1416.57 42.511 1412.7 42.511C1408.57 42.511 1406.22 44.755 1404.49 47.152V43.072H1398.32V70ZM1446.62 50.059H1453.41V43.072H1446.62V50.059ZM1446.62 70H1453.41V63.013H1446.62V70ZM1481.51 70H1487.73V34.045H1483.35L1473.76 37.105L1475.09 42.205L1481.51 40.42V70ZM1511.07 70.612C1520.45 70.612 1526.67 62.35 1526.67 52.15V52.048C1526.67 41.848 1520.5 33.688 1511.17 33.688C1501.78 33.688 1495.56 41.95 1495.56 52.15V52.252C1495.56 62.452 1501.68 70.612 1511.07 70.612ZM1511.17 64.951C1505.61 64.951 1502.04 59.188 1502.04 52.15V52.048C1502.04 44.959 1505.56 39.349 1511.07 39.349C1516.57 39.349 1520.2 45.112 1520.2 52.15V52.252C1520.2 59.29 1516.73 64.951 1511.17 64.951ZM1540.37 52.15C1545.42 52.15 1548.84 47.968 1548.84 43.021V42.919C1548.84 38.023 1545.47 33.892 1540.47 33.892C1535.43 33.892 1532.01 38.074 1532.01 43.021V43.123C1532.01 48.019 1535.37 52.15 1540.37 52.15ZM1535.63 70H1540.68L1566.79 34.3H1561.74L1535.63 70ZM1561.95 70.408C1566.99 70.408 1570.41 66.226 1570.41 61.279V61.177C1570.41 56.281 1567.05 52.15 1562.05 52.15C1557 52.15 1553.58 56.332 1553.58 61.279V61.381C1553.58 66.277 1556.95 70.408 1561.95 70.408ZM1540.47 48.223C1538.18 48.223 1536.55 45.928 1536.55 43.021V42.919C1536.55 40.165 1537.98 37.819 1540.37 37.819C1542.67 37.819 1544.3 40.165 1544.3 43.021V43.123C1544.3 45.877 1542.87 48.223 1540.47 48.223ZM1562.05 66.481C1559.75 66.481 1558.12 64.186 1558.12 61.279V61.177C1558.12 58.423 1559.55 56.077 1561.95 56.077C1564.24 56.077 1565.87 58.423 1565.87 61.279V61.381C1565.87 64.135 1564.44 66.481 1562.05 66.481ZM1590.99 57.403H1606.08V51.334H1590.99V57.403ZM1626.74 70H1652.54V64.492H1635.56L1642.91 58.372C1649.23 53.221 1652.19 50.161 1652.19 44.551V44.449C1652.19 38.074 1647.39 33.79 1640.41 33.79C1634.03 33.79 1630.67 36.493 1627.25 41.287L1631.69 44.755C1634.44 41.185 1636.68 39.4 1639.95 39.4C1643.21 39.4 1645.71 41.44 1645.71 44.959C1645.71 48.172 1643.93 50.467 1639.03 54.598L1626.74 65.053V70ZM1673.93 70.612C1683.31 70.612 1689.53 62.35 1689.53 52.15V52.048C1689.53 41.848 1683.36 33.688 1674.03 33.688C1664.65 33.688 1658.42 41.95 1658.42 52.15V52.252C1658.42 62.452 1664.54 70.612 1673.93 70.612ZM1674.03 64.951C1668.47 64.951 1664.9 59.188 1664.9 52.15V52.048C1664.9 44.959 1668.42 39.349 1673.93 39.349C1679.44 39.349 1683.06 45.112 1683.06 52.15V52.252C1683.06 59.29 1679.59 64.951 1674.03 64.951ZM1703.23 52.15C1708.28 52.15 1711.7 47.968 1711.7 43.021V42.919C1711.7 38.023 1708.33 33.892 1703.34 33.892C1698.29 33.892 1694.87 38.074 1694.87 43.021V43.123C1694.87 48.019 1698.24 52.15 1703.23 52.15ZM1698.49 70H1703.54L1729.65 34.3H1724.6L1698.49 70ZM1724.81 70.408C1729.86 70.408 1733.27 66.226 1733.27 61.279V61.177C1733.27 56.281 1729.91 52.15 1724.91 52.15C1719.86 52.15 1716.44 56.332 1716.44 61.279V61.381C1716.44 66.277 1719.81 70.408 1724.81 70.408ZM1703.34 48.223C1701.04 48.223 1699.41 45.928 1699.41 43.021V42.919C1699.41 40.165 1700.84 37.819 1703.23 37.819C1705.53 37.819 1707.16 40.165 1707.16 43.021V43.123C1707.16 45.877 1705.73 48.223 1703.34 48.223ZM1724.91 66.481C1722.61 66.481 1720.98 64.186 1720.98 61.279V61.177C1720.98 58.423 1722.41 56.077 1724.81 56.077C1727.1 56.077 1728.73 58.423 1728.73 61.279V61.381C1728.73 64.135 1727.31 66.481 1724.91 66.481Z" fill="#7D7D7D"/>
<path d="M2134.59 70H2140.86V54.955H2157.9V70H2164.17V34.3H2157.9V49.141H2140.86V34.3H2134.59V70ZM2172.73 38.941H2179.36V33.076H2172.73V38.941ZM2172.98 70H2179.15V43.072H2172.98V70ZM2199.2 78.262C2204.05 78.262 2207.82 77.089 2210.27 74.641C2212.51 72.397 2213.69 69.031 2213.69 64.492V43.072H2207.51V47.101C2205.42 44.602 2202.62 42.511 2198.08 42.511C2191.81 42.511 2185.84 47.203 2185.84 55.159V55.261C2185.84 63.166 2191.76 67.858 2198.08 67.858C2202.52 67.858 2205.32 65.818 2207.57 62.911V65.002C2207.57 70.408 2204.56 73.264 2199.05 73.264C2195.38 73.264 2192.32 72.193 2189.46 70.408L2187.17 75.049C2190.63 77.14 2194.76 78.262 2199.2 78.262ZM2199.71 62.656C2195.48 62.656 2192.06 59.647 2192.06 55.21V55.108C2192.06 50.671 2195.43 47.713 2199.71 47.713C2204 47.713 2207.62 50.722 2207.62 55.159V55.261C2207.62 59.596 2204 62.656 2199.71 62.656ZM2221.38 70H2227.55V54.802C2227.55 50.62 2230.05 48.121 2233.62 48.121C2237.29 48.121 2239.39 50.518 2239.39 54.7V70H2245.56V52.864C2245.56 46.591 2242.04 42.511 2235.97 42.511C2231.79 42.511 2229.29 44.704 2227.55 47.254V32.77H2221.38V70ZM2252.86 50.059H2259.64V43.072H2252.86V50.059ZM2252.86 70H2259.64V63.013H2252.86V70ZM2283.26 66.073L2307.63 54.802V49.294L2283.26 38.023V43.939L2301.46 52.099L2283.26 60.208V66.073ZM2328.78 70H2354.59V64.492H2337.6L2344.95 58.372C2351.27 53.221 2354.23 50.161 2354.23 44.551V44.449C2354.23 38.074 2349.43 33.79 2342.45 33.79C2336.07 33.79 2332.71 36.493 2329.29 41.287L2333.73 44.755C2336.48 41.185 2338.72 39.4 2341.99 39.4C2345.25 39.4 2347.75 41.44 2347.75 44.959C2347.75 48.172 2345.97 50.467 2341.07 54.598L2328.78 65.053V70ZM2375.97 70.612C2385.35 70.612 2391.57 62.35 2391.57 52.15V52.048C2391.57 41.848 2385.4 33.688 2376.07 33.688C2366.69 33.688 2360.46 41.95 2360.46 52.15V52.252C2360.46 62.452 2366.58 70.612 2375.97 70.612ZM2376.07 64.951C2370.51 64.951 2366.94 59.188 2366.94 52.15V52.048C2366.94 44.959 2370.46 39.349 2375.97 39.349C2381.48 39.349 2385.1 45.112 2385.1 52.15V52.252C2385.1 59.29 2381.63 64.951 2376.07 64.951ZM2405.27 52.15C2410.32 52.15 2413.74 47.968 2413.74 43.021V42.919C2413.74 38.023 2410.37 33.892 2405.38 33.892C2400.33 33.892 2396.91 38.074 2396.91 43.021V43.123C2396.91 48.019 2400.28 52.15 2405.27 52.15ZM2400.53 70H2405.58L2431.69 34.3H2426.64L2400.53 70ZM2426.85 70.408C2431.9 70.408 2435.31 66.226 2435.31 61.279V61.177C2435.31 56.281 2431.95 52.15 2426.95 52.15C2421.9 52.15 2418.48 56.332 2418.48 61.279V61.381C2418.48 66.277 2421.85 70.408 2426.85 70.408ZM2405.38 48.223C2403.08 48.223 2401.45 45.928 2401.45 43.021V42.919C2401.45 40.165 2402.88 37.819 2405.27 37.819C2407.57 37.819 2409.2 40.165 2409.2 43.021V43.123C2409.2 45.877 2407.77 48.223 2405.38 48.223ZM2426.95 66.481C2424.65 66.481 2423.02 64.186 2423.02 61.279V61.177C2423.02 58.423 2424.45 56.077 2426.85 56.077C2429.14 56.077 2430.77 58.423 2430.77 61.279V61.381C2430.77 64.135 2429.35 66.481 2426.95 66.481Z" fill="#7D7D7D"/>
<path d="M63 1078.1V1087.55L31.15 1094.97V1095.11L55.72 1105.19V1111.7L31.15 1121.78V1121.92L63 1129.41V1138.79L14 1126.61V1119.61L41.86 1108.55V1108.41L14 1097.28V1090.28L63 1078.1ZM29.61 1059.54C29.61 1054.59 31.1267 1050.74 34.16 1047.99C37.1467 1045.24 41.3933 1043.86 46.9 1043.86H48.58V1068.01C51.0533 1067.78 52.99 1066.84 54.39 1065.21C55.7433 1063.53 56.42 1061.43 56.42 1058.91C56.42 1055.41 54.95 1052.19 52.01 1049.25L58.24 1044.91C59.92 1046.73 61.32 1048.76 62.44 1051C63.5133 1053.24 64.05 1055.88 64.05 1058.91C64.05 1062.41 63.35 1065.47 61.95 1068.08C60.5033 1070.69 58.4967 1072.72 55.93 1074.17C53.3167 1075.62 50.3067 1076.34 46.9 1076.34C43.4933 1076.34 40.4833 1075.64 37.87 1074.24C35.2567 1072.84 33.2267 1070.88 31.78 1068.36C30.3333 1065.84 29.61 1062.9 29.61 1059.54ZM36.54 1059.96C36.54 1062.11 37.0767 1063.88 38.15 1065.28C39.2233 1066.63 40.8567 1067.47 43.05 1067.8V1052.54C40.9967 1052.68 39.41 1053.43 38.29 1054.78C37.1233 1056.09 36.54 1057.81 36.54 1059.96ZM64.05 1024.84C64.05 1027.69 63.3733 1030.3 62.02 1032.68C60.6667 1035.06 58.7067 1036.95 56.14 1038.35C53.5267 1039.71 50.4233 1040.38 46.83 1040.38C43.2367 1040.38 40.1567 1039.71 37.59 1038.35C34.9767 1036.95 32.9933 1035.06 31.64 1032.68C30.2867 1030.3 29.61 1027.69 29.61 1024.84C29.61 1022.32 30.1 1020.18 31.08 1018.4C32.06 1016.58 33.4367 1015.14 35.21 1014.06V1013.92H14V1005.38H63L63 1013.92H58.45V1014.06C60.2233 1015.14 61.6 1016.58 62.58 1018.4C63.56 1020.18 64.05 1022.32 64.05 1024.84ZM55.93 1022.67C55.93 1020.06 55.09 1017.96 53.41 1016.37C51.73 1014.74 49.5367 1013.92 46.83 1013.92C44.1233 1013.92 41.93 1014.74 40.25 1016.37C38.57 1017.96 37.73 1020.06 37.73 1022.67C37.73 1025.29 38.57 1027.41 40.25 1029.04C41.93 1030.63 44.1233 1031.42 46.83 1031.42C49.5367 1031.42 51.73 1030.63 53.41 1029.04C55.09 1027.41 55.93 1025.29 55.93 1022.67ZM30.66 997.473V988.863H63V997.473H30.66ZM23.87 988.233V998.033H14.42V988.233H23.87ZM64.05 967.49C64.05 970.336 63.3733 972.95 62.02 975.33C60.6667 977.71 58.7067 979.6 56.14 981C53.5267 982.353 50.4233 983.03 46.83 983.03C43.2367 983.03 40.1567 982.353 37.59 981C34.9767 979.6 32.9933 977.71 31.64 975.33C30.2867 972.95 29.61 970.336 29.61 967.49C29.61 964.97 30.1 962.823 31.08 961.05C32.06 959.23 33.4367 957.783 35.21 956.71V956.57H30.66V948.03H63V956.57H58.45V956.71C60.2233 957.783 61.6 959.23 62.58 961.05C63.56 962.823 64.05 964.97 64.05 967.49ZM55.93 965.32C55.93 962.706 55.09 960.606 53.41 959.02C51.73 957.386 49.5367 956.57 46.83 956.57C44.1233 956.57 41.93 957.386 40.25 959.02C38.57 960.606 37.73 962.706 37.73 965.32C37.73 967.933 38.57 970.056 40.25 971.69C41.93 973.276 44.1233 974.07 46.83 974.07C49.5367 974.07 51.73 973.276 53.41 971.69C55.09 970.056 55.93 967.933 55.93 965.32ZM29.61 921.421C29.61 917.688 30.7067 914.724 32.9 912.531C35.0933 910.338 38.4767 909.241 43.05 909.241H63V917.851H45.08C40.0867 917.851 37.59 920.068 37.59 924.501C37.59 926.834 38.36 928.678 39.9 930.031C41.44 931.384 43.8667 932.061 47.18 932.061H63V940.601H30.66V932.131H35.56V931.991C33.6467 930.871 32.1767 929.424 31.15 927.651C30.1233 925.831 29.61 923.754 29.61 921.421ZM54.6 852.392H63V881.792H14V852.742H22.4V872.832H32.2V854.492H40.46V872.832H54.6V852.392ZM30.66 816.887L63 830.117V838.517L30.66 851.677V841.947L53.06 834.317L30.66 826.687L30.66 816.887ZM30.66 812.629V804.019H63V812.629H30.66ZM23.87 803.389V813.189H14.42V803.389H23.87ZM64.05 780.336C64.05 783.789 63.35 786.869 61.95 789.576C60.5033 792.283 58.4733 794.406 55.86 795.946C53.2467 797.439 50.2367 798.186 46.83 798.186C43.4233 798.186 40.4133 797.439 37.8 795.946C35.1867 794.406 33.18 792.283 31.78 789.576C30.3333 786.869 29.61 783.789 29.61 780.336C29.61 776.229 30.6833 772.449 32.83 768.996L39.9 772.706C38.4067 775.086 37.66 777.583 37.66 780.196C37.66 782.856 38.5233 785.049 40.25 786.776C41.93 788.503 44.1233 789.366 46.83 789.366C49.5367 789.366 51.7533 788.503 53.48 786.776C55.16 785.049 56 782.856 56 780.196C56 777.583 55.2533 775.086 53.76 772.706L60.83 768.996C62.9767 772.449 64.05 776.229 64.05 780.336ZM37.87 752.544H51.45C52.7567 752.544 53.69 752.287 54.25 751.774C54.81 751.26 55.09 750.374 55.09 749.114V747.644H63.07V751.424C63.07 754.55 62.2767 756.954 60.69 758.634C59.0567 760.314 56.6533 761.154 53.48 761.154H37.87V767.104H30.66V761.154H17.71V752.544H30.66V745.894H37.87V752.544ZM30.66 740.715V732.105H63V740.715H30.66ZM23.87 731.475V741.275H14.42V731.475H23.87ZM29.61 708.352C29.61 704.945 30.3567 701.888 31.85 699.182C33.2967 696.428 35.3267 694.282 37.94 692.742C40.5533 691.202 43.5167 690.432 46.83 690.432C50.1433 690.432 53.1067 691.202 55.72 692.742C58.3333 694.282 60.3867 696.428 61.88 699.182C63.3267 701.888 64.05 704.945 64.05 708.352C64.05 711.758 63.3267 714.838 61.88 717.592C60.3867 720.298 58.3333 722.422 55.72 723.962C53.1067 725.502 50.1433 726.272 46.83 726.272C43.5167 726.272 40.5533 725.502 37.94 723.962C35.3267 722.422 33.2967 720.298 31.85 717.592C30.3567 714.838 29.61 711.758 29.61 708.352ZM37.73 708.352C37.73 711.012 38.57 713.205 40.25 714.932C41.8833 716.612 44.0767 717.452 46.83 717.452C49.5833 717.452 51.8 716.612 53.48 714.932C55.1133 713.205 55.93 711.012 55.93 708.352C55.93 705.692 55.1133 703.522 53.48 701.842C51.8 700.162 49.5833 699.322 46.83 699.322C44.0767 699.322 41.8833 700.162 40.25 701.842C38.57 703.522 37.73 705.692 37.73 708.352ZM29.61 665.688C29.61 661.955 30.7067 658.992 32.9 656.798C35.0933 654.605 38.4767 653.508 43.05 653.508H63V662.118H45.08C40.0867 662.118 37.59 664.335 37.59 668.768C37.59 671.102 38.36 672.945 39.9 674.298C41.44 675.652 43.8667 676.328 47.18 676.328H63V684.868H30.66V676.398H35.56V676.258C33.6467 675.138 32.1767 673.692 31.15 671.918C30.1233 670.098 29.61 668.022 29.61 665.688ZM43.47 613.81V617.1H63V626.06H14V608C14 604.78 14.63 601.98 15.89 599.6C17.1033 597.22 18.83 595.4 21.07 594.14C23.31 592.833 25.9 592.18 28.84 592.18C32.48 592.18 35.5833 593.206 38.15 595.26C40.67 597.266 42.3033 600.066 43.05 603.66L63 589.17V600.44L43.47 613.81ZM35.56 617.1V609.4C35.56 606.88 35 604.99 33.88 603.73C32.7133 602.423 31.08 601.77 28.98 601.77C26.9267 601.77 25.2933 602.423 24.08 603.73C22.8667 604.99 22.26 606.88 22.26 609.4V617.1H35.56ZM64.05 573.329C64.05 576.176 63.3733 578.789 62.02 581.169C60.6667 583.549 58.7067 585.439 56.14 586.839C53.5267 588.193 50.4233 588.869 46.83 588.869C43.2367 588.869 40.1567 588.193 37.59 586.839C34.9767 585.439 32.9933 583.549 31.64 581.169C30.2867 578.789 29.61 576.176 29.61 573.329C29.61 570.809 30.1 568.663 31.08 566.889C32.06 565.069 33.4367 563.623 35.21 562.549V562.409H30.66V553.869H63V562.409H58.45V562.549C60.2233 563.623 61.6 565.069 62.58 566.889C63.56 568.663 64.05 570.809 64.05 573.329ZM55.93 571.159C55.93 568.546 55.09 566.446 53.41 564.859C51.73 563.226 49.5367 562.409 46.83 562.409C44.1233 562.409 41.93 563.226 40.25 564.859C38.57 566.446 37.73 568.546 37.73 571.159C37.73 573.773 38.57 575.896 40.25 577.529C41.93 579.116 44.1233 579.909 46.83 579.909C49.5367 579.909 51.73 579.116 53.41 577.529C55.09 575.896 55.93 573.773 55.93 571.159ZM37.87 534.751H51.45C52.7567 534.751 53.69 534.494 54.25 533.981C54.81 533.467 55.09 532.581 55.09 531.321V529.851H63.07V533.631C63.07 536.757 62.2767 539.161 60.69 540.841C59.0567 542.521 56.6533 543.361 53.48 543.361H37.87V549.311H30.66V543.361H17.71V534.751H30.66V528.101H37.87V534.751ZM29.61 509.452C29.61 504.506 31.1267 500.656 34.16 497.902C37.1467 495.149 41.3933 493.772 46.9 493.772H48.58L48.58 517.922C51.0533 517.689 52.99 516.756 54.39 515.122C55.7433 513.442 56.42 511.342 56.42 508.822C56.42 505.322 54.95 502.102 52.01 499.162L58.24 494.822C59.92 496.642 61.32 498.672 62.44 500.912C63.5133 503.152 64.05 505.789 64.05 508.822C64.05 512.322 63.35 515.379 61.95 517.992C60.5033 520.606 58.4967 522.636 55.93 524.082C53.3167 525.529 50.3067 526.252 46.9 526.252C43.4933 526.252 40.4833 525.552 37.87 524.152C35.2567 522.752 33.2267 520.792 31.78 518.272C30.3333 515.752 29.61 512.812 29.61 509.452ZM36.54 509.872C36.54 512.019 37.0767 513.792 38.15 515.192C39.2233 516.546 40.8567 517.386 43.05 517.712V502.452C40.9967 502.592 39.41 503.339 38.29 504.692C37.1233 505.999 36.54 507.726 36.54 509.872Z" fill="black"/>
</svg>
