<svg width="1112" height="113" viewBox="0 0 1112 113" fill="none" xmlns="http://www.w3.org/2000/svg">
<path d="M14.344 3.8H12.472L10.12 9.592H10.088L7.736 3.8H5.864L3 15H5.592L7.112 8.552H7.144L9.208 13.4H10.984L13.064 8.552H13.096L14.616 15H17.192L14.344 3.8ZM24.0713 3.56C20.7433 3.56 18.1673 5.896 18.1673 9.4C18.1673 12.904 20.7433 15.24 24.0713 15.24C27.3993 15.24 29.9753 12.904 29.9753 9.4C29.9753 5.896 27.3993 3.56 24.0713 3.56ZM24.0713 6.12C25.8633 6.12 27.2393 7.384 27.2393 9.4C27.2393 11.416 25.8633 12.68 24.0713 12.68C22.2793 12.68 20.9033 11.416 20.9033 9.4C20.9033 7.384 22.2793 6.12 24.0713 6.12ZM37.8676 15H40.9716L37.7716 10.632C39.4996 10.232 40.3796 8.952 40.3796 7.304C40.3796 5.352 39.0836 3.8 36.5716 3.8H32.0916V15H34.5716V10.76H35.0516L37.8676 15ZM34.5716 6.056H36.2036C37.1956 6.056 37.7556 6.536 37.7556 7.368C37.7556 8.296 37.1956 8.68 36.2036 8.68H34.5716V6.056ZM50.4786 15H53.2466L48.8306 3.8H46.2066L41.7906 15H44.5746L45.3746 12.728H49.6786L50.4786 15ZM46.1426 10.52L47.5186 6.552L48.9106 10.52H46.1426ZM61.1953 3.8H52.8113V6.12H55.7713V15H58.2513V6.12H61.1953V3.8ZM67.7244 3.56C64.3964 3.56 61.8204 5.896 61.8204 9.4C61.8204 12.904 64.3964 15.24 67.7244 15.24C71.0524 15.24 73.6284 12.904 73.6284 9.4C73.6284 5.896 71.0524 3.56 67.7244 3.56ZM67.7244 6.12C69.5164 6.12 70.8924 7.384 70.8924 9.4C70.8924 11.416 69.5164 12.68 67.7244 12.68C65.9324 12.68 64.5564 11.416 64.5564 9.4C64.5564 7.384 65.9324 6.12 67.7244 6.12ZM81.5208 15H84.6248L81.4248 10.632C83.1528 10.232 84.0328 8.952 84.0328 7.304C84.0328 5.352 82.7368 3.8 80.2248 3.8H75.7448V15H78.2248V10.76H78.7048L81.5208 15ZM78.2248 6.056H79.8568C80.8488 6.056 81.4088 6.536 81.4088 7.368C81.4088 8.296 80.8488 8.68 79.8568 8.68H78.2248V6.056ZM88.8997 3.8H86.4197V15H88.8997V3.8ZM101.081 3.8H98.4573V10.248C98.4573 11.656 97.7373 12.648 96.3293 12.648C94.9213 12.648 94.2013 11.656 94.2013 10.248V3.8H91.5613V10.472C91.5613 13.368 93.1613 15.208 96.3293 15.208C99.4813 15.208 101.081 13.368 101.081 10.472V3.8ZM113.731 3.8H111.859L109.507 9.592H109.475L107.123 3.8H105.251L102.387 15H104.979L106.499 8.552H106.531L108.595 13.4H110.371L112.451 8.552H112.483L114.003 15H116.579L113.731 3.8Z" fill="#E24000"/>
<line x1="3" y1="23" x2="795" y2="23" stroke="#E24000" stroke-width="4"/>
<path d="M4.48 46.56C2.112 46.56 0.912 47.728 0.912 49.552C0.912 50.816 1.52 51.888 2.976 52.752L4.688 53.824C5.312 54.208 5.744 54.512 5.744 55.024C5.744 55.616 5.264 55.92 4.368 55.92C3.344 55.92 2.288 55.552 1.216 54.896L0.096 57.12C1.36 57.856 2.768 58.24 4.272 58.24C6.88 58.24 8.352 57.072 8.352 54.912C8.352 53.344 7.568 52.448 6.224 51.632L4.368 50.464C3.728 50.08 3.52 49.856 3.52 49.52C3.52 49.136 3.76 48.864 4.544 48.864C5.28 48.864 6.048 49.088 7.072 49.568L8.112 47.376C6.784 46.8 5.552 46.56 4.48 46.56ZM17.6546 46.8H9.27063V49.12H12.2306V58H14.7106V49.12H17.6546V46.8ZM21.9935 46.8H19.5135V58H21.9935V46.8ZM35.119 46.8H33.247L30.895 52.592H30.863L28.511 46.8H26.639L23.775 58H26.367L27.887 51.552H27.919L29.983 56.4H31.759L33.839 51.552H33.871L35.391 58H37.967L35.119 46.8ZM48.7719 46.8H46.1479V53.248C46.1479 54.656 45.4279 55.648 44.0199 55.648C42.6119 55.648 41.8919 54.656 41.8919 53.248V46.8H39.2519V53.472C39.2519 56.368 40.8519 58.208 44.0199 58.208C47.1719 58.208 48.7719 56.368 48.7719 53.472V46.8ZM53.9248 46.8H51.4448V58H58.3888V55.664H53.9248V46.8ZM69.2937 46.8H66.6697V53.248C66.6697 54.656 65.9497 55.648 64.5417 55.648C63.1337 55.648 62.4137 54.656 62.4137 53.248V46.8H59.7737V53.472C59.7737 56.368 61.3737 58.208 64.5417 58.208C67.6937 58.208 69.2937 56.368 69.2937 53.472V46.8ZM75.0331 46.56C72.6651 46.56 71.4651 47.728 71.4651 49.552C71.4651 50.816 72.0731 51.888 73.5291 52.752L75.2411 53.824C75.8651 54.208 76.2971 54.512 76.2971 55.024C76.2971 55.616 75.8171 55.92 74.9211 55.92C73.8971 55.92 72.8411 55.552 71.7691 54.896L70.6491 57.12C71.9131 57.856 73.3211 58.24 74.8251 58.24C77.4331 58.24 78.9051 57.072 78.9051 54.912C78.9051 53.344 78.1211 52.448 76.7771 51.632L74.9211 50.464C74.2811 50.08 74.0731 49.856 74.0731 49.52C74.0731 49.136 74.3131 48.864 75.0971 48.864C75.8331 48.864 76.6011 49.088 77.6251 49.568L78.6651 47.376C77.3371 46.8 76.1051 46.56 75.0331 46.56Z" fill="#2C897F"/>
<line x1="1" y1="66" x2="213" y2="66" stroke="#2C897F" stroke-width="4"/>
<line x1="601" y1="111" x2="1112" y2="111" stroke="#434878" stroke-width="4"/>
<path d="M607.48 103.24C609.224 103.24 610.52 102.68 611.496 101.992L610.152 99.816C609.432 100.296 608.568 100.68 607.48 100.68C605.528 100.68 604.072 99.432 604.072 97.4C604.072 95.368 605.528 94.12 607.48 94.12C608.568 94.12 609.432 94.504 610.152 94.984L611.496 92.808C610.52 92.12 609.224 91.56 607.48 91.56C603.944 91.56 601.336 93.832 601.336 97.4C601.336 100.968 603.944 103.24 607.48 103.24ZM620.584 91.8V95.96H615.928V91.8H613.448V103H615.928V98.296H620.584V103H623.064V91.8H620.584ZM628.29 91.8H625.81V103H628.29V91.8ZM633.528 91.8H631.048V103H637.992V100.664H633.528V91.8ZM643.353 91.8H639.785V103H643.353C646.889 103 649.401 100.888 649.401 97.4C649.401 93.912 646.889 91.8 643.353 91.8ZM643.561 94.056C645.369 94.056 646.729 95.24 646.729 97.4C646.729 99.56 645.369 100.744 643.561 100.744H642.265V94.056H643.561ZM663.514 91.8H655.13V94.12H658.09V103H660.57V94.12H663.514V91.8ZM671.772 103H674.54L670.124 91.8H667.5L663.084 103H665.868L666.668 100.728H670.972L671.772 103ZM667.436 98.52L668.812 94.552L670.204 98.52H667.436ZM686.874 103L682.698 97.096L686.49 91.8H683.338L681.114 95.112L678.89 91.8H675.738L679.53 97.096L675.354 103H678.522L681.114 99.096L683.706 103H686.874ZM698.433 103.24C700.177 103.24 701.473 102.68 702.449 101.992L701.105 99.816C700.385 100.296 699.521 100.68 698.433 100.68C696.481 100.68 695.025 99.432 695.025 97.4C695.025 95.368 696.481 94.12 698.433 94.12C699.521 94.12 700.385 94.504 701.105 94.984L702.449 92.808C701.473 92.12 700.177 91.56 698.433 91.56C694.897 91.56 692.289 93.832 692.289 97.4C692.289 100.968 694.897 103.24 698.433 103.24ZM710.177 103H713.281L710.081 98.632C711.809 98.232 712.689 96.952 712.689 95.304C712.689 93.352 711.393 91.8 708.881 91.8H704.401V103H706.881V98.76H707.361L710.177 103ZM706.881 94.056H708.513C709.505 94.056 710.065 94.536 710.065 95.368C710.065 96.296 709.505 96.68 708.513 96.68H706.881V94.056ZM717.556 100.68V98.136H721.556V95.88H717.556V94.12H722.004V91.8H715.076V103H722.084V100.68H717.556ZM727.928 91.8H724.36V103H727.928C731.464 103 733.976 100.888 733.976 97.4C733.976 93.912 731.464 91.8 727.928 91.8ZM728.136 94.056C729.944 94.056 731.304 95.24 731.304 97.4C731.304 99.56 729.944 100.744 728.136 100.744H726.84V94.056H728.136ZM738.562 91.8H736.082V103H738.562V91.8ZM748.808 91.8H740.424V94.12H743.384V103H745.864V94.12H748.808V91.8Z" fill="#434878"/>
</svg>
