<?xml version="1.0" encoding="utf-8"?>
<!-- Generator: Adobe Illustrator 24.1.0, SVG Export Plug-In . SVG Version: 6.00 Build 0)  -->
<svg version="1.1" id="Layer_1" xmlns="http://www.w3.org/2000/svg" xmlns:xlink="http://www.w3.org/1999/xlink" x="0px" y="0px"
	 viewBox="0 0 452 171.2" style="enable-background:new 0 0 452 171.2;" xml:space="preserve">
<style type="text/css">
	.st0{fill:#7d7d7d;}
	.st1{fill:#7d7d7d;}
</style>
<g id="Layer_2_1_">
	<g id="Layer_1-2">
		<path class="st0" d="M1,24.1C1,10.3,9.4,0,23.7,0c12.4,0,20.2,7.6,20.2,17.2v0.2H33.8v-0.2c0-5.5-4.3-9.4-10.1-9.4
			c-7.8,0-13,6.1-13,16.4v0.3c0,10.2,5.1,16.3,13,16.3c5.8,0,10.1-4,10.1-9.5v-0.2h10.1v0.2c0,9.6-7.9,17.2-20.2,17.2
			C9.4,48.5,1,38.2,1,24.4V24.1z M55.1,17.4h-9v-0.2C46.1,6.7,52.5,0,62.8,0c10,0,15.9,5.9,15.9,13.2v0.3c-0.1,4.3-2.9,8-7,9.4
			c5.7,1.1,8.6,6,8.6,11v0.3c0,8-7,14.3-16.9,14.3c-10.9,0-17.4-6.4-17.4-17.4V31h9v0.2c0,6.2,2.8,9.7,8,9.7c4.7,0,7.6-3.1,7.6-6.9
			v-0.3c0-4.4-2.3-6.9-8.6-6.9h-2.3v-6.7h2.7c4.5,0,7-2.3,7-6.1v-0.3c0-3.7-2.8-6-6.9-6c-5,0-7.6,3.5-7.6,9.4L55.1,17.4z M82.9,38.1
			h9.5v9.5h-9.5V38.1z M119,43c-2.2,3.6-6,5.5-11.1,5.5c-7.2,0-12.3-4.2-12.3-10.3v-0.3c0-5.3,4-9.3,11.9-10.1l8-0.8
			c2.4-0.2,3.2-1.2,3.2-3.1c0-3-2.1-4.6-6.2-4.6c-4.3,0-6.4,2.2-6.4,4.9v0.3h-9.1V24c0-6.5,5.3-11.7,14.9-11.7
			c11.3,0,16,4.5,16,15.1v20.2h-9L119,43z M111,41.5c4.8,0,7.6-2,7.6-6.9v-3.5c-1.6,0.8-3.4,1.4-5.2,1.6l-2.8,0.4
			c-4,0.6-5.4,2-5.4,4.3v0.2C105.2,39.7,107.2,41.5,111,41.5L111,41.5z M132.8,0.9h9.5v7.8h-9.5V0.9z M132.8,13.1h9.5v34.5h-9.5
			V13.1z"/>
		<path class="st1" d="M203.1,24.4c0,13.6-7.5,23.2-23.8,23.2h-17.7V0.9h17.7c16.2,0,23.8,9.6,23.8,23.2L203.1,24.4z M171.4,8.6
			v31.3h8.6c8.6,0,13.3-4.7,13.3-15.5v-0.4c0-10.7-4.7-15.5-13.3-15.5L171.4,8.6z M207.6,0.9h9.5v7.8h-9.5V0.9z M207.6,13.1h9.5
			v34.5h-9.5V13.1z M239,59.9c-10.4,0-16.4-4.5-17-11.3h9.6c0.4,2.8,2.6,4.4,7.5,4.4c4.4,0,7.2-2.3,7.2-6.5v-6.3
			c-1.6,3.7-5.6,6.2-10.5,6.2c-8.7,0-14.9-6.4-14.9-16.9v-0.4c0-10.5,6.2-16.9,14.9-16.9c4.9,0,9,2.5,10.5,6.2v-5.4h9v32.8
			C255.4,54.1,249.1,59.9,239,59.9z M246.4,29.5v-0.4c0-6.4-3.1-9.5-8-9.5s-8,3.1-8,9.5v0.4c0,6.4,3.1,9.5,8,9.5
			S246.4,35.9,246.4,29.5L246.4,29.5z M260.2,0.9h9.5v7.8h-9.5V0.9z M260.2,13.1h9.5v34.5h-9.5V13.1z M274,13.1h4.3V2.8h9.5v10.3
			h8.4v6.7h-8.4v17.3c0,2.2,1.3,3.2,3.4,3.2c1.6,0,3.2-0.1,4.8-0.4v7.4c-2.5,0.5-5.1,0.8-7.7,0.8c-6.7,0-10-3.1-10-10.4V19.8H274
			L274,13.1z M321.1,43c-2.2,3.6-5.9,5.5-11.1,5.5c-7.2,0-12.3-4.2-12.3-10.3v-0.3c0-5.3,4-9.3,11.9-10.1l8-0.8
			c2.4-0.2,3.2-1.2,3.2-3.1c0-3-2.1-4.6-6.1-4.6c-4.3,0-6.4,2.2-6.4,4.9v0.3h-9.1V24c0-6.5,5.3-11.7,14.9-11.7
			c11.3,0,16,4.5,16,15.1v20.2h-9L321.1,43z M313.1,41.5c4.8,0,7.6-2,7.6-6.9v-3.5c-1.6,0.8-3.4,1.4-5.2,1.6l-2.7,0.4
			c-4,0.6-5.4,2-5.4,4.3v0.2C307.3,39.7,309.2,41.5,313.1,41.5L313.1,41.5z M334.9,0.9h9.5v46.8h-9.5V0.9z"/>
		<path class="st1" d="M14.8,70H0v-7.8h39.5V70H24.6v39h-9.8V70z M43.9,90v19h-9.5V74.5h9v6.8c0.9-4.4,3.8-7.7,8.8-7.7
			c1.1,0,2.3,0.2,3.4,0.6v8.5c-2.2-0.2-3.6-0.3-5-0.3C46.1,82.4,43.9,84.7,43.9,90L43.9,90z M79.2,104.4c-2.2,3.6-5.9,5.5-11.1,5.5
			c-7.2,0-12.3-4.2-12.3-10.3v-0.3c0-5.3,4-9.3,11.9-10.1l8-0.8c2.4-0.2,3.2-1.2,3.2-3.1c0-3-2.1-4.6-6.2-4.6
			c-4.3,0-6.4,2.2-6.4,4.9v0.3h-9.1v-0.5c0-6.5,5.3-11.7,14.9-11.7c11.3,0,16,4.5,16,15.1V109h-9L79.2,104.4z M71.2,102.9
			c4.8,0,7.6-2,7.6-6.9v-3.5c-1.6,0.8-3.4,1.4-5.2,1.6l-2.8,0.4c-4,0.6-5.4,2-5.4,4.3V99C65.4,101.1,67.3,102.8,71.2,102.9
			L71.2,102.9z M102.4,109H93V74.5h9v5.4c1.8-3.9,5.8-6.4,10.2-6.2c8.7,0,13.2,4.4,13.2,14.9V109h-9.5V89.2c0-5.3-2-7.8-6.7-7.8
			s-6.7,2.5-6.7,7.8L102.4,109z M150.7,85.2c0-3-2.3-4.5-6.5-4.5c-3.9,0-5.4,1.5-5.4,3.2v0.2c0,1.3,1,2.4,3.4,2.9l7.8,1.7
			c7.9,1.7,10.7,5,10.7,9.9v0.3c0,6.9-6,11-15.5,11c-11.3,0-16.6-4.7-16.6-11.9v-0.5h9.1v0.7c0,2.5,2.4,4.7,7.3,4.7
			c4.1,0,6-1.4,6-3.1v-0.2c0-1.6-0.9-2.6-3.7-3.3l-8.7-2.1c-6.3-1.5-9.1-5-9.1-9.4v-0.4c0-6.3,5.4-10.8,14.8-10.8
			c10.4,0,15.5,4.8,15.5,11.7v0.5h-9.1L150.7,85.2z M167.7,74.5v-2c0-6.9,3.7-11.1,10.6-11.1c2.1,0,4.2,0.2,6.2,0.5v7.5
			c-1.4-0.2-2.7-0.3-4.1-0.3c-2.2,0-3.2,1-3.2,3v2.4h7v6.7h-7V109h-9.5V81.2H162v-6.7H167.7z M220.5,91.6v0.3
			c0,10.5-6.7,17.9-17.8,17.9s-17.8-7.5-17.8-17.9v-0.3c0-10.5,6.7-17.9,17.8-17.9S220.5,81.1,220.5,91.6L220.5,91.6z M211,91.9
			v-0.3c0-7.1-3.3-10.5-8.3-10.5s-8.3,3.4-8.3,10.5v0.3c0,7.1,3.3,10.5,8.3,10.5S211,99,211,91.9L211,91.9z M233.9,89.9V109h-9.5
			V74.5h9v6.8c0.9-4.4,3.8-7.7,8.8-7.7c1.1,0,2.3,0.2,3.4,0.6v8.5c-2.2-0.2-3.6-0.3-5-0.3C236.1,82.4,233.9,84.7,233.9,89.9
			L233.9,89.9z M258.7,109h-9.5V74.5h9v5.4c1.6-3.8,5.4-6.3,9.5-6.2c5.6,0,9.4,2,11.2,6.5c1.9-4,6-6.6,10.5-6.5
			c8.4,0,12.6,4.4,12.6,14.9V109h-9.5V89.2c0-5.3-1.8-7.8-6.1-7.8s-6.1,2.5-6.1,7.8V109h-9.5V89.2c0-5.3-1.8-7.8-6.1-7.8
			s-6.1,2.5-6.1,7.8L258.7,109z M328.9,104.3c-2.2,3.6-5.9,5.5-11.1,5.5c-7.2,0-12.3-4.2-12.3-10.3v-0.3c0-5.3,4-9.3,11.9-10.1
			l8-0.8c2.4-0.2,3.2-1.2,3.2-3.1c0-3-2.1-4.6-6.1-4.6c-4.3,0-6.4,2.2-6.4,4.9v0.3H307v-0.5c0-6.5,5.3-11.7,14.9-11.7
			c11.3,0,16,4.5,16,15.1V109h-9L328.9,104.3z M320.9,102.8c4.8,0,7.6-2,7.6-6.9v-3.5c-1.6,0.8-3.4,1.4-5.2,1.6l-2.8,0.4
			c-4,0.6-5.4,2-5.4,4.3V99C315.1,101.1,317.1,102.8,320.9,102.8L320.9,102.8z M339.6,74.5h5.3V64.2h9.5v10.3h8.4v6.7h-8.4v17.2
			c0,2.2,1.3,3.2,3.4,3.2c1.6,0,3.2-0.1,4.8-0.4v7.4c-2.5,0.5-5.1,0.8-7.7,0.8c-6.7,0-10-3.1-10-10.4V81.2h-5.3V74.5z M367,62.2h9.5
			V70H367V62.2z M367,74.5h9.5V109H367V74.5z M415.9,91.6v0.3c0,10.5-6.7,17.9-17.8,17.9s-17.8-7.5-17.8-17.9v-0.3
			c0-10.5,6.7-17.9,17.8-17.9S415.9,81.1,415.9,91.6L415.9,91.6z M406.4,91.9v-0.3c0-7.1-3.3-10.5-8.3-10.5s-8.3,3.4-8.3,10.5v0.3
			c0,7.1,3.3,10.5,8.3,10.5S406.4,99,406.4,91.9L406.4,91.9z M429.2,109h-9.5V74.5h9v5.4c1.8-3.9,5.8-6.4,10.2-6.2
			c8.7,0,13.2,4.4,13.2,14.9V109h-9.5V89.2c0-5.3-2-7.8-6.7-7.8s-6.7,2.5-6.7,7.8L429.2,109z"/>
		<path class="st0" d="M14.8,123.5h9.8v46.8h-9.8V123.5z M39.9,170.3h-9.5v-34.5h9v5.4c1.8-3.9,5.8-6.4,10.2-6.3
			c8.7,0,13.2,4.4,13.2,14.9v20.4h-9.5v-19.8c0-5.3-2-7.8-6.7-7.8s-6.7,2.5-6.7,7.8L39.9,170.3z M88.1,146.6c0-3-2.3-4.5-6.5-4.5
			c-3.9,0-5.4,1.5-5.4,3.2v0.2c0,1.3,1,2.4,3.4,2.9l7.8,1.7c7.9,1.7,10.7,5.1,10.7,9.9v0.3c0,6.9-5.9,11-15.5,11
			c-11.3,0-16.6-4.7-16.6-11.9v-0.5h9.1v0.7c0,2.5,2.4,4.7,7.3,4.7c4.2,0,6-1.4,6-3.1v-0.2c0-1.6-0.9-2.6-3.7-3.3l-8.7-2.1
			c-6.3-1.5-9.1-5-9.1-9.4v-0.3c0-6.3,5.4-10.8,14.8-10.8c10.4,0,15.5,4.9,15.5,11.7v0.5h-9.1L88.1,146.6z M99.4,135.8h5.3v-10.3
			h9.5v10.3h8.3v6.7h-8.3v17.2c0,2.2,1.3,3.2,3.4,3.2c1.6,0,3.2-0.1,4.8-0.4v7.4c-2.5,0.5-5.1,0.8-7.7,0.8c-6.7,0-10-3.1-10-10.4
			v-17.9h-5.3V135.8z M126.8,123.5h9.5v7.8h-9.5L126.8,123.5z M126.8,135.8h9.5v34.5h-9.5L126.8,135.8z M140.6,135.8h4.3v-10.3h9.5
			v10.3h8.4v6.7h-8.4v17.2c0,2.2,1.3,3.2,3.4,3.2c1.6,0,3.2-0.1,4.8-0.4v7.4c-2.5,0.5-5.1,0.8-7.7,0.8c-6.7,0-10-3.1-10-10.4v-17.9
			h-4.3V135.8z M190.2,164.9c-1.8,3.9-5.8,6.4-10.2,6.2c-8.7,0-13.2-4.4-13.2-14.9v-20.4h9.5v19.8c0,5.3,2,7.8,6.7,7.8
			s6.7-2.5,6.7-7.8v-19.8h9.5v34.5h-9L190.2,164.9z M203.5,135.8h4.3v-10.3h9.5v10.3h8.4v6.7h-8.4v17.2c0,2.2,1.4,3.2,3.4,3.2
			c1.6,0,3.2-0.1,4.8-0.4v7.4c-2.5,0.5-5.1,0.8-7.7,0.8c-6.7,0-10-3.1-10-10.4v-17.9h-4.3V135.8z M244.8,171.2
			c-11.1,0-17.8-7.5-17.8-17.9v-0.3c0-10.5,6.7-17.9,17.8-17.9s17.8,7.5,17.8,17.9c0,1,0,1.9-0.1,2.9h-25.9c0.7,5.4,3.8,8,8.2,8
			c3.4,0,6.1-1.4,7.2-4.2h9.8C259.8,166.9,253.6,171.2,244.8,171.2z M236.8,149.2h15.9c-1-4.6-3.9-6.8-8-6.8
			S237.8,144.6,236.8,149.2L236.8,149.2z"/>
	</g>
</g>
</svg>
