<?xml version="1.0" encoding="UTF-8"?>
<svg width="16px" height="16px" viewBox="0 0 16 16" version="1.1" xmlns="http://www.w3.org/2000/svg" xmlns:xlink="http://www.w3.org/1999/xlink">
    <!-- Generator: Sketch 49 (51002) - http://www.bohemiancoding.com/sketch -->
    <title>browser</title>
    <desc>Created with Sketch.</desc>
    <defs></defs>
    <g id="Page-1" stroke="none" stroke-width="1" fill="none" fill-rule="evenodd">
        <g id="updates-1440/04-events-container-720" transform="translate(-376.000000, -446.000000)" fill="#919191" fill-rule="nonzero">
            <g id="Event" transform="translate(360.000000, 170.000000)">
                <g id="Group-5" transform="translate(0.000000, 218.000000)">
                    <g id="browser" transform="translate(16.000000, 58.000000)">
                        <path d="M7.99991247,0 C3.58883576,0 0,3.58866071 0,7.99991247 C0,12.4113393 3.58866071,16 7.99991247,16 C12.4113393,16 16,12.4113393 16,7.99991247 C16,3.58866071 12.4113393,0 7.99991247,0 Z M12.9867504,8.8997035 L14.1363472,8.8997035 C13.7403692,11.6083546 11.5939999,13.7505224 8.88237289,14.1389731 L8.88237289,13.0037309 L7.09136861,13.0037309 L7.09136861,14.1349468 C4.39217059,13.7365179 2.25840545,11.5997768 1.86382783,8.8997035 L2.98716616,8.8997035 L2.98716616,7.10852416 L1.86260244,7.10852416 C2.25420409,4.40459961 4.38989486,2.26400726 7.09136861,1.86522828 L7.09136861,3.0039716 L8.88237289,3.0039716 L8.88237289,1.86120198 C11.5962757,2.25017779 13.7443955,4.39584678 14.1375726,7.10852416 L12.9867504,7.10852416 L12.9867504,8.8997035 Z" id="Shape"></path>
                        <polygon id="Shape" points="4.70588235 11.2941176 9.36919313 8.42801666 12.2352941 3.76470588 7.57179835 6.63062188"></polygon>
                    </g>
                </g>
            </g>
        </g>
    </g>
</svg>