<?xml version="1.0" encoding="UTF-8"?>
<svg width="43px" height="43px" viewBox="0 0 43 43" version="1.1" xmlns="http://www.w3.org/2000/svg" xmlns:xlink="http://www.w3.org/1999/xlink">
    <!-- Generator: Sketch 61.2 (89653) - https://sketch.com -->
    <title>Group 8</title>
    <desc>Created with Sketch.</desc>
    <defs>
        <linearGradient x1="50%" y1="0%" x2="50%" y2="100%" id="linearGradient-1">
            <stop stop-color="#E13E00" offset="0%"></stop>
            <stop stop-color="#B02700" offset="100%"></stop>
        </linearGradient>
    </defs>
    <g id="Page-1" stroke="none" stroke-width="1" fill="none" fill-rule="evenodd">
        <g id="EL-HP-redesign-idea-2" transform="translate(-102.000000, -1696.000000)">
            <g id="Group-8" transform="translate(102.000000, 1696.000000)">
                <circle id="Oval-Copy-28" fill="url(#linearGradient-1)" cx="21.24" cy="21.24" r="21.24"></circle>
                <g id="Group-4-Copy-2" transform="translate(5.760000, 13.680000)" fill="#FFFFFF" fill-rule="nonzero">
                    <path d="M25.67376,1.8144 L25.0046274,3.58666406 C25.2314637,3.59858621 25.4597364,3.61494876 25.67376,3.65752786 C27.6387552,4.07717537 29.12112,5.92030323 29.12112,8.12833404 C29.12112,10.336304 27.6387552,12.179371 25.67376,12.5991402 C25.3981436,12.6538239 25.1048307,12.6903812 24.81192,12.6903812 C24.3292321,12.6903812 23.95008,13.0917805 23.95008,13.6027906 C23.95008,14.113679 24.3292321,14.5152 24.81192,14.5152 C24.9154557,14.5152 25.0359984,14.5152 25.1393043,14.4969518 C28.3110479,14.3326573 30.8448,11.5407453 30.8448,8.12833404 C30.8448,4.91665287 28.5866643,2.25235652 25.67376,1.8144 Z" id="Path-Copy"></path>
                    <path d="M6.3504,12.6903812 C6.04207296,12.6903812 5.73332256,12.6538239 5.4432,12.5991402 C3.374784,12.179371 1.8144,10.3362432 1.8144,8.12833404 C1.8144,5.9202424 3.374784,4.07717537 5.4432,3.65752786 C5.71783968,3.60576383 6.00977664,3.57486357 6.30165312,3.57121393 L5.4432,1.8144 C2.37698496,2.25235652 2.30926389e-14,4.91659204 2.30926389e-14,8.12833404 C2.30926389e-14,11.5407453 2.66710752,14.3326573 6.00578496,14.4969518 C6.114528,14.5152 6.24141504,14.5152 6.3504,14.5152 C6.85849248,14.5152 7.2576,14.113679 7.2576,13.6027906 C7.2576,13.0917805 6.85849248,12.6903812 6.3504,12.6903812 Z" id="Path-Copy-2"></path>
                    <path d="M24.8463499,1.79805405 L21.9756018,1.79805405 C20.4699908,1.79805405 19.1660625,1.45297297 18.2112071,0.799135135 C17.4401002,0.272371892 16.5219701,0 15.60384,0 C14.6857099,0 13.7675798,0.272371892 12.9964729,0.799135135 C12.0415563,1.45297297 10.7376892,1.79805405 9.23207817,1.79805405 L6.36133012,1.79805405 C6.0492883,1.79805405 5.73681801,1.81621622 5.4432,1.87064216 L5.4432,13.6034595 C5.4432,13.8577297 5.55349803,14.1119395 5.75524182,14.2754595 C5.77360443,14.2936216 5.86553986,14.3662703 6.01256309,14.4934054 C7.0040212,15.3107027 10.9028914,18.144 15.60384,18.144 C20.3047886,18.144 24.20372,15.3107027 25.1951169,14.4934054 C25.3421401,14.3662703 25.4340756,14.2936216 25.4524382,14.2754595 C25.654182,14.1119395 25.76448,13.8577903 25.76448,13.6034595 L25.76448,1.87064216 C25.470862,1.81621622 25.1583917,1.79805405 24.8463499,1.79805405 Z" id="Path-Copy-3"></path>
                </g>
            </g>
        </g>
    </g>
</svg>