<?xml version="1.0" encoding="UTF-8"?>
<svg width="224px" height="19px" viewBox="0 0 224 19" version="1.1" xmlns="http://www.w3.org/2000/svg" xmlns:xlink="http://www.w3.org/1999/xlink">
    <!-- Generator: Sketch 50.2 (55047) - http://www.bohemiancoding.com/sketch -->
    <title>wordmark_outlines</title>
    <desc>Created with Sketch.</desc>
    <defs></defs>
    <g id="Page-1" stroke="none" stroke-width="1" fill="none" fill-rule="evenodd">
        <g id="Why-Eviction-Matters-1440+-20180518-*" transform="translate(-607.000000, -3223.000000)" fill="#FFFFFF" fill-rule="nonzero">
            <g id="Resources" transform="translate(0.000000, 3172.000000)">
                <g id="wordmark_outlines" transform="translate(607.000000, 51.000000)">
                    <path d="M0.328807339,15.412844 C0.328807339,14.3853211 1.02752294,13.6044037 1.93174312,13.6044037 C2.79486239,13.6044037 3.37027523,14.2620183 3.37027523,15.0840367 C3.37027523,15.906055 2.8359633,16.7280734 1.76733945,16.8924771 C2.42495413,17.426789 3.37027523,17.7144954 4.31559633,17.7144954 C6.3706422,17.7144954 7.23376147,16.5636697 7.23376147,13.933211 L7.23376147,2.79486239 C7.23376147,1.72623853 6.74055046,1.10972477 4.27449541,1.02752294 L4.27449541,0.739816514 L12.3713761,0.739816514 L12.3713761,1.02752294 C10.1108257,1.10972477 9.57651376,1.72623853 9.57651376,2.79486239 L9.57651376,13.1933945 C9.57651376,16.3170642 8.0146789,18.3310092 4.68550459,18.3310092 C1.8906422,18.3310092 0.328807339,17.0157798 0.328807339,15.412844 Z" id="XMLID_46_"></path>
                    <path d="M20.2627523,13.2344954 L20.2627523,2.79486239 C20.2627523,1.72623853 19.6873394,1.10972477 17.4678899,1.02752294 L17.4678899,0.739816514 L25.1948624,0.739816514 L25.1948624,1.02752294 C22.893211,1.10972477 22.6055046,1.68513761 22.6055046,2.79486239 L22.6055046,12.5768807 C22.6055046,16.440367 25.0715596,17.5500917 27.866422,17.5500917 C29.1405505,17.5500917 30.2502752,17.1801835 31.0311927,16.3992661 C31.8943119,15.5361468 32.4286239,14.3031193 32.4286239,12.4946789 L32.4286239,4.80880734 C32.4286239,2.42495413 31.6477064,1.43853211 29.1816514,1.06862385 L29.1816514,0.780917431 L35.7988991,0.780917431 L35.7988991,1.06862385 C33.4972477,1.47963303 33.0040367,2.42495413 33.0040367,4.80880734 L33.0040367,12.7412844 C33.0040367,16.0293578 31.0311927,18.3721101 26.7155963,18.3721101 C22.6466055,18.3310092 20.2627523,16.4814679 20.2627523,13.2344954 Z" id="XMLID_48_"></path>
                    <path d="M40.32,12.2891743 L40.6488073,12.2891743 C41.9640367,15.412844 43.5258716,17.7555963 46.3207339,17.7555963 C48.9100917,17.7555963 50.1431193,15.9882569 50.1431193,14.4675229 C50.1431193,12.1247706 48.6223853,11.3438532 45.4987156,10.2341284 C43.1559633,9.41211009 40.6488073,8.7133945 40.6488073,5.54862385 C40.6488073,2.30165138 43.1559633,0.369908257 46.3618349,0.369908257 C47.800367,0.369908257 49.1566972,0.739816514 49.9787156,1.10972477 L50.759633,0.205504587 L51.0473394,0.205504587 L51.0473394,5.58972477 L50.7185321,5.58972477 C49.5677064,2.46605505 48.0058716,0.822018349 45.9508257,0.822018349 C44.1834862,0.822018349 42.6627523,1.97284404 42.6627523,3.98678899 C42.6627523,6.24733945 44.306789,6.98715596 47.0605505,7.89137615 C49.4444037,8.67229358 51.8693578,9.45321101 51.8693578,12.6590826 C51.8693578,15.2073394 50.3486239,18.2077064 46.0741284,18.2077064 C44.6766972,18.2077064 43.1559633,17.7144954 42.1284404,17.1390826 L40.6077064,18.2899083 L40.32,18.2899083 L40.32,12.2891743 Z" id="XMLID_50_"></path>
                    <path d="M60.5416514,17.5911927 C62.72,17.5089908 63.5420183,16.8924771 63.5420183,15.8238532 L63.5420183,1.23302752 L62.3500917,1.23302752 C60.5416514,1.23302752 58.8976147,2.75376147 57.4590826,5.87743119 L57.1302752,5.83633028 L57.2946789,0.739816514 L72.1321101,0.739816514 L72.2965138,5.83633028 L71.9677064,5.87743119 C70.5702752,2.95926606 68.9673394,1.23302752 67.0766972,1.23302752 L65.8847706,1.23302752 L65.8847706,15.8238532 C65.8847706,16.8924771 66.6656881,17.5089908 68.8851376,17.5911927 L68.8851376,17.92 L60.5827523,17.92 L60.5827523,17.5911927 L60.5416514,17.5911927 Z" id="XMLID_52_"></path>
                    <path d="M87.8737615,12.2891743 L88.2025688,12.2891743 C89.5177982,15.412844 91.079633,17.7555963 93.8744954,17.7555963 C96.4638532,17.7555963 97.6968807,15.9882569 97.6968807,14.4675229 C97.6968807,12.1247706 96.1761468,11.3438532 93.0524771,10.2341284 C90.7097248,9.41211009 88.2025688,8.7133945 88.2025688,5.54862385 C88.2025688,2.30165138 90.7097248,0.369908257 93.9155963,0.369908257 C95.3541284,0.369908257 96.7104587,0.739816514 97.5324771,1.10972477 L98.3133945,0.205504587 L98.6011009,0.205504587 L98.6011009,5.58972477 L98.2722936,5.58972477 C97.1214679,2.46605505 95.559633,0.822018349 93.5045872,0.822018349 C91.7372477,0.822018349 90.2165138,1.97284404 90.2165138,3.98678899 C90.2165138,6.24733945 91.8605505,6.98715596 94.6143119,7.89137615 C96.9981651,8.67229358 99.4231193,9.45321101 99.4231193,12.6590826 C99.4231193,15.2073394 97.9023853,18.2077064 93.6278899,18.2077064 C92.2304587,18.2077064 90.7097248,17.7144954 89.6822018,17.1390826 L88.1614679,18.2899083 L87.8737615,18.2899083 L87.8737615,12.2891743 Z" id="XMLID_54_"></path>
                    <path d="M104.930642,17.5911927 C107.108991,17.5089908 107.725505,16.933578 107.725505,15.8238532 L107.725505,2.75376147 C107.725505,1.68513761 107.150092,1.06862385 104.930642,0.986422018 L104.930642,0.698715596 L112.657615,0.698715596 L112.657615,0.986422018 C110.314862,1.06862385 110.068257,1.6440367 110.068257,2.75376147 L110.068257,8.7133945 L118.28844,8.7133945 L118.28844,2.75376147 C118.28844,1.6440367 118.041835,1.06862385 115.740183,0.986422018 L115.740183,0.698715596 L123.426055,0.698715596 L123.426055,0.986422018 C121.247706,1.06862385 120.631193,1.68513761 120.631193,2.75376147 L120.631193,15.8238532 C120.631193,16.8924771 121.206606,17.5089908 123.426055,17.5911927 L123.426055,17.92 L115.740183,17.92 L115.740183,17.5911927 C118.041835,17.5089908 118.28844,16.9746789 118.28844,15.8238532 L118.28844,9.24770642 L110.068257,9.24770642 L110.068257,15.8238532 C110.068257,16.9746789 110.314862,17.5089908 112.657615,17.5911927 L112.657615,17.92 L104.930642,17.92 L104.930642,17.5911927 Z" id="XMLID_56_"></path>
                    <path d="M128.56367,17.5911927 C130.742018,17.5089908 131.358532,16.8924771 131.358532,15.8238532 L131.358532,2.79486239 C131.358532,1.72623853 130.783119,1.10972477 128.56367,1.02752294 L128.56367,0.739816514 L142.537982,0.739816514 L142.620183,6.08293578 L142.291376,6.1240367 C141.09945,2.87706422 139.825321,1.27412844 136.948257,1.27412844 L133.701284,1.27412844 L133.701284,8.79559633 L135.263119,8.79559633 C137.318165,8.79559633 138.386789,8.09688073 139.044404,5.38422018 L139.373211,5.38422018 L139.373211,12.7001835 L139.044404,12.7001835 C138.386789,9.98752294 137.359266,9.28880734 135.263119,9.28880734 L133.701284,9.28880734 L133.701284,17.4678899 L136.948257,17.4678899 C140.318532,17.4678899 141.715963,15.7827523 143.031193,12.3302752 L143.36,12.3713761 L143.236697,18.0022018 L128.56367,18.0022018 L128.56367,17.5911927 Z" id="XMLID_58_"></path>
                    <path d="M149.812844,17.5911927 C151.991193,17.5089908 152.607706,16.8924771 152.607706,15.8238532 L152.607706,2.79486239 C152.607706,1.72623853 152.032294,1.10972477 149.812844,1.02752294 L149.812844,0.739816514 L157.539817,0.739816514 L157.539817,1.02752294 C155.197064,1.10972477 154.950459,1.68513761 154.950459,2.79486239 L154.950459,17.426789 L157.211009,17.426789 C160.457982,17.426789 162.019817,16.3581651 163.458349,12.5357798 L163.787156,12.5768807 L163.54055,17.9611009 L149.812844,17.9611009 L149.812844,17.5911927 Z" id="XMLID_60_"></path>
                    <path d="M170.609908,17.5911927 C172.788257,17.5089908 173.610275,16.8924771 173.610275,15.8238532 L173.610275,1.23302752 L172.418349,1.23302752 C170.609908,1.23302752 168.965872,2.75376147 167.527339,5.87743119 L167.198532,5.83633028 L167.362936,0.739816514 L182.200367,0.739816514 L182.364771,5.83633028 L182.035963,5.87743119 C180.638532,2.95926606 179.035596,1.23302752 177.144954,1.23302752 L175.911927,1.23302752 L175.911927,15.8238532 C175.911927,16.8924771 176.692844,17.5089908 178.912294,17.5911927 L178.912294,17.92 L170.609908,17.92 L170.609908,17.5911927 Z" id="XMLID_62_"></path>
                    <path d="M186.926972,17.5911927 C189.105321,17.5089908 189.721835,16.8924771 189.721835,15.8238532 L189.721835,2.79486239 C189.721835,1.72623853 189.146422,1.10972477 186.926972,1.02752294 L186.926972,0.739816514 L200.901284,0.739816514 L200.983486,6.08293578 L200.654679,6.1240367 C199.462752,2.87706422 198.188624,1.27412844 195.31156,1.27412844 L192.064587,1.27412844 L192.064587,8.79559633 L193.626422,8.79559633 C195.681468,8.79559633 196.750092,8.09688073 197.407706,5.38422018 L197.736514,5.38422018 L197.736514,12.7001835 L197.407706,12.7001835 C196.750092,9.98752294 195.722569,9.28880734 193.626422,9.28880734 L192.064587,9.28880734 L192.064587,17.4678899 L195.31156,17.4678899 C198.681835,17.4678899 200.079266,15.7827523 201.394495,12.3302752 L201.723303,12.3713761 L201.6,18.0022018 L186.926972,18.0022018 L186.926972,17.5911927 Z" id="XMLID_64_"></path>
                    <path d="M211.834128,15.8238532 C211.834128,16.9746789 212.245138,17.5089908 214.546789,17.5911927 L214.546789,17.92 L206.696514,17.92 L206.696514,17.5911927 C208.874862,17.5089908 209.491376,16.8924771 209.491376,15.8238532 L209.491376,2.79486239 C209.491376,1.72623853 208.915963,1.10972477 206.696514,1.02752294 L206.696514,0.739816514 L213.971376,0.739816514 C218.985688,0.739816514 221.040734,2.54825688 221.040734,4.89100917 C221.040734,7.02825688 219.561101,8.75449541 215.820917,9.28880734 L215.820917,9.37100917 C219.478899,9.53541284 220.259817,11.1794495 220.670826,13.8099083 L220.835229,14.8374312 C221.246239,17.1390826 221.657248,17.4678899 223.835596,17.4678899 L223.835596,17.7555963 C223.054679,17.9611009 222.150459,18.0844037 221.32844,18.0844037 C219.026789,18.0844037 218.533578,17.1801835 218.286972,14.919633 L217.999266,12.5768807 C217.71156,10.1108257 217.053945,9.57651376 214.094679,9.57651376 L211.875229,9.57651376 L211.875229,15.8238532 L211.834128,15.8238532 Z M214.176881,9.04220183 C217.670459,9.04220183 218.369174,7.39816514 218.369174,4.93211009 C218.369174,2.67155963 217.341651,1.19192661 213.806972,1.19192661 L211.834128,1.19192661 L211.834128,9.04220183 L214.176881,9.04220183 Z" id="XMLID_66_"></path>
                </g>
            </g>
        </g>
    </g>
</svg>