<svg width="35" height="24" viewBox="0 0 35 24" fill="none" xmlns="http://www.w3.org/2000/svg">
<path d="M31.8 0.600006H3C1.34315 0.600006 0 1.94315 0 3.60001V20.4C0 22.0569 1.34315 23.4 3 23.4H31.8C33.4569 23.4 34.8 22.0569 34.8 20.4V3.60001C34.8 1.94315 33.4569 0.600006 31.8 0.600006Z" fill="#E24000"/>
<path d="M13.8936 17V15.2372H9.5568L12.552 11.6492C13.1604 10.916 13.7376 9.9644 13.7376 8.9972C13.7376 7.094 12.2556 5.9396 10.3992 5.9396C8.1684 5.9396 6.9516 7.3124 6.936 9.2156H8.9328C8.9328 8.3576 9.4632 7.6556 10.3836 7.6556C11.2728 7.6556 11.7564 8.2484 11.7564 9.0128C11.7564 9.4496 11.5692 9.9644 11.1948 10.4012L6.9672 15.44V17H13.8936ZM18.3601 17V14.5664H15.9889V17H18.3601ZM27.4305 11.5712C27.4305 9.7928 27.2589 7.9832 26.1357 6.9068C25.5741 6.3608 24.7785 5.9396 23.6085 5.9396C22.4385 5.9396 21.6429 6.3608 21.0813 6.9068C19.9581 7.9832 19.7865 9.7928 19.7865 11.5712C19.7865 13.3496 19.9581 15.1592 21.0813 16.2356C21.6429 16.7816 22.4385 17.2028 23.6085 17.2028C24.7785 17.2028 25.5741 16.7816 26.1357 16.2356C27.2589 15.1592 27.4305 13.3496 27.4305 11.5712ZM25.4493 11.5712C25.4493 12.9752 25.6209 15.3932 23.6085 15.3932C21.5961 15.3932 21.7677 12.9752 21.7677 11.5712C21.7677 10.1672 21.5961 7.7492 23.6085 7.7492C25.6209 7.7492 25.4493 10.1672 25.4493 11.5712Z" fill="white"/>
</svg>
