<svg width="33" height="25" viewBox="0 0 33 25" fill="none" xmlns="http://www.w3.org/2000/svg">
<path d="M29.08 0.999999H4.24C2.4506 0.999999 1 2.59198 1 4.55579V19.9642C1 21.928 2.4506 23.52 4.24 23.52H29.08C30.8694 23.52 32.32 21.928 32.32 19.9642V4.55579C32.32 2.59198 30.8694 0.999999 29.08 0.999999Z" stroke="#E24000" stroke-width="1.08"/>
<path d="M13.5042 16.96V15.3735H9.60111L12.2968 12.1443C12.8444 11.4844 13.3638 10.628 13.3638 9.75748C13.3638 8.0446 12.03 7.00564 10.3593 7.00564C8.35155 7.00564 7.25643 8.24116 7.24239 9.95404H9.03951C9.03951 9.18184 9.51687 8.55004 10.3452 8.55004C11.1455 8.55004 11.5808 9.08356 11.5808 9.77152C11.5808 10.1646 11.4123 10.628 11.0753 11.0211L7.27047 15.556V16.96H13.5042ZM17.5241 16.96V14.7698H15.39V16.96H17.5241ZM25.6874 12.0741C25.6874 10.4735 25.533 8.84488 24.5221 7.87612C24.0167 7.38472 23.3006 7.00564 22.2476 7.00564C21.1946 7.00564 20.4786 7.38472 19.9732 7.87612C18.9623 8.84488 18.8078 10.4735 18.8078 12.0741C18.8078 13.6746 18.9623 15.3033 19.9732 16.272C20.4786 16.7634 21.1946 17.1425 22.2476 17.1425C23.3006 17.1425 24.0167 16.7634 24.5221 16.272C25.533 15.3033 25.6874 13.6746 25.6874 12.0741ZM23.9044 12.0741C23.9044 13.3377 24.0588 15.5139 22.2476 15.5139C20.4365 15.5139 20.5909 13.3377 20.5909 12.0741C20.5909 10.8105 20.4365 8.63428 22.2476 8.63428C24.0588 8.63428 23.9044 10.8105 23.9044 12.0741Z" fill="#E24000"/>
</svg>
