<svg width="100%" height="100%" viewBox="0 0 894 383" fill="none" xmlns="http://www.w3.org/2000/svg">
<g clip-path="url(#clip0_311:4)">
<rect width="894" height="383" fill="#F3F7FA"/>
<path d="M426 364V0Z" fill="white"/>
<path d="M426 364V0" stroke="white" stroke-width="2"/>
<path d="M561 364V0Z" fill="white"/>
<path d="M561 364V0" stroke="white" stroke-width="2"/>
<path d="M697 364V0Z" fill="white"/>
<path d="M697 364V0" stroke="white" stroke-width="2"/>
<path d="M832 364V0Z" fill="white"/>
<path d="M832 364V0" stroke="white" stroke-width="2"/>
<path d="M358 351H888Z" fill="white"/>
<path d="M358 351H888" stroke="white" stroke-width="2"/>
<path d="M358 330H888Z" fill="white"/>
<path d="M358 330H888" stroke="white" stroke-width="2"/>
<path d="M358 309H888Z" fill="white"/>
<path d="M358 309H888" stroke="white" stroke-width="2"/>
<path d="M358 288H888Z" fill="white"/>
<path d="M358 288H888" stroke="white" stroke-width="2"/>
<path d="M358 266H888Z" fill="white"/>
<path d="M358 266H888" stroke="white" stroke-width="2"/>
<path d="M358 245H888Z" fill="white"/>
<path d="M358 245H888" stroke="white" stroke-width="2"/>
<path d="M358 224H888Z" fill="white"/>
<path d="M358 224H888" stroke="white" stroke-width="2"/>
<path d="M358 203H888Z" fill="white"/>
<path d="M358 203H888" stroke="white" stroke-width="2"/>
<path d="M358 182H888Z" fill="white"/>
<path d="M358 182H888" stroke="white" stroke-width="2"/>
<path d="M358 161H888Z" fill="white"/>
<path d="M358 161H888" stroke="white" stroke-width="2"/>
<path d="M358 140H888Z" fill="white"/>
<path d="M358 140H888" stroke="white" stroke-width="2"/>
<path d="M358 118H888Z" fill="white"/>
<path d="M358 118H888" stroke="white" stroke-width="2"/>
<path d="M358 97H888Z" fill="white"/>
<path d="M358 97H888" stroke="white" stroke-width="2"/>
<path d="M358 76H888Z" fill="white"/>
<path d="M358 76H888" stroke="white" stroke-width="2"/>
<path d="M358 55H888Z" fill="white"/>
<path d="M358 55H888" stroke="white" stroke-width="2"/>
<path d="M358 34H888Z" fill="white"/>
<path d="M358 34H888" stroke="white" stroke-width="2"/>
<path d="M358 13H888Z" fill="white"/>
<path d="M358 13H888" stroke="white" stroke-width="2"/>
<path d="M358 364V0Z" fill="white"/>
<path d="M358 364V0" stroke="white" stroke-width="2"/>
<path d="M494 364V0Z" fill="white"/>
<path d="M494 364V0" stroke="white" stroke-width="2"/>
<path d="M629 364V0Z" fill="white"/>
<path d="M629 364V0" stroke="white" stroke-width="2"/>
<path d="M765 364V0Z" fill="white"/>
<path d="M765 364V0" stroke="white" stroke-width="2"/>
<path d="M629 364V0" stroke="#7E829F" stroke-dasharray="8 4"/>
<path d="M484 13H382Z" fill="black"/>
<path d="M484 13H382" stroke="#E24000" stroke-width="1.07"/>
<path d="M635 245H617Z" fill="black"/>
<path d="M635 245H617" stroke="#E24000" stroke-width="1.07"/>
<path d="M864 351H848Z" fill="black"/>
<path d="M864 351H848" stroke="#E24000" stroke-width="1.07"/>
<path d="M689 309H659Z" fill="black"/>
<path d="M689 309H659" stroke="#E24000" stroke-width="1.07"/>
<path d="M663 288H655Z" fill="black"/>
<path d="M663 288H655" stroke="#E24000" stroke-width="1.07"/>
<path d="M639 266H629Z" fill="black"/>
<path d="M639 266H629" stroke="#E24000" stroke-width="1.07"/>
<path d="M615 182H593Z" fill="black"/>
<path d="M615 182H593" stroke="#E24000" stroke-width="1.07"/>
<path d="M573 97H539Z" fill="black"/>
<path d="M573 97H539" stroke="#E24000" stroke-width="1.07"/>
<path d="M524 55H504Z" fill="black"/>
<path d="M524 55H504" stroke="#E24000" stroke-width="1.07"/>
<path d="M522 34H502Z" fill="black"/>
<path d="M522 34H502" stroke="#E24000" stroke-width="1.07"/>
<path d="M583 118H559Z" fill="black"/>
<path d="M583 118H559" stroke="#E24000" stroke-width="1.07"/>
<path d="M623 203H615Z" fill="black"/>
<path d="M623 203H615" stroke="#E24000" stroke-width="1.07"/>
<path d="M543 76H520Z" fill="black"/>
<path d="M543 76H520" stroke="#E24000" stroke-width="1.07"/>
<path d="M583 140H573Z" fill="black"/>
<path d="M583 140H573" stroke="#E24000" stroke-width="1.07"/>
<path d="M631 224H615Z" fill="black"/>
<path d="M631 224H615" stroke="#E24000" stroke-width="1.07"/>
<path d="M772 330H705Z" fill="black"/>
<path d="M772 330H705" stroke="#E24000" stroke-width="1.07"/>
<path d="M605 161H575Z" fill="black"/>
<path d="M605 161H575" stroke="#E24000" stroke-width="1.07"/>
<text fill="#2D2E32" xml:space="preserve" style="white-space: pre" font-family="Gotham A, Gotham B" font-size="12" letter-spacing="0em"><tspan x="179.684" y="355.188">Percent Bachelor&#39;s Degree</tspan></text>
<text fill="#2D2E32" xml:space="preserve" style="white-space: pre" font-family="Gotham A, Gotham B" font-size="12" letter-spacing="0em"><tspan x="0.246094" y="334.188">Percent Newer Occupied Housing Units (Built after 2013)</tspan></text>
<text fill="#2D2E32" xml:space="preserve" style="white-space: pre" font-family="Gotham A, Gotham B" font-size="12" letter-spacing="0em"><tspan x="244.078" y="313.188">Percent Female</tspan></text>
<text fill="#2D2E32" xml:space="preserve" style="white-space: pre" font-family="Gotham A, Gotham B" font-size="12" letter-spacing="0em"><tspan x="254.977" y="291.188">Percent Black</tspan></text>
<text fill="#2D2E32" xml:space="preserve" style="white-space: pre" font-family="Gotham A, Gotham B" font-size="12" letter-spacing="0em"><tspan x="237" y="270.188">Percent Hispanic</tspan></text>
<text fill="#2D2E32" xml:space="preserve" style="white-space: pre" font-family="Gotham A, Gotham B" font-size="12" letter-spacing="0em"><tspan x="259.699" y="249.188">Poverty Rate</tspan></text>
<text fill="#2D2E32" xml:space="preserve" style="white-space: pre" font-family="Gotham A, Gotham B" font-size="12" letter-spacing="0em"><tspan x="228.117" y="228.188">Percent Vacancies</tspan></text>
<text fill="#2D2E32" xml:space="preserve" style="white-space: pre" font-family="Gotham A, Gotham B" font-size="12" letter-spacing="0em"><tspan x="129.141" y="207.188">Population Density Percentile Rank</tspan></text>
<text fill="#2D2E32" xml:space="preserve" style="white-space: pre" font-family="Gotham A, Gotham B" font-size="12" letter-spacing="0em"><tspan x="254.402" y="186.188">Percent Asian</tspan></text>
<text fill="#2D2E32" xml:space="preserve" style="white-space: pre" font-family="Gotham A, Gotham B" font-size="12" letter-spacing="0em"><tspan x="32.5312" y="165.188">Residential Instability (Percent Moved in after 2014)</tspan></text>
<text fill="#2D2E32" xml:space="preserve" style="white-space: pre" font-family="Gotham A, Gotham B" font-size="12" letter-spacing="0em"><tspan x="187.195" y="143.188">Percent Renter Occupied</tspan></text>
<text fill="#2D2E32" xml:space="preserve" style="white-space: pre" font-family="Gotham A, Gotham B" font-size="12" letter-spacing="0em"><tspan x="194.578" y="122.188">Percent 35-44 years old</tspan></text>
<text fill="#2D2E32" xml:space="preserve" style="white-space: pre" font-family="Gotham A, Gotham B" font-size="12" letter-spacing="0em"><tspan x="252.914" y="101.188">Percent Other</tspan></text>
<text fill="#2D2E32" xml:space="preserve" style="white-space: pre" font-family="Gotham A, Gotham B" font-size="12" letter-spacing="0em"><tspan x="194.965" y="80.188">Percent Group Quarters</tspan></text>
<text fill="#2D2E32" xml:space="preserve" style="white-space: pre" font-family="Gotham A, Gotham B" font-size="12" letter-spacing="0em"><tspan x="198.785" y="59.188">Percent 18-24 years old</tspan></text>
<text fill="#2D2E32" xml:space="preserve" style="white-space: pre" font-family="Gotham A, Gotham B" font-size="12" letter-spacing="0em"><tspan x="195.527" y="38.188">Percent 25-34 years old</tspan></text>
<text fill="#2D2E32" xml:space="preserve" style="white-space: pre" font-family="Gotham A, Gotham B" font-size="12" letter-spacing="0em"><tspan x="216.949" y="17.188">Eviction Rate (2015)</tspan></text>
<text fill="#68696B" xml:space="preserve" style="white-space: pre" font-family="GT-Eesti-Display-Bold, GT Eesti Display" font-size="11" letter-spacing="0em"><tspan x="347.499" y="380.02">-0.8</tspan></text>
<text fill="#68696B" xml:space="preserve" style="white-space: pre" font-family="GT-Eesti-Display-Bold, GT Eesti Display" font-size="11" letter-spacing="0em"><tspan x="482.488" y="380.02">-0.4</tspan></text>
<text fill="#68696B" xml:space="preserve" style="white-space: pre" font-family="GT-Eesti-Display-Bold, GT Eesti Display" font-size="11" letter-spacing="0em"><tspan x="621.593" y="380.02">0.0</tspan></text>
<text fill="#68696B" xml:space="preserve" style="white-space: pre" font-family="GT-Eesti-Display-Bold, GT Eesti Display" font-size="11" letter-spacing="0em"><tspan x="758.099" y="380.02">0.4</tspan></text>
<path d="M432.977 15C434.069 15 434.954 14.1046 434.954 13C434.954 11.8954 434.069 11 432.977 11C431.885 11 431 11.8954 431 13C431 14.1046 431.885 15 432.977 15Z" fill="#434878" stroke="#434878" stroke-width="0.71"/>
<path d="M625.72 247C626.812 247 627.697 246.105 627.697 245C627.697 243.895 626.812 243 625.72 243C624.628 243 623.743 243.895 623.743 245C623.743 246.105 624.628 247 625.72 247Z" fill="#434878" stroke="#434878" stroke-width="0.71"/>
<path d="M856.023 353C857.115 353 858 352.105 858 351C858 349.895 857.115 349 856.023 349C854.931 349 854.046 349.895 854.046 351C854.046 352.105 854.931 353 856.023 353Z" fill="#434878" stroke="#434878" stroke-width="0.71"/>
<path d="M673.977 311C675.069 311 675.954 310.105 675.954 309C675.954 307.895 675.069 307 673.977 307C672.885 307 672 307.895 672 309C672 310.105 672.885 311 673.977 311Z" fill="#434878" stroke="#434878" stroke-width="0.71"/>
<path d="M659.338 290C660.43 290 661.315 289.105 661.315 288C661.315 286.895 660.43 286 659.338 286C658.246 286 657.361 286.895 657.361 288C657.361 289.105 658.246 290 659.338 290Z" fill="#434878" stroke="#434878" stroke-width="0.71"/>
<path d="M633.616 268C634.708 268 635.593 267.105 635.593 266C635.593 264.895 634.708 264 633.616 264C632.524 264 631.639 264.895 631.639 266C631.639 267.105 632.524 268 633.616 268Z" fill="#434878" stroke="#434878" stroke-width="0.71"/>
<path d="M603.975 184C605.066 184 605.951 183.105 605.951 182C605.951 180.895 605.066 180 603.975 180C602.883 180 601.998 180.895 601.998 182C601.998 183.105 602.883 184 603.975 184Z" fill="#434878" stroke="#434878" stroke-width="0.71"/>
<path d="M555.977 99C557.069 99 557.954 98.1046 557.954 97C557.954 95.8954 557.069 95 555.977 95C554.885 95 554 95.8954 554 97C554 98.1046 554.885 99 555.977 99Z" fill="#434878" stroke="#434878" stroke-width="0.71"/>
<path d="M513.977 57C515.069 57 515.954 56.1046 515.954 55C515.954 53.8954 515.069 53 513.977 53C512.885 53 512 53.8954 512 55C512 56.1046 512.885 57 513.977 57Z" fill="#434878" stroke="#434878" stroke-width="0.71"/>
<path d="M511.977 36C513.069 36 513.954 35.1046 513.954 34C513.954 32.8954 513.069 32 511.977 32C510.885 32 510 32.8954 510 34C510 35.1046 510.885 36 511.977 36Z" fill="#434878" stroke="#434878" stroke-width="0.71"/>
<path d="M571.356 120C572.448 120 573.333 119.105 573.333 118C573.333 116.895 572.448 116 571.356 116C570.265 116 569.38 116.895 569.38 118C569.38 119.105 570.265 120 571.356 120Z" fill="#434878" stroke="#434878" stroke-width="0.71"/>
<path d="M618.789 205C619.881 205 620.766 204.105 620.766 203C620.766 201.895 619.881 201 618.789 201C617.698 201 616.812 201.895 616.812 203C616.812 204.105 617.698 205 618.789 205Z" fill="#434878" stroke="#434878" stroke-width="0.71"/>
<path d="M531.977 78C533.069 78 533.954 77.1046 533.954 76C533.954 74.8954 533.069 74 531.977 74C530.885 74 530 74.8954 530 76C530 77.1046 530.885 78 531.977 78Z" fill="#434878" stroke="#434878" stroke-width="0.71"/>
<path d="M578.287 142C579.379 142 580.264 141.105 580.264 140C580.264 138.895 579.379 138 578.287 138C577.195 138 576.31 138.895 576.31 140C576.31 141.105 577.195 142 578.287 142Z" fill="#434878" stroke="#434878" stroke-width="0.71"/>
<path d="M622.755 226C623.846 226 624.731 225.105 624.731 224C624.731 222.895 623.846 222 622.755 222C621.663 222 620.778 222.895 620.778 224C620.778 225.105 621.663 226 622.755 226Z" fill="#434878" stroke="#434878" stroke-width="0.71"/>
<path d="M738.977 332C740.069 332 740.954 331.105 740.954 330C740.954 328.895 740.069 328 738.977 328C737.885 328 737 328.895 737 330C737 331.105 737.885 332 738.977 332Z" fill="#434878" stroke="#434878" stroke-width="0.71"/>
<path d="M590.137 163C591.228 163 592.113 162.105 592.113 161C592.113 159.895 591.228 159 590.137 159C589.045 159 588.16 159.895 588.16 161C588.16 162.105 589.045 163 590.137 163Z" fill="#434878" stroke="#434878" stroke-width="0.71"/>
</g>
<defs>
<clipPath id="clip0_311:4">
<rect width="894" height="383" fill="white"/>
</clipPath>
</defs>
</svg>
