<svg width="574" height="632" viewBox="0 0 574 632" fill="none" xmlns="http://www.w3.org/2000/svg">
<g opacity="0.9">
<path d="M206.704 402.357H185.653V811.79H206.704V402.357Z" fill="url(#paint0_linear_1129_280)"/>
<path d="M114.081 432.881H93.0308V629.703H114.081V432.881Z" fill="url(#paint1_linear_1129_280)"/>
<path d="M67.7702 510.767H46.7197V632.86H67.7702V510.767Z" fill="url(#paint2_linear_1129_280)"/>
<path d="M21.4592 545.501H0.408691V638.123H21.4592V545.501Z" fill="url(#paint3_linear_1129_280)"/>
<path d="M253.015 343.416H231.964V816H253.015V343.416Z" fill="url(#paint4_linear_1129_280)"/>
<path d="M160.393 348.678H139.342V812.842H160.393V348.678Z" fill="url(#paint5_linear_1129_280)"/>
<path d="M299.326 258.161H278.275V813.895H299.326V258.161Z" fill="url(#paint6_linear_1129_280)"/>
<path d="M345.637 204.257H324.586V813.67H345.637V204.257Z" fill="url(#paint7_linear_1129_280)"/>
<path d="M391.948 180.173H370.898V811.689H391.948V180.173Z" fill="url(#paint8_linear_1129_280)"/>
<path d="M437.207 107.92H416.156V787.852H437.207V107.92Z" fill="url(#paint9_linear_1129_280)"/>
<path d="M482.466 37.5938H461.415V726.998H482.466V37.5938Z" fill="url(#paint10_linear_1129_280)"/>
<path d="M528 0H507V708H528V0Z" fill="url(#paint11_linear_1129_280)"/>
</g>
<rect width="42.2867" height="35.0375" transform="matrix(-1 0 0 1 325.499 499.532)" fill="#33376A"/>
<path d="M331.537 489.867H289.598L283.52 500.138H325.459L331.537 489.867Z" fill="#33376A"/>
<path d="M320.096 490.723H278.377L283.819 500.138H325.537L320.096 490.723Z" fill="#1E2248"/>
<rect width="38.6621" height="32.6211" transform="matrix(-1 0 0 1 514.463 459.723)" fill="#33376A"/>
<rect width="38.6621" height="32.6211" transform="matrix(-1 0 0 1 381.074 400.461)" fill="#33376A"/>
<rect width="38.6621" height="31.413" transform="matrix(-1 0 0 1 201.159 511.08)" fill="#33376A"/>
<rect width="38.6621" height="43.4949" transform="matrix(-1 0 0 1 508.416 537.047)" fill="#33376A"/>
<rect x="143.552" y="579.182" width="34.7334" height="37.8909" transform="rotate(-180 143.552 579.182)" fill="#33376A"/>
<rect width="38.6621" height="42.2867" transform="matrix(-1 0 0 1 508.416 493.552)" fill="#33376A"/>
<rect width="12.8619" height="3.36886" transform="matrix(-4.38884e-08 1 1 4.35351e-08 487.165 493.311)" fill="#1E2248"/>
<path d="M495.025 546.396C495.04 546.44 495.075 546.469 495.113 546.469L496.5 546.469L496.5 550.685C496.5 550.75 496.516 550.804 496.596 550.804L497.468 550.804C497.521 550.804 497.564 550.75 497.564 550.685L497.564 546.469L498.955 546.469C498.993 546.469 499.028 546.44 499.043 546.396C499.058 546.351 499.05 546.3 499.023 546.266L497.105 543.882C497.087 543.859 497.062 543.847 497.037 543.847C497.011 543.847 496.987 543.859 496.969 543.882L495.045 546.266C495.018 546.3 495.01 546.351 495.025 546.396Z" fill="#1E2248"/>
<path d="M499.98 546.395C499.995 546.44 500.03 546.469 500.069 546.469L501.455 546.469L501.455 550.684C501.455 550.75 501.471 550.803 501.551 550.803L502.424 550.803C502.477 550.803 502.52 550.75 502.52 550.684L502.52 546.469L503.91 546.469C503.949 546.469 503.984 546.44 503.999 546.395C504.014 546.351 504.006 546.3 503.978 546.265L502.06 543.881C502.042 543.859 502.018 543.846 501.992 543.846C501.967 543.846 501.942 543.859 501.924 543.881L500.001 546.265C499.973 546.299 499.965 546.351 499.98 546.395Z" fill="#1E2248"/>
<rect x="495.014" y="575.605" width="8.98362" height="1.11842" fill="#1E2248"/>
<rect width="14.1635" height="3.29963" transform="matrix(1 8.74228e-08 8.74228e-08 -1 119.344 547.748)" fill="#1E2248"/>
<rect width="38.6621" height="43.4949" transform="matrix(-1 0 0 1 511.016 381.794)" fill="#33376A"/>
<rect width="38.7419" height="31.4427" transform="matrix(-1 0 0 1 511.094 426.436)" fill="#33376A"/>
<rect width="9.5451" height="3.36886" transform="matrix(-5.9649e-08 1 1 3.20321e-08 489.765 426.437)" fill="#1E2248"/>
<path d="M497.632 397.507C497.647 397.552 497.682 397.581 497.721 397.581L499.108 397.581L499.108 401.796C499.108 401.862 499.123 401.915 499.204 401.915L500.076 401.915C500.129 401.915 500.172 401.862 500.172 401.796L500.172 397.581L501.563 397.581C501.601 397.581 501.636 397.552 501.651 397.507C501.666 397.463 501.658 397.412 501.631 397.378L499.713 394.993C499.695 394.971 499.67 394.958 499.645 394.958C499.619 394.958 499.595 394.971 499.577 394.993L497.653 397.377C497.626 397.411 497.617 397.463 497.632 397.507Z" fill="#1E2248"/>
<path d="M502.57 397.506C502.585 397.551 502.62 397.58 502.659 397.58L504.045 397.58L504.045 401.795C504.045 401.861 504.061 401.915 504.141 401.915L505.014 401.915C505.067 401.915 505.11 401.861 505.11 401.795L505.11 397.58L506.5 397.58C506.539 397.58 506.574 397.551 506.589 397.507C506.604 397.462 506.596 397.411 506.568 397.377L504.65 394.993C504.632 394.97 504.608 394.958 504.582 394.958C504.557 394.958 504.532 394.97 504.514 394.992L502.591 397.377C502.563 397.411 502.555 397.462 502.57 397.506Z" fill="#1E2248"/>
<rect x="497.622" y="420.021" width="8.98362" height="1.11842" fill="#1E2248"/>
<rect width="49.5358" height="66.4505" transform="matrix(-1 0 0 1 518.033 313.785)" fill="#33376A"/>
<path d="M486.931 329.489C486.979 329.606 487.091 329.683 487.215 329.683L491.655 329.683L491.655 337.339C491.655 337.512 491.705 337.653 491.963 337.653L494.756 337.653C494.926 337.653 495.064 337.512 495.064 337.339L495.064 329.683L499.516 329.683C499.641 329.683 499.753 329.606 499.801 329.49C499.848 329.373 499.822 329.238 499.734 329.148L493.593 322.878C493.535 322.819 493.457 322.785 493.375 322.785C493.293 322.785 493.215 322.819 493.157 322.877L486.997 329.148C486.909 329.237 486.883 329.372 486.931 329.489Z" fill="#1E2248"/>
<rect width="45.9112" height="37.4539" transform="matrix(-1 0 0 1 455.198 298.671)" fill="#33376A"/>
<rect width="20.3159" height="4.78021" transform="matrix(-4.37114e-08 1 1 4.37114e-08 429.495 298.671)" fill="#1E2248"/>
<path d="M454.592 298.671H408.299L399.619 307.036H445.912L454.592 298.671Z" fill="#3E447B"/>
<rect width="25.372" height="45.9112" transform="matrix(-1 0 0 1 428.191 474.16)" fill="#33376A"/>
<rect width="25.372" height="45.9112" transform="matrix(-1 0 0 1 457.188 474.16)" fill="#33376A"/>
<rect width="59.2013" height="36.2457" transform="matrix(-1 0 0 1 210.122 543.396)" fill="#33376A"/>
<path d="M196.106 569.891C196.121 569.936 196.156 569.965 196.195 569.965L197.581 569.965L197.581 574.18C197.581 574.246 197.597 574.299 197.677 574.299L198.55 574.299C198.603 574.299 198.646 574.246 198.646 574.18L198.646 569.965L200.036 569.965C200.075 569.965 200.11 569.936 200.125 569.891C200.14 569.847 200.132 569.796 200.104 569.762L198.186 567.377C198.168 567.355 198.144 567.342 198.118 567.342C198.093 567.342 198.068 567.355 198.05 567.377L196.127 569.761C196.099 569.795 196.091 569.847 196.106 569.891Z" fill="#1E2248"/>
<path d="M201.061 569.891C201.076 569.936 201.111 569.965 201.15 569.965L202.536 569.965L202.536 574.18C202.536 574.246 202.552 574.299 202.632 574.299L203.504 574.299C203.557 574.299 203.6 574.246 203.6 574.18L203.6 569.965L204.991 569.965C205.03 569.965 205.065 569.936 205.08 569.891C205.094 569.847 205.086 569.796 205.059 569.762L203.141 567.377C203.123 567.355 203.099 567.342 203.073 567.342C203.047 567.342 203.023 567.355 203.005 567.377L201.082 569.761C201.054 569.795 201.046 569.847 201.061 569.891Z" fill="#1E2248"/>
<rect width="54.3686" height="59.2013" transform="matrix(-1 0 0 1 457.197 521.28)" fill="#33376A"/>
<rect width="18.1229" height="4.83276" transform="matrix(-4.36254e-08 1 1 4.37976e-08 426.989 521.28)" fill="#1E2248"/>
<line x1="402.823" y1="471.452" x2="456.6" y2="471.452" stroke="#33376A" stroke-width="3"/>
<line x1="402.817" y1="466.619" x2="454.214" y2="466.422" stroke="#33376A" stroke-width="3"/>
<line x1="404.028" y1="461.787" x2="456.7" y2="461.655" stroke="#33376A" stroke-width="3"/>
<line x1="399.196" y1="456.954" x2="451.778" y2="456.888" stroke="#33376A" stroke-width="3"/>
<line x1="412.487" y1="452.121" x2="464.44" y2="452.121" stroke="#33376A" stroke-width="3"/>
<path d="M273.866 550.456H240.982V580.481H273.866V550.456Z" fill="#33376A"/>
<rect width="19.7423" height="17.2048" transform="matrix(-1 0 0 1 273.866 532.53)" fill="#33376A"/>
<rect width="53.1604" height="13.2901" transform="matrix(-1 0 0 1 390.742 549.069)" fill="#33376A"/>
<rect width="55.5768" height="16.9147" transform="matrix(-1 0 0 1 391.95 563.567)" fill="#33376A"/>
<rect width="54.0365" height="59.2785" transform="matrix(-1 0 0 1 459.309 389.587)" fill="#33376A"/>
<rect x="419.313" y="396.042" width="25.2606" height="5.26263" fill="#1E2248"/>
<rect width="54.0365" height="59.2785" transform="matrix(-1 0 0 1 391.621 434.29)" fill="#33376A"/>
<rect width="50.744" height="44.703" transform="matrix(-1 0 0 1 329.124 535.778)" fill="#33376A"/>
<path d="M372.827 459.966C372.848 460.029 372.896 460.069 372.951 460.069L374.884 460.069L374.884 465.949C374.884 466.04 374.906 466.115 375.018 466.115L376.235 466.115C376.309 466.115 376.369 466.04 376.369 465.949L376.369 460.069L378.308 460.069C378.362 460.069 378.411 460.029 378.432 459.967C378.453 459.905 378.442 459.833 378.403 459.786L375.728 456.46C375.703 456.429 375.669 456.411 375.633 456.411C375.598 456.411 375.564 456.429 375.538 456.46L372.856 459.785C372.817 459.833 372.806 459.904 372.827 459.966Z" fill="#1E2248"/>
<path d="M379.731 459.966C379.752 460.028 379.801 460.069 379.855 460.069L381.789 460.069L381.789 465.948C381.789 466.04 381.811 466.115 381.923 466.115L383.139 466.115C383.213 466.115 383.273 466.04 383.273 465.948L383.273 460.069L385.213 460.069C385.267 460.069 385.316 460.028 385.336 459.966C385.357 459.904 385.346 459.833 385.308 459.785L382.633 456.46C382.607 456.429 382.573 456.411 382.538 456.411C382.502 456.411 382.468 456.429 382.443 456.46L379.76 459.785C379.722 459.833 379.71 459.904 379.731 459.966Z" fill="#1E2248"/>
<rect x="372.821" y="487.329" width="12.5302" height="1.55996" fill="#1E2248"/>
<line x1="232.597" y1="578.928" x2="242.558" y2="529.125" stroke="#33376A" stroke-width="2"/>
<line x1="226.294" y1="579.658" x2="238.208" y2="538.941" stroke="#33376A" stroke-width="2"/>
<line x1="219.466" y1="578.79" x2="231.052" y2="551.901" stroke="#33376A" stroke-width="2"/>
<rect width="59.2013" height="44.703" transform="matrix(-1 0 0 1 393.155 503.157)" fill="#33376A"/>
<rect width="64.5329" height="8.36537" transform="matrix(-1 0 0 1 396.071 494.7)" fill="#1E2248"/>
<rect width="23.9011" height="5.97527" transform="matrix(-1 0 0 1 375.755 512.625)" fill="#1E2248"/>
<rect width="59.2013" height="50.744" transform="matrix(-1 0 0 1 462.021 337.635)" fill="#33376A"/>
<path d="M426.697 352.147C426.718 352.207 426.765 352.247 426.818 352.247L428.705 352.247L428.705 357.984C428.705 358.073 428.726 358.146 428.836 358.146L430.022 358.146C430.095 358.146 430.153 358.073 430.153 357.984L430.153 352.247L432.045 352.247C432.098 352.247 432.146 352.207 432.166 352.147C432.186 352.086 432.175 352.017 432.138 351.97L429.528 348.726C429.504 348.695 429.47 348.678 429.436 348.678C429.401 348.678 429.368 348.695 429.343 348.726L426.725 351.97C426.688 352.016 426.677 352.086 426.697 352.147Z" fill="#1E2248"/>
<path d="M433.432 352.147C433.452 352.207 433.5 352.247 433.553 352.247L435.44 352.247L435.44 357.984C435.44 358.073 435.461 358.146 435.57 358.146L436.757 358.146C436.83 358.146 436.888 358.073 436.888 357.984L436.888 352.247L438.78 352.247C438.833 352.247 438.881 352.207 438.901 352.147C438.921 352.086 438.91 352.017 438.873 351.97L436.263 348.726C436.238 348.695 436.205 348.678 436.17 348.678C436.136 348.678 436.102 348.695 436.078 348.726L433.46 351.97C433.423 352.016 433.412 352.086 433.432 352.147Z" fill="#1E2248"/>
<defs>
<linearGradient id="paint0_linear_1129_280" x1="196.179" y1="402.357" x2="196.099" y2="587.119" gradientUnits="userSpaceOnUse">
<stop offset="0.153781" stop-color="#E24000"/>
<stop offset="0.763326" stop-color="#E24000" stop-opacity="0"/>
</linearGradient>
<linearGradient id="paint1_linear_1129_280" x1="103.556" y1="432.881" x2="103.556" y2="590.465" gradientUnits="userSpaceOnUse">
<stop stop-color="#E24000"/>
<stop offset="1" stop-color="#E24000" stop-opacity="0"/>
</linearGradient>
<linearGradient id="paint2_linear_1129_280" x1="57.245" y1="510.767" x2="57.245" y2="632.86" gradientUnits="userSpaceOnUse">
<stop stop-color="#E24000"/>
<stop offset="1" stop-color="#E24000" stop-opacity="0"/>
</linearGradient>
<linearGradient id="paint3_linear_1129_280" x1="10.934" y1="545.501" x2="10.934" y2="638.123" gradientUnits="userSpaceOnUse">
<stop stop-color="#E24000"/>
<stop offset="1" stop-color="#E24000" stop-opacity="0"/>
</linearGradient>
<linearGradient id="paint4_linear_1129_280" x1="242.49" y1="343.416" x2="242.49" y2="685.265" gradientUnits="userSpaceOnUse">
<stop offset="0.0806152" stop-color="#E24000"/>
<stop offset="0.313153" stop-color="#E24000" stop-opacity="0.511475"/>
<stop offset="1" stop-color="#E24000" stop-opacity="0"/>
</linearGradient>
<linearGradient id="paint5_linear_1129_280" x1="149.868" y1="348.678" x2="150.034" y2="654.234" gradientUnits="userSpaceOnUse">
<stop offset="0.0949427" stop-color="#E24000"/>
<stop offset="0.883698" stop-color="#E24000" stop-opacity="0"/>
</linearGradient>
<linearGradient id="paint6_linear_1129_280" x1="288.801" y1="258.161" x2="289.525" y2="630.491" gradientUnits="userSpaceOnUse">
<stop offset="0.198725" stop-color="#E24000"/>
<stop offset="0.692672" stop-color="#E24000" stop-opacity="0"/>
</linearGradient>
<linearGradient id="paint7_linear_1129_280" x1="335.112" y1="204.257" x2="335.139" y2="636.501" gradientUnits="userSpaceOnUse">
<stop offset="0.265419" stop-color="#E24000"/>
<stop offset="0.711185" stop-color="#E24000" stop-opacity="0"/>
</linearGradient>
<linearGradient id="paint8_linear_1129_280" x1="381.423" y1="180.173" x2="381.423" y2="643.285" gradientUnits="userSpaceOnUse">
<stop offset="0.136364" stop-color="#E24000"/>
<stop offset="1" stop-color="#E24000" stop-opacity="0"/>
</linearGradient>
<linearGradient id="paint9_linear_1129_280" x1="426.682" y1="107.92" x2="428.385" y2="669.842" gradientUnits="userSpaceOnUse">
<stop stop-color="#E24000"/>
<stop offset="1" stop-color="#E24000" stop-opacity="0"/>
</linearGradient>
<linearGradient id="paint10_linear_1129_280" x1="471.94" y1="37.5937" x2="471.94" y2="726.998" gradientUnits="userSpaceOnUse">
<stop stop-color="#E24000"/>
<stop offset="1" stop-color="#E24000" stop-opacity="0"/>
</linearGradient>
<linearGradient id="paint11_linear_1129_280" x1="517.5" y1="0" x2="517.5" y2="708" gradientUnits="userSpaceOnUse">
<stop stop-color="#E24000"/>
<stop offset="1" stop-color="#E24000" stop-opacity="0"/>
</linearGradient>
</defs>
</svg>
