<svg width="492" height="478" viewBox="0 0 492 478" fill="none" xmlns="http://www.w3.org/2000/svg">
<g opacity="0.9">
<path d="M119.502 0.594482H93.6641V478H119.502V0.594482Z" fill="url(#paint0_linear_1129_279)"/>
<path d="M25.8381 370.901H0V477.999H25.8381V370.901Z" fill="url(#paint1_linear_1129_279)"/>
<path d="M169.026 78.6487H143.188V477.999H169.026V78.6487Z" fill="url(#paint2_linear_1129_279)"/>
<path d="M72.131 109.508H46.293V478H72.131V109.508Z" fill="url(#paint3_linear_1129_279)"/>
<path d="M220.701 147.627H194.863V477.999H220.701V147.627Z" fill="url(#paint4_linear_1129_279)"/>
<path d="M265.914 78.6487H241.152V477.999H265.914V78.6487Z" fill="url(#paint5_linear_1129_279)"/>
<path d="M311.133 145.813H286.371V478H311.133V145.813Z" fill="url(#paint6_linear_1129_279)"/>
<path d="M356.351 251.096H331.59V477.999H356.351V251.096Z" fill="url(#paint7_linear_1129_279)"/>
<path d="M401.566 285.585H376.805V477.999H401.566V285.585Z" fill="url(#paint8_linear_1129_279)"/>
<path d="M446.785 316.444H422.023V478H446.785V316.444Z" fill="url(#paint9_linear_1129_279)"/>
<path d="M492 383.607H467.238V477.999H492V383.607Z" fill="url(#paint10_linear_1129_279)"/>
</g>
<rect width="35" height="26.524" transform="matrix(-1 0 0 1 115 424.33)" fill="#3D437C"/>
<path d="M120 417.012H85.2875L80.2568 424.787H114.969L120 417.012Z" fill="#3D437C"/>
<path d="M110.531 417.66H76.0016L80.5055 424.787H115.035L110.531 417.66Z" fill="#1E2248"/>
<rect width="32" height="24.6948" transform="matrix(-1 0 0 1 334 394.146)" fill="#3D437C"/>
<rect width="32" height="24.6948" transform="matrix(-1 0 0 1 161 349.331)" fill="#3D437C"/>
<rect width="32" height="23.7802" transform="matrix(-1 0 0 1 458 461.829)" fill="#3D437C"/>
<rect width="32" height="32.9264" transform="matrix(-1 0 0 1 329 452.682)" fill="#3D437C"/>
<rect width="32" height="32.9264" transform="matrix(-1 0 0 1 415 452.682)" fill="#3D437C"/>
<rect width="32" height="32.0118" transform="matrix(-1 0 0 1 329 419.756)" fill="#3D437C"/>
<rect width="9.73668" height="2.78835" transform="matrix(-4.79853e-08 1 1 3.98182e-08 311.406 419.574)" fill="#1E2248"/>
<path d="M317.918 477.962C317.93 477.997 317.959 478.02 317.991 478.02L319.139 478.02L319.139 481.355C319.139 481.407 319.152 481.449 319.218 481.449L319.94 481.449C319.984 481.449 320.02 481.407 320.02 481.355L320.02 478.02L321.17 478.02C321.203 478.02 321.232 477.997 321.244 477.962C321.256 477.927 321.25 477.887 321.227 477.86L319.639 475.974C319.624 475.956 319.604 475.946 319.583 475.946C319.562 475.946 319.542 475.956 319.527 475.973L317.935 477.859C317.912 477.886 317.905 477.927 317.918 477.962Z" fill="#1E2248"/>
<path d="M322.015 477.962C322.028 477.997 322.057 478.02 322.089 478.02L323.236 478.02L323.236 481.355C323.236 481.407 323.249 481.449 323.316 481.449L324.038 481.449C324.082 481.449 324.117 481.407 324.117 481.355L324.117 478.02L325.268 478.02C325.3 478.02 325.329 477.997 325.342 477.962C325.354 477.927 325.347 477.887 325.324 477.86L323.737 475.974C323.722 475.956 323.702 475.946 323.681 475.946C323.66 475.946 323.639 475.956 323.624 475.973L322.032 477.859C322.01 477.886 322.003 477.927 322.015 477.962Z" fill="#1E2248"/>
<path d="M403.918 477.962C403.93 477.997 403.959 478.02 403.991 478.02L405.139 478.02L405.139 481.355C405.139 481.407 405.152 481.449 405.218 481.449L405.94 481.449C405.984 481.449 406.02 481.407 406.02 481.355L406.02 478.02L407.17 478.02C407.203 478.02 407.232 477.997 407.244 477.962C407.256 477.927 407.25 477.887 407.227 477.86L405.639 475.974C405.624 475.956 405.604 475.946 405.583 475.946C405.562 475.946 405.542 475.956 405.527 475.973L403.935 477.859C403.912 477.886 403.905 477.927 403.918 477.962Z" fill="#1E2248"/>
<path d="M408.015 477.962C408.028 477.997 408.057 478.02 408.089 478.02L409.236 478.02L409.236 481.355C409.236 481.407 409.249 481.449 409.316 481.449L410.038 481.449C410.082 481.449 410.117 481.407 410.117 481.355L410.117 478.02L411.268 478.02C411.3 478.02 411.329 477.997 411.342 477.962C411.354 477.927 411.347 477.887 411.324 477.86L409.737 475.974C409.722 475.956 409.702 475.946 409.681 475.946C409.66 475.946 409.639 475.956 409.624 475.973L408.032 477.859C408.01 477.886 408.003 477.927 408.015 477.962Z" fill="#1E2248"/>
<rect width="32" height="32.9264" transform="matrix(-1 0 0 1 372 427.988)" fill="#3D437C"/>
<rect width="32.066" height="23.8027" transform="matrix(-1 0 0 1 372.066 461.783)" fill="#3D437C"/>
<rect width="7.22581" height="2.78835" transform="matrix(-6.52171e-08 1 1 2.92973e-08 354.41 461.783)" fill="#1E2248"/>
<path d="M360.921 453.016C360.934 453.052 360.963 453.075 360.995 453.075L362.142 453.075L362.142 456.409C362.142 456.461 362.156 456.503 362.222 456.503L362.944 456.503C362.988 456.503 363.024 456.461 363.024 456.409L363.024 453.075L364.174 453.075C364.206 453.075 364.235 453.052 364.248 453.016C364.26 452.981 364.253 452.941 364.231 452.914L362.643 451.028C362.628 451.01 362.608 451 362.587 451C362.566 451 362.546 451.01 362.531 451.028L360.939 452.914C360.916 452.941 360.909 452.981 360.921 453.016Z" fill="#1E2248"/>
<path d="M365.015 453.016C365.028 453.052 365.057 453.075 365.089 453.075L366.236 453.075L366.236 456.409C366.236 456.461 366.249 456.503 366.316 456.503L367.038 456.503C367.082 456.503 367.117 456.461 367.117 456.409L367.117 453.075L368.268 453.075C368.3 453.075 368.329 453.052 368.342 453.016C368.354 452.981 368.347 452.941 368.324 452.914L366.737 451.028C366.722 451.01 366.702 451 366.681 451C366.66 451 366.639 451.01 366.624 451.028L365.032 452.914C365.01 452.941 365.003 452.981 365.015 453.016Z" fill="#1E2248"/>
<rect x="360.914" y="456.926" width="7.4356" height="0.846668" fill="#1E2248"/>
<rect width="41" height="50.3042" transform="matrix(-1 0 0 1 280.77 406.892)" fill="#3D437C"/>
<path d="M255.024 433.639C255.063 433.732 255.156 433.792 255.259 433.792L258.934 433.792L258.934 439.849C258.934 439.986 258.975 440.097 259.189 440.097L261.5 440.097C261.641 440.097 261.755 439.986 261.755 439.849L261.755 433.792L265.441 433.792C265.543 433.792 265.636 433.732 265.676 433.639C265.715 433.547 265.694 433.44 265.621 433.369L260.538 428.409C260.49 428.362 260.425 428.336 260.357 428.336C260.289 428.336 260.225 428.362 260.177 428.408L255.079 433.369C255.006 433.44 254.984 433.546 255.024 433.639Z" fill="#1E2248"/>
<rect width="38" height="28.3533" transform="matrix(-1 0 0 1 284 377.684)" fill="#3D437C"/>
<rect width="15.3795" height="3.95651" transform="matrix(-4.38212e-08 1 1 4.36018e-08 262.727 377.684)" fill="#1E2248"/>
<path d="M283.5 377.684H245.184L238 384.016H276.316L283.5 377.684Z" fill="#3E447B"/>
<rect width="21" height="34.7556" transform="matrix(-1 0 0 1 200 405.122)" fill="#3D437C"/>
<rect width="21" height="34.7556" transform="matrix(-1 0 0 1 224 405.122)" fill="#3D437C"/>
<rect width="49" height="27.4387" transform="matrix(-1 0 0 1 284 458.17)" fill="#3D437C"/>
<rect width="45" height="44.8165" transform="matrix(-1 0 0 1 224 440.792)" fill="#3D437C"/>
<rect width="13.7193" height="4" transform="matrix(-4.36254e-08 1 1 4.37976e-08 199 440.792)" fill="#1E2248"/>
<line x1="179" y1="402.708" x2="223.511" y2="402.708" stroke="#3D437C" stroke-width="3"/>
<line y1="-1.5" x2="42.5406" y2="-1.5" transform="matrix(0.999994 -0.00350635 0.00419152 0.999991 179 400.548)" stroke="#3D437C" stroke-width="3"/>
<line y1="-1.5" x2="43.5959" y2="-1.5" transform="matrix(0.999997 -0.00227927 0.00272466 0.999996 180 396.891)" stroke="#3D437C" stroke-width="3"/>
<line y1="-1.5" x2="43.5216" y2="-1.5" transform="matrix(0.999999 -0.00114415 0.00136772 0.999999 176 393.232)" stroke="#3D437C" stroke-width="3"/>
<line x1="187" y1="388.074" x2="230" y2="388.074" stroke="#3D437C" stroke-width="3"/>
<path d="M72.2656 462.879H45.0482V485.608H72.2656V462.879Z" fill="#3D437C"/>
<rect width="16.3404" height="13.0244" transform="matrix(-1 0 0 1 72.2656 449.309)" fill="#3D437C"/>
<rect width="44" height="10.0608" transform="matrix(-1 0 0 1 169 461.829)" fill="#3D437C"/>
<rect width="46" height="12.8047" transform="matrix(-1 0 0 1 170 472.804)" fill="#3D437C"/>
<rect width="44.7252" height="44.8749" transform="matrix(-1 0 0 1 225.727 341.099)" fill="#3D437C"/>
<rect width="44.7252" height="44.8749" transform="matrix(-1 0 0 1 169.73 374.939)" fill="#3D437C"/>
<rect width="42" height="33.841" transform="matrix(-1 0 0 1 118 451.768)" fill="#3D437C"/>
<path d="M187.008 349.398C187.026 349.448 187.066 349.48 187.111 349.48L188.711 349.48L188.711 354.131C188.711 354.203 188.729 354.262 188.822 354.262L189.829 354.262C189.89 354.262 189.94 354.203 189.94 354.131L189.94 349.48L191.545 349.48C191.59 349.48 191.631 349.448 191.648 349.399C191.665 349.35 191.656 349.293 191.624 349.255L189.41 346.625C189.389 346.6 189.361 346.586 189.331 346.586C189.302 346.586 189.274 346.6 189.253 346.625L187.032 349.255C187 349.293 186.991 349.349 187.008 349.398Z" fill="#313668"/>
<path d="M192.723 349.398C192.74 349.448 192.781 349.48 192.826 349.48L194.426 349.48L194.426 354.131C194.426 354.203 194.444 354.262 194.537 354.262L195.544 354.262C195.605 354.262 195.655 354.203 195.655 354.131L195.655 349.48L197.26 349.48C197.305 349.48 197.345 349.448 197.363 349.399C197.38 349.35 197.37 349.293 197.339 349.255L195.125 346.625C195.104 346.6 195.076 346.586 195.046 346.586C195.017 346.586 194.988 346.6 194.968 346.625L192.747 349.255C192.715 349.293 192.706 349.349 192.723 349.398Z" fill="#313668"/>
<rect x="187" y="354.853" width="10.3711" height="1.18092" fill="#313668"/>
<path d="M154.176 409.637C154.194 409.686 154.234 409.718 154.279 409.718L155.879 409.718L155.879 414.369C155.879 414.442 155.897 414.5 155.99 414.5L156.997 414.5C157.058 414.5 157.108 414.442 157.108 414.369L157.108 409.718L158.713 409.718C158.758 409.718 158.798 409.686 158.816 409.637C158.833 409.588 158.824 409.531 158.792 409.494L156.578 406.863C156.557 406.838 156.529 406.825 156.499 406.825C156.47 406.825 156.442 406.838 156.421 406.863L154.2 409.493C154.168 409.531 154.159 409.588 154.176 409.637Z" fill="#313668"/>
<path d="M159.891 409.637C159.908 409.686 159.949 409.718 159.994 409.718L161.594 409.718L161.594 414.369C161.594 414.442 161.612 414.5 161.705 414.5L162.712 414.5C162.773 414.5 162.823 414.442 162.823 414.369L162.823 409.718L164.428 409.718C164.473 409.718 164.513 409.686 164.531 409.637C164.548 409.588 164.538 409.531 164.507 409.494L162.293 406.863C162.272 406.838 162.244 406.825 162.214 406.825C162.185 406.825 162.156 406.838 162.135 406.863L159.915 409.493C159.883 409.531 159.874 409.588 159.891 409.637Z" fill="#313668"/>
<rect x="154.168" y="415.091" width="10.3711" height="1.18092" fill="#313668"/>
<line y1="-1" x2="38.593" y2="-1" transform="matrix(0.213622 -0.976916 0.983678 0.179939 38.9219 484.582)" stroke="#3D437C" stroke-width="2"/>
<line y1="-1" x2="32.3626" y2="-1" transform="matrix(0.304711 -0.952445 0.966004 0.258529 33.6875 485.198)" stroke="#3D437C" stroke-width="2"/>
<line y1="-1" x2="22.5011" y2="-1" transform="matrix(0.426173 -0.904642 0.930361 0.366644 28 484.628)" stroke="#3D437C" stroke-width="2"/>
<rect width="49" height="33.841" transform="matrix(-1 0 0 1 171 427.073)" fill="#3D437C"/>
<rect width="53.4128" height="6.33274" transform="matrix(-1 0 0 1 173.414 420.67)" fill="#1E2248"/>
<rect width="19.7825" height="4.52338" transform="matrix(-1 0 0 1 156.598 434.24)" fill="#1E2248"/>
<rect width="49" height="38.4141" transform="matrix(-1 0 0 1 228 301.771)" fill="#3D437C"/>
<defs>
<linearGradient id="paint0_linear_1129_279" x1="106.583" y1="0.594482" x2="106.583" y2="478" gradientUnits="userSpaceOnUse">
<stop offset="0.322917" stop-color="#E24000"/>
<stop offset="1" stop-color="#E24000" stop-opacity="0"/>
</linearGradient>
<linearGradient id="paint1_linear_1129_279" x1="12.919" y1="370.901" x2="12.919" y2="477.999" gradientUnits="userSpaceOnUse">
<stop stop-color="#E24000"/>
<stop offset="1" stop-color="#E24000" stop-opacity="0"/>
</linearGradient>
<linearGradient id="paint2_linear_1129_279" x1="156.107" y1="78.6487" x2="156" y2="402" gradientUnits="userSpaceOnUse">
<stop offset="0.322917" stop-color="#E24000"/>
<stop offset="1" stop-color="#E24000" stop-opacity="0"/>
</linearGradient>
<linearGradient id="paint3_linear_1129_279" x1="59.212" y1="109.508" x2="59.212" y2="478" gradientUnits="userSpaceOnUse">
<stop offset="0.322917" stop-color="#E24000"/>
<stop offset="1" stop-color="#E24000" stop-opacity="0"/>
</linearGradient>
<linearGradient id="paint4_linear_1129_279" x1="207.782" y1="147.627" x2="208" y2="407" gradientUnits="userSpaceOnUse">
<stop offset="0.322917" stop-color="#E24000"/>
<stop offset="1" stop-color="#E24000" stop-opacity="0"/>
</linearGradient>
<linearGradient id="paint5_linear_1129_279" x1="253.533" y1="78.6487" x2="253.533" y2="477.999" gradientUnits="userSpaceOnUse">
<stop offset="0.322917" stop-color="#E24000"/>
<stop offset="1" stop-color="#E24000" stop-opacity="0"/>
</linearGradient>
<linearGradient id="paint6_linear_1129_279" x1="298.752" y1="145.813" x2="298.752" y2="478" gradientUnits="userSpaceOnUse">
<stop offset="0.322917" stop-color="#E24000"/>
<stop offset="1" stop-color="#E24000" stop-opacity="0"/>
</linearGradient>
<linearGradient id="paint7_linear_1129_279" x1="343.971" y1="251.096" x2="343.971" y2="477.999" gradientUnits="userSpaceOnUse">
<stop offset="0.322917" stop-color="#E24000"/>
<stop offset="1" stop-color="#E24000" stop-opacity="0"/>
</linearGradient>
<linearGradient id="paint8_linear_1129_279" x1="389.185" y1="285.585" x2="389.185" y2="477.999" gradientUnits="userSpaceOnUse">
<stop offset="0.322917" stop-color="#E24000"/>
<stop offset="1" stop-color="#E24000" stop-opacity="0"/>
</linearGradient>
<linearGradient id="paint9_linear_1129_279" x1="434.404" y1="316.444" x2="434.404" y2="478" gradientUnits="userSpaceOnUse">
<stop offset="0.322917" stop-color="#E24000"/>
<stop offset="1" stop-color="#E24000" stop-opacity="0"/>
</linearGradient>
<linearGradient id="paint10_linear_1129_279" x1="479.619" y1="383.607" x2="479.619" y2="477.999" gradientUnits="userSpaceOnUse">
<stop offset="0.322917" stop-color="#E24000"/>
<stop offset="1" stop-color="#E24000" stop-opacity="0"/>
</linearGradient>
</defs>
</svg>
