<?xml version="1.0" encoding="UTF-8"?>
<svg width="491px" height="301px" viewBox="0 0 491 301" version="1.1" xmlns="http://www.w3.org/2000/svg" xmlns:xlink="http://www.w3.org/1999/xlink">
    <!-- Generator: Sketch 61.2 (89653) - https://sketch.com -->
    <title>map-circles</title>
    <desc>Created with Sketch.</desc>
    <g id="Page-1" stroke="none" stroke-width="1" fill="none" fill-rule="evenodd">
        <g id="map-circles" transform="translate(1.000000, 1.000000)">
            <g id="US-map" stroke-linejoin="round" stroke="#AAACC7" stroke-width="1.22299529">
                <path d="M474.55072,74.9478491 L474.376813,74.843558 L474.376813,75 L474.55072,74.947833 L474.55072,74.9478491 Z M472.811592,73.539876 L473.217388,73.383434 L473.217388,73.1748464 L472.811592,73.539876 Z M480,69.4723935 L479.942007,68.7423288 L479.826069,68.3251536 L479.999982,69.4723935 L480,69.4723935 Z M454.666662,64.1012291 L454.260866,64.2576712 L450.956516,65.1441725 L449.797098,65.5092022 L448.463765,65.8742318 L448,66.0306739 L448,66.1871159 L448.173907,68.8987709 L448.347821,71.4018383 L448.521734,73.6963181 L448.811592,73.8527601 L449.855073,73.5920216 L454.550723,72.3404906 L454.666662,72.6012237 L463.014489,69.7331267 L463.072482,69.8374232 L463.826104,69.5766846 L466.492769,68.6380377 L469.043496,71.4018383 L469.043496,71.4018383 L469.391322,71.1411051 L469.565236,70.3588949 L469.507243,71.6104313 L469.507243,71.6104313 L470.086952,71.6104313 L470.260866,72.2361941 L470.782606,73.1227008 L470.782606,73.1227008 L473.507246,70.1503073 L475.768114,70.828221 L476.289855,69.7852776 L480,68.0122695 L478.434779,65.2484636 L478.840581,67.0214717 L476.927533,68.3251536 L474.782609,68.4815957 L470.492754,64.3619623 L468.579706,61.7546038 L470.492754,59.9294501 L468.521737,59.8251536 L467.710145,58.1042965 L467.652152,58 L464.347809,61.2331267 L457.043457,63.4233154 L454.666644,64.1012291 L454.666644,64.1012291 L454.666662,64.1012291 Z" id="MA"></path>
                <polygon id="MN" points="239.000024 30.1833602 240.156739 34.1405496 242.585843 48.4087244 243.742558 54.0937012 244.089574 59.1098559 245.419802 62.1195499 245.708978 64.6833605 245.94032 65.5193882 245.882462 65.6865938 243.569032 69.3651041 245.072763 71.8174482 247.96455 91.4361894 248.080224 94 250.972012 93.8327945 262.365672 93.2197113 290.820895 90.9345728 293.654854 90.655895 293.654854 90.3772229 292.845149 86.0856236 289.317164 84.357835 286.541044 81.5710855 282.145526 79.0072692 280.757463 78.8958027 278.617541 77.3352195 279.195898 69.6437819 277.171644 67.86026 277.865675 64.7390938 281.567168 61.506461 280.930971 54.8182567 282.261194 53.3691458 282.261194 53.3691458 286.772392 48.7988687 291.919776 42.4450726 293.886196 41.1074317 297.356347 39.4911148 301 36.8715669 298.570896 37.3174474 297.124999 36.2584814 291.57276 36.9830374 290.705227 35.9798065 285.731345 37.9305334 281.74067 36.3142164 280.641795 35.03231 277.46082 35.2552505 275.320898 34.1962846 276.014929 33.4159936 273.296643 32.5799676 270.867539 32.5799676 266.992539 34.1962846 266.240673 33.0815831 260.110076 32.2455571 258.027988 27.2294024 257.79664 25.7245554 255.136194 25 255.367536 29.2915993 248.311566 29.7932147 239.578358 30.1276252 239 30.1833585"></polygon>
                <polygon id="MT" points="184.921657 28.6203655 166.137327 27.3853506 152.460518 26.0941994 138.840458 24.5223621 130.384669 23.3996217 116.878111 21.3225513 110.124832 20.1998109 95.029267 17.3368223 93.440258 17 91 28.4519547 92.078255 30.5290246 92.929511 33.7288354 92.418757 34.1779317 93.497012 37.0970572 94.972518 38.3320721 99.172036 45.2930652 99.569287 46.4719396 101.271792 46.3596692 99.285533 55.5661413 98.491032 55.790688 97.412776 58.8782238 103.031052 59.2711819 103.485057 61.8534891 106.663068 69.5442639 107.230569 69.9933572 109.443828 74.48432 110.01133 74.0352266 114.721601 73.9790682 120.680378 74.5965788 122.155884 72.6879175 123.915144 75.8315885 124.255646 76 124.312418 75.6631829 125.106919 70.1617514 144.515505 72.5195061 160.008322 73.9790682 168.180358 74.6527141 182.76517 75.4947714 183.502923 75.5509298 183.673174 75.5509298 183.729946 74.7650134 183.900197 70.8915556 184.127197 65.783088 184.183969 64.4919315 184.297471 62.246453 185.205475 44.6194251 185.943228 30.9219896 186 28.6765083 184.921745 28.6203731"></polygon>
                <polygon id="ND" points="237.97984 29.4539842 220.801859 29.7944751 208.800023 29.7377285 198.504613 29.5107343 186.445898 29.0567466 185.820207 29 185.763305 31.2699386 185.023855 45.1165652 184.113764 62.9355822 184 65.2055178 186.218348 65.319017 211.302754 66 234.453213 65.8297542 244.066059 65.5460094 246 65.4325161 245.772479 64.5812873 245.488078 61.9708602 244.179816 58.9064424 243.838531 53.7990813 242.700918 48.0107373 240.311928 33.4831287 239.174314 29.4539877 237.979816 29.4539877"></polygon>
                <polygon id="ID" points="93.391411 17.5584735 88.220156 16.5565976 86.535141 16.1669791 85.77979 16 79.03973 45.0544047 79.330252 47.4477727 79.097832 49.9524624 79.214042 50.5090594 79.214042 50.5647404 79.272168 51.6222708 81.247706 53.6816851 78.400613 60.5278353 72.357796 68.097568 72.183483 69.4890636 73.752294 73.0512894 68.232414 94.9812413 68 96.1500934 69.626907 96.4840528 86.070336 99.6009976 92.636084 100.769855 94.321099 101.048157 95.948012 101.326452 104.314985 102.606626 119.305808 104.777357 120.990823 105 121.223237 103.163223 121.746174 99.5453396 123.721712 85.0737986 124.767586 77.893689 125 76.0569124 124.651375 75.8899327 122.85015 72.772988 121.339447 74.6654226 115.238529 74.0531618 110.415898 74.1088427 109.834859 74.5541181 107.568805 70.1013358 106.987766 69.6560605 103.733946 62.0306697 103.269111 59.4703164 97.516817 59.080699 98.620793 56.0194122 99.434246 55.7967746 101.467886 46.6685724 99.724769 46.7798883 99.318042 45.6110362 95.018348 38.7092228 93.507646 37.4847076 92.40367 34.5903994 92.926607 34.1451211 92.055045 30.9725139 90.951069 28.9131024 93.449538 17.5585079 93.391411 17.5585079"></polygon>
                <path d="M24.151735,30.9679186 L24.209344,30.0246387 L24.094174,30.080124 L24.151783,30.9679186 L24.151735,30.9679186 Z M36.417735,25.9185983 L36.763251,25.3637262 L36.360144,25.3082409 L36.417753,25.9185983 L36.417735,25.9185983 Z M35.323585,24.9198297 L35.669101,23.8100888 L35.323585,23.6991143 L35.323585,24.9198297 L35.323585,24.9198297 Z M39.52742,23.3107048 L39.469811,22.200964 L38.490836,23.6436273 L39.527396,23.3107048 L39.52742,23.3107048 Z M39.642595,20.9802486 L39.815356,19.8705077 L39.70018,19.5930722 L39.642572,20.9802486 L39.642595,20.9802486 Z M39.815356,15.5425193 L39.757748,14.9321596 L39.527396,14.8766744 L39.815333,15.5425193 L39.815356,15.5425193 Z M41.658135,11.880372 L41.139853,11.8248867 L40.103293,13.378524 L41.658135,11.8803737 L41.658135,11.880372 Z M40.218463,10.3822211 L40.5064,10.1602731 L40.564009,9.99381217 L40.218487,10.3822211 L40.218463,10.3822211 Z M39.930532,10.5486826 L39.757771,9.43894116 L39.239489,10.3822211 L39.930532,10.5486826 Z M39.642595,8.9950447 L39.124313,8.77309676 L39.52742,9.32796719 L39.642595,8.9950447 L39.642595,8.9950447 Z M41.370199,9.93832518 L41.370199,9.21699322 L41.197438,9.49442872 L41.370199,9.93832518 Z M41.888481,9.21699322 L41.658135,9.05053226 L41.600527,9.05053226 L41.888457,9.21699322 L41.888481,9.21699322 Z M38.60603,7.99627781 L38.318099,7.77432987 L38.202923,7.7188446 L38.60603,7.99627953 L38.60603,7.99627781 Z M40.736746,7.77432987 L39.181904,8.16273934 L39.585011,8.27371331 L40.736746,7.77432987 Z M39.469835,7.66335589 L39.181904,7.33043341 L39.124295,7.38591868 L39.469817,7.66335418 L39.469835,7.66335589 Z M40.679161,6.99751092 L40.448809,6.99751092 L40.736746,7.10848489 L40.679137,6.99751092 L40.679161,6.99751092 Z M29.392135,35.4623702 L31.465266,37.626365 L31.119744,41.7878941 L31.522851,42.8421485 L34.632541,44.4512728 L43.385738,45.2280895 L43.73126,46.2268587 L47.877516,46.2823668 L51.79342,46.7817514 L58.185555,46.1159053 L61.352836,46.6152898 L62.216635,46.2268815 L78.398538,49.7780532 L79.492689,50 L79.377513,49.4451301 L79.607865,46.9482129 L79.319928,44.5622719 L86,15.5980275 L85.078611,15.431566 L71.60329,12.3797783 L59.855579,9.49445159 L46.553014,5.94327991 L42.579525,5 L43.500914,9.8273735 L42.63711,11.3810114 L41.082268,10.6041925 L42.579525,17.3181258 L40.967092,19.5376081 L40.218463,21.5906294 L40.218463,23.6991372 L36.820842,25.9741065 L35.38117,25.0863135 L33.999083,25.7521585 L36.532905,22.5893963 L35.899453,24.7533916 L37.339125,23.2552407 L38.49086,23.4771892 L38.145338,20.7028365 L38.893967,20.8138105 L40.448809,17.4845873 L39.930532,16.9852039 L37.914992,19.4821211 L36.59049,19.5376064 L38.030162,17.983969 L39.642595,17.5955596 L39.066728,14.7657198 L37.454295,14.3773104 L36.648081,13.045621 L35.669101,13.5450044 L30.371116,11.3255227 L25.706583,7.829838 L24.439672,11.2145482 L24.324496,12.6572115 L25.303471,15.2096163 L24.670018,23.4771875 L24.20932,24.7533899 L26.800728,24.9753378 L24.20932,26.7509237 L25.591408,27.4167681 L24.497257,30.9679398 L23.978974,28.193587 L23,31.4118362 L24.324496,32.9654736 L25.764168,32.8544996 L27.491771,33.8532665 L28.355576,35.4623914 L29.392135,35.4623914 L29.392135,35.4623914 L29.392135,35.4623702 Z" id="WA"></path>
                <polygon id="AZ" points="130.513654 166.287485 111.247774 163.950546 100.900222 162.503864 86.150679 160.22257 84.664291 160 84.664291 160.111285 82.148863 170.905723 80.833982 170.850061 78.833074 169.125181 76.317646 171.18391 76.260455 180.030898 75.345755 181.922703 75.345755 182.089628 75.345755 182.14529 75.231415 183.536321 77.232323 188.766619 79.004557 191.103558 75.803102 192.939723 74.545388 195.221022 72.487313 200.117465 71.458279 200.340035 71.401088 204.401854 73.173322 205.681611 72.258622 208.12983 70.200547 208.241115 70.200547 208.241115 69 210.411129 73.116156 212.914993 80.891107 217.143742 104.901996 229.551776 125.254083 232 125.482756 232 127.083484 215.585781 127.483664 211.523956 131.771326 168.457499 132 166.454409 130.513612 166.287485"></polygon>
                <path d="M32.740796,196.86652 L32.968954,198.097358 L32.968954,198.321145 L32.740796,196.86652 Z M24.355957,192.055065 L24.755234,192.894274 L24.983392,192.838306 L24.355957,192.055048 L24.355957,192.055065 Z M34.337904,191.887224 L34.509024,193.341849 L35.535741,194.069161 L34.337904,191.887224 Z M27.436103,183.942732 L26.808663,183.77489 L27.322021,183.998677 L27.436103,183.942709 L27.436103,183.942732 Z M21.104692,182.264314 L19.564622,183.159468 L19.963899,183.551103 L21.104692,182.264314 L21.104692,182.264314 Z M18.138628,181.201318 L18.024547,181.648898 L18.537905,181.760795 L18.138628,181.201318 L18.138628,181.201318 Z M23.158121,182.320265 L25.66787,183.718945 L26.124191,183.32731 L23.158121,182.320265 Z M9.8108272,133.310569 L9.7537659,133.142727 L9.7537659,133.36652 L9.8108272,133.310552 L9.8108272,133.310569 Z M42.722743,90.8466966 L40.498195,90.2872202 L16.0852,83.6854627 L7.0158829,81 L7.0158829,81.2237871 L6.5025243,86.7625543 L4.1068568,93.3083665 L0.1140758,98.1757666 L0,100.637442 L1.9393468,104.050217 L2.909026,108.525989 L1.5400698,112.162551 L1.7682272,115.799119 L1.083755,117.309689 L3.4223787,122.288986 L4.9054107,124.191191 L4.7913349,129.618061 L8.3277953,132.91894 L10.3812237,129.562116 L12.6057775,131.296474 L13.4613692,130.513216 L10.3812237,131.072686 L10.3241623,133.925991 L10.9516025,137.506608 L9.2404073,135.884141 L8.2707339,133.702204 L7.9855327,136.723344 L8.7840925,142.709692 L11.9783138,146.570041 L9.8678475,149.255504 L10.2100807,152.668279 L12.4916724,156.137005 L16.4844534,166.878856 L17.739328,167.550217 L17.340045,174.99119 L17.967485,175.886344 L26.523444,178.90749 L29.147269,181.648898 L30.059904,183.439207 L32.569653,184.837886 L35.30756,185.341412 L36.448353,188.418503 L38.729939,189.481499 L42.152323,193.453745 L45.34655,198.656829 L45.118387,203.468283 L46.88662,205.762112 L70.215866,208 L70.215866,208 L72.269295,207.888104 L73.18193,205.426434 L71.413697,204.139645 L71.470759,200.055508 L72.49747,199.831715 L74.550898,194.90837 L75.805773,192.614536 L79,190.768282 L77.231767,188.418503 L75.235376,183.159468 L75.349458,181.760795 L75.349458,181.704826 L73.866426,179.746676 L69.303249,173.760334 L60.462089,161.563859 L48.141512,144.220244 L41.182667,134.765182 L34.45198,125.254164 L42.209379,92.9726656 L42.722737,90.8466794 L42.722743,90.8466966 Z" id="CA"></path>
                <polygon id="CO" points="198.774406 134.873786 199 124.116397 196.292929 124.006626 182.531988 123.512663 181.178449 123.457757 180.050505 123.402852 163.300503 122.360043 152.133836 121.481889 138.203702 120.164654 136.850169 120 136.680977 121.427006 133.635522 150.021902 132.563972 160.010909 132.112797 164.346798 132 165.773798 133.748318 165.938452 162.172558 168.353372 174.692759 169.121761 187.156563 169.670607 188.961277 169.725512 190.089222 169.780418 192.457908 169.835323 193.585858 169.890229 197.138885 170 198.041242 170 198.041242 168.902303 198.661615 139.868326 198.718034 136.630135 198.718034 135.587326 198.774453 134.873826"></polygon>
                <polygon id="NV" points="85.512404 157.225368 91.565842 121.36946 94.650763 103.413789 95 101.640395 93.312023 101.363299 86.734735 100.199503 70.262402 97.0960576 68.632636 96.7635445 67.002863 96.4310314 58.795802 94.7130549 44.069657 91.38793 42.439884 91 41.916028 93.1059065 34 125.082509 40.868322 134.503697 47.969466 143.869457 60.541983 161.049262 69.563933 173.130543 74.220422 179.060344 75.73378 181 75.73378 180.833743 76.665078 178.94951 76.723306 170.137931 79.284377 168.087442 81.321591 169.805418 82.66033 169.860858 85.221401 159.109623 85.221401 158.998784 85.512428 157.225385"></polygon>
                <polygon id="NM" points="188.831787 174.305384 188.887858 172.865788 188.943929 171.426192 189 169.986596 187.206406 169.931206 174.819395 169.377515 162.376336 168.602344 134.127228 166.166108 132.389682 166 132.165484 167.993287 127.961744 210.848973 127.569396 214.890919 126 231.224806 126.224204 231.280196 133.959079 232 134.687726 228.124162 136.088973 227.016775 151.78292 228.401004 151.895022 228.401004 150.493775 225.687919 157.612099 226.186242 175.379893 227.182883 186.477758 227.681206 188.383454 175.744986 188.775802 175.800376 188.831873 174.305407"></polygon>
                <path d="M6.7403418,81.1081102 L15.7950109,83.8324347 L40.168576,90.5297272 L42.389531,91.0972999 L43.984065,91.4945961 L58.391806,94.9000032 L66.421416,96.6594587 L68.01595,97 L68.243739,95.8081113 L73.653762,73.4459487 L72.116174,69.8135161 L72.287017,68.394596 L78.20957,60.6756737 L81,53.6945948 L79.06378,51.5945922 L79.00681,50.5162192 L79.00681,50.4594409 L77.924806,50.2324153 L61.922531,46.5999827 L61.068321,46.9972789 L57.936199,46.486467 L51.61502,47.1675496 L47.742585,46.6567376 L43.642356,46.5999593 L43.300669,45.5783354 L34.644638,44.783743 L31.569467,43.1377973 L31.170835,42.0594185 L31.512522,37.8026618 L29.462404,35.5891486 L29.291567,35.6459036 L28.892929,35.929687 L26.045553,34.4540114 L24.337121,34.9648222 L23.198171,34.3972547 L22.002275,39.2783362 L21.205005,40.6404978 L17.674256,49.2107681 L16.6491973,53.9215795 L16.0227763,53.9783578 L12.7198167,61.8107899 L10.4988617,65.1594362 L9.7015917,65.7270031 L7.6514798,69.699977 L7.2528478,73.8999765 L6,77.6459248 L6.7403183,81.051326 L6.7403183,81.1081043 L6.7403418,81.1081102 Z M27.583159,34.5108108 L27.412315,34 L27.355346,34.3972974 L27.583135,34.5108108 L27.583159,34.5108108 Z" id="OR"></path>
                <polygon id="UT" points="119.021879 105.725451 104.343545 103.556903 96.150984 102.278016 94.557985 102 94.216627 103.779317 91.201313 121.794961 85.284461 157.770629 85 159.549952 86.479212 159.772371 101.157546 162.052124 111.455142 163.497828 130.628008 165.833188 132.10722 166 132.221008 164.554301 132.676147 160.161597 133.75711 150.0417 136.829321 121.072111 137 119.626407 135.862146 119.515203 121.354484 117.791482 119.135667 117.513466 120.557988 106.67072 120.671769 105.947871"></polygon>
                <polygon id="WY" points="181.933316 98.1982949 182.382436 89.5037687 182.943838 77.7995909 183 76.3505033 182.270176 76.2947479 167.842111 75.4587336 159.757903 74.7899221 144.431593 73.3408344 125.231597 71 124.445634 76.4619508 124.389472 76.7963508 124.164912 78.6355823 123.154384 85.8252884 121.245611 100.316171 120.740346 103.93889 120.515787 105.778122 120.40351 106.502666 119 117.370829 121.189472 117.649497 135.50526 119.377258 136.628065 119.488723 137.97543 119.655925 151.842092 120.993548 162.95788 121.885295 179.631561 122.944245 180.754366 123 180.810528 121.550912 181.091232 115.698823 181.596496 105.499471 181.821056 101.152208 181.877218 99.7031207 181.93338 98.1982949"></polygon>
                <polygon id="AR" points="316.942424 176.206105 310.726598 177.101779 313.258973 173.183204 312.165447 171 290.237399 173.071249 271.705037 174.526718 269 174.694658 269.345324 176.262083 271.589927 187.569967 271.647502 190.089049 272.280599 205.315508 272.338175 207.834591 272.510837 207.890591 273.374148 208.786265 276.827379 208.674304 277.172704 213.600508 277.287814 215 279.071988 214.832061 284.539607 214.440204 306.237441 212.480917 306.352545 212.480917 306.294969 211.249365 306.870508 210.857508 305.834541 208.954205 308.021591 199.997464 307.15828 198.989829 310.438855 195.463111 310.208635 192.440216 312.6259 188.521641 312.6259 188.465641 312.510795 188.353685 314.582736 186.506353 314.007197 184.267171 315.618709 181.804066 315.273384 179.5089 317 176.262083 317 176.206082 316.942424 176.206082"></polygon>
                <polygon id="IA" points="300.927845 100.98032 297.721325 99.3131518 295.97231 96.956119 295.389307 93.5642955 295.855713 92.0121006 294.165003 90 294.165003 90 291.30828 90.2874455 262.624501 92.6444783 251.139325 93.2768501 248.22431 93.4493162 247 93.5068266 247.99111 99.8880606 247.174901 102.934958 248.45751 104.832079 248.45751 105.234498 248.865612 105.292008 250.731224 110.695938 252.538537 113.512877 252.65514 116.73224 254.637349 119.434199 254.287546 120.583969 256.09486 127.827534 256.09486 128 256.09486 128 268.046436 127.655068 280.814215 126.562784 293.348794 125.01059 296.205516 127.482602 296.322113 127.597575 296.846818 127.367622 296.438716 125.125569 298.595827 123.803333 299.470334 117.939497 298.595827 117.537078 299.120531 114.547673 301.744048 114.030275 304.659069 111.960688 305.941677 108.338906 306 106.499271 303.667988 104.314704 302.968382 102.934981 300.752967 101.555253 300.86957 101.267813 300.927893 100.980368"></polygon>
                <polygon id="KS" points="268.94371 167.859551 267.535824 143.706773 265.001633 142.222205 264.776373 141.080225 262.749016 139.253065 264.720054 136.79782 263.931641 135.37035 262.467442 135.42747 261.11587 134.456787 260.552717 134 258.637998 134.114194 237.857629 134.91358 228.340331 135.141974 209.418367 135.141974 201.815794 135.027774 199.675809 134.970654 199.675809 136.055531 199.619472 139.424356 199 169.629603 199 170.771583 201.421564 170.828703 214.486727 171 245.065973 170.543207 266.860015 169.515433 269 169.344136 268.943663 167.859569"></polygon>
                <polygon id="MO" points="295.045327 127.421896 292.268516 125 280.084569 126.520726 267.673944 127.590865 256.056691 127.928804 256.056691 127.928804 256 128.266744 257.416733 130.970252 258.720137 131.871415 260.250212 134.574923 260.476889 134.800219 261.043583 135.250801 262.403655 136.208298 263.877062 136.151953 264.670433 137.560031 262.686999 139.981921 264.727107 141.78426 264.953783 142.910725 267.503912 144.375125 268.920651 168.199786 268.977342 169.664186 269.090684 171.128585 269.147375 172.592984 269.260716 174.113705 269.317407 175.57811 271.980877 175.409141 290.228461 173.944741 311.819552 171.860785 312.896273 174.057384 310.402812 178 316.523123 177.098831 316.579814 177.098831 316.579814 176.648249 316.693155 174.057384 317.826544 172.649306 317.486526 171.072264 317.429835 171.015919 317.373144 170.959575 317.599821 170.227375 317.939839 170.340023 318.109848 170.790605 318.053157 170.959575 318.053157 171.015919 318.053157 171.466507 318.279839 171.522851 318.733193 170.959621 318.733193 170.903277 318.789884 170.734307 320.263291 169.833138 320.489973 169.72049 321 165.102001 320.886659 164.876704 320.71665 164.82036 316.693114 161.553622 317.316477 160.370834 316.183087 157.160424 314.142986 155.583376 310.289459 153.89368 307.852666 151.922378 308.136017 147.867113 308.87272 144.093466 304.792511 144.318757 303.545781 143.023327 302.979086 140.432468 296.518763 135.025452 294.705338 130.012697 295.158692 127.53448 295.158692 127.53448 295.045356 127.421838"></polygon>
                <polygon id="NE" points="247.060412 105.719661 245.301076 103.981349 239.115011 102.186958 237.128659 102.130862 234.120753 102.971979 230.545319 100.728994 219.365002 100.84114 203.076919 100.672915 183.837694 100.056096 182.135103 100 182.078329 101.457941 181.851319 105.831766 181.340541 116.093435 181.056774 121.98128 181 123.439221 182.362072 123.495317 196.209777 123.99999 198.933916 124.112142 198.7069 135.102782 198.650126 135.831752 200.806736 135.887848 208.468376 136 227.537349 136 237.128589 135.775703 258.070405 134.990653 260 134.878507 259.77299 134.654204 258.240664 131.962619 256.935343 131.065429 255.516525 128.373844 255.5733 128.037395 255.5733 127.86917 253.813958 120.803754 254.154476 119.682262 252.224882 117.046755 252.111374 113.906569 250.352032 111.15891 248.535939 105.887885 248.13867 105.831789 247.060365 105.719637"></polygon>
                <polygon id="OK" points="269.633244 173.376429 269.519111 171.880689 269.462024 170.440344 269.347892 169 267.179413 169.166194 245.095184 170.163352 214.108776 170.606538 200.869651 170.440344 198.415844 170.384925 197.5028 170.384925 193.907697 170.274128 192.766388 170.218709 190.36965 170.16329 189.228348 170.107871 189.171261 171.548215 189.114174 172.98856 189.057087 174.428904 189 175.92465 189.342392 175.92465 203.152168 176.257038 217.760861 176.423232 217.932057 195.369305 218.959232 198.69318 221.241838 200.798301 223.695645 200.909099 224.209227 199.911935 227.576077 202.903421 231.970098 203.346602 232.769009 204.232968 234.366836 203.512796 238.361401 205.34093 238.361401 206.393484 239.845095 206.338065 241.385853 205.063915 244.239116 206.836648 246.921182 207.77841 248.747263 205.340907 254.567915 208 256.736393 206.282669 258.505417 205.617893 259.932048 205.950281 265.296175 204.454541 268.149437 205.617893 270.717371 207.224432 272.942913 207.612216 273 207.612216 272.942913 205.119311 272.315193 190.051085 272.258106 187.558181 270.032564 176.367808 269.690172 174.816671 269.633085 173.376321"></polygon>
                <polygon id="SD" points="243.74385 66.3333337 234.153135 66.6111136 211.055973 66.7777805 186.029316 66.1111131 183.816075 66 183.759304 67.277781 183.532306 72.3333282 183.362056 76.1666597 183.305285 76.9444344 183.135035 76.9444344 183.078264 78.3888765 182.510767 90.055532 182.056771 98.7221844 182 100.222186 183.702497 100.277763 202.94067 100.88887 219.22786 101.055537 230.407565 100.94443 233.982804 103.166647 236.990545 102.333318 238.976788 102.388895 245.162514 104.166671 246.921754 105.888887 248 106 248 105.611113 246.751504 103.777783 247.546005 100.83334 246.581254 94.6666782 247.773002 94.6111016 247.659501 92.0555511 244.822015 72.500018 243.346521 70.0555749 245.61651 66.388916 245.673281 66.2222492 243.743792 66.3333566"></polygon>
                <path d="M316.122199,256.503676 L315.367617,256.669117 L315.019348,257 L316.122199,256.503676 L316.122199,256.503676 Z M318.560081,256.503676 L318.153768,256.338234 L318.037682,256.503676 L318.560081,256.503676 Z M319.953159,256.062496 L319.546847,256.062496 L319.314663,256.338234 L319.953159,256.062496 Z M319.25662,255.676468 L319.140528,255.511027 L319.082461,255.676468 L319.256596,255.676468 L319.25662,255.676468 Z M323.900205,252.753678 L323.72607,252.863969 L324.016297,252.863969 L323.900205,252.753678 Z M332.02648,249.5 L332.37475,249.058827 L331.968431,249.555151 L332.026498,249.499983 L332.02648,249.5 Z M333.187375,248.066178 L333.071283,248.121346 L333.071283,248.176514 L333.187375,248.066217 L333.187375,248.066178 Z M303.352345,252.91912 L304.223013,251.871326 L301.843175,251.264705 L300.798372,252.091913 L303.352345,252.91912 L303.352345,252.91912 Z M327.440938,248.121329 L327.20876,247.900736 L327.150694,248.011032 L327.44092,248.121329 L327.440938,248.121329 Z M328.079428,247.12868 L327.498981,246.963238 L327.673116,247.514708 L328.079428,247.12868 L328.079428,247.12868 Z M332.839105,246.191182 L332.839105,246.025741 L332.839105,246.080909 L332.839105,246.191205 L332.839105,246.191182 Z M334,245.474271 L333.941933,245.419103 L334,245.529399 L334,245.474231 L334,245.474271 Z M333.535644,245.363975 L333.419553,245.308807 L333.361486,245.474248 L333.535621,245.363952 L333.535644,245.363975 Z M329.472507,245.198533 L329.994911,245.033092 L329.994911,244.86765 L329.472507,245.198533 L329.472507,245.198533 Z M329.762734,244.922795 L330.052954,244.647064 L329.994887,244.591896 L329.76271,244.922773 L329.762734,244.922795 Z M327.731165,242.882358 L327.615073,242.992654 L327.67314,242.992654 L327.731207,242.882358 L327.731165,242.882358 Z M306.312625,212 L306.196539,212 L284.313644,213.930164 L278.799391,214.316192 L277,214.481633 L277.058067,215.805165 L278.218962,226.448542 L280.134445,228.985303 L280.192511,230.474277 L282.049945,233.562508 L283.55911,238.084567 L283.036705,240.621329 L282.630393,246.908093 L281.759725,248.94853 L281.875811,248.94853 L282.049945,250.382353 L281.063185,251.705884 L288.260738,250.933822 L293.891088,252.422795 L297.896177,252.91912 L299.927746,251.540443 L298.824894,250.161766 L302.539762,249.058827 L302.423676,250.272062 L304.339153,249.830883 L305.90636,252.147058 L307.24139,251.705884 L310.72408,253.966914 L308.576425,254.683825 L313.510231,256.062496 L315.367665,256.062496 L316.470517,254.794116 L318.850355,253.58088 L320.533654,255.897061 L321.694549,253.801473 L321.34628,250.492649 L324.4807,251.650739 L324.82897,252.643382 L328.543838,253.084561 L330.401272,254.518384 L330.169094,255.676468 L332.78111,253.360293 L331.794344,252.147058 L327.440986,251.099264 L325.81573,250.216911 L325.757663,248.562502 L327.557054,248.783089 L328.950126,246.080886 L327.150735,243.709566 L326.163975,245.97059 L323.900229,245.584561 L325.467436,243.15809 L324.422633,242.882358 L321.86866,244.591918 L318.211835,244.812505 L317.167032,244.040443 L318.850331,241.227949 L320.823851,241.172781 L324.190456,242.220575 L326.628337,242.441162 L326.628337,242.441162 L325.293307,240.841898 L322.739334,236.099258 L323.435873,233.4522 L303.410412,235.547783 L304.164994,234.830872 L303.352369,232.84558 L304.571307,231.13602 L305.267846,226.834553 L309.679253,219.665441 L307.531593,217.183825 L307.647685,215.363969 L306.312649,212.386028 L306.312649,212 L306.312625,212 Z" id="LA"></path>
                <path d="M248.214084,296.489802 L245.461329,286.393207 L245.461329,288.289808 L248.214084,296.489802 L248.214084,296.489802 Z M247.583245,278.75103 L245.633371,282.321097 L245.403975,283.492528 L247.583245,278.75103 L247.583245,278.75103 Z M249.131671,276.129265 L250.966845,273.786403 L249.647815,274.567359 L249.131671,276.129265 L249.131671,276.129265 Z M255.612133,270.439469 L251.310941,272.614978 L252.515276,272.39185 L255.612133,270.439469 Z M256.185624,269.658513 L257.389954,268.710215 L256.931163,268.821782 L256.185624,269.658513 L256.185624,269.658513 Z M188.169492,176.055804 L187.768049,176 L185.818174,228.323801 L174.463035,227.821759 L156.283343,226.817681 L149,226.315639 L150.433731,229.04897 L150.491102,229.104774 L156.684815,235.129259 L160.240463,239.201369 L164.943092,242.604089 L168.26935,248.517014 L169.531027,254.708852 L172.226441,256.4381 L174.348364,258.725175 L177.387867,259.78504 L181.803754,262.518371 L183.810976,263.243547 L186.563737,260.565996 L187.423977,257.721097 L188.857707,254.98776 L193.330942,253.258513 L195.051415,254.095243 L200.040793,254.485724 L204.571381,257.219056 L207.668238,257.776878 L206.807998,259.338784 L208.585825,260.454429 L210.248951,262.40681 L210.593047,264.470752 L211.682682,265.865311 L214.206041,271.778235 L216.729407,273.842183 L218.679282,276.96599 L221.145294,279.420413 L222.234929,279.755108 L223.152516,286.114287 L225.84793,287.564632 L225.962624,289.572794 L226.650816,289.405447 L231.353452,294.983677 L233.704769,295.485718 L236.686926,297.214972 L241.274861,297.214972 L244.601113,299 L248.558203,298.163269 L246.780383,296.545583 L245.174604,291.85987 L244.543765,287.78776 L243.626178,286.448982 L244.027622,283.715651 L242.823286,283.604084 L241.217507,281.0381 L243.052681,282.9347 L245.174604,282.209531 L246.321586,279.253066 L244.027622,276.24082 L247.468568,276.631295 L249.074347,274.232658 L248.844952,273.395922 L250.278683,271.555108 L249.934587,273.172794 L251.540365,271.945583 L250.909521,269.770074 L252.97409,270.829938 L255.612157,269.379599 L253.031444,266.757828 L254.637216,267.371437 L257.619378,267.538784 L261.519122,266.702048 L265.877661,263.857149 L268.515722,261.737421 L268.917165,260.175515 L270.522944,258.557828 L269.662704,255.880277 L269.834752,254.20681 L272.702214,252.979599 L272.472812,255.936063 L274.193292,255.936063 L272.30077,257.497964 L279.928209,253.593207 L281.189892,253.537404 L281.992778,249.967336 L282.222179,249.967336 L283.082413,247.903394 L283.483856,241.544208 L284,238.978224 L282.508922,234.404072 L280.673748,231.280266 L280.616377,229.77414 L278.72385,227.208156 L277.576867,216.442172 L277.519496,215.103394 L277.404796,213.708835 L277.0607,208.799994 L273.619753,208.911561 L272.759514,208.019044 L272.587466,207.963241 L272.530095,207.963241 L270.293477,207.572765 L267.712764,205.955079 L264.845303,204.783654 L259.454482,206.289773 L258.020751,205.955079 L256.242924,206.624468 L254.063654,208.353716 L248.214036,205.67617 L246.378868,208.130588 L243.683455,207.18229 L240.815993,205.397256 L239.267568,206.680248 L237.77649,206.736052 L237.77649,205.676193 L233.762046,203.835373 L232.156267,204.560543 L231.353381,203.668026 L226.937494,203.22177 L223.553888,200.209525 L223.03775,201.213609 L220.571732,201.102042 L218.277768,198.982313 L217.24548,195.635373 L217.073432,176.557828 L202.39204,176.390481 L188.513541,176.055786 L188.169445,176.055786 L188.169492,176.055804 Z" id="TX"></path>
                <polygon id="CT" points="462.461802 70 453.961802 72.9333321 453.84375 72.6666685 449.062502 73.9466656 448 74.2133347 448.118058 74.7466673 450.361108 82.586667 451.069443 83.3866686 449.534721 85.0933351 450.597224 86 450.597224 86 454.020834 83.0133308 455.850691 80.7200001 456.204858 81.3600014 464.822916 77.8933313 465 77.7333364 464.94095 76.4533338 464.586788 75.3333315 462.756925 70.6933329 462.520816 70.1066687 462.461766 70"></polygon>
                <polygon id="NH" points="455.109092 32.0000017 454.400001 32.9010256 453.581823 32.7320832 453.145457 36.4488064 453.145457 36.5051186 454.454551 41.5733775 454.345458 42.5870291 452 45.7969265 452.600003 48.7252531 452.600003 52.3856664 452.163637 55.7645014 454.618182 65 454.618182 65 454.618182 65 456.854546 64.2679185 463.727277 61.9027259 466.836363 58.4112607 466.836363 58.4112607 466.836363 57.5102369 467 56.0460739 466.618183 56.2150162 466.563617 55.8771315 463.127251 51.5409547 463.018158 51.1467579 455.109069 32 455.109069 32"></polygon>
                <path d="M467.834587,74.6867422 L467.774414,73.4216856 L467.593962,73.9036101 L467.834562,74.6867422 L467.834587,74.6867422 Z M469.037594,73.7228869 L468.255639,72.2168679 L468.195465,73.7831321 L469.037569,73.7228682 L469.037594,73.7228869 Z M468.67669,71.8554214 L469.097742,72.9397548 L469.639097,73.9036101 L470,73.1807233 L469.458645,72.1566227 L469.278194,71.4337358 L468.67669,71.4337358 L468.67669,71.8554214 L468.67669,71.8554214 Z M462,69.3855409 L462.2406,70.0481887 L464.105264,75.289151 L464.466161,76.5542139 L464.526335,78 L464.646632,77.8192767 L467.533851,75.5301195 L466.992502,71.4337358 L468.195509,71.1927673 L468.195509,71.1927673 L465.54889,68 L462.781973,69.0843334 L462,69.3855409 L462,69.3855409 Z" id="RI"></path>
                <polygon id="VT" points="454 63.8345637 451.428571 54.4889698 451.885717 51.0698561 451.885717 47.3658075 451.257142 44.4025744 453.714289 41.1544123 453.828577 40.128677 452.457145 35 451.714288 35.2849267 448.571432 36.4246325 445.485716 37.621324 438.399999 40.1856622 438 40.2996327 440.571429 46.2830922 441.428574 51.9246316 444.457142 56.654412 447.314288 66 447.428576 65.942993 447.885716 65.7720368 449.200001 65.3731408 450.342856 64.9742448 453.600001 64.0054965 454 63.8345402 454 63.8345402"></polygon>
                <polygon id="AL" points="334.056823 185.702142 334.284032 186.150887 335.079246 186.655718 335.420054 209.653786 335.533658 222.274675 338.430512 239.551277 338.657721 239.495163 341.213773 240 341.895382 235.007735 343.03141 237.81238 344.962646 239.55126 348.654725 237.419731 348.257112 237.083173 348.370717 237.139287 345.814665 231.361725 370.352767 227.435225 372 227.154764 372 227.09865 370.466365 224.237914 370.352767 220.143141 369.10314 217.899424 369.727951 213.524184 370.750374 212.402328 366.547089 204.998068 358.935732 182.112188 358.878909 182 357.174871 182.280467 348.086685 183.73888 343.542598 184.299808 334 185.589942 334.056823 185.70213"></polygon>
                <path d="M414.255341,294.944208 L414.14139,294.944208 L414.198386,295 L414.255382,294.944208 L414.255341,294.944208 Z M421.662039,292.211418 L421.605043,292.211418 L421.662039,292.322956 L421.662039,292.211418 Z M423.200352,291.821025 L423.200352,291.709481 L423.086401,291.876794 L423.200352,291.821002 L423.200352,291.821025 Z M422.630608,291.709481 L422.402706,291.4864 L422.34571,291.542192 L422.630585,291.709504 L422.630608,291.709481 Z M422.459685,292.15565 L421.77599,291.319088 L422.17481,292.044106 L422.459685,292.15565 L422.459685,292.15565 Z M427.872253,288.865177 L427.872253,289.088258 L427.986204,288.976717 L427.872253,288.865177 Z M428.669899,288.307471 L428.840823,288.028615 L428.612921,288.251702 L428.669917,288.307494 L428.669899,288.307471 Z M428.328052,286.745891 L428.271056,286.690099 L428.271056,286.801642 L428.328052,286.745851 L428.328052,286.745891 Z M428.726872,285.407375 L428.612921,285.463166 L428.783845,285.518958 L428.726848,285.407421 L428.726872,285.407375 Z M428.954768,285.407375 L428.840823,285.295831 L428.897819,285.463143 L428.954815,285.407352 L428.954768,285.407375 Z M428.555948,285.295831 L428.498952,285.240039 L428.498952,285.351577 L428.555948,285.295785 L428.555948,285.295831 Z M430.664005,284.905437 L430.664005,284.849646 L430.550054,285.072727 L430.664005,284.905414 L430.664005,284.905437 Z M428.271079,285.128519 L428.157128,285.128519 L428.271079,285.184311 L428.271079,285.128519 Z M429.467539,284.459269 L429.296616,284.459269 L429.23962,284.515061 L429.467516,284.459269 L429.467539,284.459269 Z M425.13748,284.4035 L425.13748,284.291963 L425.080484,284.4035 L425.13748,284.4035 Z M425.650251,284.236188 L425.479327,284.236188 L425.650251,284.570813 L425.650251,284.236188 Z M424.282867,284.29198 L424.282867,283.957355 L423.997992,284.013147 L424.282867,284.292003 L424.282867,284.29198 Z M423.485221,283.734268 L423.770096,284.013124 L423.770096,283.901581 L423.485221,283.734268 Z M431.860466,284.068893 L430.834929,284.515061 L431.176771,284.570853 L431.860466,284.068916 L431.860466,284.068893 Z M423.884047,283.566962 L423.5422,283.566962 L423.5422,283.678499 L423.884047,283.566962 Z M432.886008,280.778426 L432.943004,280.49957 L433,279.774552 L432.886055,280.778426 L432.886008,280.778426 Z M432.943004,277.655266 L432.715108,277.09756 L432.601156,277.320647 L432.943004,277.655266 Z M419.781907,279.049533 L419.667956,279.216846 L419.952831,279.272638 L419.781907,279.049556 L419.781907,279.049533 Z M418.699392,278.547596 L418.186621,278.714909 L418.585447,278.770701 L418.699392,278.547614 L418.699392,278.547596 Z M417.559905,278.65914 L417.559905,278.491827 L417.502909,278.547619 L417.559905,278.659163 L417.559905,278.65914 Z M416.363439,278.603348 L416.021591,278.826429 L416.47739,279.04951 L416.363439,278.603348 L416.363439,278.603348 Z M417.958725,278.65914 L417.901729,278.491827 L417.616854,278.436036 L417.958701,278.659117 L417.958725,278.65914 Z M410.495072,273.193612 L410.153224,273.360924 L410.836919,273.584011 L410.495072,273.193612 L410.495072,273.193612 Z M409.127688,271.408951 L408.671889,270.739707 L408.842813,271.241644 L409.127688,271.408951 L409.127688,271.408951 Z M410.893892,272.524368 L410.096252,270.739707 L409.526508,270.572395 L410.893892,272.524368 Z M408.614917,270.293539 L408.443993,269.847376 L408.330042,269.56852 L408.614917,270.293539 Z M403.886037,264.102998 L402.860495,263.37798 L403.259321,263.768374 L403.886037,264.102998 Z M429.524536,260.366363 L425.365406,253.562342 L425.137503,253.562342 L429.524536,260.366363 Z M400.752444,249.491082 L400.58152,249.435291 L400.752444,249.546828 L400.752444,249.491036 L400.752444,249.491082 Z M400.410596,249.100689 L400.3536,249.156481 L400.410596,249.212273 L400.410596,249.100735 L400.410596,249.100689 Z M400.239672,248.319896 L400.410596,248.431439 L400.410596,248.319896 L400.239672,248.319896 Z M400.58152,248.096815 L400.353624,248.152607 L400.41062,248.152607 L400.581543,248.096815 L400.58152,248.096815 Z M400.1827,248.041023 L400.011776,247.87371 L400.068772,247.929502 L400.182723,248.041046 L400.1827,248.041023 Z M399.78388,247.427542 L399.669929,247.427542 L399.840852,247.483334 L399.783856,247.427542 L399.78388,247.427542 Z M400.1827,246.758298 L399.954798,246.758298 L399.897802,246.81409 L400.182676,246.758298 L400.1827,246.758298 Z M400.410596,246.869836 L400.125721,246.590986 L400.239672,246.646778 L400.410596,246.869859 L400.410596,246.869836 Z M398.245566,244.4717 L398.131615,244.415908 L398.131615,244.4717 L398.245566,244.4717 Z M395.795668,244.4717 L395.624744,244.248619 L395.68174,244.527469 L395.795691,244.471677 L395.795668,244.4717 Z M375.056967,242.631264 L376.766198,241.34854 L374.886043,242.575495 L375.056967,242.631287 L375.056967,242.631264 Z M378.475435,239.954278 L378.646359,239.786965 L377.962664,240.065815 L378.475435,239.954278 L378.475435,239.954278 Z M356.825143,236.217642 L350.614929,238.169616 L354.033397,237.221511 L356.825143,236.217642 L356.825143,236.217642 Z M372.265221,226.736629 L370.612962,227.01548 L346,230.919427 L348.56385,236.663805 L348.734774,236.719597 L348.108057,239.006195 L349.93124,238.225408 L351.92534,236.496516 L355.343808,236.384978 L359.275048,234.99071 L361.952843,235.381104 L361.326126,236.329203 L366.22593,237.946552 L370.442038,239.954301 L371.410602,242.185124 L374.544196,241.515875 L381.950876,235.604185 L384.68565,235.715728 L395.85264,243.969786 L398.131615,243.523618 L400.524547,246.646778 L400.98034,251.610369 L400.239672,254.733523 L400.58152,256.295103 L402.575626,260.199051 L401.664035,257.131665 L404.227885,257.075873 L404.455781,259.306703 L403.088397,262.764482 L407.817277,269.122341 L409.583481,269.178133 L408.102146,267.226159 L409.925328,267.44924 L411.007843,266.779996 L410.55205,270.349319 L413.001949,272.245518 L414.654208,276.595634 L416.87621,277.934127 L419.724935,278.659146 L423.656168,283.566967 L425.707253,284.626605 L422.972479,284.793917 L424.225912,286.188185 L428.726895,284.738148 L430.948898,283.511193 L432.999977,276.484091 L431.97444,265.553041 L431.746544,264.437623 L426.276997,255.514322 L421.60509,249.04492 L418.984267,243.74671 L421.20627,245.587141 L421.662062,245.252516 L422.630632,249.881482 L425.137503,253.395036 L422.687605,248.710301 L422.801556,246.479471 L415.451848,237.723477 L413.685644,234.990716 L411.34969,230.36175 L409.754404,226.457802 L408.500966,225.063535 L408.216097,223.278873 L408.159101,223.223081 L404.227867,223 L402.689554,224.171181 L401.834941,228.465522 L401.037295,226.457779 L374.145358,229.748246 L372.20823,226.792404 L372.265226,226.736612 L372.265221,226.736629 Z" id="FL"></path>
                <path d="M408.743445,215.074363 L408.685563,213.384668 L408.280542,214.849066 L408.743421,215.074363 L408.743445,215.074363 Z M409.379911,212.4835 L409.148472,211.188072 L408.97489,211.976598 L409.379911,212.4835 L409.379911,212.4835 Z M382.301309,177 L381.549126,177.168969 L379.350435,177.619551 L371.249997,179.252918 L370.497814,179.421887 L369.687773,179.534536 L365.174668,180.379383 L363.959606,180.604674 L359.041481,181.505842 L358,181.618484 L358.057882,181.731133 L365.811158,204.710923 L370.092817,212.145567 L369.05133,213.272026 L368.41487,217.66522 L369.687796,219.918144 L369.803513,224.02972 L371.365744,226.902194 L371.365744,226.958539 L371.307861,227.014883 L373.275107,230 L400.585148,226.676944 L401.395195,228.704572 L402.263095,224.367699 L403.825326,223.184919 L407.817681,223.410209 L407.817681,223.410209 L407.470524,217.327321 L408.222707,216.031893 L407.817681,213.610005 L408.627728,211.30076 L409.84279,210.005332 L408.97489,209.216806 L411,206.794918 L410.942118,206.794918 L407.470506,203.640826 L402.725963,197.051036 L400.122251,195.86825 L388.955222,186.743923 L386.235788,183.364541 L380.970506,181.224265 L380.681202,180.097806 L382.301291,177 L382.301291,177 L382.301309,177 Z" id="GA"></path>
                <path d="M332.565918,242.000961 L332.273768,242.056484 L332.273768,242.112006 L332.565918,242.001007 L332.565918,242.000961 Z M337.999976,241.334942 L337.181948,241.334942 L337.941547,241.390465 L338,241.334942 L337.999976,241.334942 Z M331.222013,241.889956 L330.988291,242.11196 L331.046744,242.167483 L331.222037,241.889973 L331.222013,241.889956 Z M336.714505,241.445947 L334.494137,241.445947 L336.597641,241.50147 L336.714505,241.445947 Z M312.348887,188.553092 L312.348887,188.608614 L309.894797,192.493715 L310.128524,195.490786 L306.797971,198.987378 L307.674434,199.986405 L305.454066,208.866633 L306.505815,210.753677 L305.921509,211.142186 L305.979962,212.363218 L305.979962,212.751727 L307.323873,215.748805 L307.20701,217.580356 L309.368949,220.077919 L304.928212,227.2931 L304.227042,231.622209 L303,233.342755 L303.818028,235.340805 L303.058429,236.062323 L323.217032,233.953274 L322.515861,236.617342 L325.086815,241.390459 L326.430721,243 L326.430721,242.944477 L328.592654,240.613419 L333.150255,239.669896 L337.357265,240.113905 L338,239.336887 L338,239.281364 L335.020038,222.186922 L334.903175,209.699104 L334.55259,186.943522 L333.734562,186.444014 L333.500834,186 L333.383976,186 L330.462438,186.388509 L325.320537,187.054527 L313.634388,188.442064 L312.348911,188.553063 L312.348887,188.553092 Z" id="MS"></path>
                <polygon id="SC" points="382.637233 177.962146 382.637233 177.962146 381 181.085174 381.292365 182.220819 386.613365 184.378548 389.361577 187.78549 400.646778 196.984225 403.278042 198.176656 408.072794 204.820186 411.581142 208 411.581142 208 412.165867 205.388015 411.230306 202.889591 413.74463 204.706625 415.147968 203.627761 412.750592 201.697159 415.674222 201.526812 420.235079 197.779181 419.708831 196.813877 422.515513 194.712934 422.223148 193.69085 424.269688 192.441638 424.386635 189.545738 427.602624 183.753945 429.766105 181.085174 430 180.971607 416.960619 172.965298 412.107397 173.873815 405.5 173.646687 402.225534 172 382.812651 177.962146"></polygon>
                <polygon id="IL" points="299.968912 101.987234 299.853354 102.263826 302.04891 103.591489 302.742244 104.919145 305.053352 107.021273 304.995552 108.791485 303.724441 112.276592 300.83555 114.26808 298.235552 114.765953 297.715551 117.642547 298.582219 118.02978 297.715551 123.672332 295.577777 124.944671 295.98222 127.102116 295.462219 127.323392 295.462219 127.323392 295 129.757435 296.848888 134.680839 303.435549 139.991476 304.013326 142.536154 305.284437 143.808493 309.444439 143.587218 308.693329 147.2936 308.404437 151.276581 310.888884 153.212745 314.81777 154.872323 316.897768 156.42126 318.053322 159.574446 317.417769 160.736151 321.519989 163.94466 321.693323 164 321.346655 163.668084 322.502209 161.068089 326.951096 162.229788 328.048874 161.012766 327.182212 158.578728 330.822206 156.531918 329.839986 155.204261 330.706655 153.323409 330.706655 153.157451 330.475539 153.102111 330.533339 148.178707 331.80445 147.2936 334 142.370196 333.537781 140.212751 332.093336 137.612756 332.902222 134.680839 328.857784 107.408506 328.280001 106.799998 326.77778 103.536166 325.564451 102.319144 325.04445 99.1106347 325.04445 99 317.244453 100.051064 312.564457 100.604255 299.968906 101.987234 299.968906 101.987234"></polygon>
                <polygon id="IN" points="351.908074 103.00004 343.114963 104.493405 341.103465 104.880572 333.977017 105.986764 332.482763 107.14827 330.241381 108.143841 329.379309 108.08851 328.344823 107.590722 328 107.258863 332.022989 134.526542 331.218392 137.457958 332.655177 140.05751 333.114945 142.214587 330.931039 147.13715 329.666669 148.022106 329.609175 152.944669 329.839065 153 330.068949 152.944669 330.931021 151.395996 333.057458 151.395996 335.643668 150.566349 338.862066 151.727855 339.206889 150.455733 341.045972 149.128298 343.804597 149.51547 345.298857 146.694676 349.379321 147.026529 349.321828 145.422548 352.942525 140.831849 352.367812 138.73008 354.896553 138.674749 358 136.296435 357.252873 133.586262 357.367818 133.47564 357.252873 132.535377 353.804597 112.955743 352.252867 104.603981 352.080453 103.719026 351.908038 103"></polygon>
                <path d="M318.737058,170.773788 L318.566967,170.32141 L318.226786,170.208313 L318,170.943431 L318.056718,171 L318.680381,170.943431 L318.737099,170.773788 L318.737058,170.773788 Z M357.517669,133.791664 L357.404274,133.904761 L358.141332,136.675592 L355.079709,139.107136 L352.585048,139.163705 L353.152016,141.312514 L349.580115,146.005959 L349.636833,147.645839 L345.611361,147.306558 L344.137239,150.190486 L341.415792,149.794648 L339.601495,151.151793 L339.261319,152.452387 L336.086295,151.264885 L333.534939,152.1131 L331.43716,152.1131 L330.586706,153.696434 L330.359921,153.753003 L330.359921,153.922647 L329.509467,155.845267 L330.473311,157.202406 L326.901416,159.29467 L327.751864,161.782759 L326.674624,163.026807 L322.30897,161.839311 L321.175036,164.497044 L321.515217,164.83633 L321.628613,165.062525 L321.118341,169.699424 L320.891549,169.812521 L319.417433,170.717283 L319.360715,170.886926 L321.004922,170.660731 L332.457676,169.133949 L331.890708,166.872048 L333.818402,166.815479 L356.894001,163.761908 L373.109286,161.047624 L373.336071,160.87798 L373.732948,160.425603 L377.985212,158.163702 L381.273626,153.866083 L381.727197,152.395847 L383.881677,150.699415 L386.603123,147.250012 L387,146.684537 L386.829909,146.627968 L385.412494,146.627968 L383.598196,145.610109 L380.366477,141.708329 L379.232542,137.749996 L379.232542,137.636899 L379.119146,137.523807 L376.737881,136.166662 L375.660642,134.357139 L373.506162,136.449403 L372.145442,136.788689 L370.444534,136.110117 L368.970418,137.241067 L365.908789,135.883928 L365.115036,136.223208 L362.223499,133.735118 L360.749383,133 L357.971241,133.339286 L357.517664,133.791664 L357.517669,133.791664 Z" id="KY"></path>
                <path d="M435.185899,179.014947 L434.554941,179.638831 L434.669657,179.752266 L435.185899,179.014947 Z M435.644777,175.725393 L435.35798,176.179125 L435.472702,176.632857 L435.644777,175.725393 Z M439.086383,170.450763 L438.225986,171.017927 L437.767102,171.698526 L439.086383,170.450763 L439.086383,170.450763 Z M446.48583,166.877631 L446.141675,166.65076 L445.395994,166.594022 L446.48583,166.877607 L446.48583,166.877631 Z M444.937111,166.537331 L444.420869,166.537331 L443.560472,166.99106 L444.937111,166.537331 Z M446.715275,167.16121 L448.378717,163.077628 L447.231517,164.779119 L446.715275,167.16121 Z M449.181755,161.77315 L449.927436,160.695537 L449.525917,160.695537 L449.181755,161.77315 Z M454,157.349263 L452.738078,151.05374 L453.827919,154.343294 L454,157.349263 Z M447.002072,143 L446.887355,143.056738 L446.715275,143.113476 L446.715275,143.113476 L446.772657,143.113476 L449.92746,148.388106 L452.393946,150.826911 L447.002096,143 L447.002096,143 L447.002072,143 Z M445.969594,143.340299 L445.510711,143.453735 L445.510711,143.453735 L445.625433,143.510473 L446.600553,143.510473 L446.48583,143.170173 L446.48583,143.170173 L446.313755,143.226911 L446.141675,143.226911 L446.141675,143.226911 L446.141675,143.34034 L446.026953,143.397078 L445.969571,143.34034 L445.969571,143.34034 L445.969594,143.340299 Z M392.911528,156.27165 L392.624725,157.122399 L392.682107,159.561204 L392.051143,159.504466 L390.559781,162.510449 L388.89634,162.68059 L385.798895,165.686559 L384.422256,165.17611 L382.644092,167.78507 L377.94057,171.982088 L375.646164,172.549251 L373.237042,174.761192 L373.122319,176.235819 L371,177.370147 L371.057382,179.865672 L371.057382,180.432836 L371.803062,180.262686 L379.833474,178.61791 L382.013158,178.164181 L382.758838,177.994031 L382.930919,177.994031 L401.974458,172.038802 L405.186625,173.683579 L411.668312,173.910443 L416.429198,173.00298 L429.220496,181 L429.449935,180.82985 L435.358021,178.44776 L435.415403,175.328356 L437.537728,171.528353 L439.832128,169.373127 L444.593015,166.253723 L445.223979,165.119395 L446.485895,165.686559 L447.059501,161.943277 L446.371179,163.247754 L443.962056,164.041782 L441.667651,164.09852 L444.478298,162.056729 L443.617895,161.149266 L444.593015,159.107475 L439.20117,158.256726 L438.971731,157.973147 L443.560537,157.122399 L445.051898,157.859712 L446.944779,157.689562 L448.493498,156.555235 L449.640704,154.343294 L450.673182,154.059709 L450.501101,150.940305 L449.18182,149.692543 L447.86254,150.883591 L448.149337,153.88956 L447.174217,150.202992 L446.428537,150.032842 L440.749889,152.358218 L443.273734,149.919407 L443.388456,148.955229 L446.027018,148.331351 L446.772698,146.402989 L448.550862,147.423887 L446.657976,144.644777 L445.338695,143.510449 L445.338695,143.510449 L422.394666,149.976127 L407.767852,153.662695 L392.968951,156.385085 L392.911569,156.27165 L392.911528,156.27165 Z" id="NC"></path>
                <polygon id="OH" points="392.714691 106.125311 391.288162 100.095533 391.002853 98.8672439 389.405134 92 387.350927 93.2841182 382.957204 96.5781607 380.104141 99.9838679 377.878743 100.318856 373.77033 102.607939 371.487873 101.267992 364.583456 100.48635 364.583456 100.48635 360.93153 101.379651 357.336663 102.217122 353.570613 102.998757 353 103.166251 353.171184 104.059552 354.711844 112.490073 358.13552 132.254345 358.249645 133.203475 358.706139 132.756828 361.502142 132.421839 362.985737 133.147645 365.895865 135.604217 366.694722 135.269235 369.776035 136.609182 371.259629 135.492558 372.971473 136.162535 374.340942 135.827547 376.509274 133.761787 377.59344 135.548388 379.990016 136.888341 380.104141 137 380.104141 137 382.557776 135.827547 383.413698 133.985111 382.72896 132.086851 384.669042 129.183626 386.095577 128.960297 385.924392 126.503725 388.263908 123.377171 388.663337 123.823824 390.774609 122.260547 392.600572 119.580646 392.885875 107.3536 393 107.297748 392.714691 106.125294"></polygon>
                <polygon id="TN" points="373.125921 161.103909 356.964249 163.765956 333.964945 166.760759 332.043625 166.81624 332.608718 169.03461 321.19383 170.532009 319.55506 170.75385 319.55506 170.80933 319.102988 171.363923 318.876946 171.308443 318.876946 170.864765 318.876946 170.809285 318.255346 170.864765 318.311877 170.920246 318.650933 172.473102 317.520748 173.859586 317.407727 176.410718 317.407727 176.85439 317.407727 176.90987 315.712449 180.12651 316.051506 182.400343 314.469242 184.840554 315.034335 187.058924 313 188.889085 313.113015 189 314.356221 188.889085 325.658094 187.502601 330.630914 186.837088 333.456383 186.448874 333.569398 186.448874 333.512868 186.337953 343.006441 185.06239 347.527183 184.507797 356.568679 183.065856 358.263963 182.788557 359.281128 182.677642 364.084425 181.790293 365.271118 181.568457 369.678851 180.736565 370.469979 180.625645 370.469979 180.071052 370.413449 177.630841 372.504291 176.521656 372.617312 175.079714 374.990704 172.916802 377.251081 172.36221 381.884844 168.258221 383.636635 165.707089 384.992857 166.206224 388.044362 163.266884 389.683133 163.100505 391.152375 160.161159 391.773982 160.21664 391.717451 157.831892 392 157 391.09585 157.166378 387.874816 158.053727 384.032182 158.830161 374.369086 160.771238 373.351916 160.93761 373.12588 161.103989"></polygon>
                <path d="M445.410562,144.150156 L445.580855,144.150156 L445.751148,144.094155 L445.751148,144.094155 L445.637621,143.814261 L445.410562,144.150139 L445.410562,144.150139 L445.410562,144.150156 Z M443.480544,137.880445 L443.480544,138.160339 L443.764373,137.9924 L443.480544,137.880445 L443.480544,137.880445 Z M444.502319,135.921159 L444.445533,135.47332 L444.445533,135.47332 L444.502319,135.921159 Z M444.161728,136.59291 L444.048195,137.32065 L443.877899,137.600544 L444.161728,136.59291 Z M444.672615,135.137442 L444.729402,134.801564 L444.61587,135.137442 L444.672656,135.137442 L444.672615,135.137442 Z M445.013201,133.625996 L445.183497,133.23414 L444.899675,134.241769 L445.013201,133.625996 Z M445.069988,132.786301 L445.297047,131.55475 L445.013219,131.83465 L445.070006,132.786301 L445.069988,132.786301 Z M446.091757,127.244323 L446.20529,126.740512 L446.148503,126.852467 L446.091716,127.244323 L446.091757,127.244323 Z M445.864698,125.956788 L445.126751,126.236695 L443.991449,126.740512 L443.594094,127.244323 L443.76439,127.300324 L442.402023,135.641276 L442.912911,136.984789 L443.707621,133.514052 L445.183515,128.979709 L445.864698,126.012789 L445.864698,125.956788 L445.864698,125.956788 Z M447,125.508961 L446.829704,125.564961 L446.772917,125.788878 L446.489095,127.524247 L446.716154,126.908468 L446.999977,125.508984 L447,125.508961 Z M387.680403,146.949131 L387.283048,147.508926 L384.55832,150.923679 L382.401243,152.60307 L381.947125,154.058538 L378.654746,158.312987 L374.397355,160.552166 L374,161 L375.021775,160.832067 L384.728616,158.872781 L388.588646,158.089064 L391.824262,157.193391 L392.732504,157.025452 L392.789291,157.137413 L407.434707,154.450394 L421.90982,150.811724 L444.615887,144.430051 L444.615887,144.430051 L444.445591,144.150156 L444.388804,143.982217 L444.78616,144.374073 L444.78616,144.374073 L444.78616,144.374073 L445.240284,144.262112 L445.183497,144.206111 L444.786142,142.302804 L445.06997,142.358804 L445.978213,144.038189 L445.978213,144.038189 L445.978213,144.038189 L446.148509,143.982188 L446.262036,143.926188 L446.034976,143.478354 L443.707603,139.951639 L440.81258,140.455457 L439.506982,141.519069 L438.258147,140.399479 L434.000762,138.999988 L431.048975,138.888027 L436.782254,138.38421 L439.961106,140.511434 L440.869349,139.111944 L438.314917,135.921113 L440.131402,136.033069 L439.16639,133.458011 L436.895786,133.569972 L431.503094,129.259546 L430.82191,129.259546 L438.428443,132.954194 L437.917556,130.379136 L438.428443,129.53944 L434.568413,128.083972 L431.219271,127.860056 L429.573082,126.404588 L428.210715,127.244277 L427.699827,123.38169 L428.267478,123.493646 L428.153951,120.358793 L428.040419,120.246832 L427.926886,120.302832 L427.81336,120.246832 L427.529531,120.022915 L427.359235,119.854976 L425.54275,119.071264 L423.669501,117.727751 L421.058306,117.056001 L420.88801,117 L420.88801,117.056001 L420.547418,119.407142 L415.268258,117.167956 L415.38179,120.414771 L412.486767,125.844793 L410.727045,127.748094 L409.591743,131.050892 L406.129068,129.875319 L404.426109,137.488537 L403.063748,140.063601 L402.836689,143.422376 L401.814914,145.045783 L398.011647,146.165373 L394.889564,148.572492 L393.41367,148.796409 L391.99454,150.02796 L388.418333,148.740431 L387.793918,147.005063 L387.680386,146.949062 L387.680403,146.949131 Z" id="VA"></path>
                <path d="M327,65.7981185 L325.570594,67.5167395 L324.712955,70.0115089 L325.113187,71.3974875 L327,65.7981185 Z M294.180862,52.7698787 L295.038507,51.6056503 L294.409566,52.1600428 L294.180862,52.7698787 L294.180862,52.7698787 Z M295.495914,50.9403769 L295.210036,50.6077402 L294.581095,50.9958201 L295.495914,50.9403597 L295.495914,50.9403769 Z M283.031503,54.0449822 L281.716451,55.486404 L282.345393,62.1391206 L278.686116,65.354601 L278,68.4592063 L280.001167,70.2332648 L279.429406,77.8838915 L281.544922,79.4361941 L282.917154,79.5470692 L287.262541,82.0972819 L290.006999,84.8692448 L293.494747,86.5878658 L294.295217,90.8566938 L294.295217,91.1338872 L294.295217,91.1338872 L295.953327,93.0742641 L295.495914,94.5711292 L296.067675,97.8420471 L297.782965,100.115061 L300.927655,101.722801 L300.870457,102 L300.870457,102 L313.334868,100.614016 L317.966139,100.059623 L325.684925,99.0062755 L325.456222,98.1746838 L325.456222,95.5690335 L323.912461,92.7970707 L323.512229,89.3043911 L324.255519,85.4236374 L323.855286,82.4299129 L325.227518,78.7154832 L324.712931,78.1056474 L324.82728,74.6684111 L325.57057,72.0627609 L324.712931,71.1757316 L323.054822,71.7301242 L322.140003,74.0585753 L319.967306,75.2782413 L320.653422,72.33996 L322.597409,69.8451906 L322.711764,68.7363997 L322.768962,68.6809393 L320.024504,66.0198515 L320.024504,62.2499786 L316.936989,59.8106467 L312.70595,59.5334532 L308.360558,58.4246624 L298.983662,55.6526995 L297.154023,54.6547894 L296.982495,54.8211078 L294.066508,54.4330335 L293.094514,54.9874261 L293.494747,50.940354 L288.806302,53.2688051 L283.088683,54.1558344 L283.031485,54.0449593 L283.031503,54.0449822 Z M294.238037,51.1066952 L294.123688,50.718621 L293.723456,50.8849393 L294.238037,51.1066952 Z M292.179695,50.718621 L292.351224,50.3859843 L292.236869,50.2751035 L292.179671,50.718621 L292.179695,50.718621 Z M296.353559,49.7761542 L296.18203,49 L296.010501,49.9424725 L296.353559,49.7761542 L296.353559,49.7761542 Z" id="WI"></path>
                <polygon id="WV" points="403.39612 116.507354 395.332409 118.428369 392.833793 108 392.833793 108 392.720217 108.054907 392.436287 120.074967 390.619112 122.709502 388.518001 124.246315 388.120495 123.807223 385.792239 126.880849 385.9626 129.295835 384.542931 129.515383 382.612186 132.369461 383.293628 134.235586 382.441826 136.046832 380 137.199438 380 137.199438 380 137.309212 381.135733 141.151242 384.372576 144.938382 386.189751 145.926334 387.609414 145.926334 387.779774 145.981241 387.89335 146.036148 388.518001 147.73762 392.095566 149 393.515234 147.792504 394.991688 147.572961 398.114956 145.21286 401.919666 144.115139 402.941829 142.523441 403.168974 139.230272 404.531852 136.705507 406.235457 129.240995 409.699446 130.393607 410.835179 127.155322 412.595569 125.289197 415.491691 119.965238 415.378115 116.781843 420.659279 118.977291 421 116.672075 421 116.617168 421 116.617168 419.353186 113.872864 415.945982 113.488657 413.958447 114.970586 413.958447 116.068307 412.254848 116.452509 409.756231 118.153981 408.450138 118.428414 405.837945 121.996011 404.531852 116.232966 403.39612 116.507399"></polygon>
                <polygon id="DE" points="437.000024 106.783214 437.234065 107.569929 442.090451 120 447.648959 118.531467 447.590426 118.42657 447.70745 118.42657 447.882982 118.479037 447.882982 118.479037 448 118.42657 447.882982 118.216781 446.478724 114.860137 439.632979 109.038462 439.925529 105 439.925529 105 438.521276 105 437.468082 105.734264 437 106.783214 437 106.783214"></polygon>
                <polygon id="DC" points="427 118.562482 427.285717 118.81248 427.399999 118.875004 427.514287 118.81248 427.628575 118.875004 428.028573 119.125002 428.142861 119.312503 428.142861 119.750002 428.257143 120 429 118.500003 428.200002 118 427.228576 118.062524 427 118.562521"></polygon>
                <path d="M447.602904,125.260261 L448,122.301369 L447.65963,124.493142 L447.432718,125.424645 L447.375969,125.534236 L447.546154,125.47942 L447.602904,125.260238 L447.602904,125.260261 Z M447.886541,120.164382 L447.773089,120.219198 L447.886541,120.547965 L447.886541,121.205493 L447.886541,120.164399 L447.886541,120.164399 L447.886541,120.164382 Z M405,116.767132 L406.304754,122.520545 L408.914256,118.958911 L410.219004,118.684936 L412.715047,116.986308 L414.416892,116.602748 L414.416892,115.506862 L416.40238,114.02741 L419.806075,114.410975 L421.451193,117.150692 L421.451193,117.150692 L421.621378,117.205507 L424.230874,117.863035 L426.102904,119.178104 L427.918207,119.945223 L428.088392,120.109607 L428.315309,119.671254 L429.279687,119.616439 L430.07388,120.054797 L429.336413,121.36986 L429.336413,121.424675 L428.258577,124.602749 L431.77573,126.794523 L435.292878,126.958906 L437.618736,128 L436.654352,125.369869 L433.64776,124.383568 L432.910293,122.137002 L434.782323,124.547951 L436.313988,124.767133 L434.952508,123.452065 L433.874671,119.561663 L434.158315,117.315092 L432.96702,114.849345 L434.215041,113.863049 L435.122693,110.684969 L434.782323,115.397288 L435.746701,116.986325 L436.654352,115.123319 L437.164907,118.191802 L436.20053,120.438374 L438.980211,121.424675 L436.597626,122.191795 L437.845648,124.438366 L439.887862,125.095894 L441.022425,123.178096 L440.908972,125.86302 L442.837728,125.808204 L444.08575,127.17806 L444.1425,127.17806 L444.539596,126.684915 L445.674159,126.191764 L446.411626,125.91779 L446.354876,125.808204 L447.829809,121.589036 L447.829809,121.424653 L447.546165,120.32876 L447.546165,120.273945 L442.156988,121.80819 L437.448545,108.821918 L437.221634,108 L436.25725,108.273974 L432.229547,109.479452 L410.048813,115.452041 L406.02111,116.493135 L405,116.767104 L405,116.767132 Z" id="MD"></path>
                <path d="M450.252207,107.097414 L449.9646,106.42942 L449.9646,107.097414 L450.252207,107.097414 Z M450.827433,105.037769 L451,103.367791 L450.654867,104.815106 L450.827433,105.037769 L450.827433,105.037769 Z M448.469025,87.9483106 L442.429202,86.5009894 L441.393802,86.2226626 L440.415928,86 L440.415928,86 L438,91.1769382 L439.0354,92.4015911 L438.977856,96.1312081 L440.070777,96.2982065 L442.314138,101.97614 L442.199098,102.143138 L439.380516,106.151093 L439.668123,109.212723 L446.455733,111.43936 L446.513277,114 L448.066378,111.884691 L448.296465,108.823062 L449.907085,107.765407 L449.274339,105.4831 L450.482306,102.755467 L450.482306,96.7992016 L450.079652,94.850891 L447.376111,94.9065782 L448.066378,92.2346099 L448.469031,87.9483278 L448.469031,87.9483278 L448.469025,87.9483106 Z" id="NJ"></path>
                <path d="M448.206788,92.4841119 L447.358645,93.6631347 L447.132475,94 L448.206788,92.4841119 Z M456.009694,89.733053 L458.836836,87.2627113 L458.836836,87.1504209 L456.009694,89.733053 Z M448.602587,91.473516 L448.602587,89.5646203 L448.432958,90.5752105 L448.602587,91.473516 Z M461.720513,82.4904606 L461.042004,82.3220279 L460.928916,82.8273259 L461.720513,82.4904606 Z M463.247171,81.4798704 L463.190607,82.0413107 L463.303689,81.7044454 L463.247125,81.4798704 L463.247171,81.4798704 Z M461.663972,81.5360359 L457.875604,85.0169677 L452.051697,87.4873094 L450.525044,88.7786225 L450.411956,90.0137934 L448.828757,91.3051065 L449.054932,92.989433 L451.48627,92.0349794 L455.048468,89.1716301 L459.006458,87.0943018 L465,81.4798936 L460.759287,84.6801024 L459.402263,85.2415484 L461.663972,81.5360359 L461.663972,81.5360359 Z M463.4168,79.1779845 L463.64297,78.8411192 L462.964455,79.6271344 L463.4168,79.1779845 Z M399.862699,77.1006504 L398.958014,76.9883658 L399.636529,77.8866714 L399.862699,77.1006504 Z M418.634909,59.9205605 L418.74799,59.3029722 L418.295651,59.8644182 L418.634909,59.9205836 L418.634909,59.9205605 Z M418.917619,55.8781826 L418.691449,55.990473 L418.408733,56.6080555 L418.917619,55.8781826 Z M395,87.7680324 L395.395816,89.4523531 L398.392587,90.182226 L415.581597,85.5222656 L432.883689,80.3570073 L436.050088,82.7712067 L436.672057,84.1748102 L440.347336,85.7468406 L440.460424,85.9714213 L441.42165,86.1959962 L442.439422,86.4767135 L448.376417,87.936465 L448.263329,87.655742 L448.772216,89.9576511 L449.90307,89.6769281 L450.525044,87.1504441 L450.525044,87.0942786 L449.507272,86.1398308 L450.977384,84.3432197 L450.298869,83.5010565 L448.150247,75.2478739 L448.03716,74.6864337 L447.754443,74.518001 L447.584814,72.0476593 L447.415186,69.3527427 L447.245563,66.4332511 L447.245563,66.2648185 L447.132475,66.3209839 L444.305333,57.1133535 L441.308568,52.4533931 L440.460424,46.895133 L437.915999,41 L437.576741,41.1684327 L425.759299,45.098519 L423.384502,47.6250059 L420.726989,52.6779738 L420.840076,53.8008543 L417.334425,59.0783972 L419.483046,59.8082701 L420.10502,63.7944999 L417.617136,67.0508626 L410.153488,71.5423845 L408.739917,70.9809443 L403.198727,71.7669652 L398.053329,74.8548895 L398.336046,76.4830679 L400.145415,78.055104 L399.127643,82.9957817 L395.056564,87.7118843 L395,87.7680497 L395,87.7680324 Z" id="NY"></path>
                <polygon id="PA" points="440.980769 85.3411416 437.23077 83.7833129 436.596158 82.3923896 433.365385 80 415.711542 85.1185954 398.173079 89.7364578 395.115384 89.0131785 394.711539 87.344074 393.730772 88.0673532 392.173082 89.1244545 389.346155 91.9062955 389 92.1844824 390.615386 99.0278176 390.90385 100.25183 392.346153 106.260616 392.634617 107.428987 392.634617 107.428987 395.173081 118 403.365387 116.052708 404.519231 115.774521 405.557695 115.49634 409.653848 114.439239 432.21154 108.374818 436.307693 107.150806 437.288467 106.872619 437.288467 106.872619 437.750002 105.759882 438.788466 104.980968 440.173079 104.980968 440.346156 104.480235 442.596155 102.03221 442.826923 101.642753 443 101.531477 440.750001 95.8565137 439.653847 95.6896026 439.711561 91.9619363 438.673097 90.737924 441.096173 85.5636934 441.096173 85.5636934 440.980787 85.3411416"></polygon>
                <path d="M467.859063,55.9437538 L467.800315,55.9437538 L467.917761,56 L467.859014,55.9437538 L467.859063,55.9437538 Z M472.2047,43.9678612 L471.734898,43.2931626 L471.734898,43.6305119 L472.2047,43.9678612 Z M471.382554,43.3493874 L471.382554,42.787139 L471.323807,42.4497897 L471.382554,43.3493874 Z M473.496647,40.9879436 L473.379195,40.9317206 L473.437942,41.1003949 L473.496689,40.9879454 L473.496647,40.9879436 Z M479.369129,38.176701 L479.251677,37.3333281 L479.016779,37.7269022 L479.369129,38.176701 Z M477.901007,38.5140503 L477.959754,37.8955771 L477.255054,38.0080267 L477.901025,38.5140503 L477.901007,38.5140503 Z M480.073828,36.6586301 L479.83893,36.6586301 L479.83893,36.7710797 L480.073828,36.6586301 Z M477.137584,37.502003 L476.609059,37.3895535 L476.550312,37.8955771 L477.13756,37.502003 L477.137584,37.502003 Z M480.132551,35.7590325 L480.661076,36.1526065 L480.484901,35.7028077 L480.132551,35.7590307 L480.132551,35.7590325 Z M478.546983,35.8152555 L478.018459,36.771078 L478.723158,36.4337287 L478.546983,35.8152555 Z M476.021812,35.8714786 L475.786914,36.2088278 L475.963089,36.7148515 L476.021836,35.8714786 L476.021812,35.8714786 Z M479.486581,34.0160584 L479.427833,33.5662596 L479.251659,33.8473841 L479.486562,34.0160584 L479.486581,34.0160584 Z M479.192954,34.2409581 L478.664429,33.7911593 L478.664429,34.1847333 L479.192954,34.2409564 L479.192954,34.2409581 Z M475.904366,35.5341299 L475.786914,34.9156561 L475.552016,35.4216797 L475.904366,35.5341299 Z M481.483221,33.5662596 L480.602353,34.8032065 L480.543606,33.9036088 L481.483203,33.5662596 L481.483221,33.5662596 Z M485.770135,29.7991945 L485.359063,29.2369461 L485.124165,29.3493957 L485.770135,29.7991945 Z M487.355703,27.2690764 L487.003359,27.100402 L486.944612,27.2690764 L487.355685,27.2690764 L487.355703,27.2690764 Z M488.119132,22.8835381 L487.590607,22.8835381 L488.177855,23.0522125 L488.119107,22.8835381 L488.119132,22.8835381 Z M489,23.4457888 L488.823825,22.4337393 L488.354029,22.3775162 L489,23.4457888 L489,23.4457888 Z M488.060403,22.5461888 L487.942957,21.4779168 L487.531878,22.2088396 L488.060403,22.5461888 Z M454,31.3734907 L462.515099,50.4899389 L462.632551,50.8835118 L466.332218,55.2128252 L466.332218,55.156579 L466.919465,54.9879041 L467.036917,51.7830863 L467.976514,50.6585906 L468.563762,47.6786708 L468.035237,47.172646 L469.033558,44.2489584 L472.439597,42.7308876 L474.671142,40.1445441 L475.493287,35.6465563 L479.075502,35.4216565 L478.605706,33.1164376 L483.068795,31.4859171 L483.362416,28.955799 L484.419465,29.1806981 L487.355703,26.8754791 L488.64765,23.8955622 L485.652683,21.0280948 L482.481548,20.409621 L481.307046,18.104402 L481.307046,16.7550055 L479.369129,17.3172545 L477.196307,16.5863312 L477.196307,14.2811122 L471.323825,2.13654406 L467.036917,0 L462.280201,3.82328986 L460.988254,3.59839015 L459.872482,1.63052044 L458.345637,2.19276884 L456.172822,12.5381416 L456.936244,15.9116332 L457.582215,22.7710648 L455.879195,28.0562013 L457.05369,28.8995736 L455.644297,31.4859171 L454.117452,31.2610174 L454,31.3734676 L454,31.3734907 Z" id="ME"></path>
                <path d="M334.713854,67.410674 L334.431563,66.9651955 L334.375083,67.5220394 L334.713831,67.410674 L334.713854,67.410674 Z M335.61718,66.4083517 L334.939684,65.5174003 L334.826767,65.9071905 L335.61718,66.4083517 Z M336.181758,62.3990736 L335.61718,61.8979124 L335.61718,62.0092777 L336.181758,62.3990736 Z M334.77031,106 L341.771087,104.886312 L343.747113,104.496522 L352.385161,102.993039 L352.554535,103.716936 L353.119113,103.549882 L356.845334,102.770302 L360.402181,101.935034 L364.015485,101.044082 L363.959005,100.877028 L365.822119,97.2575405 L365.652745,94.2505791 L367.741683,89.0719249 L369.37896,90.0185588 L370,88.8491885 L369.830626,84.3944318 L368.30626,81.6102068 L366.047949,75.707655 L364.071923,73.5359622 L363.055679,73.2575432 L359.38592,75.7633434 L359.781124,76.2644989 L357.86156,79.8283042 L355.998447,79.4941967 L355.433869,75.7633434 L356.224283,75.4849186 L357.86156,71.7540596 L358.030934,65.1832929 L355.490331,59.6148485 L349.84454,58.6682145 L349.279962,57.8329459 L344.029381,56.329468 L341.658152,59.2250584 L341.883982,61.7308586 L340.07733,63.9582341 L340.47254,67.410674 L338.722344,68.6357328 L338.722344,64.2923415 L337.141523,67.5777278 L335.278415,70.4733181 L334.036341,71.4199521 L334.657375,74.4825962 L333.866967,77.6566114 L334.318633,81.6102068 L333.754049,83.5591632 L337.819018,91.2436176 L338.32714,94.1948964 L337.819018,99.6519697 L335.109041,105.777264 L334.770293,106 L334.77031,106 Z M346.852294,55.8283068 L345.38439,55.9396722 L346.287716,56.6078871 L346.852294,55.8283068 Z M338.270696,57.276102 L337.819036,57.276102 L338.327158,57.4988384 L338.270678,57.276102 L338.270696,57.276102 Z M348.150824,50.2041741 L347.586246,49.3132228 L347.360416,49.3689284 L348.150824,50.2041913 L348.150824,50.2041741 Z M297,54.2691406 L298.806652,55.271463 L308.06574,58.0556823 L312.356539,59.1693757 L316.53442,59.4477948 L319.583145,61.8979124 L319.583145,65.6844541 L322.293123,68.357308 L322.293123,68.3016024 L324.494979,62.0092548 L327.1485,60.1716694 L329.180982,57.944294 L329.51973,59.948933 L331.608673,56.7749179 L336.633418,54.8816499 L337.028628,54.1020639 L342.109835,54.7145962 L344.085861,55.7169128 L345.045642,53.266801 L345.948968,53.8236449 L349.901019,53.2111126 L348.941232,51.6519463 L347.191042,50.6496297 L347.52979,47.0301417 L344.085861,48.9234097 L340.924217,48.5336196 L339.907974,46.1391904 L340.246721,45.3596056 L335.955928,47.3642435 L333.189489,47.5312972 L328.2212,50.5382586 L327.656622,51.6519463 L324.607896,50.9280487 L322.688327,51.7633174 L318.849194,48.4779369 L310.324057,45.9164483 L310.154683,44.9141299 L304.678272,50.0927858 L301.573091,50.8723661 L297.169374,54.1577523 L297,54.2691176 L297,54.2691406 Z M316.986086,41.6287701 L310.380513,44.8584685 L312.582369,46.9744763 L313.429239,44.8584685 L315.687556,42.1299301 L316.986086,41.6287701 L316.986086,41.6287701 Z M309.590105,34 L305.073476,37.0626447 L304.847646,38.5661248 L308.404488,36.0046402 L309.590105,34 L309.590105,34 Z" id="MI"></path>
            </g>
            <g id="circles" transform="translate(35.000000, 23.000000)" fill="#E13700" fill-opacity="0.8" fill-rule="nonzero">
                <circle id="Oval" cx="199.5" cy="215.5" r="11.5"></circle>
                <ellipse id="Oval-Copy-17" cx="185.5" cy="92" rx="6.5" ry="7"></ellipse>
                <circle id="Oval-Copy-18" cx="118" cy="76" r="7"></circle>
                <circle id="Oval-Copy-19" cx="381" cy="234" r="7"></circle>
                <circle id="Oval-Copy-19-Copy" cx="375" cy="163" r="7"></circle>
                <circle id="Oval-Copy-20" cx="313" cy="184" r="7"></circle>
                <circle id="Oval-Copy-21" cx="283" cy="103" r="7"></circle>
                <circle id="Oval-Copy-22" cx="272" cy="54" r="7"></circle>
                <circle id="Oval-Copy-23" cx="236.5" cy="88.5" r="5.5"></circle>
                <circle id="Oval-Copy-24" cx="78.5" cy="115.5" r="5.5"></circle>
                <circle id="Oval-Copy-25" cx="201.5" cy="126.5" r="5.5"></circle>
                <circle id="Oval-Copy-26" cx="7.5" cy="45.5" r="5.5"></circle>
                <circle id="Oval-Copy-27" cx="314.5" cy="65.5" r="5.5"></circle>
                <circle id="Oval-Copy-28" cx="383.5" cy="141.5" r="5.5"></circle>
                <circle id="Oval-Copy-29" cx="312.5" cy="150.5" r="2.5"></circle>
                <circle id="Oval-Copy-29-Copy-8" cx="256.5" cy="170.5" r="2.5"></circle>
                <circle id="Oval-Copy-29-Copy-7" cx="394.5" cy="91.5" r="1.5"></circle>
                <circle id="Oval-Copy-29-Copy" cx="411.5" cy="75.5" r="2.5"></circle>
                <circle id="Oval-Copy-29-Copy-2" cx="421" cy="53" r="2"></circle>
                <circle id="Oval-Copy-29-Copy-3" cx="427" cy="43" r="2"></circle>
                <circle id="Oval-Copy-29-Copy-4" cx="423" cy="29" r="2"></circle>
                <circle id="Oval-Copy-29-Copy-5" cx="412" cy="25" r="2"></circle>
                <circle id="Oval-Copy-29-Copy-6" cx="433" cy="3" r="2"></circle>
                <circle id="Oval-Copy" cx="122" cy="115" r="5"></circle>
                <circle id="Oval-Copy-11" cx="260" cy="136" r="5"></circle>
                <circle id="Oval-Copy-13" cx="165.5" cy="60.5" r="3.5"></circle>
                <circle id="Oval-Copy-14" cx="209" cy="165" r="7"></circle>
                <circle id="Oval-Copy-16" cx="122.5" cy="174.5" r="4.5"></circle>
                <circle id="Oval-Copy-15" cx="165.5" cy="22.5" r="3.5"></circle>
                <circle id="Oval-Copy-12" cx="339" cy="96" r="5"></circle>
                <circle id="Oval-Copy-5" cx="80" cy="28" r="5"></circle>
                <circle id="Oval-Copy-6" cx="231" cy="39" r="5"></circle>
                <circle id="Oval-Copy-7" cx="394.5" cy="68.5" r="3.5"></circle>
                <circle id="Oval-Copy-7-Copy" cx="397.5" cy="41.5" r="3.5"></circle>
                <circle id="Oval-Copy-8" cx="347.5" cy="180.5" r="3.5"></circle>
                <circle id="Oval-Copy-32" cx="331.5" cy="126.5" r="3.5"></circle>
                <circle id="Oval-Copy-32-Copy" cx="309" cy="102" r="3"></circle>
                <circle id="Oval-Copy-30" cx="386.5" cy="113.5" r="3.5"></circle>
                <circle id="Oval-Copy-31" cx="362.5" cy="107.5" r="3.5"></circle>
                <circle id="Oval-Copy-9" cx="62.5" cy="64.5" r="4.5"></circle>
                <circle id="Oval-Copy-10" cx="62" cy="180" r="3"></circle>
                <circle id="Oval-Copy-2" cx="30.5" cy="103.5" r="3.5"></circle>
                <circle id="Oval-Copy-2-Copy" cx="23.5" cy="3.5" r="3.5"></circle>
                <circle id="Oval-Copy-3" cx="5" cy="144" r="5"></circle>
                <circle id="Oval-Copy-4" cx="287" cy="199" r="5"></circle>
                <circle id="Oval-Copy-4-Copy" cx="259" cy="211" r="4"></circle>
            </g>
        </g>
    </g>
</svg>