<?xml version="1.0" encoding="UTF-8"?>
<svg width="491px" height="301px" viewBox="0 0 491 301" version="1.1" xmlns="http://www.w3.org/2000/svg" xmlns:xlink="http://www.w3.org/1999/xlink">
    <!-- Generator: Sketch 61.2 (89653) - https://sketch.com -->
    <title>map-circles</title>
    <desc>Created with Sketch.</desc>
    <g id="HP" stroke="none" stroke-width="1" fill="none" fill-rule="evenodd">
        <g id="EL-HP-redesign-idea-3-Copy-2" transform="translate(-140.000000, -1170.000000)">
            <g id="card-1" transform="translate(0.000000, 1149.000000)">
                <g id="Group-6" transform="translate(58.000000, 22.000000)">
                    <g id="map-circles">
                        <g id="US-map" stroke="#AAACC7" stroke-linejoin="round" stroke-width="1.22299529">
                            <path d="M557.55072,74.9478491 L557.376813,74.843558 L557.376813,75 L557.55072,74.947833 L557.55072,74.9478491 Z M555.811592,73.539876 L556.217388,73.383434 L556.217388,73.1748464 L555.811592,73.539876 Z M563,69.4723935 L562.942007,68.7423288 L562.826069,68.3251536 L562.999982,69.4723935 L563,69.4723935 Z M537.666662,64.1012291 L537.260866,64.2576712 L533.956516,65.1441725 L532.797098,65.5092022 L531.463765,65.8742318 L531,66.0306739 L531,66.1871159 L531.173907,68.8987709 L531.347821,71.4018383 L531.521734,73.6963181 L531.811592,73.8527601 L532.855073,73.5920216 L537.550723,72.3404906 L537.666662,72.6012237 L546.014489,69.7331267 L546.072482,69.8374232 L546.826104,69.5766846 L549.492769,68.6380377 L552.043496,71.4018383 L552.043496,71.4018383 L552.391322,71.1411051 L552.565236,70.3588949 L552.507243,71.6104313 L552.507243,71.6104313 L553.086952,71.6104313 L553.260866,72.2361941 L553.782606,73.1227008 L553.782606,73.1227008 L556.507246,70.1503073 L558.768114,70.828221 L559.289855,69.7852776 L563,68.0122695 L561.434779,65.2484636 L561.840581,67.0214717 L559.927533,68.3251536 L557.782609,68.4815957 L553.492754,64.3619623 L551.579706,61.7546038 L553.492754,59.9294501 L551.521737,59.8251536 L550.710145,58.1042965 L550.652152,58 L547.347809,61.2331267 L540.043457,63.4233154 L537.666644,64.1012291 L537.666644,64.1012291 L537.666662,64.1012291 Z" id="MA"></path>
                            <polygon id="MN" points="322.000024 30.1833602 323.156739 34.1405496 325.585843 48.4087244 326.742558 54.0937012 327.089574 59.1098559 328.419802 62.1195499 328.708978 64.6833605 328.94032 65.5193882 328.882462 65.6865938 326.569032 69.3651041 328.072763 71.8174482 330.96455 91.4361894 331.080224 94 333.972012 93.8327945 345.365672 93.2197113 373.820895 90.9345728 376.654854 90.655895 376.654854 90.3772229 375.845149 86.0856236 372.317164 84.357835 369.541044 81.5710855 365.145526 79.0072692 363.757463 78.8958027 361.617541 77.3352195 362.195898 69.6437819 360.171644 67.86026 360.865675 64.7390938 364.567168 61.506461 363.930971 54.8182567 365.261194 53.3691458 365.261194 53.3691458 369.772392 48.7988687 374.919776 42.4450726 376.886196 41.1074317 380.356347 39.4911148 384 36.8715669 381.570896 37.3174474 380.124999 36.2584814 374.57276 36.9830374 373.705227 35.9798065 368.731345 37.9305334 364.74067 36.3142164 363.641795 35.03231 360.46082 35.2552505 358.320898 34.1962846 359.014929 33.4159936 356.296643 32.5799676 353.867539 32.5799676 349.992539 34.1962846 349.240673 33.0815831 343.110076 32.2455571 341.027988 27.2294024 340.79664 25.7245554 338.136194 25 338.367536 29.2915993 331.311566 29.7932147 322.578358 30.1276252 322 30.1833585"></polygon>
                            <polygon id="MT" points="267.921657 28.6203655 249.137327 27.3853506 235.460518 26.0941994 221.840458 24.5223621 213.384669 23.3996217 199.878111 21.3225513 193.124832 20.1998109 178.029267 17.3368223 176.440258 17 174 28.4519547 175.078255 30.5290246 175.929511 33.7288354 175.418757 34.1779317 176.497012 37.0970572 177.972518 38.3320721 182.172036 45.2930652 182.569287 46.4719396 184.271792 46.3596692 182.285533 55.5661413 181.491032 55.790688 180.412776 58.8782238 186.031052 59.2711819 186.485057 61.8534891 189.663068 69.5442639 190.230569 69.9933572 192.443828 74.48432 193.01133 74.0352266 197.721601 73.9790682 203.680378 74.5965788 205.155884 72.6879175 206.915144 75.8315885 207.255646 76 207.312418 75.6631829 208.106919 70.1617514 227.515505 72.5195061 243.008322 73.9790682 251.180358 74.6527141 265.76517 75.4947714 266.502923 75.5509298 266.673174 75.5509298 266.729946 74.7650134 266.900197 70.8915556 267.127197 65.783088 267.183969 64.4919315 267.297471 62.246453 268.205475 44.6194251 268.943228 30.9219896 269 28.6765083 267.921745 28.6203731"></polygon>
                            <polygon id="ND" points="320.97984 29.4539842 303.801859 29.7944751 291.800023 29.7377285 281.504613 29.5107343 269.445898 29.0567466 268.820207 29 268.763305 31.2699386 268.023855 45.1165652 267.113764 62.9355822 267 65.2055178 269.218348 65.319017 294.302754 66 317.453213 65.8297542 327.066059 65.5460094 329 65.4325161 328.772479 64.5812873 328.488078 61.9708602 327.179816 58.9064424 326.838531 53.7990813 325.700918 48.0107373 323.311928 33.4831287 322.174314 29.4539877 320.979816 29.4539877"></polygon>
                            <polygon id="ID" points="176.391411 17.5584735 171.220156 16.5565976 169.535141 16.1669791 168.77979 16 162.03973 45.0544047 162.330252 47.4477727 162.097832 49.9524624 162.214042 50.5090594 162.214042 50.5647404 162.272168 51.6222708 164.247706 53.6816851 161.400613 60.5278353 155.357796 68.097568 155.183483 69.4890636 156.752294 73.0512894 151.232414 94.9812413 151 96.1500934 152.626907 96.4840528 169.070336 99.6009976 175.636084 100.769855 177.321099 101.048157 178.948012 101.326452 187.314985 102.606626 202.305808 104.777357 203.990823 105 204.223237 103.163223 204.746174 99.5453396 206.721712 85.0737986 207.767586 77.893689 208 76.0569124 207.651375 75.8899327 205.85015 72.772988 204.339447 74.6654226 198.238529 74.0531618 193.415898 74.1088427 192.834859 74.5541181 190.568805 70.1013358 189.987766 69.6560605 186.733946 62.0306697 186.269111 59.4703164 180.516817 59.080699 181.620793 56.0194122 182.434246 55.7967746 184.467886 46.6685724 182.724769 46.7798883 182.318042 45.6110362 178.018348 38.7092228 176.507646 37.4847076 175.40367 34.5903994 175.926607 34.1451211 175.055045 30.9725139 173.951069 28.9131024 176.449538 17.5585079 176.391411 17.5585079"></polygon>
                            <path d="M107.151735,30.9679186 L107.209344,30.0246387 L107.094174,30.080124 L107.151783,30.9679186 L107.151735,30.9679186 Z M119.417735,25.9185983 L119.763251,25.3637262 L119.360144,25.3082409 L119.417753,25.9185983 L119.417735,25.9185983 Z M118.323585,24.9198297 L118.669101,23.8100888 L118.323585,23.6991143 L118.323585,24.9198297 L118.323585,24.9198297 Z M122.52742,23.3107048 L122.469811,22.200964 L121.490836,23.6436273 L122.527396,23.3107048 L122.52742,23.3107048 Z M122.642595,20.9802486 L122.815356,19.8705077 L122.70018,19.5930722 L122.642572,20.9802486 L122.642595,20.9802486 Z M122.815356,15.5425193 L122.757748,14.9321596 L122.527396,14.8766744 L122.815333,15.5425193 L122.815356,15.5425193 Z M124.658135,11.880372 L124.139853,11.8248867 L123.103293,13.378524 L124.658135,11.8803737 L124.658135,11.880372 Z M123.218463,10.3822211 L123.5064,10.1602731 L123.564009,9.99381217 L123.218487,10.3822211 L123.218463,10.3822211 Z M122.930532,10.5486826 L122.757771,9.43894116 L122.239489,10.3822211 L122.930532,10.5486826 Z M122.642595,8.9950447 L122.124313,8.77309676 L122.52742,9.32796719 L122.642595,8.9950447 L122.642595,8.9950447 Z M124.370199,9.93832518 L124.370199,9.21699322 L124.197438,9.49442872 L124.370199,9.93832518 Z M124.888481,9.21699322 L124.658135,9.05053226 L124.600527,9.05053226 L124.888457,9.21699322 L124.888481,9.21699322 Z M121.60603,7.99627781 L121.318099,7.77432987 L121.202923,7.7188446 L121.60603,7.99627953 L121.60603,7.99627781 Z M123.736746,7.77432987 L122.181904,8.16273934 L122.585011,8.27371331 L123.736746,7.77432987 Z M122.469835,7.66335589 L122.181904,7.33043341 L122.124295,7.38591868 L122.469817,7.66335418 L122.469835,7.66335589 Z M123.679161,6.99751092 L123.448809,6.99751092 L123.736746,7.10848489 L123.679137,6.99751092 L123.679161,6.99751092 Z M112.392135,35.4623702 L114.465266,37.626365 L114.119744,41.7878941 L114.522851,42.8421485 L117.632541,44.4512728 L126.385738,45.2280895 L126.73126,46.2268587 L130.877516,46.2823668 L134.79342,46.7817514 L141.185555,46.1159053 L144.352836,46.6152898 L145.216635,46.2268815 L161.398538,49.7780532 L162.492689,50 L162.377513,49.4451301 L162.607865,46.9482129 L162.319928,44.5622719 L169,15.5980275 L168.078611,15.431566 L154.60329,12.3797783 L142.855579,9.49445159 L129.553014,5.94327991 L125.579525,5 L126.500914,9.8273735 L125.63711,11.3810114 L124.082268,10.6041925 L125.579525,17.3181258 L123.967092,19.5376081 L123.218463,21.5906294 L123.218463,23.6991372 L119.820842,25.9741065 L118.38117,25.0863135 L116.999083,25.7521585 L119.532905,22.5893963 L118.899453,24.7533916 L120.339125,23.2552407 L121.49086,23.4771892 L121.145338,20.7028365 L121.893967,20.8138105 L123.448809,17.4845873 L122.930532,16.9852039 L120.914992,19.4821211 L119.59049,19.5376064 L121.030162,17.983969 L122.642595,17.5955596 L122.066728,14.7657198 L120.454295,14.3773104 L119.648081,13.045621 L118.669101,13.5450044 L113.371116,11.3255227 L108.706583,7.829838 L107.439672,11.2145482 L107.324496,12.6572115 L108.303471,15.2096163 L107.670018,23.4771875 L107.20932,24.7533899 L109.800728,24.9753378 L107.20932,26.7509237 L108.591408,27.4167681 L107.497257,30.9679398 L106.978974,28.193587 L106,31.4118362 L107.324496,32.9654736 L108.764168,32.8544996 L110.491771,33.8532665 L111.355576,35.4623914 L112.392135,35.4623914 L112.392135,35.4623914 L112.392135,35.4623702 Z" id="WA"></path>
                            <polygon id="AZ" points="213.513654 166.287485 194.247774 163.950546 183.900222 162.503864 169.150679 160.22257 167.664291 160 167.664291 160.111285 165.148863 170.905723 163.833982 170.850061 161.833074 169.125181 159.317646 171.18391 159.260455 180.030898 158.345755 181.922703 158.345755 182.089628 158.345755 182.14529 158.231415 183.536321 160.232323 188.766619 162.004557 191.103558 158.803102 192.939723 157.545388 195.221022 155.487313 200.117465 154.458279 200.340035 154.401088 204.401854 156.173322 205.681611 155.258622 208.12983 153.200547 208.241115 153.200547 208.241115 152 210.411129 156.116156 212.914993 163.891107 217.143742 187.901996 229.551776 208.254083 232 208.482756 232 210.083484 215.585781 210.483664 211.523956 214.771326 168.457499 215 166.454409 213.513612 166.287485"></polygon>
                            <path d="M115.740796,196.86652 L115.968954,198.097358 L115.968954,198.321145 L115.740796,196.86652 Z M107.355957,192.055065 L107.755234,192.894274 L107.983392,192.838306 L107.355957,192.055048 L107.355957,192.055065 Z M117.337904,191.887224 L117.509024,193.341849 L118.535741,194.069161 L117.337904,191.887224 Z M110.436103,183.942732 L109.808663,183.77489 L110.322021,183.998677 L110.436103,183.942709 L110.436103,183.942732 Z M104.104692,182.264314 L102.564622,183.159468 L102.963899,183.551103 L104.104692,182.264314 L104.104692,182.264314 Z M101.138628,181.201318 L101.024547,181.648898 L101.537905,181.760795 L101.138628,181.201318 L101.138628,181.201318 Z M106.158121,182.320265 L108.66787,183.718945 L109.124191,183.32731 L106.158121,182.320265 Z M92.8108272,133.310569 L92.7537659,133.142727 L92.7537659,133.36652 L92.8108272,133.310552 L92.8108272,133.310569 Z M125.722743,90.8466966 L123.498195,90.2872202 L99.0852,83.6854627 L90.0158829,81 L90.0158829,81.2237871 L89.5025243,86.7625543 L87.1068568,93.3083665 L83.1140758,98.1757666 L83,100.637442 L84.9393468,104.050217 L85.909026,108.525989 L84.5400698,112.162551 L84.7682272,115.799119 L84.083755,117.309689 L86.4223787,122.288986 L87.9054107,124.191191 L87.7913349,129.618061 L91.3277953,132.91894 L93.3812237,129.562116 L95.6057775,131.296474 L96.4613692,130.513216 L93.3812237,131.072686 L93.3241623,133.925991 L93.9516025,137.506608 L92.2404073,135.884141 L91.2707339,133.702204 L90.9855327,136.723344 L91.7840925,142.709692 L94.9783138,146.570041 L92.8678475,149.255504 L93.2100807,152.668279 L95.4916724,156.137005 L99.4844534,166.878856 L100.739328,167.550217 L100.340045,174.99119 L100.967485,175.886344 L109.523444,178.90749 L112.147269,181.648898 L113.059904,183.439207 L115.569653,184.837886 L118.30756,185.341412 L119.448353,188.418503 L121.729939,189.481499 L125.152323,193.453745 L128.34655,198.656829 L128.118387,203.468283 L129.88662,205.762112 L153.215866,208 L153.215866,208 L155.269295,207.888104 L156.18193,205.426434 L154.413697,204.139645 L154.470759,200.055508 L155.49747,199.831715 L157.550898,194.90837 L158.805773,192.614536 L162,190.768282 L160.231767,188.418503 L158.235376,183.159468 L158.349458,181.760795 L158.349458,181.704826 L156.866426,179.746676 L152.303249,173.760334 L143.462089,161.563859 L131.141512,144.220244 L124.182667,134.765182 L117.45198,125.254164 L125.209379,92.9726656 L125.722737,90.8466794 L125.722743,90.8466966 Z" id="CA"></path>
                            <polygon id="CO" points="281.774406 134.873786 282 124.116397 279.292929 124.006626 265.531988 123.512663 264.178449 123.457757 263.050505 123.402852 246.300503 122.360043 235.133836 121.481889 221.203702 120.164654 219.850169 120 219.680977 121.427006 216.635522 150.021902 215.563972 160.010909 215.112797 164.346798 215 165.773798 216.748318 165.938452 245.172558 168.353372 257.692759 169.121761 270.156563 169.670607 271.961277 169.725512 273.089222 169.780418 275.457908 169.835323 276.585858 169.890229 280.138885 170 281.041242 170 281.041242 168.902303 281.661615 139.868326 281.718034 136.630135 281.718034 135.587326 281.774453 134.873826"></polygon>
                            <polygon id="NV" points="168.512404 157.225368 174.565842 121.36946 177.650763 103.413789 178 101.640395 176.312023 101.363299 169.734735 100.199503 153.262402 97.0960576 151.632636 96.7635445 150.002863 96.4310314 141.795802 94.7130549 127.069657 91.38793 125.439884 91 124.916028 93.1059065 117 125.082509 123.868322 134.503697 130.969466 143.869457 143.541983 161.049262 152.563933 173.130543 157.220422 179.060344 158.73378 181 158.73378 180.833743 159.665078 178.94951 159.723306 170.137931 162.284377 168.087442 164.321591 169.805418 165.66033 169.860858 168.221401 159.109623 168.221401 158.998784 168.512428 157.225385"></polygon>
                            <polygon id="NM" points="271.831787 174.305384 271.887858 172.865788 271.943929 171.426192 272 169.986596 270.206406 169.931206 257.819395 169.377515 245.376336 168.602344 217.127228 166.166108 215.389682 166 215.165484 167.993287 210.961744 210.848973 210.569396 214.890919 209 231.224806 209.224204 231.280196 216.959079 232 217.687726 228.124162 219.088973 227.016775 234.78292 228.401004 234.895022 228.401004 233.493775 225.687919 240.612099 226.186242 258.379893 227.182883 269.477758 227.681206 271.383454 175.744986 271.775802 175.800376 271.831873 174.305407"></polygon>
                            <path d="M89.7403418,81.1081102 L98.7950109,83.8324347 L123.168576,90.5297272 L125.389531,91.0972999 L126.984065,91.4945961 L141.391806,94.9000032 L149.421416,96.6594587 L151.01595,97 L151.243739,95.8081113 L156.653762,73.4459487 L155.116174,69.8135161 L155.287017,68.394596 L161.20957,60.6756737 L164,53.6945948 L162.06378,51.5945922 L162.00681,50.5162192 L162.00681,50.4594409 L160.924806,50.2324153 L144.922531,46.5999827 L144.068321,46.9972789 L140.936199,46.486467 L134.61502,47.1675496 L130.742585,46.6567376 L126.642356,46.5999593 L126.300669,45.5783354 L117.644638,44.783743 L114.569467,43.1377973 L114.170835,42.0594185 L114.512522,37.8026618 L112.462404,35.5891486 L112.291567,35.6459036 L111.892929,35.929687 L109.045553,34.4540114 L107.337121,34.9648222 L106.198171,34.3972547 L105.002275,39.2783362 L104.205005,40.6404978 L100.674256,49.2107681 L99.6491973,53.9215795 L99.0227763,53.9783578 L95.7198167,61.8107899 L93.4988617,65.1594362 L92.7015917,65.7270031 L90.6514798,69.699977 L90.2528478,73.8999765 L89,77.6459248 L89.7403183,81.051326 L89.7403183,81.1081043 L89.7403418,81.1081102 Z M110.583159,34.5108108 L110.412315,34 L110.355346,34.3972974 L110.583135,34.5108108 L110.583159,34.5108108 Z" id="OR"></path>
                            <polygon id="UT" points="202.021879 105.725451 187.343545 103.556903 179.150984 102.278016 177.557985 102 177.216627 103.779317 174.201313 121.794961 168.284461 157.770629 168 159.549952 169.479212 159.772371 184.157546 162.052124 194.455142 163.497828 213.628008 165.833188 215.10722 166 215.221008 164.554301 215.676147 160.161597 216.75711 150.0417 219.829321 121.072111 220 119.626407 218.862146 119.515203 204.354484 117.791482 202.135667 117.513466 203.557988 106.67072 203.671769 105.947871 202.021879 105.725451"></polygon>
                            <polygon id="WY" points="264.933316 98.1982949 265.382436 89.5037687 265.943838 77.7995909 266 76.3505033 265.270176 76.2947479 250.842111 75.4587336 242.757903 74.7899221 227.431593 73.3408344 208.231597 71 207.445634 76.4619508 207.389472 76.7963508 207.164912 78.6355823 206.154384 85.8252884 204.245611 100.316171 203.740346 103.93889 203.515787 105.778122 203.40351 106.502666 202 117.370829 204.189472 117.649497 218.50526 119.377258 219.628065 119.488723 220.97543 119.655925 234.842092 120.993548 245.95788 121.885295 262.631561 122.944245 263.754366 123 263.810528 121.550912 264.091232 115.698823 264.596496 105.499471 264.821056 101.152208 264.877218 99.7031207 264.93338 98.1982949"></polygon>
                            <polygon id="AR" points="399.942424 176.206105 393.726598 177.101779 396.258973 173.183204 395.165447 171 373.237399 173.071249 354.705037 174.526718 352 174.694658 352.345324 176.262083 354.589927 187.569967 354.647502 190.089049 355.280599 205.315508 355.338175 207.834591 355.510837 207.890591 356.374148 208.786265 359.827379 208.674304 360.172704 213.600508 360.287814 215 362.071988 214.832061 367.539607 214.440204 389.237441 212.480917 389.352545 212.480917 389.294969 211.249365 389.870508 210.857508 388.834541 208.954205 391.021591 199.997464 390.15828 198.989829 393.438855 195.463111 393.208635 192.440216 395.6259 188.521641 395.6259 188.465641 395.510795 188.353685 397.582736 186.506353 397.007197 184.267171 398.618709 181.804066 398.273384 179.5089 400 176.262083 400 176.206082 399.942424 176.206082"></polygon>
                            <polygon id="IA" points="383.927845 100.98032 380.721325 99.3131518 378.97231 96.956119 378.389307 93.5642955 378.855713 92.0121006 377.165003 90 377.165003 90 374.30828 90.2874455 345.624501 92.6444783 334.139325 93.2768501 331.22431 93.4493162 330 93.5068266 330.99111 99.8880606 330.174901 102.934958 331.45751 104.832079 331.45751 105.234498 331.865612 105.292008 333.731224 110.695938 335.538537 113.512877 335.65514 116.73224 337.637349 119.434199 337.287546 120.583969 339.09486 127.827534 339.09486 128 339.09486 128 351.046436 127.655068 363.814215 126.562784 376.348794 125.01059 379.205516 127.482602 379.322113 127.597575 379.846818 127.367622 379.438716 125.125569 381.595827 123.803333 382.470334 117.939497 381.595827 117.537078 382.120531 114.547673 384.744048 114.030275 387.659069 111.960688 388.941677 108.338906 389 106.499271 386.667988 104.314704 385.968382 102.934981 383.752967 101.555253 383.86957 101.267813 383.927893 100.980368"></polygon>
                            <polygon id="KS" points="351.94371 167.859551 350.535824 143.706773 348.001633 142.222205 347.776373 141.080225 345.749016 139.253065 347.720054 136.79782 346.931641 135.37035 345.467442 135.42747 344.11587 134.456787 343.552717 134 341.637998 134.114194 320.857629 134.91358 311.340331 135.141974 292.418367 135.141974 284.815794 135.027774 282.675809 134.970654 282.675809 136.055531 282.619472 139.424356 282 169.629603 282 170.771583 284.421564 170.828703 297.486727 171 328.065973 170.543207 349.860015 169.515433 352 169.344136 351.943663 167.859569"></polygon>
                            <polygon id="MO" points="378.045327 127.421896 375.268516 125 363.084569 126.520726 350.673944 127.590865 339.056691 127.928804 339.056691 127.928804 339 128.266744 340.416733 130.970252 341.720137 131.871415 343.250212 134.574923 343.476889 134.800219 344.043583 135.250801 345.403655 136.208298 346.877062 136.151953 347.670433 137.560031 345.686999 139.981921 347.727107 141.78426 347.953783 142.910725 350.503912 144.375125 351.920651 168.199786 351.977342 169.664186 352.090684 171.128585 352.147375 172.592984 352.260716 174.113705 352.317407 175.57811 354.980877 175.409141 373.228461 173.944741 394.819552 171.860785 395.896273 174.057384 393.402812 178 399.523123 177.098831 399.579814 177.098831 399.579814 176.648249 399.693155 174.057384 400.826544 172.649306 400.486526 171.072264 400.429835 171.015919 400.373144 170.959575 400.599821 170.227375 400.939839 170.340023 401.109848 170.790605 401.053157 170.959575 401.053157 171.015919 401.053157 171.466507 401.279839 171.522851 401.733193 170.959621 401.733193 170.903277 401.789884 170.734307 403.263291 169.833138 403.489973 169.72049 404 165.102001 403.886659 164.876704 403.71665 164.82036 399.693114 161.553622 400.316477 160.370834 399.183087 157.160424 397.142986 155.583376 393.289459 153.89368 390.852666 151.922378 391.136017 147.867113 391.87272 144.093466 387.792511 144.318757 386.545781 143.023327 385.979086 140.432468 379.518763 135.025452 377.705338 130.012697 378.158692 127.53448 378.158692 127.53448 378.045356 127.421838"></polygon>
                            <polygon id="NE" points="330.060412 105.719661 328.301076 103.981349 322.115011 102.186958 320.128659 102.130862 317.120753 102.971979 313.545319 100.728994 302.365002 100.84114 286.076919 100.672915 266.837694 100.056096 265.135103 100 265.078329 101.457941 264.851319 105.831766 264.340541 116.093435 264.056774 121.98128 264 123.439221 265.362072 123.495317 279.209777 123.99999 281.933916 124.112142 281.7069 135.102782 281.650126 135.831752 283.806736 135.887848 291.468376 136 310.537349 136 320.128589 135.775703 341.070405 134.990653 343 134.878507 342.77299 134.654204 341.240664 131.962619 339.935343 131.065429 338.516525 128.373844 338.5733 128.037395 338.5733 127.86917 336.813958 120.803754 337.154476 119.682262 335.224882 117.046755 335.111374 113.906569 333.352032 111.15891 331.535939 105.887885 331.13867 105.831789 330.060365 105.719637"></polygon>
                            <polygon id="OK" points="352.633244 173.376429 352.519111 171.880689 352.462024 170.440344 352.347892 169 350.179413 169.166194 328.095184 170.163352 297.108776 170.606538 283.869651 170.440344 281.415844 170.384925 280.5028 170.384925 276.907697 170.274128 275.766388 170.218709 273.36965 170.16329 272.228348 170.107871 272.171261 171.548215 272.114174 172.98856 272.057087 174.428904 272 175.92465 272.342392 175.92465 286.152168 176.257038 300.760861 176.423232 300.932057 195.369305 301.959232 198.69318 304.241838 200.798301 306.695645 200.909099 307.209227 199.911935 310.576077 202.903421 314.970098 203.346602 315.769009 204.232968 317.366836 203.512796 321.361401 205.34093 321.361401 206.393484 322.845095 206.338065 324.385853 205.063915 327.239116 206.836648 329.921182 207.77841 331.747263 205.340907 337.567915 208 339.736393 206.282669 341.505417 205.617893 342.932048 205.950281 348.296175 204.454541 351.149437 205.617893 353.717371 207.224432 355.942913 207.612216 356 207.612216 355.942913 205.119311 355.315193 190.051085 355.258106 187.558181 353.032564 176.367808 352.690172 174.816671 352.633085 173.376321"></polygon>
                            <polygon id="SD" points="326.74385 66.3333337 317.153135 66.6111136 294.055973 66.7777805 269.029316 66.1111131 266.816075 66 266.759304 67.277781 266.532306 72.3333282 266.362056 76.1666597 266.305285 76.9444344 266.135035 76.9444344 266.078264 78.3888765 265.510767 90.055532 265.056771 98.7221844 265 100.222186 266.702497 100.277763 285.94067 100.88887 302.22786 101.055537 313.407565 100.94443 316.982804 103.166647 319.990545 102.333318 321.976788 102.388895 328.162514 104.166671 329.921754 105.888887 331 106 331 105.611113 329.751504 103.777783 330.546005 100.83334 329.581254 94.6666782 330.773002 94.6111016 330.659501 92.0555511 327.822015 72.500018 326.346521 70.0555749 328.61651 66.388916 328.673281 66.2222492 326.743792 66.3333566"></polygon>
                            <path d="M399.122199,256.503676 L398.367617,256.669117 L398.019348,257 L399.122199,256.503676 L399.122199,256.503676 Z M401.560081,256.503676 L401.153768,256.338234 L401.037682,256.503676 L401.560081,256.503676 Z M402.953159,256.062496 L402.546847,256.062496 L402.314663,256.338234 L402.953159,256.062496 Z M402.25662,255.676468 L402.140528,255.511027 L402.082461,255.676468 L402.256596,255.676468 L402.25662,255.676468 Z M406.900205,252.753678 L406.72607,252.863969 L407.016297,252.863969 L406.900205,252.753678 Z M415.02648,249.5 L415.37475,249.058827 L414.968431,249.555151 L415.026498,249.499983 L415.02648,249.5 Z M416.187375,248.066178 L416.071283,248.121346 L416.071283,248.176514 L416.187375,248.066217 L416.187375,248.066178 Z M386.352345,252.91912 L387.223013,251.871326 L384.843175,251.264705 L383.798372,252.091913 L386.352345,252.91912 L386.352345,252.91912 Z M410.440938,248.121329 L410.20876,247.900736 L410.150694,248.011032 L410.44092,248.121329 L410.440938,248.121329 Z M411.079428,247.12868 L410.498981,246.963238 L410.673116,247.514708 L411.079428,247.12868 L411.079428,247.12868 Z M415.839105,246.191182 L415.839105,246.025741 L415.839105,246.080909 L415.839105,246.191205 L415.839105,246.191182 Z M417,245.474271 L416.941933,245.419103 L417,245.529399 L417,245.474231 L417,245.474271 Z M416.535644,245.363975 L416.419553,245.308807 L416.361486,245.474248 L416.535621,245.363952 L416.535644,245.363975 Z M412.472507,245.198533 L412.994911,245.033092 L412.994911,244.86765 L412.472507,245.198533 L412.472507,245.198533 Z M412.762734,244.922795 L413.052954,244.647064 L412.994887,244.591896 L412.76271,244.922773 L412.762734,244.922795 Z M410.731165,242.882358 L410.615073,242.992654 L410.67314,242.992654 L410.731207,242.882358 L410.731165,242.882358 Z M389.312625,212 L389.196539,212 L367.313644,213.930164 L361.799391,214.316192 L360,214.481633 L360.058067,215.805165 L361.218962,226.448542 L363.134445,228.985303 L363.192511,230.474277 L365.049945,233.562508 L366.55911,238.084567 L366.036705,240.621329 L365.630393,246.908093 L364.759725,248.94853 L364.875811,248.94853 L365.049945,250.382353 L364.063185,251.705884 L371.260738,250.933822 L376.891088,252.422795 L380.896177,252.91912 L382.927746,251.540443 L381.824894,250.161766 L385.539762,249.058827 L385.423676,250.272062 L387.339153,249.830883 L388.90636,252.147058 L390.24139,251.705884 L393.72408,253.966914 L391.576425,254.683825 L396.510231,256.062496 L398.367665,256.062496 L399.470517,254.794116 L401.850355,253.58088 L403.533654,255.897061 L404.694549,253.801473 L404.34628,250.492649 L407.4807,251.650739 L407.82897,252.643382 L411.543838,253.084561 L413.401272,254.518384 L413.169094,255.676468 L415.78111,253.360293 L414.794344,252.147058 L410.440986,251.099264 L408.81573,250.216911 L408.757663,248.562502 L410.557054,248.783089 L411.950126,246.080886 L410.150735,243.709566 L409.163975,245.97059 L406.900229,245.584561 L408.467436,243.15809 L407.422633,242.882358 L404.86866,244.591918 L401.211835,244.812505 L400.167032,244.040443 L401.850331,241.227949 L403.823851,241.172781 L407.190456,242.220575 L409.628337,242.441162 L409.628337,242.441162 L408.293307,240.841898 L405.739334,236.099258 L406.435873,233.4522 L386.410412,235.547783 L387.164994,234.830872 L386.352369,232.84558 L387.571307,231.13602 L388.267846,226.834553 L392.679253,219.665441 L390.531593,217.183825 L390.647685,215.363969 L389.312649,212.386028 L389.312649,212 L389.312625,212 Z" id="LA"></path>
                            <path d="M331.214084,296.489802 L328.461329,286.393207 L328.461329,288.289808 L331.214084,296.489802 L331.214084,296.489802 Z M330.583245,278.75103 L328.633371,282.321097 L328.403975,283.492528 L330.583245,278.75103 L330.583245,278.75103 Z M332.131671,276.129265 L333.966845,273.786403 L332.647815,274.567359 L332.131671,276.129265 L332.131671,276.129265 Z M338.612133,270.439469 L334.310941,272.614978 L335.515276,272.39185 L338.612133,270.439469 Z M339.185624,269.658513 L340.389954,268.710215 L339.931163,268.821782 L339.185624,269.658513 L339.185624,269.658513 Z M271.169492,176.055804 L270.768049,176 L268.818174,228.323801 L257.463035,227.821759 L239.283343,226.817681 L232,226.315639 L233.433731,229.04897 L233.491102,229.104774 L239.684815,235.129259 L243.240463,239.201369 L247.943092,242.604089 L251.26935,248.517014 L252.531027,254.708852 L255.226441,256.4381 L257.348364,258.725175 L260.387867,259.78504 L264.803754,262.518371 L266.810976,263.243547 L269.563737,260.565996 L270.423977,257.721097 L271.857707,254.98776 L276.330942,253.258513 L278.051415,254.095243 L283.040793,254.485724 L287.571381,257.219056 L290.668238,257.776878 L289.807998,259.338784 L291.585825,260.454429 L293.248951,262.40681 L293.593047,264.470752 L294.682682,265.865311 L297.206041,271.778235 L299.729407,273.842183 L301.679282,276.96599 L304.145294,279.420413 L305.234929,279.755108 L306.152516,286.114287 L308.84793,287.564632 L308.962624,289.572794 L309.650816,289.405447 L314.353452,294.983677 L316.704769,295.485718 L319.686926,297.214972 L324.274861,297.214972 L327.601113,299 L331.558203,298.163269 L329.780383,296.545583 L328.174604,291.85987 L327.543765,287.78776 L326.626178,286.448982 L327.027622,283.715651 L325.823286,283.604084 L324.217507,281.0381 L326.052681,282.9347 L328.174604,282.209531 L329.321586,279.253066 L327.027622,276.24082 L330.468568,276.631295 L332.074347,274.232658 L331.844952,273.395922 L333.278683,271.555108 L332.934587,273.172794 L334.540365,271.945583 L333.909521,269.770074 L335.97409,270.829938 L338.612157,269.379599 L336.031444,266.757828 L337.637216,267.371437 L340.619378,267.538784 L344.519122,266.702048 L348.877661,263.857149 L351.515722,261.737421 L351.917165,260.175515 L353.522944,258.557828 L352.662704,255.880277 L352.834752,254.20681 L355.702214,252.979599 L355.472812,255.936063 L357.193292,255.936063 L355.30077,257.497964 L362.928209,253.593207 L364.189892,253.537404 L364.992778,249.967336 L365.222179,249.967336 L366.082413,247.903394 L366.483856,241.544208 L367,238.978224 L365.508922,234.404072 L363.673748,231.280266 L363.616377,229.77414 L361.72385,227.208156 L360.576867,216.442172 L360.519496,215.103394 L360.404796,213.708835 L360.0607,208.799994 L356.619753,208.911561 L355.759514,208.019044 L355.587466,207.963241 L355.530095,207.963241 L353.293477,207.572765 L350.712764,205.955079 L347.845303,204.783654 L342.454482,206.289773 L341.020751,205.955079 L339.242924,206.624468 L337.063654,208.353716 L331.214036,205.67617 L329.378868,208.130588 L326.683455,207.18229 L323.815993,205.397256 L322.267568,206.680248 L320.77649,206.736052 L320.77649,205.676193 L316.762046,203.835373 L315.156267,204.560543 L314.353381,203.668026 L309.937494,203.22177 L306.553888,200.209525 L306.03775,201.213609 L303.571732,201.102042 L301.277768,198.982313 L300.24548,195.635373 L300.073432,176.557828 L285.39204,176.390481 L271.513541,176.055786 L271.169445,176.055786 L271.169492,176.055804 Z" id="TX"></path>
                            <polygon id="CT" points="545.461802 70 536.961802 72.9333321 536.84375 72.6666685 532.062502 73.9466656 531 74.2133347 531.118058 74.7466673 533.361108 82.586667 534.069443 83.3866686 532.534721 85.0933351 533.597224 86 533.597224 86 537.020834 83.0133308 538.850691 80.7200001 539.204858 81.3600014 547.822916 77.8933313 548 77.7333364 547.94095 76.4533338 547.586788 75.3333315 545.756925 70.6933329 545.520816 70.1066687 545.461766 70"></polygon>
                            <polygon id="NH" points="538.109092 32.0000017 537.400001 32.9010256 536.581823 32.7320832 536.145457 36.4488064 536.145457 36.5051186 537.454551 41.5733775 537.345458 42.5870291 535 45.7969265 535.600003 48.7252531 535.600003 52.3856664 535.163637 55.7645014 537.618182 65 537.618182 65 537.618182 65 539.854546 64.2679185 546.727277 61.9027259 549.836363 58.4112607 549.836363 58.4112607 549.836363 57.5102369 550 56.0460739 549.618183 56.2150162 549.563617 55.8771315 546.127251 51.5409547 546.018158 51.1467579 538.109069 32 538.109069 32"></polygon>
                            <path d="M550.834587,74.6867422 L550.774414,73.4216856 L550.593962,73.9036101 L550.834562,74.6867422 L550.834587,74.6867422 Z M552.037594,73.7228869 L551.255639,72.2168679 L551.195465,73.7831321 L552.037569,73.7228682 L552.037594,73.7228869 Z M551.67669,71.8554214 L552.097742,72.9397548 L552.639097,73.9036101 L553,73.1807233 L552.458645,72.1566227 L552.278194,71.4337358 L551.67669,71.4337358 L551.67669,71.8554214 L551.67669,71.8554214 Z M545,69.3855409 L545.2406,70.0481887 L547.105264,75.289151 L547.466161,76.5542139 L547.526335,78 L547.646632,77.8192767 L550.533851,75.5301195 L549.992502,71.4337358 L551.195509,71.1927673 L551.195509,71.1927673 L548.54889,68 L545.781973,69.0843334 L545,69.3855409 L545,69.3855409 Z" id="RI"></path>
                            <polygon id="VT" points="537 63.8345637 534.428571 54.4889698 534.885717 51.0698561 534.885717 47.3658075 534.257142 44.4025744 536.714289 41.1544123 536.828577 40.128677 535.457145 35 534.714288 35.2849267 531.571432 36.4246325 528.485716 37.621324 521.399999 40.1856622 521 40.2996327 523.571429 46.2830922 524.428574 51.9246316 527.457142 56.654412 530.314288 66 530.428576 65.942993 530.885716 65.7720368 532.200001 65.3731408 533.342856 64.9742448 536.600001 64.0054965 537 63.8345402 537 63.8345402"></polygon>
                            <polygon id="AL" points="417.056823 185.702142 417.284032 186.150887 418.079246 186.655718 418.420054 209.653786 418.533658 222.274675 421.430512 239.551277 421.657721 239.495163 424.213773 240 424.895382 235.007735 426.03141 237.81238 427.962646 239.55126 431.654725 237.419731 431.257112 237.083173 431.370717 237.139287 428.814665 231.361725 453.352767 227.435225 455 227.154764 455 227.09865 453.466365 224.237914 453.352767 220.143141 452.10314 217.899424 452.727951 213.524184 453.750374 212.402328 449.547089 204.998068 441.935732 182.112188 441.878909 182 440.174871 182.280467 431.086685 183.73888 426.542598 184.299808 417 185.589942 417.056823 185.70213"></polygon>
                            <path d="M497.255341,294.944208 L497.14139,294.944208 L497.198386,295 L497.255382,294.944208 L497.255341,294.944208 Z M504.662039,292.211418 L504.605043,292.211418 L504.662039,292.322956 L504.662039,292.211418 Z M506.200352,291.821025 L506.200352,291.709481 L506.086401,291.876794 L506.200352,291.821002 L506.200352,291.821025 Z M505.630608,291.709481 L505.402706,291.4864 L505.34571,291.542192 L505.630585,291.709504 L505.630608,291.709481 Z M505.459685,292.15565 L504.77599,291.319088 L505.17481,292.044106 L505.459685,292.15565 L505.459685,292.15565 Z M510.872253,288.865177 L510.872253,289.088258 L510.986204,288.97672 L510.872253,288.865177 Z M511.669899,288.307471 L511.840823,288.028615 L511.612921,288.251702 L511.669917,288.307494 L511.669899,288.307471 Z M511.328052,286.745891 L511.271056,286.690099 L511.271056,286.801642 L511.328052,286.745851 L511.328052,286.745891 Z M511.726872,285.407375 L511.612921,285.463166 L511.783845,285.518958 L511.726848,285.407421 L511.726872,285.407375 Z M511.954768,285.407375 L511.840823,285.295831 L511.897819,285.463143 L511.954815,285.407352 L511.954768,285.407375 Z M511.555948,285.295831 L511.498952,285.240039 L511.498952,285.351577 L511.555948,285.295785 L511.555948,285.295831 Z M513.664005,284.905437 L513.664005,284.849646 L513.550054,285.072727 L513.664005,284.905414 L513.664005,284.905437 Z M511.271079,285.128519 L511.157128,285.128519 L511.271079,285.184311 L511.271079,285.128519 Z M512.467539,284.459269 L512.296616,284.459269 L512.23962,284.515061 L512.467516,284.459269 L512.467539,284.459269 Z M508.13748,284.4035 L508.13748,284.291963 L508.080484,284.4035 L508.13748,284.4035 Z M508.650251,284.236188 L508.479327,284.236188 L508.650251,284.570813 L508.650251,284.236188 Z M507.282867,284.29198 L507.282867,283.957355 L506.997992,284.013147 L507.282867,284.292003 L507.282867,284.29198 Z M506.485221,283.734268 L506.770096,284.013124 L506.770096,283.901581 L506.485221,283.734268 Z M514.860466,284.068893 L513.834929,284.515061 L514.176771,284.570853 L514.860466,284.068916 L514.860466,284.068893 Z M506.884047,283.566962 L506.5422,283.566962 L506.5422,283.678499 L506.884047,283.566962 Z M515.886008,280.778426 L515.943004,280.49957 L516,279.774552 L515.886055,280.778426 L515.886008,280.778426 Z M515.943004,277.655266 L515.715108,277.09756 L515.601156,277.320647 L515.943004,277.655266 Z M502.781907,279.049533 L502.667956,279.216846 L502.952831,279.272638 L502.781907,279.049556 L502.781907,279.049533 Z M501.699392,278.547596 L501.186621,278.714909 L501.585447,278.770701 L501.699392,278.547614 L501.699392,278.547596 Z M500.559905,278.65914 L500.559905,278.491827 L500.502909,278.547619 L500.559905,278.659163 L500.559905,278.65914 Z M499.363439,278.603348 L499.021591,278.826429 L499.47739,279.04951 L499.363439,278.603348 L499.363439,278.603348 Z M500.958725,278.65914 L500.901729,278.491827 L500.616854,278.436036 L500.958701,278.659117 L500.958725,278.65914 Z M493.495072,273.193612 L493.153224,273.360924 L493.836919,273.584011 L493.495072,273.193612 L493.495072,273.193612 Z M492.127688,271.408951 L491.671889,270.739707 L491.842813,271.241644 L492.127688,271.408951 L492.127688,271.408951 Z M493.893892,272.524368 L493.096252,270.739707 L492.526508,270.572395 L493.893892,272.524368 Z M491.614917,270.293539 L491.443993,269.847376 L491.330042,269.56852 L491.614917,270.293539 Z M486.886037,264.102998 L485.860495,263.37798 L486.259321,263.768374 L486.886037,264.102998 Z M512.524536,260.366363 L508.365406,253.562342 L508.137503,253.562342 L512.524536,260.366363 Z M483.752444,249.491082 L483.58152,249.435291 L483.752444,249.546828 L483.752444,249.491036 L483.752444,249.491082 Z M483.410596,249.100689 L483.3536,249.156481 L483.410596,249.212273 L483.410596,249.100735 L483.410596,249.100689 Z M483.239672,248.319896 L483.410596,248.431439 L483.410596,248.319896 L483.239672,248.319896 Z M483.58152,248.096815 L483.353624,248.152607 L483.41062,248.152607 L483.581543,248.096815 L483.58152,248.096815 Z M483.1827,248.041023 L483.011776,247.87371 L483.068772,247.929502 L483.182723,248.041046 L483.1827,248.041023 Z M482.78388,247.427542 L482.669929,247.427542 L482.840852,247.483334 L482.783856,247.427542 L482.78388,247.427542 Z M483.1827,246.758298 L482.954798,246.758298 L482.897802,246.81409 L483.182676,246.758298 L483.1827,246.758298 Z M483.410596,246.869836 L483.125721,246.590986 L483.239672,246.646778 L483.410596,246.869859 L483.410596,246.869836 Z M481.245566,244.4717 L481.131615,244.415908 L481.131615,244.4717 L481.245566,244.4717 Z M478.795668,244.4717 L478.624744,244.248619 L478.68174,244.527469 L478.795691,244.471677 L478.795668,244.4717 Z M458.056967,242.631264 L459.766198,241.34854 L457.886043,242.575495 L458.056967,242.631287 L458.056967,242.631264 Z M461.475435,239.954278 L461.646359,239.786965 L460.962664,240.065815 L461.475435,239.954278 L461.475435,239.954278 Z M439.825143,236.217642 L433.614929,238.169616 L437.033397,237.221511 L439.825143,236.217642 L439.825143,236.217642 Z M455.265221,226.736629 L453.612962,227.01548 L429,230.919427 L431.56385,236.663805 L431.734774,236.719597 L431.108057,239.006195 L432.93124,238.225408 L434.92534,236.496516 L438.343808,236.384978 L442.275048,234.99071 L444.952843,235.381104 L444.326126,236.329203 L449.22593,237.946552 L453.442038,239.954301 L454.410602,242.185124 L457.544196,241.515875 L464.950876,235.604185 L467.68565,235.715728 L478.85264,243.969786 L481.131615,243.523618 L483.524547,246.646778 L483.98034,251.610369 L483.239672,254.733523 L483.58152,256.295103 L485.575626,260.199051 L484.664035,257.131665 L487.227885,257.075873 L487.455781,259.306703 L486.088397,262.764482 L490.817277,269.122341 L492.583481,269.178133 L491.102146,267.226159 L492.925328,267.44924 L494.007843,266.779996 L493.55205,270.349319 L496.001949,272.245518 L497.654208,276.595634 L499.87621,277.934127 L502.724935,278.659146 L506.656168,283.566967 L508.707253,284.626605 L505.972479,284.793917 L507.225912,286.188185 L511.726895,284.738148 L513.948898,283.511193 L515.999977,276.484091 L514.97444,265.553041 L514.746544,264.437623 L509.276997,255.514322 L504.60509,249.04492 L501.984267,243.74671 L504.20627,245.587141 L504.662062,245.252516 L505.630632,249.881482 L508.137503,253.395036 L505.687605,248.710301 L505.801556,246.479471 L498.451848,237.723477 L496.685644,234.990716 L494.34969,230.36175 L492.754404,226.457802 L491.500966,225.063535 L491.216097,223.278873 L491.159101,223.223081 L487.227867,223 L485.689554,224.171181 L484.834941,228.465522 L484.037295,226.457779 L457.145358,229.748246 L455.20823,226.792404 L455.265226,226.736612 L455.265221,226.736629 Z" id="FL"></path>
                            <path d="M491.743445,215.074363 L491.685563,213.384668 L491.280542,214.849066 L491.743421,215.074363 L491.743445,215.074363 Z M492.379911,212.4835 L492.148472,211.188072 L491.97489,211.976598 L492.379911,212.4835 L492.379911,212.4835 Z M465.301309,177 L464.549126,177.168969 L462.350435,177.619551 L454.249997,179.252918 L453.497814,179.421887 L452.687773,179.534536 L448.174668,180.379383 L446.959606,180.604674 L442.041481,181.505842 L441,181.618484 L441.057882,181.731133 L448.811158,204.710923 L453.092817,212.145567 L452.05133,213.272026 L451.41487,217.66522 L452.687796,219.918144 L452.803513,224.02972 L454.365744,226.902194 L454.365744,226.958539 L454.307861,227.014883 L456.275107,230 L483.585148,226.676944 L484.395195,228.704572 L485.263095,224.367699 L486.825326,223.184919 L490.817681,223.410209 L490.817681,223.410209 L490.470524,217.327321 L491.222707,216.031893 L490.817681,213.610005 L491.627728,211.30076 L492.84279,210.005332 L491.97489,209.216806 L494,206.794918 L493.942118,206.794918 L490.470506,203.640826 L485.725963,197.051036 L483.122251,195.86825 L471.955222,186.743923 L469.235788,183.364541 L463.970506,181.224265 L463.681202,180.097806 L465.301291,177 L465.301291,177 L465.301309,177 Z" id="GA"></path>
                            <path d="M415.565918,242.000961 L415.273768,242.056483 L415.273768,242.112006 L415.565918,242.001007 L415.565918,242.000961 Z M420.999976,241.334942 L420.181948,241.334942 L420.941547,241.390465 L421,241.334942 L420.999976,241.334942 Z M414.222013,241.889956 L413.988291,242.11196 L414.046744,242.167483 L414.222037,241.889973 L414.222013,241.889956 Z M419.714505,241.445947 L417.494137,241.445947 L419.597641,241.50147 L419.714505,241.445947 Z M395.348887,188.553092 L395.348887,188.608614 L392.894797,192.493715 L393.128524,195.490786 L389.797971,198.987378 L390.674434,199.986405 L388.454066,208.866633 L389.505815,210.753677 L388.921509,211.142186 L388.979962,212.363218 L388.979962,212.751727 L390.323873,215.748805 L390.20701,217.580356 L392.368949,220.077919 L387.928212,227.2931 L387.227042,231.622209 L386,233.342755 L386.818028,235.340805 L386.058429,236.062323 L406.217032,233.953274 L405.515861,236.617342 L408.086815,241.390459 L409.430721,243 L409.430721,242.944477 L411.592654,240.613419 L416.150255,239.669896 L420.357265,240.113905 L421,239.336887 L421,239.281364 L418.020038,222.186922 L417.903175,209.699104 L417.55259,186.943522 L416.734562,186.444014 L416.500834,186 L416.383976,186 L413.462438,186.388509 L408.320537,187.054527 L396.634388,188.442064 L395.348911,188.553063 L395.348887,188.553092 Z" id="MS"></path>
                            <polygon id="SC" points="465.637233 177.962146 465.637233 177.962146 464 181.085174 464.292365 182.220819 469.613365 184.378548 472.361577 187.78549 483.646778 196.984225 486.278042 198.176656 491.072794 204.820186 494.581142 208 494.581142 208 495.165867 205.388015 494.230306 202.889591 496.74463 204.706625 498.147968 203.627761 495.750592 201.697159 498.674222 201.526812 503.235079 197.779181 502.708831 196.813877 505.515513 194.712934 505.223148 193.69085 507.269688 192.441638 507.386635 189.545738 510.602624 183.753945 512.766105 181.085174 513 180.971607 499.960619 172.965298 495.107397 173.873815 488.5 173.646687 485.225534 172 465.812651 177.962146 465.637233 177.962146"></polygon>
                            <polygon id="IL" points="382.968912 101.987234 382.853354 102.263826 385.04891 103.591489 385.742244 104.919145 388.053352 107.021273 387.995552 108.791485 386.724441 112.276592 383.83555 114.26808 381.235552 114.765953 380.715551 117.642547 381.582219 118.02978 380.715551 123.672332 378.577777 124.944671 378.98222 127.102116 378.462219 127.323392 378.462219 127.323392 378 129.757435 379.848888 134.680839 386.435549 139.991476 387.013326 142.536154 388.284437 143.808493 392.444439 143.587218 391.693329 147.2936 391.404437 151.276581 393.888884 153.212745 397.81777 154.872323 399.897768 156.42126 401.053322 159.574446 400.417769 160.736151 404.519989 163.94466 404.693323 164 404.346655 163.668084 405.502209 161.068089 409.951096 162.229788 411.048874 161.012766 410.182212 158.578728 413.822206 156.531918 412.839986 155.204261 413.706655 153.323409 413.706655 153.157451 413.475539 153.102111 413.533339 148.178707 414.80445 147.2936 417 142.370196 416.537781 140.212751 415.093336 137.612756 415.902222 134.680839 411.857784 107.408506 411.280001 106.799998 409.77778 103.536166 408.564451 102.319144 408.04445 99.1106347 408.04445 99 400.244453 100.051064 395.564457 100.604255 382.968906 101.987234 382.968906 101.987234"></polygon>
                            <polygon id="IN" points="434.908074 103.00004 426.114963 104.493405 424.103465 104.880572 416.977017 105.986764 415.482763 107.14827 413.241381 108.143841 412.379309 108.08851 411.344823 107.590722 411 107.258863 415.022989 134.526542 414.218392 137.457958 415.655177 140.05751 416.114945 142.214587 413.931039 147.13715 412.666669 148.022106 412.609175 152.944669 412.839065 153 413.068949 152.944669 413.931021 151.395996 416.057458 151.395996 418.643668 150.566349 421.862066 151.727855 422.206889 150.455733 424.045972 149.128298 426.804597 149.51547 428.298857 146.694676 432.379321 147.026529 432.321828 145.422548 435.942525 140.831849 435.367812 138.73008 437.896553 138.674749 441 136.296435 440.252873 133.586262 440.367818 133.47564 440.252873 132.535377 436.804597 112.955743 435.252867 104.603981 435.080453 103.719026 434.908038 103"></polygon>
                            <path d="M401.737058,170.773788 L401.566967,170.32141 L401.226786,170.208313 L401,170.943431 L401.056718,171 L401.680381,170.943431 L401.737099,170.773788 L401.737058,170.773788 Z M440.517669,133.791664 L440.404274,133.904761 L441.141332,136.675592 L438.079709,139.107136 L435.585048,139.163705 L436.152016,141.312514 L432.580115,146.005959 L432.636833,147.645839 L428.611361,147.306558 L427.137239,150.190486 L424.415792,149.794648 L422.601495,151.151793 L422.261319,152.452387 L419.086295,151.264885 L416.534939,152.1131 L414.43716,152.1131 L413.586706,153.696434 L413.359921,153.753003 L413.359921,153.922647 L412.509467,155.845267 L413.473311,157.202406 L409.901416,159.29467 L410.751864,161.782759 L409.674624,163.026807 L405.30897,161.839311 L404.175036,164.497044 L404.515217,164.83633 L404.628613,165.062525 L404.118341,169.699424 L403.891549,169.812521 L402.417433,170.717283 L402.360715,170.886926 L404.004922,170.660731 L415.457676,169.133949 L414.890708,166.872048 L416.818402,166.815479 L439.894001,163.761908 L456.109286,161.047624 L456.336071,160.87798 L456.732948,160.425603 L460.985212,158.163702 L464.273626,153.866083 L464.727197,152.395847 L466.881677,150.699415 L469.603123,147.250012 L470,146.684537 L469.829909,146.627968 L468.412494,146.627968 L466.598196,145.610109 L463.366477,141.708329 L462.232542,137.749996 L462.232542,137.636899 L462.119146,137.523807 L459.737881,136.166662 L458.660642,134.357139 L456.506162,136.449403 L455.145442,136.788689 L453.444534,136.110117 L451.970418,137.241067 L448.908789,135.883928 L448.115036,136.223208 L445.223499,133.735118 L443.749383,133 L440.971241,133.339286 L440.517664,133.791664 L440.517669,133.791664 Z" id="KY"></path>
                            <path d="M518.185899,179.014947 L517.554941,179.638831 L517.669657,179.752266 L518.185899,179.014947 Z M518.644777,175.725393 L518.35798,176.179128 L518.472702,176.632857 L518.644777,175.725393 Z M522.086383,170.450763 L521.225986,171.017927 L520.767102,171.698526 L522.086383,170.450763 L522.086383,170.450763 Z M529.48583,166.877631 L529.141675,166.65076 L528.395994,166.594022 L529.48583,166.877607 L529.48583,166.877631 Z M527.937111,166.537331 L527.420869,166.537331 L526.560472,166.99106 L527.937111,166.537331 Z M529.715275,167.16121 L531.378717,163.077628 L530.231517,164.779119 L529.715275,167.16121 Z M532.181755,161.77315 L532.927436,160.695537 L532.525917,160.695537 L532.181755,161.77315 Z M537,157.349263 L535.738078,151.05374 L536.827919,154.343294 L537,157.349263 Z M530.002072,143 L529.887355,143.056738 L529.715275,143.113476 L529.715275,143.113476 L529.772657,143.113476 L532.92746,148.388106 L535.393946,150.826911 L530.002096,143 L530.002096,143 L530.002072,143 Z M528.969594,143.340299 L528.510711,143.453735 L528.510711,143.453735 L528.625433,143.510473 L529.600553,143.510473 L529.48583,143.170173 L529.48583,143.170173 L529.313755,143.226911 L529.141675,143.226911 L529.141675,143.226911 L529.141675,143.34034 L529.026953,143.397078 L528.969571,143.34034 L528.969571,143.34034 L528.969594,143.340299 Z M475.911528,156.27165 L475.624725,157.122399 L475.682107,159.561204 L475.051143,159.504466 L473.559781,162.510449 L471.89634,162.68059 L468.798895,165.686559 L467.422256,165.17611 L465.644092,167.78507 L460.94057,171.982088 L458.646164,172.549251 L456.237042,174.761192 L456.122319,176.235819 L454,177.370147 L454.057382,179.865672 L454.057382,180.432836 L454.803062,180.262686 L462.833474,178.61791 L465.013158,178.164181 L465.758838,177.994031 L465.930919,177.994031 L484.974458,172.038802 L488.186625,173.683579 L494.668312,173.910443 L499.429198,173.00298 L512.220496,181 L512.449935,180.82985 L518.358021,178.44776 L518.415403,175.328356 L520.537728,171.528353 L522.832128,169.373127 L527.593015,166.253723 L528.223979,165.119395 L529.485895,165.686559 L530.059501,161.943277 L529.371179,163.247754 L526.962056,164.041782 L524.667651,164.09852 L527.478298,162.056729 L526.617895,161.149266 L527.593015,159.107475 L522.20117,158.256726 L521.971731,157.973147 L526.560537,157.122399 L528.051898,157.859712 L529.944779,157.689562 L531.493498,156.555235 L532.640704,154.343294 L533.673182,154.059709 L533.501101,150.940305 L532.18182,149.692543 L530.86254,150.883591 L531.149337,153.88956 L530.174217,150.202992 L529.428537,150.032842 L523.749889,152.358218 L526.273734,149.919407 L526.388456,148.955229 L529.027018,148.331351 L529.772698,146.402989 L531.550862,147.423887 L529.657976,144.644777 L528.338695,143.510449 L528.338695,143.510449 L505.394666,149.976127 L490.767852,153.662695 L475.968951,156.385085 L475.911569,156.27165 L475.911528,156.27165 Z" id="NC"></path>
                            <polygon id="OH" points="475.714691 106.125311 474.288162 100.095533 474.002853 98.8672439 472.405134 92 470.350927 93.2841182 465.957204 96.5781607 463.104141 99.9838679 460.878743 100.318856 456.77033 102.607939 454.487873 101.267992 447.583456 100.48635 447.583456 100.48635 443.93153 101.379651 440.336663 102.217122 436.570613 102.998757 436 103.166251 436.171184 104.059552 437.711844 112.490073 441.13552 132.254345 441.249645 133.203475 441.706139 132.756828 444.502142 132.421839 445.985737 133.147645 448.895865 135.604217 449.694722 135.269235 452.776035 136.609182 454.259629 135.492558 455.971473 136.162535 457.340942 135.827547 459.509274 133.761787 460.59344 135.548388 462.990016 136.888341 463.104141 137 463.104141 137 465.557776 135.827547 466.413698 133.985111 465.72896 132.086851 467.669042 129.183626 469.095577 128.960297 468.924392 126.503725 471.263908 123.377171 471.663337 123.823824 473.774609 122.260547 475.600572 119.580646 475.885875 107.3536 476 107.297748 475.714691 106.125294"></polygon>
                            <polygon id="TN" points="456.125921 161.103909 439.964249 163.765956 416.964945 166.760759 415.043625 166.81624 415.608718 169.03461 404.19383 170.532009 402.55506 170.75385 402.55506 170.80933 402.102988 171.363923 401.876946 171.308443 401.876946 170.864765 401.876946 170.809285 401.255346 170.864765 401.311877 170.920246 401.650933 172.473102 400.520748 173.859586 400.407727 176.410718 400.407727 176.85439 400.407727 176.90987 398.712449 180.12651 399.051506 182.400343 397.469242 184.840554 398.034335 187.058924 396 188.889085 396.113015 189 397.356221 188.889085 408.658094 187.502601 413.630914 186.837088 416.456383 186.448874 416.569398 186.448874 416.512868 186.337953 426.006441 185.06239 430.527183 184.507797 439.568679 183.065856 441.263963 182.788557 442.281128 182.677642 447.084425 181.790293 448.271118 181.568457 452.678851 180.736565 453.469979 180.625645 453.469979 180.071052 453.413449 177.630841 455.504291 176.521656 455.617312 175.079714 457.990704 172.916802 460.251081 172.36221 464.884844 168.258221 466.636635 165.707089 467.992857 166.206224 471.044362 163.266884 472.683133 163.100505 474.152375 160.161159 474.773982 160.21664 474.717451 157.831892 475 157 474.09585 157.166378 470.874816 158.053727 467.032182 158.830161 457.369086 160.771238 456.351916 160.93761 456.12588 161.103989"></polygon>
                            <path d="M528.410562,144.150156 L528.580858,144.150156 L528.751148,144.094155 L528.751148,144.094155 L528.637621,143.814261 L528.410562,144.150139 L528.410562,144.150139 L528.410562,144.150156 Z M526.480544,137.880445 L526.480544,138.160339 L526.764373,137.9924 L526.480544,137.880445 L526.480544,137.880445 Z M527.502319,135.921159 L527.445533,135.47332 L527.445533,135.47332 L527.502319,135.921159 Z M527.161728,136.59291 L527.048195,137.32065 L526.877899,137.600544 L527.161728,136.59291 Z M527.672615,135.137442 L527.729402,134.801564 L527.61587,135.137442 L527.672656,135.137442 L527.672615,135.137442 Z M528.013201,133.625996 L528.183497,133.23414 L527.899675,134.241769 L528.013201,133.625996 Z M528.069988,132.786301 L528.297047,131.55475 L528.013219,131.83465 L528.070006,132.786301 L528.069988,132.786301 Z M529.091757,127.244323 L529.20529,126.740512 L529.148503,126.852467 L529.091716,127.244323 L529.091757,127.244323 Z M528.864698,125.956788 L528.126751,126.236695 L526.991449,126.740512 L526.594094,127.244323 L526.76439,127.300324 L525.402023,135.641276 L525.912911,136.984789 L526.707621,133.514052 L528.183515,128.979709 L528.864698,126.012789 L528.864698,125.956788 L528.864698,125.956788 Z M530,125.508961 L529.829704,125.564961 L529.772917,125.788878 L529.489095,127.524247 L529.716154,126.908468 L529.999977,125.508984 L530,125.508961 Z M470.680403,146.949131 L470.283048,147.508926 L467.55832,150.923679 L465.401243,152.60307 L464.947125,154.058538 L461.654746,158.312987 L457.397355,160.552166 L457,161 L458.021775,160.832067 L467.728616,158.872781 L471.588646,158.089064 L474.824262,157.193391 L475.732504,157.025452 L475.789291,157.137413 L490.434707,154.450394 L504.90982,150.811724 L527.615887,144.430051 L527.615887,144.430051 L527.445591,144.150156 L527.388804,143.982217 L527.78616,144.374073 L527.78616,144.374073 L527.78616,144.374073 L528.240284,144.262112 L528.183497,144.206111 L527.786142,142.302804 L528.06997,142.358804 L528.978213,144.038189 L528.978213,144.038189 L528.978213,144.038189 L529.148509,143.982188 L529.262036,143.926188 L529.034976,143.478354 L526.707603,139.951639 L523.81258,140.455457 L522.506982,141.519069 L521.258147,140.399479 L517.000762,138.999988 L514.048975,138.888027 L519.782254,138.38421 L522.961106,140.511434 L523.869349,139.111944 L521.314917,135.921113 L523.131402,136.033069 L522.16639,133.458011 L519.895786,133.569972 L514.503094,129.259546 L513.82191,129.259546 L521.428443,132.954194 L520.917556,130.379136 L521.428443,129.53944 L517.568413,128.083972 L514.219271,127.860056 L512.573082,126.404588 L511.210715,127.244277 L510.699827,123.38169 L511.267478,123.493646 L511.153951,120.358793 L511.040419,120.246832 L510.926886,120.302832 L510.81336,120.246832 L510.529531,120.022915 L510.359235,119.854976 L508.54275,119.071264 L506.669501,117.727751 L504.058306,117.056001 L503.88801,117 L503.88801,117.056001 L503.547418,119.407142 L498.268258,117.167956 L498.38179,120.414771 L495.486767,125.844793 L493.727045,127.748094 L492.591743,131.050892 L489.129068,129.875319 L487.426109,137.488537 L486.063748,140.063601 L485.836689,143.422376 L484.814914,145.045783 L481.011647,146.165373 L477.889564,148.572492 L476.41367,148.796409 L474.99454,150.02796 L471.418333,148.740431 L470.793918,147.005063 L470.680386,146.949062 L470.680403,146.949131 Z" id="VA"></path>
                            <path d="M410,65.7981185 L408.570594,67.5167395 L407.712955,70.0115089 L408.113187,71.3974875 L410,65.7981185 Z M377.180862,52.7698787 L378.038507,51.6056503 L377.409566,52.1600428 L377.180862,52.7698787 L377.180862,52.7698787 Z M378.495914,50.9403769 L378.210036,50.6077402 L377.581095,50.9958201 L378.495914,50.9403597 L378.495914,50.9403769 Z M366.031503,54.0449822 L364.716451,55.486404 L365.345393,62.1391206 L361.686116,65.354601 L361,68.4592063 L363.001167,70.2332648 L362.429406,77.8838915 L364.544922,79.4361941 L365.917154,79.5470692 L370.262541,82.0972819 L373.006999,84.8692448 L376.494747,86.5878658 L377.295217,90.8566938 L377.295217,91.1338872 L377.295217,91.1338872 L378.953327,93.0742641 L378.495914,94.5711292 L379.067675,97.8420471 L380.782965,100.115061 L383.927655,101.722801 L383.870457,102 L383.870457,102 L396.334868,100.614016 L400.966139,100.059623 L408.684925,99.0062755 L408.456222,98.1746838 L408.456222,95.5690335 L406.912461,92.7970707 L406.512229,89.3043911 L407.255519,85.4236374 L406.855286,82.4299129 L408.227518,78.7154832 L407.712931,78.1056474 L407.82728,74.6684111 L408.57057,72.0627609 L407.712931,71.1757316 L406.054822,71.7301242 L405.140003,74.0585753 L402.967306,75.2782413 L403.653422,72.33996 L405.597409,69.8451906 L405.711764,68.7363997 L405.768962,68.6809393 L403.024504,66.0198515 L403.024504,62.2499786 L399.936989,59.8106467 L395.70595,59.5334532 L391.360558,58.4246624 L381.983662,55.6526995 L380.154023,54.6547894 L379.982495,54.8211078 L377.066508,54.4330335 L376.094514,54.9874261 L376.494747,50.940354 L371.806302,53.2688051 L366.088683,54.1558344 L366.031485,54.0449593 L366.031503,54.0449822 Z M377.238037,51.1066952 L377.123688,50.718621 L376.723456,50.8849393 L377.238037,51.1066952 Z M375.179695,50.718621 L375.351224,50.3859843 L375.236869,50.2751035 L375.179671,50.718621 L375.179695,50.718621 Z M379.353559,49.7761542 L379.18203,49 L379.010501,49.9424725 L379.353559,49.7761542 L379.353559,49.7761542 Z" id="WI"></path>
                            <polygon id="WV" points="486.39612 116.507354 478.332409 118.428369 475.833793 108 475.833793 108 475.720217 108.054907 475.436287 120.074967 473.619112 122.709502 471.518001 124.246315 471.120495 123.807223 468.792239 126.880849 468.9626 129.295835 467.542931 129.515383 465.612186 132.369461 466.293628 134.235586 465.441826 136.046832 463 137.199438 463 137.199438 463 137.309212 464.135733 141.151242 467.372576 144.938382 469.189751 145.926334 470.609414 145.926334 470.779774 145.981241 470.89335 146.036148 471.518001 147.73762 475.095566 149 476.515234 147.792504 477.991688 147.572961 481.114956 145.21286 484.919666 144.115139 485.941829 142.523441 486.168974 139.230272 487.531852 136.705507 489.235457 129.240995 492.699446 130.393607 493.835179 127.155322 495.595569 125.289197 498.491691 119.965238 498.378115 116.781843 503.659279 118.977291 504 116.672075 504 116.617168 504 116.617168 502.353186 113.872864 498.945982 113.488657 496.958447 114.970586 496.958447 116.068307 495.254848 116.452509 492.756231 118.153981 491.450138 118.428414 488.837945 121.996011 487.531852 116.232966 486.39612 116.507399"></polygon>
                            <polygon id="DE" points="520.000024 106.783214 520.234065 107.569929 525.090451 120 530.648959 118.531467 530.590426 118.42657 530.70745 118.42657 530.882982 118.479037 530.882982 118.479037 531 118.42657 530.882982 118.216781 529.478724 114.860137 522.632979 109.038462 522.925529 105 522.925529 105 521.521276 105 520.468082 105.734264 520 106.783214 520 106.783214"></polygon>
                            <polygon id="DC" points="510 118.562482 510.285717 118.81248 510.399999 118.875004 510.514287 118.81248 510.628575 118.875004 511.028573 119.125002 511.142861 119.312503 511.142861 119.750002 511.257143 120 512 118.500003 511.200002 118 510.228576 118.062524 510 118.562521"></polygon>
                            <path d="M530.602904,125.260261 L531,122.301369 L530.65963,124.493142 L530.432718,125.424645 L530.375969,125.534236 L530.546154,125.47942 L530.602904,125.260238 L530.602904,125.260261 Z M530.886541,120.164382 L530.773089,120.219198 L530.886541,120.547965 L530.886541,121.205493 L530.886541,120.164399 L530.886541,120.164399 L530.886541,120.164382 Z M488,116.767132 L489.304754,122.520545 L491.914256,118.958911 L493.219004,118.684936 L495.715047,116.986308 L497.416892,116.602748 L497.416892,115.506862 L499.40238,114.02741 L502.806075,114.410975 L504.451193,117.150692 L504.451193,117.150692 L504.621378,117.205507 L507.230874,117.863035 L509.102904,119.178104 L510.918207,119.945223 L511.088392,120.109607 L511.315309,119.671254 L512.279687,119.616439 L513.07388,120.054797 L512.336413,121.36986 L512.336413,121.424675 L511.258577,124.602749 L514.77573,126.794523 L518.292878,126.958906 L520.618736,128 L519.654352,125.369869 L516.64776,124.383568 L515.910293,122.137002 L517.782323,124.547951 L519.313988,124.767133 L517.952508,123.452065 L516.874671,119.561663 L517.158315,117.315092 L515.96702,114.849345 L517.215041,113.863049 L518.122693,110.684969 L517.782323,115.397288 L518.746701,116.986325 L519.654352,115.123319 L520.164907,118.191802 L519.20053,120.438374 L521.980211,121.424675 L519.597626,122.191795 L520.845648,124.438366 L522.887862,125.095894 L524.022425,123.178096 L523.908972,125.86302 L525.837728,125.808204 L527.08575,127.17806 L527.1425,127.17806 L527.539596,126.684915 L528.674159,126.191764 L529.411626,125.91779 L529.354876,125.808204 L530.829809,121.589036 L530.829809,121.424653 L530.546165,120.32876 L530.546165,120.273945 L525.156988,121.80819 L520.448545,108.821918 L520.221634,108 L519.25725,108.273974 L515.229547,109.479452 L493.048813,115.452041 L489.02111,116.493135 L488,116.767104 L488,116.767132 Z" id="MD"></path>
                            <path d="M533.252207,107.097414 L532.9646,106.42942 L532.9646,107.097414 L533.252207,107.097414 Z M533.827433,105.037769 L534,103.367791 L533.654867,104.815106 L533.827433,105.037769 L533.827433,105.037769 Z M531.469025,87.9483106 L525.429202,86.5009894 L524.393802,86.2226626 L523.415928,86 L523.415928,86 L521,91.1769382 L522.0354,92.4015911 L521.977856,96.1312081 L523.070777,96.2982065 L525.314138,101.97614 L525.199098,102.143138 L522.380516,106.151093 L522.668123,109.212723 L529.455733,111.43936 L529.513277,114 L531.066378,111.884691 L531.296465,108.823062 L532.907085,107.765407 L532.274339,105.4831 L533.482306,102.755467 L533.482306,96.7992016 L533.079652,94.850891 L530.376111,94.9065782 L531.066378,92.2346099 L531.469031,87.9483278 L531.469031,87.9483278 L531.469025,87.9483106 Z" id="NJ"></path>
                            <path d="M531.206788,92.4841119 L530.358645,93.6631347 L530.132475,94 L531.206788,92.4841119 Z M539.009694,89.733053 L541.836836,87.2627113 L541.836836,87.1504209 L539.009694,89.733053 Z M531.602587,91.473516 L531.602587,89.5646203 L531.432958,90.5752105 L531.602587,91.473516 Z M544.720513,82.4904606 L544.042004,82.3220279 L543.928916,82.8273259 L544.720513,82.4904606 Z M546.247171,81.4798704 L546.190607,82.0413107 L546.303689,81.7044454 L546.247125,81.4798704 L546.247171,81.4798704 Z M544.663972,81.5360359 L540.875604,85.0169677 L535.051697,87.4873094 L533.525044,88.7786225 L533.411956,90.0137934 L531.828757,91.3051065 L532.054932,92.989433 L534.48627,92.0349794 L538.048468,89.1716301 L542.006458,87.0943018 L548,81.4798936 L543.759287,84.6801024 L542.402263,85.2415484 L544.663972,81.5360359 L544.663972,81.5360359 Z M546.4168,79.1779845 L546.64297,78.8411192 L545.964455,79.6271344 L546.4168,79.1779845 Z M482.862699,77.1006504 L481.958014,76.9883658 L482.636529,77.8866714 L482.862699,77.1006504 Z M501.634909,59.9205605 L501.74799,59.3029722 L501.295651,59.8644182 L501.634909,59.9205836 L501.634909,59.9205605 Z M501.917619,55.8781826 L501.691449,55.990473 L501.408733,56.6080555 L501.917619,55.8781826 Z M478,87.7680324 L478.395816,89.4523531 L481.392587,90.182226 L498.581597,85.5222656 L515.883689,80.3570073 L519.050088,82.7712067 L519.672057,84.1748102 L523.347336,85.7468406 L523.460424,85.9714213 L524.42165,86.1959962 L525.439422,86.4767135 L531.376417,87.936465 L531.263329,87.655742 L531.772216,89.9576511 L532.90307,89.6769281 L533.525044,87.1504441 L533.525044,87.0942786 L532.507272,86.1398308 L533.977384,84.3432197 L533.298869,83.5010565 L531.150247,75.2478739 L531.03716,74.6864337 L530.754443,74.518001 L530.584814,72.0476593 L530.415186,69.3527427 L530.245563,66.4332511 L530.245563,66.2648185 L530.132475,66.3209839 L527.305333,57.1133535 L524.308568,52.4533931 L523.460424,46.895133 L520.915999,41 L520.576741,41.1684327 L508.759299,45.098519 L506.384502,47.6250059 L503.726989,52.6779738 L503.840076,53.8008543 L500.334425,59.0783972 L502.483046,59.8082701 L503.10502,63.7944999 L500.617136,67.0508626 L493.153488,71.5423845 L491.739917,70.9809443 L486.198727,71.7669652 L481.053329,74.8548895 L481.336046,76.4830679 L483.145415,78.055104 L482.127643,82.9957817 L478.056564,87.7118843 L478,87.7680497 L478,87.7680324 Z" id="NY"></path>
                            <polygon id="PA" points="523.980769 85.3411416 520.23077 83.7833129 519.596158 82.3923896 516.365385 80 498.711542 85.1185954 481.173079 89.7364578 478.115384 89.0131785 477.711539 87.344074 476.730772 88.0673532 475.173082 89.1244545 472.346155 91.9062955 472 92.1844824 473.615386 99.0278176 473.90385 100.25183 475.346153 106.260616 475.634617 107.428987 475.634617 107.428987 478.173081 118 486.365387 116.052708 487.519231 115.774521 488.557695 115.49634 492.653848 114.439239 515.21154 108.374818 519.307693 107.150806 520.288467 106.872619 520.288467 106.872619 520.750002 105.759882 521.788466 104.980968 523.173079 104.980968 523.346156 104.480235 525.596155 102.03221 525.826923 101.642753 526 101.531477 523.750001 95.8565137 522.653847 95.6896026 522.711561 91.9619363 521.673097 90.737924 524.096173 85.5636934 524.096173 85.5636934 523.980787 85.3411416"></polygon>
                            <path d="M550.859063,55.9437538 L550.800315,55.9437538 L550.917761,56 L550.859014,55.9437538 L550.859063,55.9437538 Z M555.2047,43.9678612 L554.734898,43.2931626 L554.734898,43.6305119 L555.2047,43.9678612 Z M554.382554,43.3493874 L554.382554,42.787139 L554.323807,42.4497897 L554.382554,43.3493874 Z M556.496647,40.9879436 L556.379195,40.9317206 L556.437942,41.1003949 L556.496689,40.9879454 L556.496647,40.9879436 Z M562.369129,38.176701 L562.251677,37.3333281 L562.016779,37.7269022 L562.369129,38.176701 Z M560.901007,38.5140503 L560.959754,37.8955771 L560.255054,38.0080267 L560.901025,38.5140503 L560.901007,38.5140503 Z M563.073828,36.6586301 L562.83893,36.6586301 L562.83893,36.7710797 L563.073828,36.6586301 Z M560.137584,37.502003 L559.609059,37.3895535 L559.550312,37.8955771 L560.13756,37.502003 L560.137584,37.502003 Z M563.132551,35.7590325 L563.661076,36.1526065 L563.484901,35.7028077 L563.132551,35.7590307 L563.132551,35.7590325 Z M561.546983,35.8152555 L561.018459,36.771078 L561.723158,36.4337287 L561.546983,35.8152555 Z M559.021812,35.8714786 L558.786914,36.2088278 L558.963089,36.7148515 L559.021836,35.8714786 L559.021812,35.8714786 Z M562.486581,34.0160584 L562.427833,33.5662596 L562.251659,33.8473841 L562.486562,34.0160584 L562.486581,34.0160584 Z M562.192954,34.2409581 L561.664429,33.7911593 L561.664429,34.1847333 L562.192954,34.2409564 L562.192954,34.2409581 Z M558.904366,35.5341299 L558.786914,34.9156561 L558.552016,35.4216797 L558.904366,35.5341299 Z M564.483221,33.5662596 L563.602353,34.8032065 L563.543606,33.9036088 L564.483203,33.5662596 L564.483221,33.5662596 Z M568.770135,29.7991945 L568.359063,29.2369461 L568.124165,29.3493957 L568.770135,29.7991945 Z M570.355703,27.2690764 L570.003359,27.100402 L569.944612,27.2690764 L570.355685,27.2690764 L570.355703,27.2690764 Z M571.119132,22.8835381 L570.590607,22.8835381 L571.177855,23.0522125 L571.119107,22.8835381 L571.119132,22.8835381 Z M572,23.4457888 L571.823825,22.4337393 L571.354029,22.3775162 L572,23.4457888 L572,23.4457888 Z M571.060403,22.5461888 L570.942957,21.4779168 L570.531878,22.2088396 L571.060403,22.5461888 Z M537,31.3734907 L545.515099,50.4899389 L545.632551,50.8835118 L549.332218,55.2128252 L549.332218,55.156579 L549.919465,54.9879041 L550.036917,51.7830863 L550.976514,50.6585906 L551.563762,47.6786708 L551.035237,47.172646 L552.033558,44.2489584 L555.439597,42.7308876 L557.671142,40.1445441 L558.493287,35.6465563 L562.075502,35.4216565 L561.605706,33.1164376 L566.068795,31.4859171 L566.362416,28.955799 L567.419465,29.1806981 L570.355703,26.8754791 L571.64765,23.8955622 L568.652683,21.0280948 L565.481548,20.409621 L564.307046,18.104402 L564.307046,16.7550055 L562.369129,17.3172545 L560.196307,16.5863312 L560.196307,14.2811122 L554.323825,2.13654406 L550.036917,0 L545.280201,3.82328986 L543.988254,3.59839015 L542.872482,1.63052044 L541.345637,2.19276884 L539.172822,12.5381416 L539.936244,15.9116332 L540.582215,22.7710648 L538.879195,28.0562013 L540.05369,28.8995736 L538.644297,31.4859171 L537.117452,31.2610174 L537,31.3734676 L537,31.3734907 Z" id="ME"></path>
                            <path d="M417.713854,67.410674 L417.431563,66.9651955 L417.375083,67.5220394 L417.713831,67.410674 L417.713854,67.410674 Z M418.61718,66.4083517 L417.939684,65.5174003 L417.826767,65.9071905 L418.61718,66.4083517 Z M419.181758,62.3990736 L418.61718,61.8979124 L418.61718,62.0092777 L419.181758,62.3990736 Z M417.77031,106 L424.771087,104.886312 L426.747113,104.496522 L435.385161,102.993039 L435.554535,103.716936 L436.119113,103.549882 L439.845334,102.770302 L443.402181,101.935034 L447.015485,101.044082 L446.959005,100.877028 L448.822119,97.2575405 L448.652745,94.2505791 L450.741683,89.0719249 L452.37896,90.0185588 L453,88.8491885 L452.830626,84.3944318 L451.30626,81.6102068 L449.047949,75.707655 L447.071923,73.5359622 L446.055679,73.2575432 L442.38592,75.7633434 L442.781124,76.2644989 L440.86156,79.8283042 L438.998447,79.4941967 L438.433869,75.7633434 L439.224283,75.4849186 L440.86156,71.7540596 L441.030934,65.1832929 L438.490331,59.6148485 L432.84454,58.6682145 L432.279962,57.8329459 L427.029381,56.329468 L424.658152,59.2250584 L424.883982,61.7308586 L423.07733,63.9582341 L423.47254,67.410674 L421.722344,68.6357328 L421.722344,64.2923415 L420.141523,67.5777278 L418.278415,70.4733181 L417.036341,71.4199521 L417.657375,74.4825962 L416.866967,77.6566114 L417.318633,81.6102068 L416.754049,83.5591632 L420.819018,91.2436176 L421.32714,94.1948964 L420.819018,99.6519697 L418.109041,105.777264 L417.770293,106 L417.77031,106 Z M429.852294,55.8283068 L428.38439,55.9396722 L429.287716,56.6078871 L429.852294,55.8283068 Z M421.270696,57.276102 L420.819036,57.276102 L421.327158,57.4988384 L421.270678,57.276102 L421.270696,57.276102 Z M431.150824,50.2041741 L430.586246,49.3132228 L430.360416,49.3689284 L431.150824,50.2041913 L431.150824,50.2041741 Z M380,54.2691406 L381.806652,55.271463 L391.06574,58.0556823 L395.356539,59.1693757 L399.53442,59.4477948 L402.583145,61.8979124 L402.583145,65.6844541 L405.293123,68.357308 L405.293123,68.3016024 L407.494979,62.0092548 L410.1485,60.1716694 L412.180982,57.944294 L412.51973,59.948933 L414.608673,56.7749179 L419.633418,54.8816499 L420.028628,54.1020639 L425.109835,54.7145962 L427.085861,55.7169128 L428.045642,53.266801 L428.948968,53.8236449 L432.901019,53.2111126 L431.941232,51.6519463 L430.191042,50.6496297 L430.52979,47.0301417 L427.085861,48.9234097 L423.924217,48.5336196 L422.907974,46.1391904 L423.246721,45.3596056 L418.955928,47.3642435 L416.189489,47.5312972 L411.2212,50.5382586 L410.656622,51.6519463 L407.607896,50.9280487 L405.688327,51.7633174 L401.849194,48.4779369 L393.324057,45.9164483 L393.154683,44.9141299 L387.678272,50.0927858 L384.573091,50.8723661 L380.169374,54.1577523 L380,54.2691176 L380,54.2691406 Z M399.986086,41.6287701 L393.380513,44.8584685 L395.582369,46.9744763 L396.429239,44.8584685 L398.687556,42.1299301 L399.986086,41.6287701 L399.986086,41.6287701 Z M392.590105,34 L388.073476,37.0626447 L387.847646,38.5661248 L391.404488,36.0046402 L392.590105,34 L392.590105,34 Z" id="MI"></path>
                        </g>
                        <g id="circles" transform="translate(118.000000, 42.000000)" fill="#E13700" fill-opacity="0.8">
                            <circle id="Oval" cx="199.5" cy="196.5" r="11.5"></circle>
                            <ellipse id="Oval-Copy-17" cx="185.5" cy="73" rx="6.5" ry="7"></ellipse>
                            <ellipse id="Oval-Copy-18" cx="117.5" cy="57" rx="6.5" ry="7"></ellipse>
                            <ellipse id="Oval-Copy-19" cx="380.5" cy="215" rx="6.5" ry="7"></ellipse>
                            <ellipse id="Oval-Copy-20" cx="312.5" cy="165" rx="6.5" ry="7"></ellipse>
                            <ellipse id="Oval-Copy-21" cx="282.5" cy="84" rx="6.5" ry="7"></ellipse>
                            <ellipse id="Oval-Copy-22" cx="271.5" cy="35" rx="6.5" ry="7"></ellipse>
                            <circle id="Oval-Copy-23" cx="236.5" cy="69.5" r="5.5"></circle>
                            <circle id="Oval-Copy-24" cx="78.5" cy="96.5" r="5.5"></circle>
                            <circle id="Oval-Copy-25" cx="201.5" cy="107.5" r="5.5"></circle>
                            <circle id="Oval-Copy-26" cx="14.5" cy="37.5" r="5.5"></circle>
                            <circle id="Oval-Copy-27" cx="312.5" cy="46.5" r="5.5"></circle>
                            <circle id="Oval-Copy-28" cx="383.5" cy="122.5" r="5.5"></circle>
                            <circle id="Oval-Copy-29" cx="311.5" cy="129.5" r="2.5"></circle>
                            <circle id="Oval-Copy" cx="122" cy="96" r="5"></circle>
                            <circle id="Oval-Copy-11" cx="260" cy="117" r="5"></circle>
                            <circle id="Oval-Copy-13" cx="165.5" cy="41.5" r="3.5"></circle>
                            <circle id="Oval-Copy-14" cx="209" cy="146" r="7"></circle>
                            <circle id="Oval-Copy-16" cx="122.5" cy="155.5" r="4.5"></circle>
                            <circle id="Oval-Copy-15" cx="165.5" cy="3.5" r="3.5"></circle>
                            <circle id="Oval-Copy-12" cx="339" cy="77" r="5"></circle>
                            <circle id="Oval-Copy-5" cx="80" cy="9" r="5"></circle>
                            <circle id="Oval-Copy-6" cx="231" cy="20" r="5"></circle>
                            <circle id="Oval-Copy-7" cx="394.5" cy="49.5" r="3.5"></circle>
                            <circle id="Oval-Copy-8" cx="347.5" cy="161.5" r="3.5"></circle>
                            <circle id="Oval-Copy-32" cx="331.5" cy="107.5" r="3.5"></circle>
                            <circle id="Oval-Copy-30" cx="386.5" cy="94.5" r="3.5"></circle>
                            <circle id="Oval-Copy-31" cx="362.5" cy="88.5" r="3.5"></circle>
                            <circle id="Oval-Copy-9" cx="62.5" cy="45.5" r="4.5"></circle>
                            <circle id="Oval-Copy-10" cx="62" cy="161" r="3"></circle>
                            <circle id="Oval-Copy-2" cx="30.5" cy="84.5" r="3.5"></circle>
                            <circle id="Oval-Copy-3" cx="5" cy="125" r="5"></circle>
                            <circle id="Oval-Copy-4" cx="287" cy="180" r="5"></circle>
                        </g>
                    </g>
                </g>
            </g>
        </g>
    </g>
</svg>