<?xml version="1.0" encoding="UTF-8"?>
<svg width="32px" height="125px" viewBox="0 0 32 125" version="1.1" xmlns="http://www.w3.org/2000/svg" xmlns:xlink="http://www.w3.org/1999/xlink">
    <!-- Generator: Sketch 49.2 (51160) - http://www.bohemiancoding.com/sketch -->
    <title>icon/social lockup active</title>
    <desc>Created with Sketch.</desc>
    <defs>
        <filter x="-13.1%" y="-2.9%" width="126.2%" height="108.2%" filterUnits="objectBoundingBox" id="filter-1">
            <feOffset dx="0" dy="3" in="SourceAlpha" result="shadowOffsetOuter1"></feOffset>
            <feGaussianBlur stdDeviation="3" in="shadowOffsetOuter1" result="shadowBlurOuter1"></feGaussianBlur>
            <feColorMatrix values="0 0 0 0 0   0 0 0 0 0   0 0 0 0 0  0 0 0 0.16 0" type="matrix" in="shadowBlurOuter1" result="shadowMatrixOuter1"></feColorMatrix>
            <feMerge>
                <feMergeNode in="shadowMatrixOuter1"></feMergeNode>
                <feMergeNode in="SourceGraphic"></feMergeNode>
            </feMerge>
        </filter>
    </defs>
    <g id="Page-1" stroke="none" stroke-width="1" fill="none" fill-rule="evenodd">
        <g id="Social-Share-Options" transform="translate(-104.000000, -130.000000)" fill="#434878">
            <g id="Share" filter="url(#filter-1)" transform="translate(80.000000, 61.000000)">
                <g id="icon/social-lockup-active" transform="translate(30.000000, 72.000000)">
                    <g id="Group" transform="translate(0.000000, 97.000000)" fill-rule="nonzero">
                        <path d="M0.231413992,0.444444444 C0.102142254,0.444444444 0,0.574051282 0,0.735042735 L0,1.58867521 L10.0329163,10.1885538 L20.0658326,1.58867521 L20.0658326,0.735042735 C20.0658326,0.574051282 19.9636904,0.444444444 19.8344186,0.444444444 L0.231413992,0.444444444 Z M0,2.66666667 L0,14.9171863 C0,15.0781778 0.102144511,15.2077846 0.231419105,15.2077846 L19.8348569,15.2077846 C19.9641315,15.2077846 20.066276,15.0781778 20.066276,14.9171863 L20.066276,2.66666667 L10.3093479,11.0304342 C10.1438665,11.1730438 9.92240946,11.1730438 9.75692809,11.0304342 L0,2.66666667 Z" id="Shape"></path>
                    </g>
                    <path d="M17.8090136,53.508498 C17.8090136,58.8451127 13.9471041,65 6.88525999,65 C4.7168832,65 2.69938052,64.3318465 1,63.1862647 C1.30057866,63.2231793 1.60583559,63.2416365 1.91577078,63.2416365 C3.71456447,63.2416365 5.36950145,62.5968623 6.6840945,61.5128047 C5.00342705,61.4808121 3.58591213,60.3130816 3.09703322,58.7085288 C3.33211614,58.7552872 3.57187733,58.7798969 3.81982548,58.7798969 C4.16952595,58.7798969 4.50870031,58.7306775 4.83150074,58.6383911 C3.07481145,58.2680151 1.75203143,56.6351611 1.75203143,54.6786895 L1.75203143,54.6270092 C2.26897995,54.9297085 2.8619503,55.1118203 3.49117722,55.1327386 C2.4607889,54.4079828 1.78244017,53.1713451 1.78244017,51.7710528 C1.78244017,51.0303007 1.97190999,50.336307 2.30289738,49.7395216 C4.19642598,52.1832654 7.025608,53.7915097 10.2161861,53.9600861 C10.1506904,53.6647697 10.116773,53.3559179 10.116773,53.0396832 C10.116773,50.8088134 11.8360361,49 13.9552911,49 C15.0605317,49 16.0581722,49.4909636 16.7575731,50.2760132 C17.632409,50.0951319 18.4546145,49.7592094 19.1961198,49.296547 C18.909576,50.2390987 18.3002317,51.0303007 17.508435,51.5311082 C18.2850273,51.4326694 19.0241935,51.216104 19.7130683,50.8949473 C19.1984589,51.7046066 18.5470103,52.4158271 17.797318,52.9855418 C17.8043354,53.1590402 17.8090136,53.3325386 17.8090136,53.508498 Z" id="Fill-184"></path>
                    <path d="M13.8976405,2.656 L12.4661991,2.657 C11.3436677,2.657 11.1260049,3.218 11.1260049,4.041 L11.1260049,5.857 L13.8035417,5.857 L13.4547111,8.702 L11.1260049,8.702 L11.1260049,16 L8.33440908,16 L8.33440908,8.702 L6,8.702 L6,5.857 L8.33440908,5.857 L8.33440908,3.76 C8.33440908,1.325 9.74779112,0 11.8113099,0 C12.7998219,0 13.649562,0.077 13.8976405,0.112 L13.8976405,2.656 Z" id="Fill-183"></path>
                </g>
            </g>
        </g>
    </g>
</svg>