<svg width="563" height="320" viewBox="0 0 563 320" fill="none" xmlns="http://www.w3.org/2000/svg">
<mask id="mask0" mask-type="alpha" maskUnits="userSpaceOnUse" x="0" y="0" width="563" height="320">
<rect width="563" height="320" fill="#D7D9ED"/>
</mask>
<g mask="url(#mask0)">
<rect x="-668" width="1440" height="320" fill="#25284E"/>
<mask id="mask1" mask-type="alpha" maskUnits="userSpaceOnUse" x="-610" y="1" width="1366" height="541">
<rect opacity="0.5" x="-610" y="541.571" width="540.571" height="1365" transform="rotate(-90 -610 541.571)" fill="#D7D9ED"/>
</mask>
<g mask="url(#mask1)">
<line x1="-971.008" y1="249.021" x2="1069.02" y2="249.021" stroke="url(#paint0_linear)" stroke-width="0.5"/>
<line x1="-966.734" y1="129.166" x2="1075.43" y2="129.166" stroke="url(#paint1_linear)" stroke-width="0.5"/>
<line x1="-971.008" y1="208.662" x2="1069.02" y2="208.662" stroke="url(#paint2_linear)" stroke-width="0.5"/>
<line x1="-966.734" y1="87.584" x2="1075.43" y2="87.584" stroke="url(#paint3_linear)" stroke-width="0.5"/>
<line x1="-971.008" y1="170.749" x2="1069.02" y2="170.749" stroke="url(#paint4_linear)" stroke-width="0.5"/>
<line x1="-960.324" y1="289.381" x2="1079.7" y2="289.381" stroke="url(#paint5_linear)" stroke-width="0.5"/>
<line x1="-966.734" y1="44.7783" x2="1075.43" y2="44.7783" stroke="url(#paint6_linear)" stroke-width="0.5"/>
</g>
<g opacity="0.9">
<path d="M341.484 108H324.082V356.696H341.484V108Z" fill="url(#paint7_linear)"/>
<path d="M278.402 300.904H261V356.695H278.402V300.904Z" fill="url(#paint8_linear)"/>
<path d="M374.84 148.661H357.438V356.695H374.84V148.661Z" fill="url(#paint9_linear)"/>
<path d="M309.582 164.737H292.18V356.696H309.582V164.737Z" fill="url(#paint10_linear)"/>
<path d="M409.644 184.595H392.242V356.696H409.644V184.595Z" fill="url(#paint11_linear)"/>
<path d="M440.099 148.661H423.422V356.695H440.099V148.661Z" fill="url(#paint12_linear)"/>
<path d="M470.552 183.649H453.875V356.696H470.552V183.649Z" fill="url(#paint13_linear)"/>
<path d="M501.005 238.494H484.328V356.695H501.005V238.494Z" fill="url(#paint14_linear)"/>
<path d="M531.458 256.461H514.781V356.696H531.458V256.461Z" fill="url(#paint15_linear)"/>
<path d="M561.915 272.536H545.238V356.695H561.915V272.536Z" fill="url(#paint16_linear)"/>
</g>
<rect width="23.7176" height="19.6517" transform="matrix(-1 0 0 1 330.117 277.412)" fill="#3E447C"/>
<path d="M333.508 271.991H309.985L306.576 277.752H330.099L333.508 271.991Z" fill="#3E447C"/>
<path d="M327.089 272.472H303.69L306.742 277.752H330.141L327.089 272.472Z" fill="#1E2248"/>
<rect width="21.6846" height="18.2964" transform="matrix(-1 0 0 1 478.523 255.05)" fill="#3E447C"/>
<rect width="21.6846" height="18.2964" transform="matrix(-1 0 0 1 361.293 221.845)" fill="#3E447C"/>
<rect width="21.6846" height="17.6188" transform="matrix(-1 0 0 1 562.555 305.195)" fill="#3E447C"/>
<rect width="21.6846" height="24.3952" transform="matrix(-1 0 0 1 475.137 298.419)" fill="#3E447C"/>
<rect width="21.6846" height="24.3952" transform="matrix(-1 0 0 1 533.414 298.419)" fill="#3E447C"/>
<rect width="21.6846" height="23.7176" transform="matrix(-1 0 0 1 475.137 274.023)" fill="#3E447C"/>
<rect width="7.21392" height="1.88951" transform="matrix(-4.38884e-08 1 1 4.35351e-08 463.215 273.889)" fill="#1E2248"/>
<path d="M467.625 317.147C467.633 317.173 467.653 317.19 467.674 317.19L468.452 317.19L468.452 319.661C468.452 319.699 468.461 319.73 468.506 319.73L468.995 319.73C469.025 319.73 469.049 319.699 469.049 319.661L469.049 317.19L469.829 317.19C469.851 317.19 469.87 317.173 469.879 317.147C469.887 317.121 469.882 317.091 469.867 317.071L468.791 315.674C468.781 315.66 468.768 315.653 468.753 315.653C468.739 315.653 468.725 315.66 468.715 315.673L467.636 317.071C467.621 317.091 467.616 317.121 467.625 317.147Z" fill="#1E2248"/>
<path d="M470.406 317.147C470.414 317.173 470.434 317.19 470.456 317.19L471.233 317.19L471.233 319.661C471.233 319.699 471.242 319.73 471.287 319.73L471.776 319.73C471.806 319.73 471.83 319.699 471.83 319.661L471.83 317.19L472.61 317.19C472.632 317.19 472.652 317.173 472.66 317.147C472.668 317.121 472.664 317.091 472.648 317.071L471.573 315.674C471.563 315.66 471.549 315.653 471.534 315.653C471.52 315.653 471.506 315.66 471.496 315.673L470.418 317.071C470.402 317.091 470.397 317.121 470.406 317.147Z" fill="#1E2248"/>
<path d="M525.906 317.147C525.914 317.173 525.934 317.19 525.956 317.19L526.733 317.19L526.733 319.661C526.733 319.699 526.742 319.73 526.787 319.73L527.276 319.73C527.306 319.73 527.33 319.699 527.33 319.661L527.33 317.19L528.11 317.19C528.132 317.19 528.152 317.173 528.16 317.147C528.168 317.121 528.164 317.091 528.148 317.071L527.073 315.674C527.063 315.66 527.049 315.653 527.034 315.653C527.02 315.653 527.006 315.66 526.996 315.673L525.918 317.071C525.902 317.091 525.897 317.121 525.906 317.147Z" fill="#1E2248"/>
<path d="M528.687 317.147C528.696 317.173 528.715 317.19 528.737 317.19L529.515 317.19L529.515 319.661C529.515 319.699 529.523 319.73 529.568 319.73L530.058 319.73C530.087 319.73 530.112 319.699 530.112 319.661L530.112 317.19L530.891 317.19C530.913 317.19 530.933 317.173 530.941 317.147C530.95 317.121 530.945 317.091 530.93 317.071L529.854 315.674C529.844 315.66 529.83 315.653 529.816 315.653C529.801 315.653 529.788 315.66 529.778 315.673L528.699 317.071C528.683 317.091 528.679 317.121 528.687 317.147Z" fill="#1E2248"/>
<rect width="21.6846" height="24.3952" transform="matrix(-1 0 0 1 504.277 280.122)" fill="#3E447C"/>
<rect width="21.7294" height="17.6354" transform="matrix(-1 0 0 1 504.324 305.16)" fill="#3E447C"/>
<rect width="5.35361" height="1.88951" transform="matrix(-5.9649e-08 1 1 3.20321e-08 492.359 305.16)" fill="#1E2248"/>
<path d="M496.769 298.664C496.778 298.691 496.797 298.708 496.819 298.708L497.597 298.708L497.597 301.178C497.597 301.217 497.605 301.248 497.65 301.248L498.14 301.248C498.169 301.248 498.194 301.217 498.194 301.178L498.194 298.708L498.973 298.708C498.995 298.708 499.015 298.691 499.023 298.665C499.032 298.638 499.027 298.608 499.012 298.588L497.936 297.191C497.926 297.178 497.912 297.171 497.898 297.171C497.883 297.171 497.87 297.178 497.86 297.191L496.781 298.588C496.765 298.608 496.761 298.638 496.769 298.664Z" fill="#1E2248"/>
<path d="M499.546 298.664C499.555 298.691 499.575 298.708 499.596 298.708L500.374 298.708L500.374 301.178C500.374 301.217 500.383 301.248 500.428 301.248L500.917 301.248C500.947 301.248 500.971 301.217 500.971 301.178L500.971 298.708L501.751 298.708C501.773 298.708 501.792 298.691 501.801 298.665C501.809 298.638 501.804 298.608 501.789 298.588L500.713 297.191C500.703 297.178 500.689 297.171 500.675 297.171C500.661 297.171 500.647 297.178 500.637 297.191L499.558 298.588C499.543 298.608 499.538 298.638 499.546 298.664Z" fill="#1E2248"/>
<rect x="496.77" y="301.562" width="5.03869" height="0.627297" fill="#1E2248"/>
<rect width="27.7834" height="37.2704" transform="matrix(-1 0 0 1 442.453 264.493)" fill="#3E447C"/>
<path d="M425.007 284.309C425.034 284.378 425.096 284.423 425.166 284.423L427.656 284.423L427.656 288.91C427.656 289.011 427.685 289.094 427.829 289.094L429.396 289.094C429.491 289.094 429.568 289.011 429.568 288.91L429.568 284.423L432.066 284.423C432.135 284.423 432.198 284.378 432.225 284.31C432.252 284.241 432.237 284.162 432.188 284.109L428.743 280.434C428.711 280.4 428.667 280.38 428.621 280.38C428.575 280.38 428.531 280.4 428.499 280.434L425.044 284.109C424.995 284.162 424.98 284.24 425.007 284.309Z" fill="#1E2248"/>
<rect width="25.7505" height="21.007" transform="matrix(-1 0 0 1 444.641 242.852)" fill="#3E447C"/>
<rect width="11.3947" height="2.68111" transform="matrix(-4.37114e-08 1 1 4.37114e-08 430.227 242.852)" fill="#1E2248"/>
<path d="M444.301 242.852H418.336L413.468 247.543H439.432L444.301 242.852Z" fill="#3E447B"/>
<rect width="14.2305" height="25.7505" transform="matrix(-1 0 0 1 387.719 263.181)" fill="#3E447C"/>
<rect width="14.2305" height="25.7505" transform="matrix(-1 0 0 1 403.984 263.181)" fill="#3E447C"/>
<rect width="33.2046" height="20.3293" transform="matrix(-1 0 0 1 444.641 302.484)" fill="#3E447C"/>
<rect width="30.494" height="33.2046" transform="matrix(-1 0 0 1 403.98 289.608)" fill="#3E447C"/>
<rect width="10.1647" height="2.71058" transform="matrix(-4.36254e-08 1 1 4.37976e-08 387.039 289.608)" fill="#353A69"/>
<line x1="373.488" y1="261.005" x2="403.651" y2="261.005" stroke="#3E447C" stroke-width="3"/>
<line x1="373.483" y1="258.294" x2="402.31" y2="258.183" stroke="#3E447C" stroke-width="3"/>
<line x1="374.164" y1="255.583" x2="403.707" y2="255.509" stroke="#3E447C" stroke-width="3"/>
<line x1="371.455" y1="252.873" x2="400.947" y2="252.836" stroke="#3E447C" stroke-width="3"/>
<line x1="378.91" y1="250.162" x2="408.049" y2="250.162" stroke="#3E447C" stroke-width="3"/>
<path d="M301.16 305.974H282.716V322.814H301.16V305.974Z" fill="#3E447C"/>
<rect width="11.073" height="9.64977" transform="matrix(-1 0 0 1 301.16 295.919)" fill="#3E447C"/>
<rect width="29.8164" height="7.45409" transform="matrix(-1 0 0 1 366.711 305.193)" fill="#3E447C"/>
<rect width="31.1716" height="9.48702" transform="matrix(-1 0 0 1 367.391 313.326)" fill="#3E447C"/>
<rect width="30.3078" height="33.2479" transform="matrix(-1 0 0 1 405.152 215.745)" fill="#3E447C"/>
<rect width="30.3078" height="33.2479" transform="matrix(-1 0 0 1 367.207 240.818)" fill="#3E447C"/>
<rect width="28.4611" height="25.0728" transform="matrix(-1 0 0 1 332.152 297.74)" fill="#3E447C"/>
<path d="M378.917 221.894C378.928 221.931 378.956 221.955 378.986 221.955L380.071 221.955L380.071 225.401C380.071 225.454 380.083 225.498 380.146 225.498L380.828 225.498C380.87 225.498 380.903 225.454 380.903 225.401L380.903 221.955L381.991 221.955C382.022 221.955 382.049 221.931 382.061 221.895C382.072 221.858 382.066 221.816 382.044 221.789L380.544 219.84C380.53 219.821 380.511 219.811 380.491 219.811C380.471 219.811 380.452 219.821 380.438 219.839L378.933 221.788C378.911 221.816 378.905 221.858 378.917 221.894Z" fill="#353A69"/>
<path d="M382.788 221.894C382.8 221.931 382.827 221.955 382.857 221.955L383.942 221.955L383.942 225.401C383.942 225.454 383.954 225.498 384.017 225.498L384.699 225.498C384.741 225.498 384.775 225.454 384.775 225.401L384.775 221.955L385.862 221.955C385.893 221.955 385.92 221.931 385.932 221.895C385.943 221.858 385.937 221.816 385.916 221.789L384.415 219.84C384.401 219.821 384.382 219.811 384.362 219.811C384.342 219.811 384.323 219.821 384.309 219.839L382.804 221.788C382.783 221.816 382.776 221.858 382.788 221.894Z" fill="#353A69"/>
<rect x="378.91" y="225.936" width="7.02789" height="0.874943" fill="#353A69"/>
<path d="M356.667 266.526C356.678 266.563 356.706 266.586 356.736 266.586L357.821 266.586L357.821 270.033C357.821 270.086 357.833 270.13 357.896 270.13L358.578 270.13C358.62 270.13 358.653 270.086 358.653 270.033L358.653 266.586L359.741 266.586C359.772 266.586 359.799 266.563 359.811 266.526C359.822 266.49 359.816 266.448 359.794 266.42L358.294 264.471C358.28 264.453 358.261 264.443 358.241 264.443C358.221 264.443 358.202 264.453 358.188 264.471L356.683 266.42C356.661 266.448 356.655 266.49 356.667 266.526Z" fill="#353A69"/>
<path d="M360.538 266.526C360.55 266.563 360.577 266.586 360.607 266.586L361.692 266.586L361.692 270.033C361.692 270.086 361.704 270.13 361.767 270.13L362.449 270.13C362.491 270.13 362.525 270.086 362.525 270.033L362.525 266.586L363.612 266.586C363.643 266.586 363.67 266.563 363.682 266.526C363.693 266.49 363.687 266.448 363.666 266.42L362.165 264.471C362.151 264.453 362.132 264.443 362.112 264.443C362.092 264.443 362.073 264.453 362.059 264.471L360.554 266.42C360.533 266.448 360.526 266.49 360.538 266.526Z" fill="#353A69"/>
<rect x="356.66" y="270.567" width="7.02789" height="0.874943" fill="#353A69"/>
<line x1="277.586" y1="321.858" x2="283.173" y2="293.924" stroke="#3E447C" stroke-width="2"/>
<line x1="274.06" y1="322.23" x2="280.742" y2="299.393" stroke="#3E447C" stroke-width="2"/>
<line x1="270.246" y1="321.692" x2="276.744" y2="306.611" stroke="#3E447C" stroke-width="2"/>
<rect width="33.2046" height="25.0728" transform="matrix(-1 0 0 1 368.07 279.445)" fill="#3E447C"/>
<rect width="36.1949" height="4.69193" transform="matrix(-1 0 0 1 369.703 274.701)" fill="#1E2248"/>
<rect width="13.4055" height="3.35138" transform="matrix(-1 0 0 1 358.309 284.756)" fill="#1E2248"/>
<rect width="33.2046" height="28.4611" transform="matrix(-1 0 0 1 406.691 186.607)" fill="#3E447C"/>
</g>
<defs>
<linearGradient id="paint0_linear" x1="1097.81" y1="249.271" x2="-1016.25" y2="249.271" gradientUnits="userSpaceOnUse">
<stop stop-color="#393E6D" stop-opacity="0"/>
<stop offset="0.489583" stop-color="#0B0D25"/>
<stop offset="1" stop-color="#393E6D" stop-opacity="0"/>
</linearGradient>
<linearGradient id="paint1_linear" x1="1104.25" y1="129.416" x2="-1012.02" y2="129.416" gradientUnits="userSpaceOnUse">
<stop stop-color="#393E6D" stop-opacity="0"/>
<stop offset="0.489583" stop-color="#0B0D25"/>
<stop offset="1" stop-color="#393E6D" stop-opacity="0"/>
</linearGradient>
<linearGradient id="paint2_linear" x1="1097.81" y1="208.912" x2="-1016.25" y2="208.912" gradientUnits="userSpaceOnUse">
<stop stop-color="#393E6D" stop-opacity="0"/>
<stop offset="0.489583" stop-color="#0B0D25"/>
<stop offset="1" stop-color="#393E6D" stop-opacity="0"/>
</linearGradient>
<linearGradient id="paint3_linear" x1="1104.25" y1="87.834" x2="-1012.02" y2="87.8336" gradientUnits="userSpaceOnUse">
<stop stop-color="#393E6D" stop-opacity="0"/>
<stop offset="0.489583" stop-color="#0B0D25"/>
<stop offset="1" stop-color="#393E6D" stop-opacity="0"/>
</linearGradient>
<linearGradient id="paint4_linear" x1="1097.81" y1="170.999" x2="-1016.25" y2="170.999" gradientUnits="userSpaceOnUse">
<stop stop-color="#393E6D" stop-opacity="0"/>
<stop offset="0.489583" stop-color="#0B0D25"/>
<stop offset="1" stop-color="#393E6D" stop-opacity="0"/>
</linearGradient>
<linearGradient id="paint5_linear" x1="1108.49" y1="289.631" x2="-1005.57" y2="289.63" gradientUnits="userSpaceOnUse">
<stop stop-color="#393E6D" stop-opacity="0"/>
<stop offset="0.489583" stop-color="#0B0D25"/>
<stop offset="1" stop-color="#393E6D" stop-opacity="0"/>
</linearGradient>
<linearGradient id="paint6_linear" x1="1104.25" y1="45.0283" x2="-1012.02" y2="45.0281" gradientUnits="userSpaceOnUse">
<stop stop-color="#393E6D" stop-opacity="0"/>
<stop offset="0.489583" stop-color="#0B0D25"/>
<stop offset="1" stop-color="#393E6D" stop-opacity="0"/>
</linearGradient>
<linearGradient id="paint7_linear" x1="332.783" y1="108" x2="332.783" y2="356.696" gradientUnits="userSpaceOnUse">
<stop offset="0.322917" stop-color="#E24000"/>
<stop offset="1" stop-color="#E24000" stop-opacity="0"/>
</linearGradient>
<linearGradient id="paint8_linear" x1="269.701" y1="300.904" x2="269.701" y2="356.695" gradientUnits="userSpaceOnUse">
<stop stop-color="#E24000"/>
<stop offset="1" stop-color="#E24000" stop-opacity="0"/>
</linearGradient>
<linearGradient id="paint9_linear" x1="366.139" y1="148.661" x2="366.139" y2="356.695" gradientUnits="userSpaceOnUse">
<stop offset="0.322917" stop-color="#E24000"/>
<stop offset="1" stop-color="#E24000" stop-opacity="0"/>
</linearGradient>
<linearGradient id="paint10_linear" x1="300.881" y1="164.737" x2="300.881" y2="356.696" gradientUnits="userSpaceOnUse">
<stop offset="0.322917" stop-color="#E24000"/>
<stop offset="1" stop-color="#E24000" stop-opacity="0"/>
</linearGradient>
<linearGradient id="paint11_linear" x1="400.943" y1="184.595" x2="400.943" y2="356.696" gradientUnits="userSpaceOnUse">
<stop offset="0.322917" stop-color="#E24000"/>
<stop offset="1" stop-color="#E24000" stop-opacity="0"/>
</linearGradient>
<linearGradient id="paint12_linear" x1="431.76" y1="148.661" x2="431.76" y2="356.695" gradientUnits="userSpaceOnUse">
<stop offset="0.322917" stop-color="#E24000"/>
<stop offset="1" stop-color="#E24000" stop-opacity="0"/>
</linearGradient>
<linearGradient id="paint13_linear" x1="462.214" y1="183.649" x2="462.214" y2="356.696" gradientUnits="userSpaceOnUse">
<stop offset="0.322917" stop-color="#E24000"/>
<stop offset="1" stop-color="#E24000" stop-opacity="0"/>
</linearGradient>
<linearGradient id="paint14_linear" x1="492.667" y1="238.494" x2="492.667" y2="356.695" gradientUnits="userSpaceOnUse">
<stop offset="0.322917" stop-color="#E24000"/>
<stop offset="1" stop-color="#E24000" stop-opacity="0"/>
</linearGradient>
<linearGradient id="paint15_linear" x1="523.12" y1="256.461" x2="523.12" y2="356.696" gradientUnits="userSpaceOnUse">
<stop offset="0.322917" stop-color="#E24000"/>
<stop offset="1" stop-color="#E24000" stop-opacity="0"/>
</linearGradient>
<linearGradient id="paint16_linear" x1="553.577" y1="272.536" x2="553.577" y2="356.695" gradientUnits="userSpaceOnUse">
<stop offset="0.322917" stop-color="#E24000"/>
<stop offset="1" stop-color="#E24000" stop-opacity="0"/>
</linearGradient>
</defs>
</svg>
