<svg width="563" height="320" viewBox="0 0 563 320" fill="none" xmlns="http://www.w3.org/2000/svg">
<mask id="mask0" mask-type="alpha" maskUnits="userSpaceOnUse" x="0" y="0" width="563" height="320">
<rect width="563" height="320" fill="#D7D9ED"/>
</mask>
<g mask="url(#mask0)">
<rect width="563" height="320" fill="#D9E4EE"/>
<rect width="563" height="320" fill="#3E447C"/>
<rect x="282" y="137" width="348" height="31" fill="url(#paint0_linear)" fill-opacity="0.6"/>
<rect x="282" y="199" width="348" height="31" fill="url(#paint1_linear)" fill-opacity="0.2"/>
<rect x="282" y="261" width="348" height="31" fill="url(#paint2_linear)" fill-opacity="0.2"/>
<line x1="282" y1="136.75" x2="630" y2="136.75" stroke="url(#paint3_linear)" stroke-width="0.5"/>
<line x1="282" y1="198.75" x2="630" y2="198.75" stroke="url(#paint4_linear)" stroke-width="0.5"/>
<line x1="282" y1="229.75" x2="630" y2="229.75" stroke="url(#paint5_linear)" stroke-width="0.5"/>
<line x1="282" y1="260.75" x2="630" y2="260.75" stroke="url(#paint6_linear)" stroke-width="0.5"/>
<line x1="282" y1="291.75" x2="630" y2="291.75" stroke="url(#paint7_linear)" stroke-width="0.5"/>
<line x1="282" y1="167.75" x2="630" y2="167.75" stroke="url(#paint8_linear)" stroke-width="0.5"/>
<line x1="473.25" y1="137" x2="473.25" y2="485" stroke="url(#paint9_linear)" stroke-width="0.5"/>
<line x1="410.25" y1="137" x2="410.25" y2="485" stroke="url(#paint10_linear)" stroke-width="0.5"/>
<line x1="346.25" y1="137" x2="346.25" y2="485" stroke="url(#paint11_linear)" stroke-width="0.5"/>
<line x1="282.25" y1="137" x2="282.25" y2="485" stroke="url(#paint12_linear)" stroke-width="0.5"/>
<line x1="537.25" y1="137" x2="537.25" y2="485" stroke="url(#paint13_linear)" stroke-width="0.5"/>
</g>
<defs>
<linearGradient id="paint0_linear" x1="282" y1="153" x2="561" y2="153" gradientUnits="userSpaceOnUse">
<stop stop-color="#25284E"/>
<stop offset="1" stop-color="#25284E" stop-opacity="0"/>
</linearGradient>
<linearGradient id="paint1_linear" x1="282" y1="215" x2="561" y2="215" gradientUnits="userSpaceOnUse">
<stop stop-color="#25284E"/>
<stop offset="1" stop-color="#25284E" stop-opacity="0"/>
</linearGradient>
<linearGradient id="paint2_linear" x1="282" y1="277" x2="561" y2="277" gradientUnits="userSpaceOnUse">
<stop stop-color="#25284E"/>
<stop offset="1" stop-color="#25284E" stop-opacity="0"/>
</linearGradient>
<linearGradient id="paint3_linear" x1="282" y1="137" x2="611" y2="137" gradientUnits="userSpaceOnUse">
<stop stop-color="#25284E"/>
<stop offset="1" stop-color="#25284E" stop-opacity="0"/>
</linearGradient>
<linearGradient id="paint4_linear" x1="282" y1="199" x2="611" y2="199" gradientUnits="userSpaceOnUse">
<stop stop-color="#25284E"/>
<stop offset="1" stop-color="#25284E" stop-opacity="0"/>
</linearGradient>
<linearGradient id="paint5_linear" x1="282" y1="230" x2="611" y2="230" gradientUnits="userSpaceOnUse">
<stop stop-color="#25284E"/>
<stop offset="1" stop-color="#25284E" stop-opacity="0"/>
</linearGradient>
<linearGradient id="paint6_linear" x1="282" y1="261" x2="611" y2="261" gradientUnits="userSpaceOnUse">
<stop stop-color="#25284E"/>
<stop offset="1" stop-color="#25284E" stop-opacity="0"/>
</linearGradient>
<linearGradient id="paint7_linear" x1="282" y1="292" x2="611" y2="292" gradientUnits="userSpaceOnUse">
<stop stop-color="#25284E"/>
<stop offset="1" stop-color="#25284E" stop-opacity="0"/>
</linearGradient>
<linearGradient id="paint8_linear" x1="282" y1="168" x2="611" y2="168" gradientUnits="userSpaceOnUse">
<stop stop-color="#25284E"/>
<stop offset="1" stop-color="#25284E" stop-opacity="0"/>
</linearGradient>
<linearGradient id="paint9_linear" x1="473" y1="137" x2="473" y2="466" gradientUnits="userSpaceOnUse">
<stop stop-color="#25284E" stop-opacity="0.38"/>
<stop offset="1" stop-color="#25284E" stop-opacity="0"/>
</linearGradient>
<linearGradient id="paint10_linear" x1="410" y1="137" x2="410" y2="466" gradientUnits="userSpaceOnUse">
<stop stop-color="#1B1E40"/>
<stop offset="1" stop-color="#25284E" stop-opacity="0"/>
</linearGradient>
<linearGradient id="paint11_linear" x1="346" y1="137" x2="346" y2="466" gradientUnits="userSpaceOnUse">
<stop stop-color="#1B1E40"/>
<stop offset="1" stop-color="#25284E" stop-opacity="0"/>
</linearGradient>
<linearGradient id="paint12_linear" x1="282" y1="137" x2="282" y2="466" gradientUnits="userSpaceOnUse">
<stop stop-color="#1B1E40"/>
<stop offset="1" stop-color="#25284E" stop-opacity="0"/>
</linearGradient>
<linearGradient id="paint13_linear" x1="537" y1="137" x2="537" y2="466" gradientUnits="userSpaceOnUse">
<stop stop-color="#25284E" stop-opacity="0.29"/>
<stop offset="1" stop-color="#25284E" stop-opacity="0"/>
</linearGradient>
</defs>
</svg>
