<svg width="21" height="17" viewBox="0 0 21 17" fill="none" xmlns="http://www.w3.org/2000/svg">
<path fill-rule="evenodd" clip-rule="evenodd" d="M0 12.9229H1.61538V15.3459H19.3846V12.9229H21V16.9613H0V12.9229Z" fill="#E24000"/>
<path fill-rule="evenodd" clip-rule="evenodd" d="M16.2166 8.35408L11.0764 13.4942C10.761 13.8096 10.2496 13.8096 9.93419 13.4942L4.79406 8.35408C4.47864 8.03866 4.47864 7.52725 4.79406 7.21183C5.10949 6.89641 5.62089 6.89641 5.93631 7.21183L9.69762 10.9731L9.69762 2.95292e-07L11.313 2.24681e-07L11.313 10.9731L15.0743 7.21183C15.3897 6.89641 15.9011 6.89641 16.2166 7.21183C16.532 7.52725 16.532 8.03866 16.2166 8.35408Z" fill="#E24000"/>
</svg>
