<svg width="17" height="15" viewBox="0 0 17 15" fill="none" xmlns="http://www.w3.org/2000/svg">
<path fill-rule="evenodd" clip-rule="evenodd" d="M10.5339 3.62118C10.5339 4.74463 9.62319 5.65536 8.49974 5.65536C7.3763 5.65536 6.46556 4.74463 6.46556 3.62118C6.46556 2.49774 7.3763 1.587 8.49974 1.587C9.62319 1.587 10.5339 2.49774 10.5339 3.62118ZM11.8686 3.62118C11.8686 4.32923 11.6502 4.98627 11.277 5.52857L12.8359 8.22859C13.0912 8.16665 13.358 8.13383 13.6324 8.13383C15.4924 8.13383 17.0003 9.64167 17.0003 11.5017C17.0003 13.3617 15.4924 14.8695 13.6324 14.8695C12.0634 14.8695 10.7449 13.7965 10.3708 12.3443H6.62944C6.25535 13.7965 4.9369 14.8695 3.36785 14.8695C1.50784 14.8695 0 13.3617 0 11.5017C0 9.64167 1.50784 8.13383 3.36785 8.13383C3.66804 8.13383 3.95905 8.17311 4.23603 8.24679L5.76808 5.59321C5.36717 5.03885 5.13088 4.35761 5.13088 3.62118C5.13088 1.76061 6.63917 0.252319 8.49974 0.252319C10.3603 0.252319 11.8686 1.76061 11.8686 3.62118ZM6.70002 11.0096H10.3003C10.4325 10.1063 10.9233 9.31946 11.6236 8.79827L10.2845 6.47893C9.76704 6.80282 9.15525 6.99004 8.49974 6.99004C7.86993 6.99004 7.28048 6.81721 6.77624 6.5164L5.43374 8.84168C6.10355 9.36264 6.57139 10.131 6.70002 11.0096ZM5.40102 11.5017C5.40102 12.6246 4.49074 13.5349 3.36785 13.5349C2.24496 13.5349 1.33468 12.6246 1.33468 11.5017C1.33468 10.3788 2.24496 9.46852 3.36785 9.46852C4.49074 9.46852 5.40102 10.3788 5.40102 11.5017ZM13.6324 13.5349C14.7553 13.5349 15.6656 12.6246 15.6656 11.5017C15.6656 10.3788 14.7553 9.46852 13.6324 9.46852C12.5095 9.46852 11.5993 10.3788 11.5993 11.5017C11.5993 12.6246 12.5095 13.5349 13.6324 13.5349Z" fill="#E24000"/>
</svg>
