<svg width="20" height="17" viewBox="0 0 20 17" fill="none" xmlns="http://www.w3.org/2000/svg">
<path fill-rule="evenodd" clip-rule="evenodd" d="M12.3926 4.03845C12.3926 5.30105 11.3691 6.32458 10.1065 6.32458C8.84389 6.32458 7.82035 5.30105 7.82035 4.03845C7.82035 2.77586 8.84389 1.75232 10.1065 1.75232C11.3691 1.75232 12.3926 2.77586 12.3926 4.03845ZM13.8926 4.03845C13.8926 4.8342 13.6471 5.57261 13.2278 6.18208L14.9796 9.21634C15.2664 9.14682 15.566 9.10999 15.8743 9.10999C17.9647 9.10999 19.6593 10.8046 19.6593 12.895C19.6593 14.9854 17.9647 16.68 15.8743 16.68C14.1108 16.68 12.6291 15.4741 12.2087 13.8419L8.00429 13.8419C7.58388 15.4741 6.10212 16.68 4.33871 16.68C2.24831 16.68 0.553711 14.9854 0.553711 12.895C0.553711 10.8046 2.24831 9.10999 4.33871 9.10999C4.67591 9.10999 5.00281 9.15408 5.31396 9.23682L7.03602 6.25411C6.58574 5.63119 6.32035 4.86582 6.32035 4.03845C6.32035 1.94743 8.01546 0.252319 10.1065 0.252319C12.1975 0.252319 13.8926 1.94743 13.8926 4.03845ZM8.08359 12.3419L12.1294 12.3419C12.278 11.3265 12.8298 10.4421 13.6171 9.85639L12.1124 7.25016C11.5308 7.61417 10.8432 7.82458 10.1065 7.82458C9.39841 7.82458 8.73573 7.63021 8.1689 7.29191L6.6601 9.90522C7.41307 10.4907 7.93901 11.3544 8.08359 12.3419ZM6.62371 12.895C6.62371 14.157 5.60068 15.18 4.33871 15.18C3.07674 15.18 2.05371 14.157 2.05371 12.895C2.05371 11.633 3.07674 10.61 4.33871 10.61C5.60068 10.61 6.62371 11.633 6.62371 12.895ZM15.8743 15.18C17.1362 15.18 18.1593 14.157 18.1593 12.895C18.1593 11.633 17.1362 10.61 15.8743 10.61C14.6123 10.61 13.5893 11.633 13.5893 12.895C13.5893 14.157 14.6123 15.18 15.8743 15.18Z" fill="#E24000"/>
</svg>
