<svg width="608" height="420" viewBox="0 0 608 420" fill="none" xmlns="http://www.w3.org/2000/svg">
<path d="M608 72L608 172L-4.95712e-05 172L-3.05176e-05 72L608 72Z" fill="url(#paint0_linear)" fill-opacity="0.2"/>
<path d="M608 196L608 296L-4.95712e-05 296L-3.05176e-05 196L608 196Z" fill="url(#paint1_linear)" fill-opacity="0.2"/>
<path d="M608 320L608 420L-4.95712e-05 420L-3.05176e-05 320L608 320Z" fill="url(#paint2_linear)" fill-opacity="0.2"/>
<text fill="black" xml:space="preserve" style="white-space: pre" font-family="Akkurat-Regular" font-size="20" letter-spacing="0em"><tspan x="132.605" y="111.812">ccess to free legal counsel </tspan><tspan x="116" y="139.812">or a non-lawyer advocate&#10;</tspan></text>
<text fill="black" xml:space="preserve" style="white-space: pre" font-family="Akkurat-Bold" font-size="26" letter-spacing="0em"><tspan x="116" y="111.812">A</tspan></text>
<text fill="#737373" xml:space="preserve" style="white-space: pre" font-family="Akkurat-Regular" font-size="16" letter-spacing="0em"><tspan x="200.312" y="15.64">Components of a successful </tspan><tspan x="204.25" y="37.64">eviction diversion program:&#10;</tspan></text>
<text fill="black" xml:space="preserve" style="white-space: pre" font-family="Akkurat-Regular" font-size="20" letter-spacing="0em"><tspan x="132.605" y="240.555">ssistance, like rent relief and </tspan><tspan x="116" y="268.555">wraparound social services&#10;</tspan></text>
<text fill="black" xml:space="preserve" style="white-space: pre" font-family="Akkurat-Bold" font-size="26" letter-spacing="0em"><tspan x="116" y="240.555">A</tspan></text>
<text fill="black" xml:space="preserve" style="white-space: pre" font-family="Akkurat-Regular" font-size="20" letter-spacing="0em"><tspan x="132.605" y="364.555">lternatives to court, including pre-filing </tspan><tspan x="116" y="392.555">mediation or post-filing settlement conferences</tspan></text>
<text fill="black" xml:space="preserve" style="white-space: pre" font-family="Akkurat-Bold" font-size="26" letter-spacing="0em"><tspan x="116" y="364.555">A</tspan></text>
<rect x="21" y="250.565" width="12.3589" height="5.61383" transform="rotate(-90 21 250.565)" fill="#CE420B"/>
<path d="M86.2417 259.108L85.9976 252.345L86.2417 246.012L91.6115 246.012L91.6115 258.696L86.2417 259.108Z" fill="#CE420B"/>
<path d="M91.6114 258.663C91.6114 265.093 75.8045 268.53 56.3057 266.34C36.8069 264.15 21 257.162 21 250.732C21 248.409 23.0631 246.477 26.618 245.059C23.0631 242.843 21 240.447 21 238.125C21 233.088 30.699 229.888 44.274 229.79L44.274 242.397C36.9598 242.45 30.7709 243.403 26.618 245.059C32.903 248.977 43.8513 252.334 56.3057 253.732C68.7602 255.131 79.7084 254.234 85.9935 251.728C81.8599 249.151 75.7093 246.818 68.4397 245.124L68.4397 232.516C81.9611 235.667 91.6114 241.031 91.6114 246.055C91.6114 248.378 89.5483 250.311 85.9935 251.728C89.5483 253.944 91.6114 256.34 91.6114 258.663Z" fill="url(#paint3_linear)"/>
<path d="M44.274 242.397C36.9598 242.45 30.7709 243.403 26.618 245.059C23.0631 242.843 21 240.447 21 238.125C21 233.088 30.699 229.888 44.274 229.79L44.274 242.397Z" fill="url(#paint4_linear)"/>
<path d="M64.9491 240.439C64.9491 241.508 64.7706 242.409 64.4135 243.144C64.0565 243.879 63.5991 244.536 63.0413 245.115C62.3496 245.827 61.5352 246.384 60.598 246.785C59.6832 247.186 58.6791 247.442 57.5858 247.553V250.592H55.1426V247.586C54.0715 247.497 53.0563 247.275 52.0968 246.918C51.1597 246.54 50.2783 245.972 49.4528 245.215C48.7834 244.614 48.2256 243.879 47.7793 243.011C47.333 242.12 47.0988 241.14 47.0764 240.071H51.1932C51.2155 240.65 51.3382 241.185 51.5613 241.675C51.7845 242.142 52.0745 242.543 52.4315 242.877C52.8109 243.256 53.2236 243.534 53.6699 243.712C54.1385 243.89 54.6294 244.001 55.1426 244.046V237.433C54.8748 237.411 54.5959 237.377 54.3058 237.333C54.0381 237.288 53.7703 237.244 53.5026 237.199C51.6952 236.91 50.2672 236.219 49.2185 235.128C48.1921 234.037 47.6789 232.634 47.6789 230.92C47.6789 230.029 47.8686 229.216 48.2479 228.482C48.6272 227.747 49.1181 227.09 49.7205 226.511C50.3676 225.865 51.1485 225.331 52.0634 224.908C52.9782 224.485 54.0046 224.218 55.1426 224.106V221H57.5858V224.173C58.523 224.284 59.3932 224.518 60.1964 224.874C61.022 225.208 61.7472 225.665 62.3719 226.244C63.0413 226.867 63.5768 227.591 63.9785 228.415C64.4024 229.216 64.6367 230.085 64.6813 231.02H60.5646C60.5423 230.619 60.4307 230.218 60.2299 229.818C60.0291 229.395 59.7948 229.038 59.527 228.749C59.2816 228.504 58.9915 228.303 58.6568 228.148C58.3221 227.969 57.9651 227.825 57.5858 227.713V233.826C57.7643 233.848 57.954 233.87 58.1548 233.892C58.3556 233.915 58.5453 233.948 58.7238 233.993C59.5717 234.126 60.3749 234.36 61.1336 234.694C61.8922 235.028 62.5504 235.462 63.1082 235.997C63.6884 236.531 64.1346 237.177 64.447 237.934C64.7817 238.669 64.9491 239.504 64.9491 240.439ZM55.1426 227.613C54.6963 227.68 54.25 227.802 53.8038 227.981C53.3798 228.159 53.0005 228.404 52.6658 228.715C52.3981 228.96 52.1749 229.261 51.9964 229.617C51.8402 229.973 51.7622 230.374 51.7622 230.82C51.7622 231.599 51.9741 232.189 52.3981 232.59C52.8443 232.968 53.4245 233.213 54.1385 233.325C54.317 233.369 54.4843 233.403 54.6405 233.425C54.7967 233.447 54.964 233.469 55.1426 233.492V227.613ZM60.8993 240.606C60.8993 239.76 60.6204 239.136 60.0625 238.735C59.5047 238.312 58.8688 238.034 58.1548 237.9L57.5858 237.8V244.013C58.6122 243.834 59.4043 243.467 59.9621 242.91C60.2299 242.643 60.453 242.331 60.6315 241.975C60.81 241.619 60.8993 241.162 60.8993 240.606Z" fill="#E24000"/>
<path fill-rule="evenodd" clip-rule="evenodd" d="M91 381.893C91 372.563 82.4928 365.001 72 365.001V365C61.5087 365 53 372.563 53 381.893C53 391.223 61.5072 398.787 72 398.787C73.3791 398.787 74.7359 398.661 76.0319 398.413C77.3724 399.082 86.2118 403.398 90.6753 401.539C90.8072 401.06 90.1411 400.493 89.23 399.718C87.7859 398.488 85.7261 396.735 85.2524 393.98C88.7935 390.911 91 386.637 91 381.893ZM64 375C63.4477 375 63 375.448 63 376C63 376.552 63.4477 377 64 377H81C81.5523 377 82 376.552 82 376C82 375.448 81.5523 375 81 375H64ZM63 382C63 381.448 63.4477 381 64 381H81C81.5523 381 82 381.448 82 382C82 382.552 81.5523 383 81 383H64C63.4477 383 63 382.552 63 382ZM72 387C71.4477 387 71 387.448 71 388C71 388.552 71.4477 389 72 389H81C81.5523 389 82 388.552 82 388C82 387.448 81.5523 387 81 387H72Z" fill="url(#paint5_linear)"/>
<path fill-rule="evenodd" clip-rule="evenodd" d="M47 342.002C35.955 342.002 27 349.972 27 359.806C27 364.807 29.3226 369.312 33.0501 372.546C32.5515 375.45 30.3833 377.298 28.8632 378.594C27.9041 379.412 27.203 380.01 27.3418 380.514C32.0402 382.473 41.3448 377.924 42.7559 377.219C44.1201 377.481 45.5483 377.613 47 377.613C48.4016 377.613 49.7696 377.484 51.0898 377.24C51.9216 369.627 58.438 363.494 66.8153 362.236C66.9371 361.442 67 360.631 67 359.806C67 349.972 58.0435 342 47 342V342.002ZM38 352C37.4477 352 37 352.448 37 353C37 353.552 37.4477 354 38 354H55C55.5523 354 56 353.552 56 353C56 352.448 55.5523 352 55 352H38ZM37 359C37 358.448 37.4477 358 38 358H55C55.5523 358 56 358.448 56 359C56 359.552 55.5523 360 55 360H38C37.4477 360 37 359.552 37 359ZM38 364C37.4477 364 37 364.448 37 365C37 365.552 37.4477 366 38 366H50C50.5523 366 51 365.552 51 365C51 364.448 50.5523 364 50 364H38Z" fill="url(#paint6_linear)"/>
<path d="M73.0368 117.5L82.0001 92.919L90.9633 117.5H73.0368Z" stroke="#F3723F" stroke-width="2"/>
<path d="M23.0368 128.5L32.0001 103.919L40.9633 128.5H23.0368Z" stroke="#F3723F" stroke-width="2"/>
<path d="M81.5592 89.3692L31.7458 99.9052C30.7817 100.109 30.1654 101.056 30.3693 102.02C30.5732 102.984 31.5202 103.601 32.4843 103.397L82.2977 92.8607C83.2619 92.6568 83.8781 91.7099 83.6742 90.7457C83.4703 89.7815 82.5234 89.1652 81.5592 89.3692Z" fill="#F4723F"/>
<path d="M60.0412 95.2452H54.688V144.316H60.0412V95.2452Z" fill="url(#paint7_linear)"/>
<path fill-rule="evenodd" clip-rule="evenodd" d="M35.9518 149.669V144.316H78.7773V149.669H35.9518Z" fill="#F4723F"/>
<path fill-rule="evenodd" clip-rule="evenodd" d="M29.7064 155.023V149.67H85.0227V155.023H29.7064Z" fill="#CE420B"/>
<circle cx="57.3645" cy="96.1375" r="5.35319" fill="#CE420B"/>
<path d="M71.0001 116H93.0001C93.0001 121.523 88.5229 126 83.0001 126H81.0001C75.4772 126 71.0001 121.523 71.0001 116Z" fill="url(#paint8_linear)"/>
<path d="M21.0001 127H43.0001C43.0001 132.523 38.5229 137 33.0001 137H31.0001C25.4772 137 21.0001 132.523 21.0001 127Z" fill="url(#paint9_linear)"/>
<defs>
<linearGradient id="paint0_linear" x1="608" y1="122" x2="-4.00444e-05" y2="122" gradientUnits="userSpaceOnUse">
<stop stop-color="#E24000" stop-opacity="0"/>
<stop offset="1" stop-color="#E24000"/>
</linearGradient>
<linearGradient id="paint1_linear" x1="608" y1="246" x2="-4.00444e-05" y2="246" gradientUnits="userSpaceOnUse">
<stop stop-color="#E24000" stop-opacity="0"/>
<stop offset="1" stop-color="#E24000"/>
</linearGradient>
<linearGradient id="paint2_linear" x1="608" y1="370" x2="-4.00444e-05" y2="370" gradientUnits="userSpaceOnUse">
<stop stop-color="#E24000" stop-opacity="0"/>
<stop offset="1" stop-color="#E24000"/>
</linearGradient>
<linearGradient id="paint3_linear" x1="68.5676" y1="239.51" x2="77.6723" y2="254.008" gradientUnits="userSpaceOnUse">
<stop stop-color="#E24000"/>
<stop offset="1" stop-color="#FF7944"/>
</linearGradient>
<linearGradient id="paint4_linear" x1="45.6482" y1="238.379" x2="30.461" y2="250.766" gradientUnits="userSpaceOnUse">
<stop stop-color="#E24000"/>
<stop offset="1" stop-color="#FF7944"/>
</linearGradient>
<linearGradient id="paint5_linear" x1="72" y1="365" x2="72" y2="402" gradientUnits="userSpaceOnUse">
<stop stop-color="#E24000"/>
<stop offset="1" stop-color="#F77B4A"/>
</linearGradient>
<linearGradient id="paint6_linear" x1="47" y1="342" x2="47" y2="381" gradientUnits="userSpaceOnUse">
<stop stop-color="#E24000"/>
<stop offset="1" stop-color="#F77B4A"/>
</linearGradient>
<linearGradient id="paint7_linear" x1="57.3646" y1="95.2452" x2="57.3646" y2="144.316" gradientUnits="userSpaceOnUse">
<stop stop-color="#FF7944"/>
<stop offset="1" stop-color="#E24000"/>
</linearGradient>
<linearGradient id="paint8_linear" x1="82.0001" y1="116" x2="82.0001" y2="126" gradientUnits="userSpaceOnUse">
<stop stop-color="#FF6325"/>
<stop offset="1" stop-color="#E24000"/>
</linearGradient>
<linearGradient id="paint9_linear" x1="32.0001" y1="127" x2="32.0001" y2="137" gradientUnits="userSpaceOnUse">
<stop stop-color="#FF6325"/>
<stop offset="1" stop-color="#E24000"/>
</linearGradient>
</defs>
</svg>
