<svg width="16px" height="12px" viewBox="0 0 16 12" version="1.1" xmlns="http://www.w3.org/2000/svg" xmlns:xlink="http://www.w3.org/1999/xlink">
    <defs>
        <polyline id="path-1" points="-9.41469125e-14 -2.37209049e-13 15.0141302 -2.37209049e-13 15.0141302 11.9339899 -9.41469125e-14 11.9339899"></polyline>
    </defs>
    <g id="Designs-4.5" stroke="none" stroke-width="1" fill="none" fill-rule="evenodd">
        <g id="Artboard" transform="translate(-686.000000, -362.000000)">
            <g id="icon-housing-assistance" transform="translate(681.000000, 355.000000)">
                <g id="Page-1-Copy-3" transform="translate(5.444368, 6.999902)">
                    <path d="M7.55068606,0.977308529 L2.23431649,5.36716988 C2.23431649,5.37327895 2.23332349,6.80336873 2.22991893,6.81558687 C2.22722364,6.827805 2.22552136,6.83661342 2.22552136,6.84329077 L2.22552136,11.2879916 C2.22552136,11.4483902 2.28368268,11.5871938 2.40114016,11.7042606 C2.51803021,11.8218956 2.65662436,11.8807131 2.81678076,11.8807131 L6.36759984,11.8807131 L6.36759984,8.32452623 L8.73490714,8.32452623 L8.73490714,11.8807131 L12.2851588,11.8807131 C12.4453152,11.8807131 12.5839093,11.8218956 12.7007994,11.7048289 C12.8182569,11.5877621 12.8769856,11.4483902 12.8769856,11.2879916 L12.8769856,6.84329077 C12.8769856,6.81828622 12.8735811,5.37924594 12.8676231,5.36716988 L7.55068606,0.977308529 Z" id="Fill-1" fill="#919191"></path>
                    <g id="Group-5">
                        <mask id="mask-2" fill="white">
                            <use xlink:href="#path-1"></use>
                        </mask>
                        <g id="Clip-4"></g>
                        <path d="M14.2935682,5.86466098 C14.2785314,5.8358205 14.2592389,5.80982146 14.2342721,5.78765833 L12.3952397,4.1022664 L12.3952397,0.324022033 C12.3952397,0.237500606 12.3701311,0.166464952 12.3197719,0.11091507 C12.2694127,0.0555072601 12.2050097,0.027803355 12.1265628,0.027803355 L10.5145015,0.027803355 C10.4360546,0.027803355 10.3716516,0.0555072601 10.3212924,0.11091507 C10.2709332,0.166464952 10.2456827,0.237500606 10.2456827,0.324022033 L10.2456827,2.12989043 L8.19698592,0.240910317 C8.01767885,0.0805118103 7.80489356,-4.26213921e-05 7.55877191,-4.26213921e-05 C7.31222468,-4.26213921e-05 7.0997231,0.0805118103 6.92069975,0.240910317 L0.882420603,5.78765833 L0.882420603,5.78709005 C-0.0132636165,6.69932992 0.868944202,6.94624985 1.044563,6.98503532 L1.044563,6.98503532 L1.044563,6.98503532 C1.06300439,6.98901331 1.07378551,6.99086024 1.07378551,6.99086024 L1.07293437,6.98531946 L1.52077648,6.99086024 L1.54318986,6.99086024 C1.544041,6.99100231 1.54475029,6.99128645 1.54560143,6.99142853 C1.56248239,6.99299131 1.57950522,6.99270717 1.59638618,6.99086024 L3.35030441,6.99086024 L3.35030441,5.45279626 L7.55834633,1.58334211 L11.7524863,5.4397257 L11.7524863,6.99086024 L13.5377549,6.99086024 C13.5404502,6.99086024 13.5430036,6.99142853 13.5458407,6.99142853 L13.5715168,6.99142853 C13.572368,6.99128645 13.5730772,6.99100231 13.5739284,6.99086024 L13.5820142,6.99086024 L14.0298563,6.98531946 L14.0290052,6.99086024 C14.0290052,6.99086024 14.0397863,6.98901331 14.0580858,6.98503532 L14.0582277,6.98503532 L14.0582277,6.98503532 C14.2287396,6.94738642 15.0651277,6.71339497 14.2935682,5.86466098" id="Fill-3" fill="#919191" mask="url(#mask-2)"></path>
                    </g>
                </g>
            </g>
        </g>
    </g>
</svg>