<svg width="28px" height="29px" viewBox="0 0 28 29" version="1.1" xmlns="http://www.w3.org/2000/svg" xmlns:xlink="http://www.w3.org/1999/xlink">
    <defs>
        <polyline id="path-1" points="-9.41469125e-14 -2.37209049e-13 16.2653077 -2.37209049e-13 16.2653077 12.928489 -9.41469125e-14 12.928489"></polyline>
    </defs>
    <g id="Designs-4.5" stroke="none" stroke-width="1" fill="none" fill-rule="evenodd">
        <g id="Artboard" transform="translate(-680.000000, -355.000000)">
            <g id="icon-housing-assistance" transform="translate(681.000000, 356.000000)">
                <path d="M12.918014,26.336028 C20.0524361,26.336028 25.836028,20.5524361 25.836028,13.418014 C25.836028,6.28359187 20.0524361,0.5 12.918014,0.5 C5.78359187,0.5 0,6.28359187 0,13.418014 C0,20.5524361 5.78359187,26.336028 12.918014,26.336028 Z" id="Oval-1" stroke="#919191" stroke-width="2"></path>
                <g id="Page-1-Copy-3" transform="translate(4.814733, 6.416561)">
                    <path d="M8.1799099,1.05875091 L2.42050953,5.81443404 C2.42050953,5.82105219 2.41943378,7.37031613 2.4157455,7.38355244 C2.41282562,7.39678875 2.41098148,7.40633121 2.41098148,7.413565 L2.41098148,12.2286576 C2.41098148,12.4024227 2.47398957,12.5527933 2.60123517,12.6796156 C2.72786606,12.8070536 2.87800973,12.8707726 3.05151249,12.8707726 L6.89823316,12.8707726 L6.89823316,9.01823675 L9.46281607,9.01823675 L9.46281607,12.8707726 L13.308922,12.8707726 C13.4824248,12.8707726 13.6325685,12.8070536 13.7591993,12.6802313 C13.886445,12.553409 13.9500678,12.4024227 13.9500678,12.2286576 L13.9500678,7.413565 C13.9500678,7.38647674 13.9463795,5.82751644 13.939925,5.81443404 L8.1799099,1.05875091 Z" id="Fill-1" fill="#919191"></path>
                    <g id="Group-5">
                        <mask id="mask-2" fill="white">
                            <use xlink:href="#path-1"></use>
                        </mask>
                        <g id="Clip-4"></g>
                        <path d="M15.4846989,6.35338273 C15.468409,6.32213888 15.4475088,6.29397324 15.4204614,6.26996319 L13.4281764,4.44412194 L13.4281764,0.351023869 C13.4281764,0.257292323 13.4009753,0.180337031 13.3464195,0.120157993 C13.2918637,0.0601328651 13.2220938,0.0301203013 13.1371097,0.0301203013 L11.3907099,0.0301203013 C11.3057258,0.0301203013 11.2359559,0.0601328651 11.1814001,0.120157993 C11.1268443,0.180337031 11.0994896,0.257292323 11.0994896,0.351023869 L11.0994896,2.3073813 L8.88006808,0.260986177 C8.68581875,0.0872211279 8.45530136,-4.61731747e-05 8.18866956,-4.61731747e-05 C7.92157674,-4.61731747e-05 7.6913667,0.0872211279 7.49742472,0.260986177 L0.955955654,6.26996319 L0.955955654,6.26934755 C-0.0143689179,7.25760741 0.941356218,7.525104 1.13160991,7.56712159 L1.13160991,7.56712159 L1.13160991,7.56712159 C1.15158809,7.57143109 1.16326763,7.57343193 1.16326763,7.57343193 L1.16234556,7.56742941 L1.64750785,7.57343193 L1.67178902,7.57343193 C1.67271109,7.57358584 1.67347948,7.57389366 1.67440155,7.57404757 C1.69268926,7.57574059 1.71113065,7.57543276 1.72941837,7.57343193 L3.62949645,7.57343193 L3.62949645,5.90719595 L8.18820853,1.71528728 L12.7318601,5.89303617 L12.7318601,7.57343193 L14.6659011,7.57343193 C14.668821,7.57343193 14.6715872,7.57404757 14.6746608,7.57404757 L14.7024765,7.57404757 C14.7033986,7.57389366 14.704167,7.57358584 14.7050891,7.57343193 L14.7138487,7.57343193 L15.199011,7.56742941 L15.198089,7.57343193 C15.198089,7.57343193 15.2097685,7.57143109 15.229593,7.56712159 L15.2297467,7.56712159 L15.2297467,7.56712159 C15.414468,7.52633529 16.320555,7.27284456 15.4846989,6.35338273" id="Fill-3" fill="#919191" mask="url(#mask-2)"></path>
                    </g>
                </g>
            </g>
        </g>
    </g>
</svg>