<?xml version="1.0" encoding="UTF-8"?>
<svg width="20px" height="21px" viewBox="0 0 20 21" version="1.1" xmlns="http://www.w3.org/2000/svg" xmlns:xlink="http://www.w3.org/1999/xlink">
    <!-- Generator: Sketch 49 (51002) - http://www.bohemiancoding.com/sketch -->
    <title>research@</title>
    <desc>Created with Sketch.</desc>
    <defs></defs>
    <g id="Page-1" stroke="none" stroke-width="1" fill="none" fill-rule="evenodd">
        <g id="Pictorial-Menu-320-20180228" transform="translate(-24.000000, -568.000000)">
            <g id="Tertiary" transform="translate(0.000000, 488.000000)">
                <g id="2" transform="translate(24.000000, 77.000000)">
                    <g id="research" transform="translate(0.000000, 4.000000)">
                        <rect id="_Rectangle_" fill="#282828" fill-rule="nonzero" x="0" y="13.9592713" width="4.53289731" height="5.70831907"></rect>
                        <rect id="_Rectangle_2" fill="#282828" fill-rule="nonzero" x="6.81476399" y="9.56526548" width="4.53289731" height="10.1023249"></rect>
                        <rect id="_Rectangle_3" fill="#282828" fill-rule="nonzero" x="14.523773" y="2.06045907" width="4.53289731" height="17.5993543"></rect>
                        <g id="Icon-Search" transform="translate(6.643902, 3.600000) scale(-1, 1) translate(-6.643902, -3.600000) translate(3.043902, 0.000000)" stroke="#282828" stroke-linecap="round" stroke-linejoin="round" stroke-width="2">
                            <path d="M5.36585366,2.68117785 C5.36585366,4.162163 4.16439024,5.36235571 2.68292683,5.36235571 C1.20146341,5.36235571 0,4.162163 0,2.68117785 C0,1.20019271 1.20146341,0 2.68292683,0 C4.16439024,0 5.36585366,1.20019271 5.36585366,2.68117785 Z" id="Stroke-17"></path>
                            <path d="M6.82926829,6.82481636 L4.87804878,4.87486883" id="Stroke-19"></path>
                        </g>
                    </g>
                </g>
            </g>
        </g>
    </g>
</svg>