<?xml version="1.0" encoding="UTF-8"?>
<svg class="trend-line" data-visual="09" width="64" height="40" version="1.1" xmlns="http://www.w3.org/2000/svg" xmlns:xlink="http://www.w3.org/1999/xlink"><g transform="translate(0,4)"><path class="trend-line__area trend-line__area--moratorium" d="M0,15.606047516198704L1,20.126133909287255L1,23.96889848812095L2,27.092872570194384L2,29.663930885529158L2,30.631533477321813L3,31.599136069114472L3,32L3,31.930885529157667L4,31.972354211663067L4,31.8755939524838L5,31.889416846652267L5,31.930885529157667L5,31.9170626349892L6,31.972354211663067L6,31.7511879049676L7,31.474730021598273L7,30.907991360691145L7,30.203023758099352L8,30.037149028077753L8,30.078617710583153L8,30.161555075593952L9,30.56241900647948L9,30.424190064794818L10,30.21684665226782L10,29.96803455723542L10,29.65010799136069L11,29.92656587473002L11,29.705399568034558L12,30.00950323974082L12,29.525701943844492L12,28.26781857451404L13,27.562850971922245L13,26.38790496760259L13,25.95939524838013L14,26.27732181425486L14,25.779697624190064L15,25.517062634989202L15,25.696760259179264L15,25.44794816414687L16,26.24967602591793L16,26.899352051835855L17,26.581425485961123L17,26.12526997840173L17,24.68768898488121L18,24.273002159827215L18,24.660043196544276L19,24.20388768898488L19,24.065658747300215L19,23.084233261339094L20,21.93693304535637L20,21.82634989200864L20,21.86781857451404L21,22.351619870410367L21,21.964578833693302L22,22.282505399568034L22,22.766306695464365L22,22.766306695464365L23,23.429805615550755L23,23.789200863930887L24,24.01036717062635L24,23.858315334773216L24,24.231533477321815L25,23.81684665226782L25,23.72008639308855L25,23.80302375809935L26,23.844492440604753L26,24.507991360691143L27,25.185313174946003L27,26.581425485961123L27,27.590496760259178L28,28.088120950323976L28,28.22634989200864L29,27.410799136069116L29,25.655291576673868L29,34L29,34L28,34L28,34L27,34L27,34L27,34L26,34L26,34L25,34L25,34L25,34L24,34L24,34L24,34L23,34L23,34L22,34L22,34L22,34L21,34L21,34L20,34L20,34L20,34L19,34L19,34L19,34L18,34L18,34L17,34L17,34L17,34L16,34L16,34L15,34L15,34L15,34L14,34L14,34L13,34L13,34L13,34L12,34L12,34L12,34L11,34L11,34L10,34L10,34L10,34L9,34L9,34L8,34L8,34L8,34L7,34L7,34L7,34L6,34L6,34L5,34L5,34L5,34L4,34L4,34L3,34L3,34L3,34L2,34L2,34L2,34L1,34L1,34L0,34Z"></path><path class="trend-line__path trend-line__path--moratorium" d="M0,15.606047516198704C0.3333333333333333,16.359395248380128,0.6666666666666667,17.112742980561553,1,20.126133909287255C1,20.126133909287255,1,23.96889848812095,1,23.96889848812095C1.3333333333333333,26.051547876169906,1.6666666666666667,25.010223182145428,2,27.092872570194384C2,27.092872570194384,2,29.663930885529158,2,29.663930885529158C2,29.663930885529158,2,30.631533477321813,2,30.631533477321813C2.3333333333333335,31.276601871850254,2.6666666666666665,30.95406767458603,3,31.599136069114472C3,31.599136069114472,3,32,3,32C3,32,3,31.930885529157667,3,31.930885529157667C3.3333333333333335,31.930885529157667,3.6666666666666665,31.972354211663067,4,31.972354211663067C4,31.972354211663067,4,31.8755939524838,4,31.8755939524838C4.333333333333333,31.8755939524838,4.666666666666667,31.88020158387329,5,31.889416846652267C5,31.889416846652267,5,31.930885529157667,5,31.930885529157667C5,31.930885529157667,5,31.9170626349892,5,31.9170626349892C5.333333333333333,31.9170626349892,5.666666666666667,31.972354211663067,6,31.972354211663067C6,31.972354211663067,6,31.7511879049676,6,31.7511879049676C6.333333333333333,31.56688264938805,6.666666666666667,31.659035277177825,7,31.474730021598273C7,31.474730021598273,7,30.907991360691145,7,30.907991360691145C7,30.907991360691145,7,30.203023758099352,7,30.203023758099352C7.333333333333333,30.09244060475162,7.666666666666667,30.037149028077753,8,30.037149028077753C8,30.037149028077753,8,30.078617710583153,8,30.078617710583153C8,30.078617710583153,8,30.161555075593952,8,30.161555075593952C8.333333333333334,30.428797696184304,8.666666666666666,30.56241900647948,9,30.56241900647948C9,30.56241900647948,9,30.424190064794818,9,30.424190064794818C9.333333333333334,30.28596112311015,9.666666666666666,30.355075593952485,10,30.21684665226782C10,30.21684665226782,10,29.96803455723542,10,29.96803455723542C10,29.96803455723542,10,29.65010799136069,10,29.65010799136069C10.333333333333334,29.65010799136069,10.666666666666666,29.92656587473002,11,29.92656587473002C11,29.92656587473002,11,29.705399568034558,11,29.705399568034558C11.333333333333334,29.705399568034558,11.666666666666666,30.00950323974082,12,30.00950323974082C12,30.00950323974082,12,29.525701943844492,12,29.525701943844492C12,29.525701943844492,12,28.26781857451404,12,28.26781857451404C12.333333333333334,27.797840172786177,12.666666666666666,28.032829373650106,13,27.562850971922245C13,27.562850971922245,13,26.38790496760259,13,26.38790496760259C13,26.38790496760259,13,25.95939524838013,13,25.95939524838013C13.333333333333334,25.95939524838013,13.666666666666666,26.27732181425486,14,26.27732181425486C14,26.27732181425486,14,25.779697624190064,14,25.779697624190064C14.333333333333334,25.604607631389488,14.666666666666666,25.517062634989202,15,25.517062634989202C15,25.517062634989202,15,25.696760259179264,15,25.696760259179264C15,25.696760259179264,15,25.44794816414687,15,25.44794816414687C15.333333333333334,25.44794816414687,15.666666666666666,25.71519078473722,16,26.24967602591793C16,26.24967602591793,16,26.899352051835855,16,26.899352051835855C16.333333333333332,26.899352051835855,16.666666666666668,26.793376529877612,17,26.581425485961123C17,26.581425485961123,17,26.12526997840173,17,26.12526997840173C17,26.12526997840173,17,24.68768898488121,17,24.68768898488121C17.333333333333332,24.41123110151188,17.666666666666668,24.273002159827215,18,24.273002159827215C18,24.273002159827215,18,24.660043196544276,18,24.660043196544276C18.333333333333332,24.660043196544276,18.666666666666668,24.507991360691143,19,24.20388768898488C19,24.20388768898488,19,24.065658747300215,19,24.065658747300215C19,24.065658747300215,19,23.084233261339094,19,23.084233261339094C19.333333333333332,22.319366450683944,19.666666666666668,22.70179985601152,20,21.93693304535637C20,21.93693304535637,20,21.82634989200864,20,21.82634989200864C20,21.82634989200864,20,21.86781857451404,20,21.86781857451404C20.333333333333332,22.190352771778258,20.666666666666668,22.351619870410367,21,22.351619870410367C21,22.351619870410367,21,21.964578833693302,21,21.964578833693302C21.333333333333332,21.964578833693302,21.666666666666668,22.070554355651545,22,22.282505399568034C22,22.282505399568034,22,22.766306695464365,22,22.766306695464365C22.333333333333332,23.208639308855293,22.666666666666668,22.987473002159827,23,23.429805615550755C23,23.429805615550755,23,23.789200863930887,23,23.789200863930887C23.333333333333332,23.93664506839453,23.666666666666668,24.01036717062635,24,24.01036717062635C24,24.01036717062635,24,23.858315334773216,24,23.858315334773216C24,23.858315334773216,24,24.231533477321815,24,24.231533477321815C24.333333333333332,24.231533477321815,24.666666666666668,24.09330453563715,25,23.81684665226782C25,23.81684665226782,25,23.72008639308855,25,23.72008639308855C25,23.72008639308855,25,23.80302375809935,25,23.80302375809935C25.333333333333332,23.830669546436287,25.666666666666668,23.816846652267817,26,23.844492440604753C26,23.844492440604753,26,24.507991360691143,26,24.507991360691143C26.333333333333332,24.95953923686105,26.666666666666668,24.733765298776095,27,25.185313174946003C27,25.185313174946003,27,26.581425485961123,27,26.581425485961123C27,26.581425485961123,27,27.590496760259178,27,27.590496760259178C27.333333333333332,27.922246220302377,27.666666666666668,27.756371490280777,28,28.088120950323976C28,28.088120950323976,28,28.22634989200864,28,28.22634989200864C28.333333333333332,28.22634989200864,28.666666666666668,27.954499640028796,29,27.410799136069116C29,27.410799136069116,29,25.655291576673868,29,25.655291576673868"></path><path class="trend-line__area trend-line__area--noMoratorium" d="M0,13.574082073434127L0,15.606047516198704L0,34L0,34ZM29,25.655291576673868L29,24.300647948164148L30,22.227213822894168L30,20.665226781857452L30,19.462634989200865L31,18.826781857451405L31,18.992656587473L32,19.87732181425486L32,20.319654427645787L32,20.126133909287255L33,19.352051835853132L33,18.094168466522678L34,17.72095032397408L34,18.16328293736501L34,18.356803455723544L35,17.582721382289417L35,17.043628509719223L35,16.656587473002162L36,17.762419006479483L36,18.60561555075594L37,17.859179265658746L37,17.430669546436285L37,15.74427645788337L38,15.467818574514038L38,17.20950323974082L39,15.688984881209503L39,16.877753779697624L39,14.624622030237582L40,10.104535637149027L40,6.869978401727863L40,2.3775377969762417L41,1.2025917926565874L41,0L42,1.7831533477321813L42,3.151619870410368L42,4.0362850971922235L43,6.344708423326132L43,6.04060475161987L44,5.211231101511878L44,6.1788336933045365L44,8.376673866090712L45,6.427645788336932L45,7.091144708423325L45,7.1879049676025915L46,5.225053995680344L46,8.528725701943845L47,7.561123110151186L47,6.372354211663065L47,6.607343412526998L48,5.888552915766738L48,5.335637149028077L49,5.598272138228943L49,6.261771058315336L49,7.422894168466524L50,8.639308855291578L50,7.644060475161986L51,7.298488120950324L51,7.51965442764579L51,7.243196544276458L52,7.353779697624191L52,7.5334773218142566L52,6.565874730021598L53,7.3952483801295905L53,7.492008639308857L54,5.847084233261338L54,7.174082073434125L54,8.832829373650107L55,9.316630669546438L55,10.17365010799136L56,9.938660907127431L56,11.514470842332614L56,14.196112311015117L57,14.30669546436285L57,12.979697624190067L57,10.519222462203025L58,9.302807775377971L58,8.597840172786178L59,8.542548596112312L59,9.288984881209505L59,9.233693304535638L60,10.270410367170626L60,11.307127429805615L61,10.961555075593953L61,11.334773218142548L61,13.256155507559395L62,12.482073434125269L62,12.24708423326134L62,12.150323974082074L63,10.615982721382288L63,11.155075593952485L64,11.929157667386608L64,11.417710583153347L64,34L64,34L63,34L63,34L62,34L62,34L62,34L61,34L61,34L61,34L60,34L60,34L59,34L59,34L59,34L58,34L58,34L57,34L57,34L57,34L56,34L56,34L56,34L55,34L55,34L54,34L54,34L54,34L53,34L53,34L52,34L52,34L52,34L51,34L51,34L51,34L50,34L50,34L49,34L49,34L49,34L48,34L48,34L47,34L47,34L47,34L46,34L46,34L45,34L45,34L45,34L44,34L44,34L44,34L43,34L43,34L42,34L42,34L42,34L41,34L41,34L40,34L40,34L40,34L39,34L39,34L39,34L38,34L38,34L37,34L37,34L37,34L36,34L36,34L35,34L35,34L35,34L34,34L34,34L34,34L33,34L33,34L32,34L32,34L32,34L31,34L31,34L30,34L30,34L30,34L29,34L29,34Z"></path><path class="trend-line__path trend-line__path--noMoratorium" d="M0,13.574082073434127L0,15.606047516198704M29,25.655291576673868C29,25.655291576673868,29,24.300647948164148,29,24.300647948164148C29.333333333333332,22.918358531317494,29.666666666666668,23.60950323974082,30,22.227213822894168C30,22.227213822894168,30,20.665226781857452,30,20.665226781857452C30,20.665226781857452,30,19.462634989200865,30,19.462634989200865C30.333333333333332,19.03873290136789,30.666666666666668,18.826781857451405,31,18.826781857451405C31,18.826781857451405,31,18.992656587473,31,18.992656587473C31.333333333333332,19.582433405327574,31.666666666666668,19.287544996400285,32,19.87732181425486C32,19.87732181425486,32,20.319654427645787,32,20.319654427645787C32,20.319654427645787,32,20.126133909287255,32,20.126133909287255C32.333333333333336,19.610079193664507,32.666666666666664,19.86810655147588,33,19.352051835853132C33,19.352051835853132,33,18.094168466522678,33,18.094168466522678C33.333333333333336,17.84535637149028,33.666666666666664,17.72095032397408,34,17.72095032397408C34,17.72095032397408,34,18.16328293736501,34,18.16328293736501C34,18.16328293736501,34,18.356803455723544,34,18.356803455723544C34.333333333333336,18.356803455723544,34.666666666666664,18.098776097912168,35,17.582721382289417C35,17.582721382289417,35,17.043628509719223,35,17.043628509719223C35,17.043628509719223,35,16.656587473002162,35,16.656587473002162C35.333333333333336,16.656587473002162,35.666666666666664,17.02519798416127,36,17.762419006479483C36,17.762419006479483,36,18.60561555075594,36,18.60561555075594C36.333333333333336,18.60561555075594,36.666666666666664,18.35680345572354,37,17.859179265658746C37,17.859179265658746,37,17.430669546436285,37,17.430669546436285C37,17.430669546436285,37,15.74427645788337,37,15.74427645788337C37.333333333333336,15.559971202303815,37.666666666666664,15.467818574514038,38,15.467818574514038C38,15.467818574514038,38,17.20950323974082,38,17.20950323974082C38.333333333333336,17.20950323974082,38.666666666666664,15.688984881209503,39,15.688984881209503C39,15.688984881209503,39,16.877753779697624,39,16.877753779697624C39,16.877753779697624,39,14.624622030237582,39,14.624622030237582C39.333333333333336,11.61123110151188,39.666666666666664,13.117926565874729,40,10.104535637149027C40,10.104535637149027,40,6.869978401727863,40,6.869978401727863C40,6.869978401727863,40,2.3775377969762417,40,2.3775377969762417C40.333333333333336,1.5942404607631389,40.666666666666664,1.9858891288696903,41,1.2025917926565874C41,1.2025917926565874,41,0,41,0C41.333333333333336,0,41.666666666666664,0.5943844492440604,42,1.7831533477321813C42,1.7831533477321813,42,3.151619870410368,42,3.151619870410368C42,3.151619870410368,42,4.0362850971922235,42,4.0362850971922235C42.333333333333336,5.575233981281496,42.666666666666664,6.344708423326132,43,6.344708423326132C43,6.344708423326132,43,6.04060475161987,43,6.04060475161987C43.333333333333336,5.487688984881209,43.666666666666664,5.211231101511878,44,5.211231101511878C44,5.211231101511878,44,6.1788336933045365,44,6.1788336933045365C44,6.1788336933045365,44,8.376673866090712,44,8.376673866090712C44.333333333333336,8.376673866090712,44.666666666666664,6.427645788336932,45,6.427645788336932C45,6.427645788336932,45,7.091144708423325,45,7.091144708423325C45,7.091144708423325,45,7.1879049676025915,45,7.1879049676025915C45.333333333333336,7.1879049676025915,45.666666666666664,5.225053995680344,46,5.225053995680344C46,5.225053995680344,46,8.528725701943845,46,8.528725701943845C46.333333333333336,8.528725701943845,46.666666666666664,8.206191504679625,47,7.561123110151186C47,7.561123110151186,47,6.372354211663065,47,6.372354211663065C47,6.372354211663065,47,6.607343412526998,47,6.607343412526998C47.333333333333336,6.607343412526998,47.666666666666664,6.367746580273578,48,5.888552915766738C48,5.888552915766738,48,5.335637149028077,48,5.335637149028077C48.333333333333336,5.335637149028077,48.666666666666664,5.423182145428366,49,5.598272138228943C49,5.598272138228943,49,6.261771058315336,49,6.261771058315336C49,6.261771058315336,49,7.422894168466524,49,7.422894168466524C49.333333333333336,8.23383729301656,49.666666666666664,8.639308855291578,50,8.639308855291578C50,8.639308855291578,50,7.644060475161986,50,7.644060475161986C50.333333333333336,7.4136789056875445,50.666666666666664,7.298488120950324,51,7.298488120950324C51,7.298488120950324,51,7.51965442764579,51,7.51965442764579C51,7.51965442764579,51,7.243196544276458,51,7.243196544276458C51.333333333333336,7.243196544276458,51.666666666666664,7.2800575953923685,52,7.353779697624191C52,7.353779697624191,52,7.5334773218142566,52,7.5334773218142566C52,7.5334773218142566,52,6.565874730021598,52,6.565874730021598C52.333333333333336,6.565874730021598,52.666666666666664,6.842332613390929,53,7.3952483801295905C53,7.3952483801295905,53,7.492008639308857,53,7.492008639308857C53.333333333333336,7.492008639308857,53.666666666666664,5.847084233261338,54,5.847084233261338C54,5.847084233261338,54,7.174082073434125,54,7.174082073434125C54,7.174082073434125,54,8.832829373650107,54,8.832829373650107C54.333333333333336,9.155363570914327,54.666666666666664,8.994096472282218,55,9.316630669546438C55,9.316630669546438,55,10.17365010799136,55,10.17365010799136C55.333333333333336,10.17365010799136,55.666666666666664,9.938660907127431,56,9.938660907127431C56,9.938660907127431,56,11.514470842332614,56,11.514470842332614C56,11.514470842332614,56,14.196112311015117,56,14.196112311015117C56.333333333333336,14.269834413246938,56.666666666666664,14.30669546436285,57,14.30669546436285C57,14.30669546436285,57,12.979697624190067,57,12.979697624190067C57,12.979697624190067,57,10.519222462203025,57,10.519222462203025C57.333333333333336,9.70827933765299,57.666666666666664,10.113750899928007,58,9.302807775377971C58,9.302807775377971,58,8.597840172786178,58,8.597840172786178C58.333333333333336,8.560979121670266,58.666666666666664,8.542548596112312,59,8.542548596112312C59,8.542548596112312,59,9.288984881209505,59,9.288984881209505C59,9.288984881209505,59,9.233693304535638,59,9.233693304535638C59.333333333333336,9.233693304535638,59.666666666666664,9.579265658747302,60,10.270410367170626C60,10.270410367170626,60,11.307127429805615,60,11.307127429805615C60.333333333333336,11.307127429805615,60.666666666666664,10.961555075593953,61,10.961555075593953C61,10.961555075593953,61,11.334773218142548,61,11.334773218142548C61,11.334773218142548,61,13.256155507559395,61,13.256155507559395C61.333333333333336,13.256155507559395,61.666666666666664,12.99812814974802,62,12.482073434125269C62,12.482073434125269,62,12.24708423326134,62,12.24708423326134C62,12.24708423326134,62,12.150323974082074,62,12.150323974082074C62.333333333333336,11.12742980561555,62.666666666666664,10.615982721382288,63,10.615982721382288C63,10.615982721382288,63,11.155075593952485,63,11.155075593952485C63.333333333333336,11.671130309575235,63.666666666666664,11.929157667386608,64,11.929157667386608C64,11.929157667386608,64,11.417710583153347,64,11.417710583153347"></path></g></svg>