<svg width="306" height="102" xmlns="http://www.w3.org/2000/svg"><defs><linearGradient x1="100%" y1="17.815%" y2="118.706%" id="a"><stop stop-color="#9F2D00" offset="0%"/><stop stop-color="#5F0E00" offset="100%"/></linearGradient></defs><g fill="none" fill-rule="evenodd"><path fill="#282828" fill-rule="nonzero" d="M0 0h306v102H0z"/><path stroke="#282828" stroke-width=".5" fill="#333" d="M231.467 0H306v2.234L299 3.5l-32.3 5.4-4 .6-4.5.8h-.1l-.1-.2.1-.3-.3.1-.2-.3-.1.3-5.6.7-.3.1-.1.1-.6.5v.1l-10.7 1.7-28.3 4.2.4-.4 2.4-1.4 2.2-.5.2-.2.3-.2.2-.2.8-.6 2.2-1.2 2.3-.7.5-.4v-.2l-.1-.5.3-.4.4-1.3.3-.5h.1l1-.2 2.8-1.6.3-.2.2-.3.2-.5-.1-.6-.1-.9v-.2l.6-.6 1.9-1.4.2-.2.3-.4V.9l-.1-.7zM266.762 102l-.062-.1h-.1l.1-.6-.5-.6-1.1-.5-.6-.4-1.2-1.2-.7-.3-.5-.2-1.2-.1-.5-.2-.6-.2-.5-.4-.4-.7-.3-.6-.5-.6-.5-1.2-.9-.8-1.3-.9-2.2-1.1-.8-.2-.8-.4-.6-.5-.6-.6-.5-.4-.5.1h-.3l-.3-.2-.3-.7-.7-1.4-.3-.3-.6-.3-.2-.3-.4-.7-.3-.4-.3-.3-.4-.2-.6-.1-.4-.5-.2-.1-.1-.2-.9-2.5-.3-.6-1.7-2-.2-.1-.5-.8-.2-.8-.4-.8-1.3-.6-1.7.3-1.1.2-.7-.3-.3-.3-.5-.6-.6-.3-.6-.6-1-.4-.1-.2-.2-.5h-.4l-.5.2-.7-.2-2.4-1.1-.8-.8.1-1.1.3-.5.1-.4v-.4l.1-.7.9-.9.2-.6.2-.9.1-.4.2-.3 1-1 .7-.3.3-.4.2-.4.1-.4v-.2h.1l6.6-3.4.6-.2.1.2.4.1 1.3-.9.2-.3.1-.2.1-.4.1-.1.4-.1.2-.1 1-.6 1.1-.6 1-.2.2-.1.4-.4.8-.2.3-.1.2-.3.1-.5.5-.5.3.3.4.1 1.7-.4 28.8-3.3h.4l.2.2.1.4-.2.7v.4l.2.4.5.5.2-.1.3-.1 1.8-1.8 3.8 3.7.1.1.5 3v.3l.1.2.3.2.3.1 19-2.992V102h-39.238z"/><path stroke="#282828" stroke-width=".5" fill="#333" d="M306 2.777v51.519L287 57.3h-.1l-.5-3.3-.1-.2-4.1-3.9-.1-.1h-.4l-1.9 1.9h-.1l-.1-.1-.2-.4.3-.9-.1-.4-.1-.3-.4-.4-.4-.1h-.3l-16.4 2-12.4 1.3-1.7.5-.3-.3-.3-.2-.2.1-.3.1-.4.3-.1.3-.1.1-.1.5-.1.1-.8.1-.2.1-.3.4-1.1.2-1.3.7-.9.6-.7.2-.2.2-.1.6-.3.3-.9.7-.3-.4-1 .4-6.5 3.3h-.2l-28.4 4.6-.3-6.1v-.2l.1-.3.2-.3.4-.5.2-.2.3-.1h.1l.6.3.6-.1 1.2-.3.6-.1h.1l.3-.2.6-.8.2-.3.1-.4-.1-1 .1-.3.3-.8.1-.4v-.4l-.2-.3.1-.3.4-.6.3-.3.9-.5.2-.1.3-.5.3-.8.2-.2.3-.2.8-.3.4-.3.3-.3.5-.4.8-.4 1-.1.4-.1.2-.1h.3l.6-.1.4-.2h.2l.4.2h.6l1.5-.6.2-.1.6-.8.4-.6 1.2-.7.9-1 .2-.2h.2l.2.1.2-.1.3-.2.4-.7.4-.6.2-.2.7-.4.2-.2.5-.7 1-.5 1.2-.9h1.7l.2-.1.3-.2.5-.9.5-1 .1-.3v-.4l.2-.5.1-.2v-.3l-.4-.6v-.3l.1-.3.2-.2.2-.1h.2l.5.1.5.3.4.1.2-.1.2-.2.2-.3v-.4l.3-.3v-.3l.1-.2-.1-.4 1.4-1.1.6-.3.9-.7.2-.1.5.5-.1.5v.4l.1.2.2.5.1.1.3.2.2.1.3.1h.2l.3-.1 1.2-1 .1-.1.8-1.2.2-.9.2-.3.6-1 .3-.3.4-.3 1-.4.5-.4.7-.1.8-.8.2-.1h.1l.4.2.6-.1h.1l.3.6.1.1.1.2.4.2.6.1h.2l.3-.1.2-.1.6-.7.4-.4.2-.3 1.6-4.8.5-.7 1.6-1.4.1-.1 1.3.2h.7l.3-.1.2-.4-.3-.4-.4-.3-.3-.5v-.3l.4-1.4.2-1.1v-.3l-.5-.7v-.6l.7-1.5v.1h.4l20.7-3.3L299.1 4l6.9-1.223zM0 43.53l13.8-.93 12.8-.9 19.3-1.5 12.8-1.1 1.4-.2.5.9.3.3.2.6v.3l.3.3.8.5.3.2.2.5-.1.7v.3l.2.8-.2.6-.7.3-.4.4v.7l-.2.3-.7.5-.5.3-.7.4-.2.3-.1.3v.6l-.8.5-.4.3-.5.7-.3.7-.2.3-.7 1.8-.1.3.2.5 15.3-1.7.6.8.6.6.3.7-.8-.3-.7.1-.5.3-.4.5-.3.8.9.3.6.4.1.3-1.2 1.2-3.4 1.8-.5.6.1.6.5.8.6.8-.2.5-.4.4-.2.5.1.4.5.5.3.6-.5.3-.6.1-.7.3-.3.4-.1.7.1.6-.1.5-.2.4-.3.4-1.2 1.2-.3.5v.9l.1 1.3.2.6.6 1.4.3 1.1.1 1.1-.3.6-1-.1h-.8l-.3.8v1l-.2.4-.3.4-.8.5-.5.3-.5.1-.4.5.4.6.8.8v1l-.6.9-1 .8-2.6 1.3-.4.6.2.6.3.5.2.4-.4.5-.4.2h-.4l-.5-.3-.6.2-.3.8-.3 1.1-.1 1.3.6 2-.1 2.4.1 1-.1.7-.6.8-.8.6-.5.2-.9.2-.9-.5-.2.5v.4l.1.5H0V43.53zM51.8 102l-.1-.2-.1-.3.7.1 1-.2.6-.3.8-.5.8-1.1.2-.9-.1-1v-2.5l-.6-2 .1-1.1.3-1 .3-.5.5.2.6-.1.6-.2.7-.9-.3-.7-.3-.5-.1-.3.2-.3 2.5-1.2 1.1-.9.8-1.2-.1-1.4-.6-.6 2.6-.2 3.2-.3 18.4-1.7 24.7-2.5.9-.1.5 1.1.6.7 1 .6.021 22H51.8z"/><path stroke="#282828" stroke-width=".5" fill="#333" d="M67.314 0l.086.1.8 1.5.6.6 2.4.9.4.3-.1.3.4 1 .1.5v.9l-.1.6.2.6.6 1.1.7.8.6.9.3 1.1-.2.9-1.4 1.8.1 1.4.3.2.7.2.2.2v.2l.2.6.2.5.7.9 1 1.2.4.7-.1.9.5.5 1.3.8 1.1.4.5-.1.2-.5-.2-.5-.2-.4-.5-.3-.2-.5v-.1h.3l.4-.1.2.7.1.3.3.2.5.3.2.1.3.8.3.4.5.1.6-.3h.1l.3.1.1.3-.1 1.2.2.9v.2l-.5.7-.1.5.2.8.4.9.1.6-.1.6-.7 2.2-.4 1.6-.4.8-.4.3-.6-.2-.6-.4-.7-.7-.8-.5-.4.3-.4.8-.2 1.2v.4l-.3 1.3v.2l-.1.2v.1l-.4.6-.3.4-.2.1H76l-.1-.2.2-.6v-.2l.1-.5-.4-1.3-1.1-.4-1 .5-.1 1.3.2.3h-.1l.5.4v.1l.2.3-.1.5v.5l.7 1.2.1.5-.2.5-.3.3-.4.1h-.7l-.6.4.1.7.5.7.5.4.6.2.1.1-.1.1-.2.1-2.2.3-.8.3 1.7 2 .6 1v.3l-.8.4-.3.3-.2.4-.1.6-.6 1.2-.1.8-14.9 1.8.7-1.8.2-.3.3-.7.3-.4.1-.2.1-.1.6-.2.1-.1.3-.2.2-.4.1-.6v-.2l.3-.3.9-.5.7-.5.2-.1.1-.2.1-.4v-.5l.1-.1.6-.3.3-.2.2-.3.1-.6-.2-1v-.1l.1-.8v-.3l-.2-.5-.2-.2-1.1-.6v-.1l-.2-.7-.1-.4-.4-.2-.3-.7-.3-.5-8.2.8L33 40.6l-19.3 1.5-13.7.923V0z"/><path stroke="#282828" stroke-width=".5" fill="#333" d="M103.414 0l-.214.5-.1.8.3.6.5.8.2.2.7.6.6 1.1-.1.6-.6.5-4.1 1.2-1.3.9-.3.1-1.1.1-.4.1-.5.3-.3.4-.3.5-.3 1.3v1.2l.4 1.1.6 1 .8.9.5.8.1.8-.4 1.1-.5.6-.7.2-.9-.1-1.7-1-6.8-2.4-1.2-.1-1 .3-1.1.5-.8.8-.2.4-.6 1.5-.8 1-.4 1.1.1.8.6.8.3.3-.5.2-.4-.7-.4-.6-.6-.2-.4-1.1-.3-.2h-.7l-.6.2-.2.5.4.8.6.6.1.3-.9-.3-1.2-.7-.4-.3.1-.9-.5-.9-1-1.1-.6-.9-.2-.4-.1-.4v-.5l-.6-.4-.6-.2-.1-.9.5-.8.7-.9.4-1.2-.4-1.3-.6-1-.7-.8-.6-.9-.1-.5v-.5l.1-.6v-.5l-.2-.6-.2-.4-.1-.4.2-.5-.8-.6-2.4-.8-.5-.5-.693-1.3zM181.98 102l-5.58-17.8-1.8-6-2.1-6.8-.1-.2-.2-.9 11.5-1.5 11.9-1.7.8-.1.1.1 5.8-.5.3-.1h.3l27.9-4.5v.3l-.2.3-.1.2-.6.3-.3.3-.9.8-.3.5-.1.4-.2.9-.2.5-.5.5-.3.4-.3.6v1l-.3.5-.1 1.5 1 1 2.5 1.2.9.3.5-.2v.1l.4.5.9.4.6.5.6.3.5.6.4.4 1 .4 1.2-.3 1.5-.2 1 .4.3.6.2.8.5.9.3.2 1.7 1.9.2.6.9 2.4.2.4.7.7.6.1.6.4.2.3.4.7.3.5.7.2.1.2.4.7.7 1.4.4.4.6.1.4-.1.3.2.5.6.7.6.9.4.8.2 1 .4 1.1.7 1.3.9.7.6.5 1.2.5.5.3.6.5.8.6.5.7.4 1.8.3.4.1.5.3 1.3 1.1.6.4 1 .5.3.3-.086.6H181.98zM113.945 102L114 79.4h-.7l-.7-.4-.6-.6-.7-1.5 30.6-3.1 29.7-3.4 9.837 31.6z"/><path stroke="#282828" stroke-width=".5" fill="#333" d="M210.8 18.3l.5-.4 38.6-5.8 1.1-.2.3-.1.4-.6 5.6-.7-.7 1.6-.1.7.5.8.1.2-.2 1-.4 1.4-.1.3v.2l.5.7.4.4h-.5l-1.3-.2h-.2l-1.9 1.6-.5.7-.1.1-1.7 5.1-.2.2-.2.1-.3.4-.3.3h-.6l-.3-.2-.2-.4-.2-.3-.1-.1-.2-.1h-.8l-.3-.1-.2-.1-.3.1-.4.2-.6.6-.5.1-.2.1-.6.4-.8.3-.6.5-.4.4-.7 1-.2.4-.2.7-.5 1-1.2 1.1-.2.1h-.3l-.2-.1-.3-.5-.1-.2.1-.8v-.1l-.6-.7-.2-.1-.3-.1-.3.2-1 .7-.6.3-1.5 1.2-.1.2v.6l-.4 1v.1l-.1.1-1-.5h-.3l-.3.1-.4.1-.4.3-.2.7v.2l.1.3.4.6-.3.5v.5l-.1.3-.5 1-.4.7-.1.1h-.4l-.9.1-.4-.1-.2.1-1.2.9-.9.4-.3.2-.5.7-.9.6-.7.9-.3.6-.1.1h-.5l-.3.1-.6.6-.4.6-1.2.7-.4.4-.1.3-.5.6-.1.1-1.5.6h-.2l-.3-.2-.4-.1h-.2l-.5.3h-.7l-.6.3h-.9l-.2.1-1 .4-.6.5-.2.3-.2.2-.9.3-.4.3-.3.1-.1.2-.3.9-.2.3-1 .6-.3.2-.6.8-.1.3v.3l.2.5v.3l-.4.8-.1.5.1 1.1-.1.2-.7.9-.1.1-.6.1-1.2.3h-.4l-.4-.2-.3-.1h-.2l-.5.3-.2.1-.5.7-.3.4-.2.5.4 6.4-5.7.5h-.2l-24.7 3.3-29.8 3.4-29.9 3.1-1.5.1.3.7-31.5 3.2-18.4 1.6.4-.1.6-.3.8-.6.4-.5.3-.5.1-.6v-.5l.1-.3.4-.1.6.1h.7l.5-1-.1-1.3-.3-1.2-.6-1.4-.1-.5-.2-1.2v-.7l.3-.4 1.1-1.1.4-.5.2-.5.1-.6v-1.2l.2-.2.4-.1.6-.2.7-.2.3-.6-.5-.9-.4-.4v-.4l.4-.3.4-.6v-.6l-.8-.8-.4-.6v-.3l.2-.3 3.4-1.9 1.6-1.5-.4-.8-.8-.5-.4-.1.1-.2.3-.4.3-.2.3-.1.7.5.7.1.2-.9-.4-.9-.7-.7-.5-.6.1-1 .6-1.2.1-.6.1-.2.3-.2.3-.3.5-.1.2-.9-.8-1.2-1.2-1.5 2.3-.3.2-.1.4-.3.1-.6-.4-.3-.6-.1-.8-.8v-.3l.2-.2h.6l.5-.1.6-.5.2-.8-.1-.7-.6-1.1-.1-.4.2-.6-.2-.2.3-.1h.4l-.1.5.1.7.9.1.4-.2.4-.5.5-.8 16-1.6 16.4-1.7v-.9L110 32l-.1-.5-.5-1.5-.6-1.2v-.2l4.4-.1.1.1.3.4.1.2.3.2 17.7-2.3 4.9-.6 3.9-.5 3.6-.5.7-.3 15.8-1.4 16.8-1.7 30.6-3.2 1.9-.2z"/><path stroke="#282828" stroke-width=".5" fill="#333" d="M230.9 0l.1.4.2.6v.2l-.2.4-2 1.5-.6.5-.1.3-.2.4.2.9V6l-.1.2-.3.2-2.6 1.5-1 .1-.2.1-.1.1-.5.7-.3 1-.3.6-.1.1v.2l.1.3v.1l-.2.2-2.3.7-2.3 1.2-.9.7-.2.3-.1.1-2.4.6-1.9 1.1h-.2l-.5.3-.9 1.1-.5.3-.8.3-10.8 1.2-21.6 2.3-16.8 1.6-15.5 1.4-.3.1-.8.2-17.5 2.3-12.3 1.6-.3-.5-.2-.2-.3-.1-4.7.1-.3.1-.1.1v.3l.7 1.6.4 1.4.1.5.1 1v.4l-31.6 3.2.2-1.4v-.4l.3-1 .1-.5.1-.1.5.3.6.6.7.5 1 .3.7-.5.5-1 .4-1.7.7-2.1.2-.8-.2-.7-.4-1-.1-.6v-.2l.4-.6.1-.2v-.4l-.1-.9V23l-.2-.6v-.1h-.1l-.8-.8-.4-.6-.2-.6.4-.8.7-1 .7-1.5.1-.3.8-.7.8-.5 1-.2 1 .1 6.6 2.3 1.8 1 1.1.2 1-.3.7-.8.4-1.4-.1-1-.6-.9-.7-.9-.6-.9-.3-1v-1l.2-1.2.2-.4.3-.3.3-.1.3-.2h1.1l.5-.2 1.2-.9 4.2-1.2.8-.7.1-1-.6-1.3-.8-.7-.6-.8-.2-.5.1-.6.2-.6h126.9z"/><path d="M144.393 90.654a2.54 2.54 0 0 1-2.54-2.54 2.54 2.54 0 1 1 2.54 2.54zm11.62-79.75a1.452 1.452 0 1 1 0-2.904 1.452 1.452 0 0 1 0 2.904zm117.373 67.36a1.999 1.999 0 1 1 .002-3.997 1.999 1.999 0 0 1-.002 3.998zm-66.77 10.889a4.826 4.826 0 0 1-4.824-4.828 4.826 4.826 0 0 1 4.824-4.829 4.826 4.826 0 0 1 4.825 4.829 4.826 4.826 0 0 1-4.825 4.828zM53.522 23.894a2.42 2.42 0 1 1 0-4.84 2.42 2.42 0 0 1 0 4.84zm32.982 65.967a1.524 1.524 0 1 1 .001-3.048 1.524 1.524 0 0 1-.001 3.048zM27.159 73.565a2.16 2.16 0 1 1 .002-4.32 2.16 2.16 0 0 1-.002 4.32zM272.224 23.67a6.776 6.776 0 1 1 0 13.551 6.776 6.776 0 0 1 0-13.551z" fill="url(#a)"/></g></svg>