<svg width="291" height="177" xmlns="http://www.w3.org/2000/svg"><defs><linearGradient x1="100%" y1="17.815%" y2="118.706%" id="a"><stop stop-color="#9F2D00" offset="0%"/><stop stop-color="#5F0E00" offset="100%"/></linearGradient></defs><g fill="none" fill-rule="evenodd"><path fill="#282828" fill-rule="nonzero" d="M-23 0h314v187H-23z"/><path d="M232.2 0H291v4.022l-.2.378v.5l-.4 1-.1.3v.2l.1 1.6v.1l-.7.7-.2.3-.3.7v1.1l-.1.2v.2l-.2 1.3-1.3 2.9-.1.1h-.1l-4.7-.6v-.4l-1.3-1.7-.1-.1-.2-.1-2.2-.4-.3.1-.2.2-.1.4-.1.5.1.8-.3 1-.1.1.1.5.1 1.2-.3.8-.1.3-.1.9v.1l-.5.3-.2.2-.1.5-.1.3-.2.3-.1.3.3.9.1.1-.1.2-.3.5-.5.4-.1.3-.4.6-.9 1.2-.1.5.1.3v.3l-.2 1.7-.8 2.6-3.7 6.2-.1.9-1.1 3.2v.4l.1.2v.1l.5.3.3.2.7.2.1.1v.3l-.1.2-.9.7-.4.5-.1.3v.3l.1.4v.1l.2.1.3.2v.2l-2.5 2.2-.7.8h-.2l-.1-.6-.4-.4h-.4l-.8.2-.5.3-1.9 1.3-1.8 1.6-.2.1-.2-.3h-.1l-.6-.1v-.2l-.1-.2-.2-.1h-1.1l-.3.1-.3.2-.3.3-.2.3v.7l.1.2.5.6v.2l-.1.2-.1.3-1.3 1.1h-.1l-.4-.2h-.2l-.3.1-.6.4-2.5.8-1.7 1.3-.1.1-.2-.3-.5-.3-1.3-.6-.8-.7-.1-.1-.3-.1h-.3l-.3.1-.3.2-.1.2-.2.7-.1.4-.2.3-.2.2-.9.3-.6.3-.1.2-1 1.4-.2.2-.5.1-1.3.1h-.3l-.6-.3-.8-.3-.3-.2-.6-.6-.3-.1-.4-.1h-.6l-.3.1h-.2l-.3-.1-.2-.1-.4-.7-.3-.2-.2-.2-1.2-.6-.2-.2-.1-.9v-.3l-.3-.6-.1-.1-1.1-.5.5-.6.1-.1v-.5l-.1-.4-.1-.2-.2-.1.1-.1-.4-.1-.1-.1-.4-.1h-.3l-.7.3h-.2l-1.8-.3-.3-.1h-.1v-.2l-.1-.4-1.3-1h-.4l-.1.1-.4-.5-.3-.2-.3-.1-1.1-.2-.1-.1-.3-.5-.4-.8-.1-.3-.3-.4-.4-.4-1.6-1.2-.5-1.5-.5-.5-.1-.2-1.2-.6h-.1v-.1l.3-.5v-.3l-.2-.4-.2-.3-1.5-1-.2-.1-.3-.6-.2-.3-2.1-2.1-.1-.2v-.1l.4-.5.1-.2.1-.4V35l-.1-.4v-.2l.3-.1.2-.1.1-.3-.1-.8-.1-1.1-.1-.3-.1-.4-.6-.8-.1-.2v-.9l.5.2 1.2-.3 1.8-1 1.6-.4.5-.3.3-.7.1-.6.1-2.5.1-.6.2-.2h1l.6-.2.4-.7v-.4l-.3-.8-.3-.4v-.2l.1-.5-.3-.8-.2-.5-.3-.3-.2-.4v-.5l.2-.3.5-.4.1-.8.3-.5v-1.6l.2-.8.4-1.2.6-1.1.5-.5.4-.1.8.4.7.2.6.6.1.4.2.2.1.2-.2.1-.1.2v.4l-.1.2v.3l.3.5.7.2.5-.4.5-.7.2-.5.1-.7v-.3h.2l.4.3.5.2.6-.4-.1-.5-.3-.5-.2-.4V9l-.2-.7-.7-.3-.2-.2-.1-.2 1-.7.2-.4v-.8l-.3-1v-.3l.1-.4.8-1.4.2-.9.3-.2.5-.1.4-.2.2.2.3-.3.5.2.3-.7V0zM291 69.234l-7 1.266-32.3 5.4-4 .6-4.5.8h-.1l-.1-.2.1-.3-.3.1-.2-.3-.1.3-5.6.7-.3.1-.1.1-.6.5v.1l-10.7 1.7-28.3 4.2.4-.4 2.4-1.4 2.2-.5.2-.2.3-.2.2-.2.8-.6 2.2-1.2 2.3-.7.5-.4v-.2l-.1-.5.3-.4.4-1.3.3-.5h.1l1-.2 2.8-1.6.3-.2.2-.3.2-.5-.1-.6-.1-.9v-.2l.6-.6 1.9-1.4.2-.2.3-.4v-.6l-.1-.7-.2-.3v-.1l.1-.2.3-.5 1-.9 5.5-3.9.5-.4 7.5-8.7.1.1.1.2-.1.3-.4.4-.2.4.3.6 1 .4.1.1.1.3.1 1v.3l.3.4 1.6.8.5.7.4.4.5.2.4-.1h.9l.2.1.6.5.3.2 1 .4.6.3.5.1 1.4-.1.9-.3.1-.2 1-1.5.2-.2 1.5-.5.2-.3.2-.4.1-.3.2-.7v-.1l.1-.1h.3l.7.6.2.2 1.5.6.2.1.3.4.4.2.3-.2 1.7-1.3 2.3-.7.2-.1.6-.4.1-.1.5.3h.2l.2-.1 1.5-1.2.2-.4.1-.4v-.5l-.5-.6-.1-.3.1-.4.2-.2.2-.1.3-.1h.6l.1.2.3.3h.5l.4.4h.3l.3-.1 1.9-1.7 1.9-1.3.5-.2.4-.2h.3l.1.5.1.2.1.1.4.3h.2l.3-.2.8-.9 2.5-2 .1-.2.1-.3-.1-.5-.1-.1-.4-.2v-.1l-.1-.1.1-.3.2-.4 1-.8.2-.2.1-.5-.2-.6-.2-.1-.8-.2-.5-.3-.1-.1.1-.2 1-3 .1-.9 2.1-3.6L274 31l.9-2.8.2-1.7v-.2l-.1-.3-.1-.2.1-.2.9-1.2.3-.6.7-.7.3-.5.1-.5-.3-.8v-.1l.2-.5.2-.7.4-.3.4-.4.1-1v-.2l.4-.8v-.2l-.2-1.2v-.4l.3-.7.1-.3v-.1l-.1-.8v-.5l.1-.2 2 .3 1.2 1.5h.1v.1l-.1.4v.2l.2.1 5.1.7.3-.1.2-.1.2-.2 1.3-2.8.1-.3.2-1.4v-.2l.1-1.1v-.1l.1-.5.2-.3.8-.8V8l-.1-1.6.1-.3.1-.233v63.367zM267.675 187l-.075-.3-.3-.6-.2-.3-.2-.4-.1-.4-.2-.5-.4-.8-1.6-1.9-.3-.2v-1.4l-.2-.6-.3-.6-.4-.5-.5-.2h-.6l-.3-.1-.8-.6-1.1-.4-2.2-.5-.9-.5-.1-.3-.4-1.1-.3-.4h-1l-.4-.3-.3-.3.2-.2.1-.5-.3-.4-.2-.1.1-.1-.1-.5-.7-.2h-.4l-.1.2-1.2-1-.1-.2.3-.2-.4-.8.5-.1-.5-.8h-.1l.1-.6-.5-.6-1.1-.5-.6-.4-1.2-1.2-.7-.3-.5-.2-1.2-.1-.5-.2-.6-.2-.5-.4-.4-.7-.3-.6-.5-.6-.5-1.2-.9-.8-1.3-.9-2.2-1.1-.8-.2-.8-.4-.6-.5-.6-.6-.5-.4-.5.1h-.3l-.3-.2-.3-.7-.7-1.4-.3-.3-.6-.3-.2-.3-.4-.7-.3-.4-.3-.3-.4-.2-.6-.1-.4-.5-.2-.1-.1-.2-.9-2.5-.3-.6-1.7-2-.2-.1-.5-.8-.2-.8-.4-.8-1.3-.6-1.7.3-1.1.2-.7-.3-.3-.3-.5-.6-.6-.3-.6-.6-1-.4-.1-.2-.2-.5h-.4l-.5.2-.7-.2-2.4-1.1-.8-.8.1-1.1.3-.5.1-.4v-.4l.1-.7.9-.9.2-.6.2-.9.1-.4.2-.3 1-1 .7-.3.3-.4.2-.4.1-.4v-.2h.1l6.6-3.4.6-.2.1.2.4.1 1.3-.9.2-.3.1-.2.1-.4.1-.1.4-.1.2-.1 1-.6 1.1-.6 1-.2.2-.1.4-.4.8-.2.3-.1.2-.3.1-.5.5-.5.3.3.4.1 1.7-.4 28.8-3.3h.4l.2.2.1.4-.2.7v.4l.2.4.5.5.2-.1.3-.1 1.8-1.8 3.8 3.7.1.1.5 3v.3l.1.2.3.2.3.1 19-2.992V187h-23.325zM231.65 0l.05.5-.1.1-.3-.1-.2.2-.1-.2-.6.4-.5.1-.7.3-.2 1.1-.8 1.4-.2.6.1.4.2 1 .1.6-.1.1-.9.6-.3.1v.3l.2.5.1.2.3.2.5.3.1.3.1 1.1.3.6.2.3v.1l-.1.1-.1-.1-.4-.3-.6-.1-.4.3-.1 1.2-.2.3-.3.5-.3.2h-.3l-.1-.1.1-.2v-.4l.2-.2.1-.3-.1-.3-.2-.3-.2-.5-.2-.4-.5-.3-.8-.3-.4-.2-.5-.3-.7.2-.7.7-.7 1.2-.4 1.2-.3 1 .1 1.2-.3.8-.1.6-.4.3-.4.5.1.8.3.6.2.3.2.4.2.6-.1.4.1.4.3.5.2.7v.2l-.2.3-.3.2h-1.2l-.3.4-.3.8v2.6l-.1.4-.2.5-.3.2-1.6.4-1.8 1-1 .2-.7-.2-.2-.2-.5-.9-.3-.4-2-1.4-1-.5-1.1-.2-1-.3-.8-.9-.8-1.8-.1-.5-.1-.6-.2-.5-.5-.2-.7.2-1.3.9-.6.2-.4.2-.4.5-.2.4-.3.3-.5.3-.2.2-.3 1-.1.2-.3.3h-1.4l-.6.1-.5.4-.2.2-.6.3-.3-.2-.7-.9-.2-.1-.4-.3-.7-.2h-.4l-.8.1h-.1l-.4-.3-.6-.3-.5-.1h-.5l-1.7.8-.4.4v.6l-.1.4-.3.3-.4.2-.8-.1-.9-.4-1.8-1.3-.4-.4-.4-.5-.4-.4-1.1-.1-1-.3h-.6l-2 .7h-.4l-2.6-.6-.5-.2-.2-.4-.1-.7-.2-.5-.2-.6-.4-.5-.3-.2-.3-.3-.3-.2-.1-.3-.1-.5-.3-.6-.3-.4-.4-.4-1.1-.4-.7-.1h-.4l-.1-.2-.3-.4-.5-.6-.7-.2-1 .4-1.8 1.1h-.8l-1.3-1-.3-.1-.5-.5-.4-.1-.4.2-.2.2-.3.5-.8.6-.3-2.4L157.547 0h74.103zM291 69.777v51.519l-19 3.004h-.1l-.5-3.3-.1-.2-4.1-3.9-.1-.1h-.4l-1.9 1.9h-.1l-.1-.1-.2-.4.3-.9-.1-.4-.1-.3-.4-.4-.4-.1h-.3l-16.4 2-12.4 1.3-1.7.5-.3-.3-.3-.2-.2.1-.3.1-.4.3-.1.3-.1.1-.1.5-.1.1-.8.1-.2.1-.3.4-1.1.2-1.3.7-.9.6-.7.2-.2.2-.1.6-.3.3-.9.7-.3-.4-1 .4-6.5 3.3h-.2l-28.4 4.6-.3-6.1v-.2l.1-.3.2-.3.4-.5.2-.2.3-.1h.1l.6.3.6-.1 1.2-.3.6-.1h.1l.3-.2.6-.8.2-.3.1-.4-.1-1 .1-.3.3-.8.1-.4v-.4l-.2-.3.1-.3.4-.6.3-.3.9-.5.2-.1.3-.5.3-.8.2-.2.3-.2.8-.3.4-.3.3-.3.5-.4.8-.4 1-.1.4-.1.2-.1h.3l.6-.1.4-.2h.2l.4.2h.6l1.5-.6.2-.1.6-.8.4-.6 1.2-.7.9-1 .2-.2h.2l.2.1.2-.1.3-.2.4-.7.4-.6.2-.2.7-.4.2-.2.5-.7 1-.5 1.2-.9h1.7l.2-.1.3-.2.5-.9.5-1 .1-.3v-.4l.2-.5.1-.2v-.3l-.4-.6v-.3l.1-.3.2-.2.2-.1h.2l.5.1.5.3.4.1.2-.1.2-.2.2-.3v-.4l.3-.3v-.3l.1-.2-.1-.4 1.4-1.1.6-.3.9-.7.2-.1.5.5-.1.5v.4l.1.2.2.5.1.1.3.2.2.1.3.1h.2l.3-.1 1.2-1 .1-.1.8-1.2.2-.9.2-.3.6-1 .3-.3.4-.3 1-.4.5-.4.7-.1.8-.8.2-.1h.1l.4.2.6-.1h.1l.3.6.1.1.1.2.4.2.6.1h.2l.3-.1.2-.1.6-.7.4-.4.2-.3 1.6-4.8.5-.7 1.6-1.4.1-.1 1.3.2h.7l.3-.1.2-.4-.3-.4-.4-.3-.3-.5v-.3l.4-1.4.2-1.1v-.3l-.5-.7v-.6l.7-1.5v.1h.4l20.7-3.3 20.2-3.5 6.9-1.223zM98.239 187H-23v-75.954l2.5-.146 19.3-1.3 12.8-.9 19.3-1.5 12.8-1.1 1.4-.2.5.9.3.3.2.6v.3l.3.3.8.5.3.2.2.5-.1.7v.3l.2.8-.1.3-.1.3-.7.3-.4.4v.7l-.2.3-.7.5-.5.3-.7.4-.2.3-.1.3v.6l-.8.5-.4.3-.5.7-.3.7-.2.3-.7 1.8-.1.3.2.5 15.3-1.7.6.8.6.6.3.7-.8-.3-.7.1-.5.3-.4.5-.3.8.9.3.6.4.1.3-1.2 1.2-3.4 1.8-.5.6.1.6.5.8.6.8-.2.5-.4.4-.2.5.1.4.5.5.3.6-.5.3-.6.1-.7.3-.3.4-.1.7.1.6-.1.5-.2.4-.3.4-1.2 1.2-.3.5v.9l.1 1.3.2.6.6 1.4.3 1.1.1 1.1-.3.6-1-.1h-.8l-.3.8v1l-.2.4-.3.4-.8.5-.5.3-.5.1-.4.5.4.6.8.8v1l-.6.9-1 .8-2.6 1.3-.4.6.2.6.3.5.2.4-.4.5-.4.2h-.4l-.5-.3-.6.2-.3.8-.3 1.1-.1 1.3.6 2-.1 2.4.1 1-.1.7-.6.8-.8.6-.5.2-.9.2-.9-.5-.2.5v.4l.1.5.3.5v.3l-.3.6-.1.3-.4-.2-.4.1-1.2 2.6-.6.3-1.2.9-.3.4.1 1.1 1.8.7.1.9-.2.4-.3.2-.9.1-.6.2-1.3.8-1.3.4-.4.4.2.6 1 .5.3.6-.2.5-.4.8.2 1.1.4.5.1.4-.2.4-.7.2-.7.4-.4.5-.4.5h70.039H29l.4-.7.4-.2.6-.1.5-.1.3-.9-.2-.6-.3-.5-.2-.8.3-.7.4-.8-.6-1-.8-.2-.1-.3 1.2-.4 1.3-.8.4-.1.6-.1.5-.1.5-.3.4-.7-.2-1.4-1.8-.7-.1-.5 1.3-1 .4-.2.3-.3.8-2.3 1.1.1.2-.3.1-.3.3-.6.1-.3-.1-.4-.3-.6-.1-.3.7.1 1-.2.6-.3.8-.5.8-1.1.2-.9-.1-1v-2.5l-.6-2 .1-1.1.3-1 .3-.5.5.2.6-.1.6-.2.7-.9-.3-.7-.3-.5-.1-.3.2-.3 2.5-1.2 1.1-.9.8-1.2-.1-1.4-.6-.6 2.6-.2 3.2-.3 18.4-1.7 24.7-2.5.9-.1.5 1.1.6.7 1 .6.039 40zM5.112 0L5.1.1v2.5l1 4.7.2.5.4.5.4.4.1.2.2.3v.9l-.1.9.2.6.4.4.1.3.7.6.1.2.2 1 .4.9.5.7 6.1 4.7.4.4.2.4.2.6.2.5.4.4L23 26l.5.4.5.7.7 1 .3.5.2.5v.4l.1.8v.3l.2.5.5.6v.4l-.2.4v.4l.2.5.2.3.2.8-.1.5 1.3 2.2.8.8 1.2.3 1-.6 1.3-2 1-.2h.3l.8.5.6.1h.5l1.1.2 2.3 1 .9.7.4.6-.1.3-.3.8-.4.6-.3.3-.3.4v.9l.2 1.1.1 1.1-.3.9-1 2-.8 3.2-1 1.9-.3 1v1.2l.4 1.3.1.5.4.7.2.2 1.4 1 .2.2.7.6.1.2.2.5.6.4.9.4 1.2 1.2.7.6.9.2 1.3 1 .5.2.9-.1.9.2.8.4 1.5 1.3.6.3 1.4.5.6.3.6.7.8 1.5.6.6 2.4.9.4.3-.1.3.4 1 .1.5v.9l-.1.6.2.6.6 1.1.7.8.6.9.3 1.1-.2.9-1.4 1.8.1 1.4.3.2.7.2.2.2v.2l.2.6.2.5.7.9 1 1.2.4.7-.1.9.5.5 1.3.8 1.1.4.5-.1.2-.5-.2-.5-.2-.4-.5-.3-.2-.5v-.1h.3l.4-.1.2.7.1.3.3.2.5.3.2.1.3.8.3.4.5.1.6-.3h.1l.3.1.1.3-.1 1.2.2.9v.2l-.5.7-.1.5.2.8.4.9.1.6-.1.6-.7 2.2-.4 1.6-.4.8-.4.3-.6-.2-.6-.4-.7-.7-.8-.5-.4.3-.4.8-.2 1.2v.4l-.3 1.3v.2l-.1.2v.1l-.4.6-.3.4-.2.1H61l-.1-.2.2-.6v-.2l.1-.5-.4-1.3-1.1-.4-1 .5-.1 1.3.2.3h-.1l.5.4v.1l.2.3-.1.5v.5l.7 1.2.1.5-.2.5-.3.3-.4.1h-.7l-.6.4.1.7.5.7.5.4.6.2.1.1-.1.1-.2.1-2.2.3-.8.3 1.7 2 .6 1v.3l-.8.4-.3.3-.2.4-.1.6-.6 1.2-.1.8-14.9 1.8.7-1.8.2-.3.3-.7.3-.4.1-.2.1-.1.6-.2.1-.1.3-.2.2-.4.1-.6v-.2l.3-.3.9-.5.7-.5.2-.1.1-.2.1-.4v-.5l.1-.1.6-.3.3-.2.2-.3.1-.6-.2-1v-.1l.1-.8v-.3l-.2-.5-.2-.2-1.1-.6v-.1l-.2-.7-.1-.4-.4-.2-.3-.7-.3-.5-8.2.8-19.2 1.5-19.3 1.5-19.3 1.3-2.4.14V0H5.113zm90.684 0h61.179l2.225 17.1-.2.2-.7 1 .2 1.1.7.6.4.4.1.3-.1.4-.7.9-.2.5.4.4.6.3 1-.1h.3v.2l-.2.4-.3.4-.1.8.4.8h-1.9l-.9.3-1.4.8-3 2.5-.7.2-.3-.1-.9-.8-.6-.2-1.5.2-2.6.5-.6.5.1.7.3.7.1.3.5 1.7.6 1-.1.5-.2.3-1.1 1.1-.2.4-.3.5-.2.2-1 .3-.5.2-.6 1-.3 2.7-.3.9-1 1-.8.3h-.1v-.1l-.2-.2-.8-.1h-.4l-.3.5-.4 1.3-.1.2-.4.3-.3.6-.2 1.4.2 2.7-.1.7-.3.5-.1.2-.2.1-1.1.4-.6.3-.2.5v.1l-.3-.2-1.1-.9-.6-.1-1.1.1-.4-.2-.5-.2-.9-.4-.3-.2-.2-.3-.1-.3-.1-1.4-.3-.3-1.4-.9-.5-.2-.7.1-.4.4.5.8.6.2.4.1-.2.2-.8.5-.4.1h-.1l-.3-.3-.4-.2h-.5l-.2.6.2.4.6.6-.1.5-.2.3-.4.2-.6.1-.4.4v.8l.3 1.8v.4l-.2.1-1.2.5-.2.6.1.6-.1.5-.3.2h-.5l.4-1.3-.9-.1-1 .3h-.7l-.6-.4-.6-.7-.2-.7-.7-.7-.9.5-1.4 1.4-.2.1-1.2.3-.6.3-.3.3-.5 1-.4 1.8-.2.7-.5.4-.3-.2-.3-.4-.2-.2-.1-.4-.2-.3-.4-.1h-.7l-1.2-.6-1.5-.4-.5-.2-.4-.3-.6-.3-.6-.2-.6-.1-1.1.4-.8.6-.7.2-.7-.5-.1-.1v-.6l-.3-.3-.3-.1-.4.1-.2.3-.1.5.2.7.5.8.2.5-.2.7-.4.6-.5.3-.3-.2-.1-.3.2-.9-.2-.6-.5-.3-.5.1-.4.3-.2.2h-.2l-.8.4-.4.1h-.4l-.8-.4-.4-.4-.5-.4h-.7l-.5.4-.2.8.2.4.8 1.5-.9 1.2h-.2l-.8-.4-.5-.1-.6.1-.2-.1.6-.3-.3-.5-1.1-1 .3.1.8-.4.1-.4-.4-1.3v-.2l.2-.4v-.6l-.2-.5-.1-.1.3-.4-.3-.6.3-.1.5-.2.4-.3.5-.6-.8-.5-.5.1.5-.6.6-.3.3-.2.3-.8-.4-.4-.5-.3-.2-.1-.1-.3-.4-.3v-.4l.3-.3.2-.3.2-1 .1-.3h.1l.2.3.7.4.2-.9v-.2h.1l.2.4.5.2.3-.4v-1l.2-.3.1-.7.1-.2.5-.4.2-.1.4-.6.1-.3.2-.3.1-.8-.4-.3.5-.2.7-.4.4-.6h.6l.2-.5v-.5l-.5-.6-.1-.3.1-.4.1-.2.2-.2 1-.7h-.5V39l-.1-.6.1-.5.2-.4.3-.3.5-.1.3-.1.2-.4.5-2.2-.5-1.2-.6-1-.3-1V31l.2-.5.1-.5-.1-1.1-.2-.5-.8-.5-.3-.3-.5-1.5-.3-.5-.8-.7-.4-.2h-.1l-.1-.2v-.9l1.3-1.6-.1-1.4-.7-.9-.1-.4.1-.4.3-.4 1.3-.9.2-.2L95.796 0zm-.59 0L97 16.3l.1 1-1.2.7-.5.6-.2.7.2.6.6.9.1 1.1-1.3 1.5.1 1.3.2.4.6.2.7.6.2.4.4 1.1.1.4.4.5.7.4.1.3.2 1-.1.3-.2.4-.1.6.4 1.1.6 1 .4 1-.4 2.1-.1.1-.4.1h-.2l-.5.4-.3.6-.2.8.2.5-.1.1-.7.6h.2l-.2.4-.1.6.1.5.4.6.1.2h-.5l-.4.6-.2.1-.6.4-.9.4.1.6.4.2-.1.4-.2.6-.3.4-.5.3-.2.2-.2.5-.2.6-.1.4v.7l-.1-.3-.3-.3-.4.2-.4.6v.2l-.1-.1-.1-.4-.8.3-.2.5-.2.9-.1.2-.3.2-.1.3-.1.5.1.4.8.8.5.3.2.1-.1.3-.1.1-.5.2-1.5 1.5.9.3.6-.1-.3.3-.4.2-.3.1-.6.3.4.8-.2.4.2.3.2.8-.3.3v.5l.4 1.2-.2.2h-.1l-1.8-.1 1 1 1.2.9-1 .1-.2.2v.3l.2.3.2.1h.5l.3.1v.2l.1.5-.2.6-.2.3-1.2 1.3-.3.5-.3.7-.1.8.3.6.5.8.2.2.7.6.6 1.1-.1.6-.6.5-4.1 1.2-1.3.9-.3.1-1.1.1-.4.1-.5.3-.3.4-.3.5-.3 1.3v1.2l.4 1.1.6 1 .8.9.5.8.1.8-.4 1.1-.5.6-.7.2-.9-.1-1.7-1-6.8-2.4-1.2-.1-1 .3-1.1.5-.8.8-.2.4-.6 1.5-.8 1-.4 1.1.1.8.6.8.3.3h-.1l-.4.2h-.1l-.1-.1-.2-.6-.4-.6-.6-.2-.1-.2-.3-.9-.3-.2h-.7l-.6.2-.2.5.4.8.3.3.2.1.1.2.1.3-.9-.3-1.2-.7-.4-.3.1-.9-.5-.9-1-1.1-.6-.9-.2-.4-.1-.4v-.5l-.6-.4-.6-.2-.1-.9.5-.8.7-.9.4-1.2-.4-1.3-.6-1-.7-.8-.6-.9-.1-.5v-.5l.1-.6v-.5l-.2-.6-.2-.4-.1-.4.2-.5-.8-.6-2.4-.8-.5-.5-.8-1.5-.6-.8-.7-.4-1.5-.5-.5-.2-1.5-1.3-.8-.5-1.2-.3-.8.1-.3-.1-1.4-1-.8-.2-.6-.5-.7-.7-.6-.5-.9-.5-.4-.2-.2-.4-.2-.3-.7-.6-.2-.2-1.4-1.1-.1-.2-.3-.5-.2-.4-.3-1.3v-1l.2-.9 1-1.9.9-3.2.9-2 .4-1-.1-1.3-.2-1.1v-.6l.5-.5.4-.8.3-.8.2-.6-.5-.9-1.1-.7-2.4-1.1-1.3-.3h-.9l-.8-.5-.5-.1-1.3.4-1.3 2-.8.4-.8-.2-.7-.7-1.1-1.9v-.4l-.2-1-.4-.6.1-.3.2-.8-.1-.3-.5-.7-.1-.3-.1-1.1-.1-.4-.2-.6-.3-.6-.7-1.1-.6-.7-.6-.4-5.5-3.4-.4-.2-.3-1-.3-.6-.4-.4-6.1-4.6-.4-.6-.4-.9-.1-.7v-.3l-.2-.3-.7-.6-.2-.3-.3-.4-.1-.1V11l.1-.9-.1-.7v-.3l-.1-.3-.3-.4-.4-.4-.3-.5-.2-.3-.9-4.7-.1-1.2.1-1.2.014-.1h89.491zM267.1 187h-94.477L161.4 151.2l-1.8-6-2.1-6.8-.1-.2-.2-.9 11.5-1.5 11.9-1.7.8-.1.1.1 5.8-.5.3-.1h.3l27.9-4.5v.3l-.2.3-.1.2-.6.3-.3.3-.9.8-.3.5-.1.4-.2.9-.2.5-.5.5-.3.4-.3.6v1l-.3.5-.1 1.5 1 1 2.5 1.2.9.3.5-.2v.1l.4.5.9.4.6.5.6.3.5.6.4.4 1 .4 1.2-.3 1.5-.2 1 .4.3.6.2.8.5.9.3.2 1.7 1.9.2.6.9 2.4.2.4.7.7.6.1.6.4.2.3.4.7.3.5.7.2.1.2.4.7.7 1.4.4.4.6.1.4-.1.3.2.5.6.7.6.9.4.8.2 1 .4 1.1.7 1.3.9.7.6.5 1.2.5.5.3.6.5.8.6.5.7.4 1.8.3.4.1.5.3 1.3 1.1.6.4 1 .5.3.3-.1.7.3.2v.1h-.2v.5l.3.6-.3.2.4.6 1.3 1.1.5.4v-.1l.8.4.1.1v.1l-.4.4.6.8.5.4.6.1.5-.1v.1l.4 1.1.2.4 1 .7 2.3.5 1 .4.9.6.4.1.6.1.2.1.3.3.3.5.2.4-.1 1 .1.7.4.3 1.6 1.8.3.7.2.4v.4l.3.5.3.4.2.4v.2zm-168.199 0L99 146.4h-.7l-.7-.4-.6-.6-.7-1.5 30.6-3.1 29.7-3.4 15.44 49.6H98.902zM195.8 85.3l.5-.4 38.6-5.8 1.1-.2.3-.1.4-.6 5.6-.7-.7 1.6-.1.7.5.8.1.2-.2 1-.4 1.4-.1.3v.2l.5.7.4.4h-.5l-1.3-.2h-.2l-1.9 1.6-.5.7-.1.1-1.7 5.1-.2.2-.2.1-.3.4-.3.3h-.6l-.3-.2-.2-.4-.2-.3-.1-.1-.2-.1h-.8l-.3-.1-.2-.1-.3.1-.4.2-.6.6-.5.1-.2.1-.6.4-.8.3-.6.5-.4.4-.7 1-.2.4-.2.7-.5 1-1.2 1.1-.2.1h-.3l-.2-.1-.3-.5-.1-.2.1-.8v-.1l-.6-.7-.2-.1-.3-.1-.3.2-1 .7-.6.3-1.5 1.2-.1.2v.6l-.4 1v.1l-.1.1-1-.5h-.3l-.3.1-.4.1-.4.3-.2.7v.2l.1.3.4.6-.3.5v.5l-.1.3-.5 1-.4.7-.1.1h-.4l-.9.1-.4-.1-.2.1-1.2.9-.9.4-.3.2-.5.7-.9.6-.7.9-.3.6-.1.1h-.5l-.3.1-.6.6-.4.6-1.2.7-.4.4-.1.3-.5.6-.1.1-1.5.6h-.2l-.3-.2-.4-.1h-.2l-.5.3h-.7l-.6.3h-.9l-.2.1-1 .4-.6.5-.2.3-.2.2-.9.3-.4.3-.3.1-.1.2-.3.9-.2.3-1 .6-.3.2-.6.8-.1.3v.3l.2.5v.3l-.4.8-.1.5.1 1.1-.1.2-.7.9-.1.1-.6.1-1.2.3h-.4l-.4-.2-.3-.1h-.2l-.5.3-.2.1-.5.7-.3.4-.2.5.4 6.4-5.7.5h-.2l-24.7 3.3-29.8 3.4-29.9 3.1-1.5.1.3.7-31.5 3.2-18.4 1.6.4-.1.6-.3.8-.6.4-.5.3-.5.1-.6v-.5l.1-.3.4-.1.6.1h.7l.5-1-.1-1.3-.3-1.2-.6-1.4-.1-.5-.2-1.2v-.7l.3-.4 1.1-1.1.4-.5.2-.5.1-.6v-1.2l.2-.2.4-.1.6-.2.7-.2.3-.6-.5-.9-.4-.4v-.4l.4-.3.4-.6v-.6l-.8-.8-.4-.6v-.3l.2-.3 3.4-1.9 1.6-1.5-.4-.8-.8-.5-.4-.1.1-.2.3-.4.3-.2.3-.1.7.5.7.1.2-.9-.4-.9-.7-.7-.5-.6.1-1 .6-1.2.1-.6.1-.2.3-.2.3-.3.5-.1.2-.9-.8-1.2-1.2-1.5 2.3-.3.2-.1.4-.3.1-.6-.4-.3-.6-.1-.8-.8v-.3l.2-.2h.6l.5-.1.6-.5.2-.8-.1-.7-.6-1.1-.1-.4.2-.6-.2-.2.3-.1h.4l-.1.5.1.7.9.1.4-.2.4-.5.5-.8 16-1.6 16.4-1.7v-.9L95 99l-.1-.5-.5-1.5-.6-1.2v-.2l4.4-.1.1.1.3.4.1.2.3.2 17.7-2.3 4.9-.6 3.9-.5 3.6-.5.7-.3 15.8-1.4 16.8-1.7 30.6-3.2 1.9-.2.9-.4zm-127.4 4h-.1l-.8-.8-.4-.6-.2-.6.4-.8.7-1 .7-1.5.1-.3.8-.7.8-.5 1-.2 1 .1 6.6 2.3 1.8 1 1.1.2 1-.3.7-.8.4-1.4-.1-1-.6-.9-.7-.9-.6-.9-.3-1v-1l.2-1.2.2-.4.3-.3.3-.1.3-.2h1.1l.5-.2 1.2-.9 4.2-1.2.8-.7.1-1-.6-1.3-.8-.7-.6-.8-.2-.5.1-.6.2-.6.2-.4 1.2-1.2.3-.4.2-.8v-.8l.3-.1.3.1.8.4.8.1.1-.3 1-1.4-.9-1.8-.1-.3.1-.4.2-.2.3.1.4.2.4.4.4.3.5.2.6.1.6-.2.8-.4h.3l.5-.5h.2l.2.1v.2l-.1 1 .1.6.8.4.8-.4.6-.8.2-1-.2-.7-.5-.8-.1-.5v-.3h.1l.1.5.1.4 1.1.8 1-.4.9-.6.9-.3h.3l.6.2 1 .6.5.2 1.5.4 1 .5.6.2.4-.1.2.1.1.4.2.3.5.5.7.4.8-.7.3-.8.4-1.9.2-.4.2-.3.6-.4 1.3-.3.4-.3.5-.6.7-.7.6-.3.3.3.2.7.7.8.8.5 1 .1 1-.3h.1l-.3 1 .6.4.7-.1.6-.4.2-.8-.1-.5v-.3l1.2-.4.3-.4v-.6l-.3-1.8.1-.6.1-.1.4-.1.6-.2.5-.6v-.8l-.2-.4-.5-.4v-.1h.2v.1l.2.3.5.1.6-.1 1-.6.5-.8-.4-.4-.6-.1-.3-.2-.2-.2h.3l.4.1 1.2.8.2.1.1 1.2v.5l.3.4.6.4.9.4 1 .5 1.2-.1h.4l1 .8.7.5.4-.4.1-.5.4-.2 1.1-.4.4-.3.2-.2.2-.3.1-.3.1-.9-.1-2.7v-.6l.1-.6.2-.5.3-.2.3-.3.4-1.3.1-.3h.1l.5.1.2.4.5-.1.9-.4.5-.3.7-.7.5-1.2.2-2.6.5-.8.3-.1 1-.3.4-.3.3-.6.2-.3 1.1-1.1.4-.5v-.8l-.6-1.1-.4-1.7-.3-.4-.2-.5v-.4l.2-.1 2.5-.6 1.3-.1.4.1.8.7.7.3 1-.3 3-2.5 1.4-.8.7-.2h1.9l.5-.5-.5-1 .1-.4.3-.4.2-.6v-.7l-.8-.2-1 .1-.4-.2.8-1 .2-.7-.2-.6-.5-.5-.6-.5-.2-.7.5-.7 1.6-1.2.3-.5.1-.2h.1l.4.3.5.3 1.4 1.1 1.2-.1 1.8-1.2.8-.2.4.1.3.4.3.5.5.3h.4l.6.1 1 .4.3.2.3.4.2.5.1.5.2.4.4.4.3.2.2.2.3.4.2.4.1.6.2.7.3.6.6.3 2.8.6h.6l2-.7h.4l1 .3.9.1.3.3.4.5.5.4 1.8 1.4 1 .4 1.2.1.5-.2.4-.5.3-.6v-.5l.1-.1 1.5-.7h.4l.8.2.4.4.4.1.8-.1h.3l.6.1.3.2.8 1 .4.2.4.1.9-.3.2-.3.3-.2.4-.1h1.1l.5-.1.5-.4.2-.5.1-.5.1-.2.1-.1.5-.3.4-.5.2-.4.3-.3.3-.2.6-.2 1.3-.9.5-.2.1.1v.3l.1.5.2.6.8 1.8 1 1.1 1.2.5 1 .2.9.3 1.9 1.4.8 1.2.2.2.1 1.2v.2l.2.3.5.8.1.3.1.2v1.1l.2.6-.3.1-.2.1-.1.4v.2l.1.4v.3l-.5.5-.2.3v.3l.3.6 2.1 2 .3.7.5.5 1.3.8.2.2.2.3-.3.6v.4l.2.2 1.1.6.3.1.3.5.3 1 .1.3.2.3 1.7 1.3.5.5.1.3.4.9.2.4.2.2.4.2.9.2.3.1.2.1.8.8.3-.2.7.5.3.2.1.6.2.2.5.1 2 .3h.3l.7-.3h.2l-7.4 8.6-.5.4-5.5 3.9-1 1-.4.5-.2.4.1.3.1.4.2.6v.2l-.2.4-2 1.5-.6.5-.1.3-.2.4.2.9v.8l-.1.2-.3.2-2.6 1.5-1 .1-.2.1-.1.1-.5.7-.3 1-.3.6-.1.1v.2l.1.3v.1l-.2.2-2.3.7-2.3 1.2-.9.7-.2.3-.1.1-2.4.6-1.9 1.1h-.2l-.5.3-.9 1.1-.5.3-.8.3-10.8 1.2-21.6 2.3-16.8 1.6-15.5 1.4-.3.1-.8.2-17.5 2.3-12.3 1.6-.3-.5-.2-.2-.3-.1-4.7.1-.3.1-.1.1v.3l.7 1.6.4 1.4.1.5.1 1v.4l-31.6 3.2.2-1.4v-.4l.3-1 .1-.5.1-.1.5.3.6.6.7.5 1 .3.7-.5.5-1 .4-1.7.7-2.1.2-.8-.2-.7-.4-1-.1-.6v-.2l.4-.6.1-.2v-.4l-.1-.9V90l-.2-.6v-.1z" stroke="#282828" stroke-width=".5" fill="#333" fill-rule="nonzero"/><path d="M125.852 26.725a4.104 4.104 0 0 1-4.109-4.098 4.104 4.104 0 0 1 4.11-4.098c2.269 0 4.108 1.835 4.108 4.098a4.104 4.104 0 0 1-4.109 4.098zm136.417 75.692c-3.631 0-6.576-2.937-6.576-6.559 0-3.622 2.945-6.558 6.576-6.558 3.632 0 6.576 2.936 6.576 6.558s-2.944 6.559-6.576 6.559zM29.663 134.359a3.798 3.798 0 0 1-3.803-3.793 3.798 3.798 0 0 1 3.803-3.793c2.1 0 3.803 1.699 3.803 3.793a3.798 3.798 0 0 1-3.803 3.793zM26.69 82.48A3.686 3.686 0 0 1 23 78.797a3.686 3.686 0 0 1 3.69-3.681 3.686 3.686 0 0 1 3.691 3.68 3.686 3.686 0 0 1-3.69 3.681zm215.727-48.147a3.551 3.551 0 0 1-3.556-3.547 3.551 3.551 0 0 1 3.556-3.546 3.551 3.551 0 0 1 3.555 3.546 3.551 3.551 0 0 1-3.555 3.547zm-48.59 125.987c-3.765 0-6.816-3.043-6.816-6.797 0-3.754 3.051-6.798 6.816-6.798 3.764 0 6.815 3.044 6.815 6.798s-3.051 6.797-6.815 6.797zm-62.527.56a3.23 3.23 0 0 1-3.234-3.225 3.23 3.23 0 0 1 3.234-3.225 3.23 3.23 0 0 1 3.233 3.225 3.23 3.23 0 0 1-3.233 3.225zm128.507-8.113c-4.312 0-7.807-3.486-7.807-7.786 0-4.3 3.495-7.787 7.807-7.787s7.808 3.487 7.808 7.787-3.496 7.786-7.808 7.786zM67.472 38.856a2.462 2.462 0 0 1-2.465-2.459 2.462 2.462 0 0 1 2.465-2.459c1.362 0 2.466 1.101 2.466 2.459a2.462 2.462 0 0 1-2.466 2.459zm125.191-26.578a2.052 2.052 0 0 1-2.055-2.049c0-1.131.92-2.049 2.055-2.049 1.135 0 2.055.918 2.055 2.05 0 1.13-.92 2.048-2.055 2.048zM75.23 165.505a3.49 3.49 0 0 1-3.494-3.485 3.49 3.49 0 0 1 3.494-3.484 3.49 3.49 0 0 1 3.494 3.484 3.49 3.49 0 0 1-3.494 3.485zM266.53 57.74c1.916 0 3.47 1.55 3.47 3.461a3.466 3.466 0 0 1-3.47 3.461 3.466 3.466 0 0 1-3.47-3.46 3.466 3.466 0 0 1 3.47-3.462z" fill="url(#a)"/></g></svg>