<?xml version="1.0" encoding="UTF-8"?>
<svg width="395px" height="302px" viewBox="0 0 395 302" version="1.1" xmlns="http://www.w3.org/2000/svg" xmlns:xlink="http://www.w3.org/1999/xlink">
  <defs>
    <linearGradient x1="100%" y1="17.8146053%" x2="100%" y2="118.706267%" id="linearGradient-1">
      <stop stop-color="#9F2D00" offset="0%"></stop>
      <stop stop-color="#5F0E00" offset="100%"></stop>
    </linearGradient>
    <path d="M0,84 L317,84 L317,106 L0,106 L0,84 Z M0,56 L343,56 L343,78 L0,78 L0,56 Z M0,28 L369,28 L369,50 L0,50 L0,28 Z M0,0 L395,0 L395,22 L0,22 L0,0 Z M0,112 L295,112 L295,134 L0,134 L0,112 Z M0,140 L262,140 L262,162 L0,162 L0,140 Z M0,168 L235,168 L235,190 L0,190 L0,168 Z M0,196 L208,196 L208,218 L0,218 L0,196 Z M0,224 L181,224 L181,246 L0,246 L0,224 Z M0,252 L154,252 L154,274 L0,274 L0,252 Z M0,280 L128,280 L128,302 L0,302 L0,280 Z" id="path-2"></path>
  </defs>
  <mask id="mask-3" fill="white">
      <use xlink:href="#path-2"></use>
  </mask>
  <use fill="url(#linearGradient-1)" xlink:href="#path-2"></use>
</svg>