<svg width="314" height="187" xmlns="http://www.w3.org/2000/svg"><defs><linearGradient x1="100%" y1="17.815%" y2="118.706%" id="a"><stop stop-color="#9F2D00" offset="0%"/><stop stop-color="#5F0E00" offset="100%"/></linearGradient></defs><g fill="none" fill-rule="evenodd"><path fill="#282828" fill-rule="nonzero" d="M0 0h314v187H0z"/><path d="M255.2 0H314v4.022l-.2.378v.5l-.4 1-.1.3v.2l.1 1.6v.1l-.7.7-.2.3-.3.7v1.1l-.1.2v.2l-.2 1.3-1.3 2.9-.1.1h-.1l-4.7-.6v-.4l-1.3-1.7-.1-.1-.2-.1-2.2-.4-.3.1-.2.2-.1.4-.1.5.1.8-.3 1-.1.1.1.5.1 1.2-.3.8-.1.3-.1.9v.1l-.5.3-.2.2-.1.5-.1.3-.2.3-.1.3.3.9.1.1-.1.2-.3.5-.5.4-.1.3-.4.6-.9 1.2-.1.5.1.3v.3l-.2 1.7-.8 2.6-3.7 6.2-.1.9-1.1 3.2v.4l.1.2v.1l.5.3.3.2.7.2.1.1v.3l-.1.2-.9.7-.4.5-.1.3v.3l.1.4v.1l.2.1.3.2v.2l-2.5 2.2-.7.8h-.2l-.1-.6-.4-.4h-.4l-.8.2-.5.3-1.9 1.3-1.8 1.6-.2.1-.2-.3h-.1l-.6-.1v-.2l-.1-.2-.2-.1h-1.1l-.3.1-.3.2-.3.3-.2.3v.7l.1.2.5.6v.2l-.1.2-.1.3-1.3 1.1h-.1l-.4-.2h-.2l-.3.1-.6.4-2.5.8-1.7 1.3-.1.1-.2-.3-.5-.3-1.3-.6-.8-.7-.1-.1-.3-.1h-.3l-.3.1-.3.2-.1.2-.2.7-.1.4-.2.3-.2.2-.9.3-.6.3-.1.2-1 1.4-.2.2-.5.1-1.3.1h-.3l-.6-.3-.8-.3-.3-.2-.6-.6-.3-.1-.4-.1h-.6l-.3.1h-.2l-.3-.1-.2-.1-.4-.7-.3-.2-.2-.2-1.2-.6-.2-.2-.1-.9v-.3l-.3-.6-.1-.1-1.1-.5.5-.6.1-.1v-.5l-.1-.4-.1-.2-.2-.1.1-.1-.4-.1-.1-.1-.4-.1h-.3l-.7.3h-.2l-1.8-.3-.3-.1h-.1v-.2l-.1-.4-1.3-1h-.4l-.1.1-.4-.5-.3-.2-.3-.1-1.1-.2-.1-.1-.3-.5-.4-.8-.1-.3-.3-.4-.4-.4-1.6-1.2-.5-1.5-.5-.5-.1-.2-1.2-.6h-.1v-.1l.3-.5v-.3l-.2-.4-.2-.3-1.5-1-.2-.1-.3-.6-.2-.3-2.1-2.1-.1-.2v-.1l.4-.5.1-.2.1-.4V35l-.1-.4v-.2l.3-.1.2-.1.1-.3-.1-.8-.1-1.1-.1-.3-.1-.4-.6-.8-.1-.2v-.9l.5.2 1.2-.3 1.8-1 1.6-.4.5-.3.3-.7.1-.6.1-2.5.1-.6.2-.2h1l.6-.2.4-.7v-.4l-.3-.8-.3-.4v-.2l.1-.5-.3-.8-.2-.5-.3-.3-.2-.4v-.5l.2-.3.5-.4.1-.8.3-.5v-1.6l.2-.8.4-1.2.6-1.1.5-.5.4-.1.8.4.7.2.6.6.1.4.2.2.1.2-.2.1-.1.2v.4l-.1.2v.3l.3.5.7.2.5-.4.5-.7.2-.5.1-.7v-.3h.2l.4.3.5.2.6-.4-.1-.5-.3-.5-.2-.4V9l-.2-.7-.7-.3-.2-.2-.1-.2 1-.7.2-.4v-.8l-.3-1v-.3l.1-.4.8-1.4.2-.9.3-.2.5-.1.4-.2.2.2.3-.3.5.2.3-.7V0zM314 69.234l-7 1.266-32.3 5.4-4 .6-4.5.8h-.1l-.1-.2.1-.3-.3.1-.2-.3-.1.3-5.6.7-.3.1-.1.1-.6.5v.1l-10.7 1.7-28.3 4.2.4-.4 2.4-1.4 2.2-.5.2-.2.3-.2.2-.2.8-.6 2.2-1.2 2.3-.7.5-.4v-.2l-.1-.5.3-.4.4-1.3.3-.5h.1l1-.2 2.8-1.6.3-.2.2-.3.2-.5-.1-.6-.1-.9v-.2l.6-.6 1.9-1.4.2-.2.3-.4v-.6l-.1-.7-.2-.3v-.1l.1-.2.3-.5 1-.9 5.5-3.9.5-.4 7.5-8.7.1.1.1.2-.1.3-.4.4-.2.4.3.6 1 .4.1.1.1.3.1 1v.3l.3.4 1.6.8.5.7.4.4.5.2.4-.1h.9l.2.1.6.5.3.2 1 .4.6.3.5.1 1.4-.1.9-.3.1-.2 1-1.5.2-.2 1.5-.5.2-.3.2-.4.1-.3.2-.7v-.1l.1-.1h.3l.7.6.2.2 1.5.6.2.1.3.4.4.2.3-.2 1.7-1.3 2.3-.7.2-.1.6-.4.1-.1.5.3h.2l.2-.1 1.5-1.2.2-.4.1-.4v-.5l-.5-.6-.1-.3.1-.4.2-.2.2-.1.3-.1h.6l.1.2.3.3h.5l.4.4h.3l.3-.1 1.9-1.7 1.9-1.3.5-.2.4-.2h.3l.1.5.1.2.1.1.4.3h.2l.3-.2.8-.9 2.5-2 .1-.2.1-.3-.1-.5-.1-.1-.4-.2v-.1l-.1-.1.1-.3.2-.4 1-.8.2-.2.1-.5-.2-.6-.2-.1-.8-.2-.5-.3-.1-.1.1-.2 1-3 .1-.9 2.1-3.6L297 31l.9-2.8.2-1.7v-.2l-.1-.3-.1-.2.1-.2.9-1.2.3-.6.7-.7.3-.5.1-.5-.3-.8v-.1l.2-.5.2-.7.4-.3.4-.4.1-1v-.2l.4-.8v-.2l-.2-1.2v-.4l.3-.7.1-.3v-.1l-.1-.8v-.5l.1-.2 2 .3 1.2 1.5h.1v.1l-.1.4v.2l.2.1 5.1.7.3-.1.2-.1.2-.2 1.3-2.8.1-.3.2-1.4v-.2l.1-1.1v-.1l.1-.5.2-.3.8-.8V8l-.1-1.6.1-.3.1-.233v63.367zM290.675 187l-.075-.3-.3-.6-.2-.3-.2-.4-.1-.4-.2-.5-.4-.8-1.6-1.9-.3-.2v-1.4l-.2-.6-.3-.6-.4-.5-.5-.2h-.6l-.3-.1-.8-.6-1.1-.4-2.2-.5-.9-.5-.1-.3-.4-1.1-.3-.4h-1l-.4-.3-.3-.3.2-.2.1-.5-.3-.4-.2-.1.1-.1-.1-.5-.7-.2h-.4l-.1.2-1.2-1-.1-.2.3-.2-.4-.8.5-.1-.5-.8h-.1l.1-.6-.5-.6-1.1-.5-.6-.4-1.2-1.2-.7-.3-.5-.2-1.2-.1-.5-.2-.6-.2-.5-.4-.4-.7-.3-.6-.5-.6-.5-1.2-.9-.8-1.3-.9-2.2-1.1-.8-.2-.8-.4-.6-.5-.6-.6-.5-.4-.5.1h-.3l-.3-.2-.3-.7-.7-1.4-.3-.3-.6-.3-.2-.3-.4-.7-.3-.4-.3-.3-.4-.2-.6-.1-.4-.5-.2-.1-.1-.2-.9-2.5-.3-.6-1.7-2-.2-.1-.5-.8-.2-.8-.4-.8-1.3-.6-1.7.3-1.1.2-.7-.3-.3-.3-.5-.6-.6-.3-.6-.6-1-.4-.1-.2-.2-.5h-.4l-.5.2-.7-.2-2.4-1.1-.8-.8.1-1.1.3-.5.1-.4v-.4l.1-.7.9-.9.2-.6.2-.9.1-.4.2-.3 1-1 .7-.3.3-.4.2-.4.1-.4v-.2h.1l6.6-3.4.6-.2.1.2.4.1 1.3-.9.2-.3.1-.2.1-.4.1-.1.4-.1.2-.1 1-.6 1.1-.6 1-.2.2-.1.4-.4.8-.2.3-.1.2-.3.1-.5.5-.5.3.3.4.1 1.7-.4 28.8-3.3h.4l.2.2.1.4-.2.7v.4l.2.4.5.5.2-.1.3-.1 1.8-1.8 3.8 3.7.1.1.5 3v.3l.1.2.3.2.3.1 19-2.992V187h-23.325zM254.65 0l.05.5-.1.1-.3-.1-.2.2-.1-.2-.6.4-.5.1-.7.3-.2 1.1-.8 1.4-.2.6.1.4.2 1 .1.6-.1.1-.9.6-.3.1v.3l.2.5.1.2.3.2.5.3.1.3.1 1.1.3.6.2.3v.1l-.1.1-.1-.1-.4-.3-.6-.1-.4.3-.1 1.2-.2.3-.3.5-.3.2h-.3l-.1-.1.1-.2v-.4l.2-.2.1-.3-.1-.3-.2-.3-.2-.5-.2-.4-.5-.3-.8-.3-.4-.2-.5-.3-.7.2-.7.7-.7 1.2-.4 1.2-.3 1 .1 1.2-.3.8-.1.6-.4.3-.4.5.1.8.3.6.2.3.2.4.2.6-.1.4.1.4.3.5.2.7v.2l-.2.3-.3.2h-1.2l-.3.4-.3.8v2.6l-.1.4-.2.5-.3.2-1.6.4-1.8 1-1 .2-.7-.2-.2-.2-.5-.9-.3-.4-2-1.4-1-.5-1.1-.2-1-.3-.8-.9-.8-1.8-.1-.5-.1-.6-.2-.5-.5-.2-.7.2-1.3.9-.6.2-.4.2-.4.5-.2.4-.3.3-.5.3-.2.2-.3 1-.1.2-.3.3h-1.4l-.6.1-.5.4-.2.2-.6.3-.3-.2-.7-.9-.2-.1-.4-.3-.7-.2h-.4l-.8.1h-.1l-.4-.3-.6-.3-.5-.1h-.5l-1.7.8-.4.4v.6l-.1.4-.3.3-.4.2-.8-.1-.9-.4-1.8-1.3-.4-.4-.4-.5-.4-.4-1.1-.1-1-.3h-.6l-2 .7h-.4l-2.6-.6-.5-.2-.2-.4-.1-.7-.2-.5-.2-.6-.4-.5-.3-.2-.3-.3-.3-.2-.1-.3-.1-.5-.3-.6-.3-.4-.4-.4-1.1-.4-.7-.1h-.4l-.1-.2-.3-.4-.5-.6-.7-.2-1 .4-1.8 1.1h-.8l-1.3-1-.3-.1-.5-.5-.4-.1-.4.2-.2.2-.3.5-.8.6-.3-2.4L180.547 0h74.103zM314 69.777v51.519l-19 3.004h-.1l-.5-3.3-.1-.2-4.1-3.9-.1-.1h-.4l-1.9 1.9h-.1l-.1-.1-.2-.4.3-.9-.1-.4-.1-.3-.4-.4-.4-.1h-.3l-16.4 2-12.4 1.3-1.7.5-.3-.3-.3-.2-.2.1-.3.1-.4.3-.1.3-.1.1-.1.5-.1.1-.8.1-.2.1-.3.4-1.1.2-1.3.7-.9.6-.7.2-.2.2-.1.6-.3.3-.9.7-.3-.4-1 .4-6.5 3.3h-.2l-28.4 4.6-.3-6.1v-.2l.1-.3.2-.3.4-.5.2-.2.3-.1h.1l.6.3.6-.1 1.2-.3.6-.1h.1l.3-.2.6-.8.2-.3.1-.4-.1-1 .1-.3.3-.8.1-.4v-.4l-.2-.3.1-.3.4-.6.3-.3.9-.5.2-.1.3-.5.3-.8.2-.2.3-.2.8-.3.4-.3.3-.3.5-.4.8-.4 1-.1.4-.1.2-.1h.3l.6-.1.4-.2h.2l.4.2h.6l1.5-.6.2-.1.6-.8.4-.6 1.2-.7.9-1 .2-.2h.2l.2.1.2-.1.3-.2.4-.7.4-.6.2-.2.7-.4.2-.2.5-.7 1-.5 1.2-.9h1.7l.2-.1.3-.2.5-.9.5-1 .1-.3v-.4l.2-.5.1-.2v-.3l-.4-.6v-.3l.1-.3.2-.2.2-.1h.2l.5.1.5.3.4.1.2-.1.2-.2.2-.3v-.4l.3-.3v-.3l.1-.2-.1-.4 1.4-1.1.6-.3.9-.7.2-.1.5.5-.1.5v.4l.1.2.2.5.1.1.3.2.2.1.3.1h.2l.3-.1 1.2-1 .1-.1.8-1.2.2-.9.2-.3.6-1 .3-.3.4-.3 1-.4.5-.4.7-.1.8-.8.2-.1h.1l.4.2.6-.1h.1l.3.6.1.1.1.2.4.2.6.1h.2l.3-.1.2-.1.6-.7.4-.4.2-.3 1.6-4.8.5-.7 1.6-1.4.1-.1 1.3.2h.7l.3-.1.2-.4-.3-.4-.4-.3-.3-.5v-.3l.4-1.4.2-1.1v-.3l-.5-.7v-.6l.7-1.5v.1h.4l20.7-3.3 20.2-3.5 6.9-1.223zM121.239 187H0v-75.954l2.5-.146 19.3-1.3 12.8-.9 19.3-1.5 12.8-1.1 1.4-.2.5.9.3.3.2.6v.3l.3.3.8.5.3.2.2.5-.1.7v.3l.2.8-.1.3-.1.3-.7.3-.4.4v.7l-.2.3-.7.5-.5.3-.7.4-.2.3-.1.3v.6l-.8.5-.4.3-.5.7-.3.7-.2.3-.7 1.8-.1.3.2.5 15.3-1.7.6.8.6.6.3.7-.8-.3-.7.1-.5.3-.4.5-.3.8.9.3.6.4.1.3-1.2 1.2-3.4 1.8-.5.6.1.6.5.8.6.8-.2.5-.4.4-.2.5.1.4.5.5.3.6-.5.3-.6.1-.7.3-.3.4-.1.7.1.6-.1.5-.2.4-.3.4-1.2 1.2-.3.5v.9l.1 1.3.2.6.6 1.4.3 1.1.1 1.1-.3.6-1-.1h-.8l-.3.8v1l-.2.4-.3.4-.8.5-.5.3-.5.1-.4.5.4.6.8.8v1l-.6.9-1 .8-2.6 1.3-.4.6.2.6.3.5.2.4-.4.5-.4.2h-.4l-.5-.3-.6.2-.3.8-.3 1.1-.1 1.3.6 2-.1 2.4.1 1-.1.7-.6.8-.8.6-.5.2-.9.2-.9-.5-.2.5v.4l.1.5.3.5v.3l-.3.6-.1.3-.4-.2-.4.1-1.2 2.6-.6.3-1.2.9-.3.4.1 1.1 1.8.7.1.9-.2.4-.3.2-.9.1-.6.2-1.3.8-1.3.4-.4.4.2.6 1 .5.3.6-.2.5-.4.8.2 1.1.4.5.1.4-.2.4-.7.2-.7.4-.4.5-.4.5h70.039H52l.4-.7.4-.2.6-.1.5-.1.3-.9-.2-.6-.3-.5-.2-.8.3-.7.4-.8-.6-1-.8-.2-.1-.3 1.2-.4 1.3-.8.4-.1.6-.1.5-.1.5-.3.4-.7-.2-1.4-1.8-.7-.1-.5 1.3-1 .4-.2.3-.3.8-2.3 1.1.1.2-.3.1-.3.3-.6.1-.3-.1-.4-.3-.6-.1-.3.7.1 1-.2.6-.3.8-.5.8-1.1.2-.9-.1-1v-2.5l-.6-2 .1-1.1.3-1 .3-.5.5.2.6-.1.6-.2.7-.9-.3-.7-.3-.5-.1-.3.2-.3 2.5-1.2 1.1-.9.8-1.2-.1-1.4-.6-.6 2.6-.2 3.2-.3 18.4-1.7 24.7-2.5.9-.1.5 1.1.6.7 1 .6.039 40zM28.112 0L28.1.1v2.5l1 4.7.2.5.4.5.4.4.1.2.2.3v.9l-.1.9.2.6.4.4.1.3.7.6.1.2.2 1 .4.9.5.7 6.1 4.7.4.4.2.4.2.6.2.5.4.4L46 26l.5.4.5.7.7 1 .3.5.2.5v.4l.1.8v.3l.2.5.5.6v.4l-.2.4v.4l.2.5.2.3.2.8-.1.5 1.3 2.2.8.8 1.2.3 1-.6 1.3-2 1-.2h.3l.8.5.6.1h.5l1.1.2 2.3 1 .9.7.4.6-.1.3-.3.8-.4.6-.3.3-.3.4v.9l.2 1.1.1 1.1-.3.9-1 2-.8 3.2-1 1.9-.3 1v1.2l.4 1.3.1.5.4.7.2.2 1.4 1 .2.2.7.6.1.2.2.5.6.4.9.4 1.2 1.2.7.6.9.2 1.3 1 .5.2.9-.1.9.2.8.4 1.5 1.3.6.3 1.4.5.6.3.6.7.8 1.5.6.6 2.4.9.4.3-.1.3.4 1 .1.5v.9l-.1.6.2.6.6 1.1.7.8.6.9.3 1.1-.2.9-1.4 1.8.1 1.4.3.2.7.2.2.2v.2l.2.6.2.5.7.9 1 1.2.4.7-.1.9.5.5 1.3.8 1.1.4.5-.1.2-.5-.2-.5-.2-.4-.5-.3-.2-.5v-.1h.3l.4-.1.2.7.1.3.3.2.5.3.2.1.3.8.3.4.5.1.6-.3h.1l.3.1.1.3-.1 1.2.2.9v.2l-.5.7-.1.5.2.8.4.9.1.6-.1.6-.7 2.2-.4 1.6-.4.8-.4.3-.6-.2-.6-.4-.7-.7-.8-.5-.4.3-.4.8-.2 1.2v.4l-.3 1.3v.2l-.1.2v.1l-.4.6-.3.4-.2.1H84l-.1-.2.2-.6v-.2l.1-.5-.4-1.3-1.1-.4-1 .5-.1 1.3.2.3h-.1l.5.4v.1l.2.3-.1.5v.5l.7 1.2.1.5-.2.5-.3.3-.4.1h-.7l-.6.4.1.7.5.7.5.4.6.2.1.1-.1.1-.2.1-2.2.3-.8.3 1.7 2 .6 1v.3l-.8.4-.3.3-.2.4-.1.6-.6 1.2-.1.8-14.9 1.8.7-1.8.2-.3.3-.7.3-.4.1-.2.1-.1.6-.2.1-.1.3-.2.2-.4.1-.6v-.2l.3-.3.9-.5.7-.5.2-.1.1-.2.1-.4v-.5l.1-.1.6-.3.3-.2.2-.3.1-.6-.2-1v-.1l.1-.8v-.3l-.2-.5-.2-.2-1.1-.6v-.1l-.2-.7-.1-.4-.4-.2-.3-.7-.3-.5-8.2.8-19.2 1.5-19.3 1.5-19.3 1.3-2.4.14V0h28.113zm90.684 0h61.179l2.225 17.1-.2.2-.7 1 .2 1.1.7.6.4.4.1.3-.1.4-.7.9-.2.5.4.4.6.3 1-.1h.3v.2l-.2.4-.3.4-.1.8.4.8h-1.9l-.9.3-1.4.8-3 2.5-.7.2-.3-.1-.9-.8-.6-.2-1.5.2-2.6.5-.6.5.1.7.3.7.1.3.5 1.7.6 1-.1.5-.2.3-1.1 1.1-.2.4-.3.5-.2.2-1 .3-.5.2-.6 1-.3 2.7-.3.9-1 1-.8.3h-.1v-.1l-.2-.2-.8-.1h-.4l-.3.5-.4 1.3-.1.2-.4.3-.3.6-.2 1.4.2 2.7-.1.7-.3.5-.1.2-.2.1-1.1.4-.6.3-.2.5v.1l-.3-.2-1.1-.9-.6-.1-1.1.1-.4-.2-.5-.2-.9-.4-.3-.2-.2-.3-.1-.3-.1-1.4-.3-.3-1.4-.9-.5-.2-.7.1-.4.4.5.8.6.2.4.1-.2.2-.8.5-.4.1h-.1l-.3-.3-.4-.2h-.5l-.2.6.2.4.6.6-.1.5-.2.3-.4.2-.6.1-.4.4v.8l.3 1.8v.4l-.2.1-1.2.5-.2.6.1.6-.1.5-.3.2h-.5l.4-1.3-.9-.1-1 .3h-.7l-.6-.4-.6-.7-.2-.7-.7-.7-.9.5-1.4 1.4-.2.1-1.2.3-.6.3-.3.3-.5 1-.4 1.8-.2.7-.5.4-.3-.2-.3-.4-.2-.2-.1-.4-.2-.3-.4-.1h-.7l-1.2-.6-1.5-.4-.5-.2-.4-.3-.6-.3-.6-.2-.6-.1-1.1.4-.8.6-.7.2-.7-.5-.1-.1v-.6l-.3-.3-.3-.1-.4.1-.2.3-.1.5.2.7.5.8.2.5-.2.7-.4.6-.5.3-.3-.2-.1-.3.2-.9-.2-.6-.5-.3-.5.1-.4.3-.2.2h-.2l-.8.4-.4.1h-.4l-.8-.4-.4-.4-.5-.4h-.7l-.5.4-.2.8.2.4.8 1.5-.9 1.2h-.2l-.8-.4-.5-.1-.6.1-.2-.1.6-.3-.3-.5-1.1-1 .3.1.8-.4.1-.4-.4-1.3v-.2l.2-.4v-.6l-.2-.5-.1-.1.3-.4-.3-.6.3-.1.5-.2.4-.3.5-.6-.8-.5-.5.1.5-.6.6-.3.3-.2.3-.8-.4-.4-.5-.3-.2-.1-.1-.3-.4-.3v-.4l.3-.3.2-.3.2-1 .1-.3h.1l.2.3.7.4.2-.9v-.2h.1l.2.4.5.2.3-.4v-1l.2-.3.1-.7.1-.2.5-.4.2-.1.4-.6.1-.3.2-.3.1-.8-.4-.3.5-.2.7-.4.4-.6h.6l.2-.5v-.5l-.5-.6-.1-.3.1-.4.1-.2.2-.2 1-.7h-.5V39l-.1-.6.1-.5.2-.4.3-.3.5-.1.3-.1.2-.4.5-2.2-.5-1.2-.6-1-.3-1V31l.2-.5.1-.5-.1-1.1-.2-.5-.8-.5-.3-.3-.5-1.5-.3-.5-.8-.7-.4-.2h-.1l-.1-.2v-.9l1.3-1.6-.1-1.4-.7-.9-.1-.4.1-.4.3-.4 1.3-.9.2-.2L118.796 0zm-.59 0L120 16.3l.1 1-1.2.7-.5.6-.2.7.2.6.6.9.1 1.1-1.3 1.5.1 1.3.2.4.6.2.7.6.2.4.4 1.1.1.4.4.5.7.4.1.3.2 1-.1.3-.2.4-.1.6.4 1.1.6 1 .4 1-.4 2.1-.1.1-.4.1h-.2l-.5.4-.3.6-.2.8.2.5-.1.1-.7.6h.2l-.2.4-.1.6.1.5.4.6.1.2h-.5l-.4.6-.2.1-.6.4-.9.4.1.6.4.2-.1.4-.2.6-.3.4-.5.3-.2.2-.2.5-.2.6-.1.4v.7l-.1-.3-.3-.3-.4.2-.4.6v.2l-.1-.1-.1-.4-.8.3-.2.5-.2.9-.1.2-.3.2-.1.3-.1.5.1.4.8.8.5.3.2.1-.1.3-.1.1-.5.2-1.5 1.5.9.3.6-.1-.3.3-.4.2-.3.1-.6.3.4.8-.2.4.2.3.2.8-.3.3v.5l.4 1.2-.2.2h-.1l-1.8-.1 1 1 1.2.9-1 .1-.2.2v.3l.2.3.2.1h.5l.3.1v.2l.1.5-.2.6-.2.3-1.2 1.3-.3.5-.3.7-.1.8.3.6.5.8.2.2.7.6.6 1.1-.1.6-.6.5-4.1 1.2-1.3.9-.3.1-1.1.1-.4.1-.5.3-.3.4-.3.5-.3 1.3v1.2l.4 1.1.6 1 .8.9.5.8.1.8-.4 1.1-.5.6-.7.2-.9-.1-1.7-1-6.8-2.4-1.2-.1-1 .3-1.1.5-.8.8-.2.4-.6 1.5-.8 1-.4 1.1.1.8.6.8.3.3h-.1l-.4.2h-.1l-.1-.1-.2-.6-.4-.6-.6-.2-.1-.2-.3-.9-.3-.2h-.7l-.6.2-.2.5.4.8.3.3.2.1.1.2.1.3-.9-.3-1.2-.7-.4-.3.1-.9-.5-.9-1-1.1-.6-.9-.2-.4-.1-.4v-.5l-.6-.4-.6-.2-.1-.9.5-.8.7-.9.4-1.2-.4-1.3-.6-1-.7-.8-.6-.9-.1-.5v-.5l.1-.6v-.5l-.2-.6-.2-.4-.1-.4.2-.5-.8-.6-2.4-.8-.5-.5-.8-1.5-.6-.8-.7-.4-1.5-.5-.5-.2-1.5-1.3-.8-.5-1.2-.3-.8.1-.3-.1-1.4-1-.8-.2-.6-.5-.7-.7-.6-.5-.9-.5-.4-.2-.2-.4-.2-.3-.7-.6-.2-.2-1.4-1.1-.1-.2-.3-.5-.2-.4-.3-1.3v-1l.2-.9 1-1.9.9-3.2.9-2 .4-1-.1-1.3-.2-1.1v-.6l.5-.5.4-.8.3-.8.2-.6-.5-.9-1.1-.7-2.4-1.1-1.3-.3h-.9l-.8-.5-.5-.1-1.3.4-1.3 2-.8.4-.8-.2-.7-.7-1.1-1.9v-.4l-.2-1-.4-.6.1-.3.2-.8-.1-.3-.5-.7-.1-.3-.1-1.1-.1-.4-.2-.6-.3-.6-.7-1.1-.6-.7-.6-.4-5.5-3.4-.4-.2-.3-1-.3-.6-.4-.4-6.1-4.6-.4-.6-.4-.9-.1-.7v-.3l-.2-.3-.7-.6-.2-.3-.3-.4-.1-.1V11l.1-.9-.1-.7v-.3l-.1-.3-.3-.4-.4-.4-.3-.5-.2-.3-.9-4.7-.1-1.2.1-1.2.014-.1h89.491zM290.1 187h-94.477L184.4 151.2l-1.8-6-2.1-6.8-.1-.2-.2-.9 11.5-1.5 11.9-1.7.8-.1.1.1 5.8-.5.3-.1h.3l27.9-4.5v.3l-.2.3-.1.2-.6.3-.3.3-.9.8-.3.5-.1.4-.2.9-.2.5-.5.5-.3.4-.3.6v1l-.3.5-.1 1.5 1 1 2.5 1.2.9.3.5-.2v.1l.4.5.9.4.6.5.6.3.5.6.4.4 1 .4 1.2-.3 1.5-.2 1 .4.3.6.2.8.5.9.3.2 1.7 1.9.2.6.9 2.4.2.4.7.7.6.1.6.4.2.3.4.7.3.5.7.2.1.2.4.7.7 1.4.4.4.6.1.4-.1.3.2.5.6.7.6.9.4.8.2 1 .4 1.1.7 1.3.9.7.6.5 1.2.5.5.3.6.5.8.6.5.7.4 1.8.3.4.1.5.3 1.3 1.1.6.4 1 .5.3.3-.1.7.3.2v.1h-.2v.5l.3.6-.3.2.4.6 1.3 1.1.5.4v-.1l.8.4.1.1v.1l-.4.4.6.8.5.4.6.1.5-.1v.1l.4 1.1.2.4 1 .7 2.3.5 1 .4.9.6.4.1.6.1.2.1.3.3.3.5.2.4-.1 1 .1.7.4.3 1.6 1.8.3.7.2.4v.4l.3.5.3.4.2.4v.2zm-168.199 0l.099-40.6h-.7l-.7-.4-.6-.6-.7-1.5 30.6-3.1 29.7-3.4 15.44 49.6h-73.139zM218.8 85.3l.5-.4 38.6-5.8 1.1-.2.3-.1.4-.6 5.6-.7-.7 1.6-.1.7.5.8.1.2-.2 1-.4 1.4-.1.3v.2l.5.7.4.4h-.5l-1.3-.2h-.2l-1.9 1.6-.5.7-.1.1-1.7 5.1-.2.2-.2.1-.3.4-.3.3h-.6l-.3-.2-.2-.4-.2-.3-.1-.1-.2-.1h-.8l-.3-.1-.2-.1-.3.1-.4.2-.6.6-.5.1-.2.1-.6.4-.8.3-.6.5-.4.4-.7 1-.2.4-.2.7-.5 1-1.2 1.1-.2.1h-.3l-.2-.1-.3-.5-.1-.2.1-.8v-.1l-.6-.7-.2-.1-.3-.1-.3.2-1 .7-.6.3-1.5 1.2-.1.2v.6l-.4 1v.1l-.1.1-1-.5h-.3l-.3.1-.4.1-.4.3-.2.7v.2l.1.3.4.6-.3.5v.5l-.1.3-.5 1-.4.7-.1.1h-.4l-.9.1-.4-.1-.2.1-1.2.9-.9.4-.3.2-.5.7-.9.6-.7.9-.3.6-.1.1h-.5l-.3.1-.6.6-.4.6-1.2.7-.4.4-.1.3-.5.6-.1.1-1.5.6h-.2l-.3-.2-.4-.1h-.2l-.5.3h-.7l-.6.3h-.9l-.2.1-1 .4-.6.5-.2.3-.2.2-.9.3-.4.3-.3.1-.1.2-.3.9-.2.3-1 .6-.3.2-.6.8-.1.3v.3l.2.5v.3l-.4.8-.1.5.1 1.1-.1.2-.7.9-.1.1-.6.1-1.2.3h-.4l-.4-.2-.3-.1h-.2l-.5.3-.2.1-.5.7-.3.4-.2.5.4 6.4-5.7.5h-.2l-24.7 3.3-29.8 3.4-29.9 3.1-1.5.1.3.7-31.5 3.2-18.4 1.6.4-.1.6-.3.8-.6.4-.5.3-.5.1-.6v-.5l.1-.3.4-.1.6.1h.7l.5-1-.1-1.3-.3-1.2-.6-1.4-.1-.5-.2-1.2v-.7l.3-.4 1.1-1.1.4-.5.2-.5.1-.6v-1.2l.2-.2.4-.1.6-.2.7-.2.3-.6-.5-.9-.4-.4v-.4l.4-.3.4-.6v-.6l-.8-.8-.4-.6v-.3l.2-.3 3.4-1.9 1.6-1.5-.4-.8-.8-.5-.4-.1.1-.2.3-.4.3-.2.3-.1.7.5.7.1.2-.9-.4-.9-.7-.7-.5-.6.1-1 .6-1.2.1-.6.1-.2.3-.2.3-.3.5-.1.2-.9-.8-1.2-1.2-1.5 2.3-.3.2-.1.4-.3.1-.6-.4-.3-.6-.1-.8-.8v-.3l.2-.2h.6l.5-.1.6-.5.2-.8-.1-.7-.6-1.1-.1-.4.2-.6-.2-.2.3-.1h.4l-.1.5.1.7.9.1.4-.2.4-.5.5-.8 16-1.6 16.4-1.7v-.9L118 99l-.1-.5-.5-1.5-.6-1.2v-.2l4.4-.1.1.1.3.4.1.2.3.2 17.7-2.3 4.9-.6 3.9-.5 3.6-.5.7-.3 15.8-1.4 16.8-1.7 30.6-3.2 1.9-.2.9-.4zm-127.4 4h-.1l-.8-.8-.4-.6-.2-.6.4-.8.7-1 .7-1.5.1-.3.8-.7.8-.5 1-.2 1 .1 6.6 2.3 1.8 1 1.1.2 1-.3.7-.8.4-1.4-.1-1-.6-.9-.7-.9-.6-.9-.3-1v-1l.2-1.2.2-.4.3-.3.3-.1.3-.2h1.1l.5-.2 1.2-.9 4.2-1.2.8-.7.1-1-.6-1.3-.8-.7-.6-.8-.2-.5.1-.6.2-.6.2-.4 1.2-1.2.3-.4.2-.8v-.8l.3-.1.3.1.8.4.8.1.1-.3 1-1.4-.9-1.8-.1-.3.1-.4.2-.2.3.1.4.2.4.4.4.3.5.2.6.1.6-.2.8-.4h.3l.5-.5h.2l.2.1v.2l-.1 1 .1.6.8.4.8-.4.6-.8.2-1-.2-.7-.5-.8-.1-.5v-.3h.1l.1.5.1.4 1.1.8 1-.4.9-.6.9-.3h.3l.6.2 1 .6.5.2 1.5.4 1 .5.6.2.4-.1.2.1.1.4.2.3.5.5.7.4.8-.7.3-.8.4-1.9.2-.4.2-.3.6-.4 1.3-.3.4-.3.5-.6.7-.7.6-.3.3.3.2.7.7.8.8.5 1 .1 1-.3h.1l-.3 1 .6.4.7-.1.6-.4.2-.8-.1-.5v-.3l1.2-.4.3-.4v-.6l-.3-1.8.1-.6.1-.1.4-.1.6-.2.5-.6v-.8l-.2-.4-.5-.4v-.1h.2v.1l.2.3.5.1.6-.1 1-.6.5-.8-.4-.4-.6-.1-.3-.2-.2-.2h.3l.4.1 1.2.8.2.1.1 1.2v.5l.3.4.6.4.9.4 1 .5 1.2-.1h.4l1 .8.7.5.4-.4.1-.5.4-.2 1.1-.4.4-.3.2-.2.2-.3.1-.3.1-.9-.1-2.7v-.6l.1-.6.2-.5.3-.2.3-.3.4-1.3.1-.3h.1l.5.1.2.4.5-.1.9-.4.5-.3.7-.7.5-1.2.2-2.6.5-.8.3-.1 1-.3.4-.3.3-.6.2-.3 1.1-1.1.4-.5v-.8l-.6-1.1-.4-1.7-.3-.4-.2-.5v-.4l.2-.1 2.5-.6 1.3-.1.4.1.8.7.7.3 1-.3 3-2.5 1.4-.8.7-.2h1.9l.5-.5-.5-1 .1-.4.3-.4.2-.6v-.7l-.8-.2-1 .1-.4-.2.8-1 .2-.7-.2-.6-.5-.5-.6-.5-.2-.7.5-.7 1.6-1.2.3-.5.1-.2h.1l.4.3.5.3 1.4 1.1 1.2-.1 1.8-1.2.8-.2.4.1.3.4.3.5.5.3h.4l.6.1 1 .4.3.2.3.4.2.5.1.5.2.4.4.4.3.2.2.2.3.4.2.4.1.6.2.7.3.6.6.3 2.8.6h.6l2-.7h.4l1 .3.9.1.3.3.4.5.5.4 1.8 1.4 1 .4 1.2.1.5-.2.4-.5.3-.6v-.5l.1-.1 1.5-.7h.4l.8.2.4.4.4.1.8-.1h.3l.6.1.3.2.8 1 .4.2.4.1.9-.3.2-.3.3-.2.4-.1h1.1l.5-.1.5-.4.2-.5.1-.5.1-.2.1-.1.5-.3.4-.5.2-.4.3-.3.3-.2.6-.2 1.3-.9.5-.2.1.1v.3l.1.5.2.6.8 1.8 1 1.1 1.2.5 1 .2.9.3 1.9 1.4.8 1.2.2.2.1 1.2v.2l.2.3.5.8.1.3.1.2v1.1l.2.6-.3.1-.2.1-.1.4v.2l.1.4v.3l-.5.5-.2.3v.3l.3.6 2.1 2 .3.7.5.5 1.3.8.2.2.2.3-.3.6v.4l.2.2 1.1.6.3.1.3.5.3 1 .1.3.2.3 1.7 1.3.5.5.1.3.4.9.2.4.2.2.4.2.9.2.3.1.2.1.8.8.3-.2.7.5.3.2.1.6.2.2.5.1 2 .3h.3l.7-.3h.2l-7.4 8.6-.5.4-5.5 3.9-1 1-.4.5-.2.4.1.3.1.4.2.6v.2l-.2.4-2 1.5-.6.5-.1.3-.2.4.2.9v.8l-.1.2-.3.2-2.6 1.5-1 .1-.2.1-.1.1-.5.7-.3 1-.3.6-.1.1v.2l.1.3v.1l-.2.2-2.3.7-2.3 1.2-.9.7-.2.3-.1.1-2.4.6-1.9 1.1h-.2l-.5.3-.9 1.1-.5.3-.8.3-10.8 1.2-21.6 2.3-16.8 1.6-15.5 1.4-.3.1-.8.2-17.5 2.3-12.3 1.6-.3-.5-.2-.2-.3-.1-4.7.1-.3.1-.1.1v.3l.7 1.6.4 1.4.1.5.1 1v.4l-31.6 3.2.2-1.4v-.4l.3-1 .1-.5.1-.1.5.3.6.6.7.5 1 .3.7-.5.5-1 .4-1.7.7-2.1.2-.8-.2-.7-.4-1-.1-.6v-.2l.4-.6.1-.2v-.4l-.1-.9V90l-.2-.6v-.1z" stroke="#282828" stroke-width=".5" fill="#333" fill-rule="nonzero"/><path d="M147.267 29.69a4.344 4.344 0 0 1-4.343-4.345 4.344 4.344 0 1 1 4.343 4.345zm100.978 175.025a6.952 6.952 0 0 1-6.95-6.953 6.952 6.952 0 0 1 6.95-6.953 6.952 6.952 0 0 1 6.95 6.953 6.952 6.952 0 0 1-6.95 6.953zM25.019 142.936a4.02 4.02 0 0 1-4.019-4.02 4.02 4.02 0 1 1 4.02 4.02zm4.034-67.726a3.901 3.901 0 0 1-3.9-3.903 3.901 3.901 0 1 1 3.9 3.903zM269.306 31.06a3.759 3.759 0 0 1-3.758-3.76 3.759 3.759 0 1 1 3.758 3.76zm18.608 33.896a3.04 3.04 0 1 1-3.908-4.658 3.04 3.04 0 0 1 3.908 4.658zM222.971 168.62a7.205 7.205 0 0 1-7.204-7.207 7.205 7.205 0 0 1 7.204-7.206 7.205 7.205 0 0 1 7.203 7.206 7.205 7.205 0 0 1-7.203 7.207zm-60.584 1.207a3.418 3.418 0 1 1 .002-6.837 3.418 3.418 0 0 1-.002 6.837zm115.52-18.616a8.253 8.253 0 0 1-8.251-8.255 8.253 8.253 0 0 1 8.251-8.255 8.253 8.253 0 0 1 8.252 8.255 8.253 8.253 0 0 1-8.252 8.255zM89.427 36.573a2.606 2.606 0 1 1 .001-5.213 2.606 2.606 0 0 1 0 5.213zM277.04 102.15a2.172 2.172 0 1 1 0-4.344 2.172 2.172 0 0 1 0 4.344zM90.163 171.921a3.693 3.693 0 0 1-3.693-3.694 3.693 3.693 0 1 1 3.693 3.694zM207.42 44.996a5.325 5.325 0 0 1 5.324 5.326 5.325 5.325 0 1 1-10.647 0 5.325 5.325 0 0 1 5.323-5.326z" fill="url(#a)"/></g></svg>